  0
SECTION
  2
HEADER
  9
$ACADVER
  1
AC1014
  9
$ACADMAINTVER
 70
     9
  9
$DWGCODEPAGE
  3
ANSI_1252
  9
$INSBASE
 10
0.0
 20
0.0
 30
0.0
  9
$EXTMIN
 10
0.0
 20
0.0
 30
0.0
  9
$EXTMAX
 10
96.062992126
 20
48.031496063
 30
0.0
  9
$LIMMIN
 10
0.0
 20
0.0
  9
$LIMMAX
 10
96.062992126
 20
48.031496063
  9
$ORTHOMODE
 70
     0
  9
$REGENMODE
 70
     1
  9
$FILLMODE
 70
     1
  9
$QTEXTMODE
 70
     0
  9
$MIRRTEXT
 70
     1
  9
$DRAGMODE
 70
     2
  9
$LTSCALE
 40
1.0
  9
$OSMODE
 70
    37
  9
$ATTMODE
 70
     1
  9
$TEXTSIZE
 40
0.1377952756
  9
$TRACEWID
 40
0.05
  9
$TEXTSTYLE
  7
STANDARD
  9
$CLAYER
  8
0
  9
$CELTYPE
  6
BYLAYER
  9
$CECOLOR
 62
   256
  9
$CELTSCALE
 40
1.0
  9
$DELOBJ
 70
     1
  9
$DISPSILH
 70
     0
  9
$DIMSCALE
 40
1.0
  9
$DIMASZ
 40
0.13
  9
$DIMEXO
 40
0.0393700787
  9
$DIMDLI
 40
0.38
  9
$DIMRND
 40
0.0
  9
$DIMDLE
 40
0.0
  9
$DIMEXE
 40
0.0393700787
  9
$DIMTP
 40
0.0
  9
$DIMTM
 40
0.0
  9
$DIMTXT
 40
0.1805555556
  9
$DIMCEN
 40
0.09
  9
$DIMTSZ
 40
0.0
  9
$DIMTOL
 70
     0
  9
$DIMLIM
 70
     0
  9
$DIMTIH
 70
     1
  9
$DIMTOH
 70
     1
  9
$DIMSE1
 70
     0
  9
$DIMSE2
 70
     0
  9
$DIMTAD
 70
     1
  9
$DIMZIN
 70
     0
  9
$DIMBLK
  1

  9
$DIMASO
 70
     1
  9
$DIMSHO
 70
     1
  9
$DIMPOST
  1

  9
$DIMAPOST
  1

  9
$DIMALT
 70
     0
  9
$DIMALTD
 70
     2
  9
$DIMALTF
 40
25.4
  9
$DIMLFAC
 40
1.0
  9
$DIMTOFL
 70
     0
  9
$DIMTVP
 40
0.0
  9
$DIMTIX
 70
     0
  9
$DIMSOXD
 70
     0
  9
$DIMSAH
 70
     0
  9
$DIMBLK1
  1

  9
$DIMBLK2
  1

  9
$DIMSTYLE
  2
STANDARD
  9
$DIMCLRD
 70
     0
  9
$DIMCLRE
 70
     0
  9
$DIMCLRT
 70
     0
  9
$DIMTFAC
 40
1.0
  9
$DIMGAP
 40
0.06
  9
$DIMJUST
 70
     0
  9
$DIMSD1
 70
     0
  9
$DIMSD2
 70
     0
  9
$DIMTOLJ
 70
     1
  9
$DIMTZIN
 70
     0
  9
$DIMALTZ
 70
     0
  9
$DIMALTTZ
 70
     0
  9
$DIMFIT
 70
     3
  9
$DIMUPT
 70
     0
  9
$DIMUNIT
 70
     2
  9
$DIMDEC
 70
     2
  9
$DIMTDEC
 70
     2
  9
$DIMALTU
 70
     2
  9
$DIMALTTD
 70
     2
  9
$DIMTXSTY
  7
STANDARD
  9
$DIMAUNIT
 70
     0
  9
$LUNITS
 70
     2
  9
$LUPREC
 70
     2
  9
$SKETCHINC
 40
0.1
  9
$FILLETRAD
 40
0.5
  9
$AUNITS
 70
     0
  9
$AUPREC
 70
     2
  9
$MENU
  1
.
  9
$ELEVATION
 40
0.0
  9
$PELEVATION
 40
0.0
  9
$THICKNESS
 40
0.0
  9
$LIMCHECK
 70
     0
  9
$CHAMFERA
 40
0.0
  9
$CHAMFERB
 40
0.0
  9
$CHAMFERC
 40
0.0
  9
$CHAMFERD
 40
0.0
  9
$SKPOLY
 70
     0
  9
$TDCREATE
 40
2457718.74630816
  9
$TDUPDATE
 40
2457718.746308519
  9
$TDINDWG
 40
0.0000000116
  9
$TDUSRTIMER
 40
0.0000000116
  9
$USRTIMER
 70
     1
  9
$ANGBASE
 50
0.0
  9
$ANGDIR
 70
     0
  9
$PDMODE
 70
     0
  9
$PDSIZE
 40
-1.0
  9
$PLINEWID
 40
0.0
  9
$COORDS
 70
     1
  9
$SPLFRAME
 70
     0
  9
$SPLINETYPE
 70
     6
  9
$SPLINESEGS
 70
     8
  9
$ATTDIA
 70
     0
  9
$ATTREQ
 70
     1
  9
$HANDLING
 70
     1
  9
$HANDSEED
  5
395
  9
$SURFTAB1
 70
     6
  9
$SURFTAB2
 70
     6
  9
$SURFTYPE
 70
     6
  9
$SURFU
 70
     6
  9
$SURFV
 70
     6
  9
$UCSNAME
  2

  9
$UCSORG
 10
0.0
 20
0.0
 30
0.0
  9
$UCSXDIR
 10
1.0
 20
0.0
 30
0.0
  9
$UCSYDIR
 10
0.0
 20
1.0
 30
0.0
  9
$PUCSNAME
  2

  9
$PUCSORG
 10
0.0
 20
0.0
 30
0.0
  9
$PUCSXDIR
 10
1.0
 20
0.0
 30
0.0
  9
$PUCSYDIR
 10
0.0
 20
1.0
 30
0.0
  9
$USERI1
 70
     0
  9
$USERI2
 70
     0
  9
$USERI3
 70
     0
  9
$USERI4
 70
     0
  9
$USERI5
 70
     0
  9
$USERR1
 40
0.0
  9
$USERR2
 40
0.0
  9
$USERR3
 40
0.0
  9
$USERR4
 40
0.0
  9
$USERR5
 40
0.0
  9
$WORLDVIEW
 70
     1
  9
$SHADEDGE
 70
     3
  9
$SHADEDIF
 70
    70
  9
$TILEMODE
 70
     1
  9
$MAXACTVP
 70
    64
  9
$PINSBASE
 10
0.0
 20
0.0
 30
0.0
  9
$PLIMCHECK
 70
     0
  9
$PEXTMIN
 10
1.0000000000E+20
 20
1.0000000000E+20
 30
1.0000000000E+20
  9
$PEXTMAX
 10
-1.0000000000E+20
 20
-1.0000000000E+20
 30
-1.0000000000E+20
  9
$PLIMMIN
 10
0.0
 20
0.0
  9
$PLIMMAX
 10
12.0
 20
9.0
  9
$UNITMODE
 70
     0
  9
$VISRETAIN
 70
     1
  9
$PLINEGEN
 70
     0
  9
$PSLTSCALE
 70
     1
  9
$TREEDEPTH
 70
  3020
  9
$PICKSTYLE
 70
     1
  9
$CMLSTYLE
  2
STANDARD
  9
$CMLJUST
 70
     0
  9
$CMLSCALE
 40
1.0
  9
$PROXYGRAPHICS
 70
     1
  9
$MEASUREMENT
 70
     0
  0
ENDSEC
  0
SECTION
  2
CLASSES
  0
CLASS
  1
ACDBDICTIONARYWDFLT
  2
AcDbDictionaryWithDefault
  3
ObjectDBX Classes
 90
        0
280
     0
281
     0
  0
CLASS
  1
VISUALSTYLE
  2
AcDbVisualStyle
  3
ObjectDBX Classes
 90
     4095
280
     0
281
     0
  0
CLASS
  1
MATERIAL
  2
AcDbMaterial
  3
ObjectDBX Classes
 90
     1153
280
     0
281
     0
  0
CLASS
  1
SCALE
  2
AcDbScale
  3
ObjectDBX Classes
 90
     1153
280
     0
281
     0
  0
CLASS
  1
TABLESTYLE
  2
AcDbTableStyle
  3
ObjectDBX Classes
 90
     4095
280
     0
281
     0
  0
CLASS
  1
MLEADERSTYLE
  2
AcDbMLeaderStyle
  3
ACDB_MLEADERSTYLE_CLASS
 90
     4095
280
     0
281
     0
  0
CLASS
  1
SUN
  2
AcDbSun
  3
SCENEOE
 90
     1153
280
     0
281
     0
  0
CLASS
  1
XRECORD
  2
AcDbXrecord
  3
ObjectDBX Classes
 90
        0
280
     0
281
     0
  0
CLASS
  1
LWPOLYLINE
  2
AcDbPolyline
  3
ObjectDBX Classes
 90
        0
280
     0
281
     1
  0
CLASS
  1
HATCH
  2
AcDbHatch
  3
ObjectDBX Classes
 90
        0
280
     0
281
     1
  0
ENDSEC
  0
SECTION
  2
TABLES
  0
TABLE
  2
VPORT
  5
8
330
0
100
AcDbSymbolTable
 70
     1
  0
VPORT
  5
29
330
8
100
AcDbSymbolTableRecord
100
AcDbViewportTableRecord
  2
*ACTIVE
 70
     0
 10
0.0
 20
0.0
 11
1.0
 21
1.0
 12
48.031496063
 22
24.0157480315
 13
0.0
 23
0.0
 14
0.5
 24
0.5
 15
0.5
 25
0.5
 16
0.0
 26
0.0
 36
1.0
 17
0.0
 27
0.0
 37
0.0
 40
48.031496063
 41
2.0
 42
50.0
 43
0.0
 44
0.0
 50
0.0
 51
0.0
 71
     0
 72
  2000
 73
     1
 74
     3
 75
     0
 76
     0
 77
     0
 78
     0
  0
ENDTAB
  0
TABLE
  2
LTYPE
  5
5
330
0
100
AcDbSymbolTable
 70
     6
  0
LTYPE
  5
14
330
5
100
AcDbSymbolTableRecord
100
AcDbLinetypeTableRecord
  2
BYBLOCK
 70
     0
  3

 72
    65
 73
     0
 40
0.0
  0
LTYPE
  5
15
330
5
100
AcDbSymbolTableRecord
100
AcDbLinetypeTableRecord
  2
BYLAYER
 70
     0
  3

 72
    65
 73
     0
 40
0.0
  0
LTYPE
  5
16
330
5
100
AcDbSymbolTableRecord
100
AcDbLinetypeTableRecord
  2
CONTINUOUS
 70
     0
  3
Solid line
 72
    65
 73
     0
 40
0.0
  0
LTYPE
  5
6E
330
5
100
AcDbSymbolTableRecord
100
AcDbLinetypeTableRecord
  2
HIDDEN
 70
     0
  3
Hidden __ __ __ __ __ __ __ __ __ __ __ __ __ __
 72
    65
 73
     2
 40
0.075
 49
0.05
 74
     0
 49
-0.025
 74
     0
  0
LTYPE
  5
6F
330
5
100
AcDbSymbolTableRecord
100
AcDbLinetypeTableRecord
  2
PHANTOM
 70
     0
  3
Phantom ______  __  __  ______  __  __  ______
 72
    65
 73
     6
 40
0.5
 49
0.25
 74
     0
 49
-0.05
 74
     0
 49
0.05
 74
     0
 49
-0.05
 74
     0
 49
0.05
 74
     0
 49
-0.05
 74
     0
  0
LTYPE
  5
70
330
5
100
AcDbSymbolTableRecord
100
AcDbLinetypeTableRecord
  2
CENTER
 70
     0
  3
Center ____ _ ____ _ ____ _ ____ _ ____ _ ____
 72
    65
 73
     4
 40
0.4
 49
0.25
 74
     0
 49
-0.05
 74
     0
 49
0.05
 74
     0
 49
-0.05
 74
     0
  0
LTYPE
  5
71
330
5
100
AcDbSymbolTableRecord
100
AcDbLinetypeTableRecord
  2
CENTERX2
 70
     0
  3
Center (2x) ________  __  ________  __  _____
 72
    65
 73
     4
 40
0.8
 49
0.5
 74
     0
 49
-0.1
 74
     0
 49
0.1
 74
     0
 49
-0.1
 74
     0
  0
LTYPE
  5
72
330
5
100
AcDbSymbolTableRecord
100
AcDbLinetypeTableRecord
  2
DOT2
 70
     0
  3
Dot (.5x) ........................................
 72
    65
 73
     2
 40
0.025
 49
0.0
 74
     0
 49
-0.025
 74
     0
  0
ENDTAB
  0
TABLE
  2
LAYER
  5
2
330
0
100
AcDbSymbolTable
 70
     6
  0
LAYER
  5
10
330
2
100
AcDbSymbolTableRecord
100
AcDbLayerTableRecord
  2
0
 70
     0
 62
     7
  6
CONTINUOUS
  0
LAYER
  5
73
330
2
100
AcDbSymbolTableRecord
100
AcDbLayerTableRecord
  2
BOX_STOCK
 70
     0
 62
     1
  6
CONTINUOUS
  0
LAYER
  5
74
330
2
100
AcDbSymbolTableRecord
100
AcDbLayerTableRecord
  2
HOLES
 70
     0
 62
    30
  6
CONTINUOUS
  0
LAYER
  5
75
330
2
100
AcDbSymbolTableRecord
100
AcDbLayerTableRecord
  2
POCKETS
 70
     0
 62
   171
  6
CONTINUOUS
  0
LAYER
  5
76
330
2
100
AcDbSymbolTableRecord
100
AcDbLayerTableRecord
  2
PROFILES_OUTSIDE
 70
     0
 62
     6
  6
CONTINUOUS
  0
LAYER
  5
77
330
2
100
AcDbSymbolTableRecord
100
AcDbLayerTableRecord
  2
PROFILES_INSIDE
 70
     0
 62
     4
  6
CONTINUOUS
  0
ENDTAB
  0
TABLE
  2
STYLE
  5
3
330
0
100
AcDbSymbolTable
 70
     1
  0
STYLE
  5
11
330
3
100
AcDbSymbolTableRecord
100
AcDbTextStyleTableRecord
  2
STANDARD
 70
     0
 40
0.0
 41
1.0
 50
0.0
 71
     0
 42
0.1377952756
  3
txt
  4

  0
ENDTAB
  0
TABLE
  2
VIEW
  5
6
330
0
100
AcDbSymbolTable
 70
     0
  0
ENDTAB
  0
TABLE
  2
UCS
  5
7
330
0
100
AcDbSymbolTable
 70
     0
  0
ENDTAB
  0
TABLE
  2
APPID
  5
9
330
0
100
AcDbSymbolTable
 70
     1
  0
APPID
  5
12
330
9
100
AcDbSymbolTableRecord
100
AcDbRegAppTableRecord
  2
ACAD
 70
     0
  0
ENDTAB
  0
TABLE
  2
DIMSTYLE
  5
A
330
0
100
AcDbSymbolTable
 70
     1
  0
DIMSTYLE
105
27
330
A
100
AcDbSymbolTableRecord
100
AcDbDimStyleTableRecord
  2
STANDARD
 70
     0
  3

  4

  5

  6

  7

 40
1.0
 41
0.18
 42
0.0625
 43
0.38
 44
0.18
 45
0.0
 46
0.0
 47
0.0
 48
0.0
140
0.18
141
0.09
142
0.0
143
25.4
144
1.0
145
0.0
146
1.0
147
0.09
 71
     0
 72
     0
 73
     1
 74
     1
 75
     0
 76
     0
 77
     0
 78
     0
170
     0
171
     2
172
     0
173
     0
174
     0
175
     0
176
     0
177
     0
178
     0
270
     2
271
     4
272
     4
273
     2
274
     2
340
11
275
     0
280
     0
281
     0
282
     0
283
     1
284
     0
285
     0
286
     0
287
     3
288
     0
  0
ENDTAB
  0
TABLE
  2
BLOCK_RECORD
  5
1
330
0
100
AcDbSymbolTable
 70
     1
  0
BLOCK_RECORD
  5
1F
330
1
100
AcDbSymbolTableRecord
100
AcDbBlockTableRecord
  2
*MODEL_SPACE
  0
BLOCK_RECORD
  5
1B
330
1
100
AcDbSymbolTableRecord
100
AcDbBlockTableRecord
  2
*PAPER_SPACE
  0
BLOCK_RECORD
  5
23
330
1
100
AcDbSymbolTableRecord
100
AcDbBlockTableRecord
  2
*PAPER_SPACE0
  0
ENDTAB
  0
ENDSEC
  0
SECTION
  2
BLOCKS
  0
BLOCK
  5
20
330
1F
100
AcDbEntity
  8
0
100
AcDbBlockBegin
  2
*MODEL_SPACE
 70
     0
 10
0.0
 20
0.0
 30
0.0
  3
*MODEL_SPACE
  1

  0
ENDBLK
  5
21
330
1F
100
AcDbEntity
  8
0
100
AcDbBlockEnd
  0
BLOCK
  5
1C
330
1B
100
AcDbEntity
 67
     1
  8
0
100
AcDbBlockBegin
  2
*PAPER_SPACE
 70
     0
 10
0.0
 20
0.0
 30
0.0
  3
*PAPER_SPACE
  1

  0
ENDBLK
  5
1D
330
1B
100
AcDbEntity
 67
     1
  8
0
100
AcDbBlockEnd
  0
BLOCK
  5
24
330
23
100
AcDbEntity
  8
0
100
AcDbBlockBegin
  2
*PAPER_SPACE0
 70
     0
 10
0.0
 20
0.0
 30
0.0
  3
*PAPER_SPACE0
  1

  0
ENDBLK
  5
25
330
23
100
AcDbEntity
  8
0
100
AcDbBlockEnd
  0
ENDSEC
  0
SECTION
  2
ENTITIES
  0
ARC
  5
78
330
1F
100
AcDbEntity
  8
0
  6
CONTINUOUS
 62
     7
100
AcDbCircle
 10
61.7585937035
 20
1.9320181997
 30
0.0
 40
0.2362204724409409
100
AcDbArc
 50
90.0
 51
180.0
  0
LINE
  5
79
330
1F
100
AcDbEntity
  8
0
  6
CONTINUOUS
 62
     7
100
AcDbLine
 10
66.8491443305
 20
2.1682386856
 30
0.0
 11
61.7585932169
 21
2.1682386856
 31
0.0
  0
ARC
  5
7A
330
1F
100
AcDbEntity
  8
0
  6
CONTINUOUS
 62
     7
100
AcDbCircle
 10
66.8491448846
 20
2.640679617
 30
0.0
 40
0.4724409448818858
100
AcDbArc
 50
270.0
 51
0.0
  0
LINE
  5
7B
330
1F
100
AcDbEntity
  8
0
  6
CONTINUOUS
 62
     7
100
AcDbLine
 10
67.3215838861
 20
5.8827778549
 30
0.0
 11
67.3215838861
 21
2.6406797079
 31
0.0
  0
ARC
  5
7C
330
1F
100
AcDbEntity
  8
0
  6
CONTINUOUS
 62
     7
100
AcDbCircle
 10
67.8215858295
 20
5.8827777729
 30
0.0
 40
0.5
100
AcDbArc
 50
120.0
 51
180.0
  0
ARC
  5
7D
330
1F
100
AcDbEntity
  8
0
  6
CONTINUOUS
 62
     7
100
AcDbCircle
 10
67.3215858295
 20
6.7488031767
 30
0.0
 40
0.5
100
AcDbArc
 50
300.0
 51
0.0
  0
LINE
  5
7E
330
1F
100
AcDbEntity
  8
0
  6
CONTINUOUS
 62
     7
100
AcDbLine
 10
67.82158707
 20
9.2431809553
 30
0.0
 11
67.82158707
 21
6.7488034239
 31
0.0
  0
ARC
  5
7F
330
1F
100
AcDbEntity
  8
0
  6
CONTINUOUS
 62
     7
100
AcDbCircle
 10
67.3215858295
 20
9.2431812336
 30
0.0
 40
0.5
100
AcDbArc
 50
0.0
 51
60.0
  0
ARC
  5
80
330
1F
100
AcDbEntity
  8
0
  6
CONTINUOUS
 62
     7
100
AcDbCircle
 10
67.8215858295
 20
10.1092066374
 30
0.0
 40
0.500000000000001
100
AcDbArc
 50
180.0
 51
240.0
  0
LINE
  5
81
330
1F
100
AcDbEntity
  8
0
  6
CONTINUOUS
 62
     7
100
AcDbLine
 10
67.3215838861
 20
13.3513043779
 30
0.0
 11
67.3215838861
 21
10.1092071108
 31
0.0
  0
ARC
  5
82
330
1F
100
AcDbEntity
  8
0
  6
CONTINUOUS
 62
     7
100
AcDbCircle
 10
66.8491448846
 20
13.3513047933
 30
0.0
 40
0.4724409448818818
100
AcDbArc
 50
0.0
 51
90.0
  0
LINE
  5
83
330
1F
100
AcDbEntity
  8
0
  6
CONTINUOUS
 62
     7
100
AcDbLine
 10
61.7585932169
 20
13.8237462802
 30
0.0
 11
66.8491443305
 21
13.8237462802
 31
0.0
  0
ARC
  5
84
330
1F
100
AcDbEntity
  8
0
  6
CONTINUOUS
 62
     7
100
AcDbCircle
 10
61.7585937035
 20
14.0599662106
 30
0.0
 40
0.2362204724409427
100
AcDbArc
 50
180.0
 51
270.0
  0
LINE
  5
85
330
1F
100
AcDbEntity
  8
0
  6
CONTINUOUS
 62
     7
100
AcDbLine
 10
61.5223710925
 20
14.5225649807
 30
0.0
 11
61.5223710925
 21
14.059966058
 31
0.0
  0
ARC
  5
86
330
1F
100
AcDbEntity
  8
0
  6
CONTINUOUS
 62
     7
100
AcDbCircle
 10
61.5617433098
 20
14.5225646358
 30
0.0
 40
0.0393700787401627
100
AcDbArc
 50
90.0
 51
180.0
  0
LINE
  5
87
330
1F
100
AcDbEntity
  8
0
  6
CONTINUOUS
 62
     7
100
AcDbLine
 10
61.561743011
 20
14.5619345526
 30
0.0
 11
61.9774924482
 21
14.5619345526
 31
0.0
  0
LINE
  5
88
330
1F
100
AcDbEntity
  8
0
  6
CONTINUOUS
 62
     7
100
AcDbLine
 10
61.9774924482
 20
14.5619345526
 30
0.0
 11
61.9908823735
 21
14.3527269427
 31
0.0
  0
ARC
  5
89
330
1F
100
AcDbEntity
  8
0
  6
CONTINUOUS
 62
     7
100
AcDbCircle
 10
62.030170314
 20
14.3552418011
 30
0.0
 40
0.039370078740159
100
AcDbArc
 50
183.6619355755
 51
270.0
  0
LINE
  5
8A
330
1F
100
AcDbEntity
  8
0
  6
CONTINUOUS
 62
     7
100
AcDbLine
 10
62.030169813
 20
14.3158717951
 30
0.0
 11
62.3703152169
 21
14.3158717951
 31
0.0
  0
ARC
  5
8B
330
1F
100
AcDbEntity
  8
0
  6
CONTINUOUS
 62
     7
100
AcDbCircle
 10
62.370315027
 20
14.2765016436
 30
0.0
 40
0.0393700787401592
100
AcDbArc
 50
65.1121079736
 51
90.0
  0
ARC
  5
8C
330
1F
100
AcDbEntity
  8
0
  6
CONTINUOUS
 62
     7
100
AcDbCircle
 10
62.472543698
 20
14.4968563845
 30
0.0
 40
0.2035433070866186
100
AcDbArc
 50
245.1121079736
 51
72.3995332141
  0
ARC
  5
8D
330
1F
100
AcDbEntity
  8
0
  6
CONTINUOUS
 62
     7
100
AcDbCircle
 10
62.5459952783
 20
14.7283985586
 30
0.0
 40
0.0393700787401556
100
AcDbArc
 50
180.0
 51
252.3995332141
  0
LINE
  5
8E
330
1F
100
AcDbEntity
  8
0
  6
CONTINUOUS
 62
     7
100
AcDbLine
 10
62.5066268156
 20
14.8080759224
 30
0.0
 11
62.5066268156
 21
14.7283981229
 31
0.0
  0
LINE
  5
8F
330
1F
100
AcDbEntity
  8
0
  6
CONTINUOUS
 62
     7
100
AcDbLine
 10
67.3491428211
 20
14.8080759224
 30
0.0
 11
62.5066268156
 21
14.8080759224
 31
0.0
  0
ARC
  5
90
330
1F
100
AcDbEntity
  8
0
  6
CONTINUOUS
 62
     7
100
AcDbCircle
 10
67.3491448846
 20
14.3356355019
 30
0.0
 40
0.4724409448818907
100
AcDbArc
 50
0.0
 51
90.0
  0
LINE
  5
91
330
1F
100
AcDbEntity
  8
0
  6
CONTINUOUS
 62
     7
100
AcDbLine
 10
67.82158707
 20
10.5816478398
 30
0.0
 11
67.82158707
 21
14.3356351935
 31
0.0
  0
ARC
  5
92
330
1F
100
AcDbEntity
  8
0
  6
CONTINUOUS
 62
     7
100
AcDbCircle
 10
68.2940267744
 20
10.5816475823
 30
0.0
 40
0.472440944881896
100
AcDbArc
 50
180.0
 51
270.0
  0
LINE
  5
93
330
1F
100
AcDbEntity
  8
0
  6
CONTINUOUS
 62
     7
100
AcDbLine
 10
68.9239491621
 20
10.1092071108
 30
0.0
 11
68.2940266257
 21
10.1092071108
 31
0.0
  0
ARC
  5
94
330
1F
100
AcDbEntity
  8
0
  6
CONTINUOUS
 62
     7
100
AcDbCircle
 10
68.9239480342
 20
10.5816475823
 30
0.0
 40
0.472440944881896
100
AcDbArc
 50
270.0
 51
0.0
  0
LINE
  5
95
330
1F
100
AcDbEntity
  8
0
  6
CONTINUOUS
 62
     7
100
AcDbLine
 10
69.3963887178
 20
14.3356351935
 30
0.0
 11
69.3963887178
 21
10.5816478398
 31
0.0
  0
ARC
  5
96
330
1F
100
AcDbEntity
  8
0
  6
CONTINUOUS
 62
     7
100
AcDbCircle
 10
69.868829924
 20
14.3356355019
 30
0.0
 40
0.4724409448818907
100
AcDbArc
 50
90.0
 51
180.0
  0
LINE
  5
97
330
1F
100
AcDbEntity
  8
0
  6
CONTINUOUS
 62
     7
100
AcDbLine
 10
74.7113489723
 20
14.8080759224
 30
0.0
 11
69.8688282735
 21
14.8080759224
 31
0.0
  0
LINE
  5
98
330
1F
100
AcDbEntity
  8
0
  6
CONTINUOUS
 62
     7
100
AcDbLine
 10
74.7113489723
 20
14.7283981229
 30
0.0
 11
74.7113489723
 21
14.8080759224
 31
0.0
  0
ARC
  5
99
330
1F
100
AcDbEntity
  8
0
  6
CONTINUOUS
 62
     7
100
AcDbCircle
 10
74.6719795303
 20
14.7283985586
 30
0.0
 40
0.0393700787401627
100
AcDbArc
 50
287.6004667859
 51
0.0
  0
ARC
  5
9A
330
1F
100
AcDbEntity
  8
0
  6
CONTINUOUS
 62
     7
100
AcDbCircle
 10
74.7454311106
 20
14.4968563845
 30
0.0
 40
0.203543307086613
100
AcDbArc
 50
107.6004667859
 51
294.8878920264
  0
ARC
  5
9B
330
1F
100
AcDbEntity
  8
0
  6
CONTINUOUS
 62
     7
100
AcDbCircle
 10
74.8476597816
 20
14.2765016436
 30
0.0
 40
0.0393700787401609
100
AcDbArc
 50
90.0
 51
114.8878920264
  0
LINE
  5
9C
330
1F
100
AcDbEntity
  8
0
  6
CONTINUOUS
 62
     7
100
AcDbLine
 10
74.8476605709
 20
14.3158717951
 30
0.0
 11
75.1878059749
 21
14.3158717951
 31
0.0
  0
ARC
  5
9D
330
1F
100
AcDbEntity
  8
0
  6
CONTINUOUS
 62
     7
100
AcDbCircle
 10
75.1878044946
 20
14.3552418011
 30
0.0
 40
0.039370078740159
100
AcDbArc
 50
270.0
 51
356.3380644245
  0
LINE
  5
9E
330
1F
100
AcDbEntity
  8
0
  6
CONTINUOUS
 62
     7
100
AcDbLine
 10
75.2270934143
 20
14.3527269427
 30
0.0
 11
75.2404833397
 21
14.5619345526
 31
0.0
  0
LINE
  5
9F
330
1F
100
AcDbEntity
  8
0
  6
CONTINUOUS
 62
     7
100
AcDbLine
 10
75.2404833397
 20
14.5619345526
 30
0.0
 11
75.6562327769
 21
14.5619345526
 31
0.0
  0
ARC
  5
A0
330
1F
100
AcDbEntity
  8
0
  6
CONTINUOUS
 62
     7
100
AcDbCircle
 10
75.6562314988
 20
14.5225646358
 30
0.0
 40
0.0393700787401574
100
AcDbArc
 50
0.0
 51
90.0
  0
LINE
  5
A1
330
1F
100
AcDbEntity
  8
0
  6
CONTINUOUS
 62
     7
100
AcDbLine
 10
75.6956000021
 20
14.059966058
 30
0.0
 11
75.6956000021
 21
14.5225649807
 31
0.0
  0
ARC
  5
A2
330
1F
100
AcDbEntity
  8
0
  6
CONTINUOUS
 62
     7
100
AcDbCircle
 10
75.4593811051
 20
14.0599662106
 30
0.0
 40
0.236220472440948
100
AcDbArc
 50
270.0
 51
0.0
  0
LINE
  5
A3
330
1F
100
AcDbEntity
  8
0
  6
CONTINUOUS
 62
     7
100
AcDbLine
 10
70.3688314574
 20
13.8237462802
 30
0.0
 11
75.4593825709
 21
13.8237462802
 31
0.0
  0
ARC
  5
A4
330
1F
100
AcDbEntity
  8
0
  6
CONTINUOUS
 62
     7
100
AcDbCircle
 10
70.368829924
 20
13.3513047933
 30
0.0
 40
0.4724409448818978
100
AcDbArc
 50
90.0
 51
180.0
  0
LINE
  5
A5
330
1F
100
AcDbEntity
  8
0
  6
CONTINUOUS
 62
     7
100
AcDbLine
 10
69.8963872084
 20
10.1092071108
 30
0.0
 11
69.8963872084
 21
13.3513043779
 31
0.0
  0
ARC
  5
A6
330
1F
100
AcDbEntity
  8
0
  6
CONTINUOUS
 62
     7
100
AcDbCircle
 10
69.3963889791
 20
10.1092066374
 30
0.0
 40
0.4999999999999924
100
AcDbArc
 50
300.0
 51
0.0
  0
ARC
  5
A7
330
1F
100
AcDbEntity
  8
0
  6
CONTINUOUS
 62
     7
100
AcDbCircle
 10
69.8963889791
 20
9.2431812336
 30
0.0
 40
0.4999999999999979
100
AcDbArc
 50
120.0
 51
180.0
  0
LINE
  5
A8
330
1F
100
AcDbEntity
  8
0
  6
CONTINUOUS
 62
     7
100
AcDbLine
 10
69.3963887178
 20
6.7488034239
 30
0.0
 11
69.3963887178
 21
9.2431809553
 31
0.0
  0
ARC
  5
A9
330
1F
100
AcDbEntity
  8
0
  6
CONTINUOUS
 62
     7
100
AcDbCircle
 10
69.8963889791
 20
6.7488031767
 30
0.0
 40
0.4999999999999987
100
AcDbArc
 50
180.0
 51
240.0
  0
ARC
  5
AA
330
1F
100
AcDbEntity
  8
0
  6
CONTINUOUS
 62
     7
100
AcDbCircle
 10
69.3963889791
 20
5.8827777729
 30
0.0
 40
0.4999999999999916
100
AcDbArc
 50
0.0
 51
60.0
  0
LINE
  5
AB
330
1F
100
AcDbEntity
  8
0
  6
CONTINUOUS
 62
     7
100
AcDbLine
 10
69.8963872084
 20
2.6406797079
 30
0.0
 11
69.8963872084
 21
5.8827778549
 31
0.0
  0
ARC
  5
AC
330
1F
100
AcDbEntity
  8
0
  6
CONTINUOUS
 62
     7
100
AcDbCircle
 10
70.368829924
 20
2.640679617
 30
0.0
 40
0.472440944881896
100
AcDbArc
 50
180.0
 51
270.0
  0
LINE
  5
AD
330
1F
100
AcDbEntity
  8
0
  6
CONTINUOUS
 62
     7
100
AcDbLine
 10
75.4593825709
 20
2.1682386856
 30
0.0
 11
70.3688314574
 21
2.1682386856
 31
0.0
  0
ARC
  5
AE
330
1F
100
AcDbEntity
  8
0
  6
CONTINUOUS
 62
     7
100
AcDbCircle
 10
75.4593811051
 20
1.9320181997
 30
0.0
 40
0.2362204724409493
100
AcDbArc
 50
0.0
 51
90.0
  0
LINE
  5
AF
330
1F
100
AcDbEntity
  8
0
  6
CONTINUOUS
 62
     7
100
AcDbLine
 10
75.6956000021
 20
1.4694198384
 30
0.0
 11
75.6956000021
 21
1.9320181744
 31
0.0
  0
ARC
  5
B0
330
1F
100
AcDbEntity
  8
0
  6
CONTINUOUS
 62
     7
100
AcDbCircle
 10
75.6562314988
 20
1.4694197745
 30
0.0
 40
0.0393700787401574
100
AcDbArc
 50
270.0
 51
0.0
  0
LINE
  5
B1
330
1F
100
AcDbEntity
  8
0
  6
CONTINUOUS
 62
     7
100
AcDbLine
 10
75.6562327769
 20
1.4300496799
 30
0.0
 11
75.2404833397
 21
1.4300496799
 31
0.0
  0
LINE
  5
B2
330
1F
100
AcDbEntity
  8
0
  6
CONTINUOUS
 62
     7
100
AcDbLine
 10
75.2404833397
 20
1.4300496799
 30
0.0
 11
75.2270934143
 21
1.6392571431
 31
0.0
  0
ARC
  5
B3
330
1F
100
AcDbEntity
  8
0
  6
CONTINUOUS
 62
     7
100
AcDbCircle
 10
75.1878044946
 20
1.6367426092
 30
0.0
 40
0.039370078740159
100
AcDbArc
 50
3.6619355755
 51
90.0
  0
LINE
  5
B4
330
1F
100
AcDbEntity
  8
0
  6
CONTINUOUS
 62
     7
100
AcDbLine
 10
75.1878059749
 20
1.6761127307
 30
0.0
 11
74.8476605709
 21
1.6761127307
 31
0.0
  0
ARC
  5
B5
330
1F
100
AcDbEntity
  8
0
  6
CONTINUOUS
 62
     7
100
AcDbCircle
 10
74.8476597816
 20
1.7154827666
 30
0.0
 40
0.0393700787401613
100
AcDbArc
 50
245.1121079736
 51
270.0
  0
ARC
  5
B6
330
1F
100
AcDbEntity
  8
0
  6
CONTINUOUS
 62
     7
100
AcDbCircle
 10
74.7454311106
 20
1.4951280257
 30
0.0
 40
0.2035433070866143
100
AcDbArc
 50
65.1121079736
 51
252.3995332141
  0
ARC
  5
B7
330
1F
100
AcDbEntity
  8
0
  6
CONTINUOUS
 62
     7
100
AcDbCircle
 10
74.6719795303
 20
1.2635858517
 30
0.0
 40
0.0393700787401627
100
AcDbArc
 50
0.0
 51
72.3995332141
  0
LINE
  5
B8
330
1F
100
AcDbEntity
  8
0
  6
CONTINUOUS
 62
     7
100
AcDbLine
 10
74.7113489723
 20
1.1839079433
 30
0.0
 11
74.7113489723
 21
1.2635858162
 31
0.0
  0
LINE
  5
B9
330
1F
100
AcDbEntity
  8
0
  6
CONTINUOUS
 62
     7
100
AcDbLine
 10
69.8688282735
 20
1.1839079433
 30
0.0
 11
74.7113489723
 21
1.1839079433
 31
0.0
  0
ARC
  5
BA
330
1F
100
AcDbEntity
  8
0
  6
CONTINUOUS
 62
     7
100
AcDbCircle
 10
69.868829924
 20
1.6563489084
 30
0.0
 40
0.4724409448818903
100
AcDbArc
 50
180.0
 51
270.0
  0
LINE
  5
BB
330
1F
100
AcDbEntity
  8
0
  6
CONTINUOUS
 62
     7
100
AcDbLine
 10
69.3963887178
 20
5.4103365393
 30
0.0
 11
69.3963887178
 21
1.6563488923
 31
0.0
  0
ARC
  5
BC
330
1F
100
AcDbEntity
  8
0
  6
CONTINUOUS
 62
     7
100
AcDbCircle
 10
68.9239480342
 20
5.410336828
 30
0.0
 40
0.472440944881896
100
AcDbArc
 50
0.0
 51
90.0
  0
LINE
  5
BD
330
1F
100
AcDbEntity
  8
0
  6
CONTINUOUS
 62
     7
100
AcDbLine
 10
68.2940266257
 20
5.8827778549
 30
0.0
 11
68.9239491621
 21
5.8827778549
 31
0.0
  0
ARC
  5
BE
330
1F
100
AcDbEntity
  8
0
  6
CONTINUOUS
 62
     7
100
AcDbCircle
 10
68.2940267744
 20
5.410336828
 30
0.0
 40
0.472440944881896
100
AcDbArc
 50
90.0
 51
180.0
  0
LINE
  5
BF
330
1F
100
AcDbEntity
  8
0
  6
CONTINUOUS
 62
     7
100
AcDbLine
 10
67.82158707
 20
1.6563488923
 30
0.0
 11
67.82158707
 21
5.4103365393
 31
0.0
  0
LINE
  5
C0
330
1F
100
AcDbEntity
  8
0
  6
CONTINUOUS
 62
     7
100
AcDbLine
 10
62.5066268156
 20
1.1839079433
 30
0.0
 11
67.3491428211
 21
1.1839079433
 31
0.0
  0
LINE
  5
C1
330
1F
100
AcDbEntity
  8
0
  6
CONTINUOUS
 62
     7
100
AcDbLine
 10
62.5066268156
 20
1.2635858162
 30
0.0
 11
62.5066268156
 21
1.1839079433
 31
0.0
  0
ARC
  5
C2
330
1F
100
AcDbEntity
  8
0
  6
CONTINUOUS
 62
     7
100
AcDbCircle
 10
62.5459952783
 20
1.2635858517
 30
0.0
 40
0.0393700787401584
100
AcDbArc
 50
107.6004667859
 51
180.0
  0
ARC
  5
C3
330
1F
100
AcDbEntity
  8
0
  6
CONTINUOUS
 62
     7
100
AcDbCircle
 10
62.472543698
 20
1.4951280257
 30
0.0
 40
0.2035433070866164
100
AcDbArc
 50
287.6004667859
 51
114.8878920264
  0
ARC
  5
C4
330
1F
100
AcDbEntity
  8
0
  6
CONTINUOUS
 62
     7
100
AcDbCircle
 10
62.370315027
 20
1.7154827666
 30
0.0
 40
0.0393700787401572
100
AcDbArc
 50
270.0
 51
294.8878920264
  0
LINE
  5
C5
330
1F
100
AcDbEntity
  8
0
  6
CONTINUOUS
 62
     7
100
AcDbLine
 10
62.3703152169
 20
1.6761127307
 30
0.0
 11
62.030169813
 21
1.6761127307
 31
0.0
  0
ARC
  5
C6
330
1F
100
AcDbEntity
  8
0
  6
CONTINUOUS
 62
     7
100
AcDbCircle
 10
62.030170314
 20
1.6367426092
 30
0.0
 40
0.039370078740159
100
AcDbArc
 50
90.0
 51
176.3380644245
  0
LINE
  5
C7
330
1F
100
AcDbEntity
  8
0
  6
CONTINUOUS
 62
     7
100
AcDbLine
 10
61.9908823735
 20
1.6392571431
 30
0.0
 11
61.9774924482
 21
1.4300496799
 31
0.0
  0
LINE
  5
C8
330
1F
100
AcDbEntity
  8
0
  6
CONTINUOUS
 62
     7
100
AcDbLine
 10
61.9774924482
 20
1.4300496799
 30
0.0
 11
61.561743011
 21
1.4300496799
 31
0.0
  0
ARC
  5
C9
330
1F
100
AcDbEntity
  8
0
  6
CONTINUOUS
 62
     7
100
AcDbCircle
 10
61.5617433098
 20
1.4694197745
 30
0.0
 40
0.0393700787401627
100
AcDbArc
 50
180.0
 51
270.0
  0
LINE
  5
CA
330
1F
100
AcDbEntity
  8
0
  6
CONTINUOUS
 62
     7
100
AcDbLine
 10
61.5223710925
 20
1.9320181744
 30
0.0
 11
61.5223710925
 21
1.4694198384
 31
0.0
  0
ARC
  5
CB
330
1F
100
AcDbEntity
  8
0
  6
CONTINUOUS
 62
     7
100
AcDbCircle
 10
67.3491448846
 20
1.6563489084
 30
0.0
 40
0.4724409448818903
100
AcDbArc
 50
270.0
 51
0.0
  0
ARC
  5
CC
330
1F
100
AcDbEntity
  8
0
  6
CONTINUOUS
 62
     7
100
AcDbCircle
 10
75.4593811051
 20
28.9233472923
 30
0.0
 40
0.236220472440948
100
AcDbArc
 50
270.0
 51
0.0
  0
LINE
  5
CD
330
1F
100
AcDbEntity
  8
0
  6
CONTINUOUS
 62
     7
100
AcDbLine
 10
70.3688314574
 20
28.6871277505
 30
0.0
 11
75.4593825709
 21
28.6871277505
 31
0.0
  0
ARC
  5
CE
330
1F
100
AcDbEntity
  8
0
  6
CONTINUOUS
 62
     7
100
AcDbCircle
 10
70.368829924
 20
28.214685875
 30
0.0
 40
0.472440944881896
100
AcDbArc
 50
90.0
 51
180.0
  0
LINE
  5
CF
330
1F
100
AcDbEntity
  8
0
  6
CONTINUOUS
 62
     7
100
AcDbLine
 10
69.8963872084
 20
24.9725874078
 30
0.0
 11
69.8963872084
 21
28.2146858481
 31
0.0
  0
ARC
  5
D0
330
1F
100
AcDbEntity
  8
0
  6
CONTINUOUS
 62
     7
100
AcDbCircle
 10
69.3963889791
 20
24.9725877191
 30
0.0
 40
0.4999999999999979
100
AcDbArc
 50
300.0
 51
0.0
  0
ARC
  5
D1
330
1F
100
AcDbEntity
  8
0
  6
CONTINUOUS
 62
     7
100
AcDbCircle
 10
69.8963889791
 20
24.1065623153
 30
0.0
 40
0.4999999999999878
100
AcDbArc
 50
120.0
 51
180.0
  0
LINE
  5
D2
330
1F
100
AcDbEntity
  8
0
  6
CONTINUOUS
 62
     7
100
AcDbLine
 10
69.3963887178
 20
21.6121831342
 30
0.0
 11
69.3963887178
 21
24.1065624255
 31
0.0
  0
ARC
  5
D3
330
1F
100
AcDbEntity
  8
0
  6
CONTINUOUS
 62
     7
100
AcDbCircle
 10
69.8963889791
 20
21.6121842584
 30
0.0
 40
0.4999999999999908
100
AcDbArc
 50
180.0
 51
240.0
  0
ARC
  5
D4
330
1F
100
AcDbEntity
  8
0
  6
CONTINUOUS
 62
     7
100
AcDbCircle
 10
69.3963889791
 20
20.7461588546
 30
0.0
 40
0.4999999999999979
100
AcDbArc
 50
0.0
 51
60.0
  0
LINE
  5
D5
330
1F
100
AcDbEntity
  8
0
  6
CONTINUOUS
 62
     7
100
AcDbLine
 10
69.8963872084
 20
17.5040608849
 30
0.0
 11
69.8963872084
 21
20.7461581519
 31
0.0
  0
ARC
  5
D6
330
1F
100
AcDbEntity
  8
0
  6
CONTINUOUS
 62
     7
100
AcDbCircle
 10
70.368829924
 20
17.5040606988
 30
0.0
 40
0.472440944881896
100
AcDbArc
 50
180.0
 51
270.0
  0
LINE
  5
D7
330
1F
100
AcDbEntity
  8
0
  6
CONTINUOUS
 62
     7
100
AcDbLine
 10
75.4593825709
 20
17.0316201559
 30
0.0
 11
70.3688314574
 21
17.0316201559
 31
0.0
  0
ARC
  5
D8
330
1F
100
AcDbEntity
  8
0
  6
CONTINUOUS
 62
     7
100
AcDbCircle
 10
75.4593811051
 20
16.7953992814
 30
0.0
 40
0.236220472440948
100
AcDbArc
 50
0.0
 51
90.0
  0
LINE
  5
D9
330
1F
100
AcDbEntity
  8
0
  6
CONTINUOUS
 62
     7
100
AcDbLine
 10
75.6956000021
 20
16.332800282
 30
0.0
 11
75.6956000021
 21
16.7953992047
 31
0.0
  0
ARC
  5
DA
330
1F
100
AcDbEntity
  8
0
  6
CONTINUOUS
 62
     7
100
AcDbCircle
 10
75.6562314988
 20
16.3328008562
 30
0.0
 40
0.0393700787401627
100
AcDbArc
 50
270.0
 51
0.0
  0
LINE
  5
DB
330
1F
100
AcDbEntity
  8
0
  6
CONTINUOUS
 62
     7
100
AcDbLine
 10
75.6562327769
 20
16.2934307102
 30
0.0
 11
75.2404833397
 21
16.2934307102
 31
0.0
  0
LINE
  5
DC
330
1F
100
AcDbEntity
  8
0
  6
CONTINUOUS
 62
     7
100
AcDbLine
 10
75.2404833397
 20
16.2934307102
 30
0.0
 11
75.2270934143
 21
16.5026383201
 31
0.0
  0
ARC
  5
DD
330
1F
100
AcDbEntity
  8
0
  6
CONTINUOUS
 62
     7
100
AcDbCircle
 10
75.1878044946
 20
16.5001236909
 30
0.0
 40
0.039370078740159
100
AcDbArc
 50
3.6619355755
 51
90.0
  0
LINE
  5
DE
330
1F
100
AcDbEntity
  8
0
  6
CONTINUOUS
 62
     7
100
AcDbLine
 10
75.1878059749
 20
16.5394934676
 30
0.0
 11
74.8476605709
 21
16.5394934676
 31
0.0
  0
ARC
  5
DF
330
1F
100
AcDbEntity
  8
0
  6
CONTINUOUS
 62
     7
100
AcDbCircle
 10
74.8476597816
 20
16.5788638484
 30
0.0
 40
0.0393700787401609
100
AcDbArc
 50
245.1121079736
 51
270.0
  0
ARC
  5
E0
330
1F
100
AcDbEntity
  8
0
  6
CONTINUOUS
 62
     7
100
AcDbCircle
 10
74.7454311106
 20
16.3585091075
 30
0.0
 40
0.2035433070866172
100
AcDbArc
 50
65.1121079736
 51
252.3995332141
  0
ARC
  5
E1
330
1F
100
AcDbEntity
  8
0
  6
CONTINUOUS
 62
     7
100
AcDbCircle
 10
74.6719795303
 20
16.1269669334
 30
0.0
 40
0.0393700787401627
100
AcDbArc
 50
0.0
 51
72.3995332141
  0
LINE
  5
E2
330
1F
100
AcDbEntity
  8
0
  6
CONTINUOUS
 62
     7
100
AcDbLine
 10
74.7113489723
 20
16.0472893403
 30
0.0
 11
74.7113489723
 21
16.1269671398
 31
0.0
  0
ARC
  5
E3
330
1F
100
AcDbEntity
  8
0
  6
CONTINUOUS
 62
     7
100
AcDbCircle
 10
69.868829924
 20
16.5197299901
 30
0.0
 40
0.4724409448818889
100
AcDbArc
 50
180.0
 51
270.0
  0
LINE
  5
E4
330
1F
100
AcDbEntity
  8
0
  6
CONTINUOUS
 62
     7
100
AcDbLine
 10
69.3963887178
 20
20.2737185962
 30
0.0
 11
69.3963887178
 21
16.5197300693
 31
0.0
  0
ARC
  5
E5
330
1F
100
AcDbEntity
  8
0
  6
CONTINUOUS
 62
     7
100
AcDbCircle
 10
68.9239480342
 20
20.2737179097
 30
0.0
 40
0.472440944881896
100
AcDbArc
 50
0.0
 51
90.0
  0
LINE
  5
E6
330
1F
100
AcDbEntity
  8
0
  6
CONTINUOUS
 62
     7
100
AcDbLine
 10
68.2940266257
 20
20.7461581519
 30
0.0
 11
68.9239491621
 21
20.7461581519
 31
0.0
  0
ARC
  5
E7
330
1F
100
AcDbEntity
  8
0
  6
CONTINUOUS
 62
     7
100
AcDbCircle
 10
68.2940267744
 20
20.2737179097
 30
0.0
 40
0.472440944881896
100
AcDbArc
 50
90.0
 51
180.0
  0
LINE
  5
E8
330
1F
100
AcDbEntity
  8
0
  6
CONTINUOUS
 62
     7
100
AcDbLine
 10
67.82158707
 20
16.5197300693
 30
0.0
 11
67.82158707
 21
20.2737185962
 31
0.0
  0
LINE
  5
E9
330
1F
100
AcDbEntity
  8
0
  6
CONTINUOUS
 62
     7
100
AcDbLine
 10
62.5066268156
 20
16.0472893403
 30
0.0
 11
67.3491428211
 21
16.0472893403
 31
0.0
  0
LINE
  5
EA
330
1F
100
AcDbEntity
  8
0
  6
CONTINUOUS
 62
     7
100
AcDbLine
 10
62.5066268156
 20
16.1269671398
 30
0.0
 11
62.5066268156
 21
16.0472893403
 31
0.0
  0
ARC
  5
EB
330
1F
100
AcDbEntity
  8
0
  6
CONTINUOUS
 62
     7
100
AcDbCircle
 10
62.5459952783
 20
16.1269669334
 30
0.0
 40
0.039370078740159
100
AcDbArc
 50
107.6004667859
 51
180.0
  0
ARC
  5
EC
330
1F
100
AcDbEntity
  8
0
  6
CONTINUOUS
 62
     7
100
AcDbCircle
 10
62.472543698
 20
16.3585091075
 30
0.0
 40
0.2035433070866144
100
AcDbArc
 50
287.6004667859
 51
114.8878920264
  0
ARC
  5
ED
330
1F
100
AcDbEntity
  8
0
  6
CONTINUOUS
 62
     7
100
AcDbCircle
 10
62.370315027
 20
16.5788638484
 30
0.0
 40
0.0393700787401609
100
AcDbArc
 50
270.0
 51
294.8878920264
  0
LINE
  5
EE
330
1F
100
AcDbEntity
  8
0
  6
CONTINUOUS
 62
     7
100
AcDbLine
 10
62.3703152169
 20
16.5394934676
 30
0.0
 11
62.030169813
 21
16.5394934676
 31
0.0
  0
ARC
  5
EF
330
1F
100
AcDbEntity
  8
0
  6
CONTINUOUS
 62
     7
100
AcDbCircle
 10
62.030170314
 20
16.5001236909
 30
0.0
 40
0.0393700787401592
100
AcDbArc
 50
90.0
 51
176.3380644245
  0
LINE
  5
F0
330
1F
100
AcDbEntity
  8
0
  6
CONTINUOUS
 62
     7
100
AcDbLine
 10
61.9908823735
 20
16.5026383201
 30
0.0
 11
61.9774924482
 21
16.2934307102
 31
0.0
  0
LINE
  5
F1
330
1F
100
AcDbEntity
  8
0
  6
CONTINUOUS
 62
     7
100
AcDbLine
 10
61.9774924482
 20
16.2934307102
 30
0.0
 11
61.561743011
 21
16.2934307102
 31
0.0
  0
ARC
  5
F2
330
1F
100
AcDbEntity
  8
0
  6
CONTINUOUS
 62
     7
100
AcDbCircle
 10
61.5617433098
 20
16.3328008562
 30
0.0
 40
0.0393700787401556
100
AcDbArc
 50
180.0
 51
270.0
  0
LINE
  5
F3
330
1F
100
AcDbEntity
  8
0
  6
CONTINUOUS
 62
     7
100
AcDbLine
 10
61.5223710925
 20
16.7953992047
 30
0.0
 11
61.5223710925
 21
16.332800282
 31
0.0
  0
ARC
  5
F4
330
1F
100
AcDbEntity
  8
0
  6
CONTINUOUS
 62
     7
100
AcDbCircle
 10
61.7585937035
 20
16.7953992814
 30
0.0
 40
0.236220472440948
100
AcDbArc
 50
90.0
 51
180.0
  0
LINE
  5
F5
330
1F
100
AcDbEntity
  8
0
  6
CONTINUOUS
 62
     7
100
AcDbLine
 10
66.8491443305
 20
17.0316201559
 30
0.0
 11
61.7585932169
 21
17.0316201559
 31
0.0
  0
ARC
  5
F6
330
1F
100
AcDbEntity
  8
0
  6
CONTINUOUS
 62
     7
100
AcDbCircle
 10
66.8491448846
 20
17.5040606988
 30
0.0
 40
0.4724409448818996
100
AcDbArc
 50
270.0
 51
0.0
  0
LINE
  5
F7
330
1F
100
AcDbEntity
  8
0
  6
CONTINUOUS
 62
     7
100
AcDbLine
 10
67.3215838861
 20
20.7461581519
 30
0.0
 11
67.3215838861
 21
17.5040608849
 31
0.0
  0
ARC
  5
F8
330
1F
100
AcDbEntity
  8
0
  6
CONTINUOUS
 62
     7
100
AcDbCircle
 10
67.8215858295
 20
20.7461588546
 30
0.0
 40
0.5
100
AcDbArc
 50
120.0
 51
180.0
  0
ARC
  5
F9
330
1F
100
AcDbEntity
  8
0
  6
CONTINUOUS
 62
     7
100
AcDbCircle
 10
67.3215858295
 20
21.6121842584
 30
0.0
 40
0.500000000000005
100
AcDbArc
 50
300.0
 51
0.0
  0
LINE
  5
FA
330
1F
100
AcDbEntity
  8
0
  6
CONTINUOUS
 62
     7
100
AcDbLine
 10
67.82158707
 20
24.1065624255
 30
0.0
 11
67.82158707
 21
21.6121831342
 31
0.0
  0
ARC
  5
FB
330
1F
100
AcDbEntity
  8
0
  6
CONTINUOUS
 62
     7
100
AcDbCircle
 10
67.3215858295
 20
24.1065623153
 30
0.0
 40
0.500000000000005
100
AcDbArc
 50
0.0
 51
60.0
  0
ARC
  5
FC
330
1F
100
AcDbEntity
  8
0
  6
CONTINUOUS
 62
     7
100
AcDbCircle
 10
67.8215858295
 20
24.9725877191
 30
0.0
 40
0.5
100
AcDbArc
 50
180.0
 51
240.0
  0
LINE
  5
FD
330
1F
100
AcDbEntity
  8
0
  6
CONTINUOUS
 62
     7
100
AcDbLine
 10
67.3215838861
 20
28.2146858481
 30
0.0
 11
67.3215838861
 21
24.9725874078
 31
0.0
  0
ARC
  5
FE
330
1F
100
AcDbEntity
  8
0
  6
CONTINUOUS
 62
     7
100
AcDbCircle
 10
66.8491448846
 20
28.214685875
 30
0.0
 40
0.4724409448818996
100
AcDbArc
 50
0.0
 51
90.0
  0
LINE
  5
FF
330
1F
100
AcDbEntity
  8
0
  6
CONTINUOUS
 62
     7
100
AcDbLine
 10
61.7585932169
 20
28.6871277505
 30
0.0
 11
66.8491443305
 21
28.6871277505
 31
0.0
  0
ARC
  5
100
330
1F
100
AcDbEntity
  8
0
  6
CONTINUOUS
 62
     7
100
AcDbCircle
 10
61.7585937035
 20
28.9233472923
 30
0.0
 40
0.236220472440948
100
AcDbArc
 50
180.0
 51
270.0
  0
LINE
  5
101
330
1F
100
AcDbEntity
  8
0
  6
CONTINUOUS
 62
     7
100
AcDbLine
 10
61.5223710925
 20
29.3859452777
 30
0.0
 11
61.5223710925
 21
28.9233475283
 31
0.0
  0
ARC
  5
102
330
1F
100
AcDbEntity
  8
0
  6
CONTINUOUS
 62
     7
100
AcDbCircle
 10
61.5617433098
 20
29.3859457175
 30
0.0
 40
0.0393700787401556
100
AcDbArc
 50
90.0
 51
180.0
  0
LINE
  5
103
330
1F
100
AcDbEntity
  8
0
  6
CONTINUOUS
 62
     7
100
AcDbLine
 10
61.561743011
 20
29.4253148495
 30
0.0
 11
61.9774924482
 21
29.4253148495
 31
0.0
  0
LINE
  5
104
330
1F
100
AcDbEntity
  8
0
  6
CONTINUOUS
 62
     7
100
AcDbLine
 10
61.9774924482
 20
29.4253148495
 30
0.0
 11
61.9908823735
 21
29.2161072396
 31
0.0
  0
ARC
  5
105
330
1F
100
AcDbEntity
  8
0
  6
CONTINUOUS
 62
     7
100
AcDbCircle
 10
62.030170314
 20
29.2186228829
 30
0.0
 40
0.0393700787401592
100
AcDbArc
 50
183.6619355755
 51
270.0
  0
LINE
  5
106
330
1F
100
AcDbEntity
  8
0
  6
CONTINUOUS
 62
     7
100
AcDbLine
 10
62.030169813
 20
29.1792532654
 30
0.0
 11
62.3703152169
 21
29.1792532654
 31
0.0
  0
ARC
  5
107
330
1F
100
AcDbEntity
  8
0
  6
CONTINUOUS
 62
     7
100
AcDbCircle
 10
62.370315027
 20
29.1398827254
 30
0.0
 40
0.0393700787401609
100
AcDbArc
 50
65.1121079736
 51
90.0
  0
ARC
  5
108
330
1F
100
AcDbEntity
  8
0
  6
CONTINUOUS
 62
     7
100
AcDbCircle
 10
62.472543698
 20
29.3602374663
 30
0.0
 40
0.2035433070866144
100
AcDbArc
 50
245.1121079736
 51
72.3995332141
  0
ARC
  5
109
330
1F
100
AcDbEntity
  8
0
  6
CONTINUOUS
 62
     7
100
AcDbCircle
 10
62.5459952783
 20
29.5917796403
 30
0.0
 40
0.039370078740159
100
AcDbArc
 50
180.0
 51
252.3995332141
  0
LINE
  5
10A
330
1F
100
AcDbEntity
  8
0
  6
CONTINUOUS
 62
     7
100
AcDbLine
 10
62.5066268156
 20
29.671458566
 30
0.0
 11
62.5066268156
 21
29.5917807665
 31
0.0
  0
LINE
  5
10B
330
1F
100
AcDbEntity
  8
0
  6
CONTINUOUS
 62
     7
100
AcDbLine
 10
67.3491428211
 20
29.671458566
 30
0.0
 11
62.5066268156
 21
29.671458566
 31
0.0
  0
ARC
  5
10C
330
1F
100
AcDbEntity
  8
0
  6
CONTINUOUS
 62
     7
100
AcDbCircle
 10
67.3491448846
 20
29.1990165836
 30
0.0
 40
0.4724409448818889
100
AcDbArc
 50
0.0
 51
90.0
  0
LINE
  5
10D
330
1F
100
AcDbEntity
  8
0
  6
CONTINUOUS
 62
     7
100
AcDbLine
 10
67.82158707
 20
25.4450293101
 30
0.0
 11
67.82158707
 21
29.1990166637
 31
0.0
  0
ARC
  5
10E
330
1F
100
AcDbEntity
  8
0
  6
CONTINUOUS
 62
     7
100
AcDbCircle
 10
68.2940267744
 20
25.445028664
 30
0.0
 40
0.472440944881896
100
AcDbArc
 50
180.0
 51
270.0
  0
LINE
  5
10F
330
1F
100
AcDbEntity
  8
0
  6
CONTINUOUS
 62
     7
100
AcDbLine
 10
68.9239491621
 20
24.9725874078
 30
0.0
 11
68.2940266257
 21
24.9725874078
 31
0.0
  0
ARC
  5
110
330
1F
100
AcDbEntity
  8
0
  6
CONTINUOUS
 62
     7
100
AcDbCircle
 10
68.9239480342
 20
25.445028664
 30
0.0
 40
0.472440944881896
100
AcDbArc
 50
270.0
 51
0.0
  0
LINE
  5
111
330
1F
100
AcDbEntity
  8
0
  6
CONTINUOUS
 62
     7
100
AcDbLine
 10
69.3963887178
 20
29.1990166637
 30
0.0
 11
69.3963887178
 21
25.4450293101
 31
0.0
  0
ARC
  5
112
330
1F
100
AcDbEntity
  8
0
  6
CONTINUOUS
 62
     7
100
AcDbCircle
 10
69.868829924
 20
29.1990165836
 30
0.0
 40
0.4724409448818889
100
AcDbArc
 50
90.0
 51
180.0
  0
LINE
  5
113
330
1F
100
AcDbEntity
  8
0
  6
CONTINUOUS
 62
     7
100
AcDbLine
 10
74.7113489723
 20
29.671458566
 30
0.0
 11
69.8688282735
 21
29.671458566
 31
0.0
  0
LINE
  5
114
330
1F
100
AcDbEntity
  8
0
  6
CONTINUOUS
 62
     7
100
AcDbLine
 10
74.7113489723
 20
29.5917807665
 30
0.0
 11
74.7113489723
 21
29.671458566
 31
0.0
  0
ARC
  5
115
330
1F
100
AcDbEntity
  8
0
  6
CONTINUOUS
 62
     7
100
AcDbCircle
 10
74.6719795303
 20
29.5917796403
 30
0.0
 40
0.0393700787401627
100
AcDbArc
 50
287.6004667859
 51
0.0
  0
ARC
  5
116
330
1F
100
AcDbEntity
  8
0
  6
CONTINUOUS
 62
     7
100
AcDbCircle
 10
74.7454311106
 20
29.3602374663
 30
0.0
 40
0.2035433070866204
100
AcDbArc
 50
107.6004667859
 51
294.8878920264
  0
ARC
  5
117
330
1F
100
AcDbEntity
  8
0
  6
CONTINUOUS
 62
     7
100
AcDbCircle
 10
74.8476597816
 20
29.1398827254
 30
0.0
 40
0.0393700787401576
100
AcDbArc
 50
90.0
 51
114.8878920264
  0
LINE
  5
118
330
1F
100
AcDbEntity
  8
0
  6
CONTINUOUS
 62
     7
100
AcDbLine
 10
74.8476605709
 20
29.1792532654
 30
0.0
 11
75.1878059749
 21
29.1792532654
 31
0.0
  0
ARC
  5
119
330
1F
100
AcDbEntity
  8
0
  6
CONTINUOUS
 62
     7
100
AcDbCircle
 10
75.1878044946
 20
29.2186228829
 30
0.0
 40
0.0393700787401592
100
AcDbArc
 50
270.0
 51
356.3380644245
  0
LINE
  5
11A
330
1F
100
AcDbEntity
  8
0
  6
CONTINUOUS
 62
     7
100
AcDbLine
 10
75.2270934143
 20
29.2161072396
 30
0.0
 11
75.2404833397
 21
29.4253148495
 31
0.0
  0
LINE
  5
11B
330
1F
100
AcDbEntity
  8
0
  6
CONTINUOUS
 62
     7
100
AcDbLine
 10
75.2404833397
 20
29.4253148495
 30
0.0
 11
75.6562327769
 21
29.4253148495
 31
0.0
  0
ARC
  5
11C
330
1F
100
AcDbEntity
  8
0
  6
CONTINUOUS
 62
     7
100
AcDbCircle
 10
75.6562314988
 20
29.3859457175
 30
0.0
 40
0.0393700787401627
100
AcDbArc
 50
0.0
 51
90.0
  0
LINE
  5
11D
330
1F
100
AcDbEntity
  8
0
  6
CONTINUOUS
 62
     7
100
AcDbLine
 10
75.6956000021
 20
28.9233475283
 30
0.0
 11
75.6956000021
 21
29.3859452777
 31
0.0
  0
ARC
  5
11E
330
1F
100
AcDbEntity
  8
0
  6
CONTINUOUS
 62
     7
100
AcDbCircle
 10
67.3491448846
 20
16.5197299901
 30
0.0
 40
0.4724409448818889
100
AcDbArc
 50
270.0
 51
0.0
  0
LINE
  5
11F
330
1F
100
AcDbEntity
  8
0
  6
CONTINUOUS
 62
     7
100
AcDbLine
 10
69.8688282735
 20
16.0472893403
 30
0.0
 11
74.7113489723
 21
16.0472893403
 31
0.0
  0
ARC
  5
120
330
1F
100
AcDbEntity
  8
0
  6
CONTINUOUS
 62
     7
100
AcDbCircle
 10
31.1483986785
 20
13.4721583094
 30
0.0
 40
0.2035433070866145
100
AcDbArc
 50
346.0551914371
 51
14.8879031485
  0
ARC
  5
121
330
1F
100
AcDbEntity
  8
0
  6
CONTINUOUS
 62
     7
100
AcDbCircle
 10
31.383157546
 20
13.5345697436
 30
0.0
 40
0.0393700787401558
100
AcDbArc
 50
170.0
 51
194.8879031485
  0
LINE
  5
122
330
1F
100
AcDbEntity
  8
0
  6
CONTINUOUS
 62
     7
100
AcDbLine
 10
31.3861946415
 20
13.7785136294
 30
0.0
 11
31.3443845645
 21
13.5414068218
 31
0.0
  0
ARC
  5
123
330
1F
100
AcDbEntity
  8
0
  6
CONTINUOUS
 62
     7
100
AcDbCircle
 10
31.4249673041
 20
13.7716769316
 30
0.0
 40
0.0393714215238461
100
AcDbArc
 50
145.1121889858
 51
170.0
  0
ARC
  5
124
330
1F
100
AcDbEntity
  8
0
  6
CONTINUOUS
 62
     7
100
AcDbCircle
 10
31.2257107713
 20
13.9106172049
 30
0.0
 40
0.203543307086615
100
AcDbArc
 50
325.1121889858
 51
152.3995430525
  0
ARC
  5
125
330
1F
100
AcDbEntity
  8
0
  6
CONTINUOUS
 62
     7
100
AcDbCircle
 10
31.0104409569
 20
14.0231597302
 30
0.0
 40
0.0393700787401546
100
AcDbArc
 50
260.0000472348
 51
332.3995430525
  0
LINE
  5
126
330
1F
100
AcDbEntity
  8
0
  6
CONTINUOUS
 62
     7
100
AcDbLine
 10
30.8468242323
 20
14.0120324251
 30
0.0
 11
31.0036055678
 21
13.9843878378
 31
0.0
  0
ARC
  5
127
330
1F
100
AcDbEntity
  8
0
  6
CONTINUOUS
 62
     7
100
AcDbCircle
 10
30.8536612179
 20
14.050804095
 30
0.0
 40
0.0393701149678271
100
AcDbArc
 50
187.6004766242
 51
260.0000472348
  0
ARC
  5
128
330
1F
100
AcDbEntity
  8
0
  6
CONTINUOUS
 62
     7
100
AcDbCircle
 10
30.6128819622
 20
14.0186752445
 30
0.0
 40
0.2035432708589424
100
AcDbArc
 50
7.6004766242
 51
194.8878397487
  0
ARC
  5
129
330
1F
100
AcDbEntity
  8
0
  6
CONTINUOUS
 62
     7
100
AcDbCircle
 10
30.3781231461
 20
13.9562641021
 30
0.0
 40
0.0393700264954995
100
AcDbArc
 50
350.0
 51
14.8878397487
  0
LINE
  5
12A
330
1F
100
AcDbEntity
  8
0
  6
CONTINUOUS
 62
     7
100
AcDbLine
 10
30.3750863219
 20
13.7123196207
 30
0.0
 11
30.4168940522
 21
13.9494276016
 31
0.0
  0
ARC
  5
12B
330
1F
100
AcDbEntity
  8
0
  6
CONTINUOUS
 62
     7
100
AcDbCircle
 10
30.3363146075
 20
13.7191560973
 30
0.0
 40
0.0393700787401532
100
AcDbArc
 50
325.1121190957
 51
350.0
  0
ARC
  5
12C
330
1F
100
AcDbEntity
  8
0
  6
CONTINUOUS
 62
     7
100
AcDbCircle
 10
30.5355698693
 20
13.580216349
 30
0.0
 40
0.2035433070866204
100
AcDbArc
 50
145.1121190957
 51
173.9447490947
  0
LINE
  5
12D
330
1F
100
AcDbEntity
  8
0
  6
CONTINUOUS
 62
     7
100
AcDbLine
 10
30.3331612595
 20
13.6016872988
 30
0.0
 11
19.8731163349
 21
15.4460755922
 31
0.0
  0
ARC
  5
12E
330
1F
100
AcDbEntity
  8
0
  6
CONTINUOUS
 62
     7
100
AcDbCircle
 10
19.6755713798
 20
15.4951273072
 30
0.0
 40
0.2035433070866109
100
AcDbArc
 50
346.055191437
 51
14.8879031485
  0
ARC
  5
12F
330
1F
100
AcDbEntity
  8
0
  6
CONTINUOUS
 62
     7
100
AcDbCircle
 10
19.9103302474
 20
15.5575387414
 30
0.0
 40
0.0393700787401623
100
AcDbArc
 50
170.0
 51
194.8879031485
  0
LINE
  5
130
330
1F
100
AcDbEntity
  8
0
  6
CONTINUOUS
 62
     7
100
AcDbLine
 10
19.9133658966
 20
15.8014823665
 30
0.0
 11
19.8715581662
 21
15.5643755589
 31
0.0
  0
ARC
  5
131
330
1F
100
AcDbEntity
  8
0
  6
CONTINUOUS
 62
     7
100
AcDbCircle
 10
19.9521400054
 20
15.7946459293
 30
0.0
 40
0.0393714215238426
100
AcDbArc
 50
145.1121889858
 51
170.0
  0
ARC
  5
132
330
1F
100
AcDbEntity
  8
0
  6
CONTINUOUS
 62
     7
100
AcDbCircle
 10
19.7528834727
 20
15.9335862026
 30
0.0
 40
0.2035433070866182
100
AcDbArc
 50
325.1121889858
 51
152.3995430525
  0
ARC
  5
133
330
1F
100
AcDbEntity
  8
0
  6
CONTINUOUS
 62
     7
100
AcDbCircle
 10
19.5376136583
 20
16.046128728
 30
0.0
 40
0.0393700787401586
100
AcDbArc
 50
260.0000472348
 51
332.3995430525
  0
LINE
  5
134
330
1F
100
AcDbEntity
  8
0
  6
CONTINUOUS
 62
     7
100
AcDbLine
 10
19.3739978341
 20
16.0350011622
 30
0.0
 11
19.5307768229
 21
16.0073565749
 31
0.0
  0
ARC
  5
135
330
1F
100
AcDbEntity
  8
0
  6
CONTINUOUS
 62
     7
100
AcDbCircle
 10
19.3808339193
 20
16.0737730928
 30
0.0
 40
0.0393701149678238
100
AcDbArc
 50
187.6004766242
 51
260.0000472348
  0
ARC
  5
136
330
1F
100
AcDbEntity
  8
0
  6
CONTINUOUS
 62
     7
100
AcDbCircle
 10
19.1400546636
 20
16.0416442422
 30
0.0
 40
0.2035432708589488
100
AcDbArc
 50
7.6004766242
 51
194.8878397487
  0
ARC
  5
137
330
1F
100
AcDbEntity
  8
0
  6
CONTINUOUS
 62
     7
100
AcDbCircle
 10
18.9052958475
 20
15.9792330999
 30
0.0
 40
0.0393700264954939
100
AcDbArc
 50
350.0
 51
14.8878397487
  0
LINE
  5
138
330
1F
100
AcDbEntity
  8
0
  6
CONTINUOUS
 62
     7
100
AcDbLine
 10
18.9022587503
 20
15.7352883579
 30
0.0
 11
18.944067654
 21
15.9723963388
 31
0.0
  0
ARC
  5
139
330
1F
100
AcDbEntity
  8
0
  6
CONTINUOUS
 62
     7
100
AcDbCircle
 10
18.8634873089
 20
15.7421250951
 30
0.0
 40
0.0393700787401564
100
AcDbArc
 50
325.1121190957
 51
350.0
  0
ARC
  5
13A
330
1F
100
AcDbEntity
  8
0
  6
CONTINUOUS
 62
     7
100
AcDbCircle
 10
19.0627425707
 20
15.6031853468
 30
0.0
 40
0.2035433070866163
100
AcDbArc
 50
145.1121190957
 51
173.9447490948
  0
LINE
  5
13B
330
1F
100
AcDbEntity
  8
0
  6
CONTINUOUS
 62
     7
100
AcDbLine
 10
18.8603348613
 20
15.6246560359
 30
0.0
 11
17.3278853643
 21
15.8948692344
 31
0.0
  0
LINE
  5
13C
330
1F
100
AcDbEntity
  8
0
  6
CONTINUOUS
 62
     7
100
AcDbLine
 10
17.3278853643
 20
16.707135051
 30
0.0
 11
17.3278853643
 21
15.8948692344
 31
0.0
  0
ARC
  5
13D
330
1F
100
AcDbEntity
  8
0
  6
CONTINUOUS
 62
     7
100
AcDbCircle
 10
17.5641055146
 20
16.7071346367
 30
0.0
 40
0.236220472440948
100
AcDbArc
 50
80.0
 51
180.0
  0
LINE
  5
13E
330
1F
100
AcDbEntity
  8
0
  6
CONTINUOUS
 62
     7
100
AcDbLine
 10
32.1996126581
 20
14.3663644385
 30
0.0
 11
17.6051244016
 21
16.939766817
 31
0.0
  0
ARC
  5
13F
330
1F
100
AcDbEntity
  8
0
  6
CONTINUOUS
 62
     7
100
AcDbCircle
 10
32.1585937035
 20
14.1337325994
 30
0.0
 40
0.2362204724409449
100
AcDbArc
 50
0.0
 51
80.0
  0
LINE
  5
140
330
1F
100
AcDbEntity
  8
0
  6
CONTINUOUS
 62
     7
100
AcDbLine
 10
32.3948131765
 20
13.2381623249
 30
0.0
 11
32.3948131765
 21
14.1337326725
 31
0.0
  0
LINE
  5
141
330
1F
100
AcDbEntity
  8
0
  6
CONTINUOUS
 62
     7
100
AcDbLine
 10
32.3948131765
 20
13.2381623249
 30
0.0
 11
31.3459427331
 21
13.4231068551
 31
0.0
  0
ARC
  5
142
330
1F
100
AcDbEntity
  8
0
  6
CONTINUOUS
 62
     7
100
AcDbCircle
 10
19.0627425682
 20
2.6882004682
 30
0.0
 40
0.2035432708589427
100
AcDbArc
 50
186.0551907338
 51
214.8878397487
  0
ARC
  5
143
330
1F
100
AcDbEntity
  8
0
  6
CONTINUOUS
 62
     7
100
AcDbCircle
 10
18.8634873089
 20
2.5492609343
 30
0.0
 40
0.0393700264954959
100
AcDbArc
 50
10.0
 51
34.8878397487
  0
LINE
  5
144
330
1F
100
AcDbEntity
  8
0
  6
CONTINUOUS
 62
     7
100
AcDbLine
 10
18.944067654
 20
2.3189894508
 30
0.0
 11
18.9022587503
 21
2.5560974317
 31
0.0
  0
ARC
  5
145
330
1F
100
AcDbEntity
  8
0
  6
CONTINUOUS
 62
     7
100
AcDbCircle
 10
18.9052958475
 20
2.3121529296
 30
0.0
 40
0.0393700787401559
100
AcDbArc
 50
345.1121190957
 51
10.0
  0
ARC
  5
146
330
1F
100
AcDbEntity
  8
0
  6
CONTINUOUS
 62
     7
100
AcDbCircle
 10
19.1400547392
 20
2.2497415866
 30
0.0
 40
0.2035433070866194
100
AcDbArc
 50
165.1121190957
 51
352.3995430525
  0
ARC
  5
147
330
1F
100
AcDbEntity
  8
0
  6
CONTINUOUS
 62
     7
100
AcDbCircle
 10
19.380834006
 20
2.2176128187
 30
0.0
 40
0.0393700787401561
100
AcDbArc
 50
100.0000472348
 51
172.3995430525
  0
LINE
  5
148
330
1F
100
AcDbEntity
  8
0
  6
CONTINUOUS
 62
     7
100
AcDbLine
 10
19.5307768229
 20
2.2840293613
 30
0.0
 11
19.3739978341
 21
2.256384774
 31
0.0
  0
ARC
  5
149
330
1F
100
AcDbEntity
  8
0
  6
CONTINUOUS
 62
     7
100
AcDbCircle
 10
19.5376136994
 20
2.245257442
 30
0.0
 40
0.0393700787401613
100
AcDbArc
 50
27.6004766242
 51
100.0000472348
  0
ARC
  5
14A
330
1F
100
AcDbEntity
  8
0
  6
CONTINUOUS
 62
     7
100
AcDbCircle
 10
19.7528834752
 20
2.3578000413
 30
0.0
 40
0.2035433070866152
100
AcDbArc
 50
207.6004766242
 51
34.8879031485
  0
ARC
  5
14B
330
1F
100
AcDbEntity
  8
0
  6
CONTINUOUS
 62
     7
100
AcDbCircle
 10
19.9521386831
 20
2.4967398669
 30
0.0
 40
0.0393700787401568
100
AcDbArc
 50
190.0
 51
214.8879031485
  0
LINE
  5
14C
330
1F
100
AcDbEntity
  8
0
  6
CONTINUOUS
 62
     7
100
AcDbLine
 10
19.8715581662
 20
2.7270108173
 30
0.0
 11
19.9133658966
 21
2.4899032764
 31
0.0
  0
ARC
  5
14D
330
1F
100
AcDbEntity
  8
0
  6
CONTINUOUS
 62
     7
100
AcDbCircle
 10
19.9103315698
 20
2.7338475213
 30
0.0
 40
0.0393714215238474
100
AcDbArc
 50
165.1121889858
 51
190.0
  0
ARC
  5
14E
330
1F
100
AcDbEntity
  8
0
  6
CONTINUOUS
 62
     7
100
AcDbCircle
 10
19.6755713041
 20
2.7962589229
 30
0.0
 40
0.2035433070866169
100
AcDbArc
 50
345.1121889858
 51
13.9447490948
  0
LINE
  5
14F
330
1F
100
AcDbEntity
  8
0
  6
CONTINUOUS
 62
     7
100
AcDbLine
 10
19.8731163349
 20
2.845309904
 30
0.0
 11
30.3331612595
 21
4.6896984908
 31
0.0
  0
ARC
  5
150
330
1F
100
AcDbEntity
  8
0
  6
CONTINUOUS
 62
     7
100
AcDbCircle
 10
30.5355698668
 20
4.711169466
 30
0.0
 40
0.2035432708589479
100
AcDbArc
 50
186.0551907338
 51
214.8878397487
  0
ARC
  5
151
330
1F
100
AcDbEntity
  8
0
  6
CONTINUOUS
 62
     7
100
AcDbCircle
 10
30.3363146075
 20
4.5722299321
 30
0.0
 40
0.0393700264954956
100
AcDbArc
 50
10.0
 51
34.8878397487
  0
LINE
  5
152
330
1F
100
AcDbEntity
  8
0
  6
CONTINUOUS
 62
     7
100
AcDbLine
 10
30.4168940522
 20
4.3419584813
 30
0.0
 11
30.3750863219
 21
4.5790664622
 31
0.0
  0
ARC
  5
153
330
1F
100
AcDbEntity
  8
0
  6
CONTINUOUS
 62
     7
100
AcDbCircle
 10
30.3781231461
 20
4.3351219273
 30
0.0
 40
0.0393700787401552
100
AcDbArc
 50
345.1121190957
 51
10.0
  0
ARC
  5
154
330
1F
100
AcDbEntity
  8
0
  6
CONTINUOUS
 62
     7
100
AcDbCircle
 10
30.6128820379
 20
4.2727105843
 30
0.0
 40
0.2035433070866186
100
AcDbArc
 50
165.1121190957
 51
352.3995430525
  0
ARC
  5
155
330
1F
100
AcDbEntity
  8
0
  6
CONTINUOUS
 62
     7
100
AcDbCircle
 10
30.8536613046
 20
4.2405818165
 30
0.0
 40
0.039370078740161
100
AcDbArc
 50
100.0000472348
 51
172.3995430525
  0
LINE
  5
156
330
1F
100
AcDbEntity
  8
0
  6
CONTINUOUS
 62
     7
100
AcDbLine
 10
31.0036055678
 20
4.3069985385
 30
0.0
 11
30.8468242323
 21
4.2793536578
 31
0.0
  0
ARC
  5
157
330
1F
100
AcDbEntity
  8
0
  6
CONTINUOUS
 62
     7
100
AcDbCircle
 10
31.0104409981
 20
4.2682264397
 30
0.0
 40
0.0393700787401578
100
AcDbArc
 50
27.6004766242
 51
100.0000472348
  0
ARC
  5
158
330
1F
100
AcDbEntity
  8
0
  6
CONTINUOUS
 62
     7
100
AcDbCircle
 10
31.2257107738
 20
4.380769039
 30
0.0
 40
0.2035433070866145
100
AcDbArc
 50
207.6004766242
 51
34.8879031485
  0
ARC
  5
159
330
1F
100
AcDbEntity
  8
0
  6
CONTINUOUS
 62
     7
100
AcDbCircle
 10
31.4249659817
 20
4.5197088647
 30
0.0
 40
0.0393700787401563
100
AcDbArc
 50
190.0
 51
214.8879031485
  0
LINE
  5
15A
330
1F
100
AcDbEntity
  8
0
  6
CONTINUOUS
 62
     7
100
AcDbLine
 10
31.3443845645
 20
4.7499798478
 30
0.0
 11
31.3861946415
 21
4.5128724535
 31
0.0
  0
ARC
  5
15B
330
1F
100
AcDbEntity
  8
0
  6
CONTINUOUS
 62
     7
100
AcDbCircle
 10
31.3831588684
 20
4.756816519
 30
0.0
 40
0.0393714215238427
100
AcDbArc
 50
165.1121889858
 51
190.0
  0
ARC
  5
15C
330
1F
100
AcDbEntity
  8
0
  6
CONTINUOUS
 62
     7
100
AcDbCircle
 10
31.1483986028
 20
4.8192279207
 30
0.0
 40
0.2035433070866191
100
AcDbArc
 50
345.1121889858
 51
13.9447490948
  0
LINE
  5
15D
330
1F
100
AcDbEntity
  8
0
  6
CONTINUOUS
 62
     7
100
AcDbLine
 10
31.3459427331
 20
4.8682789345
 30
0.0
 11
32.3948131765
 21
5.0532231713
 31
0.0
  0
LINE
  5
15E
330
1F
100
AcDbEntity
  8
0
  6
CONTINUOUS
 62
     7
100
AcDbLine
 10
32.3948131765
 20
4.1576534104
 30
0.0
 11
32.3948131765
 21
5.0532231713
 31
0.0
  0
ARC
  5
15F
330
1F
100
AcDbEntity
  8
0
  6
CONTINUOUS
 62
     7
100
AcDbCircle
 10
32.1585937035
 20
4.1576534301
 30
0.0
 40
0.2362204724409432
100
AcDbArc
 50
280.0
 51
0.0
  0
LINE
  5
160
330
1F
100
AcDbEntity
  8
0
  6
CONTINUOUS
 62
     7
100
AcDbLine
 10
17.6051244016
 20
1.3516196326
 30
0.0
 11
32.1996126581
 21
3.9250216444
 31
0.0
  0
ARC
  5
161
330
1F
100
AcDbEntity
  8
0
  6
CONTINUOUS
 62
     7
100
AcDbCircle
 10
17.5641055146
 20
1.5842513927
 30
0.0
 40
0.2362204724409445
100
AcDbArc
 50
180.0
 51
280.0
  0
LINE
  5
162
330
1F
100
AcDbEntity
  8
0
  6
CONTINUOUS
 62
     7
100
AcDbLine
 10
17.3278853643
 20
2.3965171418
 30
0.0
 11
17.3278853643
 21
1.5842513252
 31
0.0
  0
LINE
  5
163
330
1F
100
AcDbEntity
  8
0
  6
CONTINUOUS
 62
     7
100
AcDbLine
 10
17.3278853643
 20
2.3965171418
 30
0.0
 11
18.8603348613
 21
2.6667294603
 31
0.0
  0
ARC
  5
164
330
1F
100
AcDbEntity
  8
0
  6
CONTINUOUS
 62
     7
100
AcDbCircle
 10
31.8436330736
 20
10.8452861579
 30
0.0
 40
0.2362204724409467
100
AcDbArc
 50
100.0
 51
180.0
  0
LINE
  5
165
330
1F
100
AcDbEntity
  8
0
  6
CONTINUOUS
 62
     7
100
AcDbLine
 10
31.6074123526
 20
10.8452857543
 30
0.0
 11
31.6074123526
 21
7.446099742
 31
0.0
  0
ARC
  5
166
330
1F
100
AcDbEntity
  8
0
  6
CONTINUOUS
 62
     7
100
AcDbCircle
 10
31.8436330736
 20
7.4460998716
 30
0.0
 40
0.2362204724409445
100
AcDbArc
 50
180.0
 51
260.0
  0
LINE
  5
167
330
1F
100
AcDbEntity
  8
0
  6
CONTINUOUS
 62
     7
100
AcDbLine
 10
31.802612871
 20
7.213467976
 30
0.0
 11
32.1996126581
 21
7.1434665447
 31
0.0
  0
LINE
  5
168
330
1F
100
AcDbEntity
  8
0
  6
CONTINUOUS
 62
     7
100
AcDbLine
 10
30.8200115287
 20
5.3104406799
 30
0.0
 11
30.8200115287
 21
12.9809448163
 31
0.0
  0
ARC
  5
169
330
1F
100
AcDbEntity
  8
0
  6
CONTINUOUS
 62
     7
100
AcDbCircle
 10
32.1585937035
 20
6.9108347067
 30
0.0
 40
0.2362204724409449
100
AcDbArc
 50
0.0
 51
80.0
  0
LINE
  5
16A
330
1F
100
AcDbEntity
  8
0
  6
CONTINUOUS
 62
     7
100
AcDbLine
 10
32.1996126581
 20
11.1479201249
 30
0.0
 11
31.802612871
 21
11.0779175202
 31
0.0
  0
LINE
  5
16B
330
1F
100
AcDbEntity
  8
0
  6
CONTINUOUS
 62
     7
100
AcDbLine
 10
30.8200115287
 20
12.9809448163
 30
0.0
 11
32.3948131765
 21
12.7032646107
 31
0.0
  0
LINE
  5
16C
330
1F
100
AcDbEntity
  8
0
  6
CONTINUOUS
 62
     7
100
AcDbLine
 10
32.3948131765
 20
5.5881214721
 30
0.0
 11
30.8200115287
 21
5.3104406799
 31
0.0
  0
ARC
  5
16D
330
1F
100
AcDbEntity
  8
0
  6
CONTINUOUS
 62
     7
100
AcDbCircle
 10
32.1585937035
 20
11.3805513228
 30
0.0
 40
0.2362204724409467
100
AcDbArc
 50
280.0
 51
0.0
  0
LINE
  5
16E
330
1F
100
AcDbEntity
  8
0
  6
CONTINUOUS
 62
     7
100
AcDbLine
 10
32.3948131765
 20
5.5881214721
 30
0.0
 11
32.3948131765
 21
6.9108347787
 31
0.0
  0
LINE
  5
16F
330
1F
100
AcDbEntity
  8
0
  6
CONTINUOUS
 62
     7
100
AcDbLine
 10
32.3948131765
 20
11.3805518908
 30
0.0
 11
32.3948131765
 21
12.7032646107
 31
0.0
  0
LINE
  5
170
330
1F
100
AcDbEntity
  8
0
  6
CONTINUOUS
 62
     7
100
AcDbLine
 10
17.3278853643
 20
15.3599703469
 30
0.0
 11
17.3278853643
 21
2.9314151493
 31
0.0
  0
LINE
  5
171
330
1F
100
AcDbEntity
  8
0
  6
CONTINUOUS
 62
     7
100
AcDbLine
 10
17.3278853643
 20
15.3599703469
 30
0.0
 11
30.3066254594
 21
13.0714687839
 31
0.0
  0
LINE
  5
172
330
1F
100
AcDbEntity
  8
0
  6
CONTINUOUS
 62
     7
100
AcDbLine
 10
30.3066254594
 20
13.0714687839
 30
0.0
 11
30.3066254594
 21
5.219917299
 31
0.0
  0
LINE
  5
173
330
1F
100
AcDbEntity
  8
0
  6
CONTINUOUS
 62
     7
100
AcDbLine
 10
30.3066254594
 20
5.219917299
 30
0.0
 11
17.3278853643
 21
2.9314151493
 31
0.0
  0
ARC
  5
174
330
1F
100
AcDbEntity
  8
0
  6
CONTINUOUS
 62
     7
100
AcDbCircle
 10
30.907619336
 20
4.8513566885
 30
0.0
 40
0.0393700787401595
100
AcDbArc
 50
280.0000472348
 51
352.3995430525
  0
LINE
  5
175
330
1F
100
AcDbEntity
  8
0
  6
CONTINUOUS
 62
     7
100
AcDbLine
 10
30.914456731
 20
4.8125846712
 30
0.0
 11
30.7576753955
 21
4.7849400839
 31
0.0
  0
ARC
  5
176
330
1F
100
AcDbEntity
  8
0
  6
CONTINUOUS
 62
     7
100
AcDbCircle
 10
30.7508396426
 20
4.8237120653
 30
0.0
 40
0.0393700787401575
100
AcDbArc
 50
207.6004766242
 51
280.0000472348
  0
ARC
  5
177
330
1F
100
AcDbEntity
  8
0
  6
CONTINUOUS
 62
     7
100
AcDbCircle
 10
19.4347920374
 20
2.8283876908
 30
0.0
 40
0.0393700787401545
100
AcDbArc
 50
280.0000472348
 51
352.3995430525
  0
LINE
  5
178
330
1F
100
AcDbEntity
  8
0
  6
CONTINUOUS
 62
     7
100
AcDbLine
 10
19.4416291594
 20
2.7896156407
 30
0.0
 11
19.2848489973
 21
2.7619710534
 31
0.0
  0
ARC
  5
179
330
1F
100
AcDbEntity
  8
0
  6
CONTINUOUS
 62
     7
100
AcDbCircle
 10
19.2780123439
 20
2.8007430675
 30
0.0
 40
0.0393700787401563
100
AcDbArc
 50
207.6004766242
 51
280.0000472348
  0
ARC
  5
17A
330
1F
100
AcDbEntity
  8
0
  6
CONTINUOUS
 62
     7
100
AcDbCircle
 10
19.2780123851
 20
15.4906428214
 30
0.0
 40
0.0393700787401591
100
AcDbArc
 50
80.0000472348
 51
152.3995430525
  0
LINE
  5
17B
330
1F
100
AcDbEntity
  8
0
  6
CONTINUOUS
 62
     7
100
AcDbLine
 10
19.2848489973
 20
15.5294153228
 30
0.0
 11
19.4416291594
 21
15.5017707355
 31
0.0
  0
ARC
  5
17C
330
1F
100
AcDbEntity
  8
0
  6
CONTINUOUS
 62
     7
100
AcDbCircle
 10
19.4347921241
 20
15.4629984567
 30
0.0
 40
0.0393700787401591
100
AcDbArc
 50
7.6004766242
 51
80.0000472348
  0
ARC
  5
17D
330
1F
100
AcDbEntity
  8
0
  6
CONTINUOUS
 62
     7
100
AcDbCircle
 10
30.7508396837
 20
13.4676738237
 30
0.0
 40
0.0393700787401578
100
AcDbArc
 50
80.0000472348
 51
152.3995430525
  0
LINE
  5
17E
330
1F
100
AcDbEntity
  8
0
  6
CONTINUOUS
 62
     7
100
AcDbLine
 10
30.7576753955
 20
13.5064454123
 30
0.0
 11
30.914456731
 21
13.4788019983
 31
0.0
  0
ARC
  5
17F
330
1F
100
AcDbEntity
  8
0
  6
CONTINUOUS
 62
     7
100
AcDbCircle
 10
30.9076194227
 20
13.4400294589
 30
0.0
 40
0.0393700787401626
100
AcDbArc
 50
7.6004766242
 51
80.0000472348
  0
LINE
  5
180
330
1F
100
AcDbEntity
  8
0
  6
CONTINUOUS
 62
     7
100
AcDbLine
 10
17.3278853643
 20
15.3599703469
 30
0.0
 11
17.3278853643
 21
15.8948692344
 31
0.0
  0
LINE
  5
181
330
1F
100
AcDbEntity
  8
0
  6
CONTINUOUS
 62
     7
100
AcDbLine
 10
17.3278853643
 20
2.3965171418
 30
0.0
 11
17.3278853643
 21
2.9314151493
 31
0.0
  0
ARC
  5
182
330
1F
100
AcDbEntity
  8
0
  6
CONTINUOUS
 62
     7
100
AcDbCircle
 10
30.5355698693
 20
13.580216349
 30
0.0
 40
0.2035433070866169
100
AcDbArc
 50
173.9447490947
 51
332.3995430525
  0
ARC
  5
183
330
1F
100
AcDbEntity
  8
0
  6
CONTINUOUS
 62
     7
100
AcDbCircle
 10
30.5355698668
 20
4.711169466
 30
0.0
 40
0.2035433070866118
100
AcDbArc
 50
27.6004766242
 51
186.0551907338
  0
ARC
  5
184
330
1F
100
AcDbEntity
  8
0
  6
CONTINUOUS
 62
     7
100
AcDbCircle
 10
31.1483986785
 20
13.4721583094
 30
0.0
 40
0.2035433070866145
100
AcDbArc
 50
187.6004766242
 51
346.0551914371
  0
ARC
  5
185
330
1F
100
AcDbEntity
  8
0
  6
CONTINUOUS
 62
     7
100
AcDbCircle
 10
31.1483986028
 20
4.8192279207
 30
0.0
 40
0.203543307086615
100
AcDbArc
 50
13.9447490948
 51
172.3995430525
  0
LINE
  5
186
330
1F
100
AcDbEntity
  8
0
  6
CONTINUOUS
 62
     7
100
AcDbLine
 10
32.3948131765
 20
5.5881214721
 30
0.0
 11
32.3948131765
 21
5.0532231713
 31
0.0
  0
LINE
  5
187
330
1F
100
AcDbEntity
  8
0
  6
CONTINUOUS
 62
     7
100
AcDbLine
 10
32.3948131765
 20
13.2381623249
 30
0.0
 11
32.3948131765
 21
12.7032646107
 31
0.0
  0
ARC
  5
188
330
1F
100
AcDbEntity
  8
0
  6
CONTINUOUS
 62
     7
100
AcDbCircle
 10
19.6755713041
 20
2.7962589229
 30
0.0
 40
0.2035433070866182
100
AcDbArc
 50
13.9447490948
 51
172.3995430525
  0
ARC
  5
189
330
1F
100
AcDbEntity
  8
0
  6
CONTINUOUS
 62
     7
100
AcDbCircle
 10
19.6755713798
 20
15.4951273072
 30
0.0
 40
0.2035433070866144
100
AcDbArc
 50
187.6004766242
 51
346.055191437
  0
ARC
  5
18A
330
1F
100
AcDbEntity
  8
0
  6
CONTINUOUS
 62
     7
100
AcDbCircle
 10
19.0627425682
 20
2.6882004682
 30
0.0
 40
0.2035433070866116
100
AcDbArc
 50
27.6004766242
 51
186.0551907338
  0
ARC
  5
18B
330
1F
100
AcDbEntity
  8
0
  6
CONTINUOUS
 62
     7
100
AcDbCircle
 10
19.0627425707
 20
15.6031853468
 30
0.0
 40
0.2035433070866166
100
AcDbArc
 50
173.9447490948
 51
332.3995430525
  0
ARC
  5
18C
330
1F
100
AcDbEntity
  8
0
  6
CONTINUOUS
 62
     7
100
AcDbCircle
 10
1.257806302
 20
16.7071346367
 30
0.0
 40
0.2362204724409538
100
AcDbArc
 50
80.0
 51
180.0
  0
LINE
  5
18D
330
1F
100
AcDbEntity
  8
0
  6
CONTINUOUS
 62
     7
100
AcDbLine
 10
1.2988255067
 20
16.939766817
 30
0.0
 11
15.8933142032
 21
14.3663644385
 31
0.0
  0
LINE
  5
18E
330
1F
100
AcDbEntity
  8
0
  6
CONTINUOUS
 62
     7
100
AcDbLine
 10
16.0885147216
 20
14.1337326725
 30
0.0
 11
16.0885147216
 21
13.2381623249
 31
0.0
  0
LINE
  5
18F
330
1F
100
AcDbEntity
  8
0
  6
CONTINUOUS
 62
     7
100
AcDbLine
 10
15.0396442782
 20
13.4231068551
 30
0.0
 11
16.0885147216
 21
13.2381623249
 31
0.0
  0
ARC
  5
190
330
1F
100
AcDbEntity
  8
0
  6
CONTINUOUS
 62
     7
100
AcDbCircle
 10
14.8420994659
 20
13.4721583094
 30
0.0
 40
0.2035433070866173
100
AcDbArc
 50
346.055191437
 51
14.8879031485
  0
ARC
  5
191
330
1F
100
AcDbEntity
  8
0
  6
CONTINUOUS
 62
     7
100
AcDbCircle
 10
15.0768583334
 20
13.5345697436
 30
0.0
 40
0.0393700787401544
100
AcDbArc
 50
170.0
 51
194.8879031485
  0
LINE
  5
192
330
1F
100
AcDbEntity
  8
0
  6
CONTINUOUS
 62
     7
100
AcDbLine
 10
15.0798950132
 20
13.7785136294
 30
0.0
 11
15.0380861096
 21
13.5414068218
 31
0.0
  0
ARC
  5
193
330
1F
100
AcDbEntity
  8
0
  6
CONTINUOUS
 62
     7
100
AcDbCircle
 10
15.1186680915
 20
13.7716769316
 30
0.0
 40
0.0393714215238461
100
AcDbArc
 50
145.1121889858
 51
170.0
  0
ARC
  5
194
330
1F
100
AcDbEntity
  8
0
  6
CONTINUOUS
 62
     7
100
AcDbCircle
 10
14.9194115588
 20
13.9106172049
 30
0.0
 40
0.2035433070866174
100
AcDbArc
 50
325.1121889858
 51
152.3995430525
  0
ARC
  5
195
330
1F
100
AcDbEntity
  8
0
  6
CONTINUOUS
 62
     7
100
AcDbCircle
 10
14.7041417443
 20
14.0231597302
 30
0.0
 40
0.0393700787401579
100
AcDbArc
 50
260.0000472348
 51
332.3995430525
  0
LINE
  5
196
330
1F
100
AcDbEntity
  8
0
  6
CONTINUOUS
 62
     7
100
AcDbLine
 10
14.5405257774
 20
14.0120324251
 30
0.0
 11
14.6973047663
 21
13.9843878378
 31
0.0
  0
ARC
  5
197
330
1F
100
AcDbEntity
  8
0
  6
CONTINUOUS
 62
     7
100
AcDbCircle
 10
14.5473620053
 20
14.050804095
 30
0.0
 40
0.0393701149678218
100
AcDbArc
 50
187.6004766242
 51
260.0000472348
  0
ARC
  5
198
330
1F
100
AcDbEntity
  8
0
  6
CONTINUOUS
 62
     7
100
AcDbCircle
 10
14.3065827496
 20
14.0186752445
 30
0.0
 40
0.2035432708589495
100
AcDbArc
 50
7.6004766242
 51
194.8878397487
  0
ARC
  5
199
330
1F
100
AcDbEntity
  8
0
  6
CONTINUOUS
 62
     7
100
AcDbCircle
 10
14.0718239335
 20
13.9562641021
 30
0.0
 40
0.0393700264954961
100
AcDbArc
 50
350.0
 51
14.8878397487
  0
LINE
  5
19A
330
1F
100
AcDbEntity
  8
0
  6
CONTINUOUS
 62
     7
100
AcDbLine
 10
14.068787867
 20
13.7123196207
 30
0.0
 11
14.1105955973
 21
13.9494276016
 31
0.0
  0
ARC
  5
19B
330
1F
100
AcDbEntity
  8
0
  6
CONTINUOUS
 62
     7
100
AcDbCircle
 10
14.0300153949
 20
13.7191560973
 30
0.0
 40
0.0393700787401561
100
AcDbArc
 50
325.1121190957
 51
350.0
  0
ARC
  5
19C
330
1F
100
AcDbEntity
  8
0
  6
CONTINUOUS
 62
     7
100
AcDbCircle
 10
14.2292706567
 20
13.580216349
 30
0.0
 40
0.2035433070866153
100
AcDbArc
 50
145.1121190957
 51
173.9447490948
  0
LINE
  5
19D
330
1F
100
AcDbEntity
  8
0
  6
CONTINUOUS
 62
     7
100
AcDbLine
 10
3.5612102914
 20
15.4470647008
 30
0.0
 11
14.0268628046
 21
13.6016872988
 31
0.0
  0
ARC
  5
19E
330
1F
100
AcDbEntity
  8
0
  6
CONTINUOUS
 62
     7
100
AcDbCircle
 10
3.363665742
 20
15.4961158712
 30
0.0
 40
0.2035433070866174
100
AcDbArc
 50
346.055191437
 51
14.8879031485
  0
ARC
  5
19F
330
1F
100
AcDbEntity
  8
0
  6
CONTINUOUS
 62
     7
100
AcDbCircle
 10
3.5984246095
 20
15.5585273054
 30
0.0
 40
0.0393700787401587
100
AcDbArc
 50
170.0
 51
194.8879031485
  0
LINE
  5
1A0
330
1F
100
AcDbEntity
  8
0
  6
CONTINUOUS
 62
     7
100
AcDbLine
 10
3.6014610264
 20
15.8024714751
 30
0.0
 11
3.5596527094
 21
15.5653634942
 31
0.0
  0
ARC
  5
1A1
330
1F
100
AcDbEntity
  8
0
  6
CONTINUOUS
 62
     7
100
AcDbCircle
 10
3.6402343676
 20
15.7956344934
 30
0.0
 40
0.0393714215238473
100
AcDbArc
 50
145.1121889858
 51
170.0
  0
ARC
  5
1A2
330
1F
100
AcDbEntity
  8
0
  6
CONTINUOUS
 62
     7
100
AcDbCircle
 10
3.4409778349
 20
15.9345747667
 30
0.0
 40
0.2035433070866141
100
AcDbArc
 50
325.1121889858
 51
152.3995430525
  0
ARC
  5
1A3
330
1F
100
AcDbEntity
  8
0
  6
CONTINUOUS
 62
     7
100
AcDbCircle
 10
3.2257080205
 20
16.047117292
 30
0.0
 40
0.0393700787401587
100
AcDbArc
 50
260.0000472348
 51
332.3995430525
  0
LINE
  5
1A4
330
1F
100
AcDbEntity
  8
0
  6
CONTINUOUS
 62
     7
100
AcDbLine
 10
3.0620917906
 20
16.0359902708
 30
0.0
 11
3.2188713661
 21
16.0083456835
 31
0.0
  0
ARC
  5
1A5
330
1F
100
AcDbEntity
  8
0
  6
CONTINUOUS
 62
     7
100
AcDbCircle
 10
3.0689282814
 20
16.0747616568
 30
0.0
 40
0.039370114967826
100
AcDbArc
 50
187.6004766242
 51
260.0000472348
  0
ARC
  5
1A6
330
1F
100
AcDbEntity
  8
0
  6
CONTINUOUS
 62
     7
100
AcDbCircle
 10
2.8281490257
 20
16.0426328063
 30
0.0
 40
0.2035432708589488
100
AcDbArc
 50
7.6004766242
 51
194.8878397487
  0
ARC
  5
1A7
330
1F
100
AcDbEntity
  8
0
  6
CONTINUOUS
 62
     7
100
AcDbCircle
 10
2.5933902096
 20
15.9802216639
 30
0.0
 40
0.0393700264954975
100
AcDbArc
 50
350.0
 51
14.8878397487
  0
LINE
  5
1A8
330
1F
100
AcDbEntity
  8
0
  6
CONTINUOUS
 62
     7
100
AcDbLine
 10
2.5903535868
 20
15.7362774665
 30
0.0
 11
2.6321621972
 21
15.9733854474
 31
0.0
  0
ARC
  5
1A9
330
1F
100
AcDbEntity
  8
0
  6
CONTINUOUS
 62
     7
100
AcDbCircle
 10
2.551581671
 20
15.7431136591
 30
0.0
 40
0.0393700787401586
100
AcDbArc
 50
325.1121190957
 51
350.0
  0
ARC
  5
1AA
330
1F
100
AcDbEntity
  8
0
  6
CONTINUOUS
 62
     7
100
AcDbCircle
 10
2.7508369328
 20
15.6041739108
 30
0.0
 40
0.2035433070866141
100
AcDbArc
 50
145.1121190957
 51
173.9447490948
  0
LINE
  5
1AB
330
1F
100
AcDbEntity
  8
0
  6
CONTINUOUS
 62
     7
100
AcDbLine
 10
1.0215858094
 20
15.8948692344
 30
0.0
 11
2.5484294045
 21
15.6256451445
 31
0.0
  0
LINE
  5
1AC
330
1F
100
AcDbEntity
  8
0
  6
CONTINUOUS
 62
     7
100
AcDbLine
 10
1.0215858094
 20
15.8948692344
 30
0.0
 11
1.0215858094
 21
16.707135051
 31
0.0
  0
ARC
  5
1AD
330
1F
100
AcDbEntity
  8
0
  6
CONTINUOUS
 62
     7
100
AcDbCircle
 10
15.8522944909
 20
14.1337325994
 30
0.0
 40
0.2362204724409449
100
AcDbArc
 50
0.0
 51
80.0
  0
ARC
  5
1AE
330
1F
100
AcDbEntity
  8
0
  6
CONTINUOUS
 62
     7
100
AcDbCircle
 10
15.8522944909
 20
11.3805513228
 30
0.0
 40
0.2362204724409467
100
AcDbArc
 50
280.0
 51
0.0
  0
LINE
  5
1AF
330
1F
100
AcDbEntity
  8
0
  6
CONTINUOUS
 62
     7
100
AcDbLine
 10
15.4963144161
 20
11.0779175202
 30
0.0
 11
15.8933142032
 21
11.1479201249
 31
0.0
  0
ARC
  5
1B0
330
1F
100
AcDbEntity
  8
0
  6
CONTINUOUS
 62
     7
100
AcDbCircle
 10
15.537333861
 20
10.8452861579
 30
0.0
 40
0.2362204724409449
100
AcDbArc
 50
100.0
 51
180.0
  0
LINE
  5
1B1
330
1F
100
AcDbEntity
  8
0
  6
CONTINUOUS
 62
     7
100
AcDbLine
 10
15.3011138977
 20
7.446099742
 30
0.0
 11
15.3011138977
 21
10.8452857543
 31
0.0
  0
ARC
  5
1B2
330
1F
100
AcDbEntity
  8
0
  6
CONTINUOUS
 62
     7
100
AcDbCircle
 10
15.537333861
 20
7.4460998716
 30
0.0
 40
0.2362204724409445
100
AcDbArc
 50
180.0
 51
260.0
  0
LINE
  5
1B3
330
1F
100
AcDbEntity
  8
0
  6
CONTINUOUS
 62
     7
100
AcDbLine
 10
15.8933142032
 20
7.1434665447
 30
0.0
 11
15.4963144161
 21
7.213467976
 31
0.0
  0
ARC
  5
1B4
330
1F
100
AcDbEntity
  8
0
  6
CONTINUOUS
 62
     7
100
AcDbCircle
 10
15.8522944909
 20
6.9108347067
 30
0.0
 40
0.2362204724409445
100
AcDbArc
 50
0.0
 51
80.0
  0
LINE
  5
1B5
330
1F
100
AcDbEntity
  8
0
  6
CONTINUOUS
 62
     7
100
AcDbLine
 10
16.0885147216
 20
6.9108347787
 30
0.0
 11
16.0885147216
 21
5.5881214721
 31
0.0
  0
LINE
  5
1B6
330
1F
100
AcDbEntity
  8
0
  6
CONTINUOUS
 62
     7
100
AcDbLine
 10
14.5137119005
 20
12.9809448163
 30
0.0
 11
14.5137119005
 21
5.3104406799
 31
0.0
  0
LINE
  5
1B7
330
1F
100
AcDbEntity
  8
0
  6
CONTINUOUS
 62
     7
100
AcDbLine
 10
16.0885147216
 20
12.7032646107
 30
0.0
 11
14.5137119005
 21
12.9809448163
 31
0.0
  0
LINE
  5
1B8
330
1F
100
AcDbEntity
  8
0
  6
CONTINUOUS
 62
     7
100
AcDbLine
 10
16.0885147216
 20
12.7032646107
 30
0.0
 11
16.0885147216
 21
11.3805518908
 31
0.0
  0
LINE
  5
1B9
330
1F
100
AcDbEntity
  8
0
  6
CONTINUOUS
 62
     7
100
AcDbLine
 10
14.5137119005
 20
5.3104406799
 30
0.0
 11
16.0885147216
 21
5.5881214721
 31
0.0
  0
LINE
  5
1BA
330
1F
100
AcDbEntity
  8
0
  6
CONTINUOUS
 62
     7
100
AcDbLine
 10
15.8933142032
 20
3.9250216444
 30
0.0
 11
1.2988255067
 21
1.3516196326
 31
0.0
  0
ARC
  5
1BB
330
1F
100
AcDbEntity
  8
0
  6
CONTINUOUS
 62
     7
100
AcDbCircle
 10
1.257806302
 20
1.5842513927
 30
0.0
 40
0.2362204724409451
100
AcDbArc
 50
180.0
 51
280.0
  0
LINE
  5
1BC
330
1F
100
AcDbEntity
  8
0
  6
CONTINUOUS
 62
     7
100
AcDbLine
 10
1.0215858094
 20
1.5842513252
 30
0.0
 11
1.0215858094
 21
2.3965171418
 31
0.0
  0
LINE
  5
1BD
330
1F
100
AcDbEntity
  8
0
  6
CONTINUOUS
 62
     7
100
AcDbLine
 10
2.5484294045
 20
2.6657409384
 30
0.0
 11
1.0215858094
 21
2.3965171418
 31
0.0
  0
ARC
  5
1BE
330
1F
100
AcDbEntity
  8
0
  6
CONTINUOUS
 62
     7
100
AcDbCircle
 10
2.7508369303
 20
2.6872119042
 30
0.0
 40
0.2035432708589451
100
AcDbArc
 50
186.0551907338
 51
214.8878397487
  0
ARC
  5
1BF
330
1F
100
AcDbEntity
  8
0
  6
CONTINUOUS
 62
     7
100
AcDbCircle
 10
2.551581671
 20
2.5482723703
 30
0.0
 40
0.0393700264954977
100
AcDbArc
 50
10.0
 51
34.8878397487
  0
LINE
  5
1C0
330
1F
100
AcDbEntity
  8
0
  6
CONTINUOUS
 62
     7
100
AcDbLine
 10
2.6321621972
 20
2.3180009289
 30
0.0
 11
2.5903535868
 21
2.5551089098
 31
0.0
  0
ARC
  5
1C1
330
1F
100
AcDbEntity
  8
0
  6
CONTINUOUS
 62
     7
100
AcDbCircle
 10
2.5933902096
 20
2.3111643655
 30
0.0
 40
0.039370078740159
100
AcDbArc
 50
345.1121190957
 51
10.0
  0
ARC
  5
1C2
330
1F
100
AcDbEntity
  8
0
  6
CONTINUOUS
 62
     7
100
AcDbCircle
 10
2.8281491014
 20
2.2487530225
 30
0.0
 40
0.2035433070866157
100
AcDbArc
 50
165.1121190957
 51
352.3995430525
  0
ARC
  5
1C3
330
1F
100
AcDbEntity
  8
0
  6
CONTINUOUS
 62
     7
100
AcDbCircle
 10
3.0689283681
 20
2.2166242547
 30
0.0
 40
0.0393700787401596
100
AcDbArc
 50
100.0000472348
 51
172.3995430525
  0
LINE
  5
1C4
330
1F
100
AcDbEntity
  8
0
  6
CONTINUOUS
 62
     7
100
AcDbLine
 10
3.2188713661
 20
2.2830408394
 30
0.0
 11
3.0620917906
 21
2.2553962521
 31
0.0
  0
ARC
  5
1C5
330
1F
100
AcDbEntity
  8
0
  6
CONTINUOUS
 62
     7
100
AcDbCircle
 10
3.2257080616
 20
2.2442688779
 30
0.0
 40
0.0393700787401589
100
AcDbArc
 50
27.6004766242
 51
100.0000472348
  0
ARC
  5
1C6
330
1F
100
AcDbEntity
  8
0
  6
CONTINUOUS
 62
     7
100
AcDbCircle
 10
3.4409778374
 20
2.3568114772
 30
0.0
 40
0.203543307086613
100
AcDbArc
 50
207.6004766242
 51
34.8879031485
  0
ARC
  5
1C7
330
1F
100
AcDbEntity
  8
0
  6
CONTINUOUS
 62
     7
100
AcDbCircle
 10
3.6402330452
 20
2.4957513029
 30
0.0
 40
0.0393700787401605
100
AcDbArc
 50
190.0
 51
214.8879031485
  0
LINE
  5
1C8
330
1F
100
AcDbEntity
  8
0
  6
CONTINUOUS
 62
     7
100
AcDbLine
 10
3.5596527094
 20
2.7260222954
 30
0.0
 11
3.6014610264
 21
2.4889147544
 31
0.0
  0
ARC
  5
1C9
330
1F
100
AcDbEntity
  8
0
  6
CONTINUOUS
 62
     7
100
AcDbCircle
 10
3.5984259319
 20
2.7328589572
 30
0.0
 40
0.0393714215238501
100
AcDbArc
 50
165.1121889858
 51
190.0
  0
ARC
  5
1CA
330
1F
100
AcDbEntity
  8
0
  6
CONTINUOUS
 62
     7
100
AcDbCircle
 10
3.3636656663
 20
2.7952703589
 30
0.0
 40
0.2035433070866134
100
AcDbArc
 50
345.1121889858
 51
13.9447490948
  0
LINE
  5
1CB
330
1F
100
AcDbEntity
  8
0
  6
CONTINUOUS
 62
     7
100
AcDbLine
 10
14.0268628046
 20
4.6896984908
 30
0.0
 11
3.5612102914
 21
2.8443213821
 31
0.0
  0
ARC
  5
1CC
330
1F
100
AcDbEntity
  8
0
  6
CONTINUOUS
 62
     7
100
AcDbCircle
 10
14.2292706542
 20
4.711169466
 30
0.0
 40
0.2035432708589465
100
AcDbArc
 50
186.0551907338
 51
214.8878397487
  0
ARC
  5
1CD
330
1F
100
AcDbEntity
  8
0
  6
CONTINUOUS
 62
     7
100
AcDbCircle
 10
14.0300153949
 20
4.5722299321
 30
0.0
 40
0.0393700264954985
100
AcDbArc
 50
10.0
 51
34.8878397487
  0
LINE
  5
1CE
330
1F
100
AcDbEntity
  8
0
  6
CONTINUOUS
 62
     7
100
AcDbLine
 10
14.1105955973
 20
4.3419584813
 30
0.0
 11
14.068787867
 21
4.5790664622
 31
0.0
  0
ARC
  5
1CF
330
1F
100
AcDbEntity
  8
0
  6
CONTINUOUS
 62
     7
100
AcDbCircle
 10
14.0718239335
 20
4.3351219273
 30
0.0
 40
0.0393700787401569
100
AcDbArc
 50
345.1121190957
 51
10.0
  0
ARC
  5
1D0
330
1F
100
AcDbEntity
  8
0
  6
CONTINUOUS
 62
     7
100
AcDbCircle
 10
14.3065828253
 20
4.2727105843
 30
0.0
 40
0.2035433070866119
100
AcDbArc
 50
165.1121190957
 51
352.3995430525
  0
ARC
  5
1D1
330
1F
100
AcDbEntity
  8
0
  6
CONTINUOUS
 62
     7
100
AcDbCircle
 10
14.547362092
 20
4.2405818165
 30
0.0
 40
0.0393700787401596
100
AcDbArc
 50
100.0000472348
 51
172.3995430525
  0
LINE
  5
1D2
330
1F
100
AcDbEntity
  8
0
  6
CONTINUOUS
 62
     7
100
AcDbLine
 10
14.6973047663
 20
4.3069985385
 30
0.0
 11
14.5405257774
 21
4.2793536578
 31
0.0
  0
ARC
  5
1D3
330
1F
100
AcDbEntity
  8
0
  6
CONTINUOUS
 62
     7
100
AcDbCircle
 10
14.7041417855
 20
4.2682264397
 30
0.0
 40
0.0393700787401584
100
AcDbArc
 50
27.6004766242
 51
100.0000472348
  0
ARC
  5
1D4
330
1F
100
AcDbEntity
  8
0
  6
CONTINUOUS
 62
     7
100
AcDbCircle
 10
14.9194115612
 20
4.380769039
 30
0.0
 40
0.2035433070866145
100
AcDbArc
 50
207.6004766242
 51
34.8879031485
  0
ARC
  5
1D5
330
1F
100
AcDbEntity
  8
0
  6
CONTINUOUS
 62
     7
100
AcDbCircle
 10
15.1186667691
 20
4.5197088647
 30
0.0
 40
0.0393700787401633
100
AcDbArc
 50
190.0
 51
214.8879031485
  0
LINE
  5
1D6
330
1F
100
AcDbEntity
  8
0
  6
CONTINUOUS
 62
     7
100
AcDbLine
 10
15.0380861096
 20
4.7499798478
 30
0.0
 11
15.0798950132
 21
4.5128724535
 31
0.0
  0
ARC
  5
1D7
330
1F
100
AcDbEntity
  8
0
  6
CONTINUOUS
 62
     7
100
AcDbCircle
 10
15.0768596558
 20
4.756816519
 30
0.0
 40
0.0393714215238458
100
AcDbArc
 50
165.1121889858
 51
190.0
  0
ARC
  5
1D8
330
1F
100
AcDbEntity
  8
0
  6
CONTINUOUS
 62
     7
100
AcDbCircle
 10
14.8420993902
 20
4.8192279207
 30
0.0
 40
0.2035433070866139
100
AcDbArc
 50
345.1121889858
 51
13.9447490948
  0
LINE
  5
1D9
330
1F
100
AcDbEntity
  8
0
  6
CONTINUOUS
 62
     7
100
AcDbLine
 10
16.0885147216
 20
5.0532231713
 30
0.0
 11
16.0885147216
 21
4.1576534104
 31
0.0
  0
ARC
  5
1DA
330
1F
100
AcDbEntity
  8
0
  6
CONTINUOUS
 62
     7
100
AcDbCircle
 10
15.8522944909
 20
4.1576534301
 30
0.0
 40
0.2362204724409498
100
AcDbArc
 50
280.0
 51
0.0
  0
LINE
  5
1DB
330
1F
100
AcDbEntity
  8
0
  6
CONTINUOUS
 62
     7
100
AcDbLine
 10
16.0885147216
 20
5.0532231713
 30
0.0
 11
15.0396442782
 21
4.8682789345
 31
0.0
  0
LINE
  5
1DC
330
1F
100
AcDbEntity
  8
0
  6
CONTINUOUS
 62
     7
100
AcDbLine
 10
1.0215858094
 20
2.9314151493
 30
0.0
 11
1.0215858094
 21
15.3599703469
 31
0.0
  0
LINE
  5
1DD
330
1F
100
AcDbEntity
  8
0
  6
CONTINUOUS
 62
     7
100
AcDbLine
 10
14.0003258312
 20
5.219917299
 30
0.0
 11
14.0003258312
 21
13.0714687839
 31
0.0
  0
LINE
  5
1DE
330
1F
100
AcDbEntity
  8
0
  6
CONTINUOUS
 62
     7
100
AcDbLine
 10
1.0215858094
 20
2.9314151493
 30
0.0
 11
14.0003258312
 21
5.219917299
 31
0.0
  0
LINE
  5
1DF
330
1F
100
AcDbEntity
  8
0
  6
CONTINUOUS
 62
     7
100
AcDbLine
 10
14.0003258312
 20
13.0714687839
 30
0.0
 11
1.0215858094
 21
15.3599703469
 31
0.0
  0
ARC
  5
1E0
330
1F
100
AcDbEntity
  8
0
  6
CONTINUOUS
 62
     7
100
AcDbCircle
 10
14.6013201234
 20
4.8513566885
 30
0.0
 40
0.0393700787401578
100
AcDbArc
 50
280.0000472348
 51
352.3995430525
  0
LINE
  5
1E1
330
1F
100
AcDbEntity
  8
0
  6
CONTINUOUS
 62
     7
100
AcDbLine
 10
14.6081571028
 20
4.8125846712
 30
0.0
 11
14.4513769406
 21
4.7849400839
 31
0.0
  0
ARC
  5
1E2
330
1F
100
AcDbEntity
  8
0
  6
CONTINUOUS
 62
     7
100
AcDbCircle
 10
14.44454043
 20
4.8237120653
 30
0.0
 40
0.03937007874016
100
AcDbArc
 50
207.6004766242
 51
280.0000472348
  0
ARC
  5
1E3
330
1F
100
AcDbEntity
  8
0
  6
CONTINUOUS
 62
     7
100
AcDbCircle
 10
3.1228863996
 20
2.8273991267
 30
0.0
 40
0.0393700787401571
100
AcDbArc
 50
280.0000472348
 51
352.3995430525
  0
LINE
  5
1E4
330
1F
100
AcDbEntity
  8
0
  6
CONTINUOUS
 62
     7
100
AcDbLine
 10
3.129723116
 20
2.7886271188
 30
0.0
 11
2.9729432471
 21
2.7609825315
 31
0.0
  0
ARC
  5
1E5
330
1F
100
AcDbEntity
  8
0
  6
CONTINUOUS
 62
     7
100
AcDbCircle
 10
2.9661067061
 20
2.7997545035
 30
0.0
 40
0.0393700787401601
100
AcDbArc
 50
207.6004766242
 51
280.0000472348
  0
ARC
  5
1E6
330
1F
100
AcDbEntity
  8
0
  6
CONTINUOUS
 62
     7
100
AcDbCircle
 10
2.9661067472
 20
15.4916313855
 30
0.0
 40
0.0393700787401585
100
AcDbArc
 50
80.0000472348
 51
152.3995430525
  0
LINE
  5
1E7
330
1F
100
AcDbEntity
  8
0
  6
CONTINUOUS
 62
     7
100
AcDbLine
 10
2.9729432471
 20
15.5304032581
 30
0.0
 11
3.129723116
 21
15.5027586707
 31
0.0
  0
ARC
  5
1E8
330
1F
100
AcDbEntity
  8
0
  6
CONTINUOUS
 62
     7
100
AcDbCircle
 10
3.1228864863
 20
15.4639870207
 30
0.0
 40
0.0393700787401604
100
AcDbArc
 50
7.6004766242
 51
80.0000472348
  0
ARC
  5
1E9
330
1F
100
AcDbEntity
  8
0
  6
CONTINUOUS
 62
     7
100
AcDbCircle
 10
14.4445404711
 20
13.4676738237
 30
0.0
 40
0.0393700787401578
100
AcDbArc
 50
80.0000472348
 51
152.3995430525
  0
LINE
  5
1EA
330
1F
100
AcDbEntity
  8
0
  6
CONTINUOUS
 62
     7
100
AcDbLine
 10
14.4513769406
 20
13.5064454123
 30
0.0
 11
14.6081571028
 21
13.4788019983
 31
0.0
  0
ARC
  5
1EB
330
1F
100
AcDbEntity
  8
0
  6
CONTINUOUS
 62
     7
100
AcDbCircle
 10
14.6013202101
 20
13.4400294589
 30
0.0
 40
0.0393700787401585
100
AcDbArc
 50
7.6004766242
 51
80.0000472348
  0
LINE
  5
1EC
330
1F
100
AcDbEntity
  8
0
  6
CONTINUOUS
 62
     7
100
AcDbLine
 10
1.0215858094
 20
2.9314151493
 30
0.0
 11
1.0215858094
 21
2.3965171418
 31
0.0
  0
LINE
  5
1ED
330
1F
100
AcDbEntity
  8
0
  6
CONTINUOUS
 62
     7
100
AcDbLine
 10
1.0215858094
 20
15.8948692344
 30
0.0
 11
1.0215858094
 21
15.3599703469
 31
0.0
  0
ARC
  5
1EE
330
1F
100
AcDbEntity
  8
0
  6
CONTINUOUS
 62
     7
100
AcDbCircle
 10
2.7508369303
 20
2.6872119042
 30
0.0
 40
0.2035433070866112
100
AcDbArc
 50
27.6004766242
 51
186.0551907338
  0
ARC
  5
1EF
330
1F
100
AcDbEntity
  8
0
  6
CONTINUOUS
 62
     7
100
AcDbCircle
 10
3.363665742
 20
15.4961158712
 30
0.0
 40
0.2035433070866131
100
AcDbArc
 50
187.6004766242
 51
346.055191437
  0
ARC
  5
1F0
330
1F
100
AcDbEntity
  8
0
  6
CONTINUOUS
 62
     7
100
AcDbCircle
 10
2.7508369328
 20
15.6041739108
 30
0.0
 40
0.2035433070866154
100
AcDbArc
 50
173.9447490948
 51
332.3995430525
  0
ARC
  5
1F1
330
1F
100
AcDbEntity
  8
0
  6
CONTINUOUS
 62
     7
100
AcDbCircle
 10
3.3636656663
 20
2.7952703589
 30
0.0
 40
0.2035433070866196
100
AcDbArc
 50
13.9447490947
 51
172.3995430525
  0
ARC
  5
1F2
330
1F
100
AcDbEntity
  8
0
  6
CONTINUOUS
 62
     7
100
AcDbCircle
 10
14.2292706567
 20
13.580216349
 30
0.0
 40
0.2035433070866158
100
AcDbArc
 50
173.9447490948
 51
332.3995430525
  0
ARC
  5
1F3
330
1F
100
AcDbEntity
  8
0
  6
CONTINUOUS
 62
     7
100
AcDbCircle
 10
14.2292706542
 20
4.711169466
 30
0.0
 40
0.2035433070866118
100
AcDbArc
 50
27.6004766242
 51
186.0551907338
  0
ARC
  5
1F4
330
1F
100
AcDbEntity
  8
0
  6
CONTINUOUS
 62
     7
100
AcDbCircle
 10
14.8420993902
 20
4.8192279207
 30
0.0
 40
0.2035433070866148
100
AcDbArc
 50
13.9447490948
 51
172.3995430525
  0
ARC
  5
1F5
330
1F
100
AcDbEntity
  8
0
  6
CONTINUOUS
 62
     7
100
AcDbCircle
 10
14.8420994659
 20
13.4721583094
 30
0.0
 40
0.2035433070866169
100
AcDbArc
 50
187.6004766242
 51
346.055191437
  0
LINE
  5
1F6
330
1F
100
AcDbEntity
  8
0
  6
CONTINUOUS
 62
     7
100
AcDbLine
 10
16.0885147216
 20
12.7032646107
 30
0.0
 11
16.0885147216
 21
13.2381623249
 31
0.0
  0
LINE
  5
1F7
330
1F
100
AcDbEntity
  8
0
  6
CONTINUOUS
 62
     7
100
AcDbLine
 10
16.0885147216
 20
5.0532231713
 30
0.0
 11
16.0885147216
 21
5.5881214721
 31
0.0
  0
LINE
  5
1F8
330
1F
100
AcDbEntity
  8
0
  6
CONTINUOUS
 62
     7
100
AcDbLine
 10
47.5782774558
 20
19.1454085372
 30
0.0
 11
47.5782774558
 21
17.6344753783
 31
0.0
  0
LINE
  5
1F9
330
1F
100
AcDbEntity
  8
0
  6
CONTINUOUS
 62
     7
100
AcDbLine
 10
47.5782774558
 20
19.1454085372
 30
0.0
 11
60.2830027964
 21
19.1454085372
 31
0.0
  0
LINE
  5
1FA
330
1F
100
AcDbEntity
  8
0
  6
CONTINUOUS
 62
     7
100
AcDbLine
 10
60.2830027964
 20
17.6344753783
 30
0.0
 11
60.2830027964
 21
19.1454085372
 31
0.0
  0
LINE
  5
1FB
330
1F
100
AcDbEntity
  8
0
  6
CONTINUOUS
 62
     7
100
AcDbLine
 10
47.5782774558
 20
17.6344753783
 30
0.0
 11
60.2830027964
 21
17.6344753783
 31
0.0
  0
LINE
  5
1FC
330
1F
100
AcDbEntity
  8
0
  6
CONTINUOUS
 62
     7
100
AcDbLine
 10
60.2830027964
 20
32.8456734172
 30
0.0
 11
47.5782774558
 21
32.8456734172
 31
0.0
  0
LINE
  5
1FD
330
1F
100
AcDbEntity
  8
0
  6
CONTINUOUS
 62
     7
100
AcDbLine
 10
60.2830027964
 20
19.6598153947
 30
0.0
 11
47.5782774558
 21
19.6598153947
 31
0.0
  0
LINE
  5
1FE
330
1F
100
AcDbEntity
  8
0
  6
CONTINUOUS
 62
     7
100
AcDbLine
 10
47.5782774558
 20
32.8456734172
 30
0.0
 11
47.5782774558
 21
19.6598153947
 31
0.0
  0
LINE
  5
1FF
330
1F
100
AcDbEntity
  8
0
  6
CONTINUOUS
 62
     7
100
AcDbLine
 10
60.2830027964
 20
19.6598153947
 30
0.0
 11
60.2830027964
 21
32.8456734172
 31
0.0
  0
LINE
  5
200
330
1F
100
AcDbEntity
  8
0
  6
CONTINUOUS
 62
     7
100
AcDbLine
 10
47.5782774558
 20
19.1454085372
 30
0.0
 11
47.5782774558
 21
19.6598153947
 31
0.0
  0
LINE
  5
201
330
1F
100
AcDbEntity
  8
0
  6
CONTINUOUS
 62
     7
100
AcDbLine
 10
60.2830027964
 20
19.6598153947
 30
0.0
 11
60.2830027964
 21
19.1454085372
 31
0.0
  0
LINE
  5
202
330
1F
100
AcDbEntity
  8
0
  6
CONTINUOUS
 62
     7
100
AcDbLine
 10
47.5782774558
 20
1.1839079433
 30
0.0
 11
60.2830027964
 21
1.1839079433
 31
0.0
  0
LINE
  5
203
330
1F
100
AcDbEntity
  8
0
  6
CONTINUOUS
 62
     7
100
AcDbLine
 10
47.5782774558
 20
2.6948416156
 30
0.0
 11
47.5782774558
 21
1.1839079433
 31
0.0
  0
LINE
  5
204
330
1F
100
AcDbEntity
  8
0
  6
CONTINUOUS
 62
     7
100
AcDbLine
 10
60.2830027964
 20
2.6948416156
 30
0.0
 11
47.5782774558
 21
2.6948416156
 31
0.0
  0
LINE
  5
205
330
1F
100
AcDbEntity
  8
0
  6
CONTINUOUS
 62
     7
100
AcDbLine
 10
60.2830027964
 20
1.1839079433
 30
0.0
 11
60.2830027964
 21
2.6948416156
 31
0.0
  0
LINE
  5
206
330
1F
100
AcDbEntity
  8
0
  6
CONTINUOUS
 62
     7
100
AcDbLine
 10
60.2830027964
 20
16.3951047356
 30
0.0
 11
47.5782774558
 21
16.3951047356
 31
0.0
  0
LINE
  5
207
330
1F
100
AcDbEntity
  8
0
  6
CONTINUOUS
 62
     7
100
AcDbLine
 10
47.5782774558
 20
3.2092475931
 30
0.0
 11
60.2830027964
 21
3.2092475931
 31
0.0
  0
LINE
  5
208
330
1F
100
AcDbEntity
  8
0
  6
CONTINUOUS
 62
     7
100
AcDbLine
 10
47.5782774558
 20
16.3951047356
 30
0.0
 11
47.5782774558
 21
3.2092475931
 31
0.0
  0
LINE
  5
209
330
1F
100
AcDbEntity
  8
0
  6
CONTINUOUS
 62
     7
100
AcDbLine
 10
60.2830027964
 20
3.2092475931
 30
0.0
 11
60.2830027964
 21
16.3951047356
 31
0.0
  0
LINE
  5
20A
330
1F
100
AcDbEntity
  8
0
  6
CONTINUOUS
 62
     7
100
AcDbLine
 10
47.5782774558
 20
2.6948416156
 30
0.0
 11
47.5782774558
 21
3.2092475931
 31
0.0
  0
LINE
  5
20B
330
1F
100
AcDbEntity
  8
0
  6
CONTINUOUS
 62
     7
100
AcDbLine
 10
60.2830027964
 20
3.2092475931
 30
0.0
 11
60.2830027964
 21
2.6948416156
 31
0.0
  0
LINE
  5
20C
330
1F
100
AcDbEntity
  8
0
  6
CONTINUOUS
 62
     7
100
AcDbLine
 10
46.3389091598
 20
9.557923986
 30
0.0
 11
33.6341838192
 21
9.557923986
 31
0.0
  0
LINE
  5
20D
330
1F
100
AcDbEntity
  8
0
  6
CONTINUOUS
 62
     7
100
AcDbLine
 10
46.3389091598
 20
1.1839079433
 30
0.0
 11
46.3389091598
 21
9.557923986
 31
0.0
  0
LINE
  5
20E
330
1F
100
AcDbEntity
  8
0
  6
CONTINUOUS
 62
     7
100
AcDbLine
 10
33.6341838192
 20
9.557923986
 30
0.0
 11
33.6341838192
 21
1.1839079433
 31
0.0
  0
LINE
  5
20F
330
1F
100
AcDbEntity
  8
0
  6
CONTINUOUS
 62
     7
100
AcDbLine
 10
33.6341838192
 20
1.1839079433
 30
0.0
 11
46.3389091598
 21
1.1839079433
 31
0.0
  0
LINE
  5
210
330
1F
100
AcDbEntity
  8
POCKETS
100
AcDbLine
 10
60.6767039398
 20
3.2092477191
 30
0.0
 11
47.1845779555
 21
3.2092477191
 31
0.0
  0
LINE
  5
211
330
1F
100
AcDbEntity
  8
POCKETS
100
AcDbLine
 10
47.1845779555
 20
3.2092477191
 30
0.0
 11
47.1845779555
 21
2.6948414997
 31
0.0
  0
LINE
  5
212
330
1F
100
AcDbEntity
  8
POCKETS
100
AcDbLine
 10
47.1845779555
 20
2.6948414997
 30
0.0
 11
60.6767039398
 21
2.6948414997
 31
0.0
  0
LINE
  5
213
330
1F
100
AcDbEntity
  8
PROFILES_OUTSIDE
100
AcDbLine
 10
16.0885149634
 20
11.3805513228
 30
0.0
 11
16.0885149634
 21
14.3319451107
 31
0.0
  0
LINE
  5
214
330
1F
100
AcDbEntity
  8
PROFILES_OUTSIDE
100
AcDbLine
 10
16.0885149634
 20
14.3319451107
 30
0.0
 11
1.0215858295
 21
16.9886512334
 31
0.0
  0
LINE
  5
215
330
1F
100
AcDbEntity
  8
PROFILES_OUTSIDE
100
AcDbLine
 10
1.0215858295
 20
16.9886512334
 30
0.0
 11
1.0215858295
 21
1.3027347961
 31
0.0
  0
LINE
  5
216
330
1F
100
AcDbEntity
  8
PROFILES_OUTSIDE
100
AcDbLine
 10
1.0215858295
 20
1.3027347961
 30
0.0
 11
16.0885149634
 21
3.9594409188
 31
0.0
  0
LINE
  5
217
330
1F
100
AcDbEntity
  8
POCKETS
100
AcDbLine
 10
60.6767039398
 20
2.6948414997
 30
0.0
 11
60.6767039398
 21
3.2092477191
 31
0.0
  0
LINE
  5
218
330
1F
100
AcDbEntity
  8
PROFILES_OUTSIDE
100
AcDbLine
 10
16.0885149634
 20
3.9594409188
 30
0.0
 11
16.0885149634
 21
6.9108347067
 31
0.0
  0
LINE
  5
219
330
1F
100
AcDbEntity
  8
PROFILES_OUTSIDE
100
AcDbLine
 10
15.8933137455
 20
7.1434664594
 30
0.0
 11
15.4963146064
 21
7.2134681189
 31
0.0
  0
LINE
  5
21A
330
1F
100
AcDbEntity
  8
PROFILES_OUTSIDE
100
AcDbLine
 10
15.3011133886
 20
7.4460998716
 30
0.0
 11
15.3011133886
 21
10.8452861579
 31
0.0
  0
LINE
  5
21B
330
1F
100
AcDbEntity
  8
PROFILES_OUTSIDE
100
AcDbLine
 10
15.4963146064
 20
11.0779179105
 30
0.0
 11
15.8933137455
 21
11.1479195701
 31
0.0
  0
LINE
  5
21C
330
1F
100
AcDbEntity
  8
PROFILES_INSIDE
100
AcDbLine
 10
15.0380863746
 20
13.541406286
 30
0.0
 11
15.0798948103
 21
13.7785137072
 31
0.0
  0
LINE
  5
21D
330
1F
100
AcDbEntity
  8
PROFILES_INSIDE
100
AcDbLine
 10
14.4513769816
 20
13.5064457881
 30
0.0
 11
14.6081567206
 21
13.4788014233
 31
0.0
  0
LINE
  5
21E
330
1F
100
AcDbEntity
  8
PROFILES_INSIDE
100
AcDbLine
 10
14.1105958408
 20
13.9494275688
 30
0.0
 11
14.0687873537
 21
13.7123195549
 31
0.0
  0
LINE
  5
21F
330
1F
100
AcDbEntity
  8
PROFILES_INSIDE
100
AcDbLine
 10
14.6973052339
 20
13.9843877658
 30
0.0
 11
14.5405254862
 21
14.0120320815
 31
0.0
  0
LINE
  5
220
330
1F
100
AcDbEntity
  8
PROFILES_OUTSIDE
100
AcDbLine
 10
46.3389086642
 20
1.1839079635
 30
0.0
 11
46.3389086642
 21
9.5579237115
 31
0.0
  0
LINE
  5
221
330
1F
100
AcDbEntity
  8
PROFILES_OUTSIDE
100
AcDbLine
 10
46.3389086642
 20
9.5579237115
 30
0.0
 11
33.6341842547
 21
9.5579237115
 31
0.0
  0
LINE
  5
222
330
1F
100
AcDbEntity
  8
PROFILES_OUTSIDE
100
AcDbLine
 10
33.6341842547
 20
9.5579237115
 30
0.0
 11
33.6341842547
 21
1.1839079635
 31
0.0
  0
LINE
  5
223
330
1F
100
AcDbEntity
  8
PROFILES_OUTSIDE
100
AcDbLine
 10
33.6341842547
 20
1.1839079635
 30
0.0
 11
46.3389086642
 21
1.1839079635
 31
0.0
  0
LINE
  5
224
330
1F
100
AcDbEntity
  8
PROFILES_OUTSIDE
100
AcDbLine
 10
60.2830031524
 20
16.3951052751
 30
0.0
 11
47.5782787429
 21
16.3951052751
 31
0.0
  0
LINE
  5
225
330
1F
100
AcDbEntity
  8
PROFILES_OUTSIDE
100
AcDbLine
 10
47.5782787429
 20
16.3951052751
 30
0.0
 11
47.5782787429
 21
1.1839079635
 31
0.0
  0
LINE
  5
226
330
1F
100
AcDbEntity
  8
PROFILES_OUTSIDE
100
AcDbLine
 10
47.5782787429
 20
1.1839079635
 30
0.0
 11
60.2830031524
 21
1.1839079635
 31
0.0
  0
LINE
  5
227
330
1F
100
AcDbEntity
  8
PROFILES_OUTSIDE
100
AcDbLine
 10
60.2830031524
 20
1.1839079635
 30
0.0
 11
60.2830031524
 21
16.3951052751
 31
0.0
  0
LINE
  5
228
330
1F
100
AcDbEntity
  8
PROFILES_OUTSIDE
100
AcDbLine
 10
47.5782787429
 20
32.8456726654
 30
0.0
 11
47.5782787429
 21
17.6344753538
 31
0.0
  0
LINE
  5
229
330
1F
100
AcDbEntity
  8
PROFILES_OUTSIDE
100
AcDbLine
 10
47.5782787429
 20
17.6344753538
 30
0.0
 11
60.2830031524
 21
17.6344753538
 31
0.0
  0
LINE
  5
22A
330
1F
100
AcDbEntity
  8
BOX_STOCK
100
AcDbLine
 10
0.0082000027
 20
0.1705221367
 30
0.0
 11
96.0711921287
 21
0.1705221367
 31
0.0
  0
LINE
  5
22B
330
1F
100
AcDbEntity
  8
BOX_STOCK
100
AcDbLine
 10
96.0711921287
 20
0.1705221367
 30
0.0
 11
96.0711921287
 21
48.2020181997
 31
0.0
  0
LINE
  5
22C
330
1F
100
AcDbEntity
  8
BOX_STOCK
100
AcDbLine
 10
96.0711921287
 20
48.2020181997
 30
0.0
 11
0.0082000027
 21
48.2020181997
 31
0.0
  0
LINE
  5
22D
330
1F
100
AcDbEntity
  8
BOX_STOCK
100
AcDbLine
 10
0.0082000027
 20
48.2020181997
 30
0.0
 11
0.0082000027
 21
0.1705221367
 31
0.0
  0
LINE
  5
22E
330
1F
100
AcDbEntity
  8
POCKETS
100
AcDbLine
 10
60.6767039398
 20
19.6598151094
 30
0.0
 11
47.1845779555
 21
19.6598151094
 31
0.0
  0
LINE
  5
22F
330
1F
100
AcDbEntity
  8
PROFILES_OUTSIDE
100
AcDbLine
 10
60.2830031524
 20
17.6344753538
 30
0.0
 11
60.2830031524
 21
32.8456726654
 31
0.0
  0
LINE
  5
230
330
1F
100
AcDbEntity
  8
POCKETS
100
AcDbLine
 10
47.1845779555
 20
19.6598151094
 30
0.0
 11
47.1845779555
 21
19.14540889
 31
0.0
  0
LINE
  5
231
330
1F
100
AcDbEntity
  8
POCKETS
100
AcDbLine
 10
47.1845779555
 20
19.14540889
 30
0.0
 11
60.6767039398
 21
19.14540889
 31
0.0
  0
LINE
  5
232
330
1F
100
AcDbEntity
  8
POCKETS
100
AcDbLine
 10
60.6767039398
 20
19.14540889
 30
0.0
 11
60.6767039398
 21
19.6598151094
 31
0.0
  0
LINE
  5
233
330
1F
100
AcDbEntity
  8
PROFILES_OUTSIDE
100
AcDbLine
 10
60.2830031524
 20
32.8456726654
 30
0.0
 11
47.5782787429
 21
32.8456726654
 31
0.0
  0
LINE
  5
234
330
1F
100
AcDbEntity
  8
PROFILES_INSIDE
100
AcDbLine
 10
3.5596526508
 20
15.5653638478
 30
0.0
 11
3.6014610864
 21
15.802471269
 31
0.0
  0
LINE
  5
235
330
1F
100
AcDbEntity
  8
PROFILES_INSIDE
100
AcDbLine
 10
3.21887151
 20
16.0083453276
 30
0.0
 11
3.0620917678
 21
16.0359896745
 31
0.0
  0
LINE
  5
236
330
1F
100
AcDbEntity
  8
PROFILES_INSIDE
100
AcDbLine
 10
2.6321621125
 20
15.9733851313
 30
0.0
 11
2.5903536298
 21
15.7362771167
 31
0.0
  0
LINE
  5
237
330
1F
100
AcDbEntity
  8
PROFILES_INSIDE
100
AcDbLine
 10
2.9729432577
 20
15.5304033499
 30
0.0
 11
3.1297229967
 21
15.5027589851
 31
0.0
  0
LINE
  5
238
330
1F
100
AcDbEntity
  8
PROFILES_INSIDE
100
AcDbLine
 10
15.0798948103
 20
4.5128723223
 30
0.0
 11
15.0380863746
 21
4.7499797434
 31
0.0
  0
LINE
  5
239
330
1F
100
AcDbEntity
  8
PROFILES_INSIDE
100
AcDbLine
 10
14.6081566978
 20
4.8125847354
 30
0.0
 11
14.4513770051
 21
4.7849401077
 31
0.0
  0
LINE
  5
23A
330
1F
100
AcDbEntity
  8
PROFILES_INSIDE
100
AcDbLine
 10
14.0687872933
 20
4.5790664639
 30
0.0
 11
14.1105958923
 21
4.3419584698
 31
0.0
  0
LINE
  5
23B
330
1F
100
AcDbEntity
  8
PROFILES_INSIDE
100
AcDbLine
 10
14.5405255176
 20
4.2793537696
 30
0.0
 11
14.6973052111
 21
4.3069983929
 31
0.0
  0
LINE
  5
23C
330
1F
100
AcDbEntity
  8
PROFILES_INSIDE
100
AcDbLine
 10
2.5903535784
 20
2.5551089037
 30
0.0
 11
2.6321621684
 21
2.318000908
 31
0.0
  0
LINE
  5
23D
330
1F
100
AcDbEntity
  8
PROFILES_INSIDE
100
AcDbLine
 10
3.0620917938
 20
2.2553962078
 30
0.0
 11
3.2188714872
 21
2.2830408311
 31
0.0
  0
LINE
  5
23E
330
1F
100
AcDbEntity
  8
PROFILES_INSIDE
100
AcDbLine
 10
3.6014610864
 20
2.4889147605
 30
0.0
 11
3.5596526508
 21
2.7260221816
 31
0.0
  0
LINE
  5
23F
330
1F
100
AcDbEntity
  8
PROFILES_INSIDE
100
AcDbLine
 10
3.129722974
 20
2.7886271736
 30
0.0
 11
2.9729432805
 21
2.7609825503
 31
0.0
  0
LINE
  5
240
330
1F
100
AcDbEntity
  8
PROFILES_OUTSIDE
100
AcDbLine
 10
61.9774913413
 20
14.5619347145
 30
0.0
 11
61.5617433098
 21
14.5619347145
 31
0.0
  0
LINE
  5
241
330
1F
100
AcDbEntity
  8
PROFILES_OUTSIDE
100
AcDbLine
 10
61.9908806184
 20
14.3527272606
 30
0.0
 11
61.9774913413
 21
14.5619347145
 31
0.0
  0
LINE
  5
242
330
1F
100
AcDbEntity
  8
PROFILES_OUTSIDE
100
AcDbLine
 10
62.370315027
 20
14.3158717224
 30
0.0
 11
62.030170314
 21
14.3158717224
 31
0.0
  0
LINE
  5
243
330
1F
100
AcDbEntity
  8
PROFILES_OUTSIDE
100
AcDbLine
 10
62.5066251996
 20
14.8080764468
 30
0.0
 11
62.5066251996
 21
14.7283985586
 31
0.0
  0
LINE
  5
244
330
1F
100
AcDbEntity
  8
PROFILES_OUTSIDE
100
AcDbLine
 10
67.3491448846
 20
14.8080764468
 30
0.0
 11
62.5066251996
 21
14.8080764468
 31
0.0
  0
LINE
  5
245
330
1F
100
AcDbEntity
  8
PROFILES_OUTSIDE
100
AcDbLine
 10
67.8215858295
 20
10.5816475823
 30
0.0
 11
67.8215858295
 21
14.3356355019
 31
0.0
  0
LINE
  5
246
330
1F
100
AcDbEntity
  8
PROFILES_OUTSIDE
100
AcDbLine
 10
68.9239480342
 20
10.1092066374
 30
0.0
 11
68.2940267744
 21
10.1092066374
 31
0.0
  0
LINE
  5
247
330
1F
100
AcDbEntity
  8
PROFILES_OUTSIDE
100
AcDbLine
 10
69.3963889791
 20
14.3356355019
 30
0.0
 11
69.3963889791
 21
10.5816475823
 31
0.0
  0
LINE
  5
248
330
1F
100
AcDbEntity
  8
PROFILES_INSIDE
100
AcDbLine
 10
31.3443855872
 20
13.541406286
 30
0.0
 11
31.3861940229
 21
13.7785137072
 31
0.0
  0
LINE
  5
249
330
1F
100
AcDbEntity
  8
PROFILES_INSIDE
100
AcDbLine
 10
30.7576761942
 20
13.5064457881
 30
0.0
 11
30.9144559332
 21
13.4788014233
 31
0.0
  0
LINE
  5
24A
330
1F
100
AcDbEntity
  8
PROFILES_INSIDE
100
AcDbLine
 10
30.4168950534
 20
13.9494275688
 30
0.0
 11
30.3750865663
 21
13.7123195549
 31
0.0
  0
LINE
  5
24B
330
1F
100
AcDbEntity
  8
PROFILES_INSIDE
100
AcDbLine
 10
31.0036044465
 20
13.9843877658
 30
0.0
 11
30.8468246988
 21
14.0120320815
 31
0.0
  0
LINE
  5
24C
330
1F
100
AcDbEntity
  8
PROFILES_INSIDE
100
AcDbLine
 10
19.8715582886
 20
15.5643752838
 30
0.0
 11
19.9133667243
 21
15.8014827049
 31
0.0
  0
LINE
  5
24D
330
1F
100
AcDbEntity
  8
PROFILES_INSIDE
100
AcDbLine
 10
19.5307771478
 20
16.0073567636
 30
0.0
 11
19.3739974057
 21
16.0350011105
 31
0.0
  0
LINE
  5
24E
330
1F
100
AcDbEntity
  8
PROFILES_INSIDE
100
AcDbLine
 10
18.9440677503
 20
15.9723965673
 30
0.0
 11
18.9022592676
 21
15.7352885527
 31
0.0
  0
LINE
  5
24F
330
1F
100
AcDbEntity
  8
PROFILES_INSIDE
100
AcDbLine
 10
19.2848488955
 20
15.5294147858
 30
0.0
 11
19.4416286346
 21
15.5017704211
 31
0.0
  0
LINE
  5
250
330
1F
100
AcDbEntity
  8
PROFILES_INSIDE
100
AcDbLine
 10
31.3861940229
 20
4.5128723223
 30
0.0
 11
31.3443855872
 21
4.7499797434
 31
0.0
  0
LINE
  5
251
330
1F
100
AcDbEntity
  8
PROFILES_INSIDE
100
AcDbLine
 10
30.9144559104
 20
4.8125847354
 30
0.0
 11
30.7576762177
 21
4.7849401077
 31
0.0
  0
LINE
  5
252
330
1F
100
AcDbEntity
  8
PROFILES_INSIDE
100
AcDbLine
 10
30.3750865059
 20
4.5790664639
 30
0.0
 11
30.4168951049
 21
4.3419584698
 31
0.0
  0
LINE
  5
253
330
1F
100
AcDbEntity
  8
PROFILES_INSIDE
100
AcDbLine
 10
30.8468247302
 20
4.2793537696
 30
0.0
 11
31.0036044237
 21
4.3069983929
 31
0.0
  0
LINE
  5
254
330
1F
100
AcDbEntity
  8
PROFILES_OUTSIDE
100
AcDbLine
 10
74.711349609
 20
14.8080764468
 30
0.0
 11
69.868829924
 21
14.8080764468
 31
0.0
  0
LINE
  5
255
330
1F
100
AcDbEntity
  8
PROFILES_OUTSIDE
100
AcDbLine
 10
74.711349609
 20
14.7283985586
 30
0.0
 11
74.711349609
 21
14.8080764468
 31
0.0
  0
LINE
  5
256
330
1F
100
AcDbEntity
  8
PROFILES_OUTSIDE
100
AcDbLine
 10
75.1878044946
 20
14.3158717224
 30
0.0
 11
74.8476597816
 21
14.3158717224
 31
0.0
  0
LINE
  5
257
330
1F
100
AcDbEntity
  8
PROFILES_OUTSIDE
100
AcDbLine
 10
75.2404834673
 20
14.5619347145
 30
0.0
 11
75.2270941903
 21
14.3527272606
 31
0.0
  0
LINE
  5
258
330
1F
100
AcDbEntity
  8
PROFILES_OUTSIDE
100
AcDbLine
 10
75.6562314988
 20
14.5619347145
 30
0.0
 11
75.2404834673
 21
14.5619347145
 31
0.0
  0
LINE
  5
259
330
1F
100
AcDbEntity
  8
PROFILES_INSIDE
100
AcDbLine
 10
18.9022592162
 20
2.5560974677
 30
0.0
 11
18.9440678062
 21
2.318989472
 31
0.0
  0
LINE
  5
25A
330
1F
100
AcDbEntity
  8
PROFILES_INSIDE
100
AcDbLine
 10
19.3739974316
 20
2.2563847719
 30
0.0
 11
19.530777125
 21
2.2840293951
 31
0.0
  0
LINE
  5
25B
330
1F
100
AcDbEntity
  8
PROFILES_INSIDE
100
AcDbLine
 10
19.9133667243
 20
2.4899033245
 30
0.0
 11
19.8715582886
 21
2.7270107457
 31
0.0
  0
LINE
  5
25C
330
1F
100
AcDbEntity
  8
PROFILES_INSIDE
100
AcDbLine
 10
19.4416286118
 20
2.7896157376
 30
0.0
 11
19.2848489183
 21
2.7619711144
 31
0.0
  0
LINE
  5
25D
330
1F
100
AcDbEntity
  8
PROFILES_OUTSIDE
100
AcDbLine
 10
17.3278850421
 20
16.7071346367
 30
0.0
 11
17.3278850421
 21
1.5842513927
 31
0.0
  0
LINE
  5
25E
330
1F
100
AcDbEntity
  8
PROFILES_OUTSIDE
100
AcDbLine
 10
32.1996129581
 20
14.366364352
 30
0.0
 11
17.6051247691
 21
16.9397663894
 31
0.0
  0
LINE
  5
25F
330
1F
100
AcDbEntity
  8
PROFILES_OUTSIDE
100
AcDbLine
 10
32.394814176
 20
11.3805513228
 30
0.0
 11
32.394814176
 21
14.1337325994
 31
0.0
  0
LINE
  5
260
330
1F
100
AcDbEntity
  8
PROFILES_OUTSIDE
100
AcDbLine
 10
31.802613819
 20
11.0779179105
 30
0.0
 11
32.1996129581
 21
11.1479195701
 31
0.0
  0
LINE
  5
261
330
1F
100
AcDbEntity
  8
POCKETS
100
AcDbLine
 10
16.4870925927
 20
5.6584012303
 30
0.0
 11
16.0993730049
 21
5.5900358061
 31
0.0
  0
LINE
  5
262
330
1F
100
AcDbEntity
  8
PROFILES_OUTSIDE
100
AcDbLine
 10
75.6956015775
 20
14.0599662106
 30
0.0
 11
75.6956015775
 21
14.5225646358
 31
0.0
  0
LINE
  5
263
330
1F
100
AcDbEntity
  8
PROFILES_OUTSIDE
100
AcDbLine
 10
70.368829924
 20
13.8237457381
 30
0.0
 11
75.4593811051
 21
13.8237457381
 31
0.0
  0
LINE
  5
264
330
1F
100
AcDbEntity
  8
PROFILES_OUTSIDE
100
AcDbLine
 10
69.8963889791
 20
10.1092066374
 30
0.0
 11
69.8963889791
 21
13.3513047933
 31
0.0
  0
LINE
  5
265
330
1F
100
AcDbEntity
  8
PROFILES_OUTSIDE
100
AcDbLine
 10
69.3963889791
 20
6.7488031767
 30
0.0
 11
69.3963889791
 21
9.2431812336
 31
0.0
  0
LINE
  5
266
330
1F
100
AcDbEntity
  8
PROFILES_OUTSIDE
100
AcDbLine
 10
69.8963889791
 20
2.640679617
 30
0.0
 11
69.8963889791
 21
5.8827777729
 31
0.0
  0
LINE
  5
267
330
1F
100
AcDbEntity
  8
PROFILES_OUTSIDE
100
AcDbLine
 10
75.4593811051
 20
2.1682386722
 30
0.0
 11
70.368829924
 21
2.1682386722
 31
0.0
  0
LINE
  5
268
330
1F
100
AcDbEntity
  8
PROFILES_OUTSIDE
100
AcDbLine
 10
75.6956015775
 20
1.4694197745
 30
0.0
 11
75.6956015775
 21
1.9320181997
 31
0.0
  0
LINE
  5
269
330
1F
100
AcDbEntity
  8
PROFILES_OUTSIDE
100
AcDbLine
 10
75.2404834673
 20
1.4300496958
 30
0.0
 11
75.6562314988
 21
1.4300496958
 31
0.0
  0
LINE
  5
26A
330
1F
100
AcDbEntity
  8
PROFILES_OUTSIDE
100
AcDbLine
 10
75.2270941903
 20
1.6392571497
 30
0.0
 11
75.2404834673
 21
1.4300496958
 31
0.0
  0
LINE
  5
26B
330
1F
100
AcDbEntity
  8
PROFILES_OUTSIDE
100
AcDbLine
 10
74.8476597816
 20
1.6761126879
 30
0.0
 11
75.1878044946
 21
1.6761126879
 31
0.0
  0
LINE
  5
26C
330
1F
100
AcDbEntity
  8
PROFILES_OUTSIDE
100
AcDbLine
 10
74.711349609
 20
1.1839079635
 30
0.0
 11
74.711349609
 21
1.2635858517
 31
0.0
  0
LINE
  5
26D
330
1F
100
AcDbEntity
  8
PROFILES_OUTSIDE
100
AcDbLine
 10
69.868829924
 20
1.1839079635
 30
0.0
 11
74.711349609
 21
1.1839079635
 31
0.0
  0
LINE
  5
26E
330
1F
100
AcDbEntity
  8
PROFILES_OUTSIDE
100
AcDbLine
 10
69.3963889791
 20
5.410336828
 30
0.0
 11
69.3963889791
 21
1.6563489084
 31
0.0
  0
LINE
  5
26F
330
1F
100
AcDbEntity
  8
PROFILES_OUTSIDE
100
AcDbLine
 10
68.2940267744
 20
5.8827777729
 30
0.0
 11
68.9239480342
 21
5.8827777729
 31
0.0
  0
LINE
  5
270
330
1F
100
AcDbEntity
  8
PROFILES_OUTSIDE
100
AcDbLine
 10
67.8215858295
 20
1.6563489084
 30
0.0
 11
67.8215858295
 21
5.410336828
 31
0.0
  0
LINE
  5
271
330
1F
100
AcDbEntity
  8
PROFILES_OUTSIDE
100
AcDbLine
 10
62.5066251996
 20
1.1839079635
 30
0.0
 11
67.3491448846
 21
1.1839079635
 31
0.0
  0
LINE
  5
272
330
1F
100
AcDbEntity
  8
PROFILES_OUTSIDE
100
AcDbLine
 10
31.6074126012
 20
7.4460998716
 30
0.0
 11
31.6074126012
 21
10.8452861579
 31
0.0
  0
LINE
  5
273
330
1F
100
AcDbEntity
  8
POCKETS
100
AcDbLine
 10
16.5785655304
 20
5.1396324219
 30
0.0
 11
16.4870925927
 21
5.6584012303
 31
0.0
  0
LINE
  5
274
330
1F
100
AcDbEntity
  8
PROFILES_OUTSIDE
100
AcDbLine
 10
32.1996129581
 20
7.1434664594
 30
0.0
 11
31.802613819
 21
7.2134681189
 31
0.0
  0
LINE
  5
275
330
1F
100
AcDbEntity
  8
POCKETS
100
AcDbLine
 10
16.1908459426
 20
5.0712669976
 30
0.0
 11
16.5785655304
 21
5.1396324219
 31
0.0
  0
LINE
  5
276
330
1F
100
AcDbEntity
  8
POCKETS
100
AcDbLine
 10
1.010727788
 20
2.3946025966
 30
0.0
 11
16.1908459426
 21
5.0712669976
 31
0.0
  0
LINE
  5
277
330
1F
100
AcDbEntity
  8
POCKETS
100
AcDbLine
 10
0.6230082002
 20
2.3262371723
 30
0.0
 11
1.010727788
 21
2.3946025966
 31
0.0
  0
LINE
  5
278
330
1F
100
AcDbEntity
  8
POCKETS
100
AcDbLine
 10
0.5315352625
 20
2.8450059808
 30
0.0
 11
0.6230082002
 21
2.3262371723
 31
0.0
  0
LINE
  5
279
330
1F
100
AcDbEntity
  8
POCKETS
100
AcDbLine
 10
0.9192548503
 20
2.913371405
 30
0.0
 11
0.5315352625
 21
2.8450059808
 31
0.0
  0
LINE
  5
27A
330
1F
100
AcDbEntity
  8
POCKETS
100
AcDbLine
 10
14.000325987
 20
5.219917183
 30
0.0
 11
0.9192548503
 21
2.913371405
 31
0.0
  0
LINE
  5
27B
330
1F
100
AcDbEntity
  8
POCKETS
100
AcDbLine
 10
14.000325987
 20
13.0714688464
 30
0.0
 11
14.000325987
 21
5.219917183
 31
0.0
  0
LINE
  5
27C
330
1F
100
AcDbEntity
  8
POCKETS
100
AcDbLine
 10
0.9192548503
 20
15.3780146244
 30
0.0
 11
14.000325987
 21
13.0714688464
 31
0.0
  0
LINE
  5
27D
330
1F
100
AcDbEntity
  8
POCKETS
100
AcDbLine
 10
0.5315352625
 20
15.4463800487
 30
0.0
 11
0.9192548503
 21
15.3780146244
 31
0.0
  0
LINE
  5
27E
330
1F
100
AcDbEntity
  8
POCKETS
100
AcDbLine
 10
0.6230082002
 20
15.9651488572
 30
0.0
 11
0.5315352625
 21
15.4463800487
 31
0.0
  0
LINE
  5
27F
330
1F
100
AcDbEntity
  8
POCKETS
100
AcDbLine
 10
1.010727788
 20
15.8967834329
 30
0.0
 11
0.6230082002
 21
15.9651488572
 31
0.0
  0
LINE
  5
280
330
1F
100
AcDbEntity
  8
POCKETS
100
AcDbLine
 10
16.1908459426
 20
13.2201190319
 30
0.0
 11
1.010727788
 21
15.8967834329
 31
0.0
  0
LINE
  5
281
330
1F
100
AcDbEntity
  8
POCKETS
100
AcDbLine
 10
16.5785655304
 20
13.1517536076
 30
0.0
 11
16.1908459426
 21
13.2201190319
 31
0.0
  0
LINE
  5
282
330
1F
100
AcDbEntity
  8
POCKETS
100
AcDbLine
 10
16.4870925927
 20
12.6329847991
 30
0.0
 11
16.5785655304
 21
13.1517536076
 31
0.0
  0
LINE
  5
283
330
1F
100
AcDbEntity
  8
POCKETS
100
AcDbLine
 10
16.0993730049
 20
12.7013502234
 30
0.0
 11
16.4870925927
 21
12.6329847991
 31
0.0
  0
LINE
  5
284
330
1F
100
AcDbEntity
  8
POCKETS
100
AcDbLine
 10
14.5137118138
 20
12.9809450737
 30
0.0
 11
16.0993730049
 21
12.7013502234
 31
0.0
  0
LINE
  5
285
330
1F
100
AcDbEntity
  8
PROFILES_OUTSIDE
100
AcDbLine
 10
62.5066251996
 20
1.2635858517
 30
0.0
 11
62.5066251996
 21
1.1839079635
 31
0.0
  0
LINE
  5
286
330
1F
100
AcDbEntity
  8
PROFILES_OUTSIDE
100
AcDbLine
 10
62.030170314
 20
1.6761126879
 30
0.0
 11
62.370315027
 21
1.6761126879
 31
0.0
  0
LINE
  5
287
330
1F
100
AcDbEntity
  8
PROFILES_OUTSIDE
100
AcDbLine
 10
61.9774913413
 20
1.4300496958
 30
0.0
 11
61.9908806184
 21
1.6392571497
 31
0.0
  0
LINE
  5
288
330
1F
100
AcDbEntity
  8
PROFILES_OUTSIDE
100
AcDbLine
 10
61.5617433098
 20
1.4300496958
 30
0.0
 11
61.9774913413
 21
1.4300496958
 31
0.0
  0
LINE
  5
289
330
1F
100
AcDbEntity
  8
PROFILES_OUTSIDE
100
AcDbLine
 10
61.5223732311
 20
1.9320181997
 30
0.0
 11
61.5223732311
 21
1.4694197745
 31
0.0
  0
LINE
  5
28A
330
1F
100
AcDbEntity
  8
PROFILES_OUTSIDE
100
AcDbLine
 10
66.8491448846
 20
2.1682386722
 30
0.0
 11
61.7585937035
 21
2.1682386722
 31
0.0
  0
LINE
  5
28B
330
1F
100
AcDbEntity
  8
PROFILES_OUTSIDE
100
AcDbLine
 10
67.3215858295
 20
5.8827777729
 30
0.0
 11
67.3215858295
 21
2.640679617
 31
0.0
  0
LINE
  5
28C
330
1F
100
AcDbEntity
  8
PROFILES_OUTSIDE
100
AcDbLine
 10
67.8215858295
 20
9.2431812336
 30
0.0
 11
67.8215858295
 21
6.7488031767
 31
0.0
  0
LINE
  5
28D
330
1F
100
AcDbEntity
  8
PROFILES_OUTSIDE
100
AcDbLine
 10
67.3215858295
 20
13.3513047933
 30
0.0
 11
67.3215858295
 21
10.1092066374
 31
0.0
  0
LINE
  5
28E
330
1F
100
AcDbEntity
  8
PROFILES_OUTSIDE
100
AcDbLine
 10
61.7585937035
 20
13.8237457381
 30
0.0
 11
66.8491448846
 21
13.8237457381
 31
0.0
  0
LINE
  5
28F
330
1F
100
AcDbEntity
  8
PROFILES_OUTSIDE
100
AcDbLine
 10
61.5223732311
 20
14.5225646358
 30
0.0
 11
61.5223732311
 21
14.0599662106
 31
0.0
  0
LINE
  5
290
330
1F
100
AcDbEntity
  8
POCKETS
100
AcDbLine
 10
14.5137118138
 20
5.3104409558
 30
0.0
 11
14.5137118138
 21
12.9809450737
 31
0.0
  0
LINE
  5
291
330
1F
100
AcDbEntity
  8
PROFILES_OUTSIDE
100
AcDbLine
 10
75.2404834673
 20
16.2934307775
 30
0.0
 11
75.6562314988
 21
16.2934307775
 31
0.0
  0
LINE
  5
292
330
1F
100
AcDbEntity
  8
PROFILES_OUTSIDE
100
AcDbLine
 10
75.2270941903
 20
16.5026382314
 30
0.0
 11
75.2404834673
 21
16.2934307775
 31
0.0
  0
LINE
  5
293
330
1F
100
AcDbEntity
  8
PROFILES_OUTSIDE
100
AcDbLine
 10
74.8476597816
 20
16.5394937696
 30
0.0
 11
75.1878044946
 21
16.5394937696
 31
0.0
  0
LINE
  5
294
330
1F
100
AcDbEntity
  8
PROFILES_OUTSIDE
100
AcDbLine
 10
74.711349609
 20
16.0472890452
 30
0.0
 11
74.711349609
 21
16.1269669334
 31
0.0
  0
LINE
  5
295
330
1F
100
AcDbEntity
  8
PROFILES_OUTSIDE
100
AcDbLine
 10
69.868829924
 20
16.0472890452
 30
0.0
 11
74.711349609
 21
16.0472890452
 31
0.0
  0
LINE
  5
296
330
1F
100
AcDbEntity
  8
PROFILES_OUTSIDE
100
AcDbLine
 10
69.3963889791
 20
20.2737179097
 30
0.0
 11
69.3963889791
 21
16.5197299901
 31
0.0
  0
LINE
  5
297
330
1F
100
AcDbEntity
  8
PROFILES_OUTSIDE
100
AcDbLine
 10
68.2940267744
 20
20.7461588546
 30
0.0
 11
68.9239480342
 21
20.7461588546
 31
0.0
  0
LINE
  5
298
330
1F
100
AcDbEntity
  8
PROFILES_OUTSIDE
100
AcDbLine
 10
67.8215858295
 20
16.5197299901
 30
0.0
 11
67.8215858295
 21
20.2737179097
 31
0.0
  0
LINE
  5
299
330
1F
100
AcDbEntity
  8
PROFILES_OUTSIDE
100
AcDbLine
 10
62.5066251996
 20
16.0472890452
 30
0.0
 11
67.3491448846
 21
16.0472890452
 31
0.0
  0
LINE
  5
29A
330
1F
100
AcDbEntity
  8
PROFILES_OUTSIDE
100
AcDbLine
 10
62.5066251996
 20
16.1269669334
 30
0.0
 11
62.5066251996
 21
16.0472890452
 31
0.0
  0
LINE
  5
29B
330
1F
100
AcDbEntity
  8
PROFILES_OUTSIDE
100
AcDbLine
 10
62.030170314
 20
16.5394937696
 30
0.0
 11
62.370315027
 21
16.5394937696
 31
0.0
  0
LINE
  5
29C
330
1F
100
AcDbEntity
  8
PROFILES_OUTSIDE
100
AcDbLine
 10
61.9774913413
 20
16.2934307775
 30
0.0
 11
61.9908806184
 21
16.5026382314
 31
0.0
  0
LINE
  5
29D
330
1F
100
AcDbEntity
  8
PROFILES_OUTSIDE
100
AcDbLine
 10
61.5617433098
 20
16.2934307775
 30
0.0
 11
61.9774913413
 21
16.2934307775
 31
0.0
  0
LINE
  5
29E
330
1F
100
AcDbEntity
  8
PROFILES_OUTSIDE
100
AcDbLine
 10
61.5223732311
 20
16.7953992814
 30
0.0
 11
61.5223732311
 21
16.3328008562
 31
0.0
  0
LINE
  5
29F
330
1F
100
AcDbEntity
  8
PROFILES_OUTSIDE
100
AcDbLine
 10
66.8491448846
 20
17.0316197539
 30
0.0
 11
61.7585937035
 21
17.0316197539
 31
0.0
  0
LINE
  5
2A0
330
1F
100
AcDbEntity
  8
PROFILES_OUTSIDE
100
AcDbLine
 10
67.3215858295
 20
20.7461588546
 30
0.0
 11
67.3215858295
 21
17.5040606988
 31
0.0
  0
LINE
  5
2A1
330
1F
100
AcDbEntity
  8
PROFILES_OUTSIDE
100
AcDbLine
 10
67.8215858295
 20
24.1065623153
 30
0.0
 11
67.8215858295
 21
21.6121842584
 31
0.0
  0
LINE
  5
2A2
330
1F
100
AcDbEntity
  8
PROFILES_OUTSIDE
100
AcDbLine
 10
67.3215858295
 20
28.214685875
 30
0.0
 11
67.3215858295
 21
24.9725877191
 31
0.0
  0
LINE
  5
2A3
330
1F
100
AcDbEntity
  8
PROFILES_OUTSIDE
100
AcDbLine
 10
61.7585937035
 20
28.6871268199
 30
0.0
 11
66.8491448846
 21
28.6871268199
 31
0.0
  0
LINE
  5
2A4
330
1F
100
AcDbEntity
  8
PROFILES_OUTSIDE
100
AcDbLine
 10
61.5223732311
 20
29.3859457175
 30
0.0
 11
61.5223732311
 21
28.9233472923
 31
0.0
  0
LINE
  5
2A5
330
1F
100
AcDbEntity
  8
PROFILES_OUTSIDE
100
AcDbLine
 10
61.9774913413
 20
29.4253157962
 30
0.0
 11
61.5617433098
 21
29.4253157962
 31
0.0
  0
LINE
  5
2A6
330
1F
100
AcDbEntity
  8
PROFILES_OUTSIDE
100
AcDbLine
 10
61.9908806184
 20
29.2161083423
 30
0.0
 11
61.9774913413
 21
29.4253157962
 31
0.0
  0
LINE
  5
2A7
330
1F
100
AcDbEntity
  8
PROFILES_OUTSIDE
100
AcDbLine
 10
62.370315027
 20
29.1792528041
 30
0.0
 11
62.030170314
 21
29.1792528041
 31
0.0
  0
LINE
  5
2A8
330
1F
100
AcDbEntity
  8
PROFILES_OUTSIDE
100
AcDbLine
 10
62.5066251996
 20
29.6714575285
 30
0.0
 11
62.5066251996
 21
29.5917796403
 31
0.0
  0
LINE
  5
2A9
330
1F
100
AcDbEntity
  8
PROFILES_OUTSIDE
100
AcDbLine
 10
67.3491448846
 20
29.6714575285
 30
0.0
 11
62.5066251996
 21
29.6714575285
 31
0.0
  0
LINE
  5
2AA
330
1F
100
AcDbEntity
  8
PROFILES_OUTSIDE
100
AcDbLine
 10
67.8215858295
 20
25.445028664
 30
0.0
 11
67.8215858295
 21
29.1990165836
 31
0.0
  0
LINE
  5
2AB
330
1F
100
AcDbEntity
  8
PROFILES_OUTSIDE
100
AcDbLine
 10
68.9239480342
 20
24.9725877191
 30
0.0
 11
68.2940267744
 21
24.9725877191
 31
0.0
  0
LINE
  5
2AC
330
1F
100
AcDbEntity
  8
PROFILES_OUTSIDE
100
AcDbLine
 10
69.3963889791
 20
29.1990165836
 30
0.0
 11
69.3963889791
 21
25.445028664
 31
0.0
  0
LINE
  5
2AD
330
1F
100
AcDbEntity
  8
PROFILES_OUTSIDE
100
AcDbLine
 10
74.711349609
 20
29.6714575285
 30
0.0
 11
69.868829924
 21
29.6714575285
 31
0.0
  0
LINE
  5
2AE
330
1F
100
AcDbEntity
  8
PROFILES_OUTSIDE
100
AcDbLine
 10
74.711349609
 20
29.5917796403
 30
0.0
 11
74.711349609
 21
29.6714575285
 31
0.0
  0
LINE
  5
2AF
330
1F
100
AcDbEntity
  8
PROFILES_OUTSIDE
100
AcDbLine
 10
75.1878044946
 20
29.1792528041
 30
0.0
 11
74.8476597816
 21
29.1792528041
 31
0.0
  0
LINE
  5
2B0
330
1F
100
AcDbEntity
  8
PROFILES_OUTSIDE
100
AcDbLine
 10
75.2404834673
 20
29.4253157962
 30
0.0
 11
75.2270941903
 21
29.2161083423
 31
0.0
  0
LINE
  5
2B1
330
1F
100
AcDbEntity
  8
PROFILES_OUTSIDE
100
AcDbLine
 10
75.6562314988
 20
29.4253157962
 30
0.0
 11
75.2404834673
 21
29.4253157962
 31
0.0
  0
LINE
  5
2B2
330
1F
100
AcDbEntity
  8
PROFILES_OUTSIDE
100
AcDbLine
 10
75.6956015775
 20
28.9233472923
 30
0.0
 11
75.6956015775
 21
29.3859457175
 31
0.0
  0
LINE
  5
2B3
330
1F
100
AcDbEntity
  8
PROFILES_OUTSIDE
100
AcDbLine
 10
70.368829924
 20
28.6871268199
 30
0.0
 11
75.4593811051
 21
28.6871268199
 31
0.0
  0
LINE
  5
2B4
330
1F
100
AcDbEntity
  8
PROFILES_OUTSIDE
100
AcDbLine
 10
69.8963889791
 20
24.9725877191
 30
0.0
 11
69.8963889791
 21
28.214685875
 31
0.0
  0
LINE
  5
2B5
330
1F
100
AcDbEntity
  8
PROFILES_OUTSIDE
100
AcDbLine
 10
69.3963889791
 20
21.6121842584
 30
0.0
 11
69.3963889791
 21
24.1065623153
 31
0.0
  0
LINE
  5
2B6
330
1F
100
AcDbEntity
  8
PROFILES_OUTSIDE
100
AcDbLine
 10
69.8963889791
 20
17.5040606988
 30
0.0
 11
69.8963889791
 21
20.7461588546
 31
0.0
  0
LINE
  5
2B7
330
1F
100
AcDbEntity
  8
PROFILES_OUTSIDE
100
AcDbLine
 10
75.4593811051
 20
17.0316197539
 30
0.0
 11
70.368829924
 21
17.0316197539
 31
0.0
  0
LINE
  5
2B8
330
1F
100
AcDbEntity
  8
PROFILES_OUTSIDE
100
AcDbLine
 10
75.6956015775
 20
16.3328008562
 30
0.0
 11
75.6956015775
 21
16.7953992814
 31
0.0
  0
LINE
  5
2B9
330
1F
100
AcDbEntity
  8
POCKETS
100
AcDbLine
 10
16.0993730049
 20
5.5900358061
 30
0.0
 11
14.5137118138
 21
5.3104409558
 31
0.0
  0
LINE
  5
2BA
330
1F
100
AcDbEntity
  8
POCKETS
100
AcDbLine
 10
30.8200110264
 20
12.9809450737
 30
0.0
 11
32.4056722175
 21
12.7013502234
 31
0.0
  0
LINE
  5
2BB
330
1F
100
AcDbEntity
  8
POCKETS
100
AcDbLine
 10
32.4056722175
 20
12.7013502234
 30
0.0
 11
32.7933918053
 21
12.6329847991
 31
0.0
  0
LINE
  5
2BC
330
1F
100
AcDbEntity
  8
POCKETS
100
AcDbLine
 10
32.7933918053
 20
12.6329847991
 30
0.0
 11
32.884864743
 21
13.1517536076
 31
0.0
  0
LINE
  5
2BD
330
1F
100
AcDbEntity
  8
POCKETS
100
AcDbLine
 10
32.884864743
 20
13.1517536076
 30
0.0
 11
32.4971451552
 21
13.2201190319
 31
0.0
  0
LINE
  5
2BE
330
1F
100
AcDbEntity
  8
POCKETS
100
AcDbLine
 10
32.4971451552
 20
13.2201190319
 30
0.0
 11
17.4038510894
 21
15.8814740034
 31
0.0
  0
LINE
  5
2BF
330
1F
100
AcDbEntity
  8
POCKETS
100
AcDbLine
 10
17.4038510894
 20
15.8814740034
 30
0.0
 11
17.0161315016
 21
15.9498394277
 31
0.0
  0
LINE
  5
2C0
330
1F
100
AcDbEntity
  8
POCKETS
100
AcDbLine
 10
17.0161315016
 20
15.9498394277
 30
0.0
 11
16.9246585639
 21
15.4310706192
 31
0.0
  0
LINE
  5
2C1
330
1F
100
AcDbEntity
  8
POCKETS
100
AcDbLine
 10
16.9246585639
 20
15.4310706192
 30
0.0
 11
17.3123781517
 21
15.362705195
 31
0.0
  0
LINE
  5
2C2
330
1F
100
AcDbEntity
  8
POCKETS
100
AcDbLine
 10
17.3123781517
 20
15.362705195
 30
0.0
 11
30.3066251996
 21
13.0714688464
 31
0.0
  0
LINE
  5
2C3
330
1F
100
AcDbEntity
  8
POCKETS
100
AcDbLine
 10
30.3066251996
 20
13.0714688464
 30
0.0
 11
30.3066251996
 21
5.219917183
 31
0.0
  0
LINE
  5
2C4
330
1F
100
AcDbEntity
  8
POCKETS
100
AcDbLine
 10
30.3066251996
 20
5.219917183
 30
0.0
 11
17.3123781517
 21
2.9286808345
 31
0.0
  0
LINE
  5
2C5
330
1F
100
AcDbEntity
  8
POCKETS
100
AcDbLine
 10
17.3123781517
 20
2.9286808345
 30
0.0
 11
16.9246585639
 21
2.8603154102
 31
0.0
  0
LINE
  5
2C6
330
1F
100
AcDbEntity
  8
POCKETS
100
AcDbLine
 10
16.9246585639
 20
2.8603154102
 30
0.0
 11
17.0161315016
 21
2.3415466017
 31
0.0
  0
LINE
  5
2C7
330
1F
100
AcDbEntity
  8
POCKETS
100
AcDbLine
 10
17.0161315016
 20
2.3415466017
 30
0.0
 11
17.4038510894
 21
2.409912026
 31
0.0
  0
LINE
  5
2C8
330
1F
100
AcDbEntity
  8
POCKETS
100
AcDbLine
 10
17.4038510894
 20
2.409912026
 30
0.0
 11
32.4971451552
 21
5.0712669976
 31
0.0
  0
LINE
  5
2C9
330
1F
100
AcDbEntity
  8
POCKETS
100
AcDbLine
 10
32.4971451552
 20
5.0712669976
 30
0.0
 11
32.884864743
 21
5.1396324219
 31
0.0
  0
LINE
  5
2CA
330
1F
100
AcDbEntity
  8
POCKETS
100
AcDbLine
 10
32.884864743
 20
5.1396324219
 30
0.0
 11
32.7933918053
 21
5.6584012303
 31
0.0
  0
LINE
  5
2CB
330
1F
100
AcDbEntity
  8
POCKETS
100
AcDbLine
 10
32.7933918053
 20
5.6584012303
 30
0.0
 11
32.4056722175
 21
5.5900358061
 31
0.0
  0
LINE
  5
2CC
330
1F
100
AcDbEntity
  8
POCKETS
100
AcDbLine
 10
32.4056722175
 20
5.5900358061
 30
0.0
 11
30.8200110264
 21
5.3104409558
 31
0.0
  0
LINE
  5
2CD
330
1F
100
AcDbEntity
  8
POCKETS
100
AcDbLine
 10
30.8200110264
 20
5.3104409558
 30
0.0
 11
30.8200110264
 21
12.9809450737
 31
0.0
  0
LINE
  5
2CE
330
1F
100
AcDbEntity
  8
PROFILES_OUTSIDE
100
AcDbLine
 10
32.394814176
 20
4.1576534301
 30
0.0
 11
32.394814176
 21
6.9108347067
 31
0.0
  0
LINE
  5
2CF
330
1F
100
AcDbEntity
  8
PROFILES_OUTSIDE
100
AcDbLine
 10
17.6051247691
 20
1.3516196401
 30
0.0
 11
32.1996129581
 21
3.9250216774
 31
0.0
  0
ARC
  5
2D0
330
1F
100
AcDbEntity
  8
PROFILES_OUTSIDE
100
AcDbCircle
 10
15.8522944909
 20
6.9108347067
 30
0.0
 40
0.2362204724409445
100
AcDbArc
 50
0.0
 51
80.0
  0
ARC
  5
2D1
330
1F
100
AcDbEntity
  8
PROFILES_OUTSIDE
100
AcDbCircle
 10
15.537333861
 20
7.4460998716
 30
0.0
 40
0.2362204724409445
100
AcDbArc
 50
180.0
 51
260.0
  0
ARC
  5
2D2
330
1F
100
AcDbEntity
  8
PROFILES_OUTSIDE
100
AcDbCircle
 10
15.537333861
 20
10.8452861579
 30
0.0
 40
0.2362204724409449
100
AcDbArc
 50
100.0
 51
180.0
  0
ARC
  5
2D3
330
1F
100
AcDbEntity
  8
PROFILES_OUTSIDE
100
AcDbCircle
 10
15.8522944909
 20
11.3805513228
 30
0.0
 40
0.2362204724409467
100
AcDbArc
 50
280.0
 51
0.0
  0
ARC
  5
2D4
330
1F
100
AcDbEntity
  8
PROFILES_INSIDE
100
AcDbCircle
 10
15.8247354358
 20
4.208762421
 30
0.0
 40
0.2362204724409462
100
AcDbArc
 50
280.0
 51
0.0
  0
ARC
  5
2D5
330
1F
100
AcDbEntity
  8
PROFILES_OUTSIDE
100
AcDbCircle
 10
75.6562314988
 20
14.5225646358
 30
0.0
 40
0.0393700787401627
100
AcDbArc
 50
0.0
 51
90.0
  0
ARC
  5
2D6
330
1F
100
AcDbEntity
  8
PROFILES_INSIDE
100
AcDbCircle
 10
14.7041417443
 20
14.0231597302
 30
0.0
 40
0.0393700787401579
100
AcDbArc
 50
260.0000472348
 51
332.3995430525
  0
ARC
  5
2D7
330
1F
100
AcDbEntity
  8
PROFILES_INSIDE
100
AcDbCircle
 10
14.9194115588
 20
13.9106172049
 30
0.0
 40
0.2035433070866174
100
AcDbArc
 50
325.1121889858
 51
152.3995430525
  0
ARC
  5
2D8
330
1F
100
AcDbEntity
  8
PROFILES_INSIDE
100
AcDbCircle
 10
15.1186680915
 20
13.7716769316
 30
0.0
 40
0.0393714215238461
100
AcDbArc
 50
145.1121889858
 51
170.0
  0
ARC
  5
2D9
330
1F
100
AcDbEntity
  8
PROFILES_INSIDE
100
AcDbCircle
 10
15.0768583334
 20
13.5345697436
 30
0.0
 40
0.0393700787401579
100
AcDbArc
 50
170.0
 51
194.8879031485
  0
ARC
  5
2DA
330
1F
100
AcDbEntity
  8
PROFILES_INSIDE
100
AcDbCircle
 10
14.8420994659
 20
13.4721583094
 30
0.0
 40
0.2035433070866173
100
AcDbArc
 50
187.6004766242
 51
14.8879031485
  0
ARC
  5
2DB
330
1F
100
AcDbEntity
  8
PROFILES_INSIDE
100
AcDbCircle
 10
14.6013202101
 20
13.4400294589
 30
0.0
 40
0.0393700787401579
100
AcDbArc
 50
7.6004766242
 51
80.0000472348
  0
ARC
  5
2DC
330
1F
100
AcDbEntity
  8
PROFILES_INSIDE
100
AcDbCircle
 10
14.4445404711
 20
13.4676738237
 30
0.0
 40
0.0393700787401568
100
AcDbArc
 50
80.0000472348
 51
152.3995430525
  0
ARC
  5
2DD
330
1F
100
AcDbEntity
  8
PROFILES_INSIDE
100
AcDbCircle
 10
14.2292706567
 20
13.580216349
 30
0.0
 40
0.2035433070866149
100
AcDbArc
 50
145.1121190957
 51
332.3995430525
  0
ARC
  5
2DE
330
1F
100
AcDbEntity
  8
PROFILES_INSIDE
100
AcDbCircle
 10
14.0300153949
 20
13.7191560973
 30
0.0
 40
0.0393700787401596
100
AcDbArc
 50
325.1121190957
 51
350.0
  0
ARC
  5
2DF
330
1F
100
AcDbEntity
  8
PROFILES_INSIDE
100
AcDbCircle
 10
14.0718239335
 20
13.9562641021
 30
0.0
 40
0.0393700264954957
100
AcDbArc
 50
350.0
 51
14.8878397487
  0
ARC
  5
2E0
330
1F
100
AcDbEntity
  8
PROFILES_INSIDE
100
AcDbCircle
 10
14.3065827496
 20
14.0186752445
 30
0.0
 40
0.2035432572735711
100
AcDbArc
 50
7.6004766242
 51
194.8878397487
  0
ARC
  5
2E1
330
1F
100
AcDbEntity
  8
PROFILES_INSIDE
100
AcDbCircle
 10
14.5473620053
 20
14.050804095
 30
0.0
 40
0.0393701285531997
100
AcDbArc
 50
187.6004766242
 51
260.0000472348
  0
ARC
  5
2E2
330
1F
100
AcDbEntity
  8
PROFILES_INSIDE
100
AcDbCircle
 10
3.6402343676
 20
15.7956344934
 30
0.0
 40
0.0393714215238465
100
AcDbArc
 50
145.1121889858
 51
170.0
  0
ARC
  5
2E3
330
1F
100
AcDbEntity
  8
PROFILES_INSIDE
100
AcDbCircle
 10
3.4409778349
 20
15.9345747667
 30
0.0
 40
0.2035433070866151
100
AcDbArc
 50
325.1121889858
 51
152.3995430525
  0
ARC
  5
2E4
330
1F
100
AcDbEntity
  8
PROFILES_INSIDE
100
AcDbCircle
 10
3.2257080205
 20
16.047117292
 30
0.0
 40
0.0393700787401587
100
AcDbArc
 50
260.0000472348
 51
332.3995430525
  0
ARC
  5
2E5
330
1F
100
AcDbEntity
  8
PROFILES_INSIDE
100
AcDbCircle
 10
3.0689282814
 20
16.0747616568
 30
0.0
 40
0.0393701059109093
100
AcDbArc
 50
187.6004766242
 51
260.0000472348
  0
ARC
  5
2E6
330
1F
100
AcDbEntity
  8
PROFILES_INSIDE
100
AcDbCircle
 10
2.8281490257
 20
16.0426328063
 30
0.0
 40
0.2035432799158655
100
AcDbArc
 50
7.6004766242
 51
194.8878397487
  0
ARC
  5
2E7
330
1F
100
AcDbEntity
  8
PROFILES_INSIDE
100
AcDbCircle
 10
2.5933902096
 20
15.9802216639
 30
0.0
 40
0.0393700219670388
100
AcDbArc
 50
350.0
 51
14.8878397487
  0
ARC
  5
2E8
330
1F
100
AcDbEntity
  8
PROFILES_INSIDE
100
AcDbCircle
 10
2.551581671
 20
15.7431136591
 30
0.0
 40
0.0393700787401586
100
AcDbArc
 50
325.1121190957
 51
350.0
  0
ARC
  5
2E9
330
1F
100
AcDbEntity
  8
PROFILES_INSIDE
100
AcDbCircle
 10
2.7508369328
 20
15.6041739108
 30
0.0
 40
0.2035433070866137
100
AcDbArc
 50
145.1121190957
 51
332.3995430525
  0
ARC
  5
2EA
330
1F
100
AcDbEntity
  8
PROFILES_INSIDE
100
AcDbCircle
 10
2.9661067472
 20
15.4916313855
 30
0.0
 40
0.0393700787401602
100
AcDbArc
 50
80.0000472348
 51
152.3995430525
  0
ARC
  5
2EB
330
1F
100
AcDbEntity
  8
PROFILES_INSIDE
100
AcDbCircle
 10
3.1228864863
 20
15.4639870207
 30
0.0
 40
0.0393700787401603
100
AcDbArc
 50
7.6004766242
 51
80.0000472348
  0
ARC
  5
2EC
330
1F
100
AcDbEntity
  8
PROFILES_INSIDE
100
AcDbCircle
 10
3.363665742
 20
15.4961158712
 30
0.0
 40
0.2035433070866173
100
AcDbArc
 50
187.6004766242
 51
14.8879031485
  0
ARC
  5
2ED
330
1F
100
AcDbEntity
  8
PROFILES_INSIDE
100
AcDbCircle
 10
3.5984246095
 20
15.5585273054
 30
0.0
 40
0.0393700787401587
100
AcDbArc
 50
170.0
 51
194.8879031485
  0
ARC
  5
2EE
330
1F
100
AcDbEntity
  8
PROFILES_INSIDE
100
AcDbCircle
 10
14.9194115612
 20
4.380769039
 30
0.0
 40
0.2035433070866144
100
AcDbArc
 50
207.6004766242
 51
34.8879031485
  0
ARC
  5
2EF
330
1F
100
AcDbEntity
  8
PROFILES_INSIDE
100
AcDbCircle
 10
15.1186667691
 20
4.5197088647
 30
0.0
 40
0.0393700787401568
100
AcDbArc
 50
190.0
 51
214.8879031485
  0
ARC
  5
2F0
330
1F
100
AcDbEntity
  8
PROFILES_INSIDE
100
AcDbCircle
 10
15.0768596558
 20
4.756816519
 30
0.0
 40
0.0393714215238458
100
AcDbArc
 50
165.1121889858
 51
190.0
  0
ARC
  5
2F1
330
1F
100
AcDbEntity
  8
PROFILES_INSIDE
100
AcDbCircle
 10
14.8420993902
 20
4.8192279207
 30
0.0
 40
0.2035433070866148
100
AcDbArc
 50
345.1121889858
 51
172.3995430525
  0
ARC
  5
2F2
330
1F
100
AcDbEntity
  8
PROFILES_INSIDE
100
AcDbCircle
 10
14.6013201234
 20
4.8513566885
 30
0.0
 40
0.0393700787401578
100
AcDbArc
 50
280.0000472348
 51
352.3995430525
  0
ARC
  5
2F3
330
1F
100
AcDbEntity
  8
PROFILES_INSIDE
100
AcDbCircle
 10
14.44454043
 20
4.8237120653
 30
0.0
 40
0.0393701013824539
100
AcDbArc
 50
207.6004766242
 51
280.0000472348
  0
ARC
  5
2F4
330
1F
100
AcDbEntity
  8
PROFILES_INSIDE
100
AcDbCircle
 10
14.2292706542
 20
4.711169466
 30
0.0
 40
0.2035432844443179
100
AcDbArc
 50
27.6004766242
 51
214.8878397487
  0
ARC
  5
2F5
330
1F
100
AcDbEntity
  8
PROFILES_INSIDE
100
AcDbCircle
 10
14.0300153949
 20
4.5722299321
 30
0.0
 40
0.0393700174385804
100
AcDbArc
 50
10.0
 51
34.8878397487
  0
ARC
  5
2F6
330
1F
100
AcDbEntity
  8
PROFILES_INSIDE
100
AcDbCircle
 10
14.0718239335
 20
4.3351219273
 30
0.0
 40
0.0393700787401603
100
AcDbArc
 50
345.1121190957
 51
10.0
  0
ARC
  5
2F7
330
1F
100
AcDbEntity
  8
PROFILES_INSIDE
100
AcDbCircle
 10
14.3065828253
 20
4.2727105843
 30
0.0
 40
0.203543307086615
100
AcDbArc
 50
165.1121190957
 51
352.3995430525
  0
ARC
  5
2F8
330
1F
100
AcDbEntity
  8
PROFILES_INSIDE
100
AcDbCircle
 10
14.547362092
 20
4.2405818165
 30
0.0
 40
0.0393700787401578
100
AcDbArc
 50
100.0000472348
 51
172.3995430525
  0
ARC
  5
2F9
330
1F
100
AcDbEntity
  8
PROFILES_INSIDE
100
AcDbCircle
 10
14.7041417855
 20
4.2682264397
 30
0.0
 40
0.0393700787401607
100
AcDbArc
 50
27.6004766242
 51
100.0000472348
  0
ARC
  5
2FA
330
1F
100
AcDbEntity
  8
PROFILES_INSIDE
100
AcDbCircle
 10
2.5933902096
 20
2.3111643655
 30
0.0
 40
0.039370078740159
100
AcDbArc
 50
345.1121190957
 51
10.0
  0
ARC
  5
2FB
330
1F
100
AcDbEntity
  8
PROFILES_INSIDE
100
AcDbCircle
 10
2.8281491014
 20
2.2487530225
 30
0.0
 40
0.2035433070866157
100
AcDbArc
 50
165.1121190957
 51
352.3995430525
  0
ARC
  5
2FC
330
1F
100
AcDbEntity
  8
PROFILES_INSIDE
100
AcDbCircle
 10
3.0689283681
 20
2.2166242547
 30
0.0
 40
0.0393700787401596
100
AcDbArc
 50
100.0000472348
 51
172.3995430525
  0
ARC
  5
2FD
330
1F
100
AcDbEntity
  8
PROFILES_INSIDE
100
AcDbCircle
 10
3.2257080616
 20
2.2442688779
 30
0.0
 40
0.0393700787401589
100
AcDbArc
 50
27.6004766242
 51
100.0000472348
  0
ARC
  5
2FE
330
1F
100
AcDbEntity
  8
PROFILES_INSIDE
100
AcDbCircle
 10
3.4409778374
 20
2.3568114772
 30
0.0
 40
0.203543307086613
100
AcDbArc
 50
207.6004766242
 51
34.8879031485
  0
ARC
  5
2FF
330
1F
100
AcDbEntity
  8
PROFILES_INSIDE
100
AcDbCircle
 10
3.6402330452
 20
2.4957513029
 30
0.0
 40
0.0393700787401605
100
AcDbArc
 50
190.0
 51
214.8879031485
  0
ARC
  5
300
330
1F
100
AcDbEntity
  8
PROFILES_INSIDE
100
AcDbCircle
 10
3.5984259319
 20
2.7328589572
 30
0.0
 40
0.0393714215238501
100
AcDbArc
 50
165.1121889858
 51
190.0
  0
ARC
  5
301
330
1F
100
AcDbEntity
  8
PROFILES_INSIDE
100
AcDbCircle
 10
3.3636656663
 20
2.7952703589
 30
0.0
 40
0.2035433070866152
100
AcDbArc
 50
345.1121889858
 51
172.3995430525
  0
ARC
  5
302
330
1F
100
AcDbEntity
  8
PROFILES_INSIDE
100
AcDbCircle
 10
3.1228863996
 20
2.8273991267
 30
0.0
 40
0.0393700787401565
100
AcDbArc
 50
280.0000472348
 51
352.3995430525
  0
ARC
  5
303
330
1F
100
AcDbEntity
  8
PROFILES_INSIDE
100
AcDbCircle
 10
2.9661067061
 20
2.7997545035
 30
0.0
 40
0.0393700832686157
100
AcDbArc
 50
207.6004766242
 51
280.0000472348
  0
ARC
  5
304
330
1F
100
AcDbEntity
  8
PROFILES_INSIDE
100
AcDbCircle
 10
2.7508369303
 20
2.6872119042
 30
0.0
 40
0.2035433025581556
100
AcDbArc
 50
27.6004766242
 51
214.8878397487
  0
ARC
  5
305
330
1F
100
AcDbEntity
  8
PROFILES_INSIDE
100
AcDbCircle
 10
2.551581671
 20
2.5482723703
 30
0.0
 40
0.0393700264954972
100
AcDbArc
 50
10.0
 51
34.8878397487
  0
ARC
  5
306
330
1F
100
AcDbEntity
  8
PROFILES_INSIDE
100
AcDbCircle
 10
31.0104409569
 20
14.0231597302
 30
0.0
 40
0.0393700787401554
100
AcDbArc
 50
260.0000472348
 51
332.3995430525
  0
ARC
  5
307
330
1F
100
AcDbEntity
  8
PROFILES_INSIDE
100
AcDbCircle
 10
31.2257107713
 20
13.9106172049
 30
0.0
 40
0.2035433070866142
100
AcDbArc
 50
325.1121889858
 51
152.3995430525
  0
ARC
  5
308
330
1F
100
AcDbEntity
  8
PROFILES_INSIDE
100
AcDbCircle
 10
31.4249673041
 20
13.7716769316
 30
0.0
 40
0.0393714215238461
100
AcDbArc
 50
145.1121889858
 51
170.0
  0
ARC
  5
309
330
1F
100
AcDbEntity
  8
PROFILES_INSIDE
100
AcDbCircle
 10
31.383157546
 20
13.5345697436
 30
0.0
 40
0.0393700787401558
100
AcDbArc
 50
170.0
 51
194.8879031485
  0
ARC
  5
30A
330
1F
100
AcDbEntity
  8
PROFILES_INSIDE
100
AcDbCircle
 10
31.1483986785
 20
13.4721583094
 30
0.0
 40
0.2035433070866143
100
AcDbArc
 50
187.6004766242
 51
14.8879031485
  0
ARC
  5
30B
330
1F
100
AcDbEntity
  8
PROFILES_INSIDE
100
AcDbCircle
 10
30.9076194227
 20
13.4400294589
 30
0.0
 40
0.0393700787401579
100
AcDbArc
 50
7.6004766242
 51
80.0000472348
  0
ARC
  5
30C
330
1F
100
AcDbEntity
  8
PROFILES_INSIDE
100
AcDbCircle
 10
30.7508396837
 20
13.4676738237
 30
0.0
 40
0.0393700787401561
100
AcDbArc
 50
80.0000472348
 51
152.3995430525
  0
ARC
  5
30D
330
1F
100
AcDbEntity
  8
PROFILES_INSIDE
100
AcDbCircle
 10
30.5355698693
 20
13.580216349
 30
0.0
 40
0.2035433070866192
100
AcDbArc
 50
145.1121190957
 51
332.3995430525
  0
ARC
  5
30E
330
1F
100
AcDbEntity
  8
PROFILES_INSIDE
100
AcDbCircle
 10
30.3363146075
 20
13.7191560973
 30
0.0
 40
0.0393700787401532
100
AcDbArc
 50
325.1121190957
 51
350.0
  0
ARC
  5
30F
330
1F
100
AcDbEntity
  8
PROFILES_INSIDE
100
AcDbCircle
 10
30.3781231461
 20
13.9562641021
 30
0.0
 40
0.039370026495496
100
AcDbArc
 50
350.0
 51
14.8878397487
  0
ARC
  5
310
330
1F
100
AcDbEntity
  8
PROFILES_INSIDE
100
AcDbCircle
 10
30.6128819622
 20
14.0186752445
 30
0.0
 40
0.2035432572735699
100
AcDbArc
 50
7.6004766242
 51
194.8878397487
  0
ARC
  5
311
330
1F
100
AcDbEntity
  8
PROFILES_INSIDE
100
AcDbCircle
 10
30.8536612179
 20
14.050804095
 30
0.0
 40
0.0393701285532027
100
AcDbArc
 50
187.6004766242
 51
260.0000472348
  0
ARC
  5
312
330
1F
100
AcDbEntity
  8
PROFILES_INSIDE
100
AcDbCircle
 10
19.9521400054
 20
15.7946459293
 30
0.0
 40
0.0393714215238426
100
AcDbArc
 50
145.1121889858
 51
170.0
  0
ARC
  5
313
330
1F
100
AcDbEntity
  8
PROFILES_INSIDE
100
AcDbCircle
 10
19.7528834727
 20
15.9335862026
 30
0.0
 40
0.2035433070866182
100
AcDbArc
 50
325.1121889858
 51
152.3995430525
  0
ARC
  5
314
330
1F
100
AcDbEntity
  8
PROFILES_INSIDE
100
AcDbCircle
 10
19.5376136583
 20
16.046128728
 30
0.0
 40
0.0393700787401608
100
AcDbArc
 50
260.0000472348
 51
332.3995430525
  0
ARC
  5
315
330
1F
100
AcDbEntity
  8
PROFILES_INSIDE
100
AcDbCircle
 10
19.3808339193
 20
16.0737730928
 30
0.0
 40
0.0393701059109085
100
AcDbArc
 50
187.6004766242
 51
260.0000472348
  0
ARC
  5
316
330
1F
100
AcDbEntity
  8
PROFILES_INSIDE
100
AcDbCircle
 10
19.1400546636
 20
16.0416442422
 30
0.0
 40
0.2035432799158641
100
AcDbArc
 50
7.6004766242
 51
194.8878397487
  0
ARC
  5
317
330
1F
100
AcDbEntity
  8
PROFILES_INSIDE
100
AcDbCircle
 10
18.9052958475
 20
15.9792330999
 30
0.0
 40
0.0393700219670335
100
AcDbArc
 50
350.0
 51
14.8878397487
  0
ARC
  5
318
330
1F
100
AcDbEntity
  8
PROFILES_INSIDE
100
AcDbCircle
 10
18.8634873089
 20
15.7421250951
 30
0.0
 40
0.0393700787401564
100
AcDbArc
 50
325.1121190957
 51
350.0
  0
ARC
  5
319
330
1F
100
AcDbEntity
  8
PROFILES_INSIDE
100
AcDbCircle
 10
19.0627425707
 20
15.6031853468
 30
0.0
 40
0.2035433070866163
100
AcDbArc
 50
145.1121190957
 51
332.3995430525
  0
ARC
  5
31A
330
1F
100
AcDbEntity
  8
PROFILES_INSIDE
100
AcDbCircle
 10
19.2780123851
 20
15.4906428214
 30
0.0
 40
0.0393700787401574
100
AcDbArc
 50
80.0000472348
 51
152.3995430525
  0
ARC
  5
31B
330
1F
100
AcDbEntity
  8
PROFILES_INSIDE
100
AcDbCircle
 10
19.4347921241
 20
15.4629984567
 30
0.0
 40
0.0393700787401591
100
AcDbArc
 50
7.6004766242
 51
80.0000472348
  0
ARC
  5
31C
330
1F
100
AcDbEntity
  8
PROFILES_INSIDE
100
AcDbCircle
 10
19.6755713798
 20
15.4951273072
 30
0.0
 40
0.2035433070866173
100
AcDbArc
 50
187.6004766242
 51
14.8879031485
  0
ARC
  5
31D
330
1F
100
AcDbEntity
  8
PROFILES_INSIDE
100
AcDbCircle
 10
19.9103302474
 20
15.5575387414
 30
0.0
 40
0.0393700787401599
100
AcDbArc
 50
170.0
 51
194.8879031485
  0
ARC
  5
31E
330
1F
100
AcDbEntity
  8
PROFILES_INSIDE
100
AcDbCircle
 10
31.2257107738
 20
4.380769039
 30
0.0
 40
0.2035433070866145
100
AcDbArc
 50
207.6004766242
 51
34.8879031485
  0
ARC
  5
31F
330
1F
100
AcDbEntity
  8
PROFILES_INSIDE
100
AcDbCircle
 10
31.4249659817
 20
4.5197088647
 30
0.0
 40
0.0393700787401563
100
AcDbArc
 50
190.0
 51
214.8879031485
  0
ARC
  5
320
330
1F
100
AcDbEntity
  8
PROFILES_INSIDE
100
AcDbCircle
 10
31.3831588684
 20
4.756816519
 30
0.0
 40
0.0393714215238423
100
AcDbArc
 50
165.1121889858
 51
190.0
  0
ARC
  5
321
330
1F
100
AcDbEntity
  8
PROFILES_INSIDE
100
AcDbCircle
 10
31.1483986028
 20
4.8192279207
 30
0.0
 40
0.2035433070866191
100
AcDbArc
 50
345.1121889858
 51
172.3995430525
  0
ARC
  5
322
330
1F
100
AcDbEntity
  8
PROFILES_INSIDE
100
AcDbCircle
 10
30.907619336
 20
4.8513566885
 30
0.0
 40
0.0393700787401596
100
AcDbArc
 50
280.0000472348
 51
352.3995430525
  0
ARC
  5
323
330
1F
100
AcDbEntity
  8
PROFILES_INSIDE
100
AcDbCircle
 10
30.7508396426
 20
4.8237120653
 30
0.0
 40
0.0393701013824479
100
AcDbArc
 50
207.6004766242
 51
280.0000472348
  0
ARC
  5
324
330
1F
100
AcDbEntity
  8
PROFILES_INSIDE
100
AcDbCircle
 10
30.5355698668
 20
4.711169466
 30
0.0
 40
0.203543284444321
100
AcDbArc
 50
27.6004766242
 51
214.8878397487
  0
ARC
  5
325
330
1F
100
AcDbEntity
  8
PROFILES_INSIDE
100
AcDbCircle
 10
30.3363146075
 20
4.5722299321
 30
0.0
 40
0.0393700174385754
100
AcDbArc
 50
10.0
 51
34.8878397487
  0
ARC
  5
326
330
1F
100
AcDbEntity
  8
PROFILES_INSIDE
100
AcDbCircle
 10
30.3781231461
 20
4.3351219273
 30
0.0
 40
0.0393700787401598
100
AcDbArc
 50
345.1121190957
 51
10.0
  0
ARC
  5
327
330
1F
100
AcDbEntity
  8
PROFILES_INSIDE
100
AcDbCircle
 10
30.6128820379
 20
4.2727105843
 30
0.0
 40
0.2035433070866195
100
AcDbArc
 50
165.1121190957
 51
352.3995430525
  0
ARC
  5
328
330
1F
100
AcDbEntity
  8
PROFILES_INSIDE
100
AcDbCircle
 10
30.8536613046
 20
4.2405818165
 30
0.0
 40
0.0393700787401592
100
AcDbArc
 50
100.0000472348
 51
172.3995430525
  0
ARC
  5
329
330
1F
100
AcDbEntity
  8
PROFILES_INSIDE
100
AcDbCircle
 10
31.0104409981
 20
4.2682264397
 30
0.0
 40
0.0393700787401578
100
AcDbArc
 50
27.6004766242
 51
100.0000472348
  0
ARC
  5
32A
330
1F
100
AcDbEntity
  8
PROFILES_INSIDE
100
AcDbCircle
 10
18.9052958475
 20
2.3121529296
 30
0.0
 40
0.0393700787401559
100
AcDbArc
 50
345.1121190957
 51
10.0
  0
ARC
  5
32B
330
1F
100
AcDbEntity
  8
PROFILES_INSIDE
100
AcDbCircle
 10
19.1400547392
 20
2.2497415866
 30
0.0
 40
0.2035433070866194
100
AcDbArc
 50
165.1121190957
 51
352.3995430525
  0
ARC
  5
32C
330
1F
100
AcDbEntity
  8
PROFILES_INSIDE
100
AcDbCircle
 10
19.380834006
 20
2.2176128187
 30
0.0
 40
0.0393700787401561
100
AcDbArc
 50
100.0000472348
 51
172.3995430525
  0
ARC
  5
32D
330
1F
100
AcDbEntity
  8
PROFILES_INSIDE
100
AcDbCircle
 10
19.5376136994
 20
2.245257442
 30
0.0
 40
0.0393700787401582
100
AcDbArc
 50
27.6004766242
 51
100.0000472348
  0
ARC
  5
32E
330
1F
100
AcDbEntity
  8
PROFILES_INSIDE
100
AcDbCircle
 10
19.7528834752
 20
2.3578000413
 30
0.0
 40
0.2035433070866129
100
AcDbArc
 50
207.6004766242
 51
34.8879031485
  0
ARC
  5
32F
330
1F
100
AcDbEntity
  8
PROFILES_INSIDE
100
AcDbCircle
 10
19.9521386831
 20
2.4967398669
 30
0.0
 40
0.0393700787401597
100
AcDbArc
 50
190.0
 51
214.8879031485
  0
ARC
  5
330
330
1F
100
AcDbEntity
  8
PROFILES_INSIDE
100
AcDbCircle
 10
19.9103315698
 20
2.7338475213
 30
0.0
 40
0.0393714215238474
100
AcDbArc
 50
165.1121889858
 51
190.0
  0
ARC
  5
331
330
1F
100
AcDbEntity
  8
PROFILES_INSIDE
100
AcDbCircle
 10
19.6755713041
 20
2.7962589229
 30
0.0
 40
0.203543307086615
100
AcDbArc
 50
345.1121889858
 51
172.3995430525
  0
ARC
  5
332
330
1F
100
AcDbEntity
  8
PROFILES_INSIDE
100
AcDbCircle
 10
19.4347920374
 20
2.8283876908
 30
0.0
 40
0.0393700787401558
100
AcDbArc
 50
280.0000472348
 51
352.3995430525
  0
ARC
  5
333
330
1F
100
AcDbEntity
  8
PROFILES_INSIDE
100
AcDbCircle
 10
19.2780123439
 20
2.8007430675
 30
0.0
 40
0.0393700832686143
100
AcDbArc
 50
207.6004766242
 51
280.0000472348
  0
ARC
  5
334
330
1F
100
AcDbEntity
  8
PROFILES_INSIDE
100
AcDbCircle
 10
19.0627425682
 20
2.6882004682
 30
0.0
 40
0.2035433025581536
100
AcDbArc
 50
27.6004766242
 51
214.8878397487
  0
ARC
  5
335
330
1F
100
AcDbEntity
  8
PROFILES_INSIDE
100
AcDbCircle
 10
18.8634873089
 20
2.5492609343
 30
0.0
 40
0.0393700264954924
100
AcDbArc
 50
10.0
 51
34.8878397487
  0
ARC
  5
336
330
1F
100
AcDbEntity
  8
PROFILES_OUTSIDE
100
AcDbCircle
 10
17.5641055146
 20
16.7071346367
 30
0.0
 40
0.236220472440948
100
AcDbArc
 50
80.0
 51
180.0
  0
ARC
  5
337
330
1F
100
AcDbEntity
  8
PROFILES_OUTSIDE
100
AcDbCircle
 10
32.1585937035
 20
14.1337325994
 30
0.0
 40
0.2362204724409449
100
AcDbArc
 50
0.0
 51
80.0
  0
ARC
  5
338
330
1F
100
AcDbEntity
  8
PROFILES_OUTSIDE
100
AcDbCircle
 10
32.1585937035
 20
11.3805513228
 30
0.0
 40
0.2362204724409467
100
AcDbArc
 50
280.0
 51
0.0
  0
ARC
  5
339
330
1F
100
AcDbEntity
  8
PROFILES_OUTSIDE
100
AcDbCircle
 10
31.8436330736
 20
10.8452861579
 30
0.0
 40
0.2362204724409467
100
AcDbArc
 50
100.0
 51
180.0
  0
ARC
  5
33A
330
1F
100
AcDbEntity
  8
PROFILES_OUTSIDE
100
AcDbCircle
 10
31.8436330736
 20
7.4460998716
 30
0.0
 40
0.2362204724409458
100
AcDbArc
 50
180.0
 51
260.0
  0
ARC
  5
33B
330
1F
100
AcDbEntity
  8
PROFILES_OUTSIDE
100
AcDbCircle
 10
32.1585937035
 20
6.9108347067
 30
0.0
 40
0.2362204724409449
100
AcDbArc
 50
0.0
 51
80.0
  0
ARC
  5
33C
330
1F
100
AcDbEntity
  8
PROFILES_OUTSIDE
100
AcDbCircle
 10
32.1585937035
 20
4.1576534301
 30
0.0
 40
0.2362204724409432
100
AcDbArc
 50
280.0
 51
0.0
  0
ARC
  5
33D
330
1F
100
AcDbEntity
  8
PROFILES_OUTSIDE
100
AcDbCircle
 10
17.5641055146
 20
1.5842513927
 30
0.0
 40
0.2362204724409445
100
AcDbArc
 50
180.0
 51
280.0
  0
ARC
  5
33E
330
1F
100
AcDbEntity
  8
PROFILES_OUTSIDE
100
AcDbCircle
 10
70.368829924
 20
13.3513047933
 30
0.0
 40
0.472440944881896
100
AcDbArc
 50
90.0
 51
180.0
  0
ARC
  5
33F
330
1F
100
AcDbEntity
  8
PROFILES_OUTSIDE
100
AcDbCircle
 10
70.368829924
 20
2.640679617
 30
0.0
 40
0.4724409448818965
100
AcDbArc
 50
180.0
 51
270.0
  0
ARC
  5
340
330
1F
100
AcDbEntity
  8
PROFILES_OUTSIDE
100
AcDbCircle
 10
75.6562314988
 20
1.4694197745
 30
0.0
 40
0.0393700787401627
100
AcDbArc
 50
270.0
 51
0.0
  0
ARC
  5
341
330
1F
100
AcDbEntity
  8
PROFILES_OUTSIDE
100
AcDbCircle
 10
62.030170314
 20
14.3552418011
 30
0.0
 40
0.0393700787401574
100
AcDbArc
 50
183.6619355755
 51
270.0
  0
ARC
  5
342
330
1F
100
AcDbEntity
  8
PROFILES_OUTSIDE
100
AcDbCircle
 10
62.370315027
 20
14.2765016436
 30
0.0
 40
0.0393700787401556
100
AcDbArc
 50
65.1121079736
 51
90.0
  0
ARC
  5
343
330
1F
100
AcDbEntity
  8
PROFILES_OUTSIDE
100
AcDbCircle
 10
62.472543698
 20
14.4968563845
 30
0.0
 40
0.2035433070866172
100
AcDbArc
 50
245.1121079736
 51
72.3995332141
  0
ARC
  5
344
330
1F
100
AcDbEntity
  8
PROFILES_OUTSIDE
100
AcDbCircle
 10
62.5459952783
 20
14.7283985586
 30
0.0
 40
0.0393700787401561
100
AcDbArc
 50
180.0
 51
252.3995332141
  0
ARC
  5
345
330
1F
100
AcDbEntity
  8
PROFILES_OUTSIDE
100
AcDbCircle
 10
67.3491448846
 20
14.3356355019
 30
0.0
 40
0.4724409448818907
100
AcDbArc
 50
0.0
 51
90.0
  0
ARC
  5
346
330
1F
100
AcDbEntity
  8
PROFILES_OUTSIDE
100
AcDbCircle
 10
68.2940267744
 20
10.5816475823
 30
0.0
 40
0.472440944881896
100
AcDbArc
 50
180.0
 51
270.0
  0
ARC
  5
347
330
1F
100
AcDbEntity
  8
PROFILES_OUTSIDE
100
AcDbCircle
 10
68.9239480342
 20
10.5816475823
 30
0.0
 40
0.472440944881896
100
AcDbArc
 50
270.0
 51
0.0
  0
ARC
  5
348
330
1F
100
AcDbEntity
  8
PROFILES_OUTSIDE
100
AcDbCircle
 10
69.868829924
 20
14.3356355019
 30
0.0
 40
0.4724409448818907
100
AcDbArc
 50
90.0
 51
180.0
  0
ARC
  5
349
330
1F
100
AcDbEntity
  8
PROFILES_OUTSIDE
100
AcDbCircle
 10
74.6719795303
 20
14.7283985586
 30
0.0
 40
0.0393700787401627
100
AcDbArc
 50
287.6004667859
 51
0.0
  0
ARC
  5
34A
330
1F
100
AcDbEntity
  8
PROFILES_OUTSIDE
100
AcDbCircle
 10
74.7454311106
 20
14.4968563845
 30
0.0
 40
0.2035433070866173
100
AcDbArc
 50
107.6004667859
 51
294.8878920264
  0
ARC
  5
34B
330
1F
100
AcDbEntity
  8
PROFILES_OUTSIDE
100
AcDbCircle
 10
74.8476597816
 20
14.2765016436
 30
0.0
 40
0.0393700787401574
100
AcDbArc
 50
90.0
 51
114.8878920264
  0
ARC
  5
34C
330
1F
100
AcDbEntity
  8
PROFILES_OUTSIDE
100
AcDbCircle
 10
75.1878044946
 20
14.3552418011
 30
0.0
 40
0.039370078740159
100
AcDbArc
 50
270.0
 51
356.3380644245
  0
ARC
  5
34D
330
1F
100
AcDbEntity
  8
PROFILES_OUTSIDE
100
AcDbCircle
 10
75.4593811051
 20
14.0599662106
 30
0.0
 40
0.236220472440948
100
AcDbArc
 50
270.0
 51
0.0
  0
ARC
  5
34E
330
1F
100
AcDbEntity
  8
PROFILES_OUTSIDE
100
AcDbCircle
 10
61.5617433098
 20
1.4694197745
 30
0.0
 40
0.0393700787401627
100
AcDbArc
 50
180.0
 51
270.0
  0
ARC
  5
34F
330
1F
100
AcDbEntity
  8
PROFILES_OUTSIDE
100
AcDbCircle
 10
69.3963889791
 20
10.1092066374
 30
0.0
 40
0.500000000000001
100
AcDbArc
 50
300.0
 51
0.0
  0
ARC
  5
350
330
1F
100
AcDbEntity
  8
PROFILES_OUTSIDE
100
AcDbCircle
 10
69.8963889791
 20
9.2431812336
 30
0.0
 40
0.4999999999999964
100
AcDbArc
 50
120.0
 51
180.0
  0
ARC
  5
351
330
1F
100
AcDbEntity
  8
PROFILES_OUTSIDE
100
AcDbCircle
 10
69.8963889791
 20
6.7488031767
 30
0.0
 40
0.4999999999999916
100
AcDbArc
 50
180.0
 51
240.0
  0
ARC
  5
352
330
1F
100
AcDbEntity
  8
PROFILES_OUTSIDE
100
AcDbCircle
 10
69.3963889791
 20
5.8827777729
 30
0.0
 40
0.4999999999999987
100
AcDbArc
 50
0.0
 51
60.0
  0
ARC
  5
353
330
1F
100
AcDbEntity
  8
PROFILES_OUTSIDE
100
AcDbCircle
 10
75.4593811051
 20
1.9320181997
 30
0.0
 40
0.236220472440948
100
AcDbArc
 50
0.0
 51
90.0
  0
ARC
  5
354
330
1F
100
AcDbEntity
  8
PROFILES_OUTSIDE
100
AcDbCircle
 10
66.8491448846
 20
2.640679617
 30
0.0
 40
0.4724409448818898
100
AcDbArc
 50
270.0
 51
0.0
  0
ARC
  5
355
330
1F
100
AcDbEntity
  8
PROFILES_OUTSIDE
100
AcDbCircle
 10
75.1878044946
 20
1.6367426092
 30
0.0
 40
0.039370078740159
100
AcDbArc
 50
3.6619355755
 51
90.0
  0
ARC
  5
356
330
1F
100
AcDbEntity
  8
PROFILES_OUTSIDE
100
AcDbCircle
 10
74.8476597816
 20
1.7154827666
 30
0.0
 40
0.0393700787401621
100
AcDbArc
 50
245.1121079736
 51
270.0
  0
ARC
  5
357
330
1F
100
AcDbEntity
  8
PROFILES_OUTSIDE
100
AcDbCircle
 10
74.7454311106
 20
1.4951280257
 30
0.0
 40
0.2035433070866144
100
AcDbArc
 50
65.1121079736
 51
252.3995332141
  0
ARC
  5
358
330
1F
100
AcDbEntity
  8
PROFILES_OUTSIDE
100
AcDbCircle
 10
74.6719795303
 20
1.2635858517
 30
0.0
 40
0.0393700787401627
100
AcDbArc
 50
0.0
 51
72.3995332141
  0
ARC
  5
359
330
1F
100
AcDbEntity
  8
PROFILES_OUTSIDE
100
AcDbCircle
 10
69.868829924
 20
1.6563489084
 30
0.0
 40
0.4724409448818858
100
AcDbArc
 50
180.0
 51
270.0
  0
ARC
  5
35A
330
1F
100
AcDbEntity
  8
PROFILES_OUTSIDE
100
AcDbCircle
 10
68.9239480342
 20
5.410336828
 30
0.0
 40
0.472440944881896
100
AcDbArc
 50
0.0
 51
90.0
  0
ARC
  5
35B
330
1F
100
AcDbEntity
  8
PROFILES_OUTSIDE
100
AcDbCircle
 10
68.2940267744
 20
5.410336828
 30
0.0
 40
0.472440944881896
100
AcDbArc
 50
90.0
 51
180.0
  0
ARC
  5
35C
330
1F
100
AcDbEntity
  8
PROFILES_OUTSIDE
100
AcDbCircle
 10
67.3491448846
 20
1.6563489084
 30
0.0
 40
0.4724409448818903
100
AcDbArc
 50
270.0
 51
0.0
  0
ARC
  5
35D
330
1F
100
AcDbEntity
  8
PROFILES_OUTSIDE
100
AcDbCircle
 10
62.5459952783
 20
1.2635858517
 30
0.0
 40
0.0393700787401627
100
AcDbArc
 50
107.6004667859
 51
180.0
  0
ARC
  5
35E
330
1F
100
AcDbEntity
  8
PROFILES_OUTSIDE
100
AcDbCircle
 10
62.472543698
 20
1.4951280257
 30
0.0
 40
0.2035433070866159
100
AcDbArc
 50
287.6004667859
 51
114.8878920264
  0
ARC
  5
35F
330
1F
100
AcDbEntity
  8
PROFILES_OUTSIDE
100
AcDbCircle
 10
62.370315027
 20
1.7154827666
 30
0.0
 40
0.0393700787401532
100
AcDbArc
 50
270.0
 51
294.8878920264
  0
ARC
  5
360
330
1F
100
AcDbEntity
  8
PROFILES_OUTSIDE
100
AcDbCircle
 10
62.030170314
 20
1.6367426092
 30
0.0
 40
0.0393700787401574
100
AcDbArc
 50
90.0
 51
176.3380644245
  0
ARC
  5
361
330
1F
100
AcDbEntity
  8
PROFILES_OUTSIDE
100
AcDbCircle
 10
61.7585937035
 20
1.9320181997
 30
0.0
 40
0.2362204724409449
100
AcDbArc
 50
90.0
 51
180.0
  0
ARC
  5
362
330
1F
100
AcDbEntity
  8
PROFILES_OUTSIDE
100
AcDbCircle
 10
66.8491448846
 20
13.3513047933
 30
0.0
 40
0.4724409448818818
100
AcDbArc
 50
0.0
 51
90.0
  0
ARC
  5
363
330
1F
100
AcDbEntity
  8
PROFILES_OUTSIDE
100
AcDbCircle
 10
67.8215858295
 20
5.8827777729
 30
0.0
 40
0.5
100
AcDbArc
 50
120.0
 51
180.0
  0
ARC
  5
364
330
1F
100
AcDbEntity
  8
PROFILES_OUTSIDE
100
AcDbCircle
 10
67.3215858295
 20
6.7488031767
 30
0.0
 40
0.5
100
AcDbArc
 50
300.0
 51
0.0
  0
ARC
  5
365
330
1F
100
AcDbEntity
  8
PROFILES_OUTSIDE
100
AcDbCircle
 10
67.3215858295
 20
9.2431812336
 30
0.0
 40
0.5
100
AcDbArc
 50
0.0
 51
60.0
  0
ARC
  5
366
330
1F
100
AcDbEntity
  8
PROFILES_OUTSIDE
100
AcDbCircle
 10
67.8215858295
 20
10.1092066374
 30
0.0
 40
0.5
100
AcDbArc
 50
180.0
 51
240.0
  0
ARC
  5
367
330
1F
100
AcDbEntity
  8
PROFILES_OUTSIDE
100
AcDbCircle
 10
61.7585937035
 20
14.0599662106
 30
0.0
 40
0.2362204724409462
100
AcDbArc
 50
180.0
 51
270.0
  0
ARC
  5
368
330
1F
100
AcDbEntity
  8
PROFILES_OUTSIDE
100
AcDbCircle
 10
61.5617433098
 20
14.5225646358
 30
0.0
 40
0.0393700787401574
100
AcDbArc
 50
90.0
 51
180.0
  0
ARC
  5
369
330
1F
100
AcDbEntity
  8
PROFILES_OUTSIDE
100
AcDbCircle
 10
61.5617433098
 20
16.3328008562
 30
0.0
 40
0.0393700787401627
100
AcDbArc
 50
180.0
 51
270.0
  0
ARC
  5
36A
330
1F
100
AcDbEntity
  8
PROFILES_OUTSIDE
100
AcDbCircle
 10
66.8491448846
 20
17.5040606988
 30
0.0
 40
0.4724409448818925
100
AcDbArc
 50
270.0
 51
0.0
  0
ARC
  5
36B
330
1F
100
AcDbEntity
  8
PROFILES_OUTSIDE
100
AcDbCircle
 10
66.8491448846
 20
28.214685875
 30
0.0
 40
0.472440944881896
100
AcDbArc
 50
0.0
 51
90.0
  0
ARC
  5
36C
330
1F
100
AcDbEntity
  8
PROFILES_OUTSIDE
100
AcDbCircle
 10
61.5617433098
 20
29.3859457175
 30
0.0
 40
0.0393700787401627
100
AcDbArc
 50
90.0
 51
180.0
  0
ARC
  5
36D
330
1F
100
AcDbEntity
  8
PROFILES_OUTSIDE
100
AcDbCircle
 10
75.1878044946
 20
16.5001236909
 30
0.0
 40
0.0393700787401556
100
AcDbArc
 50
3.6619355755
 51
90.0
  0
ARC
  5
36E
330
1F
100
AcDbEntity
  8
PROFILES_OUTSIDE
100
AcDbCircle
 10
74.8476597816
 20
16.5788638484
 30
0.0
 40
0.0393700787401556
100
AcDbArc
 50
245.1121079736
 51
270.0
  0
ARC
  5
36F
330
1F
100
AcDbEntity
  8
PROFILES_OUTSIDE
100
AcDbCircle
 10
74.7454311106
 20
16.3585091075
 30
0.0
 40
0.2035433070866204
100
AcDbArc
 50
65.1121079736
 51
252.3995332141
  0
ARC
  5
370
330
1F
100
AcDbEntity
  8
PROFILES_OUTSIDE
100
AcDbCircle
 10
74.6719795303
 20
16.1269669334
 30
0.0
 40
0.0393700787401627
100
AcDbArc
 50
0.0
 51
72.3995332141
  0
ARC
  5
371
330
1F
100
AcDbEntity
  8
PROFILES_OUTSIDE
100
AcDbCircle
 10
69.868829924
 20
16.5197299901
 30
0.0
 40
0.4724409448818889
100
AcDbArc
 50
180.0
 51
270.0
  0
ARC
  5
372
330
1F
100
AcDbEntity
  8
PROFILES_OUTSIDE
100
AcDbCircle
 10
68.9239480342
 20
20.2737179097
 30
0.0
 40
0.472440944881896
100
AcDbArc
 50
0.0
 51
90.0
  0
ARC
  5
373
330
1F
100
AcDbEntity
  8
PROFILES_OUTSIDE
100
AcDbCircle
 10
68.2940267744
 20
20.2737179097
 30
0.0
 40
0.472440944881896
100
AcDbArc
 50
90.0
 51
180.0
  0
ARC
  5
374
330
1F
100
AcDbEntity
  8
PROFILES_OUTSIDE
100
AcDbCircle
 10
67.3491448846
 20
16.5197299901
 30
0.0
 40
0.4724409448818889
100
AcDbArc
 50
270.0
 51
0.0
  0
ARC
  5
375
330
1F
100
AcDbEntity
  8
PROFILES_OUTSIDE
100
AcDbCircle
 10
62.5459952783
 20
16.1269669334
 30
0.0
 40
0.0393700787401627
100
AcDbArc
 50
107.6004667859
 51
180.0
  0
ARC
  5
376
330
1F
100
AcDbEntity
  8
PROFILES_OUTSIDE
100
AcDbCircle
 10
62.472543698
 20
16.3585091075
 30
0.0
 40
0.2035433070866144
100
AcDbArc
 50
287.6004667859
 51
114.8878920264
  0
ARC
  5
377
330
1F
100
AcDbEntity
  8
PROFILES_OUTSIDE
100
AcDbCircle
 10
62.370315027
 20
16.5788638484
 30
0.0
 40
0.0393700787401592
100
AcDbArc
 50
270.0
 51
294.8878920264
  0
ARC
  5
378
330
1F
100
AcDbEntity
  8
PROFILES_OUTSIDE
100
AcDbCircle
 10
62.030170314
 20
16.5001236909
 30
0.0
 40
0.0393700787401592
100
AcDbArc
 50
90.0
 51
176.3380644245
  0
ARC
  5
379
330
1F
100
AcDbEntity
  8
PROFILES_OUTSIDE
100
AcDbCircle
 10
61.7585937035
 20
16.7953992814
 30
0.0
 40
0.2362204724409551
100
AcDbArc
 50
90.0
 51
180.0
  0
ARC
  5
37A
330
1F
100
AcDbEntity
  8
PROFILES_OUTSIDE
100
AcDbCircle
 10
75.6562314988
 20
29.3859457175
 30
0.0
 40
0.0393700787401627
100
AcDbArc
 50
0.0
 51
90.0
  0
ARC
  5
37B
330
1F
100
AcDbEntity
  8
PROFILES_OUTSIDE
100
AcDbCircle
 10
67.8215858295
 20
20.7461588546
 30
0.0
 40
0.5000000000000142
100
AcDbArc
 50
120.0
 51
180.0
  0
ARC
  5
37C
330
1F
100
AcDbEntity
  8
PROFILES_OUTSIDE
100
AcDbCircle
 10
67.3215858295
 20
21.6121842584
 30
0.0
 40
0.500000000000002
100
AcDbArc
 50
300.0
 51
0.0
  0
ARC
  5
37D
330
1F
100
AcDbEntity
  8
PROFILES_OUTSIDE
100
AcDbCircle
 10
67.3215858295
 20
24.1065623153
 30
0.0
 40
0.5
100
AcDbArc
 50
0.0
 51
60.0
  0
ARC
  5
37E
330
1F
100
AcDbEntity
  8
PROFILES_OUTSIDE
100
AcDbCircle
 10
67.8215858295
 20
24.9725877191
 30
0.0
 40
0.5
100
AcDbArc
 50
180.0
 51
240.0
  0
ARC
  5
37F
330
1F
100
AcDbEntity
  8
PROFILES_OUTSIDE
100
AcDbCircle
 10
61.7585937035
 20
28.9233472923
 30
0.0
 40
0.2362204724409551
100
AcDbArc
 50
180.0
 51
270.0
  0
ARC
  5
380
330
1F
100
AcDbEntity
  8
PROFILES_OUTSIDE
100
AcDbCircle
 10
70.368829924
 20
28.214685875
 30
0.0
 40
0.472440944881896
100
AcDbArc
 50
90.0
 51
180.0
  0
ARC
  5
381
330
1F
100
AcDbEntity
  8
PROFILES_OUTSIDE
100
AcDbCircle
 10
62.030170314
 20
29.2186228829
 30
0.0
 40
0.0393700787401592
100
AcDbArc
 50
183.6619355755
 51
270.0
  0
ARC
  5
382
330
1F
100
AcDbEntity
  8
PROFILES_OUTSIDE
100
AcDbCircle
 10
62.370315027
 20
29.1398827254
 30
0.0
 40
0.0393700787401579
100
AcDbArc
 50
65.1121079736
 51
90.0
  0
ARC
  5
383
330
1F
100
AcDbEntity
  8
PROFILES_OUTSIDE
100
AcDbCircle
 10
62.472543698
 20
29.3602374663
 30
0.0
 40
0.2035433070866144
100
AcDbArc
 50
245.1121079736
 51
72.3995332141
  0
ARC
  5
384
330
1F
100
AcDbEntity
  8
PROFILES_OUTSIDE
100
AcDbCircle
 10
62.5459952783
 20
29.5917796403
 30
0.0
 40
0.0393700787401627
100
AcDbArc
 50
180.0
 51
252.3995332141
  0
ARC
  5
385
330
1F
100
AcDbEntity
  8
PROFILES_OUTSIDE
100
AcDbCircle
 10
67.3491448846
 20
29.1990165836
 30
0.0
 40
0.4724409448818889
100
AcDbArc
 50
0.0
 51
90.0
  0
ARC
  5
386
330
1F
100
AcDbEntity
  8
PROFILES_OUTSIDE
100
AcDbCircle
 10
68.2940267744
 20
25.445028664
 30
0.0
 40
0.472440944881896
100
AcDbArc
 50
180.0
 51
270.0
  0
ARC
  5
387
330
1F
100
AcDbEntity
  8
PROFILES_OUTSIDE
100
AcDbCircle
 10
68.9239480342
 20
25.445028664
 30
0.0
 40
0.472440944881896
100
AcDbArc
 50
270.0
 51
0.0
  0
ARC
  5
388
330
1F
100
AcDbEntity
  8
PROFILES_OUTSIDE
100
AcDbCircle
 10
69.868829924
 20
29.1990165836
 30
0.0
 40
0.4724409448818889
100
AcDbArc
 50
90.0
 51
180.0
  0
ARC
  5
389
330
1F
100
AcDbEntity
  8
PROFILES_OUTSIDE
100
AcDbCircle
 10
74.6719795303
 20
29.5917796403
 30
0.0
 40
0.0393700787401627
100
AcDbArc
 50
287.6004667859
 51
0.0
  0
ARC
  5
38A
330
1F
100
AcDbEntity
  8
PROFILES_OUTSIDE
100
AcDbCircle
 10
74.7454311106
 20
29.3602374663
 30
0.0
 40
0.2035433070866204
100
AcDbArc
 50
107.6004667859
 51
294.8878920264
  0
ARC
  5
38B
330
1F
100
AcDbEntity
  8
PROFILES_OUTSIDE
100
AcDbCircle
 10
74.8476597816
 20
29.1398827254
 30
0.0
 40
0.0393700787401521
100
AcDbArc
 50
90.0
 51
114.8878920264
  0
ARC
  5
38C
330
1F
100
AcDbEntity
  8
PROFILES_OUTSIDE
100
AcDbCircle
 10
75.1878044946
 20
29.2186228829
 30
0.0
 40
0.0393700787401556
100
AcDbArc
 50
270.0
 51
356.3380644245
  0
ARC
  5
38D
330
1F
100
AcDbEntity
  8
PROFILES_OUTSIDE
100
AcDbCircle
 10
75.4593811051
 20
28.9233472923
 30
0.0
 40
0.236220472440948
100
AcDbArc
 50
270.0
 51
0.0
  0
ARC
  5
38E
330
1F
100
AcDbEntity
  8
PROFILES_OUTSIDE
100
AcDbCircle
 10
70.368829924
 20
17.5040606988
 30
0.0
 40
0.4724409448818818
100
AcDbArc
 50
180.0
 51
270.0
  0
ARC
  5
38F
330
1F
100
AcDbEntity
  8
PROFILES_OUTSIDE
100
AcDbCircle
 10
69.3963889791
 20
24.9725877191
 30
0.0
 40
0.4999999999999979
100
AcDbArc
 50
300.0
 51
0.0
  0
ARC
  5
390
330
1F
100
AcDbEntity
  8
PROFILES_OUTSIDE
100
AcDbCircle
 10
69.8963889791
 20
24.1065623153
 30
0.0
 40
0.4999999999999878
100
AcDbArc
 50
120.0
 51
180.0
  0
ARC
  5
391
330
1F
100
AcDbEntity
  8
PROFILES_OUTSIDE
100
AcDbCircle
 10
69.8963889791
 20
21.6121842584
 30
0.0
 40
0.4999999999999908
100
AcDbArc
 50
180.0
 51
240.0
  0
ARC
  5
392
330
1F
100
AcDbEntity
  8
PROFILES_OUTSIDE
100
AcDbCircle
 10
69.3963889791
 20
20.7461588546
 30
0.0
 40
0.4999999999999979
100
AcDbArc
 50
0.0
 51
60.0
  0
ARC
  5
393
330
1F
100
AcDbEntity
  8
PROFILES_OUTSIDE
100
AcDbCircle
 10
75.4593811051
 20
16.7953992814
 30
0.0
 40
0.236220472440948
100
AcDbArc
 50
0.0
 51
90.0
  0
ARC
  5
394
330
1F
100
AcDbEntity
  8
PROFILES_OUTSIDE
100
AcDbCircle
 10
75.6562314988
 20
16.3328008562
 30
0.0
 40
0.0393700787401556
100
AcDbArc
 50
270.0
 51
0.0
  0
ENDSEC
  0
SECTION
  2
OBJECTS
  0
DICTIONARY
  5
C
330
0
100
AcDbDictionary
  3
ACAD_GROUP
350
D
  3
ACAD_MLINESTYLE
350
17
  3
ACAD_SCALELIST
350
47
  0
DICTIONARY
  5
D
102
{ACAD_REACTORS
330
C
102
}
330
C
100
AcDbDictionary
  0
DICTIONARY
  5
17
102
{ACAD_REACTORS
330
C
102
}
330
C
100
AcDbDictionary
  3
STANDARD
350
18
  0
DICTIONARY
  5
47
102
{ACAD_REACTORS
330
C
102
}
330
C
100
AcDbDictionary
  0
MLINESTYLE
  5
18
102
{ACAD_REACTORS
330
17
102
}
330
17
100
AcDbMlineStyle
  2
Standard
 70
     0
  3

 62
   256
 51
90.0
 52
90.0
 71
     2
 49
0.5
 62
   256
  6
BYLAYER
 49
-0.5
 62
   256
  6
BYLAYER
  0
ENDSEC
  0
EOF
