  0
SECTION
  2
HEADER
  9
$ACADVER
  1
AC1014
  9
$ACADMAINTVER
 70
     9
  9
$DWGCODEPAGE
  3
ANSI_1252
  9
$INSBASE
 10
0.0
 20
0.0
 30
0.0
  9
$EXTMIN
 10
0.0
 20
0.0
 30
0.0
  9
$EXTMAX
 10
2440.0
 20
1220.0
 30
0.0
  9
$LIMMIN
 10
0.0
 20
0.0
  9
$LIMMAX
 10
2440.0
 20
1220.0
  9
$ORTHOMODE
 70
     0
  9
$REGENMODE
 70
     1
  9
$FILLMODE
 70
     1
  9
$QTEXTMODE
 70
     0
  9
$MIRRTEXT
 70
     1
  9
$DRAGMODE
 70
     2
  9
$LTSCALE
 40
1.0
  9
$OSMODE
 70
    37
  9
$ATTMODE
 70
     1
  9
$TEXTSIZE
 40
3.5
  9
$TRACEWID
 40
1.0
  9
$TEXTSTYLE
  7
STANDARD
  9
$CLAYER
  8
0
  9
$CELTYPE
  6
BYLAYER
  9
$CECOLOR
 62
   256
  9
$CELTSCALE
 40
1.0
  9
$DELOBJ
 70
     1
  9
$DISPSILH
 70
     0
  9
$DIMSCALE
 40
1.0
  9
$DIMASZ
 40
3.302
  9
$DIMEXO
 40
1.0
  9
$DIMDLI
 40
3.75
  9
$DIMRND
 40
0.0
  9
$DIMDLE
 40
0.0
  9
$DIMEXE
 40
1.0
  9
$DIMTP
 40
0.0
  9
$DIMTM
 40
0.0
  9
$DIMTXT
 40
4.5861111111
  9
$DIMCEN
 40
2.5
  9
$DIMTSZ
 40
0.0
  9
$DIMTOL
 70
     0
  9
$DIMLIM
 70
     0
  9
$DIMTIH
 70
     1
  9
$DIMTOH
 70
     1
  9
$DIMSE1
 70
     0
  9
$DIMSE2
 70
     0
  9
$DIMTAD
 70
     1
  9
$DIMZIN
 70
     0
  9
$DIMBLK
  1

  9
$DIMASO
 70
     1
  9
$DIMSHO
 70
     1
  9
$DIMPOST
  1

  9
$DIMAPOST
  1

  9
$DIMALT
 70
     0
  9
$DIMALTD
 70
     3
  9
$DIMALTF
 40
0.0393700787
  9
$DIMLFAC
 40
1.0
  9
$DIMTOFL
 70
     1
  9
$DIMTVP
 40
0.0
  9
$DIMTIX
 70
     0
  9
$DIMSOXD
 70
     0
  9
$DIMSAH
 70
     0
  9
$DIMBLK1
  1

  9
$DIMBLK2
  1

  9
$DIMSTYLE
  2
ISO-25
  9
$DIMCLRD
 70
     0
  9
$DIMCLRE
 70
     0
  9
$DIMCLRT
 70
     0
  9
$DIMTFAC
 40
1.0
  9
$DIMGAP
 40
1.524
  9
$DIMJUST
 70
     0
  9
$DIMSD1
 70
     0
  9
$DIMSD2
 70
     0
  9
$DIMTOLJ
 70
     0
  9
$DIMTZIN
 70
     0
  9
$DIMALTZ
 70
     0
  9
$DIMALTTZ
 70
     0
  9
$DIMFIT
 70
     3
  9
$DIMUPT
 70
     0
  9
$DIMUNIT
 70
     2
  9
$DIMDEC
 70
     2
  9
$DIMTDEC
 70
     2
  9
$DIMALTU
 70
     2
  9
$DIMALTTD
 70
     3
  9
$DIMTXSTY
  7
STANDARD
  9
$DIMAUNIT
 70
     0
  9
$LUNITS
 70
     2
  9
$LUPREC
 70
     2
  9
$SKETCHINC
 40
1.0
  9
$FILLETRAD
 40
10.0
  9
$AUNITS
 70
     0
  9
$AUPREC
 70
     2
  9
$MENU
  1
.
  9
$ELEVATION
 40
0.0
  9
$PELEVATION
 40
0.0
  9
$THICKNESS
 40
0.0
  9
$LIMCHECK
 70
     0
  9
$CHAMFERA
 40
0.0
  9
$CHAMFERB
 40
0.0
  9
$CHAMFERC
 40
0.0
  9
$CHAMFERD
 40
0.0
  9
$SKPOLY
 70
     0
  9
$TDCREATE
 40
2457718.749146169
  9
$TDUPDATE
 40
2457718.749146551
  9
$TDINDWG
 40
0.0000000116
  9
$TDUSRTIMER
 40
0.0000000116
  9
$USRTIMER
 70
     1
  9
$ANGBASE
 50
0.0
  9
$ANGDIR
 70
     0
  9
$PDMODE
 70
     0
  9
$PDSIZE
 40
-1.0
  9
$PLINEWID
 40
0.0
  9
$COORDS
 70
     1
  9
$SPLFRAME
 70
     0
  9
$SPLINETYPE
 70
     6
  9
$SPLINESEGS
 70
     8
  9
$ATTDIA
 70
     0
  9
$ATTREQ
 70
     1
  9
$HANDLING
 70
     1
  9
$HANDSEED
  5
395
  9
$SURFTAB1
 70
     6
  9
$SURFTAB2
 70
     6
  9
$SURFTYPE
 70
     6
  9
$SURFU
 70
     6
  9
$SURFV
 70
     6
  9
$UCSNAME
  2

  9
$UCSORG
 10
0.0
 20
0.0
 30
0.0
  9
$UCSXDIR
 10
1.0
 20
0.0
 30
0.0
  9
$UCSYDIR
 10
0.0
 20
1.0
 30
0.0
  9
$PUCSNAME
  2

  9
$PUCSORG
 10
0.0
 20
0.0
 30
0.0
  9
$PUCSXDIR
 10
1.0
 20
0.0
 30
0.0
  9
$PUCSYDIR
 10
0.0
 20
1.0
 30
0.0
  9
$USERI1
 70
     0
  9
$USERI2
 70
     0
  9
$USERI3
 70
     0
  9
$USERI4
 70
     0
  9
$USERI5
 70
     0
  9
$USERR1
 40
0.0
  9
$USERR2
 40
0.0
  9
$USERR3
 40
0.0
  9
$USERR4
 40
0.0
  9
$USERR5
 40
0.0
  9
$WORLDVIEW
 70
     1
  9
$SHADEDGE
 70
     3
  9
$SHADEDIF
 70
    70
  9
$TILEMODE
 70
     1
  9
$MAXACTVP
 70
    64
  9
$PINSBASE
 10
0.0
 20
0.0
 30
0.0
  9
$PLIMCHECK
 70
     0
  9
$PEXTMIN
 10
1.0000000000E+20
 20
1.0000000000E+20
 30
1.0000000000E+20
  9
$PEXTMAX
 10
-1.0000000000E+20
 20
-1.0000000000E+20
 30
-1.0000000000E+20
  9
$PLIMMIN
 10
0.0
 20
0.0
  9
$PLIMMAX
 10
420.0
 20
297.0
  9
$UNITMODE
 70
     0
  9
$VISRETAIN
 70
     1
  9
$PLINEGEN
 70
     0
  9
$PSLTSCALE
 70
     1
  9
$TREEDEPTH
 70
  3020
  9
$PICKSTYLE
 70
     1
  9
$CMLSTYLE
  2
STANDARD
  9
$CMLJUST
 70
     0
  9
$CMLSCALE
 40
20.0
  9
$PROXYGRAPHICS
 70
     1
  9
$MEASUREMENT
 70
     1
  0
ENDSEC
  0
SECTION
  2
CLASSES
  0
CLASS
  1
ACDBDICTIONARYWDFLT
  2
AcDbDictionaryWithDefault
  3
ObjectDBX Classes
 90
        0
280
     0
281
     0
  0
CLASS
  1
VISUALSTYLE
  2
AcDbVisualStyle
  3
ObjectDBX Classes
 90
     4095
280
     0
281
     0
  0
CLASS
  1
MATERIAL
  2
AcDbMaterial
  3
ObjectDBX Classes
 90
     1153
280
     0
281
     0
  0
CLASS
  1
SCALE
  2
AcDbScale
  3
ObjectDBX Classes
 90
     1153
280
     0
281
     0
  0
CLASS
  1
TABLESTYLE
  2
AcDbTableStyle
  3
ObjectDBX Classes
 90
     4095
280
     0
281
     0
  0
CLASS
  1
MLEADERSTYLE
  2
AcDbMLeaderStyle
  3
ACDB_MLEADERSTYLE_CLASS
 90
     4095
280
     0
281
     0
  0
CLASS
  1
SUN
  2
AcDbSun
  3
SCENEOE
 90
     1153
280
     0
281
     0
  0
CLASS
  1
XRECORD
  2
AcDbXrecord
  3
ObjectDBX Classes
 90
        0
280
     0
281
     0
  0
CLASS
  1
LWPOLYLINE
  2
AcDbPolyline
  3
ObjectDBX Classes
 90
        0
280
     0
281
     1
  0
CLASS
  1
HATCH
  2
AcDbHatch
  3
ObjectDBX Classes
 90
        0
280
     0
281
     1
  0
ENDSEC
  0
SECTION
  2
TABLES
  0
TABLE
  2
VPORT
  5
8
330
0
100
AcDbSymbolTable
 70
     1
  0
VPORT
  5
29
330
8
100
AcDbSymbolTableRecord
100
AcDbViewportTableRecord
  2
*ACTIVE
 70
     0
 10
0.0
 20
0.0
 11
1.0
 21
1.0
 12
1220.0
 22
610.0
 13
0.0
 23
0.0
 14
10.0
 24
10.0
 15
10.0
 25
10.0
 16
0.0
 26
0.0
 36
1.0
 17
0.0
 27
0.0
 37
0.0
 40
1220.0
 41
2.0
 42
50.0
 43
0.0
 44
0.0
 50
0.0
 51
0.0
 71
     0
 72
  2000
 73
     1
 74
     3
 75
     0
 76
     0
 77
     0
 78
     0
  0
ENDTAB
  0
TABLE
  2
LTYPE
  5
5
330
0
100
AcDbSymbolTable
 70
     6
  0
LTYPE
  5
14
330
5
100
AcDbSymbolTableRecord
100
AcDbLinetypeTableRecord
  2
BYBLOCK
 70
     0
  3

 72
    65
 73
     0
 40
0.0
  0
LTYPE
  5
15
330
5
100
AcDbSymbolTableRecord
100
AcDbLinetypeTableRecord
  2
BYLAYER
 70
     0
  3

 72
    65
 73
     0
 40
0.0
  0
LTYPE
  5
16
330
5
100
AcDbSymbolTableRecord
100
AcDbLinetypeTableRecord
  2
CONTINUOUS
 70
     0
  3
Solid line
 72
    65
 73
     0
 40
0.0
  0
LTYPE
  5
6E
330
5
100
AcDbSymbolTableRecord
100
AcDbLinetypeTableRecord
  2
HIDDEN
 70
     0
  3
Hidden __ __ __ __ __ __ __ __ __ __ __ __ __ __
 72
    65
 73
     2
 40
1.905
 49
1.27
 74
     0
 49
-0.635
 74
     0
  0
LTYPE
  5
6F
330
5
100
AcDbSymbolTableRecord
100
AcDbLinetypeTableRecord
  2
PHANTOM
 70
     0
  3
Phantom ______  __  __  ______  __  __  ______
 72
    65
 73
     6
 40
12.7
 49
6.35
 74
     0
 49
-1.27
 74
     0
 49
1.27
 74
     0
 49
-1.27
 74
     0
 49
1.27
 74
     0
 49
-1.27
 74
     0
  0
LTYPE
  5
70
330
5
100
AcDbSymbolTableRecord
100
AcDbLinetypeTableRecord
  2
CENTER
 70
     0
  3
Center ____ _ ____ _ ____ _ ____ _ ____ _ ____
 72
    65
 73
     4
 40
10.16
 49
6.35
 74
     0
 49
-1.27
 74
     0
 49
1.27
 74
     0
 49
-1.27
 74
     0
  0
LTYPE
  5
71
330
5
100
AcDbSymbolTableRecord
100
AcDbLinetypeTableRecord
  2
CENTERX2
 70
     0
  3
Center (2x) ________  __  ________  __  _____
 72
    65
 73
     4
 40
20.32
 49
12.7
 74
     0
 49
-2.54
 74
     0
 49
2.54
 74
     0
 49
-2.54
 74
     0
  0
LTYPE
  5
72
330
5
100
AcDbSymbolTableRecord
100
AcDbLinetypeTableRecord
  2
DOT2
 70
     0
  3
Dot (.5x) ........................................
 72
    65
 73
     2
 40
0.635
 49
0.0
 74
     0
 49
-0.635
 74
     0
  0
ENDTAB
  0
TABLE
  2
LAYER
  5
2
330
0
100
AcDbSymbolTable
 70
     6
  0
LAYER
  5
10
330
2
100
AcDbSymbolTableRecord
100
AcDbLayerTableRecord
  2
0
 70
     0
 62
     7
  6
CONTINUOUS
  0
LAYER
  5
73
330
2
100
AcDbSymbolTableRecord
100
AcDbLayerTableRecord
  2
BOX_STOCK
 70
     0
 62
     1
  6
CONTINUOUS
  0
LAYER
  5
74
330
2
100
AcDbSymbolTableRecord
100
AcDbLayerTableRecord
  2
HOLES
 70
     0
 62
    30
  6
CONTINUOUS
  0
LAYER
  5
75
330
2
100
AcDbSymbolTableRecord
100
AcDbLayerTableRecord
  2
POCKETS
 70
     0
 62
   171
  6
CONTINUOUS
  0
LAYER
  5
76
330
2
100
AcDbSymbolTableRecord
100
AcDbLayerTableRecord
  2
PROFILES_OUTSIDE
 70
     0
 62
     6
  6
CONTINUOUS
  0
LAYER
  5
77
330
2
100
AcDbSymbolTableRecord
100
AcDbLayerTableRecord
  2
PROFILES_INSIDE
 70
     0
 62
     4
  6
CONTINUOUS
  0
ENDTAB
  0
TABLE
  2
STYLE
  5
3
330
0
100
AcDbSymbolTable
 70
     1
  0
STYLE
  5
11
330
3
100
AcDbSymbolTableRecord
100
AcDbTextStyleTableRecord
  2
STANDARD
 70
     0
 40
0.0
 41
1.0
 50
0.0
 71
     0
 42
3.5
  3
txt
  4

  0
ENDTAB
  0
TABLE
  2
VIEW
  5
6
330
0
100
AcDbSymbolTable
 70
     0
  0
ENDTAB
  0
TABLE
  2
UCS
  5
7
330
0
100
AcDbSymbolTable
 70
     0
  0
ENDTAB
  0
TABLE
  2
APPID
  5
9
330
0
100
AcDbSymbolTable
 70
     1
  0
APPID
  5
12
330
9
100
AcDbSymbolTableRecord
100
AcDbRegAppTableRecord
  2
ACAD
 70
     0
  0
ENDTAB
  0
TABLE
  2
DIMSTYLE
  5
A
330
0
100
AcDbSymbolTable
 70
     1
  0
DIMSTYLE
105
27
330
A
100
AcDbSymbolTableRecord
100
AcDbDimStyleTableRecord
  2
ISO-25
 70
     0
  3

  4

  5

  6

  7

 40
1.0
 41
2.5
 42
0.625
 43
3.75
 44
1.25
 45
0.0
 46
0.0
 47
0.0
 48
0.0
140
2.5
141
2.5
142
0.0
143
0.0393700787
144
1.0
145
0.0
146
1.0
147
0.625
 71
     0
 72
     0
 73
     0
 74
     0
 75
     0
 76
     0
 77
     1
 78
     8
170
     0
171
     3
172
     1
173
     0
174
     0
175
     0
176
     0
177
     0
178
     0
270
     2
271
     2
272
     2
273
     2
274
     3
340
11
275
     0
280
     0
281
     0
282
     0
283
     0
284
     8
285
     0
286
     0
287
     3
288
     0
  0
ENDTAB
  0
TABLE
  2
BLOCK_RECORD
  5
1
330
0
100
AcDbSymbolTable
 70
     1
  0
BLOCK_RECORD
  5
1F
330
1
100
AcDbSymbolTableRecord
100
AcDbBlockTableRecord
  2
*MODEL_SPACE
  0
BLOCK_RECORD
  5
1B
330
1
100
AcDbSymbolTableRecord
100
AcDbBlockTableRecord
  2
*PAPER_SPACE
  0
BLOCK_RECORD
  5
23
330
1
100
AcDbSymbolTableRecord
100
AcDbBlockTableRecord
  2
*PAPER_SPACE0
  0
ENDTAB
  0
ENDSEC
  0
SECTION
  2
BLOCKS
  0
BLOCK
  5
20
330
1F
100
AcDbEntity
  8
0
100
AcDbBlockBegin
  2
*MODEL_SPACE
 70
     0
 10
0.0
 20
0.0
 30
0.0
  3
*MODEL_SPACE
  1

  0
ENDBLK
  5
21
330
1F
100
AcDbEntity
  8
0
100
AcDbBlockEnd
  0
BLOCK
  5
1C
330
1B
100
AcDbEntity
 67
     1
  8
0
100
AcDbBlockBegin
  2
*PAPER_SPACE
 70
     0
 10
0.0
 20
0.0
 30
0.0
  3
*PAPER_SPACE
  1

  0
ENDBLK
  5
1D
330
1B
100
AcDbEntity
 67
     1
  8
0
100
AcDbBlockEnd
  0
BLOCK
  5
24
330
23
100
AcDbEntity
  8
0
100
AcDbBlockBegin
  2
*PAPER_SPACE0
 70
     0
 10
0.0
 20
0.0
 30
0.0
  3
*PAPER_SPACE0
  1

  0
ENDBLK
  5
25
330
23
100
AcDbEntity
  8
0
100
AcDbBlockEnd
  0
ENDSEC
  0
SECTION
  2
ENTITIES
  0
ARC
  5
78
330
1F
100
AcDbEntity
  8
0
  6
CONTINUOUS
 62
     7
100
AcDbCircle
 10
31.9482800697
 20
40.2399853756
 30
0.0
 40
6.000000000000227
100
AcDbArc
 50
180.0
 51
280.0
  0
LINE
  5
79
330
1F
100
AcDbEntity
  8
0
  6
CONTINUOUS
 62
     7
100
AcDbLine
 10
25.9482795577
 20
40.23998366
 30
0.0
 11
25.9482795577
 21
60.1607388378
 31
0.0
  0
LINE
  5
7A
330
1F
100
AcDbEntity
  8
0
  6
CONTINUOUS
 62
     7
100
AcDbLine
 10
64.6085506509
 20
66.977584225
 30
0.0
 11
25.9482795577
 21
60.1607388378
 31
0.0
  0
ARC
  5
7B
330
1F
100
AcDbEntity
  8
0
  6
CONTINUOUS
 62
     7
100
AcDbCircle
 10
69.7497043053
 20
67.5229504584
 30
0.0
 40
5.16999905343374
100
AcDbArc
 50
186.0551898611
 51
214.8878382498
  0
ARC
  5
7C
330
1F
100
AcDbEntity
  8
0
  6
CONTINUOUS
 62
     7
100
AcDbCircle
 10
64.6886207011
 20
63.9938864826
 30
0.0
 40
0.9999986349375658
100
AcDbArc
 50
10.0
 51
34.8878382498
  0
LINE
  5
7D
330
1F
100
AcDbEntity
  8
0
  6
CONTINUOUS
 62
     7
100
AcDbLine
 10
66.613814814
 20
58.8343566776
 30
0.0
 11
65.6734248828
 21
64.1675344229
 31
0.0
  0
ARC
  5
7E
330
1F
100
AcDbEntity
  8
0
  6
CONTINUOUS
 62
     7
100
AcDbCircle
 10
65.6290038942
 20
58.6607083762
 30
0.0
 40
0.9999999999999793
100
AcDbArc
 50
345.1121194146
 51
10.0
  0
ARC
  5
7F
330
1F
100
AcDbEntity
  8
0
  6
CONTINUOUS
 62
     7
100
AcDbCircle
 10
71.5918797545
 20
57.0754602964
 30
0.0
 40
5.169999999999999
100
AcDbArc
 50
165.1121194146
 51
352.3995433346
  0
ARC
  5
80
330
1F
100
AcDbEntity
  8
0
  6
CONTINUOUS
 62
     7
100
AcDbCircle
 10
77.7076731337
 20
56.2593896237
 30
0.0
 40
1.00000000000004
100
AcDbArc
 50
100.0000485891
 51
172.3995433346
  0
LINE
  5
81
330
1F
100
AcDbEntity
  8
0
  6
CONTINUOUS
 62
     7
100
AcDbLine
 10
81.5162277054
 20
57.946370405
 30
0.0
 11
77.5340264867
 21
57.2441978872
 31
0.0
  0
ARC
  5
82
330
1F
100
AcDbEntity
  8
0
  6
CONTINUOUS
 62
     7
100
AcDbCircle
 10
81.689877331
 20
56.9615631484
 30
0.0
 40
1.000000000000091
100
AcDbArc
 50
27.6004769063
 51
100.0000485891
  0
ARC
  5
83
330
1F
100
AcDbEntity
  8
0
  6
CONTINUOUS
 62
     7
100
AcDbCircle
 10
87.1577296214
 20
59.8201451973
 30
0.0
 40
5.169999999999976
100
AcDbArc
 50
207.6004769063
 51
34.8879034673
  0
ARC
  5
84
330
1F
100
AcDbEntity
  8
0
  6
CONTINUOUS
 62
     7
100
AcDbCircle
 10
92.2188118811
 20
63.3492167976
 30
0.0
 40
1.000000000000011
100
AcDbArc
 50
190.0
 51
214.8879034673
  0
LINE
  5
85
330
1F
100
AcDbEntity
  8
0
  6
CONTINUOUS
 62
     7
100
AcDbLine
 10
90.2936225961
 20
68.5087306917
 30
0.0
 11
91.2340050768
 21
63.1755678475
 31
0.0
  0
ARC
  5
86
330
1F
100
AcDbEntity
  8
0
  6
CONTINUOUS
 62
     7
100
AcDbCircle
 10
91.2784659284
 20
68.6823857476
 30
0.0
 40
1.000035084614306
100
AcDbArc
 50
165.1121913085
 51
190.0
  0
ARC
  5
87
330
1F
100
AcDbEntity
  8
0
  6
CONTINUOUS
 62
     7
100
AcDbCircle
 10
85.3155541721
 20
70.2676353594
 30
0.0
 40
5.170000000000075
100
AcDbArc
 50
345.1121913085
 51
13.9447482422
  0
LINE
  5
88
330
1F
100
AcDbEntity
  8
0
  6
CONTINUOUS
 62
     7
100
AcDbLine
 10
355.5823182892
 20
118.2841150582
 30
0.0
 11
90.3331851791
 21
71.5135349453
 31
0.0
  0
ARC
  5
89
330
1F
100
AcDbEntity
  8
0
  6
CONTINUOUS
 62
     7
100
AcDbCircle
 10
360.7234746159
 20
118.8294768427
 30
0.0
 40
5.169999053433721
100
AcDbArc
 50
186.0551898611
 51
214.8878382498
  0
ARC
  5
8A
330
1F
100
AcDbEntity
  8
0
  6
CONTINUOUS
 62
     7
100
AcDbCircle
 10
355.6623910117
 20
115.3004128669
 30
0.0
 40
0.9999986349373967
100
AcDbArc
 50
10.0
 51
34.8878382498
  0
LINE
  5
8B
330
1F
100
AcDbEntity
  8
0
  6
CONTINUOUS
 62
     7
100
AcDbLine
 10
357.587567551
 20
110.1408837855
 30
0.0
 11
356.6471850704
 21
115.4740615309
 31
0.0
  0
ARC
  5
8C
330
1F
100
AcDbEntity
  8
0
  6
CONTINUOUS
 62
     7
100
AcDbCircle
 10
356.6027742048
 20
109.9672347604
 30
0.0
 40
1.00000000000006
100
AcDbArc
 50
345.1121194146
 51
10.0
  0
ARC
  5
8D
330
1F
100
AcDbEntity
  8
0
  6
CONTINUOUS
 62
     7
100
AcDbCircle
 10
362.5656500652
 20
108.3819866806
 30
0.0
 40
5.170000000000027
100
AcDbArc
 50
165.1121194146
 51
352.3995433346
  0
ARC
  5
8E
330
1F
100
AcDbEntity
  8
0
  6
CONTINUOUS
 62
     7
100
AcDbCircle
 10
368.6814434444
 20
107.5659160079
 30
0.0
 40
1.000000000000041
100
AcDbArc
 50
100.0000485891
 51
172.3995433346
  0
LINE
  5
8F
330
1F
100
AcDbEntity
  8
0
  6
CONTINUOUS
 62
     7
100
AcDbLine
 10
372.4900102447
 20
109.2528937877
 30
0.0
 11
368.507794125
 21
108.5507212699
 31
0.0
  0
ARC
  5
90
330
1F
100
AcDbEntity
  8
0
  6
CONTINUOUS
 62
     7
100
AcDbCircle
 10
372.6636476416
 20
108.2680895326
 30
0.0
 40
1.000000000000041
100
AcDbArc
 50
27.6004769063
 51
100.0000485891
  0
ARC
  5
91
330
1F
100
AcDbEntity
  8
0
  6
CONTINUOUS
 62
     7
100
AcDbCircle
 10
378.131499932
 20
111.1266715816
 30
0.0
 40
5.170000000000051
100
AcDbArc
 50
207.6004769063
 51
34.8879034673
  0
ARC
  5
92
330
1F
100
AcDbEntity
  8
0
  6
CONTINUOUS
 62
     7
100
AcDbCircle
 10
383.1925821918
 20
114.6557431818
 30
0.0
 40
0.9999999999999784
100
AcDbArc
 50
190.0
 51
214.8879034673
  0
LINE
  5
93
330
1F
100
AcDbEntity
  8
0
  6
CONTINUOUS
 62
     7
100
AcDbLine
 10
381.2673902343
 20
119.815261525
 30
0.0
 11
382.207772715
 21
114.4820986808
 31
0.0
  0
ARC
  5
94
330
1F
100
AcDbEntity
  8
0
  6
CONTINUOUS
 62
     7
100
AcDbCircle
 10
382.2522362391
 20
119.9889121318
 30
0.0
 40
1.000035084614232
100
AcDbArc
 50
165.1121913085
 51
190.0
  0
ARC
  5
95
330
1F
100
AcDbEntity
  8
0
  6
CONTINUOUS
 62
     7
100
AcDbCircle
 10
376.2893244827
 20
121.5741617436
 30
0.0
 40
5.170000000000011
100
AcDbArc
 50
345.1121913085
 51
13.9447482422
  0
LINE
  5
96
330
1F
100
AcDbEntity
  8
0
  6
CONTINUOUS
 62
     7
100
AcDbLine
 10
407.9482769798
 20
127.5176419437
 30
0.0
 11
381.3069677185
 21
122.8200583279
 31
0.0
  0
LINE
  5
97
330
1F
100
AcDbEntity
  8
0
  6
CONTINUOUS
 62
     7
100
AcDbLine
 10
407.9482769798
 20
127.5176419437
 30
0.0
 11
407.9482769798
 21
105.4809703052
 31
0.0
  0
ARC
  5
98
330
1F
100
AcDbEntity
  8
0
  6
CONTINUOUS
 62
     7
100
AcDbCircle
 10
401.9482800697
 20
105.4809682378
 30
0.0
 40
6.000000000000016
100
AcDbArc
 50
280.0
 51
0.0
  0
LINE
  5
99
330
1F
100
AcDbEntity
  8
0
  6
CONTINUOUS
 62
     7
100
AcDbLine
 10
402.9901838134
 20
99.5721234501
 30
0.0
 11
32.9901678692
 21
34.3311386675
 31
0.0
  0
ARC
  5
9A
330
1F
100
AcDbEntity
  8
0
  6
CONTINUOUS
 62
     7
100
AcDbCircle
 10
31.9482800697
 20
421.5180252592
 30
0.0
 40
6.000000000000007
100
AcDbArc
 50
80.0
 51
180.0
  0
ARC
  5
9B
330
1F
100
AcDbEntity
  8
0
  6
CONTINUOUS
 62
     7
100
AcDbCircle
 10
376.2893264602
 20
340.1838541343
 30
0.0
 40
5.169999999999991
100
AcDbArc
 50
346.0551905845
 51
14.8879034673
  0
ARC
  5
9C
330
1F
100
AcDbEntity
  8
0
  6
CONTINUOUS
 62
     7
100
AcDbCircle
 10
382.2522016875
 20
341.7691045954
 30
0.0
 40
1.000000000000128
100
AcDbArc
 50
170.0
 51
194.8879034673
  0
LINE
  5
9D
330
1F
100
AcDbEntity
  8
0
  6
CONTINUOUS
 62
     7
100
AcDbLine
 10
382.207772715
 20
347.2759141147
 30
0.0
 11
381.2673902343
 21
341.9427587211
 31
0.0
  0
ARC
  5
9E
330
1F
100
AcDbEntity
  8
0
  6
CONTINUOUS
 62
     7
100
AcDbCircle
 10
383.1926167434
 20
347.1022613606
 30
0.0
 40
1.000035084614161
100
AcDbArc
 50
145.1121913085
 51
170.0
  0
ARC
  5
9F
330
1F
100
AcDbEntity
  8
0
  6
CONTINUOUS
 62
     7
100
AcDbCircle
 10
378.131499867
 20
350.6313446564
 30
0.0
 40
5.17000000000009
100
AcDbArc
 50
325.1121913085
 51
152.3995433346
  0
ARC
  5
A0
330
1F
100
AcDbEntity
  8
0
  6
CONTINUOUS
 62
     7
100
AcDbCircle
 10
372.6636465667
 20
353.4899247737
 30
0.0
 40
1.000000000000047
100
AcDbArc
 50
260.0000485891
 51
332.3995433346
  0
LINE
  5
A1
330
1F
100
AcDbEntity
  8
0
  6
CONTINUOUS
 62
     7
100
AcDbLine
 10
368.507794125
 20
353.2072915256
 30
0.0
 11
372.4900102447
 21
352.5051190079
 31
0.0
  0
ARC
  5
A2
330
1F
100
AcDbEntity
  8
0
  6
CONTINUOUS
 62
     7
100
AcDbCircle
 10
368.6814411786
 20
354.1920915443
 30
0.0
 40
1.000000946566262
100
AcDbArc
 50
187.6004769063
 51
260.0000485891
  0
ARC
  5
A3
330
1F
100
AcDbEntity
  8
0
  6
CONTINUOUS
 62
     7
100
AcDbCircle
 10
362.5656480877
 20
353.3760187111
 30
0.0
 40
5.169999053433669
100
AcDbArc
 50
7.6004769063
 51
194.8878382498
  0
ARC
  5
A4
330
1F
100
AcDbEntity
  8
0
  6
CONTINUOUS
 62
     7
100
AcDbCircle
 10
356.6027742048
 20
351.7907758744
 30
0.0
 40
0.9999986349374576
100
AcDbArc
 50
350.0
 51
14.8878382498
  0
LINE
  5
A5
330
1F
100
AcDbEntity
  8
0
  6
CONTINUOUS
 62
     7
100
AcDbLine
 10
356.6471850704
 20
346.2839438141
 30
0.0
 11
357.587567551
 21
351.61712901
 31
0.0
  0
ARC
  5
A6
330
1F
100
AcDbEntity
  8
0
  6
CONTINUOUS
 62
     7
100
AcDbCircle
 10
355.6623910117
 20
346.4575977679
 30
0.0
 40
0.9999999999999931
100
AcDbArc
 50
325.1121194146
 51
350.0
  0
ARC
  5
A7
330
1F
100
AcDbEntity
  8
0
  6
CONTINUOUS
 62
     7
100
AcDbCircle
 10
360.7234746809
 20
342.9285281889
 30
0.0
 40
5.170000000000069
100
AcDbArc
 50
145.1121194146
 51
173.9447482422
  0
LINE
  5
A8
330
1F
100
AcDbEntity
  8
0
  6
CONTINUOUS
 62
     7
100
AcDbLine
 10
90.3331851791
 20
390.2444853008
 30
0.0
 11
355.5823182892
 21
343.4739126385
 31
0.0
  0
ARC
  5
A9
330
1F
100
AcDbEntity
  8
0
  6
CONTINUOUS
 62
     7
100
AcDbCircle
 10
85.3155561496
 20
391.4903805185
 30
0.0
 40
5.169999999999995
100
AcDbArc
 50
346.0551905845
 51
14.8879034674
  0
ARC
  5
AA
330
1F
100
AcDbEntity
  8
0
  6
CONTINUOUS
 62
     7
100
AcDbCircle
 10
91.2784313768
 20
393.0756309796
 30
0.0
 40
1.000000000000003
100
AcDbArc
 50
170.0
 51
194.8879034673
  0
LINE
  5
AB
330
1F
100
AcDbEntity
  8
0
  6
CONTINUOUS
 62
     7
100
AcDbLine
 10
91.2340050768
 20
398.5824300468
 30
0.0
 11
90.2936225961
 21
393.2492746532
 31
0.0
  0
ARC
  5
AC
330
1F
100
AcDbEntity
  8
0
  6
CONTINUOUS
 62
     7
100
AcDbCircle
 10
92.2188464327
 20
398.4087877448
 30
0.0
 40
1.000035084614235
100
AcDbArc
 50
145.1121913085
 51
170.0
  0
ARC
  5
AD
330
1F
100
AcDbEntity
  8
0
  6
CONTINUOUS
 62
     7
100
AcDbCircle
 10
87.1577295564
 20
401.9378710407
 30
0.0
 40
5.170000000000021
100
AcDbArc
 50
325.1121913085
 51
152.3995433346
  0
ARC
  5
AE
330
1F
100
AcDbEntity
  8
0
  6
CONTINUOUS
 62
     7
100
AcDbCircle
 10
81.6898762561
 20
404.796451158
 30
0.0
 40
1.000000000000109
100
AcDbArc
 50
260.0000485891
 51
332.3995433346
  0
LINE
  5
AF
330
1F
100
AcDbEntity
  8
0
  6
CONTINUOUS
 62
     7
100
AcDbLine
 10
77.5340264867
 20
404.5138074577
 30
0.0
 11
81.5162277054
 21
403.8116349399
 31
0.0
  0
ARC
  5
B0
330
1F
100
AcDbEntity
  8
0
  6
CONTINUOUS
 62
     7
100
AcDbCircle
 10
77.707670868
 20
405.4986179286
 30
0.0
 40
1.000000946566346
100
AcDbArc
 50
187.6004769063
 51
260.0000485891
  0
ARC
  5
B1
330
1F
100
AcDbEntity
  8
0
  6
CONTINUOUS
 62
     7
100
AcDbCircle
 10
71.591877777
 20
404.6825450953
 30
0.0
 40
5.169999053433711
100
AcDbArc
 50
7.6004769063
 51
194.8878382498
  0
ARC
  5
B2
330
1F
100
AcDbEntity
  8
0
  6
CONTINUOUS
 62
     7
100
AcDbCircle
 10
65.6290038942
 20
403.0973022587
 30
0.0
 40
0.9999986349375696
100
AcDbArc
 50
350.0
 51
14.8878382498
  0
LINE
  5
B3
330
1F
100
AcDbEntity
  8
0
  6
CONTINUOUS
 62
     7
100
AcDbLine
 10
65.6734248828
 20
397.5904895485
 30
0.0
 11
66.6138073634
 21
402.9236449421
 31
0.0
  0
ARC
  5
B4
330
1F
100
AcDbEntity
  8
0
  6
CONTINUOUS
 62
     7
100
AcDbCircle
 10
64.6886207011
 20
397.7641241522
 30
0.0
 40
0.9999999999999792
100
AcDbArc
 50
325.1121194146
 51
350.0
  0
ARC
  5
B5
330
1F
100
AcDbEntity
  8
0
  6
CONTINUOUS
 62
     7
100
AcDbCircle
 10
69.7497043703
 20
394.2350545731
 30
0.0
 40
5.169999999999932
100
AcDbArc
 50
145.1121194146
 51
173.9447482422
  0
LINE
  5
B6
330
1F
100
AcDbEntity
  8
0
  6
CONTINUOUS
 62
     7
100
AcDbLine
 10
25.9482795577
 20
401.5972627819
 30
0.0
 11
64.6085506509
 21
394.7804285705
 31
0.0
  0
LINE
  5
B7
330
1F
100
AcDbEntity
  8
0
  6
CONTINUOUS
 62
     7
100
AcDbLine
 10
25.9482795577
 20
401.5972627819
 30
0.0
 11
25.9482795577
 21
421.5180291355
 31
0.0
  0
LINE
  5
B8
330
1F
100
AcDbEntity
  8
0
  6
CONTINUOUS
 62
     7
100
AcDbLine
 10
32.9901678692
 20
427.4268759907
 30
0.0
 11
402.9901838134
 21
362.185896796
 31
0.0
  0
LINE
  5
B9
330
1F
100
AcDbEntity
  8
0
  6
CONTINUOUS
 62
     7
100
AcDbLine
 10
407.9482769798
 20
356.2770499409
 30
0.0
 11
407.9482769798
 21
334.2403783024
 31
0.0
  0
ARC
  5
BA
330
1F
100
AcDbEntity
  8
0
  6
CONTINUOUS
 62
     7
100
AcDbCircle
 10
401.9482800697
 20
356.277042397
 30
0.0
 40
6.0
100
AcDbArc
 50
0.0
 51
80.0
  0
LINE
  5
BB
330
1F
100
AcDbEntity
  8
0
  6
CONTINUOUS
 62
     7
100
AcDbLine
 10
381.3069677185
 20
338.9379395664
 30
0.0
 11
407.9482769798
 21
334.2403783024
 31
0.0
  0
LINE
  5
BC
330
1F
100
AcDbEntity
  8
0
  6
CONTINUOUS
 62
     7
100
AcDbLine
 10
392.9063892196
 20
278.6593450725
 30
0.0
 11
402.9901838134
 21
280.4373814285
 31
0.0
  0
ARC
  5
BD
330
1F
100
AcDbEntity
  8
0
  6
CONTINUOUS
 62
     7
100
AcDbCircle
 10
393.9482800697
 20
272.7505027829
 30
0.0
 40
6.0
100
AcDbArc
 50
100.0
 51
180.0
  0
LINE
  5
BE
330
1F
100
AcDbEntity
  8
0
  6
CONTINUOUS
 62
     7
100
AcDbLine
 10
387.948266251
 20
189.0075071276
 30
0.0
 11
387.948266251
 21
272.7504982174
 31
0.0
  0
ARC
  5
BF
330
1F
100
AcDbEntity
  8
0
  6
CONTINUOUS
 62
     7
100
AcDbCircle
 10
393.9482800697
 20
189.0075078519
 30
0.0
 40
6.0
100
AcDbArc
 50
180.0
 51
260.0
  0
LINE
  5
C0
330
1F
100
AcDbEntity
  8
0
  6
CONTINUOUS
 62
     7
100
AcDbLine
 10
367.9482853244
 20
328.4178389728
 30
0.0
 11
367.9482853244
 21
133.3401812733
 31
0.0
  0
LINE
  5
C1
330
1F
100
AcDbEntity
  8
0
  6
CONTINUOUS
 62
     7
100
AcDbLine
 10
407.9482769798
 20
321.3647617519
 30
0.0
 11
367.9482853244
 21
328.4178389728
 31
0.0
  0
ARC
  5
C2
330
1F
100
AcDbEntity
  8
0
  6
CONTINUOUS
 62
     7
100
AcDbCircle
 10
401.9482800697
 20
175.4117726636
 30
0.0
 40
6.000000000000016
100
AcDbArc
 50
0.0
 51
80.0
  0
LINE
  5
C3
330
1F
100
AcDbEntity
  8
0
  6
CONTINUOUS
 62
     7
100
AcDbLine
 10
402.9901838134
 20
181.3206239164
 30
0.0
 11
392.9063892196
 21
183.0986602724
 31
0.0
  0
LINE
  5
C4
330
1F
100
AcDbEntity
  8
0
  6
CONTINUOUS
 62
     7
100
AcDbLine
 10
367.9482853244
 20
133.3401812733
 30
0.0
 11
407.9482769798
 21
140.3932584942
 31
0.0
  0
LINE
  5
C5
330
1F
100
AcDbEntity
  8
0
  6
CONTINUOUS
 62
     7
100
AcDbLine
 10
407.9482769798
 20
175.4117770613
 30
0.0
 11
407.9482769798
 21
140.3932584942
 31
0.0
  0
LINE
  5
C6
330
1F
100
AcDbEntity
  8
0
  6
CONTINUOUS
 62
     7
100
AcDbLine
 10
407.9482769798
 20
321.3647617519
 30
0.0
 11
407.9482769798
 21
286.3462282837
 31
0.0
  0
ARC
  5
C7
330
1F
100
AcDbEntity
  8
0
  6
CONTINUOUS
 62
     7
100
AcDbCircle
 10
401.9482800697
 20
286.3462379712
 30
0.0
 40
6.000000000000044
100
AcDbArc
 50
280.0
 51
0.0
  0
LINE
  5
C8
330
1F
100
AcDbEntity
  8
0
  6
CONTINUOUS
 62
     7
100
AcDbLine
 10
25.9482795577
 20
73.0363442123
 30
0.0
 11
25.9482795577
 21
388.7216760338
 31
0.0
  0
LINE
  5
C9
330
1F
100
AcDbEntity
  8
0
  6
CONTINUOUS
 62
     7
100
AcDbLine
 10
355.608276112
 20
131.1642988146
 30
0.0
 11
355.608276112
 21
330.5937065304
 31
0.0
  0
LINE
  5
CA
330
1F
100
AcDbEntity
  8
0
  6
CONTINUOUS
 62
     7
100
AcDbLine
 10
25.9482795577
 20
73.0363442123
 30
0.0
 11
355.608276112
 21
131.1642988146
 31
0.0
  0
LINE
  5
CB
330
1F
100
AcDbEntity
  8
0
  6
CONTINUOUS
 62
     7
100
AcDbLine
 10
355.608276112
 20
330.5937065304
 30
0.0
 11
25.9482795577
 21
388.7216760338
 31
0.0
  0
ARC
  5
CC
330
1F
100
AcDbEntity
  8
0
  6
CONTINUOUS
 62
     7
100
AcDbCircle
 10
370.1735311035
 20
122.3902324163
 30
0.0
 40
1.000000000000168
100
AcDbArc
 50
280.0000485891
 51
352.3995433346
  0
LINE
  5
CD
330
1F
100
AcDbEntity
  8
0
  6
CONTINUOUS
 62
     7
100
AcDbLine
 10
370.3471934627
 20
121.4054240406
 30
0.0
 11
366.364977343
 21
120.7032515228
 31
0.0
  0
ARC
  5
CE
330
1F
100
AcDbEntity
  8
0
  6
CONTINUOUS
 62
     7
100
AcDbCircle
 10
366.1913269063
 20
121.6880588916
 30
0.0
 40
1.000000000000006
100
AcDbArc
 50
207.6004769063
 51
280.0000485891
  0
ARC
  5
CF
330
1F
100
AcDbEntity
  8
0
  6
CONTINUOUS
 62
     7
100
AcDbCircle
 10
79.1997607929
 20
71.0837060321
 30
0.0
 40
1.000000000000039
100
AcDbArc
 50
280.0000485891
 51
352.3995433346
  0
LINE
  5
D0
330
1F
100
AcDbEntity
  8
0
  6
CONTINUOUS
 62
     7
100
AcDbLine
 10
79.3734109234
 20
70.0989006579
 30
0.0
 11
75.3912022542
 21
69.3967281402
 31
0.0
  0
ARC
  5
D1
330
1F
100
AcDbEntity
  8
0
  6
CONTINUOUS
 62
     7
100
AcDbCircle
 10
75.2175565957
 20
70.3815325074
 30
0.0
 40
1.00000000000004
100
AcDbArc
 50
207.6004769063
 51
280.0000485891
  0
ARC
  5
D2
330
1F
100
AcDbEntity
  8
0
  6
CONTINUOUS
 62
     7
100
AcDbCircle
 10
75.2175576705
 20
391.3764744558
 30
0.0
 40
0.9999999999999188
100
AcDbArc
 50
80.0000485891
 51
152.3995433346
  0
LINE
  5
D3
330
1F
100
AcDbEntity
  8
0
  6
CONTINUOUS
 62
     7
100
AcDbLine
 10
75.3912022542
 20
392.3612846554
 30
0.0
 11
79.3734109234
 21
391.6591121376
 31
0.0
  0
ARC
  5
D4
330
1F
100
AcDbEntity
  8
0
  6
CONTINUOUS
 62
     7
100
AcDbCircle
 10
79.1997630587
 20
390.6743076853
 30
0.0
 40
0.9999999999999749
100
AcDbArc
 50
7.6004769063
 51
80.0000485891
  0
ARC
  5
D5
330
1F
100
AcDbEntity
  8
0
  6
CONTINUOUS
 62
     7
100
AcDbCircle
 10
366.1913279811
 20
340.0699480716
 30
0.0
 40
0.9999999999999822
100
AcDbArc
 50
80.0000485891
 51
152.3995433346
  0
LINE
  5
D6
330
1F
100
AcDbEntity
  8
0
  6
CONTINUOUS
 62
     7
100
AcDbLine
 10
366.364977343
 20
341.0547687233
 30
0.0
 11
370.3471934627
 21
340.3525962055
 31
0.0
  0
ARC
  5
D7
330
1F
100
AcDbEntity
  8
0
  6
CONTINUOUS
 62
     7
100
AcDbCircle
 10
370.1735333693
 20
339.367781301
 30
0.0
 40
1.000000000000058
100
AcDbArc
 50
7.6004769063
 51
80.0000485891
  0
LINE
  5
D8
330
1F
100
AcDbEntity
  8
0
  6
CONTINUOUS
 62
     7
100
AcDbLine
 10
25.9482795577
 20
73.0363442123
 30
0.0
 11
25.9482795577
 21
60.1607388378
 31
0.0
  0
LINE
  5
D9
330
1F
100
AcDbEntity
  8
0
  6
CONTINUOUS
 62
     7
100
AcDbLine
 10
25.9482795577
 20
401.5972627819
 30
0.0
 11
25.9482795577
 21
388.7216760338
 31
0.0
  0
ARC
  5
DA
330
1F
100
AcDbEntity
  8
0
  6
CONTINUOUS
 62
     7
100
AcDbCircle
 10
69.7497043703
 20
394.2350545731
 30
0.0
 40
5.170000000000113
100
AcDbArc
 50
173.9447482422
 51
332.3995433346
  0
ARC
  5
DB
330
1F
100
AcDbEntity
  8
0
  6
CONTINUOUS
 62
     7
100
AcDbCircle
 10
69.7497043053
 20
67.5229504584
 30
0.0
 40
5.169999999999904
100
AcDbArc
 50
27.6004769063
 51
186.0551898611
  0
ARC
  5
DC
330
1F
100
AcDbEntity
  8
0
  6
CONTINUOUS
 62
     7
100
AcDbCircle
 10
85.3155541721
 20
70.2676353594
 30
0.0
 40
5.169999999999972
100
AcDbArc
 50
13.9447482422
 51
172.3995433346
  0
ARC
  5
DD
330
1F
100
AcDbEntity
  8
0
  6
CONTINUOUS
 62
     7
100
AcDbCircle
 10
85.3155561496
 20
391.4903805185
 30
0.0
 40
5.170000000000083
100
AcDbArc
 50
187.6004769063
 51
346.0551905845
  0
ARC
  5
DE
330
1F
100
AcDbEntity
  8
0
  6
CONTINUOUS
 62
     7
100
AcDbCircle
 10
360.7234746809
 20
342.9285281889
 30
0.0
 40
5.170000000000011
100
AcDbArc
 50
173.9447482422
 51
332.3995433346
  0
ARC
  5
DF
330
1F
100
AcDbEntity
  8
0
  6
CONTINUOUS
 62
     7
100
AcDbCircle
 10
360.7234746159
 20
118.8294768427
 30
0.0
 40
5.170000000000064
100
AcDbArc
 50
27.6004769063
 51
186.0551898611
  0
ARC
  5
E0
330
1F
100
AcDbEntity
  8
0
  6
CONTINUOUS
 62
     7
100
AcDbCircle
 10
376.2893244827
 20
121.5741617436
 30
0.0
 40
5.169999999999936
100
AcDbArc
 50
13.9447482422
 51
172.3995433346
  0
ARC
  5
E1
330
1F
100
AcDbEntity
  8
0
  6
CONTINUOUS
 62
     7
100
AcDbCircle
 10
376.2893264602
 20
340.1838541343
 30
0.0
 40
5.169999999999978
100
AcDbArc
 50
187.6004769063
 51
346.0551905845
  0
LINE
  5
E2
330
1F
100
AcDbEntity
  8
0
  6
CONTINUOUS
 62
     7
100
AcDbLine
 10
407.9482769798
 20
127.5176419437
 30
0.0
 11
407.9482769798
 21
140.3932584942
 31
0.0
  0
LINE
  5
E3
330
1F
100
AcDbEntity
  8
0
  6
CONTINUOUS
 62
     7
100
AcDbLine
 10
407.9482769798
 20
321.3647617519
 30
0.0
 11
407.9482769798
 21
334.2403783024
 31
0.0
  0
ARC
  5
E4
330
1F
100
AcDbEntity
  8
0
  6
CONTINUOUS
 62
     7
100
AcDbCircle
 10
1565.8682800697
 20
49.0732622726
 30
0.0
 40
6.0
100
AcDbArc
 50
90.0
 51
180.0
  0
LINE
  5
E5
330
1F
100
AcDbEntity
  8
0
  6
CONTINUOUS
 62
     7
100
AcDbLine
 10
1695.1682782005
 20
55.073262614
 30
0.0
 11
1565.8682799171
 21
55.073262614
 31
0.0
  0
ARC
  5
E6
330
1F
100
AcDbEntity
  8
0
  6
CONTINUOUS
 62
     7
100
AcDbCircle
 10
1695.1682800697
 20
67.0732622726
 30
0.0
 40
12.0
100
AcDbArc
 50
270.0
 51
0.0
  0
LINE
  5
E7
330
1F
100
AcDbEntity
  8
0
  6
CONTINUOUS
 62
     7
100
AcDbLine
 10
1707.1682429146
 20
149.226771158
 30
0.0
 11
1707.1682429146
 21
67.073264581
 31
0.0
  0
ARC
  5
E8
330
1F
100
AcDbEntity
  8
0
  6
CONTINUOUS
 62
     7
100
AcDbCircle
 10
1719.8682800697
 20
149.2267655173
 30
0.0
 40
12.70000000000005
100
AcDbArc
 50
120.0
 51
180.0
  0
ARC
  5
E9
330
1F
100
AcDbEntity
  8
0
  6
CONTINUOUS
 62
     7
100
AcDbCircle
 10
1707.1682800697
 20
171.2238107735
 30
0.0
 40
12.70000000000005
100
AcDbArc
 50
300.0
 51
0.0
  0
LINE
  5
EA
330
1F
100
AcDbEntity
  8
0
  6
CONTINUOUS
 62
     7
100
AcDbLine
 10
1719.8683237861
 20
234.3852235496
 30
0.0
 11
1719.8683237861
 21
171.2238057077
 31
0.0
  0
ARC
  5
EB
330
1F
100
AcDbEntity
  8
0
  6
CONTINUOUS
 62
     7
100
AcDbCircle
 10
1707.1682800697
 20
234.3852235059
 30
0.0
 40
12.70000000000005
100
AcDbArc
 50
0.0
 51
60.0
  0
ARC
  5
EC
330
1F
100
AcDbEntity
  8
0
  6
CONTINUOUS
 62
     7
100
AcDbCircle
 10
1719.8682800697
 20
256.3822687621
 30
0.0
 40
12.70000000000005
100
AcDbArc
 50
180.0
 51
240.0
  0
LINE
  5
ED
330
1F
100
AcDbEntity
  8
0
  6
CONTINUOUS
 62
     7
100
AcDbLine
 10
1707.1682429146
 20
338.5357572258
 30
0.0
 11
1707.1682429146
 21
256.3822580994
 31
0.0
  0
ARC
  5
EE
330
1F
100
AcDbEntity
  8
0
  6
CONTINUOUS
 62
     7
100
AcDbCircle
 10
1695.1682800697
 20
338.5357720068
 30
0.0
 40
12.0
100
AcDbArc
 50
0.0
 51
90.0
  0
LINE
  5
EF
330
1F
100
AcDbEntity
  8
0
  6
CONTINUOUS
 62
     7
100
AcDbLine
 10
1565.8682799171
 20
350.5357815445
 30
0.0
 11
1695.1682782005
 21
350.5357815445
 31
0.0
  0
ARC
  5
F0
330
1F
100
AcDbEntity
  8
0
  6
CONTINUOUS
 62
     7
100
AcDbCircle
 10
1565.8682800697
 20
356.5357720068
 30
0.0
 40
6.0
100
AcDbArc
 50
180.0
 51
270.0
  0
LINE
  5
F1
330
1F
100
AcDbEntity
  8
0
  6
CONTINUOUS
 62
     7
100
AcDbLine
 10
1559.8682379554
 20
368.2857765377
 30
0.0
 11
1559.8682379554
 21
356.5357639015
 31
0.0
  0
ARC
  5
F2
330
1F
100
AcDbEntity
  8
0
  6
CONTINUOUS
 62
     7
100
AcDbCircle
 10
1560.8682800697
 20
368.2857720068
 30
0.0
 40
1.0
100
AcDbArc
 50
90.0
 51
180.0
  0
LINE
  5
F3
330
1F
100
AcDbEntity
  8
0
  6
CONTINUOUS
 62
     7
100
AcDbLine
 10
1560.8682846855
 20
369.2857636631
 30
0.0
 11
1572.1283173393
 21
369.2857636631
 31
0.0
  0
LINE
  5
F4
330
1F
100
AcDbEntity
  8
0
  6
CONTINUOUS
 62
     7
100
AcDbLine
 10
1572.1283173393
 20
369.2857636631
 30
0.0
 11
1572.4684214424
 21
363.9718903721
 31
0.0
  0
ARC
  5
F5
330
1F
100
AcDbEntity
  8
0
  6
CONTINUOUS
 62
     7
100
AcDbCircle
 10
1573.4663259768
 20
364.0357720068
 30
0.0
 40
1.0
100
AcDbArc
 50
183.6619355755
 51
270.0
  0
LINE
  5
F6
330
1F
100
AcDbEntity
  8
0
  6
CONTINUOUS
 62
     7
100
AcDbLine
 10
1573.4663224052
 20
363.0357696236
 30
0.0
 11
1581.4060187172
 21
363.0357696236
 31
0.0
  0
ARC
  5
F7
330
1F
100
AcDbEntity
  8
0
  6
CONTINUOUS
 62
     7
100
AcDbCircle
 10
1581.4060016863
 20
362.0357720068
 30
0.0
 40
0.99999999999989
100
AcDbArc
 50
65.1121079736
 51
90.0
  0
ARC
  5
F8
330
1F
100
AcDbEntity
  8
0
  6
CONTINUOUS
 62
     7
100
AcDbCircle
 10
1584.0026099301
 20
367.6327824256
 30
0.0
 40
5.17000000000008
100
AcDbArc
 50
245.1121079736
 51
72.3995332141
  0
ARC
  5
F9
330
1F
100
AcDbEntity
  8
0
  6
CONTINUOUS
 62
     7
100
AcDbCircle
 10
1585.8682800697
 20
373.5139536465
 30
0.0
 40
1.0
100
AcDbArc
 50
180.0
 51
252.3995332141
  0
LINE
  5
FA
330
1F
100
AcDbEntity
  8
0
  6
CONTINUOUS
 62
     7
100
AcDbLine
 10
1584.8683333229
 20
375.5377842605
 30
0.0
 11
1584.8683333229
 21
373.5139681518
 31
0.0
  0
LINE
  5
FB
330
1F
100
AcDbEntity
  8
0
  6
CONTINUOUS
 62
     7
100
AcDbLine
 10
1707.8682398628
 20
375.5377842605
 30
0.0
 11
1584.8683333229
 21
375.5377842605
 31
0.0
  0
ARC
  5
FC
330
1F
100
AcDbEntity
  8
0
  6
CONTINUOUS
 62
     7
100
AcDbCircle
 10
1707.8682800697
 20
363.5377720068
 30
0.0
 40
12.00000000000023
100
AcDbArc
 50
0.0
 51
90.0
  0
LINE
  5
FD
330
1F
100
AcDbEntity
  8
0
  6
CONTINUOUS
 62
     7
100
AcDbLine
 10
1719.8683237861
 20
268.382282418
 30
0.0
 11
1719.8683237861
 21
363.5377599419
 31
0.0
  0
ARC
  5
FE
330
1F
100
AcDbEntity
  8
0
  6
CONTINUOUS
 62
     7
100
AcDbCircle
 10
1731.8682800697
 20
268.3822687621
 30
0.0
 40
12.00000000000006
100
AcDbArc
 50
180.0
 51
270.0
  0
LINE
  5
FF
330
1F
100
AcDbEntity
  8
0
  6
CONTINUOUS
 62
     7
100
AcDbLine
 10
1747.8683209251
 20
256.3822580994
 30
0.0
 11
1731.8682885002
 21
256.3822580994
 31
0.0
  0
ARC
  5
100
330
1F
100
AcDbEntity
  8
0
  6
CONTINUOUS
 62
     7
100
AcDbCircle
 10
1747.8682800697
 20
268.3822687621
 30
0.0
 40
12.00000000000006
100
AcDbArc
 50
270.0
 51
0.0
  0
LINE
  5
101
330
1F
100
AcDbEntity
  8
0
  6
CONTINUOUS
 62
     7
100
AcDbLine
 10
1759.8682856392
 20
363.5377599419
 30
0.0
 11
1759.8682856392
 21
268.382282418
 31
0.0
  0
ARC
  5
102
330
1F
100
AcDbEntity
  8
0
  6
CONTINUOUS
 62
     7
100
AcDbCircle
 10
1771.8682800697
 20
363.5377720068
 30
0.0
 40
12.0
100
AcDbArc
 50
90.0
 51
180.0
  0
LINE
  5
103
330
1F
100
AcDbEntity
  8
0
  6
CONTINUOUS
 62
     7
100
AcDbLine
 10
1894.8682761024
 20
375.5377842605
 30
0.0
 11
1771.8682503532
 21
375.5377842605
 31
0.0
  0
LINE
  5
104
330
1F
100
AcDbEntity
  8
0
  6
CONTINUOUS
 62
     7
100
AcDbLine
 10
1894.8682761024
 20
373.5139681518
 30
0.0
 11
1894.8682761024
 21
375.5377842605
 31
0.0
  0
ARC
  5
105
330
1F
100
AcDbEntity
  8
0
  6
CONTINUOUS
 62
     7
100
AcDbCircle
 10
1893.8682800697
 20
373.5139536465
 30
0.0
 40
1.0
100
AcDbArc
 50
287.6004667859
 51
0.0
  0
ARC
  5
106
330
1F
100
AcDbEntity
  8
0
  6
CONTINUOUS
 62
     7
100
AcDbCircle
 10
1895.7339502093
 20
367.6327824256
 30
0.0
 40
5.17000000000008
100
AcDbArc
 50
107.6004667859
 51
294.8878920264
  0
ARC
  5
107
330
1F
100
AcDbEntity
  8
0
  6
CONTINUOUS
 62
     7
100
AcDbCircle
 10
1898.3305584531
 20
362.0357720068
 30
0.0
 40
1.0
100
AcDbArc
 50
90.0
 51
114.8878920264
  0
LINE
  5
108
330
1F
100
AcDbEntity
  8
0
  6
CONTINUOUS
 62
     7
100
AcDbLine
 10
1898.3305907081
 20
363.0357696236
 30
0.0
 11
1906.2702870201
 21
363.0357696236
 31
0.0
  0
ARC
  5
109
330
1F
100
AcDbEntity
  8
0
  6
CONTINUOUS
 62
     7
100
AcDbCircle
 10
1906.2702341626
 20
364.0357720068
 30
0.0
 40
1.00000000000016
100
AcDbArc
 50
270.0
 51
356.3380644245
  0
LINE
  5
10A
330
1F
100
AcDbEntity
  8
0
  6
CONTINUOUS
 62
     7
100
AcDbLine
 10
1907.2681879829
 20
363.9718903721
 30
0.0
 11
1907.608292086
 21
369.2857636631
 31
0.0
  0
LINE
  5
10B
330
1F
100
AcDbEntity
  8
0
  6
CONTINUOUS
 62
     7
100
AcDbLine
 10
1907.608292086
 20
369.2857636631
 30
0.0
 11
1918.8683247398
 21
369.2857636631
 31
0.0
  0
ARC
  5
10C
330
1F
100
AcDbEntity
  8
0
  6
CONTINUOUS
 62
     7
100
AcDbCircle
 10
1918.8682800697
 20
368.2857720068
 30
0.0
 40
1.0
100
AcDbArc
 50
0.0
 51
90.0
  0
LINE
  5
10D
330
1F
100
AcDbEntity
  8
0
  6
CONTINUOUS
 62
     7
100
AcDbLine
 10
1919.8682522606
 20
356.5357639015
 30
0.0
 11
1919.8682522606
 21
368.2857765377
 31
0.0
  0
ARC
  5
10E
330
1F
100
AcDbEntity
  8
0
  6
CONTINUOUS
 62
     7
100
AcDbCircle
 10
1913.8682800697
 20
356.5357720068
 30
0.0
 40
6.000000000000057
100
AcDbArc
 50
270.0
 51
0.0
  0
LINE
  5
10F
330
1F
100
AcDbEntity
  8
0
  6
CONTINUOUS
 62
     7
100
AcDbLine
 10
1784.5683312248
 20
350.5357815445
 30
0.0
 11
1913.8683295082
 21
350.5357815445
 31
0.0
  0
ARC
  5
110
330
1F
100
AcDbEntity
  8
0
  6
CONTINUOUS
 62
     7
100
AcDbCircle
 10
1784.5682800697
 20
338.5357720068
 30
0.0
 40
12.00000000000023
100
AcDbArc
 50
90.0
 51
180.0
  0
LINE
  5
111
330
1F
100
AcDbEntity
  8
0
  6
CONTINUOUS
 62
     7
100
AcDbLine
 10
1772.5682473015
 20
256.3822580994
 30
0.0
 11
1772.5682473015
 21
338.5357572258
 31
0.0
  0
ARC
  5
112
330
1F
100
AcDbEntity
  8
0
  6
CONTINUOUS
 62
     7
100
AcDbCircle
 10
1759.8682800697
 20
256.3822687621
 30
0.0
 40
12.69999999999982
100
AcDbArc
 50
300.0
 51
0.0
  0
ARC
  5
113
330
1F
100
AcDbEntity
  8
0
  6
CONTINUOUS
 62
     7
100
AcDbCircle
 10
1772.5682800697
 20
234.3852235059
 30
0.0
 40
12.70000000000002
100
AcDbArc
 50
120.0
 51
180.0
  0
LINE
  5
114
330
1F
100
AcDbEntity
  8
0
  6
CONTINUOUS
 62
     7
100
AcDbLine
 10
1759.8682856392
 20
171.2238057077
 30
0.0
 11
1759.8682856392
 21
234.3852235496
 31
0.0
  0
ARC
  5
115
330
1F
100
AcDbEntity
  8
0
  6
CONTINUOUS
 62
     7
100
AcDbCircle
 10
1772.5682800697
 20
171.2238107735
 30
0.0
 40
12.70000000000002
100
AcDbArc
 50
180.0
 51
240.0
  0
ARC
  5
116
330
1F
100
AcDbEntity
  8
0
  6
CONTINUOUS
 62
     7
100
AcDbCircle
 10
1759.8682800697
 20
149.2267655173
 30
0.0
 40
12.69999999999982
100
AcDbArc
 50
0.0
 51
60.0
  0
LINE
  5
117
330
1F
100
AcDbEntity
  8
0
  6
CONTINUOUS
 62
     7
100
AcDbLine
 10
1772.5682473015
 20
67.073264581
 30
0.0
 11
1772.5682473015
 21
149.226771158
 31
0.0
  0
ARC
  5
118
330
1F
100
AcDbEntity
  8
0
  6
CONTINUOUS
 62
     7
100
AcDbCircle
 10
1784.5682800697
 20
67.0732622726
 30
0.0
 40
12.00000000000018
100
AcDbArc
 50
180.0
 51
270.0
  0
LINE
  5
119
330
1F
100
AcDbEntity
  8
0
  6
CONTINUOUS
 62
     7
100
AcDbLine
 10
1913.8683295082
 20
55.073262614
 30
0.0
 11
1784.5683312248
 21
55.073262614
 31
0.0
  0
ARC
  5
11A
330
1F
100
AcDbEntity
  8
0
  6
CONTINUOUS
 62
     7
100
AcDbCircle
 10
1913.8682800697
 20
49.0732622726
 30
0.0
 40
6.0
100
AcDbArc
 50
0.0
 51
90.0
  0
LINE
  5
11B
330
1F
100
AcDbEntity
  8
0
  6
CONTINUOUS
 62
     7
100
AcDbLine
 10
1919.8682522606
 20
37.3232638955
 30
0.0
 11
1919.8682522606
 21
49.0732616306
 31
0.0
  0
ARC
  5
11C
330
1F
100
AcDbEntity
  8
0
  6
CONTINUOUS
 62
     7
100
AcDbCircle
 10
1918.8682800697
 20
37.3232622726
 30
0.0
 40
1.0
100
AcDbArc
 50
270.0
 51
0.0
  0
LINE
  5
11D
330
1F
100
AcDbEntity
  8
0
  6
CONTINUOUS
 62
     7
100
AcDbLine
 10
1918.8683247398
 20
36.323261869
 30
0.0
 11
1907.608292086
 21
36.323261869
 31
0.0
  0
LINE
  5
11E
330
1F
100
AcDbEntity
  8
0
  6
CONTINUOUS
 62
     7
100
AcDbLine
 10
1907.608292086
 20
36.323261869
 30
0.0
 11
1907.2681879829
 21
41.6371314347
 31
0.0
  0
ARC
  5
11F
330
1F
100
AcDbEntity
  8
0
  6
CONTINUOUS
 62
     7
100
AcDbCircle
 10
1906.2702341626
 20
41.5732622726
 30
0.0
 40
1.000000000000167
100
AcDbArc
 50
3.6619355755
 51
90.0
  0
LINE
  5
120
330
1F
100
AcDbEntity
  8
0
  6
CONTINUOUS
 62
     7
100
AcDbLine
 10
1906.2702870201
 20
42.5732633591
 30
0.0
 11
1898.3305907081
 21
42.5732633591
 31
0.0
  0
ARC
  5
121
330
1F
100
AcDbEntity
  8
0
  6
CONTINUOUS
 62
     7
100
AcDbCircle
 10
1898.3305584531
 20
43.5732622726
 30
0.0
 40
1.0
100
AcDbArc
 50
245.1121079736
 51
270.0
  0
ARC
  5
122
330
1F
100
AcDbEntity
  8
0
  6
CONTINUOUS
 62
     7
100
AcDbCircle
 10
1895.7339502093
 20
37.9762518538
 30
0.0
 40
5.170000000000043
100
AcDbArc
 50
65.1121079736
 51
252.3995332141
  0
ARC
  5
123
330
1F
100
AcDbEntity
  8
0
  6
CONTINUOUS
 62
     7
100
AcDbCircle
 10
1893.8682800697
 20
32.0950806329
 30
0.0
 40
1.0
100
AcDbArc
 50
0.0
 51
72.3995332141
  0
LINE
  5
124
330
1F
100
AcDbEntity
  8
0
  6
CONTINUOUS
 62
     7
100
AcDbLine
 10
1759.8682856392
 20
137.2267617405
 30
0.0
 11
1759.8682856392
 21
42.0712618649
 31
0.0
  0
ARC
  5
125
330
1F
100
AcDbEntity
  8
0
  6
CONTINUOUS
 62
     7
100
AcDbCircle
 10
1747.8682800697
 20
137.2267655173
 30
0.0
 40
12.0
100
AcDbArc
 50
0.0
 51
90.0
  0
LINE
  5
126
330
1F
100
AcDbEntity
  8
0
  6
CONTINUOUS
 62
     7
100
AcDbLine
 10
1731.8682885002
 20
149.226771158
 30
0.0
 11
1747.8683209251
 21
149.226771158
 31
0.0
  0
ARC
  5
127
330
1F
100
AcDbEntity
  8
0
  6
CONTINUOUS
 62
     7
100
AcDbCircle
 10
1731.8682800697
 20
137.2267655173
 30
0.0
 40
12.0
100
AcDbArc
 50
90.0
 51
180.0
  0
LINE
  5
128
330
1F
100
AcDbEntity
  8
0
  6
CONTINUOUS
 62
     7
100
AcDbLine
 10
1719.8683237861
 20
42.0712618649
 30
0.0
 11
1719.8683237861
 21
137.2267617405
 31
0.0
  0
ARC
  5
129
330
1F
100
AcDbEntity
  8
0
  6
CONTINUOUS
 62
     7
100
AcDbCircle
 10
1585.8682800697
 20
32.0950806329
 30
0.0
 40
1.000000000000227
100
AcDbArc
 50
107.6004667859
 51
180.0
  0
ARC
  5
12A
330
1F
100
AcDbEntity
  8
0
  6
CONTINUOUS
 62
     7
100
AcDbCircle
 10
1584.0026099301
 20
37.9762518538
 30
0.0
 40
5.170000000000112
100
AcDbArc
 50
287.6004667859
 51
114.8878920264
  0
ARC
  5
12B
330
1F
100
AcDbEntity
  8
0
  6
CONTINUOUS
 62
     7
100
AcDbCircle
 10
1581.4060016863
 20
43.5732622726
 30
0.0
 40
0.9999999999999727
100
AcDbArc
 50
270.0
 51
294.8878920264
  0
LINE
  5
12C
330
1F
100
AcDbEntity
  8
0
  6
CONTINUOUS
 62
     7
100
AcDbLine
 10
1581.4060187172
 20
42.5732633591
 30
0.0
 11
1573.4663224052
 21
42.5732633591
 31
0.0
  0
ARC
  5
12D
330
1F
100
AcDbEntity
  8
0
  6
CONTINUOUS
 62
     7
100
AcDbCircle
 10
1573.4663259768
 20
41.5732622726
 30
0.0
 40
1.0
100
AcDbArc
 50
90.0
 51
176.3380644245
  0
LINE
  5
12E
330
1F
100
AcDbEntity
  8
0
  6
CONTINUOUS
 62
     7
100
AcDbLine
 10
1572.4684214424
 20
41.6371314347
 30
0.0
 11
1572.1283173393
 21
36.323261869
 31
0.0
  0
LINE
  5
12F
330
1F
100
AcDbEntity
  8
0
  6
CONTINUOUS
 62
     7
100
AcDbLine
 10
1572.1283173393
 20
36.323261869
 30
0.0
 11
1560.8682846855
 21
36.323261869
 31
0.0
  0
ARC
  5
130
330
1F
100
AcDbEntity
  8
0
  6
CONTINUOUS
 62
     7
100
AcDbCircle
 10
1560.8682800697
 20
37.3232622726
 30
0.0
 40
1.0
100
AcDbArc
 50
180.0
 51
270.0
  0
LINE
  5
131
330
1F
100
AcDbEntity
  8
0
  6
CONTINUOUS
 62
     7
100
AcDbLine
 10
1559.8682379554
 20
49.0732616306
 30
0.0
 11
1559.8682379554
 21
37.3232638955
 31
0.0
  0
LINE
  5
132
330
1F
100
AcDbEntity
  8
0
  6
CONTINUOUS
 62
     7
100
AcDbLine
 10
1584.8683333229
 20
30.0712617606
 30
0.0
 11
1707.8682398628
 21
30.0712617606
 31
0.0
  0
LINE
  5
133
330
1F
100
AcDbEntity
  8
0
  6
CONTINUOUS
 62
     7
100
AcDbLine
 10
1771.8682503532
 20
30.0712617606
 30
0.0
 11
1894.8682761024
 21
30.0712617606
 31
0.0
  0
LINE
  5
134
330
1F
100
AcDbEntity
  8
0
  6
CONTINUOUS
 62
     7
100
AcDbLine
 10
1894.8682761024
 20
30.0712617606
 30
0.0
 11
1894.8682761024
 21
32.095079732
 31
0.0
  0
ARC
  5
135
330
1F
100
AcDbEntity
  8
0
  6
CONTINUOUS
 62
     7
100
AcDbCircle
 10
1771.8682800697
 20
42.0712622726
 30
0.0
 40
12.00000000000001
100
AcDbArc
 50
180.0
 51
270.0
  0
LINE
  5
136
330
1F
100
AcDbEntity
  8
0
  6
CONTINUOUS
 62
     7
100
AcDbLine
 10
1584.8683333229
 20
32.095079732
 30
0.0
 11
1584.8683333229
 21
30.0712617606
 31
0.0
  0
ARC
  5
137
330
1F
100
AcDbEntity
  8
0
  6
CONTINUOUS
 62
     7
100
AcDbCircle
 10
1707.8682800697
 20
42.0712622726
 30
0.0
 40
12.00000000000023
100
AcDbArc
 50
270.0
 51
0.0
  0
ARC
  5
138
330
1F
100
AcDbEntity
  8
0
  6
CONTINUOUS
 62
     7
100
AcDbCircle
 10
1913.8682800697
 20
733.4782817409
 30
0.0
 40
6.0
100
AcDbArc
 50
270.0
 51
0.0
  0
LINE
  5
139
330
1F
100
AcDbEntity
  8
0
  6
CONTINUOUS
 62
     7
100
AcDbLine
 10
1784.5683312248
 20
727.4782969177
 30
0.0
 11
1913.8683295082
 21
727.4782969177
 31
0.0
  0
ARC
  5
13A
330
1F
100
AcDbEntity
  8
0
  6
CONTINUOUS
 62
     7
100
AcDbCircle
 10
1784.5682800697
 20
715.4782817409
 30
0.0
 40
12.0
100
AcDbArc
 50
90.0
 51
180.0
  0
LINE
  5
13B
330
1F
100
AcDbEntity
  8
0
  6
CONTINUOUS
 62
     7
100
AcDbLine
 10
1772.5682473015
 20
633.3247734726
 30
0.0
 11
1772.5682473015
 21
715.478272599
 31
0.0
  0
ARC
  5
13C
330
1F
100
AcDbEntity
  8
0
  6
CONTINUOUS
 62
     7
100
AcDbCircle
 10
1759.8682800697
 20
633.3247784962
 30
0.0
 40
12.69999999999984
100
AcDbArc
 50
300.0
 51
0.0
  0
ARC
  5
13D
330
1F
100
AcDbEntity
  8
0
  6
CONTINUOUS
 62
     7
100
AcDbCircle
 10
1772.5682800697
 20
611.3277332401
 30
0.0
 40
12.69999999999993
100
AcDbArc
 50
120.0
 51
180.0
  0
LINE
  5
13E
330
1F
100
AcDbEntity
  8
0
  6
CONTINUOUS
 62
     7
100
AcDbLine
 10
1759.8682856392
 20
548.1663061798
 30
0.0
 11
1759.8682856392
 21
611.3277389229
 31
0.0
  0
ARC
  5
13F
330
1F
100
AcDbEntity
  8
0
  6
CONTINUOUS
 62
     7
100
AcDbCircle
 10
1772.5682800697
 20
548.1663205076
 30
0.0
 40
12.69999999999993
100
AcDbArc
 50
180.0
 51
240.0
  0
ARC
  5
140
330
1F
100
AcDbEntity
  8
0
  6
CONTINUOUS
 62
     7
100
AcDbCircle
 10
1759.8682800697
 20
526.1692752515
 30
0.0
 40
12.69999999999993
100
AcDbArc
 50
0.0
 51
60.0
  0
LINE
  5
141
330
1F
100
AcDbEntity
  8
0
  6
CONTINUOUS
 62
     7
100
AcDbLine
 10
1772.5682473015
 20
444.0157725036
 30
0.0
 11
1772.5682473015
 21
526.1692716301
 31
0.0
  0
ARC
  5
142
330
1F
100
AcDbEntity
  8
0
  6
CONTINUOUS
 62
     7
100
AcDbCircle
 10
1784.5682800697
 20
444.0157720068
 30
0.0
 40
12.0
100
AcDbArc
 50
180.0
 51
270.0
  0
LINE
  5
143
330
1F
100
AcDbEntity
  8
0
  6
CONTINUOUS
 62
     7
100
AcDbLine
 10
1913.8683295082
 20
432.0157779873
 30
0.0
 11
1784.5683312248
 21
432.0157779873
 31
0.0
  0
ARC
  5
144
330
1F
100
AcDbEntity
  8
0
  6
CONTINUOUS
 62
     7
100
AcDbCircle
 10
1913.8682800697
 20
426.0157720068
 30
0.0
 40
6.0
100
AcDbArc
 50
0.0
 51
90.0
  0
LINE
  5
145
330
1F
100
AcDbEntity
  8
0
  6
CONTINUOUS
 62
     7
100
AcDbLine
 10
1919.8682522606
 20
414.2657829941
 30
0.0
 11
1919.8682522606
 21
426.0157658279
 31
0.0
  0
ARC
  5
146
330
1F
100
AcDbEntity
  8
0
  6
CONTINUOUS
 62
     7
100
AcDbCircle
 10
1918.8682800697
 20
414.2657720068
 30
0.0
 40
1.0
100
AcDbArc
 50
270.0
 51
0.0
  0
LINE
  5
147
330
1F
100
AcDbEntity
  8
0
  6
CONTINUOUS
 62
     7
100
AcDbLine
 10
1918.8683247398
 20
413.2657660663
 30
0.0
 11
1907.608292086
 21
413.2657660663
 31
0.0
  0
LINE
  5
148
330
1F
100
AcDbEntity
  8
0
  6
CONTINUOUS
 62
     7
100
AcDbLine
 10
1907.608292086
 20
413.2657660663
 30
0.0
 11
1907.2681879829
 21
418.5796393574
 31
0.0
  0
ARC
  5
149
330
1F
100
AcDbEntity
  8
0
  6
CONTINUOUS
 62
     7
100
AcDbCircle
 10
1906.2702341626
 20
418.5157720068
 30
0.0
 40
1.0
100
AcDbArc
 50
3.6619355755
 51
90.0
  0
LINE
  5
14A
330
1F
100
AcDbEntity
  8
0
  6
CONTINUOUS
 62
     7
100
AcDbLine
 10
1906.2702870201
 20
419.5157601059
 30
0.0
 11
1898.3305907081
 21
419.5157601059
 31
0.0
  0
ARC
  5
14B
330
1F
100
AcDbEntity
  8
0
  6
CONTINUOUS
 62
     7
100
AcDbCircle
 10
1898.3305584531
 20
420.5157720068
 30
0.0
 40
0.99999999999989
100
AcDbArc
 50
245.1121079736
 51
270.0
  0
ARC
  5
14C
330
1F
100
AcDbEntity
  8
0
  6
CONTINUOUS
 62
     7
100
AcDbCircle
 10
1895.7339502093
 20
414.918761588
 30
0.0
 40
5.17000000000008
100
AcDbArc
 50
65.1121079736
 51
252.3995332141
  0
ARC
  5
14D
330
1F
100
AcDbEntity
  8
0
  6
CONTINUOUS
 62
     7
100
AcDbCircle
 10
1893.8682800697
 20
409.037590367
 30
0.0
 40
1.0
100
AcDbArc
 50
0.0
 51
72.3995332141
  0
LINE
  5
14E
330
1F
100
AcDbEntity
  8
0
  6
CONTINUOUS
 62
     7
100
AcDbLine
 10
1771.8682503532
 20
407.0137752712
 30
0.0
 11
1894.8682761024
 21
407.0137752712
 31
0.0
  0
LINE
  5
14F
330
1F
100
AcDbEntity
  8
0
  6
CONTINUOUS
 62
     7
100
AcDbLine
 10
1759.8682856392
 20
514.1692473114
 30
0.0
 11
1759.8682856392
 21
419.0137697876
 31
0.0
  0
ARC
  5
150
330
1F
100
AcDbEntity
  8
0
  6
CONTINUOUS
 62
     7
100
AcDbCircle
 10
1747.8682800697
 20
514.1692752515
 30
0.0
 40
12.0
100
AcDbArc
 50
0.0
 51
90.0
  0
LINE
  5
151
330
1F
100
AcDbEntity
  8
0
  6
CONTINUOUS
 62
     7
100
AcDbLine
 10
1731.8682885002
 20
526.1692716301
 30
0.0
 11
1747.8683209251
 21
526.1692716301
 31
0.0
  0
ARC
  5
152
330
1F
100
AcDbEntity
  8
0
  6
CONTINUOUS
 62
     7
100
AcDbCircle
 10
1731.8682800697
 20
514.1692752515
 30
0.0
 40
12.0
100
AcDbArc
 50
90.0
 51
180.0
  0
LINE
  5
153
330
1F
100
AcDbEntity
  8
0
  6
CONTINUOUS
 62
     7
100
AcDbLine
 10
1719.8683237861
 20
419.0137697876
 30
0.0
 11
1719.8683237861
 21
514.1692473114
 31
0.0
  0
ARC
  5
154
330
1F
100
AcDbEntity
  8
0
  6
CONTINUOUS
 62
     7
100
AcDbCircle
 10
1707.8682800697
 20
419.0137720068
 30
0.0
 40
12.00000000000023
100
AcDbArc
 50
270.0
 51
0.0
  0
LINE
  5
155
330
1F
100
AcDbEntity
  8
0
  6
CONTINUOUS
 62
     7
100
AcDbLine
 10
1584.8683333229
 20
407.0137752712
 30
0.0
 11
1707.8682398628
 21
407.0137752712
 31
0.0
  0
ARC
  5
156
330
1F
100
AcDbEntity
  8
0
  6
CONTINUOUS
 62
     7
100
AcDbCircle
 10
1585.8682800697
 20
409.037590367
 30
0.0
 40
1.0
100
AcDbArc
 50
107.6004667859
 51
180.0
  0
ARC
  5
157
330
1F
100
AcDbEntity
  8
0
  6
CONTINUOUS
 62
     7
100
AcDbCircle
 10
1584.0026099301
 20
414.918761588
 30
0.0
 40
5.17000000000008
100
AcDbArc
 50
287.6004667859
 51
114.8878920264
  0
ARC
  5
158
330
1F
100
AcDbEntity
  8
0
  6
CONTINUOUS
 62
     7
100
AcDbCircle
 10
1581.4060016863
 20
420.5157720068
 30
0.0
 40
1.0
100
AcDbArc
 50
270.0
 51
294.8878920264
  0
LINE
  5
159
330
1F
100
AcDbEntity
  8
0
  6
CONTINUOUS
 62
     7
100
AcDbLine
 10
1581.4060187172
 20
419.5157601059
 30
0.0
 11
1573.4663224052
 21
419.5157601059
 31
0.0
  0
ARC
  5
15A
330
1F
100
AcDbEntity
  8
0
  6
CONTINUOUS
 62
     7
100
AcDbCircle
 10
1573.4663259768
 20
418.5157720068
 30
0.0
 40
1.0
100
AcDbArc
 50
90.0
 51
176.3380644245
  0
LINE
  5
15B
330
1F
100
AcDbEntity
  8
0
  6
CONTINUOUS
 62
     7
100
AcDbLine
 10
1572.4684214424
 20
418.5796393574
 30
0.0
 11
1572.1283173393
 21
413.2657660663
 31
0.0
  0
LINE
  5
15C
330
1F
100
AcDbEntity
  8
0
  6
CONTINUOUS
 62
     7
100
AcDbLine
 10
1572.1283173393
 20
413.2657660663
 30
0.0
 11
1560.8682846855
 21
413.2657660663
 31
0.0
  0
ARC
  5
15D
330
1F
100
AcDbEntity
  8
0
  6
CONTINUOUS
 62
     7
100
AcDbCircle
 10
1560.8682800697
 20
414.2657720068
 30
0.0
 40
1.0
100
AcDbArc
 50
180.0
 51
270.0
  0
LINE
  5
15E
330
1F
100
AcDbEntity
  8
0
  6
CONTINUOUS
 62
     7
100
AcDbLine
 10
1559.8682379554
 20
426.0157658279
 30
0.0
 11
1559.8682379554
 21
414.2657829941
 31
0.0
  0
ARC
  5
15F
330
1F
100
AcDbEntity
  8
0
  6
CONTINUOUS
 62
     7
100
AcDbCircle
 10
1565.8682800697
 20
426.0157720068
 30
0.0
 40
6.000000000000057
100
AcDbArc
 50
90.0
 51
180.0
  0
LINE
  5
160
330
1F
100
AcDbEntity
  8
0
  6
CONTINUOUS
 62
     7
100
AcDbLine
 10
1695.1682782005
 20
432.0157779873
 30
0.0
 11
1565.8682799171
 21
432.0157779873
 31
0.0
  0
ARC
  5
161
330
1F
100
AcDbEntity
  8
0
  6
CONTINUOUS
 62
     7
100
AcDbCircle
 10
1695.1682800697
 20
444.0157720068
 30
0.0
 40
12.00000000000023
100
AcDbArc
 50
270.0
 51
0.0
  0
LINE
  5
162
330
1F
100
AcDbEntity
  8
0
  6
CONTINUOUS
 62
     7
100
AcDbLine
 10
1707.1682429146
 20
526.1692716301
 30
0.0
 11
1707.1682429146
 21
444.0157725036
 31
0.0
  0
ARC
  5
163
330
1F
100
AcDbEntity
  8
0
  6
CONTINUOUS
 62
     7
100
AcDbCircle
 10
1719.8682800697
 20
526.1692752515
 30
0.0
 40
12.70000000000005
100
AcDbArc
 50
120.0
 51
180.0
  0
ARC
  5
164
330
1F
100
AcDbEntity
  8
0
  6
CONTINUOUS
 62
     7
100
AcDbCircle
 10
1707.1682800697
 20
548.1663205076
 30
0.0
 40
12.70000000000005
100
AcDbArc
 50
300.0
 51
0.0
  0
LINE
  5
165
330
1F
100
AcDbEntity
  8
0
  6
CONTINUOUS
 62
     7
100
AcDbLine
 10
1719.8683237861
 20
611.3277389229
 30
0.0
 11
1719.8683237861
 21
548.1663061798
 31
0.0
  0
ARC
  5
166
330
1F
100
AcDbEntity
  8
0
  6
CONTINUOUS
 62
     7
100
AcDbCircle
 10
1707.1682800697
 20
611.3277332401
 30
0.0
 40
12.70000000000005
100
AcDbArc
 50
0.0
 51
60.0
  0
ARC
  5
167
330
1F
100
AcDbEntity
  8
0
  6
CONTINUOUS
 62
     7
100
AcDbCircle
 10
1719.8682800697
 20
633.3247784962
 30
0.0
 40
12.70000000000005
100
AcDbArc
 50
180.0
 51
240.0
  0
LINE
  5
168
330
1F
100
AcDbEntity
  8
0
  6
CONTINUOUS
 62
     7
100
AcDbLine
 10
1707.1682429146
 20
715.478272599
 30
0.0
 11
1707.1682429146
 21
633.3247734726
 31
0.0
  0
ARC
  5
169
330
1F
100
AcDbEntity
  8
0
  6
CONTINUOUS
 62
     7
100
AcDbCircle
 10
1695.1682800697
 20
715.4782817409
 30
0.0
 40
12.00000000000023
100
AcDbArc
 50
0.0
 51
90.0
  0
LINE
  5
16A
330
1F
100
AcDbEntity
  8
0
  6
CONTINUOUS
 62
     7
100
AcDbLine
 10
1565.8682799171
 20
727.4782969177
 30
0.0
 11
1695.1682782005
 21
727.4782969177
 31
0.0
  0
ARC
  5
16B
330
1F
100
AcDbEntity
  8
0
  6
CONTINUOUS
 62
     7
100
AcDbCircle
 10
1565.8682800697
 20
733.4782817409
 30
0.0
 40
6.0
100
AcDbArc
 50
180.0
 51
270.0
  0
LINE
  5
16C
330
1F
100
AcDbEntity
  8
0
  6
CONTINUOUS
 62
     7
100
AcDbLine
 10
1559.8682379554
 20
745.2282621086
 30
0.0
 11
1559.8682379554
 21
733.4782792747
 31
0.0
  0
ARC
  5
16D
330
1F
100
AcDbEntity
  8
0
  6
CONTINUOUS
 62
     7
100
AcDbCircle
 10
1560.8682800697
 20
745.2282817409
 30
0.0
 40
1.0
100
AcDbArc
 50
90.0
 51
180.0
  0
LINE
  5
16E
330
1F
100
AcDbEntity
  8
0
  6
CONTINUOUS
 62
     7
100
AcDbLine
 10
1560.8682846855
 20
746.2283088386
 30
0.0
 11
1572.1283173393
 21
746.2283088386
 31
0.0
  0
LINE
  5
16F
330
1F
100
AcDbEntity
  8
0
  6
CONTINUOUS
 62
     7
100
AcDbLine
 10
1572.1283173393
 20
746.2283088386
 30
0.0
 11
1572.4684214424
 21
740.9144355476
 31
0.0
  0
ARC
  5
170
330
1F
100
AcDbEntity
  8
0
  6
CONTINUOUS
 62
     7
100
AcDbCircle
 10
1573.4663259768
 20
740.9782817409
 30
0.0
 40
1.0
100
AcDbArc
 50
183.6619355755
 51
270.0
  0
LINE
  5
171
330
1F
100
AcDbEntity
  8
0
  6
CONTINUOUS
 62
     7
100
AcDbLine
 10
1573.4663224052
 20
739.9782849968
 30
0.0
 11
1581.4060187172
 21
739.9782849968
 31
0.0
  0
ARC
  5
172
330
1F
100
AcDbEntity
  8
0
  6
CONTINUOUS
 62
     7
100
AcDbCircle
 10
1581.4060016863
 20
738.9782817409
 30
0.0
 40
1.000000000000045
100
AcDbArc
 50
65.1121079736
 51
90.0
  0
ARC
  5
173
330
1F
100
AcDbEntity
  8
0
  6
CONTINUOUS
 62
     7
100
AcDbCircle
 10
1584.0026099301
 20
744.5752921597
 30
0.0
 40
5.17000000000007
100
AcDbArc
 50
245.1121079736
 51
72.3995332141
  0
ARC
  5
174
330
1F
100
AcDbEntity
  8
0
  6
CONTINUOUS
 62
     7
100
AcDbCircle
 10
1585.8682800697
 20
750.4564633807
 30
0.0
 40
1.0
100
AcDbArc
 50
180.0
 51
252.3995332141
  0
LINE
  5
175
330
1F
100
AcDbEntity
  8
0
  6
CONTINUOUS
 62
     7
100
AcDbLine
 10
1584.8683333229
 20
752.4802996338
 30
0.0
 11
1584.8683333229
 21
750.4564835251
 31
0.0
  0
LINE
  5
176
330
1F
100
AcDbEntity
  8
0
  6
CONTINUOUS
 62
     7
100
AcDbLine
 10
1707.8682398628
 20
752.4802996338
 30
0.0
 11
1584.8683333229
 21
752.4802996338
 31
0.0
  0
ARC
  5
177
330
1F
100
AcDbEntity
  8
0
  6
CONTINUOUS
 62
     7
100
AcDbCircle
 10
1707.8682800697
 20
740.4802817409
 30
0.0
 40
12.00000000000023
100
AcDbArc
 50
0.0
 51
90.0
  0
LINE
  5
178
330
1F
100
AcDbEntity
  8
0
  6
CONTINUOUS
 62
     7
100
AcDbLine
 10
1719.8683237861
 20
645.3247977913
 30
0.0
 11
1719.8683237861
 21
740.4802753151
 31
0.0
  0
ARC
  5
179
330
1F
100
AcDbEntity
  8
0
  6
CONTINUOUS
 62
     7
100
AcDbCircle
 10
1731.8682800697
 20
645.3247784962
 30
0.0
 40
12.0
100
AcDbArc
 50
180.0
 51
270.0
  0
LINE
  5
17A
330
1F
100
AcDbEntity
  8
0
  6
CONTINUOUS
 62
     7
100
AcDbLine
 10
1747.8683209251
 20
633.3247734726
 30
0.0
 11
1731.8682885002
 21
633.3247734726
 31
0.0
  0
ARC
  5
17B
330
1F
100
AcDbEntity
  8
0
  6
CONTINUOUS
 62
     7
100
AcDbCircle
 10
1747.8682800697
 20
645.3247784962
 30
0.0
 40
12.0
100
AcDbArc
 50
270.0
 51
0.0
  0
LINE
  5
17C
330
1F
100
AcDbEntity
  8
0
  6
CONTINUOUS
 62
     7
100
AcDbLine
 10
1759.8682856392
 20
740.4802753151
 30
0.0
 11
1759.8682856392
 21
645.3247977913
 31
0.0
  0
ARC
  5
17D
330
1F
100
AcDbEntity
  8
0
  6
CONTINUOUS
 62
     7
100
AcDbCircle
 10
1771.8682800697
 20
740.4802817409
 30
0.0
 40
12.0
100
AcDbArc
 50
90.0
 51
180.0
  0
LINE
  5
17E
330
1F
100
AcDbEntity
  8
0
  6
CONTINUOUS
 62
     7
100
AcDbLine
 10
1894.8682761024
 20
752.4802996338
 30
0.0
 11
1771.8682503532
 21
752.4802996338
 31
0.0
  0
LINE
  5
17F
330
1F
100
AcDbEntity
  8
0
  6
CONTINUOUS
 62
     7
100
AcDbLine
 10
1894.8682761024
 20
750.4564835251
 30
0.0
 11
1894.8682761024
 21
752.4802996338
 31
0.0
  0
ARC
  5
180
330
1F
100
AcDbEntity
  8
0
  6
CONTINUOUS
 62
     7
100
AcDbCircle
 10
1893.8682800697
 20
750.4564633807
 30
0.0
 40
1.000000000000227
100
AcDbArc
 50
287.6004667859
 51
0.0
  0
ARC
  5
181
330
1F
100
AcDbEntity
  8
0
  6
CONTINUOUS
 62
     7
100
AcDbCircle
 10
1895.7339502093
 20
744.5752921597
 30
0.0
 40
5.17000000000007
100
AcDbArc
 50
107.6004667859
 51
294.8878920264
  0
ARC
  5
182
330
1F
100
AcDbEntity
  8
0
  6
CONTINUOUS
 62
     7
100
AcDbCircle
 10
1898.3305584531
 20
738.9782817409
 30
0.0
 40
1.000000000000037
100
AcDbArc
 50
90.0
 51
114.8878920264
  0
LINE
  5
183
330
1F
100
AcDbEntity
  8
0
  6
CONTINUOUS
 62
     7
100
AcDbLine
 10
1898.3305907081
 20
739.9782849968
 30
0.0
 11
1906.2702870201
 21
739.9782849968
 31
0.0
  0
ARC
  5
184
330
1F
100
AcDbEntity
  8
0
  6
CONTINUOUS
 62
     7
100
AcDbCircle
 10
1906.2702341626
 20
740.9782817409
 30
0.0
 40
1.000000000000156
100
AcDbArc
 50
270.0
 51
356.3380644245
  0
LINE
  5
185
330
1F
100
AcDbEntity
  8
0
  6
CONTINUOUS
 62
     7
100
AcDbLine
 10
1907.2681879829
 20
740.9144355476
 30
0.0
 11
1907.608292086
 21
746.2283088386
 31
0.0
  0
LINE
  5
186
330
1F
100
AcDbEntity
  8
0
  6
CONTINUOUS
 62
     7
100
AcDbLine
 10
1907.608292086
 20
746.2283088386
 30
0.0
 11
1918.8683247398
 21
746.2283088386
 31
0.0
  0
ARC
  5
187
330
1F
100
AcDbEntity
  8
0
  6
CONTINUOUS
 62
     7
100
AcDbCircle
 10
1918.8682800697
 20
745.2282817409
 30
0.0
 40
1.0
100
AcDbArc
 50
0.0
 51
90.0
  0
LINE
  5
188
330
1F
100
AcDbEntity
  8
0
  6
CONTINUOUS
 62
     7
100
AcDbLine
 10
1919.8682522606
 20
733.4782792747
 30
0.0
 11
1919.8682522606
 21
745.2282621086
 31
0.0
  0
LINE
  5
189
330
1F
100
AcDbEntity
  8
0
  6
CONTINUOUS
 62
     7
100
AcDbLine
 10
1584.8683333229
 20
409.0375913799
 30
0.0
 11
1584.8683333229
 21
407.0137752712
 31
0.0
  0
LINE
  5
18A
330
1F
100
AcDbEntity
  8
0
  6
CONTINUOUS
 62
     7
100
AcDbLine
 10
1894.8682761024
 20
407.0137752712
 30
0.0
 11
1894.8682761024
 21
409.0375913799
 31
0.0
  0
ARC
  5
18B
330
1F
100
AcDbEntity
  8
0
  6
CONTINUOUS
 62
     7
100
AcDbCircle
 10
1771.8682800697
 20
419.0137720068
 30
0.0
 40
12.0
100
AcDbArc
 50
180.0
 51
270.0
  0
ARC
  5
18C
330
1F
100
AcDbEntity
  8
0
  6
CONTINUOUS
 62
     7
100
AcDbCircle
 10
483.3721075064
 20
67.5480599849
 30
0.0
 40
5.169999053433727
100
AcDbArc
 50
186.0551898611
 51
214.8878382498
  0
ARC
  5
18D
330
1F
100
AcDbEntity
  8
0
  6
CONTINUOUS
 62
     7
100
AcDbCircle
 10
478.3110239022
 20
64.0189960091
 30
0.0
 40
0.9999986349374527
100
AcDbArc
 50
10.0
 51
34.8878382498
  0
LINE
  5
18E
330
1F
100
AcDbEntity
  8
0
  6
CONTINUOUS
 62
     7
100
AcDbLine
 10
480.2362239193
 20
58.8594651342
 30
0.0
 11
479.2958414386
 21
64.1926428795
 31
0.0
  0
ARC
  5
18F
330
1F
100
AcDbEntity
  8
0
  6
CONTINUOUS
 62
     7
100
AcDbCircle
 10
479.2514070953
 20
58.6858179026
 30
0.0
 40
1.000000000000039
100
AcDbArc
 50
345.1121194146
 51
10.0
  0
ARC
  5
190
330
1F
100
AcDbEntity
  8
0
  6
CONTINUOUS
 62
     7
100
AcDbCircle
 10
485.2142829556
 20
57.1005698229
 30
0.0
 40
5.170000000000043
100
AcDbArc
 50
165.1121194146
 51
352.3995433346
  0
ARC
  5
191
330
1F
100
AcDbEntity
  8
0
  6
CONTINUOUS
 62
     7
100
AcDbCircle
 10
491.3300763348
 20
56.2844991502
 30
0.0
 40
1.000000000000034
100
AcDbArc
 50
100.0000485891
 51
172.3995433346
  0
LINE
  5
192
330
1F
100
AcDbEntity
  8
0
  6
CONTINUOUS
 62
     7
100
AcDbLine
 10
495.1386368107
 20
57.9714788616
 30
0.0
 11
491.1564206909
 21
57.2693063438
 31
0.0
  0
ARC
  5
193
330
1F
100
AcDbEntity
  8
0
  6
CONTINUOUS
 62
     7
100
AcDbCircle
 10
495.312280532
 20
56.9866726749
 30
0.0
 40
1.000000000000104
100
AcDbArc
 50
27.6004769063
 51
100.0000485891
  0
ARC
  5
194
330
1F
100
AcDbEntity
  8
0
  6
CONTINUOUS
 62
     7
100
AcDbCircle
 10
500.7801328224
 20
59.8452547238
 30
0.0
 40
5.169999999999969
100
AcDbArc
 50
207.6004769063
 51
34.8879034673
  0
ARC
  5
195
330
1F
100
AcDbEntity
  8
0
  6
CONTINUOUS
 62
     7
100
AcDbCircle
 10
505.8412150822
 20
63.3743263241
 30
0.0
 40
1.000000000000029
100
AcDbArc
 50
190.0
 51
214.8879034673
  0
LINE
  5
196
330
1F
100
AcDbEntity
  8
0
  6
CONTINUOUS
 62
     7
100
AcDbLine
 10
503.9160466026
 20
68.5338391483
 30
0.0
 11
504.8564290832
 21
63.2006763041
 31
0.0
  0
ARC
  5
197
330
1F
100
AcDbEntity
  8
0
  6
CONTINUOUS
 62
     7
100
AcDbCircle
 10
504.9008691295
 20
68.7074952741
 30
0.0
 40
1.000035084614324
100
AcDbArc
 50
165.1121913085
 51
190.0
  0
ARC
  5
198
330
1F
100
AcDbEntity
  8
0
  6
CONTINUOUS
 62
     7
100
AcDbCircle
 10
498.9379573732
 20
70.2927448859
 30
0.0
 40
5.1699999999999
100
AcDbArc
 50
345.1121913085
 51
13.9447482422
  0
LINE
  5
199
330
1F
100
AcDbEntity
  8
0
  6
CONTINUOUS
 62
     7
100
AcDbLine
 10
503.9555644821
 20
71.5386434019
 30
0.0
 11
769.0623020958
 21
118.2841150582
 31
0.0
  0
ARC
  5
19A
330
1F
100
AcDbEntity
  8
0
  6
CONTINUOUS
 62
     7
100
AcDbCircle
 10
774.2034746159
 20
118.8294768427
 30
0.0
 40
5.169999053433907
100
AcDbArc
 50
186.0551898611
 51
214.8878382498
  0
ARC
  5
19B
330
1F
100
AcDbEntity
  8
0
  6
CONTINUOUS
 62
     7
100
AcDbCircle
 10
769.1423910117
 20
115.3004128669
 30
0.0
 40
0.9999986349374375
100
AcDbArc
 50
10.0
 51
34.8878382498
  0
LINE
  5
19C
330
1F
100
AcDbEntity
  8
0
  6
CONTINUOUS
 62
     7
100
AcDbLine
 10
771.0675811599
 20
110.1408837855
 30
0.0
 11
770.1271986793
 21
115.4740615309
 31
0.0
  0
ARC
  5
19D
330
1F
100
AcDbEntity
  8
0
  6
CONTINUOUS
 62
     7
100
AcDbCircle
 10
770.0827742048
 20
109.9672347604
 30
0.0
 40
1.000000000000129
100
AcDbArc
 50
345.1121194146
 51
10.0
  0
ARC
  5
19E
330
1F
100
AcDbEntity
  8
0
  6
CONTINUOUS
 62
     7
100
AcDbCircle
 10
776.0456500652
 20
108.3819866806
 30
0.0
 40
5.170000000000013
100
AcDbArc
 50
165.1121194146
 51
352.3995433346
  0
ARC
  5
19F
330
1F
100
AcDbEntity
  8
0
  6
CONTINUOUS
 62
     7
100
AcDbCircle
 10
782.1614434444
 20
107.5659160079
 30
0.0
 40
1.000000000000061
100
AcDbArc
 50
100.0000485891
 51
172.3995433346
  0
LINE
  5
1A0
330
1F
100
AcDbEntity
  8
0
  6
CONTINUOUS
 62
     7
100
AcDbLine
 10
785.9699940513
 20
109.2528937877
 30
0.0
 11
781.9878077339
 21
108.5507212699
 31
0.0
  0
ARC
  5
1A1
330
1F
100
AcDbEntity
  8
0
  6
CONTINUOUS
 62
     7
100
AcDbCircle
 10
786.1436476416
 20
108.2680895326
 30
0.0
 40
1.000000000000041
100
AcDbArc
 50
27.6004769063
 51
100.0000485891
  0
ARC
  5
1A2
330
1F
100
AcDbEntity
  8
0
  6
CONTINUOUS
 62
     7
100
AcDbCircle
 10
791.611499932
 20
111.1266715816
 30
0.0
 40
5.170000000000114
100
AcDbArc
 50
207.6004769063
 51
34.8879034674
  0
ARC
  5
1A3
330
1F
100
AcDbEntity
  8
0
  6
CONTINUOUS
 62
     7
100
AcDbCircle
 10
796.6725821918
 20
114.6557431818
 30
0.0
 40
0.9999999999999317
100
AcDbArc
 50
190.0
 51
214.8879034673
  0
LINE
  5
1A4
330
1F
100
AcDbEntity
  8
0
  6
CONTINUOUS
 62
     7
100
AcDbLine
 10
794.747374041
 20
119.815261525
 30
0.0
 11
795.6877565216
 21
114.4820986808
 31
0.0
  0
ARC
  5
1A5
330
1F
100
AcDbEntity
  8
0
  6
CONTINUOUS
 62
     7
100
AcDbCircle
 10
795.7322362391
 20
119.9889121318
 30
0.0
 40
1.000035084614283
100
AcDbArc
 50
165.1121913085
 51
190.0
  0
ARC
  5
1A6
330
1F
100
AcDbEntity
  8
0
  6
CONTINUOUS
 62
     7
100
AcDbCircle
 10
789.7693244827
 20
121.5741617436
 30
0.0
 40
5.169999999999964
100
AcDbArc
 50
345.1121913085
 51
13.9447482422
  0
LINE
  5
1A7
330
1F
100
AcDbEntity
  8
0
  6
CONTINUOUS
 62
     7
100
AcDbLine
 10
794.7869515251
 20
122.8200583279
 30
0.0
 11
821.4282607864
 21
127.5176419437
 31
0.0
  0
LINE
  5
1A8
330
1F
100
AcDbEntity
  8
0
  6
CONTINUOUS
 62
     7
100
AcDbLine
 10
821.4282607864
 20
105.4809703052
 30
0.0
 11
821.4282607864
 21
127.5176419437
 31
0.0
  0
ARC
  5
1A9
330
1F
100
AcDbEntity
  8
0
  6
CONTINUOUS
 62
     7
100
AcDbCircle
 10
815.4282800697
 20
105.4809682378
 30
0.0
 40
6.000000000000001
100
AcDbArc
 50
280.0
 51
0.0
  0
LINE
  5
1AA
330
1F
100
AcDbEntity
  8
0
  6
CONTINUOUS
 62
     7
100
AcDbLine
 10
446.4701628517
 20
34.3311386675
 30
0.0
 11
816.4701676201
 21
99.5721234501
 31
0.0
  0
ARC
  5
1AB
330
1F
100
AcDbEntity
  8
0
  6
CONTINUOUS
 62
     7
100
AcDbCircle
 10
445.4282800697
 20
40.2399853756
 30
0.0
 40
6.000000000000079
100
AcDbArc
 50
180.0
 51
280.0
  0
LINE
  5
1AC
330
1F
100
AcDbEntity
  8
0
  6
CONTINUOUS
 62
     7
100
AcDbLine
 10
439.428291304
 20
60.1607388378
 30
0.0
 11
439.428291304
 21
40.23998366
 31
0.0
  0
LINE
  5
1AD
330
1F
100
AcDbEntity
  8
0
  6
CONTINUOUS
 62
     7
100
AcDbLine
 10
439.428291304
 20
60.1607388378
 30
0.0
 11
478.2309448551
 21
67.0026926816
 31
0.0
  0
ARC
  5
1AE
330
1F
100
AcDbEntity
  8
0
  6
CONTINUOUS
 62
     7
100
AcDbCircle
 10
789.7693264602
 20
340.1838541343
 30
0.0
 40
5.169999999999979
100
AcDbArc
 50
346.0551905845
 51
14.8879034673
  0
ARC
  5
1AF
330
1F
100
AcDbEntity
  8
0
  6
CONTINUOUS
 62
     7
100
AcDbCircle
 10
795.7322016875
 20
341.7691045954
 30
0.0
 40
1.000000000000003
100
AcDbArc
 50
170.0
 51
194.8879034673
  0
LINE
  5
1B0
330
1F
100
AcDbEntity
  8
0
  6
CONTINUOUS
 62
     7
100
AcDbLine
 10
795.6877565216
 20
347.2759141147
 30
0.0
 11
794.747374041
 21
341.9427587211
 31
0.0
  0
ARC
  5
1B1
330
1F
100
AcDbEntity
  8
0
  6
CONTINUOUS
 62
     7
100
AcDbCircle
 10
796.6726167434
 20
347.1022613606
 30
0.0
 40
1.000035084614226
100
AcDbArc
 50
145.1121913085
 51
170.0
  0
ARC
  5
1B2
330
1F
100
AcDbEntity
  8
0
  6
CONTINUOUS
 62
     7
100
AcDbCircle
 10
791.611499867
 20
350.6313446564
 30
0.0
 40
5.170000000000036
100
AcDbArc
 50
325.1121913085
 51
152.3995433346
  0
ARC
  5
1B3
330
1F
100
AcDbEntity
  8
0
  6
CONTINUOUS
 62
     7
100
AcDbCircle
 10
786.1436465667
 20
353.4899247737
 30
0.0
 40
0.9999999999999725
100
AcDbArc
 50
260.0000485891
 51
332.3995433346
  0
LINE
  5
1B4
330
1F
100
AcDbEntity
  8
0
  6
CONTINUOUS
 62
     7
100
AcDbLine
 10
781.9878077339
 20
353.2072915256
 30
0.0
 11
785.9699940513
 21
352.5051190079
 31
0.0
  0
ARC
  5
1B5
330
1F
100
AcDbEntity
  8
0
  6
CONTINUOUS
 62
     7
100
AcDbCircle
 10
782.1614411786
 20
354.1920915443
 30
0.0
 40
1.000000946566262
100
AcDbArc
 50
187.6004769063
 51
260.0000485891
  0
ARC
  5
1B6
330
1F
100
AcDbEntity
  8
0
  6
CONTINUOUS
 62
     7
100
AcDbCircle
 10
776.0456480877
 20
353.3760187111
 30
0.0
 40
5.169999053433894
100
AcDbArc
 50
7.6004769063
 51
194.8878382498
  0
ARC
  5
1B7
330
1F
100
AcDbEntity
  8
0
  6
CONTINUOUS
 62
     7
100
AcDbCircle
 10
770.0827742048
 20
351.7907758744
 30
0.0
 40
0.9999986349376353
100
AcDbArc
 50
350.0
 51
14.8878382498
  0
LINE
  5
1B8
330
1F
100
AcDbEntity
  8
0
  6
CONTINUOUS
 62
     7
100
AcDbLine
 10
770.1271986793
 20
346.2839438141
 30
0.0
 11
771.0675811599
 21
351.61712901
 31
0.0
  0
ARC
  5
1B9
330
1F
100
AcDbEntity
  8
0
  6
CONTINUOUS
 62
     7
100
AcDbCircle
 10
769.1423910117
 20
346.4575977679
 30
0.0
 40
1.000000000000072
100
AcDbArc
 50
325.1121194146
 51
350.0
  0
ARC
  5
1BA
330
1F
100
AcDbEntity
  8
0
  6
CONTINUOUS
 62
     7
100
AcDbCircle
 10
774.2034746809
 20
342.9285281889
 30
0.0
 40
5.170000000000018
100
AcDbArc
 50
145.1121194146
 51
173.9447482422
  0
LINE
  5
1BB
330
1F
100
AcDbEntity
  8
0
  6
CONTINUOUS
 62
     7
100
AcDbLine
 10
769.0623020958
 20
343.4739126385
 30
0.0
 11
503.9555644821
 21
390.219361943
 31
0.0
  0
ARC
  5
1BC
330
1F
100
AcDbEntity
  8
0
  6
CONTINUOUS
 62
     7
100
AcDbCircle
 10
498.9379593507
 20
391.465270992
 30
0.0
 40
5.170000000000057
100
AcDbArc
 50
346.0551905845
 51
14.8879034673
  0
ARC
  5
1BD
330
1F
100
AcDbEntity
  8
0
  6
CONTINUOUS
 62
     7
100
AcDbCircle
 10
504.9008345779
 20
393.0505214531
 30
0.0
 40
1.000000000000115
100
AcDbArc
 50
170.0
 51
194.8879034673
  0
LINE
  5
1BE
330
1F
100
AcDbEntity
  8
0
  6
CONTINUOUS
 62
     7
100
AcDbLine
 10
504.8564290832
 20
398.5573364914
 30
0.0
 11
503.9160466026
 21
393.2241810978
 31
0.0
  0
ARC
  5
1BF
330
1F
100
AcDbEntity
  8
0
  6
CONTINUOUS
 62
     7
100
AcDbCircle
 10
505.8412496338
 20
398.3836782183
 30
0.0
 40
1.000035084614165
100
AcDbArc
 50
145.1121913085
 51
170.0
  0
ARC
  5
1C0
330
1F
100
AcDbEntity
  8
0
  6
CONTINUOUS
 62
     7
100
AcDbCircle
 10
500.7801327575
 20
401.9127615142
 30
0.0
 40
5.170000000000043
100
AcDbArc
 50
325.1121913085
 51
152.3995433346
  0
ARC
  5
1C1
330
1F
100
AcDbEntity
  8
0
  6
CONTINUOUS
 62
     7
100
AcDbCircle
 10
495.3122794572
 20
404.7713416315
 30
0.0
 40
1.000000000000071
100
AcDbArc
 50
260.0000485891
 51
332.3995433346
  0
LINE
  5
1C2
330
1F
100
AcDbEntity
  8
0
  6
CONTINUOUS
 62
     7
100
AcDbLine
 10
491.1564206909
 20
404.4887139023
 30
0.0
 11
495.1386368107
 21
403.7865413845
 31
0.0
  0
ARC
  5
1C3
330
1F
100
AcDbEntity
  8
0
  6
CONTINUOUS
 62
     7
100
AcDbCircle
 10
491.330074069
 20
405.4735084021
 30
0.0
 40
1.000000946566262
100
AcDbArc
 50
187.6004769063
 51
260.0000485891
  0
ARC
  5
1C4
330
1F
100
AcDbEntity
  8
0
  6
CONTINUOUS
 62
     7
100
AcDbCircle
 10
485.2142809781
 20
404.6574355688
 30
0.0
 40
5.169999053433725
100
AcDbArc
 50
7.6004769063
 51
194.8878382498
  0
ARC
  5
1C5
330
1F
100
AcDbEntity
  8
0
  6
CONTINUOUS
 62
     7
100
AcDbCircle
 10
479.2514070953
 20
403.0721927322
 30
0.0
 40
0.9999986349374674
100
AcDbArc
 50
350.0
 51
14.8878382498
  0
LINE
  5
1C6
330
1F
100
AcDbEntity
  8
0
  6
CONTINUOUS
 62
     7
100
AcDbLine
 10
479.2958414386
 20
397.5653661907
 30
0.0
 11
480.2362239193
 21
402.8985513866
 31
0.0
  0
ARC
  5
1C7
330
1F
100
AcDbEntity
  8
0
  6
CONTINUOUS
 62
     7
100
AcDbCircle
 10
478.3110239022
 20
397.7390146257
 30
0.0
 40
1.000000000000059
100
AcDbArc
 50
325.1121194146
 51
350.0
  0
ARC
  5
1C8
330
1F
100
AcDbEntity
  8
0
  6
CONTINUOUS
 62
     7
100
AcDbCircle
 10
483.3721075714
 20
394.2099450467
 30
0.0
 40
5.170000000000075
100
AcDbArc
 50
145.1121194146
 51
173.9447482422
  0
LINE
  5
1C9
330
1F
100
AcDbEntity
  8
0
  6
CONTINUOUS
 62
     7
100
AcDbLine
 10
478.2309448551
 20
394.7553052128
 30
0.0
 11
439.428291304
 21
401.5972627819
 31
0.0
  0
LINE
  5
1CA
330
1F
100
AcDbEntity
  8
0
  6
CONTINUOUS
 62
     7
100
AcDbLine
 10
439.428291304
 20
421.5180291355
 30
0.0
 11
439.428291304
 21
401.5972627819
 31
0.0
  0
ARC
  5
1CB
330
1F
100
AcDbEntity
  8
0
  6
CONTINUOUS
 62
     7
100
AcDbCircle
 10
445.4282800697
 20
421.5180252592
 30
0.0
 40
6.0
100
AcDbArc
 50
80.0
 51
180.0
  0
LINE
  5
1CC
330
1F
100
AcDbEntity
  8
0
  6
CONTINUOUS
 62
     7
100
AcDbLine
 10
816.4701676201
 20
362.185896796
 30
0.0
 11
446.4701628517
 21
427.4268759907
 31
0.0
  0
ARC
  5
1CD
330
1F
100
AcDbEntity
  8
0
  6
CONTINUOUS
 62
     7
100
AcDbCircle
 10
815.4282800697
 20
356.277042397
 30
0.0
 40
6.0
100
AcDbArc
 50
0.0
 51
80.0
  0
LINE
  5
1CE
330
1F
100
AcDbEntity
  8
0
  6
CONTINUOUS
 62
     7
100
AcDbLine
 10
821.4282607864
 20
334.2403783024
 30
0.0
 11
821.4282607864
 21
356.2770499409
 31
0.0
  0
LINE
  5
1CF
330
1F
100
AcDbEntity
  8
0
  6
CONTINUOUS
 62
     7
100
AcDbLine
 10
821.4282607864
 20
334.2403783024
 30
0.0
 11
794.7869515251
 21
338.9379395664
 31
0.0
  0
LINE
  5
1D0
330
1F
100
AcDbEntity
  8
0
  6
CONTINUOUS
 62
     7
100
AcDbLine
 10
816.4701676201
 20
280.4373814285
 30
0.0
 11
806.3863730262
 21
278.6593450725
 31
0.0
  0
ARC
  5
1D1
330
1F
100
AcDbEntity
  8
0
  6
CONTINUOUS
 62
     7
100
AcDbCircle
 10
807.4282800697
 20
272.7505027829
 30
0.0
 40
6.000000000000034
100
AcDbArc
 50
100.0
 51
180.0
  0
LINE
  5
1D2
330
1F
100
AcDbEntity
  8
0
  6
CONTINUOUS
 62
     7
100
AcDbLine
 10
801.4282798599
 20
272.7504982174
 30
0.0
 11
801.4282798599
 21
189.0075071276
 31
0.0
  0
ARC
  5
1D3
330
1F
100
AcDbEntity
  8
0
  6
CONTINUOUS
 62
     7
100
AcDbCircle
 10
807.4282800697
 20
189.0075078519
 30
0.0
 40
6.0
100
AcDbArc
 50
180.0
 51
260.0
  0
LINE
  5
1D4
330
1F
100
AcDbEntity
  8
0
  6
CONTINUOUS
 62
     7
100
AcDbLine
 10
806.3863730262
 20
183.0986602724
 30
0.0
 11
816.4701676201
 21
181.3206239164
 31
0.0
  0
LINE
  5
1D5
330
1F
100
AcDbEntity
  8
0
  6
CONTINUOUS
 62
     7
100
AcDbLine
 10
821.4282607864
 20
140.3932584942
 30
0.0
 11
781.4282989334
 21
133.3401812733
 31
0.0
  0
LINE
  5
1D6
330
1F
100
AcDbEntity
  8
0
  6
CONTINUOUS
 62
     7
100
AcDbLine
 10
781.4282989334
 20
133.3401812733
 30
0.0
 11
781.4282989334
 21
328.4178389728
 31
0.0
  0
ARC
  5
1D7
330
1F
100
AcDbEntity
  8
0
  6
CONTINUOUS
 62
     7
100
AcDbCircle
 10
815.4282800697
 20
175.4117726636
 30
0.0
 40
6.0
100
AcDbArc
 50
0.0
 51
80.0
  0
LINE
  5
1D8
330
1F
100
AcDbEntity
  8
0
  6
CONTINUOUS
 62
     7
100
AcDbLine
 10
821.4282607864
 20
286.3462282837
 30
0.0
 11
821.4282607864
 21
321.3647617519
 31
0.0
  0
LINE
  5
1D9
330
1F
100
AcDbEntity
  8
0
  6
CONTINUOUS
 62
     7
100
AcDbLine
 10
821.4282607864
 20
140.3932584942
 30
0.0
 11
821.4282607864
 21
175.4117770613
 31
0.0
  0
ARC
  5
1DA
330
1F
100
AcDbEntity
  8
0
  6
CONTINUOUS
 62
     7
100
AcDbCircle
 10
815.4282800697
 20
286.3462379712
 30
0.0
 40
6.000000000000034
100
AcDbArc
 50
280.0
 51
0.0
  0
LINE
  5
1DB
330
1F
100
AcDbEntity
  8
0
  6
CONTINUOUS
 62
     7
100
AcDbLine
 10
781.4282989334
 20
328.4178389728
 30
0.0
 11
821.4282607864
 21
321.3647617519
 31
0.0
  0
LINE
  5
1DC
330
1F
100
AcDbEntity
  8
0
  6
CONTINUOUS
 62
     7
100
AcDbLine
 10
439.428291304
 20
388.7216760338
 30
0.0
 11
439.428291304
 21
73.0363442123
 31
0.0
  0
LINE
  5
1DD
330
1F
100
AcDbEntity
  8
0
  6
CONTINUOUS
 62
     7
100
AcDbLine
 10
769.0882897209
 20
330.5937065304
 30
0.0
 11
769.0882897209
 21
131.1642988146
 31
0.0
  0
LINE
  5
1DE
330
1F
100
AcDbEntity
  8
0
  6
CONTINUOUS
 62
     7
100
AcDbLine
 10
769.0882897209
 20
131.1642988146
 30
0.0
 11
439.428291304
 21
73.0363442123
 31
0.0
  0
LINE
  5
1DF
330
1F
100
AcDbEntity
  8
0
  6
CONTINUOUS
 62
     7
100
AcDbLine
 10
439.428291304
 20
388.7216760338
 30
0.0
 11
769.0882897209
 21
330.5937065304
 31
0.0
  0
ARC
  5
1E0
330
1F
100
AcDbEntity
  8
0
  6
CONTINUOUS
 62
     7
100
AcDbCircle
 10
783.6535311035
 20
122.3902324163
 30
0.0
 40
0.9999999999999855
100
AcDbArc
 50
280.0000485891
 51
352.3995433346
  0
LINE
  5
1E1
330
1F
100
AcDbEntity
  8
0
  6
CONTINUOUS
 62
     7
100
AcDbLine
 10
783.8272070717
 20
121.4054240406
 30
0.0
 11
779.8449611496
 21
120.7032515228
 31
0.0
  0
ARC
  5
1E2
330
1F
100
AcDbEntity
  8
0
  6
CONTINUOUS
 62
     7
100
AcDbCircle
 10
779.6713269063
 20
121.6880588916
 30
0.0
 40
0.9999999999999855
100
AcDbArc
 50
207.6004769063
 51
280.0000485891
  0
ARC
  5
1E3
330
1F
100
AcDbEntity
  8
0
  6
CONTINUOUS
 62
     7
100
AcDbCircle
 10
492.822163994
 20
71.1088155586
 30
0.0
 40
0.9999999999999408
100
AcDbArc
 50
280.0000485891
 51
352.3995433346
  0
LINE
  5
1E4
330
1F
100
AcDbEntity
  8
0
  6
CONTINUOUS
 62
     7
100
AcDbLine
 10
492.9958200287
 20
70.1240091145
 30
0.0
 11
489.0136039089
 21
69.4218365968
 31
0.0
  0
ARC
  5
1E5
330
1F
100
AcDbEntity
  8
0
  6
CONTINUOUS
 62
     7
100
AcDbCircle
 10
488.8399597968
 20
70.4066420339
 30
0.0
 40
0.9999999999999855
100
AcDbArc
 50
207.6004769063
 51
280.0000485891
  0
ARC
  5
1E6
330
1F
100
AcDbEntity
  8
0
  6
CONTINUOUS
 62
     7
100
AcDbCircle
 10
488.8399608716
 20
391.3513649294
 30
0.0
 40
1.00000000000002
100
AcDbArc
 50
80.0000485891
 51
152.3995433346
  0
LINE
  5
1E7
330
1F
100
AcDbEntity
  8
0
  6
CONTINUOUS
 62
     7
100
AcDbLine
 10
489.0136039089
 20
392.3361612976
 30
0.0
 11
492.9958200287
 21
391.6340185821
 31
0.0
  0
ARC
  5
1E8
330
1F
100
AcDbEntity
  8
0
  6
CONTINUOUS
 62
     7
100
AcDbCircle
 10
492.8221662598
 20
390.6491981588
 30
0.0
 40
1.000000000000114
100
AcDbArc
 50
7.6004769063
 51
80.0000485891
  0
ARC
  5
1E9
330
1F
100
AcDbEntity
  8
0
  6
CONTINUOUS
 62
     7
100
AcDbCircle
 10
779.6713279811
 20
340.0699480716
 30
0.0
 40
0.9999999999999725
100
AcDbArc
 50
80.0000485891
 51
152.3995433346
  0
LINE
  5
1EA
330
1F
100
AcDbEntity
  8
0
  6
CONTINUOUS
 62
     7
100
AcDbLine
 10
779.8449611496
 20
341.0547687233
 30
0.0
 11
783.8272070717
 21
340.3525962055
 31
0.0
  0
ARC
  5
1EB
330
1F
100
AcDbEntity
  8
0
  6
CONTINUOUS
 62
     7
100
AcDbCircle
 10
783.6535333693
 20
339.367781301
 30
0.0
 40
1.000000000000058
100
AcDbArc
 50
7.6004769063
 51
80.0000485891
  0
LINE
  5
1EC
330
1F
100
AcDbEntity
  8
0
  6
CONTINUOUS
 62
     7
100
AcDbLine
 10
439.428291304
 20
388.7216760338
 30
0.0
 11
439.428291304
 21
401.5972627819
 31
0.0
  0
LINE
  5
1ED
330
1F
100
AcDbEntity
  8
0
  6
CONTINUOUS
 62
     7
100
AcDbLine
 10
439.428291304
 20
60.1607388378
 30
0.0
 11
439.428291304
 21
73.0363442123
 31
0.0
  0
ARC
  5
1EE
330
1F
100
AcDbEntity
  8
0
  6
CONTINUOUS
 62
     7
100
AcDbCircle
 10
774.2034746159
 20
118.8294768427
 30
0.0
 40
5.169999999999886
100
AcDbArc
 50
27.6004769063
 51
186.0551898611
  0
ARC
  5
1EF
330
1F
100
AcDbEntity
  8
0
  6
CONTINUOUS
 62
     7
100
AcDbCircle
 10
774.2034746809
 20
342.9285281889
 30
0.0
 40
5.170000000000063
100
AcDbArc
 50
173.9447482422
 51
332.3995433346
  0
ARC
  5
1F0
330
1F
100
AcDbEntity
  8
0
  6
CONTINUOUS
 62
     7
100
AcDbCircle
 10
789.7693264602
 20
340.1838541343
 30
0.0
 40
5.169999999999985
100
AcDbArc
 50
187.6004769063
 51
346.0551905845
  0
ARC
  5
1F1
330
1F
100
AcDbEntity
  8
0
  6
CONTINUOUS
 62
     7
100
AcDbCircle
 10
789.7693244827
 20
121.5741617436
 30
0.0
 40
5.170000000000155
100
AcDbArc
 50
13.9447482422
 51
172.3995433346
  0
LINE
  5
1F2
330
1F
100
AcDbEntity
  8
0
  6
CONTINUOUS
 62
     7
100
AcDbLine
 10
821.4282607864
 20
334.2403783024
 30
0.0
 11
821.4282607864
 21
321.3647617519
 31
0.0
  0
LINE
  5
1F3
330
1F
100
AcDbEntity
  8
0
  6
CONTINUOUS
 62
     7
100
AcDbLine
 10
821.4282607864
 20
140.3932584942
 30
0.0
 11
821.4282607864
 21
127.5176419437
 31
0.0
  0
ARC
  5
1F4
330
1F
100
AcDbEntity
  8
0
  6
CONTINUOUS
 62
     7
100
AcDbCircle
 10
498.9379573732
 20
70.2927448859
 30
0.0
 40
5.170000000000098
100
AcDbArc
 50
13.9447482422
 51
172.3995433346
  0
ARC
  5
1F5
330
1F
100
AcDbEntity
  8
0
  6
CONTINUOUS
 62
     7
100
AcDbCircle
 10
498.9379593507
 20
391.465270992
 30
0.0
 40
5.169999999999947
100
AcDbArc
 50
187.6004769063
 51
346.0551905845
  0
ARC
  5
1F6
330
1F
100
AcDbEntity
  8
0
  6
CONTINUOUS
 62
     7
100
AcDbCircle
 10
483.3721075064
 20
67.5480599849
 30
0.0
 40
5.170000000000037
100
AcDbArc
 50
27.6004769063
 51
186.0551898611
  0
ARC
  5
1F7
330
1F
100
AcDbEntity
  8
0
  6
CONTINUOUS
 62
     7
100
AcDbCircle
 10
483.3721075714
 20
394.2099450467
 30
0.0
 40
5.170000000000188
100
AcDbArc
 50
173.9447482422
 51
332.3995433346
  0
LINE
  5
1F8
330
1F
100
AcDbEntity
  8
0
  6
CONTINUOUS
 62
     7
100
AcDbLine
 10
1206.388256533
 20
485.8294440925
 30
0.0
 11
1206.388256533
 21
447.328300637
 31
0.0
  0
LINE
  5
1F9
330
1F
100
AcDbEntity
  8
0
  6
CONTINUOUS
 62
     7
100
AcDbLine
 10
1206.388256533
 20
485.8294440925
 30
0.0
 11
1528.3882832359
 21
485.8294440925
 31
0.0
  0
LINE
  5
1FA
330
1F
100
AcDbEntity
  8
0
  6
CONTINUOUS
 62
     7
100
AcDbLine
 10
1528.3882832359
 20
447.328300637
 30
0.0
 11
1528.3882832359
 21
485.8294440925
 31
0.0
  0
LINE
  5
1FB
330
1F
100
AcDbEntity
  8
0
  6
CONTINUOUS
 62
     7
100
AcDbLine
 10
1206.388256533
 20
447.328300637
 30
0.0
 11
1528.3882832359
 21
447.328300637
 31
0.0
  0
LINE
  5
1FC
330
1F
100
AcDbEntity
  8
0
  6
CONTINUOUS
 62
     7
100
AcDbLine
 10
1528.3882832359
 20
833.1053568542
 30
0.0
 11
1206.388256533
 21
833.1053568542
 31
0.0
  0
LINE
  5
1FD
330
1F
100
AcDbEntity
  8
0
  6
CONTINUOUS
 62
     7
100
AcDbLine
 10
1528.3882832359
 20
498.1845630825
 30
0.0
 11
1206.388256533
 21
498.1845630825
 31
0.0
  0
LINE
  5
1FE
330
1F
100
AcDbEntity
  8
0
  6
CONTINUOUS
 62
     7
100
AcDbLine
 10
1206.388256533
 20
833.1053568542
 30
0.0
 11
1206.388256533
 21
498.1845630825
 31
0.0
  0
LINE
  5
1FF
330
1F
100
AcDbEntity
  8
0
  6
CONTINUOUS
 62
     7
100
AcDbLine
 10
1528.3882832359
 20
498.1845630825
 30
0.0
 11
1528.3882832359
 21
833.1053568542
 31
0.0
  0
LINE
  5
200
330
1F
100
AcDbEntity
  8
0
  6
CONTINUOUS
 62
     7
100
AcDbLine
 10
1206.388256533
 20
485.8294440925
 30
0.0
 11
1206.388256533
 21
498.1845630825
 31
0.0
  0
LINE
  5
201
330
1F
100
AcDbEntity
  8
0
  6
CONTINUOUS
 62
     7
100
AcDbLine
 10
1528.3882832359
 20
498.1845630825
 30
0.0
 11
1528.3882832359
 21
485.8294440925
 31
0.0
  0
LINE
  5
202
330
1F
100
AcDbEntity
  8
0
  6
CONTINUOUS
 62
     7
100
AcDbLine
 10
1206.388256533
 20
30.0712617606
 30
0.0
 11
1528.3882832359
 21
30.0712617606
 31
0.0
  0
LINE
  5
203
330
1F
100
AcDbEntity
  8
0
  6
CONTINUOUS
 62
     7
100
AcDbLine
 10
1206.388256533
 20
68.5724033535
 30
0.0
 11
1206.388256533
 21
30.0712617606
 31
0.0
  0
LINE
  5
204
330
1F
100
AcDbEntity
  8
0
  6
CONTINUOUS
 62
     7
100
AcDbLine
 10
1528.3882832359
 20
68.5724033535
 30
0.0
 11
1206.388256533
 21
68.5724033535
 31
0.0
  0
LINE
  5
205
330
1F
100
AcDbEntity
  8
0
  6
CONTINUOUS
 62
     7
100
AcDbLine
 10
1528.3882832359
 20
30.0712617606
 30
0.0
 11
1528.3882832359
 21
68.5724033535
 31
0.0
  0
LINE
  5
206
330
1F
100
AcDbEntity
  8
0
  6
CONTINUOUS
 62
     7
100
AcDbLine
 10
1528.3882832359
 20
415.8483161152
 30
0.0
 11
1206.388256533
 21
415.8483161152
 31
0.0
  0
LINE
  5
207
330
1F
100
AcDbEntity
  8
0
  6
CONTINUOUS
 62
     7
100
AcDbLine
 10
1206.388256533
 20
80.9275223434
 30
0.0
 11
1528.3882832359
 21
80.9275223434
 31
0.0
  0
LINE
  5
208
330
1F
100
AcDbEntity
  8
0
  6
CONTINUOUS
 62
     7
100
AcDbLine
 10
1206.388256533
 20
415.8483161152
 30
0.0
 11
1206.388256533
 21
80.9275223434
 31
0.0
  0
LINE
  5
209
330
1F
100
AcDbEntity
  8
0
  6
CONTINUOUS
 62
     7
100
AcDbLine
 10
1528.3882832359
 20
80.9275223434
 30
0.0
 11
1528.3882832359
 21
415.8483161152
 31
0.0
  0
LINE
  5
20A
330
1F
100
AcDbEntity
  8
0
  6
CONTINUOUS
 62
     7
100
AcDbLine
 10
1206.388256533
 20
68.5724033535
 30
0.0
 11
1206.388256533
 21
80.9275223434
 31
0.0
  0
LINE
  5
20B
330
1F
100
AcDbEntity
  8
0
  6
CONTINUOUS
 62
     7
100
AcDbLine
 10
1528.3882832359
 20
80.9275223434
 30
0.0
 11
1528.3882832359
 21
68.5724033535
 31
0.0
  0
LINE
  5
20C
330
1F
100
AcDbEntity
  8
0
  6
CONTINUOUS
 62
     7
100
AcDbLine
 10
852.9082751106
 20
30.0712617606
 30
0.0
 11
1174.9083018135
 21
30.0712617606
 31
0.0
  0
LINE
  5
20D
330
1F
100
AcDbEntity
  8
0
  6
CONTINUOUS
 62
     7
100
AcDbLine
 10
1174.9083018135
 20
242.0712573946
 30
0.0
 11
852.9082751106
 21
242.0712573946
 31
0.0
  0
LINE
  5
20E
330
1F
100
AcDbEntity
  8
0
  6
CONTINUOUS
 62
     7
100
AcDbLine
 10
1174.9083018135
 20
30.0712617606
 30
0.0
 11
1174.9083018135
 21
242.0712573946
 31
0.0
  0
LINE
  5
20F
330
1F
100
AcDbEntity
  8
0
  6
CONTINUOUS
 62
     7
100
AcDbLine
 10
852.9082751106
 20
242.0712573946
 30
0.0
 11
852.9082751106
 21
30.0712617606
 31
0.0
  0
LINE
  5
210
330
1F
100
AcDbEntity
  8
POCKETS
100
AcDbLine
 10
1538.3882800697
 20
80.9275223222
 30
0.0
 11
1196.3882800697
 21
80.9275223222
 31
0.0
  0
LINE
  5
211
330
1F
100
AcDbEntity
  8
POCKETS
100
AcDbLine
 10
1196.3882800697
 20
80.9275223222
 30
0.0
 11
1196.3882800697
 21
68.5724029796
 31
0.0
  0
LINE
  5
212
330
1F
100
AcDbEntity
  8
POCKETS
100
AcDbLine
 10
1196.3882800697
 20
68.5724029796
 30
0.0
 11
1538.3882800697
 21
68.5724029796
 31
0.0
  0
LINE
  5
213
330
1F
100
AcDbEntity
  8
PROFILES_OUTSIDE
100
AcDbLine
 10
407.9482800697
 20
286.3462379712
 30
0.0
 11
407.9482800697
 21
361.3116401841
 31
0.0
  0
LINE
  5
214
330
1F
100
AcDbEntity
  8
PROFILES_OUTSIDE
100
AcDbLine
 10
407.9482800697
 20
361.3116401841
 30
0.0
 11
25.9482800697
 21
428.6685468147
 31
0.0
  0
LINE
  5
215
330
1F
100
AcDbEntity
  8
PROFILES_OUTSIDE
100
AcDbLine
 10
25.9482800697
 20
428.6685468147
 30
0.0
 11
25.9482800697
 21
33.0894638201
 31
0.0
  0
LINE
  5
216
330
1F
100
AcDbEntity
  8
PROFILES_OUTSIDE
100
AcDbLine
 10
25.9482800697
 20
33.0894638201
 30
0.0
 11
407.9482800697
 21
100.4463704507
 31
0.0
  0
LINE
  5
217
330
1F
100
AcDbEntity
  8
POCKETS
100
AcDbLine
 10
1538.3882800697
 20
68.5724029796
 30
0.0
 11
1538.3882800697
 21
80.9275223222
 31
0.0
  0
LINE
  5
218
330
1F
100
AcDbEntity
  8
PROFILES_OUTSIDE
100
AcDbLine
 10
407.9482800697
 20
100.4463704507
 30
0.0
 11
407.9482800697
 21
175.4117726636
 31
0.0
  0
LINE
  5
219
330
1F
100
AcDbEntity
  8
PROFILES_OUTSIDE
100
AcDbLine
 10
402.9901691357
 20
181.3206191817
 30
0.0
 11
392.9063910037
 21
183.0986613339
 31
0.0
  0
LINE
  5
21A
330
1F
100
AcDbEntity
  8
PROFILES_OUTSIDE
100
AcDbLine
 10
387.9482800697
 20
189.0075078519
 30
0.0
 11
387.9482800697
 21
272.7505027829
 31
0.0
  0
LINE
  5
21B
330
1F
100
AcDbEntity
  8
PROFILES_OUTSIDE
100
AcDbLine
 10
392.9063910037
 20
278.6593493009
 30
0.0
 11
402.9901691357
 21
280.4373914531
 31
0.0
  0
LINE
  5
21C
330
1F
100
AcDbEntity
  8
PROFILES_INSIDE
100
AcDbLine
 10
381.2673939344
 20
341.942752773
 30
0.0
 11
382.2077744388
 21
347.2759156306
 31
0.0
  0
LINE
  5
21D
330
1F
100
AcDbEntity
  8
PROFILES_INSIDE
100
AcDbLine
 10
366.3649753237
 20
341.0547559719
 30
0.0
 11
370.3471807118
 21
340.3525892013
 31
0.0
  0
LINE
  5
21E
330
1F
100
AcDbEntity
  8
PROFILES_INSIDE
100
AcDbLine
 10
357.5875806135
 20
351.6171279338
 30
0.0
 11
356.6471987647
 21
346.2839495903
 31
0.0
  0
LINE
  5
21F
330
1F
100
AcDbEntity
  8
PROFILES_INSIDE
100
AcDbLine
 10
372.4899992242
 20
352.5051168735
 30
0.0
 11
368.5077936101
 21
353.2072823623
 31
0.0
  0
LINE
  5
220
330
1F
100
AcDbEntity
  8
PROFILES_OUTSIDE
100
AcDbLine
 10
1174.9082800697
 20
30.0712622726
 30
0.0
 11
1174.9082800697
 21
242.0712622726
 31
0.0
  0
LINE
  5
221
330
1F
100
AcDbEntity
  8
PROFILES_OUTSIDE
100
AcDbLine
 10
1174.9082800697
 20
242.0712622726
 30
0.0
 11
852.9082800697
 21
242.0712622726
 31
0.0
  0
LINE
  5
222
330
1F
100
AcDbEntity
  8
PROFILES_OUTSIDE
100
AcDbLine
 10
852.9082800697
 20
242.0712622726
 30
0.0
 11
852.9082800697
 21
30.0712622726
 31
0.0
  0
LINE
  5
223
330
1F
100
AcDbEntity
  8
PROFILES_OUTSIDE
100
AcDbLine
 10
852.9082800697
 20
30.0712622726
 30
0.0
 11
1174.9082800697
 21
30.0712622726
 31
0.0
  0
LINE
  5
224
330
1F
100
AcDbEntity
  8
PROFILES_OUTSIDE
100
AcDbLine
 10
1528.3882800697
 20
415.8483042445
 30
0.0
 11
1206.3882800697
 21
415.8483042445
 31
0.0
  0
LINE
  5
225
330
1F
100
AcDbEntity
  8
PROFILES_OUTSIDE
100
AcDbLine
 10
1206.3882800697
 20
415.8483042445
 30
0.0
 11
1206.3882800697
 21
30.0712622726
 31
0.0
  0
LINE
  5
226
330
1F
100
AcDbEntity
  8
PROFILES_OUTSIDE
100
AcDbLine
 10
1206.3882800697
 20
30.0712622726
 30
0.0
 11
1528.3882800697
 21
30.0712622726
 31
0.0
  0
LINE
  5
227
330
1F
100
AcDbEntity
  8
PROFILES_OUTSIDE
100
AcDbLine
 10
1528.3882800697
 20
30.0712622726
 30
0.0
 11
1528.3882800697
 21
415.8483042445
 31
0.0
  0
LINE
  5
228
330
1F
100
AcDbEntity
  8
PROFILES_OUTSIDE
100
AcDbLine
 10
1206.3882800697
 20
833.1053462163
 30
0.0
 11
1206.3882800697
 21
447.3283042445
 31
0.0
  0
LINE
  5
229
330
1F
100
AcDbEntity
  8
PROFILES_OUTSIDE
100
AcDbLine
 10
1206.3882800697
 20
447.3283042445
 30
0.0
 11
1528.3882800697
 21
447.3283042445
 31
0.0
  0
LINE
  5
22A
330
1F
100
AcDbEntity
  8
BOX_STOCK
100
AcDbLine
 10
0.2082800697
 20
4.3312622726
 30
0.0
 11
2440.2082800697
 21
4.3312622726
 31
0.0
  0
LINE
  5
22B
330
1F
100
AcDbEntity
  8
BOX_STOCK
100
AcDbLine
 10
2440.2082800697
 20
4.3312622726
 30
0.0
 11
2440.2082800697
 21
1224.3312622726
 31
0.0
  0
LINE
  5
22C
330
1F
100
AcDbEntity
  8
BOX_STOCK
100
AcDbLine
 10
2440.2082800697
 20
1224.3312622726
 30
0.0
 11
0.2082800697
 21
1224.3312622726
 31
0.0
  0
LINE
  5
22D
330
1F
100
AcDbEntity
  8
BOX_STOCK
100
AcDbLine
 10
0.2082800697
 20
1224.3312622726
 30
0.0
 11
0.2082800697
 21
4.3312622726
 31
0.0
  0
LINE
  5
22E
330
1F
100
AcDbEntity
  8
POCKETS
100
AcDbLine
 10
1538.3882800697
 20
498.184564294
 30
0.0
 11
1196.3882800697
 21
498.184564294
 31
0.0
  0
LINE
  5
22F
330
1F
100
AcDbEntity
  8
PROFILES_OUTSIDE
100
AcDbLine
 10
1528.3882800697
 20
447.3283042445
 30
0.0
 11
1528.3882800697
 21
833.1053462163
 31
0.0
  0
LINE
  5
230
330
1F
100
AcDbEntity
  8
POCKETS
100
AcDbLine
 10
1196.3882800697
 20
498.184564294
 30
0.0
 11
1196.3882800697
 21
485.8294449514
 31
0.0
  0
LINE
  5
231
330
1F
100
AcDbEntity
  8
POCKETS
100
AcDbLine
 10
1196.3882800697
 20
485.8294449514
 30
0.0
 11
1538.3882800697
 21
485.8294449514
 31
0.0
  0
LINE
  5
232
330
1F
100
AcDbEntity
  8
POCKETS
100
AcDbLine
 10
1538.3882800697
 20
485.8294449514
 30
0.0
 11
1538.3882800697
 21
498.184564294
 31
0.0
  0
LINE
  5
233
330
1F
100
AcDbEntity
  8
PROFILES_OUTSIDE
100
AcDbLine
 10
1528.3882800697
 20
833.1053462163
 30
0.0
 11
1206.3882800697
 21
833.1053462163
 31
0.0
  0
LINE
  5
234
330
1F
100
AcDbEntity
  8
PROFILES_INSIDE
100
AcDbLine
 10
90.2936236238
 20
393.2492791573
 30
0.0
 11
91.2340041281
 21
398.5824420149
 31
0.0
  0
LINE
  5
235
330
1F
100
AcDbEntity
  8
PROFILES_INSIDE
100
AcDbLine
 10
81.5162289136
 20
403.8116432577
 30
0.0
 11
77.5340234433
 21
404.5138095622
 31
0.0
  0
LINE
  5
236
330
1F
100
AcDbEntity
  8
PROFILES_INSIDE
100
AcDbLine
 10
66.6138101864
 20
402.9236543386
 30
0.0
 11
65.6734284541
 21
397.5904759745
 31
0.0
  0
LINE
  5
237
330
1F
100
AcDbEntity
  8
PROFILES_INSIDE
100
AcDbLine
 10
75.391205013
 20
392.3612823561
 30
0.0
 11
79.3734104012
 21
391.6591155855
 31
0.0
  0
LINE
  5
238
330
1F
100
AcDbEntity
  8
PROFILES_INSIDE
100
AcDbLine
 10
382.2077744388
 20
114.4820950042
 30
0.0
 11
381.2673939344
 21
119.8152578618
 31
0.0
  0
LINE
  5
239
330
1F
100
AcDbEntity
  8
PROFILES_INSIDE
100
AcDbLine
 10
370.3471801164
 20
121.4054248106
 30
0.0
 11
366.3649759397
 21
120.7032511693
 31
0.0
  0
LINE
  5
23A
330
1F
100
AcDbEntity
  8
PROFILES_INSIDE
100
AcDbLine
 10
356.6471971874
 20
115.4740607664
 30
0.0
 11
357.5875819578
 21
110.140882938
 31
0.0
  0
LINE
  5
23B
330
1F
100
AcDbEntity
  8
PROFILES_INSIDE
100
AcDbLine
 10
368.5077944315
 20
108.5507236137
 30
0.0
 11
372.4899986288
 21
109.2528971384
 31
0.0
  0
LINE
  5
23C
330
1F
100
AcDbEntity
  8
PROFILES_INSIDE
100
AcDbLine
 10
65.6734271098
 20
64.1675344233
 30
0.0
 11
66.6138116472
 21
58.8343565538
 31
0.0
  0
LINE
  5
23D
330
1F
100
AcDbEntity
  8
PROFILES_INSIDE
100
AcDbLine
 10
77.5340241209
 20
57.2441972294
 30
0.0
 11
81.5162283181
 21
57.9463707542
 31
0.0
  0
LINE
  5
23E
330
1F
100
AcDbEntity
  8
PROFILES_INSIDE
100
AcDbLine
 10
91.2340041281
 20
63.1755686199
 30
0.0
 11
90.2936236238
 21
68.5087314775
 31
0.0
  0
LINE
  5
23F
330
1F
100
AcDbEntity
  8
PROFILES_INSIDE
100
AcDbLine
 10
79.3734098057
 20
70.0988984263
 30
0.0
 11
75.3912056085
 21
69.3967249016
 31
0.0
  0
LINE
  5
240
330
1F
100
AcDbEntity
  8
PROFILES_OUTSIDE
100
AcDbLine
 10
1572.1282800697
 20
369.2857720068
 30
0.0
 11
1560.8682800697
 21
369.2857720068
 31
0.0
  0
LINE
  5
241
330
1F
100
AcDbEntity
  8
PROFILES_OUTSIDE
100
AcDbLine
 10
1572.4683677068
 20
363.9719026775
 30
0.0
 11
1572.1282800697
 21
369.2857720068
 31
0.0
  0
LINE
  5
242
330
1F
100
AcDbEntity
  8
PROFILES_OUTSIDE
100
AcDbLine
 10
1581.4060016863
 20
363.0357720068
 30
0.0
 11
1573.4663259768
 21
363.0357720068
 31
0.0
  0
LINE
  5
243
330
1F
100
AcDbEntity
  8
PROFILES_OUTSIDE
100
AcDbLine
 10
1584.8682800697
 20
375.5377720068
 30
0.0
 11
1584.8682800697
 21
373.5139536465
 31
0.0
  0
LINE
  5
244
330
1F
100
AcDbEntity
  8
PROFILES_OUTSIDE
100
AcDbLine
 10
1707.8682800697
 20
375.5377720068
 30
0.0
 11
1584.8682800697
 21
375.5377720068
 31
0.0
  0
LINE
  5
245
330
1F
100
AcDbEntity
  8
PROFILES_OUTSIDE
100
AcDbLine
 10
1719.8682800697
 20
268.3822687621
 30
0.0
 11
1719.8682800697
 21
363.5377720068
 31
0.0
  0
LINE
  5
246
330
1F
100
AcDbEntity
  8
PROFILES_OUTSIDE
100
AcDbLine
 10
1747.8682800697
 20
256.3822687621
 30
0.0
 11
1731.8682800697
 21
256.3822687621
 31
0.0
  0
LINE
  5
247
330
1F
100
AcDbEntity
  8
PROFILES_OUTSIDE
100
AcDbLine
 10
1759.8682800697
 20
363.5377720068
 30
0.0
 11
1759.8682800697
 21
268.3822687621
 31
0.0
  0
LINE
  5
248
330
1F
100
AcDbEntity
  8
PROFILES_INSIDE
100
AcDbLine
 10
794.7473939344
 20
341.942752773
 30
0.0
 11
795.6877744388
 21
347.2759156306
 31
0.0
  0
LINE
  5
249
330
1F
100
AcDbEntity
  8
PROFILES_INSIDE
100
AcDbLine
 10
779.8449753237
 20
341.0547559719
 30
0.0
 11
783.8271807118
 21
340.3525892013
 31
0.0
  0
LINE
  5
24A
330
1F
100
AcDbEntity
  8
PROFILES_INSIDE
100
AcDbLine
 10
771.0675806135
 20
351.6171279338
 30
0.0
 11
770.1271987647
 21
346.2839495903
 31
0.0
  0
LINE
  5
24B
330
1F
100
AcDbEntity
  8
PROFILES_INSIDE
100
AcDbLine
 10
785.9699992242
 20
352.5051168735
 30
0.0
 11
781.9877936101
 21
353.2072823623
 31
0.0
  0
LINE
  5
24C
330
1F
100
AcDbEntity
  8
PROFILES_INSIDE
100
AcDbLine
 10
503.9160268249
 20
393.2241696308
 30
0.0
 11
504.8564073292
 21
398.5573324884
 31
0.0
  0
LINE
  5
24D
330
1F
100
AcDbEntity
  8
PROFILES_INSIDE
100
AcDbLine
 10
495.1386321147
 20
403.7865337312
 30
0.0
 11
491.1564266443
 21
404.4887000357
 31
0.0
  0
LINE
  5
24E
330
1F
100
AcDbEntity
  8
PROFILES_INSIDE
100
AcDbLine
 10
480.2362133875
 20
402.8985448121
 30
0.0
 11
479.2958316552
 21
397.565366448
 31
0.0
  0
LINE
  5
24F
330
1F
100
AcDbEntity
  8
PROFILES_INSIDE
100
AcDbLine
 10
489.0136082141
 20
392.3361728296
 30
0.0
 11
492.9958136023
 21
391.634006059
 31
0.0
  0
LINE
  5
250
330
1F
100
AcDbEntity
  8
PROFILES_INSIDE
100
AcDbLine
 10
795.6877744388
 20
114.4820950042
 30
0.0
 11
794.7473939344
 21
119.8152578618
 31
0.0
  0
LINE
  5
251
330
1F
100
AcDbEntity
  8
PROFILES_INSIDE
100
AcDbLine
 10
783.8271801164
 20
121.4054248106
 30
0.0
 11
779.8449759397
 21
120.7032511693
 31
0.0
  0
LINE
  5
252
330
1F
100
AcDbEntity
  8
PROFILES_INSIDE
100
AcDbLine
 10
770.1271971874
 20
115.4740607664
 30
0.0
 11
771.0675819578
 21
110.140882938
 31
0.0
  0
LINE
  5
253
330
1F
100
AcDbEntity
  8
PROFILES_INSIDE
100
AcDbLine
 10
781.9877944315
 20
108.5507236137
 30
0.0
 11
785.9699986288
 21
109.2528971384
 31
0.0
  0
LINE
  5
254
330
1F
100
AcDbEntity
  8
PROFILES_OUTSIDE
100
AcDbLine
 10
1894.8682800697
 20
375.5377720068
 30
0.0
 11
1771.8682800697
 21
375.5377720068
 31
0.0
  0
LINE
  5
255
330
1F
100
AcDbEntity
  8
PROFILES_OUTSIDE
100
AcDbLine
 10
1894.8682800697
 20
373.5139536465
 30
0.0
 11
1894.8682800697
 21
375.5377720068
 31
0.0
  0
LINE
  5
256
330
1F
100
AcDbEntity
  8
PROFILES_OUTSIDE
100
AcDbLine
 10
1906.2702341626
 20
363.0357720068
 30
0.0
 11
1898.3305584531
 21
363.0357720068
 31
0.0
  0
LINE
  5
257
330
1F
100
AcDbEntity
  8
PROFILES_OUTSIDE
100
AcDbLine
 10
1907.6082800697
 20
369.2857720068
 30
0.0
 11
1907.2681924326
 21
363.9719026775
 31
0.0
  0
LINE
  5
258
330
1F
100
AcDbEntity
  8
PROFILES_OUTSIDE
100
AcDbLine
 10
1918.8682800697
 20
369.2857720068
 30
0.0
 11
1907.6082800697
 21
369.2857720068
 31
0.0
  0
LINE
  5
259
330
1F
100
AcDbEntity
  8
PROFILES_INSIDE
100
AcDbLine
 10
479.2958303109
 20
64.1926439497
 30
0.0
 11
480.2362148483
 21
58.8594660803
 31
0.0
  0
LINE
  5
25A
330
1F
100
AcDbEntity
  8
PROFILES_INSIDE
100
AcDbLine
 10
491.156427322
 20
57.2693067559
 30
0.0
 11
495.1386315192
 21
57.9714802807
 31
0.0
  0
LINE
  5
25B
330
1F
100
AcDbEntity
  8
PROFILES_INSIDE
100
AcDbLine
 10
504.8564073292
 20
63.2006781464
 30
0.0
 11
503.9160268249
 21
68.533841004
 31
0.0
  0
LINE
  5
25C
330
1F
100
AcDbEntity
  8
PROFILES_INSIDE
100
AcDbLine
 10
492.9958130068
 20
70.1240079528
 30
0.0
 11
489.0136088096
 21
69.4218344281
 31
0.0
  0
LINE
  5
25D
330
1F
100
AcDbEntity
  8
PROFILES_OUTSIDE
100
AcDbLine
 10
439.4282800697
 20
421.5180252592
 30
0.0
 11
439.4282800697
 21
40.2399853756
 31
0.0
  0
LINE
  5
25E
330
1F
100
AcDbEntity
  8
PROFILES_OUTSIDE
100
AcDbLine
 10
816.4701691357
 20
362.1858889151
 30
0.0
 11
446.4701691357
 21
427.4268717772
 31
0.0
  0
LINE
  5
25F
330
1F
100
AcDbEntity
  8
PROFILES_OUTSIDE
100
AcDbLine
 10
821.4282800697
 20
286.3462379712
 30
0.0
 11
821.4282800697
 21
356.277042397
 31
0.0
  0
LINE
  5
260
330
1F
100
AcDbEntity
  8
PROFILES_OUTSIDE
100
AcDbLine
 10
806.3863910037
 20
278.6593493009
 30
0.0
 11
816.4701691357
 21
280.4373914531
 31
0.0
  0
LINE
  5
261
330
1F
100
AcDbEntity
  8
POCKETS
100
AcDbLine
 10
418.0721518554
 20
142.1783651073
 30
0.0
 11
408.2240743253
 21
140.4418833307
 31
0.0
  0
LINE
  5
262
330
1F
100
AcDbEntity
  8
PROFILES_OUTSIDE
100
AcDbLine
 10
1919.8682800697
 20
356.5357720068
 30
0.0
 11
1919.8682800697
 21
368.2857720068
 31
0.0
  0
LINE
  5
263
330
1F
100
AcDbEntity
  8
PROFILES_OUTSIDE
100
AcDbLine
 10
1784.5682800697
 20
350.5357720068
 30
0.0
 11
1913.8682800697
 21
350.5357720068
 31
0.0
  0
LINE
  5
264
330
1F
100
AcDbEntity
  8
PROFILES_OUTSIDE
100
AcDbLine
 10
1772.5682800697
 20
256.3822687621
 30
0.0
 11
1772.5682800697
 21
338.5357720068
 31
0.0
  0
LINE
  5
265
330
1F
100
AcDbEntity
  8
PROFILES_OUTSIDE
100
AcDbLine
 10
1759.8682800697
 20
171.2238107735
 30
0.0
 11
1759.8682800697
 21
234.3852235059
 31
0.0
  0
LINE
  5
266
330
1F
100
AcDbEntity
  8
PROFILES_OUTSIDE
100
AcDbLine
 10
1772.5682800697
 20
67.0732622726
 30
0.0
 11
1772.5682800697
 21
149.2267655173
 31
0.0
  0
LINE
  5
267
330
1F
100
AcDbEntity
  8
PROFILES_OUTSIDE
100
AcDbLine
 10
1913.8682800697
 20
55.0732622726
 30
0.0
 11
1784.5682800697
 21
55.0732622726
 31
0.0
  0
LINE
  5
268
330
1F
100
AcDbEntity
  8
PROFILES_OUTSIDE
100
AcDbLine
 10
1919.8682800697
 20
37.3232622726
 30
0.0
 11
1919.8682800697
 21
49.0732622726
 31
0.0
  0
LINE
  5
269
330
1F
100
AcDbEntity
  8
PROFILES_OUTSIDE
100
AcDbLine
 10
1907.6082800697
 20
36.3232622726
 30
0.0
 11
1918.8682800697
 21
36.3232622726
 31
0.0
  0
LINE
  5
26A
330
1F
100
AcDbEntity
  8
PROFILES_OUTSIDE
100
AcDbLine
 10
1907.2681924326
 20
41.6371316019
 30
0.0
 11
1907.6082800697
 21
36.3232622726
 31
0.0
  0
LINE
  5
26B
330
1F
100
AcDbEntity
  8
PROFILES_OUTSIDE
100
AcDbLine
 10
1898.3305584531
 20
42.5732622726
 30
0.0
 11
1906.2702341626
 21
42.5732622726
 31
0.0
  0
LINE
  5
26C
330
1F
100
AcDbEntity
  8
PROFILES_OUTSIDE
100
AcDbLine
 10
1894.8682800697
 20
30.0712622726
 30
0.0
 11
1894.8682800697
 21
32.0950806329
 31
0.0
  0
LINE
  5
26D
330
1F
100
AcDbEntity
  8
PROFILES_OUTSIDE
100
AcDbLine
 10
1771.8682800697
 20
30.0712622726
 30
0.0
 11
1894.8682800697
 21
30.0712622726
 31
0.0
  0
LINE
  5
26E
330
1F
100
AcDbEntity
  8
PROFILES_OUTSIDE
100
AcDbLine
 10
1759.8682800697
 20
137.2267655173
 30
0.0
 11
1759.8682800697
 21
42.0712622726
 31
0.0
  0
LINE
  5
26F
330
1F
100
AcDbEntity
  8
PROFILES_OUTSIDE
100
AcDbLine
 10
1731.8682800697
 20
149.2267655173
 30
0.0
 11
1747.8682800697
 21
149.2267655173
 31
0.0
  0
LINE
  5
270
330
1F
100
AcDbEntity
  8
PROFILES_OUTSIDE
100
AcDbLine
 10
1719.8682800697
 20
42.0712622726
 30
0.0
 11
1719.8682800697
 21
137.2267655173
 31
0.0
  0
LINE
  5
271
330
1F
100
AcDbEntity
  8
PROFILES_OUTSIDE
100
AcDbLine
 10
1584.8682800697
 20
30.0712622726
 30
0.0
 11
1707.8682800697
 21
30.0712622726
 31
0.0
  0
LINE
  5
272
330
1F
100
AcDbEntity
  8
PROFILES_OUTSIDE
100
AcDbLine
 10
801.4282800697
 20
189.0075078519
 30
0.0
 11
801.4282800697
 21
272.7505027829
 31
0.0
  0
LINE
  5
273
330
1F
100
AcDbEntity
  8
POCKETS
100
AcDbLine
 10
420.2740107483
 20
129.6910027991
 30
0.0
 11
418.0721518554
 21
142.1783651073
 31
0.0
  0
LINE
  5
274
330
1F
100
AcDbEntity
  8
PROFILES_OUTSIDE
100
AcDbLine
 10
816.4701691357
 20
181.3206191817
 30
0.0
 11
806.3863910037
 21
183.0986613339
 31
0.0
  0
LINE
  5
275
330
1F
100
AcDbEntity
  8
POCKETS
100
AcDbLine
 10
410.4259332181
 20
127.9545210225
 30
0.0
 11
420.2740107483
 21
129.6910027991
 31
0.0
  0
LINE
  5
276
330
1F
100
AcDbEntity
  8
POCKETS
100
AcDbLine
 10
25.6724858141
 20
60.1121073245
 30
0.0
 11
410.4259332181
 21
127.9545210225
 31
0.0
  0
LINE
  5
277
330
1F
100
AcDbEntity
  8
POCKETS
100
AcDbLine
 10
15.824408284
 20
58.3756255479
 30
0.0
 11
25.6724858141
 21
60.1121073245
 31
0.0
  0
LINE
  5
278
330
1F
100
AcDbEntity
  8
POCKETS
100
AcDbLine
 10
13.6225493911
 20
70.8629878561
 30
0.0
 11
15.824408284
 21
58.3756255479
 31
0.0
  0
LINE
  5
279
330
1F
100
AcDbEntity
  8
POCKETS
100
AcDbLine
 10
23.4706269213
 20
72.5994696327
 30
0.0
 11
13.6225493911
 21
70.8629878561
 31
0.0
  0
LINE
  5
27A
330
1F
100
AcDbEntity
  8
POCKETS
100
AcDbLine
 10
355.6082800697
 20
131.164299192
 30
0.0
 11
23.4706269213
 21
72.5994696327
 31
0.0
  0
LINE
  5
27B
330
1F
100
AcDbEntity
  8
POCKETS
100
AcDbLine
 10
355.6082800697
 20
330.5937114428
 30
0.0
 11
355.6082800697
 21
131.164299192
 31
0.0
  0
LINE
  5
27C
330
1F
100
AcDbEntity
  8
POCKETS
100
AcDbLine
 10
23.4706269213
 20
389.1585410021
 30
0.0
 11
355.6082800697
 21
330.5937114428
 31
0.0
  0
LINE
  5
27D
330
1F
100
AcDbEntity
  8
POCKETS
100
AcDbLine
 10
13.6225493911
 20
390.8950227787
 30
0.0
 11
23.4706269213
 21
389.1585410021
 31
0.0
  0
LINE
  5
27E
330
1F
100
AcDbEntity
  8
POCKETS
100
AcDbLine
 10
15.824408284
 20
403.3823850869
 30
0.0
 11
13.6225493911
 21
390.8950227787
 31
0.0
  0
LINE
  5
27F
330
1F
100
AcDbEntity
  8
POCKETS
100
AcDbLine
 10
25.6724858141
 20
401.6459033103
 30
0.0
 11
15.824408284
 21
403.3823850869
 31
0.0
  0
LINE
  5
280
330
1F
100
AcDbEntity
  8
POCKETS
100
AcDbLine
 10
410.4259332181
 20
333.8034896123
 30
0.0
 11
25.6724858141
 21
401.6459033103
 31
0.0
  0
LINE
  5
281
330
1F
100
AcDbEntity
  8
POCKETS
100
AcDbLine
 10
420.2740107483
 20
332.0670078357
 30
0.0
 11
410.4259332181
 21
333.8034896123
 31
0.0
  0
LINE
  5
282
330
1F
100
AcDbEntity
  8
POCKETS
100
AcDbLine
 10
418.0721518554
 20
319.5796455275
 30
0.0
 11
420.2740107483
 21
332.0670078357
 31
0.0
  0
LINE
  5
283
330
1F
100
AcDbEntity
  8
POCKETS
100
AcDbLine
 10
408.2240743253
 20
321.3161273041
 30
0.0
 11
418.0721518554
 21
319.5796455275
 31
0.0
  0
LINE
  5
284
330
1F
100
AcDbEntity
  8
POCKETS
100
AcDbLine
 10
367.9482800697
 20
328.4178365009
 30
0.0
 11
408.2240743253
 21
321.3161273041
 31
0.0
  0
LINE
  5
285
330
1F
100
AcDbEntity
  8
PROFILES_OUTSIDE
100
AcDbLine
 10
1584.8682800697
 20
32.0950806329
 30
0.0
 11
1584.8682800697
 21
30.0712622726
 31
0.0
  0
LINE
  5
286
330
1F
100
AcDbEntity
  8
PROFILES_OUTSIDE
100
AcDbLine
 10
1573.4663259768
 20
42.5732622726
 30
0.0
 11
1581.4060016863
 21
42.5732622726
 31
0.0
  0
LINE
  5
287
330
1F
100
AcDbEntity
  8
PROFILES_OUTSIDE
100
AcDbLine
 10
1572.1282800697
 20
36.3232622726
 30
0.0
 11
1572.4683677068
 21
41.6371316019
 31
0.0
  0
LINE
  5
288
330
1F
100
AcDbEntity
  8
PROFILES_OUTSIDE
100
AcDbLine
 10
1560.8682800697
 20
36.3232622726
 30
0.0
 11
1572.1282800697
 21
36.3232622726
 31
0.0
  0
LINE
  5
289
330
1F
100
AcDbEntity
  8
PROFILES_OUTSIDE
100
AcDbLine
 10
1559.8682800697
 20
49.0732622726
 30
0.0
 11
1559.8682800697
 21
37.3232622726
 31
0.0
  0
LINE
  5
28A
330
1F
100
AcDbEntity
  8
PROFILES_OUTSIDE
100
AcDbLine
 10
1695.1682800697
 20
55.0732622726
 30
0.0
 11
1565.8682800697
 21
55.0732622726
 31
0.0
  0
LINE
  5
28B
330
1F
100
AcDbEntity
  8
PROFILES_OUTSIDE
100
AcDbLine
 10
1707.1682800697
 20
149.2267655173
 30
0.0
 11
1707.1682800697
 21
67.0732622726
 31
0.0
  0
LINE
  5
28C
330
1F
100
AcDbEntity
  8
PROFILES_OUTSIDE
100
AcDbLine
 10
1719.8682800697
 20
234.3852235059
 30
0.0
 11
1719.8682800697
 21
171.2238107735
 31
0.0
  0
LINE
  5
28D
330
1F
100
AcDbEntity
  8
PROFILES_OUTSIDE
100
AcDbLine
 10
1707.1682800697
 20
338.5357720068
 30
0.0
 11
1707.1682800697
 21
256.3822687621
 31
0.0
  0
LINE
  5
28E
330
1F
100
AcDbEntity
  8
PROFILES_OUTSIDE
100
AcDbLine
 10
1565.8682800697
 20
350.5357720068
 30
0.0
 11
1695.1682800697
 21
350.5357720068
 31
0.0
  0
LINE
  5
28F
330
1F
100
AcDbEntity
  8
PROFILES_OUTSIDE
100
AcDbLine
 10
1559.8682800697
 20
368.2857720068
 30
0.0
 11
1559.8682800697
 21
356.5357720068
 31
0.0
  0
LINE
  5
290
330
1F
100
AcDbEntity
  8
POCKETS
100
AcDbLine
 10
367.9482800697
 20
133.3401741339
 30
0.0
 11
367.9482800697
 21
328.4178365009
 31
0.0
  0
LINE
  5
291
330
1F
100
AcDbEntity
  8
PROFILES_OUTSIDE
100
AcDbLine
 10
1907.6082800697
 20
413.2657720068
 30
0.0
 11
1918.8682800697
 21
413.2657720068
 31
0.0
  0
LINE
  5
292
330
1F
100
AcDbEntity
  8
PROFILES_OUTSIDE
100
AcDbLine
 10
1907.2681924326
 20
418.5796413361
 30
0.0
 11
1907.6082800697
 21
413.2657720068
 31
0.0
  0
LINE
  5
293
330
1F
100
AcDbEntity
  8
PROFILES_OUTSIDE
100
AcDbLine
 10
1898.3305584531
 20
419.5157720068
 30
0.0
 11
1906.2702341626
 21
419.5157720068
 31
0.0
  0
LINE
  5
294
330
1F
100
AcDbEntity
  8
PROFILES_OUTSIDE
100
AcDbLine
 10
1894.8682800697
 20
407.0137720068
 30
0.0
 11
1894.8682800697
 21
409.037590367
 31
0.0
  0
LINE
  5
295
330
1F
100
AcDbEntity
  8
PROFILES_OUTSIDE
100
AcDbLine
 10
1771.8682800697
 20
407.0137720068
 30
0.0
 11
1894.8682800697
 21
407.0137720068
 31
0.0
  0
LINE
  5
296
330
1F
100
AcDbEntity
  8
PROFILES_OUTSIDE
100
AcDbLine
 10
1759.8682800697
 20
514.1692752515
 30
0.0
 11
1759.8682800697
 21
419.0137720068
 31
0.0
  0
LINE
  5
297
330
1F
100
AcDbEntity
  8
PROFILES_OUTSIDE
100
AcDbLine
 10
1731.8682800697
 20
526.1692752515
 30
0.0
 11
1747.8682800697
 21
526.1692752515
 31
0.0
  0
LINE
  5
298
330
1F
100
AcDbEntity
  8
PROFILES_OUTSIDE
100
AcDbLine
 10
1719.8682800697
 20
419.0137720068
 30
0.0
 11
1719.8682800697
 21
514.1692752515
 31
0.0
  0
LINE
  5
299
330
1F
100
AcDbEntity
  8
PROFILES_OUTSIDE
100
AcDbLine
 10
1584.8682800697
 20
407.0137720068
 30
0.0
 11
1707.8682800697
 21
407.0137720068
 31
0.0
  0
LINE
  5
29A
330
1F
100
AcDbEntity
  8
PROFILES_OUTSIDE
100
AcDbLine
 10
1584.8682800697
 20
409.037590367
 30
0.0
 11
1584.8682800697
 21
407.0137720068
 31
0.0
  0
LINE
  5
29B
330
1F
100
AcDbEntity
  8
PROFILES_OUTSIDE
100
AcDbLine
 10
1573.4663259768
 20
419.5157720068
 30
0.0
 11
1581.4060016863
 21
419.5157720068
 31
0.0
  0
LINE
  5
29C
330
1F
100
AcDbEntity
  8
PROFILES_OUTSIDE
100
AcDbLine
 10
1572.1282800697
 20
413.2657720068
 30
0.0
 11
1572.4683677068
 21
418.5796413361
 31
0.0
  0
LINE
  5
29D
330
1F
100
AcDbEntity
  8
PROFILES_OUTSIDE
100
AcDbLine
 10
1560.8682800697
 20
413.2657720068
 30
0.0
 11
1572.1282800697
 21
413.2657720068
 31
0.0
  0
LINE
  5
29E
330
1F
100
AcDbEntity
  8
PROFILES_OUTSIDE
100
AcDbLine
 10
1559.8682800697
 20
426.0157720068
 30
0.0
 11
1559.8682800697
 21
414.2657720068
 31
0.0
  0
LINE
  5
29F
330
1F
100
AcDbEntity
  8
PROFILES_OUTSIDE
100
AcDbLine
 10
1695.1682800697
 20
432.0157720068
 30
0.0
 11
1565.8682800697
 21
432.0157720068
 31
0.0
  0
LINE
  5
2A0
330
1F
100
AcDbEntity
  8
PROFILES_OUTSIDE
100
AcDbLine
 10
1707.1682800697
 20
526.1692752515
 30
0.0
 11
1707.1682800697
 21
444.0157720068
 31
0.0
  0
LINE
  5
2A1
330
1F
100
AcDbEntity
  8
PROFILES_OUTSIDE
100
AcDbLine
 10
1719.8682800697
 20
611.3277332401
 30
0.0
 11
1719.8682800697
 21
548.1663205076
 31
0.0
  0
LINE
  5
2A2
330
1F
100
AcDbEntity
  8
PROFILES_OUTSIDE
100
AcDbLine
 10
1707.1682800697
 20
715.4782817409
 30
0.0
 11
1707.1682800697
 21
633.3247784962
 31
0.0
  0
LINE
  5
2A3
330
1F
100
AcDbEntity
  8
PROFILES_OUTSIDE
100
AcDbLine
 10
1565.8682800697
 20
727.4782817409
 30
0.0
 11
1695.1682800697
 21
727.4782817409
 31
0.0
  0
LINE
  5
2A4
330
1F
100
AcDbEntity
  8
PROFILES_OUTSIDE
100
AcDbLine
 10
1559.8682800697
 20
745.2282817409
 30
0.0
 11
1559.8682800697
 21
733.4782817409
 31
0.0
  0
LINE
  5
2A5
330
1F
100
AcDbEntity
  8
PROFILES_OUTSIDE
100
AcDbLine
 10
1572.1282800697
 20
746.2282817409
 30
0.0
 11
1560.8682800697
 21
746.2282817409
 31
0.0
  0
LINE
  5
2A6
330
1F
100
AcDbEntity
  8
PROFILES_OUTSIDE
100
AcDbLine
 10
1572.4683677068
 20
740.9144124116
 30
0.0
 11
1572.1282800697
 21
746.2282817409
 31
0.0
  0
LINE
  5
2A7
330
1F
100
AcDbEntity
  8
PROFILES_OUTSIDE
100
AcDbLine
 10
1581.4060016863
 20
739.9782817409
 30
0.0
 11
1573.4663259768
 21
739.9782817409
 31
0.0
  0
LINE
  5
2A8
330
1F
100
AcDbEntity
  8
PROFILES_OUTSIDE
100
AcDbLine
 10
1584.8682800697
 20
752.4802817409
 30
0.0
 11
1584.8682800697
 21
750.4564633807
 31
0.0
  0
LINE
  5
2A9
330
1F
100
AcDbEntity
  8
PROFILES_OUTSIDE
100
AcDbLine
 10
1707.8682800697
 20
752.4802817409
 30
0.0
 11
1584.8682800697
 21
752.4802817409
 31
0.0
  0
LINE
  5
2AA
330
1F
100
AcDbEntity
  8
PROFILES_OUTSIDE
100
AcDbLine
 10
1719.8682800697
 20
645.3247784962
 30
0.0
 11
1719.8682800697
 21
740.4802817409
 31
0.0
  0
LINE
  5
2AB
330
1F
100
AcDbEntity
  8
PROFILES_OUTSIDE
100
AcDbLine
 10
1747.8682800697
 20
633.3247784962
 30
0.0
 11
1731.8682800697
 21
633.3247784962
 31
0.0
  0
LINE
  5
2AC
330
1F
100
AcDbEntity
  8
PROFILES_OUTSIDE
100
AcDbLine
 10
1759.8682800697
 20
740.4802817409
 30
0.0
 11
1759.8682800697
 21
645.3247784962
 31
0.0
  0
LINE
  5
2AD
330
1F
100
AcDbEntity
  8
PROFILES_OUTSIDE
100
AcDbLine
 10
1894.8682800697
 20
752.4802817409
 30
0.0
 11
1771.8682800697
 21
752.4802817409
 31
0.0
  0
LINE
  5
2AE
330
1F
100
AcDbEntity
  8
PROFILES_OUTSIDE
100
AcDbLine
 10
1894.8682800697
 20
750.4564633807
 30
0.0
 11
1894.8682800697
 21
752.4802817409
 31
0.0
  0
LINE
  5
2AF
330
1F
100
AcDbEntity
  8
PROFILES_OUTSIDE
100
AcDbLine
 10
1906.2702341626
 20
739.9782817409
 30
0.0
 11
1898.3305584531
 21
739.9782817409
 31
0.0
  0
LINE
  5
2B0
330
1F
100
AcDbEntity
  8
PROFILES_OUTSIDE
100
AcDbLine
 10
1907.6082800697
 20
746.2282817409
 30
0.0
 11
1907.2681924326
 21
740.9144124116
 31
0.0
  0
LINE
  5
2B1
330
1F
100
AcDbEntity
  8
PROFILES_OUTSIDE
100
AcDbLine
 10
1918.8682800697
 20
746.2282817409
 30
0.0
 11
1907.6082800697
 21
746.2282817409
 31
0.0
  0
LINE
  5
2B2
330
1F
100
AcDbEntity
  8
PROFILES_OUTSIDE
100
AcDbLine
 10
1919.8682800697
 20
733.4782817409
 30
0.0
 11
1919.8682800697
 21
745.2282817409
 31
0.0
  0
LINE
  5
2B3
330
1F
100
AcDbEntity
  8
PROFILES_OUTSIDE
100
AcDbLine
 10
1784.5682800697
 20
727.4782817409
 30
0.0
 11
1913.8682800697
 21
727.4782817409
 31
0.0
  0
LINE
  5
2B4
330
1F
100
AcDbEntity
  8
PROFILES_OUTSIDE
100
AcDbLine
 10
1772.5682800697
 20
633.3247784962
 30
0.0
 11
1772.5682800697
 21
715.4782817409
 31
0.0
  0
LINE
  5
2B5
330
1F
100
AcDbEntity
  8
PROFILES_OUTSIDE
100
AcDbLine
 10
1759.8682800697
 20
548.1663205076
 30
0.0
 11
1759.8682800697
 21
611.3277332401
 31
0.0
  0
LINE
  5
2B6
330
1F
100
AcDbEntity
  8
PROFILES_OUTSIDE
100
AcDbLine
 10
1772.5682800697
 20
444.0157720068
 30
0.0
 11
1772.5682800697
 21
526.1692752515
 31
0.0
  0
LINE
  5
2B7
330
1F
100
AcDbEntity
  8
PROFILES_OUTSIDE
100
AcDbLine
 10
1913.8682800697
 20
432.0157720068
 30
0.0
 11
1784.5682800697
 21
432.0157720068
 31
0.0
  0
LINE
  5
2B8
330
1F
100
AcDbEntity
  8
PROFILES_OUTSIDE
100
AcDbLine
 10
1919.8682800697
 20
414.2657720068
 30
0.0
 11
1919.8682800697
 21
426.0157720068
 31
0.0
  0
LINE
  5
2B9
330
1F
100
AcDbEntity
  8
POCKETS
100
AcDbLine
 10
408.2240743253
 20
140.4418833307
 30
0.0
 11
367.9482800697
 21
133.3401741339
 31
0.0
  0
LINE
  5
2BA
330
1F
100
AcDbEntity
  8
POCKETS
100
AcDbLine
 10
781.4282800697
 20
328.4178365009
 30
0.0
 11
821.7040743253
 21
321.3161273041
 31
0.0
  0
LINE
  5
2BB
330
1F
100
AcDbEntity
  8
POCKETS
100
AcDbLine
 10
821.7040743253
 20
321.3161273041
 30
0.0
 11
831.5521518554
 21
319.5796455275
 31
0.0
  0
LINE
  5
2BC
330
1F
100
AcDbEntity
  8
POCKETS
100
AcDbLine
 10
831.5521518554
 20
319.5796455275
 30
0.0
 11
833.7540107483
 21
332.0670078357
 31
0.0
  0
LINE
  5
2BD
330
1F
100
AcDbEntity
  8
POCKETS
100
AcDbLine
 10
833.7540107483
 20
332.0670078357
 30
0.0
 11
823.9059332181
 21
333.8034896123
 31
0.0
  0
LINE
  5
2BE
330
1F
100
AcDbEntity
  8
POCKETS
100
AcDbLine
 10
823.9059332181
 20
333.8034896123
 30
0.0
 11
441.2362639461
 21
401.2784770038
 31
0.0
  0
LINE
  5
2BF
330
1F
100
AcDbEntity
  8
POCKETS
100
AcDbLine
 10
441.2362639461
 20
401.2784770038
 30
0.0
 11
431.388186416
 21
403.0149587804
 31
0.0
  0
LINE
  5
2C0
330
1F
100
AcDbEntity
  8
POCKETS
100
AcDbLine
 10
431.388186416
 20
403.0149587804
 30
0.0
 11
429.1863275231
 21
390.5275964722
 31
0.0
  0
LINE
  5
2C1
330
1F
100
AcDbEntity
  8
POCKETS
100
AcDbLine
 10
429.1863275231
 20
390.5275964722
 30
0.0
 11
439.0344050533
 21
388.7911146956
 31
0.0
  0
LINE
  5
2C2
330
1F
100
AcDbEntity
  8
POCKETS
100
AcDbLine
 10
439.0344050533
 20
388.7911146956
 30
0.0
 11
769.0882800697
 21
330.5937114428
 31
0.0
  0
LINE
  5
2C3
330
1F
100
AcDbEntity
  8
POCKETS
100
AcDbLine
 10
769.0882800697
 20
330.5937114428
 30
0.0
 11
769.0882800697
 21
131.164299192
 31
0.0
  0
LINE
  5
2C4
330
1F
100
AcDbEntity
  8
POCKETS
100
AcDbLine
 10
769.0882800697
 20
131.164299192
 30
0.0
 11
439.0344050533
 21
72.9668959392
 31
0.0
  0
LINE
  5
2C5
330
1F
100
AcDbEntity
  8
POCKETS
100
AcDbLine
 10
439.0344050533
 20
72.9668959392
 30
0.0
 11
429.1863275231
 21
71.2304141626
 31
0.0
  0
LINE
  5
2C6
330
1F
100
AcDbEntity
  8
POCKETS
100
AcDbLine
 10
429.1863275231
 20
71.2304141626
 30
0.0
 11
431.388186416
 21
58.7430518544
 31
0.0
  0
LINE
  5
2C7
330
1F
100
AcDbEntity
  8
POCKETS
100
AcDbLine
 10
431.388186416
 20
58.7430518544
 30
0.0
 11
441.2362639461
 21
60.479533631
 31
0.0
  0
LINE
  5
2C8
330
1F
100
AcDbEntity
  8
POCKETS
100
AcDbLine
 10
441.2362639461
 20
60.479533631
 30
0.0
 11
823.9059332181
 21
127.9545210225
 31
0.0
  0
LINE
  5
2C9
330
1F
100
AcDbEntity
  8
POCKETS
100
AcDbLine
 10
823.9059332181
 20
127.9545210225
 30
0.0
 11
833.7540107483
 21
129.6910027991
 31
0.0
  0
LINE
  5
2CA
330
1F
100
AcDbEntity
  8
POCKETS
100
AcDbLine
 10
833.7540107483
 20
129.6910027991
 30
0.0
 11
831.5521518554
 21
142.1783651073
 31
0.0
  0
LINE
  5
2CB
330
1F
100
AcDbEntity
  8
POCKETS
100
AcDbLine
 10
831.5521518554
 20
142.1783651073
 30
0.0
 11
821.7040743253
 21
140.4418833307
 31
0.0
  0
LINE
  5
2CC
330
1F
100
AcDbEntity
  8
POCKETS
100
AcDbLine
 10
821.7040743253
 20
140.4418833307
 30
0.0
 11
781.4282800697
 21
133.3401741339
 31
0.0
  0
LINE
  5
2CD
330
1F
100
AcDbEntity
  8
POCKETS
100
AcDbLine
 10
781.4282800697
 20
133.3401741339
 30
0.0
 11
781.4282800697
 21
328.4178365009
 31
0.0
  0
LINE
  5
2CE
330
1F
100
AcDbEntity
  8
PROFILES_OUTSIDE
100
AcDbLine
 10
821.4282800697
 20
105.4809682378
 30
0.0
 11
821.4282800697
 21
175.4117726636
 31
0.0
  0
LINE
  5
2CF
330
1F
100
AcDbEntity
  8
PROFILES_OUTSIDE
100
AcDbLine
 10
446.4701691357
 20
34.3311388576
 30
0.0
 11
816.4701691357
 21
99.5721217197
 31
0.0
  0
ARC
  5
2D0
330
1F
100
AcDbEntity
  8
PROFILES_OUTSIDE
100
AcDbCircle
 10
401.9482800697
 20
175.4117726636
 30
0.0
 40
6.000000000000072
100
AcDbArc
 50
0.0
 51
80.0
  0
ARC
  5
2D1
330
1F
100
AcDbEntity
  8
PROFILES_OUTSIDE
100
AcDbCircle
 10
393.9482800697
 20
189.0075078519
 30
0.0
 40
6.0
100
AcDbArc
 50
180.0
 51
260.0
  0
ARC
  5
2D2
330
1F
100
AcDbEntity
  8
PROFILES_OUTSIDE
100
AcDbCircle
 10
393.9482800697
 20
272.7505027829
 30
0.0
 40
6.0
100
AcDbArc
 50
100.0
 51
180.0
  0
ARC
  5
2D3
330
1F
100
AcDbEntity
  8
PROFILES_OUTSIDE
100
AcDbCircle
 10
401.9482800697
 20
286.3462379712
 30
0.0
 40
6.000000000000044
100
AcDbArc
 50
280.0
 51
0.0
  0
ARC
  5
2D4
330
1F
100
AcDbEntity
  8
PROFILES_INSIDE
100
AcDbCircle
 10
401.9482800697
 20
105.4809682378
 30
0.0
 40
6.00000000000003
100
AcDbArc
 50
280.0
 51
0.0
  0
ARC
  5
2D5
330
1F
100
AcDbEntity
  8
PROFILES_OUTSIDE
100
AcDbCircle
 10
1918.8682800697
 20
368.2857720068
 30
0.0
 40
1.0
100
AcDbArc
 50
0.0
 51
90.0
  0
ARC
  5
2D6
330
1F
100
AcDbEntity
  8
PROFILES_INSIDE
100
AcDbCircle
 10
372.6636465667
 20
353.4899247737
 30
0.0
 40
1.000000000000048
100
AcDbArc
 50
260.0000485891
 51
332.3995433346
  0
ARC
  5
2D7
330
1F
100
AcDbEntity
  8
PROFILES_INSIDE
100
AcDbCircle
 10
378.131499867
 20
350.6313446564
 30
0.0
 40
5.170000000000122
100
AcDbArc
 50
325.1121913085
 51
152.3995433346
  0
ARC
  5
2D8
330
1F
100
AcDbEntity
  8
PROFILES_INSIDE
100
AcDbCircle
 10
383.1926167434
 20
347.1022613606
 30
0.0
 40
1.00003508461418
100
AcDbArc
 50
145.1121913085
 51
170.0
  0
ARC
  5
2D9
330
1F
100
AcDbEntity
  8
PROFILES_INSIDE
100
AcDbCircle
 10
382.2522016875
 20
341.7691045954
 30
0.0
 40
1.000000000000059
100
AcDbArc
 50
170.0
 51
194.8879034673
  0
ARC
  5
2DA
330
1F
100
AcDbEntity
  8
PROFILES_INSIDE
100
AcDbCircle
 10
376.2893264602
 20
340.1838541343
 30
0.0
 40
5.169999999999981
100
AcDbArc
 50
187.6004769063
 51
14.8879034673
  0
ARC
  5
2DB
330
1F
100
AcDbEntity
  8
PROFILES_INSIDE
100
AcDbCircle
 10
370.1735333693
 20
339.367781301
 30
0.0
 40
1.000000000000122
100
AcDbArc
 50
7.6004769063
 51
80.0000485891
  0
ARC
  5
2DC
330
1F
100
AcDbEntity
  8
PROFILES_INSIDE
100
AcDbCircle
 10
366.1913279811
 20
340.0699480716
 30
0.0
 40
1.000000000000114
100
AcDbArc
 50
80.0000485891
 51
152.3995433346
  0
ARC
  5
2DD
330
1F
100
AcDbEntity
  8
PROFILES_INSIDE
100
AcDbCircle
 10
360.7234746809
 20
342.9285281889
 30
0.0
 40
5.169999999999984
100
AcDbArc
 50
145.1121194146
 51
332.3995433346
  0
ARC
  5
2DE
330
1F
100
AcDbEntity
  8
PROFILES_INSIDE
100
AcDbCircle
 10
355.6623910117
 20
346.4575977679
 30
0.0
 40
0.9999999999999933
100
AcDbArc
 50
325.1121194146
 51
350.0
  0
ARC
  5
2DF
330
1F
100
AcDbEntity
  8
PROFILES_INSIDE
100
AcDbCircle
 10
356.6027742048
 20
351.7907758744
 30
0.0
 40
0.9999986349374576
100
AcDbArc
 50
350.0
 51
14.8878382498
  0
ARC
  5
2E0
330
1F
100
AcDbEntity
  8
PROFILES_INSIDE
100
AcDbCircle
 10
362.5656480877
 20
353.3760187111
 30
0.0
 40
5.169998698471359
100
AcDbArc
 50
7.6004769063
 51
194.8878382498
  0
ARC
  5
2E1
330
1F
100
AcDbEntity
  8
PROFILES_INSIDE
100
AcDbCircle
 10
368.6814411786
 20
354.1920915443
 30
0.0
 40
1.000001301528584
100
AcDbArc
 50
187.6004769063
 51
260.0000485891
  0
ARC
  5
2E2
330
1F
100
AcDbEntity
  8
PROFILES_INSIDE
100
AcDbCircle
 10
92.2188464327
 20
398.4087877448
 30
0.0
 40
1.000035084614329
100
AcDbArc
 50
145.1121913085
 51
170.0
  0
ARC
  5
2E3
330
1F
100
AcDbEntity
  8
PROFILES_INSIDE
100
AcDbCircle
 10
87.1577295564
 20
401.9378710407
 30
0.0
 40
5.170000000000011
100
AcDbArc
 50
325.1121913085
 51
152.3995433346
  0
ARC
  5
2E4
330
1F
100
AcDbEntity
  8
PROFILES_INSIDE
100
AcDbCircle
 10
81.6898762561
 20
404.796451158
 30
0.0
 40
1.000000000000008
100
AcDbArc
 50
260.0000485891
 51
332.3995433346
  0
ARC
  5
2E5
330
1F
100
AcDbEntity
  8
PROFILES_INSIDE
100
AcDbCircle
 10
77.707670868
 20
405.4986179286
 30
0.0
 40
1.000000709924729
100
AcDbArc
 50
187.6004769063
 51
260.0000485891
  0
ARC
  5
2E6
330
1F
100
AcDbEntity
  8
PROFILES_INSIDE
100
AcDbCircle
 10
71.591877777
 20
404.6825450953
 30
0.0
 40
5.169999290075329
100
AcDbArc
 50
7.6004769063
 51
194.8878382498
  0
ARC
  5
2E7
330
1F
100
AcDbEntity
  8
PROFILES_INSIDE
100
AcDbCircle
 10
65.6290038942
 20
403.0973022587
 30
0.0
 40
0.9999985166167659
100
AcDbArc
 50
350.0
 51
14.8878382498
  0
ARC
  5
2E8
330
1F
100
AcDbEntity
  8
PROFILES_INSIDE
100
AcDbCircle
 10
64.6886207011
 20
397.7641241522
 30
0.0
 40
0.9999999999999792
100
AcDbArc
 50
325.1121194146
 51
350.0
  0
ARC
  5
2E9
330
1F
100
AcDbEntity
  8
PROFILES_INSIDE
100
AcDbCircle
 10
69.7497043703
 20
394.2350545731
 30
0.0
 40
5.170000000000025
100
AcDbArc
 50
145.1121194146
 51
332.3995433346
  0
ARC
  5
2EA
330
1F
100
AcDbEntity
  8
PROFILES_INSIDE
100
AcDbCircle
 10
75.2175576705
 20
391.3764744558
 30
0.0
 40
0.9999999999999815
100
AcDbArc
 50
80.0000485891
 51
152.3995433346
  0
ARC
  5
2EB
330
1F
100
AcDbEntity
  8
PROFILES_INSIDE
100
AcDbCircle
 10
79.1997630587
 20
390.6743076853
 30
0.0
 40
0.9999999999999736
100
AcDbArc
 50
7.6004769063
 51
80.0000485891
  0
ARC
  5
2EC
330
1F
100
AcDbEntity
  8
PROFILES_INSIDE
100
AcDbCircle
 10
85.3155561496
 20
391.4903805185
 30
0.0
 40
5.170000000000083
100
AcDbArc
 50
187.6004769063
 51
14.8879034674
  0
ARC
  5
2ED
330
1F
100
AcDbEntity
  8
PROFILES_INSIDE
100
AcDbCircle
 10
91.2784313768
 20
393.0756309796
 30
0.0
 40
0.9999999999999231
100
AcDbArc
 50
170.0
 51
194.8879034673
  0
ARC
  5
2EE
330
1F
100
AcDbEntity
  8
PROFILES_INSIDE
100
AcDbCircle
 10
378.131499932
 20
111.1266715816
 30
0.0
 40
5.169999999999963
100
AcDbArc
 50
207.6004769063
 51
34.8879034673
  0
ARC
  5
2EF
330
1F
100
AcDbEntity
  8
PROFILES_INSIDE
100
AcDbCircle
 10
383.1925821918
 20
114.6557431818
 30
0.0
 40
1.000000000000025
100
AcDbArc
 50
190.0
 51
214.8879034673
  0
ARC
  5
2F0
330
1F
100
AcDbEntity
  8
PROFILES_INSIDE
100
AcDbCircle
 10
382.2522362391
 20
119.9889121318
 30
0.0
 40
1.000035084614157
100
AcDbArc
 50
165.1121913085
 51
190.0
  0
ARC
  5
2F1
330
1F
100
AcDbEntity
  8
PROFILES_INSIDE
100
AcDbCircle
 10
376.2893244827
 20
121.5741617436
 30
0.0
 40
5.170000000000064
100
AcDbArc
 50
345.1121913085
 51
172.3995433346
  0
ARC
  5
2F2
330
1F
100
AcDbEntity
  8
PROFILES_INSIDE
100
AcDbCircle
 10
370.1735311035
 20
122.3902324163
 30
0.0
 40
1.000000000000055
100
AcDbArc
 50
280.0000485891
 51
352.3995433346
  0
ARC
  5
2F3
330
1F
100
AcDbEntity
  8
PROFILES_INSIDE
100
AcDbCircle
 10
366.1913269063
 20
121.6880588916
 30
0.0
 40
1.000000591603903
100
AcDbArc
 50
207.6004769063
 51
280.0000485891
  0
ARC
  5
2F4
330
1F
100
AcDbEntity
  8
PROFILES_INSIDE
100
AcDbCircle
 10
360.7234746159
 20
118.8294768427
 30
0.0
 40
5.169999408396167
100
AcDbArc
 50
27.6004769063
 51
214.8878382498
  0
ARC
  5
2F5
330
1F
100
AcDbEntity
  8
PROFILES_INSIDE
100
AcDbCircle
 10
355.6623910117
 20
115.3004128669
 30
0.0
 40
0.9999983982959186
100
AcDbArc
 50
10.0
 51
34.8878382498
  0
ARC
  5
2F6
330
1F
100
AcDbEntity
  8
PROFILES_INSIDE
100
AcDbCircle
 10
356.6027742048
 20
109.9672347604
 30
0.0
 40
1.000000000000049
100
AcDbArc
 50
345.1121194146
 51
10.0
  0
ARC
  5
2F7
330
1F
100
AcDbEntity
  8
PROFILES_INSIDE
100
AcDbCircle
 10
362.5656500652
 20
108.3819866806
 30
0.0
 40
5.170000000000027
100
AcDbArc
 50
165.1121194146
 51
352.3995433346
  0
ARC
  5
2F8
330
1F
100
AcDbEntity
  8
PROFILES_INSIDE
100
AcDbCircle
 10
368.6814434444
 20
107.5659160079
 30
0.0
 40
1.000000000000032
100
AcDbArc
 50
100.0000485891
 51
172.3995433346
  0
ARC
  5
2F9
330
1F
100
AcDbEntity
  8
PROFILES_INSIDE
100
AcDbCircle
 10
372.6636476416
 20
108.2680895326
 30
0.0
 40
1.000000000000032
100
AcDbArc
 50
27.6004769063
 51
100.0000485891
  0
ARC
  5
2FA
330
1F
100
AcDbEntity
  8
PROFILES_INSIDE
100
AcDbCircle
 10
65.6290038942
 20
58.6607083762
 30
0.0
 40
1.000000000000026
100
AcDbArc
 50
345.1121194146
 51
10.0
  0
ARC
  5
2FB
330
1F
100
AcDbEntity
  8
PROFILES_INSIDE
100
AcDbCircle
 10
71.5918797545
 20
57.0754602964
 30
0.0
 40
5.170000000000109
100
AcDbArc
 50
165.1121194146
 51
352.3995433346
  0
ARC
  5
2FC
330
1F
100
AcDbEntity
  8
PROFILES_INSIDE
100
AcDbCircle
 10
77.7076731337
 20
56.2593896237
 30
0.0
 40
1.000000000000032
100
AcDbArc
 50
100.0000485891
 51
172.3995433346
  0
ARC
  5
2FD
330
1F
100
AcDbEntity
  8
PROFILES_INSIDE
100
AcDbCircle
 10
81.689877331
 20
56.9615631484
 30
0.0
 40
1.000000000000091
100
AcDbArc
 50
27.6004769063
 51
100.0000485891
  0
ARC
  5
2FE
330
1F
100
AcDbEntity
  8
PROFILES_INSIDE
100
AcDbCircle
 10
87.1577296214
 20
59.8201451973
 30
0.0
 40
5.169999999999976
100
AcDbArc
 50
207.6004769063
 51
34.8879034673
  0
ARC
  5
2FF
330
1F
100
AcDbEntity
  8
PROFILES_INSIDE
100
AcDbCircle
 10
92.2188118811
 20
63.3492167976
 30
0.0
 40
1.000000000000029
100
AcDbArc
 50
190.0
 51
214.8879034673
  0
ARC
  5
300
330
1F
100
AcDbEntity
  8
PROFILES_INSIDE
100
AcDbCircle
 10
91.2784659284
 20
68.6823857476
 30
0.0
 40
1.000035084614306
100
AcDbArc
 50
165.1121913085
 51
190.0
  0
ARC
  5
301
330
1F
100
AcDbEntity
  8
PROFILES_INSIDE
100
AcDbCircle
 10
85.3155541721
 20
70.2676353594
 30
0.0
 40
5.170000000000064
100
AcDbArc
 50
345.1121913085
 51
172.3995433346
  0
ARC
  5
302
330
1F
100
AcDbEntity
  8
PROFILES_INSIDE
100
AcDbCircle
 10
79.1997607929
 20
71.0837060321
 30
0.0
 40
0.9999999999999829
100
AcDbArc
 50
280.0000485891
 51
352.3995433346
  0
ARC
  5
303
330
1F
100
AcDbEntity
  8
PROFILES_INSIDE
100
AcDbCircle
 10
75.2175565957
 20
70.3815325074
 30
0.0
 40
1.000000118320809
100
AcDbArc
 50
207.6004769063
 51
280.0000485891
  0
ARC
  5
304
330
1F
100
AcDbEntity
  8
PROFILES_INSIDE
100
AcDbCircle
 10
69.7497043053
 20
67.5229504584
 30
0.0
 40
5.169999881679223
100
AcDbArc
 50
27.6004769063
 51
214.8878382498
  0
ARC
  5
305
330
1F
100
AcDbEntity
  8
PROFILES_INSIDE
100
AcDbCircle
 10
64.6886207011
 20
63.9938864826
 30
0.0
 40
0.9999986349375658
100
AcDbArc
 50
10.0
 51
34.8878382498
  0
ARC
  5
306
330
1F
100
AcDbEntity
  8
PROFILES_INSIDE
100
AcDbCircle
 10
786.1436465667
 20
353.4899247737
 30
0.0
 40
1.000000000000028
100
AcDbArc
 50
260.0000485891
 51
332.3995433346
  0
ARC
  5
307
330
1F
100
AcDbEntity
  8
PROFILES_INSIDE
100
AcDbCircle
 10
791.611499867
 20
350.6313446564
 30
0.0
 40
5.170000000000011
100
AcDbArc
 50
325.1121913085
 51
152.3995433346
  0
ARC
  5
308
330
1F
100
AcDbEntity
  8
PROFILES_INSIDE
100
AcDbCircle
 10
796.6726167434
 20
347.1022613606
 30
0.0
 40
1.000035084614259
100
AcDbArc
 50
145.1121913085
 51
170.0
  0
ARC
  5
309
330
1F
100
AcDbEntity
  8
PROFILES_INSIDE
100
AcDbCircle
 10
795.7322016875
 20
341.7691045954
 30
0.0
 40
1.000000000000018
100
AcDbArc
 50
170.0
 51
194.8879034674
  0
ARC
  5
30A
330
1F
100
AcDbEntity
  8
PROFILES_INSIDE
100
AcDbCircle
 10
789.7693264602
 20
340.1838541343
 30
0.0
 40
5.169999999999978
100
AcDbArc
 50
187.6004769063
 51
14.8879034673
  0
ARC
  5
30B
330
1F
100
AcDbEntity
  8
PROFILES_INSIDE
100
AcDbCircle
 10
783.6535333693
 20
339.367781301
 30
0.0
 40
1.000000000000066
100
AcDbArc
 50
7.6004769063
 51
80.0000485891
  0
ARC
  5
30C
330
1F
100
AcDbEntity
  8
PROFILES_INSIDE
100
AcDbCircle
 10
779.6713279811
 20
340.0699480716
 30
0.0
 40
1.000000000000071
100
AcDbArc
 50
80.0000485891
 51
152.3995433346
  0
ARC
  5
30D
330
1F
100
AcDbEntity
  8
PROFILES_INSIDE
100
AcDbCircle
 10
774.2034746809
 20
342.9285281889
 30
0.0
 40
5.170000000000083
100
AcDbArc
 50
145.1121194146
 51
332.3995433346
  0
ARC
  5
30E
330
1F
100
AcDbEntity
  8
PROFILES_INSIDE
100
AcDbCircle
 10
769.1423910117
 20
346.4575977679
 30
0.0
 40
1.000000000000003
100
AcDbArc
 50
325.1121194146
 51
350.0
  0
ARC
  5
30F
330
1F
100
AcDbEntity
  8
PROFILES_INSIDE
100
AcDbCircle
 10
770.0827742048
 20
351.7907758744
 30
0.0
 40
0.9999986349374016
100
AcDbArc
 50
350.0
 51
14.8878382498
  0
ARC
  5
310
330
1F
100
AcDbEntity
  8
PROFILES_INSIDE
100
AcDbCircle
 10
776.0456480877
 20
353.3760187111
 30
0.0
 40
5.16999869847131
100
AcDbArc
 50
7.6004769063
 51
194.8878382498
  0
ARC
  5
311
330
1F
100
AcDbEntity
  8
PROFILES_INSIDE
100
AcDbCircle
 10
782.1614411786
 20
354.1920915443
 30
0.0
 40
1.000001301528621
100
AcDbArc
 50
187.6004769063
 51
260.0000485891
  0
ARC
  5
312
330
1F
100
AcDbEntity
  8
PROFILES_INSIDE
100
AcDbCircle
 10
505.8412496338
 20
398.3836782183
 30
0.0
 40
1.000035084614198
100
AcDbArc
 50
145.1121913085
 51
170.0
  0
ARC
  5
313
330
1F
100
AcDbEntity
  8
PROFILES_INSIDE
100
AcDbCircle
 10
500.7801327575
 20
401.9127615142
 30
0.0
 40
5.170000000000043
100
AcDbArc
 50
325.1121913085
 51
152.3995433346
  0
ARC
  5
314
330
1F
100
AcDbEntity
  8
PROFILES_INSIDE
100
AcDbCircle
 10
495.3122794572
 20
404.7713416315
 30
0.0
 40
1.000000000000094
100
AcDbArc
 50
260.0000485891
 51
332.3995433346
  0
ARC
  5
315
330
1F
100
AcDbEntity
  8
PROFILES_INSIDE
100
AcDbCircle
 10
491.330074069
 20
405.4735084021
 30
0.0
 40
1.00000070992463
100
AcDbArc
 50
187.6004769063
 51
260.0000485891
  0
ARC
  5
316
330
1F
100
AcDbEntity
  8
PROFILES_INSIDE
100
AcDbCircle
 10
485.2142809781
 20
404.6574355688
 30
0.0
 40
5.169999290075364
100
AcDbArc
 50
7.6004769063
 51
194.8878382498
  0
ARC
  5
317
330
1F
100
AcDbEntity
  8
PROFILES_INSIDE
100
AcDbCircle
 10
479.2514070953
 20
403.0721927322
 30
0.0
 40
0.9999985166166456
100
AcDbArc
 50
350.0
 51
14.8878382498
  0
ARC
  5
318
330
1F
100
AcDbEntity
  8
PROFILES_INSIDE
100
AcDbCircle
 10
478.3110239022
 20
397.7390146257
 30
0.0
 40
1.000000000000049
100
AcDbArc
 50
325.1121194146
 51
350.0
  0
ARC
  5
319
330
1F
100
AcDbEntity
  8
PROFILES_INSIDE
100
AcDbCircle
 10
483.3721075714
 20
394.2099450467
 30
0.0
 40
5.170000000000069
100
AcDbArc
 50
145.1121194146
 51
332.3995433346
  0
ARC
  5
31A
330
1F
100
AcDbEntity
  8
PROFILES_INSIDE
100
AcDbCircle
 10
488.8399608716
 20
391.3513649294
 30
0.0
 40
1.000000000000095
100
AcDbArc
 50
80.0000485891
 51
152.3995433346
  0
ARC
  5
31B
330
1F
100
AcDbEntity
  8
PROFILES_INSIDE
100
AcDbCircle
 10
492.8221662598
 20
390.6491981588
 30
0.0
 40
1.000000000000028
100
AcDbArc
 50
7.6004769063
 51
80.0000485891
  0
ARC
  5
31C
330
1F
100
AcDbEntity
  8
PROFILES_INSIDE
100
AcDbCircle
 10
498.9379593507
 20
391.465270992
 30
0.0
 40
5.169999999999966
100
AcDbArc
 50
187.6004769063
 51
14.8879034673
  0
ARC
  5
31D
330
1F
100
AcDbEntity
  8
PROFILES_INSIDE
100
AcDbCircle
 10
504.9008345779
 20
393.0505214531
 30
0.0
 40
1.000000000000128
100
AcDbArc
 50
170.0
 51
194.8879034673
  0
ARC
  5
31E
330
1F
100
AcDbEntity
  8
PROFILES_INSIDE
100
AcDbCircle
 10
791.611499932
 20
111.1266715816
 30
0.0
 40
5.170000000000012
100
AcDbArc
 50
207.6004769063
 51
34.8879034673
  0
ARC
  5
31F
330
1F
100
AcDbEntity
  8
PROFILES_INSIDE
100
AcDbCircle
 10
796.6725821918
 20
114.6557431818
 30
0.0
 40
0.9999999999999643
100
AcDbArc
 50
190.0
 51
214.8879034674
  0
ARC
  5
320
330
1F
100
AcDbEntity
  8
PROFILES_INSIDE
100
AcDbCircle
 10
795.7322362391
 20
119.9889121318
 30
0.0
 40
1.000035084614298
100
AcDbArc
 50
165.1121913085
 51
190.0
  0
ARC
  5
321
330
1F
100
AcDbEntity
  8
PROFILES_INSIDE
100
AcDbCircle
 10
789.7693244827
 20
121.5741617436
 30
0.0
 40
5.170000000000043
100
AcDbArc
 50
345.1121913085
 51
172.3995433346
  0
ARC
  5
322
330
1F
100
AcDbEntity
  8
PROFILES_INSIDE
100
AcDbCircle
 10
783.6535311035
 20
122.3902324163
 30
0.0
 40
1.000000000000005
100
AcDbArc
 50
280.0000485891
 51
352.3995433346
  0
ARC
  5
323
330
1F
100
AcDbEntity
  8
PROFILES_INSIDE
100
AcDbCircle
 10
779.6713269063
 20
121.6880588916
 30
0.0
 40
1.000000591603795
100
AcDbArc
 50
207.6004769063
 51
280.0000485891
  0
ARC
  5
324
330
1F
100
AcDbEntity
  8
PROFILES_INSIDE
100
AcDbCircle
 10
774.2034746159
 20
118.8294768427
 30
0.0
 40
5.169999408396174
100
AcDbArc
 50
27.6004769063
 51
214.8878382498
  0
ARC
  5
325
330
1F
100
AcDbEntity
  8
PROFILES_INSIDE
100
AcDbCircle
 10
769.1423910117
 20
115.3004128669
 30
0.0
 40
0.9999983982958627
100
AcDbArc
 50
10.0
 51
34.8878382498
  0
ARC
  5
326
330
1F
100
AcDbEntity
  8
PROFILES_INSIDE
100
AcDbCircle
 10
770.0827742048
 20
109.9672347604
 30
0.0
 40
1.000000000000005
100
AcDbArc
 50
345.1121194146
 51
10.0
  0
ARC
  5
327
330
1F
100
AcDbEntity
  8
PROFILES_INSIDE
100
AcDbCircle
 10
776.0456500652
 20
108.3819866806
 30
0.0
 40
5.170000000000122
100
AcDbArc
 50
165.1121194146
 51
352.3995433346
  0
ARC
  5
328
330
1F
100
AcDbEntity
  8
PROFILES_INSIDE
100
AcDbCircle
 10
782.1614434444
 20
107.5659160079
 30
0.0
 40
0.9999999999999855
100
AcDbArc
 50
100.0000485891
 51
172.3995433346
  0
ARC
  5
329
330
1F
100
AcDbEntity
  8
PROFILES_INSIDE
100
AcDbCircle
 10
786.1436476416
 20
108.2680895326
 30
0.0
 40
0.9999999999999855
100
AcDbArc
 50
27.6004769063
 51
100.0000485891
  0
ARC
  5
32A
330
1F
100
AcDbEntity
  8
PROFILES_INSIDE
100
AcDbCircle
 10
479.2514070953
 20
58.6858179026
 30
0.0
 40
1.000000000000059
100
AcDbArc
 50
345.1121194146
 51
10.0
  0
ARC
  5
32B
330
1F
100
AcDbEntity
  8
PROFILES_INSIDE
100
AcDbCircle
 10
485.2142829556
 20
57.1005698229
 30
0.0
 40
5.17000000000005
100
AcDbArc
 50
165.1121194146
 51
352.3995433346
  0
ARC
  5
32C
330
1F
100
AcDbEntity
  8
PROFILES_INSIDE
100
AcDbCircle
 10
491.3300763348
 20
56.2844991502
 30
0.0
 40
1.000000000000034
100
AcDbArc
 50
100.0000485891
 51
172.3995433346
  0
ARC
  5
32D
330
1F
100
AcDbEntity
  8
PROFILES_INSIDE
100
AcDbCircle
 10
495.312280532
 20
56.9866726749
 30
0.0
 40
1.000000000000034
100
AcDbArc
 50
27.6004769063
 51
100.0000485891
  0
ARC
  5
32E
330
1F
100
AcDbEntity
  8
PROFILES_INSIDE
100
AcDbCircle
 10
500.7801328224
 20
59.8452547238
 30
0.0
 40
5.170000000000122
100
AcDbArc
 50
207.6004769063
 51
34.8879034673
  0
ARC
  5
32F
330
1F
100
AcDbEntity
  8
PROFILES_INSIDE
100
AcDbCircle
 10
505.8412150822
 20
63.3743263241
 30
0.0
 40
0.9999999999999469
100
AcDbArc
 50
190.0
 51
214.8879034673
  0
ARC
  5
330
330
1F
100
AcDbEntity
  8
PROFILES_INSIDE
100
AcDbCircle
 10
504.9008691295
 20
68.7074952741
 30
0.0
 40
1.000035084614334
100
AcDbArc
 50
165.1121913085
 51
190.0
  0
ARC
  5
331
330
1F
100
AcDbEntity
  8
PROFILES_INSIDE
100
AcDbCircle
 10
498.9379573732
 20
70.2927448859
 30
0.0
 40
5.169999999999993
100
AcDbArc
 50
345.1121913085
 51
172.3995433346
  0
ARC
  5
332
330
1F
100
AcDbEntity
  8
PROFILES_INSIDE
100
AcDbCircle
 10
492.822163994
 20
71.1088155586
 30
0.0
 40
1.000000000000166
100
AcDbArc
 50
280.0000485891
 51
352.3995433346
  0
ARC
  5
333
330
1F
100
AcDbEntity
  8
PROFILES_INSIDE
100
AcDbCircle
 10
488.8399597968
 20
70.4066420339
 30
0.0
 40
1.000000118320709
100
AcDbArc
 50
207.6004769063
 51
280.0000485891
  0
ARC
  5
334
330
1F
100
AcDbEntity
  8
PROFILES_INSIDE
100
AcDbCircle
 10
483.3721075064
 20
67.5480599849
 30
0.0
 40
5.169999881679278
100
AcDbArc
 50
27.6004769063
 51
214.8878382498
  0
ARC
  5
335
330
1F
100
AcDbEntity
  8
PROFILES_INSIDE
100
AcDbCircle
 10
478.3110239022
 20
64.0189960091
 30
0.0
 40
0.9999986349374527
100
AcDbArc
 50
10.0
 51
34.8878382498
  0
ARC
  5
336
330
1F
100
AcDbEntity
  8
PROFILES_OUTSIDE
100
AcDbCircle
 10
445.4282800697
 20
421.5180252592
 30
0.0
 40
6.0
100
AcDbArc
 50
80.0
 51
180.0
  0
ARC
  5
337
330
1F
100
AcDbEntity
  8
PROFILES_OUTSIDE
100
AcDbCircle
 10
815.4282800697
 20
356.277042397
 30
0.0
 40
6.000000000000034
100
AcDbArc
 50
0.0
 51
80.0
  0
ARC
  5
338
330
1F
100
AcDbEntity
  8
PROFILES_OUTSIDE
100
AcDbCircle
 10
815.4282800697
 20
286.3462379712
 30
0.0
 40
6.000000000000034
100
AcDbArc
 50
280.0
 51
0.0
  0
ARC
  5
339
330
1F
100
AcDbEntity
  8
PROFILES_OUTSIDE
100
AcDbCircle
 10
807.4282800697
 20
272.7505027829
 30
0.0
 40
6.000000000000034
100
AcDbArc
 50
100.0
 51
180.0
  0
ARC
  5
33A
330
1F
100
AcDbEntity
  8
PROFILES_OUTSIDE
100
AcDbCircle
 10
807.4282800697
 20
189.0075078519
 30
0.0
 40
6.0
100
AcDbArc
 50
180.0
 51
260.0
  0
ARC
  5
33B
330
1F
100
AcDbEntity
  8
PROFILES_OUTSIDE
100
AcDbCircle
 10
815.4282800697
 20
175.4117726636
 30
0.0
 40
6.0
100
AcDbArc
 50
0.0
 51
80.0
  0
ARC
  5
33C
330
1F
100
AcDbEntity
  8
PROFILES_OUTSIDE
100
AcDbCircle
 10
815.4282800697
 20
105.4809682378
 30
0.0
 40
6.0
100
AcDbArc
 50
280.0
 51
0.0
  0
ARC
  5
33D
330
1F
100
AcDbEntity
  8
PROFILES_OUTSIDE
100
AcDbCircle
 10
445.4282800697
 20
40.2399853756
 30
0.0
 40
6.0
100
AcDbArc
 50
180.0
 51
280.0
  0
ARC
  5
33E
330
1F
100
AcDbEntity
  8
PROFILES_OUTSIDE
100
AcDbCircle
 10
1784.5682800697
 20
338.5357720068
 30
0.0
 40
12.00000000000006
100
AcDbArc
 50
90.0
 51
180.0
  0
ARC
  5
33F
330
1F
100
AcDbEntity
  8
PROFILES_OUTSIDE
100
AcDbCircle
 10
1784.5682800697
 20
67.0732622726
 30
0.0
 40
12.00000000000018
100
AcDbArc
 50
180.0
 51
270.0
  0
ARC
  5
340
330
1F
100
AcDbEntity
  8
PROFILES_OUTSIDE
100
AcDbCircle
 10
1918.8682800697
 20
37.3232622726
 30
0.0
 40
1.0
100
AcDbArc
 50
270.0
 51
0.0
  0
ARC
  5
341
330
1F
100
AcDbEntity
  8
PROFILES_OUTSIDE
100
AcDbCircle
 10
1573.4663259768
 20
364.0357720068
 30
0.0
 40
1.0
100
AcDbArc
 50
183.6619355755
 51
270.0
  0
ARC
  5
342
330
1F
100
AcDbEntity
  8
PROFILES_OUTSIDE
100
AcDbCircle
 10
1581.4060016863
 20
362.0357720068
 30
0.0
 40
1.000000000000057
100
AcDbArc
 50
65.1121079736
 51
90.0
  0
ARC
  5
343
330
1F
100
AcDbEntity
  8
PROFILES_OUTSIDE
100
AcDbCircle
 10
1584.0026099301
 20
367.6327824256
 30
0.0
 40
5.170000000000085
100
AcDbArc
 50
245.1121079736
 51
72.3995332141
  0
ARC
  5
344
330
1F
100
AcDbEntity
  8
PROFILES_OUTSIDE
100
AcDbCircle
 10
1585.8682800697
 20
373.5139536465
 30
0.0
 40
1.0
100
AcDbArc
 50
180.0
 51
252.3995332141
  0
ARC
  5
345
330
1F
100
AcDbEntity
  8
PROFILES_OUTSIDE
100
AcDbCircle
 10
1707.8682800697
 20
363.5377720068
 30
0.0
 40
12.00000000000023
100
AcDbArc
 50
0.0
 51
90.0
  0
ARC
  5
346
330
1F
100
AcDbEntity
  8
PROFILES_OUTSIDE
100
AcDbCircle
 10
1731.8682800697
 20
268.3822687621
 30
0.0
 40
12.00000000000006
100
AcDbArc
 50
180.0
 51
270.0
  0
ARC
  5
347
330
1F
100
AcDbEntity
  8
PROFILES_OUTSIDE
100
AcDbCircle
 10
1747.8682800697
 20
268.3822687621
 30
0.0
 40
12.00000000000006
100
AcDbArc
 50
270.0
 51
0.0
  0
ARC
  5
348
330
1F
100
AcDbEntity
  8
PROFILES_OUTSIDE
100
AcDbCircle
 10
1771.8682800697
 20
363.5377720068
 30
0.0
 40
12.0
100
AcDbArc
 50
90.0
 51
180.0
  0
ARC
  5
349
330
1F
100
AcDbEntity
  8
PROFILES_OUTSIDE
100
AcDbCircle
 10
1893.8682800697
 20
373.5139536465
 30
0.0
 40
1.0
100
AcDbArc
 50
287.6004667859
 51
0.0
  0
ARC
  5
34A
330
1F
100
AcDbEntity
  8
PROFILES_OUTSIDE
100
AcDbCircle
 10
1895.7339502093
 20
367.6327824256
 30
0.0
 40
5.17000000000008
100
AcDbArc
 50
107.6004667859
 51
294.8878920264
  0
ARC
  5
34B
330
1F
100
AcDbEntity
  8
PROFILES_OUTSIDE
100
AcDbCircle
 10
1898.3305584531
 20
362.0357720068
 30
0.0
 40
0.9999999999999432
100
AcDbArc
 50
90.0
 51
114.8878920264
  0
ARC
  5
34C
330
1F
100
AcDbEntity
  8
PROFILES_OUTSIDE
100
AcDbCircle
 10
1906.2702341626
 20
364.0357720068
 30
0.0
 40
1.00000000000016
100
AcDbArc
 50
270.0
 51
356.3380644245
  0
ARC
  5
34D
330
1F
100
AcDbEntity
  8
PROFILES_OUTSIDE
100
AcDbCircle
 10
1913.8682800697
 20
356.5357720068
 30
0.0
 40
6.000000000000057
100
AcDbArc
 50
270.0
 51
0.0
  0
ARC
  5
34E
330
1F
100
AcDbEntity
  8
PROFILES_OUTSIDE
100
AcDbCircle
 10
1560.8682800697
 20
37.3232622726
 30
0.0
 40
1.0
100
AcDbArc
 50
180.0
 51
270.0
  0
ARC
  5
34F
330
1F
100
AcDbEntity
  8
PROFILES_OUTSIDE
100
AcDbCircle
 10
1759.8682800697
 20
256.3822687621
 30
0.0
 40
12.69999999999984
100
AcDbArc
 50
300.0
 51
0.0
  0
ARC
  5
350
330
1F
100
AcDbEntity
  8
PROFILES_OUTSIDE
100
AcDbCircle
 10
1772.5682800697
 20
234.3852235059
 30
0.0
 40
12.69999999999997
100
AcDbArc
 50
120.0
 51
180.0
  0
ARC
  5
351
330
1F
100
AcDbEntity
  8
PROFILES_OUTSIDE
100
AcDbCircle
 10
1772.5682800697
 20
171.2238107735
 30
0.0
 40
12.69999999999997
100
AcDbArc
 50
180.0
 51
240.0
  0
ARC
  5
352
330
1F
100
AcDbEntity
  8
PROFILES_OUTSIDE
100
AcDbCircle
 10
1759.8682800697
 20
149.2267655173
 30
0.0
 40
12.69999999999982
100
AcDbArc
 50
0.0
 51
60.0
  0
ARC
  5
353
330
1F
100
AcDbEntity
  8
PROFILES_OUTSIDE
100
AcDbCircle
 10
1913.8682800697
 20
49.0732622726
 30
0.0
 40
6.0
100
AcDbArc
 50
0.0
 51
90.0
  0
ARC
  5
354
330
1F
100
AcDbEntity
  8
PROFILES_OUTSIDE
100
AcDbCircle
 10
1695.1682800697
 20
67.0732622726
 30
0.0
 40
12.00000000000001
100
AcDbArc
 50
270.0
 51
0.0
  0
ARC
  5
355
330
1F
100
AcDbEntity
  8
PROFILES_OUTSIDE
100
AcDbCircle
 10
1906.2702341626
 20
41.5732622726
 30
0.0
 40
1.00000000000016
100
AcDbArc
 50
3.6619355755
 51
90.0
  0
ARC
  5
356
330
1F
100
AcDbEntity
  8
PROFILES_OUTSIDE
100
AcDbCircle
 10
1898.3305584531
 20
43.5732622726
 30
0.0
 40
1.0
100
AcDbArc
 50
245.1121079736
 51
270.0
  0
ARC
  5
357
330
1F
100
AcDbEntity
  8
PROFILES_OUTSIDE
100
AcDbCircle
 10
1895.7339502093
 20
37.9762518538
 30
0.0
 40
5.170000000000113
100
AcDbArc
 50
65.1121079736
 51
252.3995332141
  0
ARC
  5
358
330
1F
100
AcDbEntity
  8
PROFILES_OUTSIDE
100
AcDbCircle
 10
1893.8682800697
 20
32.0950806329
 30
0.0
 40
1.0
100
AcDbArc
 50
0.0
 51
72.3995332141
  0
ARC
  5
359
330
1F
100
AcDbEntity
  8
PROFILES_OUTSIDE
100
AcDbCircle
 10
1771.8682800697
 20
42.0712622726
 30
0.0
 40
12.0
100
AcDbArc
 50
180.0
 51
270.0
  0
ARC
  5
35A
330
1F
100
AcDbEntity
  8
PROFILES_OUTSIDE
100
AcDbCircle
 10
1747.8682800697
 20
137.2267655173
 30
0.0
 40
12.0
100
AcDbArc
 50
0.0
 51
90.0
  0
ARC
  5
35B
330
1F
100
AcDbEntity
  8
PROFILES_OUTSIDE
100
AcDbCircle
 10
1731.8682800697
 20
137.2267655173
 30
0.0
 40
12.0
100
AcDbArc
 50
90.0
 51
180.0
  0
ARC
  5
35C
330
1F
100
AcDbEntity
  8
PROFILES_OUTSIDE
100
AcDbCircle
 10
1707.8682800697
 20
42.0712622726
 30
0.0
 40
12.00000000000023
100
AcDbArc
 50
270.0
 51
0.0
  0
ARC
  5
35D
330
1F
100
AcDbEntity
  8
PROFILES_OUTSIDE
100
AcDbCircle
 10
1585.8682800697
 20
32.0950806329
 30
0.0
 40
1.000000000000227
100
AcDbArc
 50
107.6004667859
 51
180.0
  0
ARC
  5
35E
330
1F
100
AcDbEntity
  8
PROFILES_OUTSIDE
100
AcDbCircle
 10
1584.0026099301
 20
37.9762518538
 30
0.0
 40
5.170000000000112
100
AcDbArc
 50
287.6004667859
 51
114.8878920264
  0
ARC
  5
35F
330
1F
100
AcDbEntity
  8
PROFILES_OUTSIDE
100
AcDbCircle
 10
1581.4060016863
 20
43.5732622726
 30
0.0
 40
1.0
100
AcDbArc
 50
270.0
 51
294.8878920264
  0
ARC
  5
360
330
1F
100
AcDbEntity
  8
PROFILES_OUTSIDE
100
AcDbCircle
 10
1573.4663259768
 20
41.5732622726
 30
0.0
 40
1.0
100
AcDbArc
 50
90.0
 51
176.3380644245
  0
ARC
  5
361
330
1F
100
AcDbEntity
  8
PROFILES_OUTSIDE
100
AcDbCircle
 10
1565.8682800697
 20
49.0732622726
 30
0.0
 40
6.0
100
AcDbArc
 50
90.0
 51
180.0
  0
ARC
  5
362
330
1F
100
AcDbEntity
  8
PROFILES_OUTSIDE
100
AcDbCircle
 10
1695.1682800697
 20
338.5357720068
 30
0.0
 40
12.0
100
AcDbArc
 50
0.0
 51
90.0
  0
ARC
  5
363
330
1F
100
AcDbEntity
  8
PROFILES_OUTSIDE
100
AcDbCircle
 10
1719.8682800697
 20
149.2267655173
 30
0.0
 40
12.70000000000027
100
AcDbArc
 50
120.0
 51
180.0
  0
ARC
  5
364
330
1F
100
AcDbEntity
  8
PROFILES_OUTSIDE
100
AcDbCircle
 10
1707.1682800697
 20
171.2238107735
 30
0.0
 40
12.70000000000005
100
AcDbArc
 50
300.0
 51
0.0
  0
ARC
  5
365
330
1F
100
AcDbEntity
  8
PROFILES_OUTSIDE
100
AcDbCircle
 10
1707.1682800697
 20
234.3852235059
 30
0.0
 40
12.70000000000027
100
AcDbArc
 50
0.0
 51
60.0
  0
ARC
  5
366
330
1F
100
AcDbEntity
  8
PROFILES_OUTSIDE
100
AcDbCircle
 10
1719.8682800697
 20
256.3822687621
 30
0.0
 40
12.70000000000027
100
AcDbArc
 50
180.0
 51
240.0
  0
ARC
  5
367
330
1F
100
AcDbEntity
  8
PROFILES_OUTSIDE
100
AcDbCircle
 10
1565.8682800697
 20
356.5357720068
 30
0.0
 40
6.0
100
AcDbArc
 50
180.0
 51
270.0
  0
ARC
  5
368
330
1F
100
AcDbEntity
  8
PROFILES_OUTSIDE
100
AcDbCircle
 10
1560.8682800697
 20
368.2857720068
 30
0.0
 40
1.0
100
AcDbArc
 50
90.0
 51
180.0
  0
ARC
  5
369
330
1F
100
AcDbEntity
  8
PROFILES_OUTSIDE
100
AcDbCircle
 10
1560.8682800697
 20
414.2657720068
 30
0.0
 40
1.0
100
AcDbArc
 50
180.0
 51
270.0
  0
ARC
  5
36A
330
1F
100
AcDbEntity
  8
PROFILES_OUTSIDE
100
AcDbCircle
 10
1695.1682800697
 20
444.0157720068
 30
0.0
 40
12.00000000000006
100
AcDbArc
 50
270.0
 51
0.0
  0
ARC
  5
36B
330
1F
100
AcDbEntity
  8
PROFILES_OUTSIDE
100
AcDbCircle
 10
1695.1682800697
 20
715.4782817409
 30
0.0
 40
12.00000000000023
100
AcDbArc
 50
0.0
 51
90.0
  0
ARC
  5
36C
330
1F
100
AcDbEntity
  8
PROFILES_OUTSIDE
100
AcDbCircle
 10
1560.8682800697
 20
745.2282817409
 30
0.0
 40
1.0
100
AcDbArc
 50
90.0
 51
180.0
  0
ARC
  5
36D
330
1F
100
AcDbEntity
  8
PROFILES_OUTSIDE
100
AcDbCircle
 10
1906.2702341626
 20
418.5157720068
 30
0.0
 40
1.00000000000016
100
AcDbArc
 50
3.6619355755
 51
90.0
  0
ARC
  5
36E
330
1F
100
AcDbEntity
  8
PROFILES_OUTSIDE
100
AcDbCircle
 10
1898.3305584531
 20
420.5157720068
 30
0.0
 40
1.000000000000057
100
AcDbArc
 50
245.1121079736
 51
270.0
  0
ARC
  5
36F
330
1F
100
AcDbEntity
  8
PROFILES_OUTSIDE
100
AcDbCircle
 10
1895.7339502093
 20
414.918761588
 30
0.0
 40
5.170000000000085
100
AcDbArc
 50
65.1121079736
 51
252.3995332141
  0
ARC
  5
370
330
1F
100
AcDbEntity
  8
PROFILES_OUTSIDE
100
AcDbCircle
 10
1893.8682800697
 20
409.037590367
 30
0.0
 40
1.0
100
AcDbArc
 50
0.0
 51
72.3995332141
  0
ARC
  5
371
330
1F
100
AcDbEntity
  8
PROFILES_OUTSIDE
100
AcDbCircle
 10
1771.8682800697
 20
419.0137720068
 30
0.0
 40
12.0
100
AcDbArc
 50
180.0
 51
270.0
  0
ARC
  5
372
330
1F
100
AcDbEntity
  8
PROFILES_OUTSIDE
100
AcDbCircle
 10
1747.8682800697
 20
514.1692752515
 30
0.0
 40
12.0
100
AcDbArc
 50
0.0
 51
90.0
  0
ARC
  5
373
330
1F
100
AcDbEntity
  8
PROFILES_OUTSIDE
100
AcDbCircle
 10
1731.8682800697
 20
514.1692752515
 30
0.0
 40
12.0
100
AcDbArc
 50
90.0
 51
180.0
  0
ARC
  5
374
330
1F
100
AcDbEntity
  8
PROFILES_OUTSIDE
100
AcDbCircle
 10
1707.8682800697
 20
419.0137720068
 30
0.0
 40
12.00000000000023
100
AcDbArc
 50
270.0
 51
0.0
  0
ARC
  5
375
330
1F
100
AcDbEntity
  8
PROFILES_OUTSIDE
100
AcDbCircle
 10
1585.8682800697
 20
409.037590367
 30
0.0
 40
1.0
100
AcDbArc
 50
107.6004667859
 51
180.0
  0
ARC
  5
376
330
1F
100
AcDbEntity
  8
PROFILES_OUTSIDE
100
AcDbCircle
 10
1584.0026099301
 20
414.918761588
 30
0.0
 40
5.17000000000008
100
AcDbArc
 50
287.6004667859
 51
114.8878920264
  0
ARC
  5
377
330
1F
100
AcDbEntity
  8
PROFILES_OUTSIDE
100
AcDbCircle
 10
1581.4060016863
 20
420.5157720068
 30
0.0
 40
0.9999999999999432
100
AcDbArc
 50
270.0
 51
294.8878920264
  0
ARC
  5
378
330
1F
100
AcDbEntity
  8
PROFILES_OUTSIDE
100
AcDbCircle
 10
1573.4663259768
 20
418.5157720068
 30
0.0
 40
1.0
100
AcDbArc
 50
90.0
 51
176.3380644245
  0
ARC
  5
379
330
1F
100
AcDbEntity
  8
PROFILES_OUTSIDE
100
AcDbCircle
 10
1565.8682800697
 20
426.0157720068
 30
0.0
 40
6.000000000000057
100
AcDbArc
 50
90.0
 51
180.0
  0
ARC
  5
37A
330
1F
100
AcDbEntity
  8
PROFILES_OUTSIDE
100
AcDbCircle
 10
1918.8682800697
 20
745.2282817409
 30
0.0
 40
0.9999999999998863
100
AcDbArc
 50
0.0
 51
90.0
  0
ARC
  5
37B
330
1F
100
AcDbEntity
  8
PROFILES_OUTSIDE
100
AcDbCircle
 10
1719.8682800697
 20
526.1692752515
 30
0.0
 40
12.69999999999993
100
AcDbArc
 50
120.0
 51
180.0
  0
ARC
  5
37C
330
1F
100
AcDbEntity
  8
PROFILES_OUTSIDE
100
AcDbCircle
 10
1707.1682800697
 20
548.1663205076
 30
0.0
 40
12.70000000000005
100
AcDbArc
 50
300.0
 51
0.0
  0
ARC
  5
37D
330
1F
100
AcDbEntity
  8
PROFILES_OUTSIDE
100
AcDbCircle
 10
1707.1682800697
 20
611.3277332401
 30
0.0
 40
12.70000000000005
100
AcDbArc
 50
0.0
 51
60.0
  0
ARC
  5
37E
330
1F
100
AcDbEntity
  8
PROFILES_OUTSIDE
100
AcDbCircle
 10
1719.8682800697
 20
633.3247784962
 30
0.0
 40
12.70000000000005
100
AcDbArc
 50
180.0
 51
240.0
  0
ARC
  5
37F
330
1F
100
AcDbEntity
  8
PROFILES_OUTSIDE
100
AcDbCircle
 10
1565.8682800697
 20
733.4782817409
 30
0.0
 40
6.0
100
AcDbArc
 50
180.0
 51
270.0
  0
ARC
  5
380
330
1F
100
AcDbEntity
  8
PROFILES_OUTSIDE
100
AcDbCircle
 10
1784.5682800697
 20
715.4782817409
 30
0.0
 40
12.00000000000011
100
AcDbArc
 50
90.0
 51
180.0
  0
ARC
  5
381
330
1F
100
AcDbEntity
  8
PROFILES_OUTSIDE
100
AcDbCircle
 10
1573.4663259768
 20
740.9782817409
 30
0.0
 40
0.9999999999999221
100
AcDbArc
 50
183.6619355755
 51
270.0
  0
ARC
  5
382
330
1F
100
AcDbEntity
  8
PROFILES_OUTSIDE
100
AcDbCircle
 10
1581.4060016863
 20
738.9782817409
 30
0.0
 40
1.000000000000045
100
AcDbArc
 50
65.1121079736
 51
90.0
  0
ARC
  5
383
330
1F
100
AcDbEntity
  8
PROFILES_OUTSIDE
100
AcDbCircle
 10
1584.0026099301
 20
744.5752921597
 30
0.0
 40
5.17000000000007
100
AcDbArc
 50
245.1121079736
 51
72.3995332141
  0
ARC
  5
384
330
1F
100
AcDbEntity
  8
PROFILES_OUTSIDE
100
AcDbCircle
 10
1585.8682800697
 20
750.4564633807
 30
0.0
 40
1.0
100
AcDbArc
 50
180.0
 51
252.3995332141
  0
ARC
  5
385
330
1F
100
AcDbEntity
  8
PROFILES_OUTSIDE
100
AcDbCircle
 10
1707.8682800697
 20
740.4802817409
 30
0.0
 40
12.00000000000023
100
AcDbArc
 50
0.0
 51
90.0
  0
ARC
  5
386
330
1F
100
AcDbEntity
  8
PROFILES_OUTSIDE
100
AcDbCircle
 10
1731.8682800697
 20
645.3247784962
 30
0.0
 40
12.0
100
AcDbArc
 50
180.0
 51
270.0
  0
ARC
  5
387
330
1F
100
AcDbEntity
  8
PROFILES_OUTSIDE
100
AcDbCircle
 10
1747.8682800697
 20
645.3247784962
 30
0.0
 40
12.0
100
AcDbArc
 50
270.0
 51
0.0
  0
ARC
  5
388
330
1F
100
AcDbEntity
  8
PROFILES_OUTSIDE
100
AcDbCircle
 10
1771.8682800697
 20
740.4802817409
 30
0.0
 40
12.0
100
AcDbArc
 50
90.0
 51
180.0
  0
ARC
  5
389
330
1F
100
AcDbEntity
  8
PROFILES_OUTSIDE
100
AcDbCircle
 10
1893.8682800697
 20
750.4564633807
 30
0.0
 40
1.000000000000227
100
AcDbArc
 50
287.6004667859
 51
0.0
  0
ARC
  5
38A
330
1F
100
AcDbEntity
  8
PROFILES_OUTSIDE
100
AcDbCircle
 10
1895.7339502093
 20
744.5752921597
 30
0.0
 40
5.17000000000007
100
AcDbArc
 50
107.6004667859
 51
294.8878920264
  0
ARC
  5
38B
330
1F
100
AcDbEntity
  8
PROFILES_OUTSIDE
100
AcDbCircle
 10
1898.3305584531
 20
738.9782817409
 30
0.0
 40
0.9999999999999415
100
AcDbArc
 50
90.0
 51
114.8878920264
  0
ARC
  5
38C
330
1F
100
AcDbEntity
  8
PROFILES_OUTSIDE
100
AcDbCircle
 10
1906.2702341626
 20
740.9782817409
 30
0.0
 40
1.000000000000156
100
AcDbArc
 50
270.0
 51
356.3380644245
  0
ARC
  5
38D
330
1F
100
AcDbEntity
  8
PROFILES_OUTSIDE
100
AcDbCircle
 10
1913.8682800697
 20
733.4782817409
 30
0.0
 40
6.0
100
AcDbArc
 50
270.0
 51
0.0
  0
ARC
  5
38E
330
1F
100
AcDbEntity
  8
PROFILES_OUTSIDE
100
AcDbCircle
 10
1784.5682800697
 20
444.0157720068
 30
0.0
 40
12.0
100
AcDbArc
 50
180.0
 51
270.0
  0
ARC
  5
38F
330
1F
100
AcDbEntity
  8
PROFILES_OUTSIDE
100
AcDbCircle
 10
1759.8682800697
 20
633.3247784962
 30
0.0
 40
12.70000000000005
100
AcDbArc
 50
300.0
 51
0.0
  0
ARC
  5
390
330
1F
100
AcDbEntity
  8
PROFILES_OUTSIDE
100
AcDbCircle
 10
1772.5682800697
 20
611.3277332401
 30
0.0
 40
12.69999999999993
100
AcDbArc
 50
120.0
 51
180.0
  0
ARC
  5
391
330
1F
100
AcDbEntity
  8
PROFILES_OUTSIDE
100
AcDbCircle
 10
1772.5682800697
 20
548.1663205076
 30
0.0
 40
12.70000000000005
100
AcDbArc
 50
180.0
 51
240.0
  0
ARC
  5
392
330
1F
100
AcDbEntity
  8
PROFILES_OUTSIDE
100
AcDbCircle
 10
1759.8682800697
 20
526.1692752515
 30
0.0
 40
12.70000000000005
100
AcDbArc
 50
0.0
 51
60.0
  0
ARC
  5
393
330
1F
100
AcDbEntity
  8
PROFILES_OUTSIDE
100
AcDbCircle
 10
1913.8682800697
 20
426.0157720068
 30
0.0
 40
6.0
100
AcDbArc
 50
0.0
 51
90.0
  0
ARC
  5
394
330
1F
100
AcDbEntity
  8
PROFILES_OUTSIDE
100
AcDbCircle
 10
1918.8682800697
 20
414.2657720068
 30
0.0
 40
1.0
100
AcDbArc
 50
270.0
 51
0.0
  0
ENDSEC
  0
SECTION
  2
OBJECTS
  0
DICTIONARY
  5
C
330
0
100
AcDbDictionary
  3
ACAD_GROUP
350
D
  3
ACAD_MLINESTYLE
350
17
  3
ACAD_SCALELIST
350
47
  0
DICTIONARY
  5
D
102
{ACAD_REACTORS
330
C
102
}
330
C
100
AcDbDictionary
  0
DICTIONARY
  5
17
102
{ACAD_REACTORS
330
C
102
}
330
C
100
AcDbDictionary
  3
STANDARD
350
18
  0
DICTIONARY
  5
47
102
{ACAD_REACTORS
330
C
102
}
330
C
100
AcDbDictionary
  0
MLINESTYLE
  5
18
102
{ACAD_REACTORS
330
17
102
}
330
17
100
AcDbMlineStyle
  2
Standard
 70
     0
  3

 62
   256
 51
90.0
 52
90.0
 71
     2
 49
0.5
 62
   256
  6
BYLAYER
 49
-0.5
 62
   256
  6
BYLAYER
  0
ENDSEC
  0
EOF
