  0
SECTION
  2
HEADER
  9
$ACADVER
  1
AC1014
  9
$ACADMAINTVER
 70
     9
  9
$DWGCODEPAGE
  3
ANSI_1252
  9
$INSBASE
 10
0.0
 20
0.0
 30
0.0
  9
$EXTMIN
 10
0.0
 20
0.0
 30
0.0
  9
$EXTMAX
 10
96.062992126
 20
48.031496063
 30
0.0
  9
$LIMMIN
 10
0.0
 20
0.0
  9
$LIMMAX
 10
96.062992126
 20
48.031496063
  9
$ORTHOMODE
 70
     0
  9
$REGENMODE
 70
     1
  9
$FILLMODE
 70
     1
  9
$QTEXTMODE
 70
     0
  9
$MIRRTEXT
 70
     1
  9
$DRAGMODE
 70
     2
  9
$LTSCALE
 40
1.0
  9
$OSMODE
 70
    37
  9
$ATTMODE
 70
     1
  9
$TEXTSIZE
 40
0.1377952756
  9
$TRACEWID
 40
0.05
  9
$TEXTSTYLE
  7
STANDARD
  9
$CLAYER
  8
0
  9
$CELTYPE
  6
BYLAYER
  9
$CECOLOR
 62
   256
  9
$CELTSCALE
 40
1.0
  9
$DELOBJ
 70
     1
  9
$DISPSILH
 70
     0
  9
$DIMSCALE
 40
1.0
  9
$DIMASZ
 40
0.13
  9
$DIMEXO
 40
0.0393700787
  9
$DIMDLI
 40
0.38
  9
$DIMRND
 40
0.0
  9
$DIMDLE
 40
0.0
  9
$DIMEXE
 40
0.0393700787
  9
$DIMTP
 40
0.0
  9
$DIMTM
 40
0.0
  9
$DIMTXT
 40
0.1805555556
  9
$DIMCEN
 40
0.09
  9
$DIMTSZ
 40
0.0
  9
$DIMTOL
 70
     0
  9
$DIMLIM
 70
     0
  9
$DIMTIH
 70
     1
  9
$DIMTOH
 70
     1
  9
$DIMSE1
 70
     0
  9
$DIMSE2
 70
     0
  9
$DIMTAD
 70
     1
  9
$DIMZIN
 70
     0
  9
$DIMBLK
  1

  9
$DIMASO
 70
     1
  9
$DIMSHO
 70
     1
  9
$DIMPOST
  1

  9
$DIMAPOST
  1

  9
$DIMALT
 70
     0
  9
$DIMALTD
 70
     2
  9
$DIMALTF
 40
25.4
  9
$DIMLFAC
 40
1.0
  9
$DIMTOFL
 70
     0
  9
$DIMTVP
 40
0.0
  9
$DIMTIX
 70
     0
  9
$DIMSOXD
 70
     0
  9
$DIMSAH
 70
     0
  9
$DIMBLK1
  1

  9
$DIMBLK2
  1

  9
$DIMSTYLE
  2
STANDARD
  9
$DIMCLRD
 70
     0
  9
$DIMCLRE
 70
     0
  9
$DIMCLRT
 70
     0
  9
$DIMTFAC
 40
1.0
  9
$DIMGAP
 40
0.06
  9
$DIMJUST
 70
     0
  9
$DIMSD1
 70
     0
  9
$DIMSD2
 70
     0
  9
$DIMTOLJ
 70
     1
  9
$DIMTZIN
 70
     0
  9
$DIMALTZ
 70
     0
  9
$DIMALTTZ
 70
     0
  9
$DIMFIT
 70
     3
  9
$DIMUPT
 70
     0
  9
$DIMUNIT
 70
     2
  9
$DIMDEC
 70
     2
  9
$DIMTDEC
 70
     2
  9
$DIMALTU
 70
     2
  9
$DIMALTTD
 70
     2
  9
$DIMTXSTY
  7
STANDARD
  9
$DIMAUNIT
 70
     0
  9
$LUNITS
 70
     2
  9
$LUPREC
 70
     2
  9
$SKETCHINC
 40
0.1
  9
$FILLETRAD
 40
0.5
  9
$AUNITS
 70
     0
  9
$AUPREC
 70
     2
  9
$MENU
  1
.
  9
$ELEVATION
 40
0.0
  9
$PELEVATION
 40
0.0
  9
$THICKNESS
 40
0.0
  9
$LIMCHECK
 70
     0
  9
$CHAMFERA
 40
0.0
  9
$CHAMFERB
 40
0.0
  9
$CHAMFERC
 40
0.0
  9
$CHAMFERD
 40
0.0
  9
$SKPOLY
 70
     0
  9
$TDCREATE
 40
2457718.746309421
  9
$TDUPDATE
 40
2457718.746309815
  9
$TDINDWG
 40
0.0000000116
  9
$TDUSRTIMER
 40
0.0000000116
  9
$USRTIMER
 70
     1
  9
$ANGBASE
 50
0.0
  9
$ANGDIR
 70
     0
  9
$PDMODE
 70
     0
  9
$PDSIZE
 40
-1.0
  9
$PLINEWID
 40
0.0
  9
$COORDS
 70
     1
  9
$SPLFRAME
 70
     0
  9
$SPLINETYPE
 70
     6
  9
$SPLINESEGS
 70
     8
  9
$ATTDIA
 70
     0
  9
$ATTREQ
 70
     1
  9
$HANDLING
 70
     1
  9
$HANDSEED
  5
395
  9
$SURFTAB1
 70
     6
  9
$SURFTAB2
 70
     6
  9
$SURFTYPE
 70
     6
  9
$SURFU
 70
     6
  9
$SURFV
 70
     6
  9
$UCSNAME
  2

  9
$UCSORG
 10
0.0
 20
0.0
 30
0.0
  9
$UCSXDIR
 10
1.0
 20
0.0
 30
0.0
  9
$UCSYDIR
 10
0.0
 20
1.0
 30
0.0
  9
$PUCSNAME
  2

  9
$PUCSORG
 10
0.0
 20
0.0
 30
0.0
  9
$PUCSXDIR
 10
1.0
 20
0.0
 30
0.0
  9
$PUCSYDIR
 10
0.0
 20
1.0
 30
0.0
  9
$USERI1
 70
     0
  9
$USERI2
 70
     0
  9
$USERI3
 70
     0
  9
$USERI4
 70
     0
  9
$USERI5
 70
     0
  9
$USERR1
 40
0.0
  9
$USERR2
 40
0.0
  9
$USERR3
 40
0.0
  9
$USERR4
 40
0.0
  9
$USERR5
 40
0.0
  9
$WORLDVIEW
 70
     1
  9
$SHADEDGE
 70
     3
  9
$SHADEDIF
 70
    70
  9
$TILEMODE
 70
     1
  9
$MAXACTVP
 70
    64
  9
$PINSBASE
 10
0.0
 20
0.0
 30
0.0
  9
$PLIMCHECK
 70
     0
  9
$PEXTMIN
 10
1.0000000000E+20
 20
1.0000000000E+20
 30
1.0000000000E+20
  9
$PEXTMAX
 10
-1.0000000000E+20
 20
-1.0000000000E+20
 30
-1.0000000000E+20
  9
$PLIMMIN
 10
0.0
 20
0.0
  9
$PLIMMAX
 10
12.0
 20
9.0
  9
$UNITMODE
 70
     0
  9
$VISRETAIN
 70
     1
  9
$PLINEGEN
 70
     0
  9
$PSLTSCALE
 70
     1
  9
$TREEDEPTH
 70
  3020
  9
$PICKSTYLE
 70
     1
  9
$CMLSTYLE
  2
STANDARD
  9
$CMLJUST
 70
     0
  9
$CMLSCALE
 40
1.0
  9
$PROXYGRAPHICS
 70
     1
  9
$MEASUREMENT
 70
     0
  0
ENDSEC
  0
SECTION
  2
CLASSES
  0
CLASS
  1
ACDBDICTIONARYWDFLT
  2
AcDbDictionaryWithDefault
  3
ObjectDBX Classes
 90
        0
280
     0
281
     0
  0
CLASS
  1
VISUALSTYLE
  2
AcDbVisualStyle
  3
ObjectDBX Classes
 90
     4095
280
     0
281
     0
  0
CLASS
  1
MATERIAL
  2
AcDbMaterial
  3
ObjectDBX Classes
 90
     1153
280
     0
281
     0
  0
CLASS
  1
SCALE
  2
AcDbScale
  3
ObjectDBX Classes
 90
     1153
280
     0
281
     0
  0
CLASS
  1
TABLESTYLE
  2
AcDbTableStyle
  3
ObjectDBX Classes
 90
     4095
280
     0
281
     0
  0
CLASS
  1
MLEADERSTYLE
  2
AcDbMLeaderStyle
  3
ACDB_MLEADERSTYLE_CLASS
 90
     4095
280
     0
281
     0
  0
CLASS
  1
SUN
  2
AcDbSun
  3
SCENEOE
 90
     1153
280
     0
281
     0
  0
CLASS
  1
XRECORD
  2
AcDbXrecord
  3
ObjectDBX Classes
 90
        0
280
     0
281
     0
  0
CLASS
  1
LWPOLYLINE
  2
AcDbPolyline
  3
ObjectDBX Classes
 90
        0
280
     0
281
     1
  0
CLASS
  1
HATCH
  2
AcDbHatch
  3
ObjectDBX Classes
 90
        0
280
     0
281
     1
  0
ENDSEC
  0
SECTION
  2
TABLES
  0
TABLE
  2
VPORT
  5
8
330
0
100
AcDbSymbolTable
 70
     1
  0
VPORT
  5
29
330
8
100
AcDbSymbolTableRecord
100
AcDbViewportTableRecord
  2
*ACTIVE
 70
     0
 10
0.0
 20
0.0
 11
1.0
 21
1.0
 12
48.031496063
 22
24.0157480315
 13
0.0
 23
0.0
 14
0.5
 24
0.5
 15
0.5
 25
0.5
 16
0.0
 26
0.0
 36
1.0
 17
0.0
 27
0.0
 37
0.0
 40
48.031496063
 41
2.0
 42
50.0
 43
0.0
 44
0.0
 50
0.0
 51
0.0
 71
     0
 72
  2000
 73
     1
 74
     3
 75
     0
 76
     0
 77
     0
 78
     0
  0
ENDTAB
  0
TABLE
  2
LTYPE
  5
5
330
0
100
AcDbSymbolTable
 70
     6
  0
LTYPE
  5
14
330
5
100
AcDbSymbolTableRecord
100
AcDbLinetypeTableRecord
  2
BYBLOCK
 70
     0
  3

 72
    65
 73
     0
 40
0.0
  0
LTYPE
  5
15
330
5
100
AcDbSymbolTableRecord
100
AcDbLinetypeTableRecord
  2
BYLAYER
 70
     0
  3

 72
    65
 73
     0
 40
0.0
  0
LTYPE
  5
16
330
5
100
AcDbSymbolTableRecord
100
AcDbLinetypeTableRecord
  2
CONTINUOUS
 70
     0
  3
Solid line
 72
    65
 73
     0
 40
0.0
  0
LTYPE
  5
6E
330
5
100
AcDbSymbolTableRecord
100
AcDbLinetypeTableRecord
  2
HIDDEN
 70
     0
  3
Hidden __ __ __ __ __ __ __ __ __ __ __ __ __ __
 72
    65
 73
     2
 40
0.075
 49
0.05
 74
     0
 49
-0.025
 74
     0
  0
LTYPE
  5
6F
330
5
100
AcDbSymbolTableRecord
100
AcDbLinetypeTableRecord
  2
PHANTOM
 70
     0
  3
Phantom ______  __  __  ______  __  __  ______
 72
    65
 73
     6
 40
0.5
 49
0.25
 74
     0
 49
-0.05
 74
     0
 49
0.05
 74
     0
 49
-0.05
 74
     0
 49
0.05
 74
     0
 49
-0.05
 74
     0
  0
LTYPE
  5
70
330
5
100
AcDbSymbolTableRecord
100
AcDbLinetypeTableRecord
  2
CENTER
 70
     0
  3
Center ____ _ ____ _ ____ _ ____ _ ____ _ ____
 72
    65
 73
     4
 40
0.4
 49
0.25
 74
     0
 49
-0.05
 74
     0
 49
0.05
 74
     0
 49
-0.05
 74
     0
  0
LTYPE
  5
71
330
5
100
AcDbSymbolTableRecord
100
AcDbLinetypeTableRecord
  2
CENTERX2
 70
     0
  3
Center (2x) ________  __  ________  __  _____
 72
    65
 73
     4
 40
0.8
 49
0.5
 74
     0
 49
-0.1
 74
     0
 49
0.1
 74
     0
 49
-0.1
 74
     0
  0
LTYPE
  5
72
330
5
100
AcDbSymbolTableRecord
100
AcDbLinetypeTableRecord
  2
DOT2
 70
     0
  3
Dot (.5x) ........................................
 72
    65
 73
     2
 40
0.025
 49
0.0
 74
     0
 49
-0.025
 74
     0
  0
ENDTAB
  0
TABLE
  2
LAYER
  5
2
330
0
100
AcDbSymbolTable
 70
     6
  0
LAYER
  5
10
330
2
100
AcDbSymbolTableRecord
100
AcDbLayerTableRecord
  2
0
 70
     0
 62
     7
  6
CONTINUOUS
  0
LAYER
  5
73
330
2
100
AcDbSymbolTableRecord
100
AcDbLayerTableRecord
  2
BOX_STOCK
 70
     0
 62
     1
  6
CONTINUOUS
  0
LAYER
  5
74
330
2
100
AcDbSymbolTableRecord
100
AcDbLayerTableRecord
  2
HOLES
 70
     0
 62
    30
  6
CONTINUOUS
  0
LAYER
  5
75
330
2
100
AcDbSymbolTableRecord
100
AcDbLayerTableRecord
  2
POCKETS
 70
     0
 62
   171
  6
CONTINUOUS
  0
LAYER
  5
76
330
2
100
AcDbSymbolTableRecord
100
AcDbLayerTableRecord
  2
PROFILES_OUTSIDE
 70
     0
 62
     6
  6
CONTINUOUS
  0
LAYER
  5
77
330
2
100
AcDbSymbolTableRecord
100
AcDbLayerTableRecord
  2
PROFILES_INSIDE
 70
     0
 62
     4
  6
CONTINUOUS
  0
ENDTAB
  0
TABLE
  2
STYLE
  5
3
330
0
100
AcDbSymbolTable
 70
     1
  0
STYLE
  5
11
330
3
100
AcDbSymbolTableRecord
100
AcDbTextStyleTableRecord
  2
STANDARD
 70
     0
 40
0.0
 41
1.0
 50
0.0
 71
     0
 42
0.1377952756
  3
txt
  4

  0
ENDTAB
  0
TABLE
  2
VIEW
  5
6
330
0
100
AcDbSymbolTable
 70
     0
  0
ENDTAB
  0
TABLE
  2
UCS
  5
7
330
0
100
AcDbSymbolTable
 70
     0
  0
ENDTAB
  0
TABLE
  2
APPID
  5
9
330
0
100
AcDbSymbolTable
 70
     1
  0
APPID
  5
12
330
9
100
AcDbSymbolTableRecord
100
AcDbRegAppTableRecord
  2
ACAD
 70
     0
  0
ENDTAB
  0
TABLE
  2
DIMSTYLE
  5
A
330
0
100
AcDbSymbolTable
 70
     1
  0
DIMSTYLE
105
27
330
A
100
AcDbSymbolTableRecord
100
AcDbDimStyleTableRecord
  2
STANDARD
 70
     0
  3

  4

  5

  6

  7

 40
1.0
 41
0.18
 42
0.0625
 43
0.38
 44
0.18
 45
0.0
 46
0.0
 47
0.0
 48
0.0
140
0.18
141
0.09
142
0.0
143
25.4
144
1.0
145
0.0
146
1.0
147
0.09
 71
     0
 72
     0
 73
     1
 74
     1
 75
     0
 76
     0
 77
     0
 78
     0
170
     0
171
     2
172
     0
173
     0
174
     0
175
     0
176
     0
177
     0
178
     0
270
     2
271
     4
272
     4
273
     2
274
     2
340
11
275
     0
280
     0
281
     0
282
     0
283
     1
284
     0
285
     0
286
     0
287
     3
288
     0
  0
ENDTAB
  0
TABLE
  2
BLOCK_RECORD
  5
1
330
0
100
AcDbSymbolTable
 70
     1
  0
BLOCK_RECORD
  5
1F
330
1
100
AcDbSymbolTableRecord
100
AcDbBlockTableRecord
  2
*MODEL_SPACE
  0
BLOCK_RECORD
  5
1B
330
1
100
AcDbSymbolTableRecord
100
AcDbBlockTableRecord
  2
*PAPER_SPACE
  0
BLOCK_RECORD
  5
23
330
1
100
AcDbSymbolTableRecord
100
AcDbBlockTableRecord
  2
*PAPER_SPACE0
  0
ENDTAB
  0
ENDSEC
  0
SECTION
  2
BLOCKS
  0
BLOCK
  5
20
330
1F
100
AcDbEntity
  8
0
100
AcDbBlockBegin
  2
*MODEL_SPACE
 70
     0
 10
0.0
 20
0.0
 30
0.0
  3
*MODEL_SPACE
  1

  0
ENDBLK
  5
21
330
1F
100
AcDbEntity
  8
0
100
AcDbBlockEnd
  0
BLOCK
  5
1C
330
1B
100
AcDbEntity
 67
     1
  8
0
100
AcDbBlockBegin
  2
*PAPER_SPACE
 70
     0
 10
0.0
 20
0.0
 30
0.0
  3
*PAPER_SPACE
  1

  0
ENDBLK
  5
1D
330
1B
100
AcDbEntity
 67
     1
  8
0
100
AcDbBlockEnd
  0
BLOCK
  5
24
330
23
100
AcDbEntity
  8
0
100
AcDbBlockBegin
  2
*PAPER_SPACE0
 70
     0
 10
0.0
 20
0.0
 30
0.0
  3
*PAPER_SPACE0
  1

  0
ENDBLK
  5
25
330
23
100
AcDbEntity
  8
0
100
AcDbBlockEnd
  0
ENDSEC
  0
SECTION
  2
ENTITIES
  0
ARC
  5
78
330
1F
100
AcDbEntity
  8
0
  6
CONTINUOUS
 62
     7
100
AcDbCircle
 10
16.1022944909
 20
4.2017351753
 30
0.0
 40
0.2362204724409464
100
AcDbArc
 50
280.0
 51
0.0
  0
LINE
  5
79
330
1F
100
AcDbEntity
  8
0
  6
CONTINUOUS
 62
     7
100
AcDbLine
 10
16.1433134485
 20
3.9691035618
 30
0.0
 11
1.2988255067
 21
1.3516196326
 31
0.0
  0
ARC
  5
7A
330
1F
100
AcDbEntity
  8
0
  6
CONTINUOUS
 62
     7
100
AcDbCircle
 10
1.257806302
 20
1.5842513927
 30
0.0
 40
0.2362204724409451
100
AcDbArc
 50
180.0
 51
280.0
  0
LINE
  5
7B
330
1F
100
AcDbEntity
  8
0
  6
CONTINUOUS
 62
     7
100
AcDbLine
 10
1.0215858094
 20
1.5842513252
 30
0.0
 11
1.0215858094
 21
2.6503736759
 31
0.0
  0
LINE
  5
7C
330
1F
100
AcDbEntity
  8
0
  6
CONTINUOUS
 62
     7
100
AcDbLine
 10
2.5918413563
 20
2.9272522107
 30
0.0
 11
1.0215858094
 21
2.6503736759
 31
0.0
  0
ARC
  5
7D
330
1F
100
AcDbEntity
  8
0
  6
CONTINUOUS
 62
     7
100
AcDbCircle
 10
2.794248975
 20
2.9487232948
 30
0.0
 40
0.2035432785934329
100
AcDbArc
 50
186.0551972321
 51
214.8878509098
  0
ARC
  5
7E
330
1F
100
AcDbEntity
  8
0
  6
CONTINUOUS
 62
     7
100
AcDbCircle
 10
2.5949937209
 20
2.8097837069
 30
0.0
 40
0.0393700376495643
100
AcDbArc
 50
10.0
 51
34.8878509098
  0
LINE
  5
7F
330
1F
100
AcDbEntity
  8
0
  6
CONTINUOUS
 62
     7
100
AcDbLine
 10
2.7189863942
 20
2.3333104053
 30
0.0
 11
2.6337655387
 21
2.8166201821
 31
0.0
  0
ARC
  5
80
330
1F
100
AcDbEntity
  8
0
  6
CONTINUOUS
 62
     7
100
AcDbCircle
 10
2.680214293
 20
2.3264738261
 30
0.0
 40
0.0393700787401568
100
AcDbArc
 50
345.1121167212
 51
10.0
  0
ARC
  5
81
330
1F
100
AcDbEntity
  8
0
  6
CONTINUOUS
 62
     7
100
AcDbCircle
 10
2.9149731822
 20
2.2640624734
 30
0.0
 40
0.2035433070866176
100
AcDbArc
 50
165.1121167212
 51
352.399540952
  0
ARC
  5
82
330
1F
100
AcDbEntity
  8
0
  6
CONTINUOUS
 62
     7
100
AcDbCircle
 10
3.1557524477
 20
2.2319336967
 30
0.0
 40
0.0393700787401577
100
AcDbArc
 50
100.0000371503
 51
172.399540952
  0
LINE
  5
83
330
1F
100
AcDbEntity
  8
0
  6
CONTINUOUS
 62
     7
100
AcDbLine
 10
3.3056955631
 20
2.2983503159
 30
0.0
 11
3.1489159876
 21
2.2707055819
 31
0.0
  0
ARC
  5
84
330
1F
100
AcDbEntity
  8
0
  6
CONTINUOUS
 62
     7
100
AcDbCircle
 10
3.312532146
 20
2.2595782924
 30
0.0
 40
0.0393700787401578
100
AcDbArc
 50
27.6004745237
 51
100.0000371503
  0
ARC
  5
85
330
1F
100
AcDbEntity
  8
0
  6
CONTINUOUS
 62
     7
100
AcDbCircle
 10
3.5278019259
 20
2.3721208838
 30
0.0
 40
0.2035433070866183
100
AcDbArc
 50
207.6004745238
 51
34.8879007739
  0
ARC
  5
86
330
1F
100
AcDbEntity
  8
0
  6
CONTINUOUS
 62
     7
100
AcDbCircle
 10
3.7270571395
 20
2.5110607012
 30
0.0
 40
0.0393700787401584
100
AcDbArc
 50
190.0
 51
214.8879007739
  0
LINE
  5
87
330
1F
100
AcDbEntity
  8
0
  6
CONTINUOUS
 62
     7
100
AcDbLine
 10
3.6030646612
 20
2.9875335677
 30
0.0
 11
3.6882852234
 21
2.5042242309
 31
0.0
  0
ARC
  5
88
330
1F
100
AcDbEntity
  8
0
  6
CONTINUOUS
 62
     7
100
AcDbCircle
 10
3.6418376885
 20
2.9943703063
 30
0.0
 40
0.039371134843281
100
AcDbArc
 50
165.11217169
 51
190.0
  0
ARC
  5
89
330
1F
100
AcDbEntity
  8
0
  6
CONTINUOUS
 62
     7
100
AcDbCircle
 10
3.4070777188
 20
3.0567817052
 30
0.0
 40
0.2035433070866133
100
AcDbArc
 50
345.11217169
 51
13.9447554429
  0
LINE
  5
8A
330
1F
100
AcDbEntity
  8
0
  6
CONTINUOUS
 62
     7
100
AcDbLine
 10
14.2768632233
 20
4.9876369423
 30
0.0
 11
3.6046222432
 21
3.1058329478
 31
0.0
  0
ARC
  5
8B
330
1F
100
AcDbEntity
  8
0
  6
CONTINUOUS
 62
     7
100
AcDbCircle
 10
14.4792706545
 20
5.009107887
 30
0.0
 40
0.2035432785934352
100
AcDbArc
 50
186.0551972321
 51
214.8878509098
  0
ARC
  5
8C
330
1F
100
AcDbEntity
  8
0
  6
CONTINUOUS
 62
     7
100
AcDbCircle
 10
14.2800154004
 20
4.8701682991
 30
0.0
 40
0.0393700376495634
100
AcDbArc
 50
10.0
 51
34.8878509098
  0
LINE
  5
8D
330
1F
100
AcDbEntity
  8
0
  6
CONTINUOUS
 62
     7
100
AcDbLine
 10
14.4040076745
 20
4.3936948436
 30
0.0
 11
14.3187871123
 21
4.8770049137
 31
0.0
  0
ARC
  5
8E
330
1F
100
AcDbEntity
  8
0
  6
CONTINUOUS
 62
     7
100
AcDbCircle
 10
14.3652359724
 20
4.3868584184
 30
0.0
 40
0.039370078740158
100
AcDbArc
 50
345.1121167212
 51
10.0
  0
ARC
  5
8F
330
1F
100
AcDbEntity
  8
0
  6
CONTINUOUS
 62
     7
100
AcDbCircle
 10
14.5999948616
 20
4.3244470656
 30
0.0
 40
0.2035433070866163
100
AcDbArc
 50
165.1121167212
 51
352.399540952
  0
ARC
  5
90
330
1F
100
AcDbEntity
  8
0
  6
CONTINUOUS
 62
     7
100
AcDbCircle
 10
14.8407741272
 20
4.292318289
 30
0.0
 40
0.0393700787401557
100
AcDbArc
 50
100.0000371503
 51
172.399540952
  0
LINE
  5
91
330
1F
100
AcDbEntity
  8
0
  6
CONTINUOUS
 62
     7
100
AcDbLine
 10
14.9907168434
 20
4.3587349008
 30
0.0
 11
14.8339378546
 21
4.3310903135
 31
0.0
  0
ARC
  5
92
330
1F
100
AcDbEntity
  8
0
  6
CONTINUOUS
 62
     7
100
AcDbCircle
 10
14.9975538255
 20
4.3199628846
 30
0.0
 40
0.0393700787401587
100
AcDbArc
 50
27.6004745237
 51
100.0000371503
  0
ARC
  5
93
330
1F
100
AcDbEntity
  8
0
  6
CONTINUOUS
 62
     7
100
AcDbCircle
 10
15.2128236054
 20
4.432505476
 30
0.0
 40
0.2035433070866129
100
AcDbArc
 50
207.6004745238
 51
34.8879007739
  0
ARC
  5
94
330
1F
100
AcDbEntity
  8
0
  6
CONTINUOUS
 62
     7
100
AcDbCircle
 10
15.412078819
 20
4.5714452934
 30
0.0
 40
0.0393700787401593
100
AcDbArc
 50
190.0
 51
214.8879007739
  0
ARC
  5
95
330
1F
100
AcDbEntity
  8
0
  6
CONTINUOUS
 62
     7
100
AcDbCircle
 10
15.326859368
 20
5.0547548985
 30
0.0
 40
0.0393711348432811
100
AcDbArc
 50
165.11217169
 51
190.0
  0
ARC
  5
96
330
1F
100
AcDbEntity
  8
0
  6
CONTINUOUS
 62
     7
100
AcDbCircle
 10
15.0920993982
 20
5.1171662974
 30
0.0
 40
0.2035433070866159
100
AcDbArc
 50
345.11217169
 51
13.9447554429
  0
LINE
  5
97
330
1F
100
AcDbEntity
  8
0
  6
CONTINUOUS
 62
     7
100
AcDbLine
 10
16.3385151402
 20
5.3511619162
 30
0.0
 11
15.2896435235
 21
5.166217386
 31
0.0
  0
LINE
  5
98
330
1F
100
AcDbEntity
  8
0
  6
CONTINUOUS
 62
     7
100
AcDbLine
 10
16.3385151402
 20
5.3511619162
 30
0.0
 11
16.3385151402
 21
4.2017350345
 31
0.0
  0
LINE
  5
99
330
1F
100
AcDbEntity
  8
0
  6
CONTINUOUS
 62
     7
100
AcDbLine
 10
15.2880865282
 20
5.0479182993
 30
0.0
 11
15.3733070904
 21
4.5646088159
 31
0.0
  0
ARC
  5
9A
330
1F
100
AcDbEntity
  8
0
  6
CONTINUOUS
 62
     7
100
AcDbCircle
 10
1.257806302
 20
17.7225612486
 30
0.0
 40
0.2362204724409538
100
AcDbArc
 50
80.0
 51
180.0
  0
LINE
  5
9B
330
1F
100
AcDbEntity
  8
0
  6
CONTINUOUS
 62
     7
100
AcDbLine
 10
1.2988255067
 20
17.9551929533
 30
0.0
 11
16.1433134485
 21
15.3377089507
 31
0.0
  0
ARC
  5
9C
330
1F
100
AcDbEntity
  8
0
  6
CONTINUOUS
 62
     7
100
AcDbCircle
 10
16.1022944909
 20
15.1050774661
 30
0.0
 40
0.2362204724409449
100
AcDbArc
 50
0.0
 51
80.0
  0
LINE
  5
9D
330
1F
100
AcDbEntity
  8
0
  6
CONTINUOUS
 62
     7
100
AcDbLine
 10
16.3385151402
 20
15.1050771848
 30
0.0
 11
16.3385151402
 21
13.9556508897
 31
0.0
  0
ARC
  5
9E
330
1F
100
AcDbEntity
  8
0
  6
CONTINUOUS
 62
     7
100
AcDbCircle
 10
15.0920994578
 20
14.1896465018
 30
0.0
 40
0.2035433070866168
100
AcDbArc
 50
346.0551977852
 51
14.8879007739
  0
ARC
  5
9F
330
1F
100
AcDbEntity
  8
0
  6
CONTINUOUS
 62
     7
100
AcDbCircle
 10
15.3268583279
 20
14.2520579262
 30
0.0
 40
0.0393700787401579
100
AcDbArc
 50
170.0
 51
194.8879007739
  0
ARC
  5
A0
330
1F
100
AcDbEntity
  8
0
  6
CONTINUOUS
 62
     7
100
AcDbCircle
 10
15.4120798591
 20
14.7353671645
 30
0.0
 40
0.0393711348432849
100
AcDbArc
 50
145.11217169
 51
170.0
  0
ARC
  5
A1
330
1F
100
AcDbEntity
  8
0
  6
CONTINUOUS
 62
     7
100
AcDbCircle
 10
15.2128236034
 20
14.874307334
 30
0.0
 40
0.2035433070866122
100
AcDbArc
 50
325.11217169
 51
152.399540952
  0
ARC
  5
A2
330
1F
100
AcDbEntity
  8
0
  6
CONTINUOUS
 62
     7
100
AcDbCircle
 10
14.9975537931
 20
14.9868498672
 30
0.0
 40
0.0393700787401605
100
AcDbArc
 50
260.0000371503
 51
332.399540952
  0
LINE
  5
A3
330
1F
100
AcDbEntity
  8
0
  6
CONTINUOUS
 62
     7
100
AcDbLine
 10
14.8339378546
 20
14.9757221991
 30
0.0
 11
14.9907168434
 21
14.9480776118
 31
0.0
  0
ARC
  5
A4
330
1F
100
AcDbEntity
  8
0
  6
CONTINUOUS
 62
     7
100
AcDbCircle
 10
14.840774059
 20
15.0144942596
 30
0.0
 40
0.0393701072333431
100
AcDbArc
 50
187.6004745238
 51
260.0000371503
  0
ARC
  5
A5
330
1F
100
AcDbEntity
  8
0
  6
CONTINUOUS
 62
     7
100
AcDbCircle
 10
14.5999948021
 20
14.9823654179
 30
0.0
 40
0.2035432785934317
100
AcDbArc
 50
7.6004745238
 51
194.8878509098
  0
ARC
  5
A6
330
1F
100
AcDbEntity
  8
0
  6
CONTINUOUS
 62
     7
100
AcDbCircle
 10
14.3652359724
 20
14.919954223
 30
0.0
 40
0.0393700376495673
100
AcDbArc
 50
350.0
 51
14.8878509098
  0
LINE
  5
A7
330
1F
100
AcDbEntity
  8
0
  6
CONTINUOUS
 62
     7
100
AcDbLine
 10
14.3187871123
 20
14.4298081856
 30
0.0
 11
14.4040076745
 21
14.9131173757
 31
0.0
  0
ARC
  5
A8
330
1F
100
AcDbEntity
  8
0
  6
CONTINUOUS
 62
     7
100
AcDbCircle
 10
14.2800154004
 20
14.4366443422
 30
0.0
 40
0.0393700787401567
100
AcDbArc
 50
325.1121167212
 51
350.0
  0
ARC
  5
A9
330
1F
100
AcDbEntity
  8
0
  6
CONTINUOUS
 62
     7
100
AcDbCircle
 10
14.4792706564
 20
14.2977045857
 30
0.0
 40
0.2035433070866134
100
AcDbArc
 50
145.1121167212
 51
173.9447554429
  0
LINE
  5
AA
330
1F
100
AcDbEntity
  8
0
  6
CONTINUOUS
 62
     7
100
AcDbLine
 10
3.6046222432
 20
16.2009801515
 30
0.0
 11
14.2768632233
 21
14.3191758636
 31
0.0
  0
ARC
  5
AB
330
1F
100
AcDbEntity
  8
0
  6
CONTINUOUS
 62
     7
100
AcDbCircle
 10
3.4070777783
 20
16.250031094
 30
0.0
 40
0.2035433070866177
100
AcDbArc
 50
346.0551977852
 51
14.8879007739
  0
ARC
  5
AC
330
1F
100
AcDbEntity
  8
0
  6
CONTINUOUS
 62
     7
100
AcDbCircle
 10
3.6418366485
 20
16.3124425184
 30
0.0
 40
0.0393700787401627
100
AcDbArc
 50
170.0
 51
194.8879007739
  0
LINE
  5
AD
330
1F
100
AcDbEntity
  8
0
  6
CONTINUOUS
 62
     7
100
AcDbLine
 10
3.6882852234
 20
16.802588135
 30
0.0
 11
3.6030646612
 21
16.3192789449
 31
0.0
  0
ARC
  5
AE
330
1F
100
AcDbEntity
  8
0
  6
CONTINUOUS
 62
     7
100
AcDbCircle
 10
3.7270581796
 20
16.7957517568
 30
0.0
 40
0.0393711348432838
100
AcDbArc
 50
145.11217169
 51
170.0
  0
ARC
  5
AF
330
1F
100
AcDbEntity
  8
0
  6
CONTINUOUS
 62
     7
100
AcDbCircle
 10
3.527801924
 20
16.9346919262
 30
0.0
 40
0.203543307086613
100
AcDbArc
 50
325.11217169
 51
152.399540952
  0
ARC
  5
B0
330
1F
100
AcDbEntity
  8
0
  6
CONTINUOUS
 62
     7
100
AcDbCircle
 10
3.3125321137
 20
17.0472344595
 30
0.0
 40
0.0393700787401597
100
AcDbArc
 50
260.0000371503
 51
332.399540952
  0
LINE
  5
B1
330
1F
100
AcDbEntity
  8
0
  6
CONTINUOUS
 62
     7
100
AcDbLine
 10
3.1489159876
 20
17.0361069307
 30
0.0
 11
3.3056955631
 21
17.0084623434
 31
0.0
  0
ARC
  5
B2
330
1F
100
AcDbEntity
  8
0
  6
CONTINUOUS
 62
     7
100
AcDbCircle
 10
3.1557523795
 20
17.0748788518
 30
0.0
 40
0.0393701072333381
100
AcDbArc
 50
187.6004745238
 51
260.0000371503
  0
ARC
  5
B3
330
1F
100
AcDbEntity
  8
0
  6
CONTINUOUS
 62
     7
100
AcDbCircle
 10
2.9149731226
 20
17.0427500101
 30
0.0
 40
0.2035432785934361
100
AcDbArc
 50
7.6004745238
 51
194.8878509098
  0
ARC
  5
B4
330
1F
100
AcDbEntity
  8
0
  6
CONTINUOUS
 62
     7
100
AcDbCircle
 10
2.680214293
 20
16.9803388152
 30
0.0
 40
0.0393700376495644
100
AcDbArc
 50
350.0
 51
14.8878509098
  0
LINE
  5
B5
330
1F
100
AcDbEntity
  8
0
  6
CONTINUOUS
 62
     7
100
AcDbLine
 10
2.6337655387
 20
16.4901929172
 30
0.0
 11
2.7189861008
 21
16.9735021073
 31
0.0
  0
ARC
  5
B6
330
1F
100
AcDbEntity
  8
0
  6
CONTINUOUS
 62
     7
100
AcDbCircle
 10
2.5949937209
 20
16.4970289345
 30
0.0
 40
0.0393700787401546
100
AcDbArc
 50
325.1121167212
 51
350.0
  0
ARC
  5
B7
330
1F
100
AcDbEntity
  8
0
  6
CONTINUOUS
 62
     7
100
AcDbCircle
 10
2.794248977
 20
16.3580891779
 30
0.0
 40
0.2035433070866157
100
AcDbArc
 50
145.1121167212
 51
173.9447554429
  0
LINE
  5
B8
330
1F
100
AcDbEntity
  8
0
  6
CONTINUOUS
 62
     7
100
AcDbLine
 10
1.0215858094
 20
16.65643825
 30
0.0
 11
2.5918413563
 21
16.3795605952
 31
0.0
  0
LINE
  5
B9
330
1F
100
AcDbEntity
  8
0
  6
CONTINUOUS
 62
     7
100
AcDbLine
 10
1.0215858094
 20
16.65643825
 30
0.0
 11
1.0215858094
 21
17.7225611874
 31
0.0
  0
LINE
  5
BA
330
1F
100
AcDbEntity
  8
0
  6
CONTINUOUS
 62
     7
100
AcDbLine
 10
15.2896435235
 20
14.1405954199
 30
0.0
 11
16.3385151402
 21
13.9556508897
 31
0.0
  0
LINE
  5
BB
330
1F
100
AcDbEntity
  8
0
  6
CONTINUOUS
 62
     7
100
AcDbLine
 10
15.3733070904
 20
14.7422034034
 30
0.0
 11
15.2880865282
 21
14.2588942133
 31
0.0
  0
LINE
  5
BC
330
1F
100
AcDbEntity
  8
0
  6
CONTINUOUS
 62
     7
100
AcDbLine
 10
15.7463148347
 20
12.0492632058
 30
0.0
 11
16.1433134485
 21
12.1192646372
 31
0.0
  0
ARC
  5
BD
330
1F
100
AcDbEntity
  8
0
  6
CONTINUOUS
 62
     7
100
AcDbCircle
 10
15.787333861
 20
7.4901816168
 30
0.0
 40
0.2362204724409462
100
AcDbArc
 50
180.0
 51
260.0
  0
LINE
  5
BE
330
1F
100
AcDbEntity
  8
0
  6
CONTINUOUS
 62
     7
100
AcDbLine
 10
16.1433134485
 20
7.1875481688
 30
0.0
 11
15.7463148347
 21
7.2575496001
 31
0.0
  0
ARC
  5
BF
330
1F
100
AcDbEntity
  8
0
  6
CONTINUOUS
 62
     7
100
AcDbCircle
 10
16.1022944909
 20
6.9549164519
 30
0.0
 40
0.2362204724409449
100
AcDbArc
 50
0.0
 51
80.0
  0
LINE
  5
C0
330
1F
100
AcDbEntity
  8
0
  6
CONTINUOUS
 62
     7
100
AcDbLine
 10
16.3385151402
 20
6.9549164028
 30
0.0
 11
16.3385151402
 21
6.1399161644
 31
0.0
  0
LINE
  5
C1
330
1F
100
AcDbEntity
  8
0
  6
CONTINUOUS
 62
     7
100
AcDbLine
 10
14.7637123191
 20
13.4445762604
 30
0.0
 11
14.7637123191
 21
5.8622359589
 31
0.0
  0
LINE
  5
C2
330
1F
100
AcDbEntity
  8
0
  6
CONTINUOUS
 62
     7
100
AcDbLine
 10
16.3385151402
 20
13.1668960548
 30
0.0
 11
16.3385151402
 21
12.3518964031
 31
0.0
  0
LINE
  5
C3
330
1F
100
AcDbEntity
  8
0
  6
CONTINUOUS
 62
     7
100
AcDbLine
 10
16.3385151402
 20
13.1668960548
 30
0.0
 11
14.7637123191
 21
13.4445762604
 31
0.0
  0
ARC
  5
C4
330
1F
100
AcDbEntity
  8
0
  6
CONTINUOUS
 62
     7
100
AcDbCircle
 10
16.1022944909
 20
12.3518961895
 30
0.0
 40
0.2362204724409467
100
AcDbArc
 50
280.0
 51
0.0
  0
ARC
  5
C5
330
1F
100
AcDbEntity
  8
0
  6
CONTINUOUS
 62
     7
100
AcDbCircle
 10
15.787333861
 20
11.8166310246
 30
0.0
 40
0.2362204724409462
100
AcDbArc
 50
100.0
 51
180.0
  0
LINE
  5
C6
330
1F
100
AcDbEntity
  8
0
  6
CONTINUOUS
 62
     7
100
AcDbLine
 10
14.7637123191
 20
5.8622359589
 30
0.0
 11
16.3385151402
 21
6.1399161644
 31
0.0
  0
LINE
  5
C7
330
1F
100
AcDbEntity
  8
0
  6
CONTINUOUS
 62
     7
100
AcDbLine
 10
15.551113143
 20
7.4901813661
 30
0.0
 11
15.551113143
 21
11.8166314399
 31
0.0
  0
LINE
  5
C8
330
1F
100
AcDbEntity
  8
0
  6
CONTINUOUS
 62
     7
100
AcDbLine
 10
1.0215858094
 20
3.4391285108
 30
0.0
 11
14.0003258312
 21
5.7276303672
 31
0.0
  0
LINE
  5
C9
330
1F
100
AcDbEntity
  8
0
  6
CONTINUOUS
 62
     7
100
AcDbLine
 10
1.0215858094
 20
3.4391285108
 30
0.0
 11
1.0215858094
 21
15.8676845884
 31
0.0
  0
LINE
  5
CA
330
1F
100
AcDbEntity
  8
0
  6
CONTINUOUS
 62
     7
100
AcDbLine
 10
14.0003258312
 20
13.5791818521
 30
0.0
 11
1.0215858094
 21
15.8676845884
 31
0.0
  0
LINE
  5
CB
330
1F
100
AcDbEntity
  8
0
  6
CONTINUOUS
 62
     7
100
AcDbLine
 10
14.0003258312
 20
5.7276303672
 30
0.0
 11
14.0003258312
 21
13.5791818521
 31
0.0
  0
ARC
  5
CC
330
1F
100
AcDbEntity
  8
0
  6
CONTINUOUS
 62
     7
100
AcDbCircle
 10
14.8513201327
 20
5.1492950741
 30
0.0
 40
0.039370078740156
100
AcDbArc
 50
280.0000371503
 51
352.399540952
  0
LINE
  5
CD
330
1F
100
AcDbEntity
  8
0
  6
CONTINUOUS
 62
     7
100
AcDbLine
 10
14.8581563481
 20
5.1105228294
 30
0.0
 11
14.7013773592
 21
5.0828785354
 31
0.0
  0
ARC
  5
CE
330
1F
100
AcDbEntity
  8
0
  6
CONTINUOUS
 62
     7
100
AcDbCircle
 10
14.6945404344
 20
5.1216504784
 30
0.0
 40
0.0393700787401587
100
AcDbArc
 50
207.6004745237
 51
280.0000371503
  0
ARC
  5
CF
330
1F
100
AcDbEntity
  8
0
  6
CONTINUOUS
 62
     7
100
AcDbCircle
 10
3.1662984532
 20
3.0889104818
 30
0.0
 40
0.0393700787401609
100
AcDbArc
 50
280.0000371503
 51
352.399540952
  0
LINE
  5
D0
330
1F
100
AcDbEntity
  8
0
  6
CONTINUOUS
 62
     7
100
AcDbLine
 10
3.1731350678
 20
3.0501383911
 30
0.0
 11
3.0163551989
 21
3.0224938038
 31
0.0
  0
ARC
  5
D1
330
1F
100
AcDbEntity
  8
0
  6
CONTINUOUS
 62
     7
100
AcDbCircle
 10
3.0095187549
 20
3.0612658862
 30
0.0
 40
0.0393700787401599
100
AcDbArc
 50
207.6004745237
 51
280.0000371503
  0
ARC
  5
D2
330
1F
100
AcDbEntity
  8
0
  6
CONTINUOUS
 62
     7
100
AcDbCircle
 10
3.0095187873
 20
16.2455466447
 30
0.0
 40
0.0393700787401597
100
AcDbArc
 50
80.0000371503
 51
152.399540952
  0
LINE
  5
D3
330
1F
100
AcDbEntity
  8
0
  6
CONTINUOUS
 62
     7
100
AcDbLine
 10
3.0163551989
 20
16.2843187088
 30
0.0
 11
3.1731350678
 21
16.2566741215
 31
0.0
  0
ARC
  5
D4
330
1F
100
AcDbEntity
  8
0
  6
CONTINUOUS
 62
     7
100
AcDbCircle
 10
3.1662985214
 20
16.2179022523
 30
0.0
 40
0.0393700787401596
100
AcDbArc
 50
7.6004745238
 51
80.0000371503
  0
ARC
  5
D5
330
1F
100
AcDbEntity
  8
0
  6
CONTINUOUS
 62
     7
100
AcDbCircle
 10
14.6945404667
 20
14.1851620524
 30
0.0
 40
0.0393700787401605
100
AcDbArc
 50
80.0000371503
 51
152.399540952
  0
LINE
  5
D6
330
1F
100
AcDbEntity
  8
0
  6
CONTINUOUS
 62
     7
100
AcDbLine
 10
14.7013773592
 20
14.2239339772
 30
0.0
 11
14.8581563481
 21
14.1962893899
 31
0.0
  0
ARC
  5
D7
330
1F
100
AcDbEntity
  8
0
  6
CONTINUOUS
 62
     7
100
AcDbCircle
 10
14.8513202009
 20
14.1575176601
 30
0.0
 40
0.0393700787401594
100
AcDbArc
 50
7.6004745237
 51
80.0000371503
  0
ARC
  5
D8
330
1F
100
AcDbEntity
  8
0
  6
CONTINUOUS
 62
     7
100
AcDbCircle
 10
2.794248977
 20
16.3580891779
 30
0.0
 40
0.2035433070866135
100
AcDbArc
 50
173.9447554429
 51
332.399540952
  0
ARC
  5
D9
330
1F
100
AcDbEntity
  8
0
  6
CONTINUOUS
 62
     7
100
AcDbCircle
 10
2.794248975
 20
2.9487232948
 30
0.0
 40
0.2035433070866133
100
AcDbArc
 50
27.6004745238
 51
186.0551972321
  0
LINE
  5
DA
330
1F
100
AcDbEntity
  8
0
  6
CONTINUOUS
 62
     7
100
AcDbLine
 10
1.0215858094
 20
3.4391285108
 30
0.0
 11
1.0215858094
 21
2.6503736759
 31
0.0
  0
LINE
  5
DB
330
1F
100
AcDbEntity
  8
0
  6
CONTINUOUS
 62
     7
100
AcDbLine
 10
1.0215858094
 20
16.65643825
 30
0.0
 11
1.0215858094
 21
15.8676845884
 31
0.0
  0
ARC
  5
DC
330
1F
100
AcDbEntity
  8
0
  6
CONTINUOUS
 62
     7
100
AcDbCircle
 10
3.4070777188
 20
3.0567817052
 30
0.0
 40
0.2035433070866113
100
AcDbArc
 50
13.9447554429
 51
172.399540952
  0
ARC
  5
DD
330
1F
100
AcDbEntity
  8
0
  6
CONTINUOUS
 62
     7
100
AcDbCircle
 10
3.4070777783
 20
16.250031094
 30
0.0
 40
0.2035433070866145
100
AcDbArc
 50
187.6004745238
 51
346.0551977852
  0
ARC
  5
DE
330
1F
100
AcDbEntity
  8
0
  6
CONTINUOUS
 62
     7
100
AcDbCircle
 10
14.4792706545
 20
5.009107887
 30
0.0
 40
0.2035433070866137
100
AcDbArc
 50
27.6004745238
 51
186.0551972321
  0
ARC
  5
DF
330
1F
100
AcDbEntity
  8
0
  6
CONTINUOUS
 62
     7
100
AcDbCircle
 10
14.4792706564
 20
14.2977045857
 30
0.0
 40
0.2035433070866131
100
AcDbArc
 50
173.9447554429
 51
332.399540952
  0
LINE
  5
E0
330
1F
100
AcDbEntity
  8
0
  6
CONTINUOUS
 62
     7
100
AcDbLine
 10
16.3385151402
 20
13.1668960548
 30
0.0
 11
16.3385151402
 21
13.9556508897
 31
0.0
  0
LINE
  5
E1
330
1F
100
AcDbEntity
  8
0
  6
CONTINUOUS
 62
     7
100
AcDbLine
 10
16.3385151402
 20
5.3511619162
 30
0.0
 11
16.3385151402
 21
6.1399161644
 31
0.0
  0
ARC
  5
E2
330
1F
100
AcDbEntity
  8
0
  6
CONTINUOUS
 62
     7
100
AcDbCircle
 10
15.0920994578
 20
14.1896465018
 30
0.0
 40
0.203543307086615
100
AcDbArc
 50
187.6004745238
 51
346.0551977852
  0
ARC
  5
E3
330
1F
100
AcDbEntity
  8
0
  6
CONTINUOUS
 62
     7
100
AcDbCircle
 10
15.0920993982
 20
5.1171662974
 30
0.0
 40
0.2035433070866163
100
AcDbArc
 50
13.9447554429
 51
172.399540952
  0
ARC
  5
E4
330
1F
100
AcDbEntity
  8
0
  6
CONTINUOUS
 62
     7
100
AcDbCircle
 10
76.4593811051
 20
29.3428971079
 30
0.0
 40
0.236220472440948
100
AcDbArc
 50
270.0
 51
0.0
  0
LINE
  5
E5
330
1F
100
AcDbEntity
  8
0
  6
CONTINUOUS
 62
     7
100
AcDbLine
 10
71.3688284387
 20
29.1066763971
 30
0.0
 11
76.4593795522
 21
29.1066763971
 31
0.0
  0
ARC
  5
E6
330
1F
100
AcDbEntity
  8
0
  6
CONTINUOUS
 62
     7
100
AcDbCircle
 10
71.368829924
 20
28.6342356906
 30
0.0
 40
0.472440944881896
100
AcDbArc
 50
90.0
 51
180.0
  0
LINE
  5
E7
330
1F
100
AcDbEntity
  8
0
  6
CONTINUOUS
 62
     7
100
AcDbLine
 10
70.896388883
 20
25.3222132356
 30
0.0
 11
70.896388883
 21
28.6342368415
 31
0.0
  0
ARC
  5
E8
330
1F
100
AcDbEntity
  8
0
  6
CONTINUOUS
 62
     7
100
AcDbCircle
 10
70.3963889791
 20
25.3222125655
 30
0.0
 40
0.4999999999999979
100
AcDbArc
 50
300.0
 51
0.0
  0
ARC
  5
E9
330
1F
100
AcDbEntity
  8
0
  6
CONTINUOUS
 62
     7
100
AcDbCircle
 10
70.8963889791
 20
24.4561871617
 30
0.0
 40
0.4999999999999939
100
AcDbArc
 50
120.0
 51
180.0
  0
LINE
  5
EA
330
1F
100
AcDbEntity
  8
0
  6
CONTINUOUS
 62
     7
100
AcDbLine
 10
70.3963903924
 20
21.8918837964
 30
0.0
 11
70.3963903924
 21
24.4561882533
 31
0.0
  0
ARC
  5
EB
330
1F
100
AcDbEntity
  8
0
  6
CONTINUOUS
 62
     7
100
AcDbCircle
 10
70.8963889791
 20
21.8918841355
 30
0.0
 40
0.4999999999999908
100
AcDbArc
 50
180.0
 51
240.0
  0
ARC
  5
EC
330
1F
100
AcDbEntity
  8
0
  6
CONTINUOUS
 62
     7
100
AcDbCircle
 10
70.3963889791
 20
21.0258587317
 30
0.0
 40
0.4999999999999979
100
AcDbArc
 50
0.0
 51
60.0
  0
LINE
  5
ED
330
1F
100
AcDbEntity
  8
0
  6
CONTINUOUS
 62
     7
100
AcDbLine
 10
70.896388883
 20
17.7138352082
 30
0.0
 11
70.896388883
 21
21.0258588141
 31
0.0
  0
ARC
  5
EE
330
1F
100
AcDbEntity
  8
0
  6
CONTINUOUS
 62
     7
100
AcDbCircle
 10
71.368829924
 20
17.7138356066
 30
0.0
 40
0.472440944881896
100
AcDbArc
 50
180.0
 51
270.0
  0
LINE
  5
EF
330
1F
100
AcDbEntity
  8
0
  6
CONTINUOUS
 62
     7
100
AcDbLine
 10
76.4593795522
 20
17.2413944792
 30
0.0
 11
71.3688284387
 21
17.2413944792
 31
0.0
  0
ARC
  5
F0
330
1F
100
AcDbEntity
  8
0
  6
CONTINUOUS
 62
     7
100
AcDbCircle
 10
76.4593811051
 20
17.0051741892
 30
0.0
 40
0.236220472440948
100
AcDbArc
 50
0.0
 51
90.0
  0
LINE
  5
F1
330
1F
100
AcDbEntity
  8
0
  6
CONTINUOUS
 62
     7
100
AcDbLine
 10
76.6956016767
 20
16.5425757787
 30
0.0
 11
76.6956016767
 21
17.0051747014
 31
0.0
  0
ARC
  5
F2
330
1F
100
AcDbEntity
  8
0
  6
CONTINUOUS
 62
     7
100
AcDbCircle
 10
76.6562314988
 20
16.542575764
 30
0.0
 40
0.0393700787401627
100
AcDbArc
 50
270.0
 51
0.0
  0
LINE
  5
F3
330
1F
100
AcDbEntity
  8
0
  6
CONTINUOUS
 62
     7
100
AcDbLine
 10
76.6562297582
 20
16.5032062068
 30
0.0
 11
76.4904819129
 21
16.5032062068
 31
0.0
  0
LINE
  5
F4
330
1F
100
AcDbEntity
  8
0
  6
CONTINUOUS
 62
     7
100
AcDbLine
 10
76.4904819129
 20
16.5032062068
 30
0.0
 11
76.4770919876
 21
16.7124126434
 31
0.0
  0
ARC
  5
F5
330
1F
100
AcDbEntity
  8
0
  6
CONTINUOUS
 62
     7
100
AcDbCircle
 10
76.4378044946
 20
16.7098985987
 30
0.0
 40
0.039370078740159
100
AcDbArc
 50
3.6619355755
 51
90.0
  0
LINE
  5
F6
330
1F
100
AcDbEntity
  8
0
  6
CONTINUOUS
 62
     7
100
AcDbLine
 10
76.4378045481
 20
16.7492689643
 30
0.0
 11
75.8476575522
 21
16.7492689643
 31
0.0
  0
ARC
  5
F7
330
1F
100
AcDbEntity
  8
0
  6
CONTINUOUS
 62
     7
100
AcDbCircle
 10
75.8476597816
 20
16.7886387562
 30
0.0
 40
0.0393700787401592
100
AcDbArc
 50
245.1121079736
 51
270.0
  0
LINE
  5
F8
330
1F
100
AcDbEntity
  8
0
  6
CONTINUOUS
 62
     7
100
AcDbLine
 10
70.868829948
 20
16.2570636636
 30
0.0
 11
75.7113506468
 21
16.2570636636
 31
0.0
  0
LINE
  5
F9
330
1F
100
AcDbEntity
  8
0
  6
CONTINUOUS
 62
     7
100
AcDbLine
 10
70.3963903924
 20
20.5534169118
 30
0.0
 11
70.3963903924
 21
16.7295043926
 31
0.0
  0
ARC
  5
FA
330
1F
100
AcDbEntity
  8
0
  6
CONTINUOUS
 62
     7
100
AcDbCircle
 10
69.9239480342
 20
20.5534177868
 30
0.0
 40
0.472440944881896
100
AcDbArc
 50
0.0
 51
90.0
  0
LINE
  5
FB
330
1F
100
AcDbEntity
  8
0
  6
CONTINUOUS
 62
     7
100
AcDbLine
 10
69.2940283003
 20
21.0258588141
 30
0.0
 11
69.9239461434
 21
21.0258588141
 31
0.0
  0
ARC
  5
FC
330
1F
100
AcDbEntity
  8
0
  6
CONTINUOUS
 62
     7
100
AcDbCircle
 10
69.2940267744
 20
20.5534177868
 30
0.0
 40
0.472440944881896
100
AcDbArc
 50
90.0
 51
180.0
  0
LINE
  5
FD
330
1F
100
AcDbEntity
  8
0
  6
CONTINUOUS
 62
     7
100
AcDbLine
 10
68.8215840513
 20
16.7295043926
 30
0.0
 11
68.8215840513
 21
20.5534169118
 31
0.0
  0
ARC
  5
FE
330
1F
100
AcDbEntity
  8
0
  6
CONTINUOUS
 62
     7
100
AcDbCircle
 10
63.472543698
 20
16.5682840153
 30
0.0
 40
0.2035433070866174
100
AcDbArc
 50
287.6004667859
 51
114.8878920264
  0
ARC
  5
FF
330
1F
100
AcDbEntity
  8
0
  6
CONTINUOUS
 62
     7
100
AcDbCircle
 10
63.370315027
 20
16.7886387562
 30
0.0
 40
0.0393700787401556
100
AcDbArc
 50
270.0
 51
294.8878920264
  0
LINE
  5
100
330
1F
100
AcDbEntity
  8
0
  6
CONTINUOUS
 62
     7
100
AcDbLine
 10
63.3703168915
 20
16.7492689643
 30
0.0
 11
62.7801698956
 21
16.7492689643
 31
0.0
  0
ARC
  5
101
330
1F
100
AcDbEntity
  8
0
  6
CONTINUOUS
 62
     7
100
AcDbCircle
 10
62.780170314
 20
16.7098985987
 30
0.0
 40
0.0393700787401592
100
AcDbArc
 50
90.0
 51
176.3380644245
  0
LINE
  5
102
330
1F
100
AcDbEntity
  8
0
  6
CONTINUOUS
 62
     7
100
AcDbLine
 10
62.7408824561
 20
16.7124126434
 30
0.0
 11
62.7274925308
 21
16.5032062068
 31
0.0
  0
LINE
  5
103
330
1F
100
AcDbEntity
  8
0
  6
CONTINUOUS
 62
     7
100
AcDbLine
 10
62.7274925308
 20
16.5032062068
 30
0.0
 11
62.5617446855
 21
16.5032062068
 31
0.0
  0
LINE
  5
104
330
1F
100
AcDbEntity
  8
0
  6
CONTINUOUS
 62
     7
100
AcDbLine
 10
62.522372767
 20
17.0051747014
 30
0.0
 11
62.522372767
 21
16.5425757787
 31
0.0
  0
ARC
  5
105
330
1F
100
AcDbEntity
  8
0
  6
CONTINUOUS
 62
     7
100
AcDbCircle
 10
62.7585937035
 20
17.0051741892
 30
0.0
 40
0.236220472440948
100
AcDbArc
 50
90.0
 51
180.0
  0
LINE
  5
106
330
1F
100
AcDbEntity
  8
0
  6
CONTINUOUS
 62
     7
100
AcDbLine
 10
67.849146005
 20
17.2413944792
 30
0.0
 11
62.7585948915
 21
17.2413944792
 31
0.0
  0
ARC
  5
107
330
1F
100
AcDbEntity
  8
0
  6
CONTINUOUS
 62
     7
100
AcDbCircle
 10
67.8491448846
 20
17.7138356066
 30
0.0
 40
0.4724409448818996
100
AcDbArc
 50
270.0
 51
0.0
  0
LINE
  5
108
330
1F
100
AcDbEntity
  8
0
  6
CONTINUOUS
 62
     7
100
AcDbLine
 10
68.3215855607
 20
21.0258588141
 30
0.0
 11
68.3215855607
 21
17.7138352082
 31
0.0
  0
ARC
  5
109
330
1F
100
AcDbEntity
  8
0
  6
CONTINUOUS
 62
     7
100
AcDbCircle
 10
68.8215858295
 20
21.0258587317
 30
0.0
 40
0.4999999999999908
100
AcDbArc
 50
120.0
 51
180.0
  0
ARC
  5
10A
330
1F
100
AcDbEntity
  8
0
  6
CONTINUOUS
 62
     7
100
AcDbCircle
 10
68.3215858295
 20
21.8918841355
 30
0.0
 40
0.4999999999999979
100
AcDbArc
 50
300.0
 51
0.0
  0
LINE
  5
10B
330
1F
100
AcDbEntity
  8
0
  6
CONTINUOUS
 62
     7
100
AcDbLine
 10
68.8215840513
 20
24.4561882533
 30
0.0
 11
68.8215840513
 21
21.8918837964
 31
0.0
  0
ARC
  5
10C
330
1F
100
AcDbEntity
  8
0
  6
CONTINUOUS
 62
     7
100
AcDbCircle
 10
68.3215858295
 20
24.4561871617
 30
0.0
 40
0.500000000000001
100
AcDbArc
 50
0.0
 51
60.0
  0
ARC
  5
10D
330
1F
100
AcDbEntity
  8
0
  6
CONTINUOUS
 62
     7
100
AcDbCircle
 10
68.8215858295
 20
25.3222125655
 30
0.0
 40
0.4999999999999908
100
AcDbArc
 50
180.0
 51
240.0
  0
LINE
  5
10E
330
1F
100
AcDbEntity
  8
0
  6
CONTINUOUS
 62
     7
100
AcDbLine
 10
68.3215855607
 20
28.6342368415
 30
0.0
 11
68.3215855607
 21
25.3222132356
 31
0.0
  0
ARC
  5
10F
330
1F
100
AcDbEntity
  8
0
  6
CONTINUOUS
 62
     7
100
AcDbCircle
 10
67.8491448846
 20
28.6342356906
 30
0.0
 40
0.4724409448818996
100
AcDbArc
 50
0.0
 51
90.0
  0
LINE
  5
110
330
1F
100
AcDbEntity
  8
0
  6
CONTINUOUS
 62
     7
100
AcDbLine
 10
62.7585948915
 20
29.1066763971
 30
0.0
 11
67.849146005
 21
29.1066763971
 31
0.0
  0
ARC
  5
111
330
1F
100
AcDbEntity
  8
0
  6
CONTINUOUS
 62
     7
100
AcDbCircle
 10
62.7585937035
 20
29.3428971079
 30
0.0
 40
0.236220472440948
100
AcDbArc
 50
180.0
 51
270.0
  0
LINE
  5
112
330
1F
100
AcDbEntity
  8
0
  6
CONTINUOUS
 62
     7
100
AcDbLine
 10
62.522372767
 20
29.805496271
 30
0.0
 11
62.522372767
 21
29.342896175
 31
0.0
  0
ARC
  5
113
330
1F
100
AcDbEntity
  8
0
  6
CONTINUOUS
 62
     7
100
AcDbCircle
 10
62.5617433098
 20
29.8054955331
 30
0.0
 40
0.0393700787401592
100
AcDbArc
 50
90.0
 51
180.0
  0
LINE
  5
114
330
1F
100
AcDbEntity
  8
0
  6
CONTINUOUS
 62
     7
100
AcDbLine
 10
62.5617446855
 20
29.8448658428
 30
0.0
 11
62.7274925308
 21
29.8448658428
 31
0.0
  0
LINE
  5
115
330
1F
100
AcDbEntity
  8
0
  6
CONTINUOUS
 62
     7
100
AcDbLine
 10
62.7274925308
 20
29.8448658428
 30
0.0
 11
62.7408824561
 21
29.635658233
 31
0.0
  0
ARC
  5
116
330
1F
100
AcDbEntity
  8
0
  6
CONTINUOUS
 62
     7
100
AcDbCircle
 10
62.780170314
 20
29.6381726984
 30
0.0
 40
0.0393700787401592
100
AcDbArc
 50
183.6619355755
 51
270.0
  0
LINE
  5
117
330
1F
100
AcDbEntity
  8
0
  6
CONTINUOUS
 62
     7
100
AcDbLine
 10
62.7801698956
 20
29.5988019121
 30
0.0
 11
63.3703168915
 21
29.5988019121
 31
0.0
  0
ARC
  5
118
330
1F
100
AcDbEntity
  8
0
  6
CONTINUOUS
 62
     7
100
AcDbCircle
 10
63.370315027
 20
29.559432541
 30
0.0
 40
0.0393700787401546
100
AcDbArc
 50
65.1121079736
 51
90.0
  0
ARC
  5
119
330
1F
100
AcDbEntity
  8
0
  6
CONTINUOUS
 62
     7
100
AcDbCircle
 10
63.472543698
 20
29.7797872819
 30
0.0
 40
0.2035433070866174
100
AcDbArc
 50
245.1121079736
 51
72.3995332141
  0
ARC
  5
11A
330
1F
100
AcDbEntity
  8
0
  6
CONTINUOUS
 62
     7
100
AcDbCircle
 10
63.5459952783
 20
30.0113294559
 30
0.0
 40
0.0393700787401569
100
AcDbArc
 50
180.0
 51
252.3995332141
  0
LINE
  5
11B
330
1F
100
AcDbEntity
  8
0
  6
CONTINUOUS
 62
     7
100
AcDbLine
 10
63.5066237969
 20
30.0910072127
 30
0.0
 11
63.5066237969
 21
30.0113294132
 31
0.0
  0
LINE
  5
11C
330
1F
100
AcDbEntity
  8
0
  6
CONTINUOUS
 62
     7
100
AcDbLine
 10
68.3491444957
 20
30.0910072127
 30
0.0
 11
63.5066237969
 21
30.0910072127
 31
0.0
  0
ARC
  5
11D
330
1F
100
AcDbEntity
  8
0
  6
CONTINUOUS
 62
     7
100
AcDbCircle
 10
68.3491448846
 20
29.6185663992
 30
0.0
 40
0.4724409448818889
100
AcDbArc
 50
0.0
 51
90.0
  0
LINE
  5
11E
330
1F
100
AcDbEntity
  8
0
  6
CONTINUOUS
 62
     7
100
AcDbLine
 10
68.8215840513
 20
25.7946527912
 30
0.0
 11
68.8215840513
 21
29.6185653104
 31
0.0
  0
ARC
  5
11F
330
1F
100
AcDbEntity
  8
0
  6
CONTINUOUS
 62
     7
100
AcDbCircle
 10
69.2940267744
 20
25.7946535103
 30
0.0
 40
0.472440944881896
100
AcDbArc
 50
180.0
 51
270.0
  0
LINE
  5
120
330
1F
100
AcDbEntity
  8
0
  6
CONTINUOUS
 62
     7
100
AcDbLine
 10
69.9239461434
 20
25.3222132356
 30
0.0
 11
69.2940283003
 21
25.3222132356
 31
0.0
  0
ARC
  5
121
330
1F
100
AcDbEntity
  8
0
  6
CONTINUOUS
 62
     7
100
AcDbCircle
 10
69.9239480342
 20
25.7946535103
 30
0.0
 40
0.472440944881896
100
AcDbArc
 50
270.0
 51
0.0
  0
LINE
  5
122
330
1F
100
AcDbEntity
  8
0
  6
CONTINUOUS
 62
     7
100
AcDbLine
 10
70.3963903924
 20
29.6185653104
 30
0.0
 11
70.3963903924
 21
25.7946527912
 31
0.0
  0
ARC
  5
123
330
1F
100
AcDbEntity
  8
0
  6
CONTINUOUS
 62
     7
100
AcDbCircle
 10
70.868829924
 20
29.6185663992
 30
0.0
 40
0.4724409448818889
100
AcDbArc
 50
90.0
 51
180.0
  0
LINE
  5
124
330
1F
100
AcDbEntity
  8
0
  6
CONTINUOUS
 62
     7
100
AcDbLine
 10
75.7113506468
 20
30.0910072127
 30
0.0
 11
70.868829948
 21
30.0910072127
 31
0.0
  0
LINE
  5
125
330
1F
100
AcDbEntity
  8
0
  6
CONTINUOUS
 62
     7
100
AcDbLine
 10
75.7113506468
 20
30.0113294132
 30
0.0
 11
75.7113506468
 21
30.0910072127
 31
0.0
  0
ARC
  5
126
330
1F
100
AcDbEntity
  8
0
  6
CONTINUOUS
 62
     7
100
AcDbCircle
 10
75.6719795303
 20
30.0113294559
 30
0.0
 40
0.0393700787401603
100
AcDbArc
 50
287.6004667859
 51
0.0
  0
ARC
  5
127
330
1F
100
AcDbEntity
  8
0
  6
CONTINUOUS
 62
     7
100
AcDbCircle
 10
75.7454311106
 20
29.7797872819
 30
0.0
 40
0.2035433070866139
100
AcDbArc
 50
107.6004667859
 51
294.8878920264
  0
ARC
  5
128
330
1F
100
AcDbEntity
  8
0
  6
CONTINUOUS
 62
     7
100
AcDbCircle
 10
75.8476597816
 20
29.559432541
 30
0.0
 40
0.0393700787401556
100
AcDbArc
 50
90.0
 51
114.8878920264
  0
LINE
  5
129
330
1F
100
AcDbEntity
  8
0
  6
CONTINUOUS
 62
     7
100
AcDbLine
 10
75.8476575522
 20
29.5988019121
 30
0.0
 11
76.4378045481
 21
29.5988019121
 31
0.0
  0
ARC
  5
12A
330
1F
100
AcDbEntity
  8
0
  6
CONTINUOUS
 62
     7
100
AcDbCircle
 10
76.4378044946
 20
29.6381726984
 30
0.0
 40
0.0393700787401592
100
AcDbArc
 50
270.0
 51
356.3380644245
  0
LINE
  5
12B
330
1F
100
AcDbEntity
  8
0
  6
CONTINUOUS
 62
     7
100
AcDbLine
 10
76.4770919876
 20
29.635658233
 30
0.0
 11
76.4904819129
 21
29.8448658428
 31
0.0
  0
LINE
  5
12C
330
1F
100
AcDbEntity
  8
0
  6
CONTINUOUS
 62
     7
100
AcDbLine
 10
76.4904819129
 20
29.8448658428
 30
0.0
 11
76.6562297582
 21
29.8448658428
 31
0.0
  0
ARC
  5
12D
330
1F
100
AcDbEntity
  8
0
  6
CONTINUOUS
 62
     7
100
AcDbCircle
 10
76.6562314988
 20
29.8054955331
 30
0.0
 40
0.0393700787401627
100
AcDbArc
 50
0.0
 51
90.0
  0
LINE
  5
12E
330
1F
100
AcDbEntity
  8
0
  6
CONTINUOUS
 62
     7
100
AcDbLine
 10
76.6956016767
 20
29.342896175
 30
0.0
 11
76.6956016767
 21
29.805496271
 31
0.0
  0
LINE
  5
12F
330
1F
100
AcDbEntity
  8
0
  6
CONTINUOUS
 62
     7
100
AcDbLine
 10
63.5066237969
 20
16.3367414632
 30
0.0
 11
63.5066237969
 21
16.2570636636
 31
0.0
  0
ARC
  5
130
330
1F
100
AcDbEntity
  8
0
  6
CONTINUOUS
 62
     7
100
AcDbCircle
 10
70.868829924
 20
16.7295048979
 30
0.0
 40
0.4724409448818889
100
AcDbArc
 50
180.0
 51
270.0
  0
ARC
  5
131
330
1F
100
AcDbEntity
  8
0
  6
CONTINUOUS
 62
     7
100
AcDbCircle
 10
62.5617433098
 20
16.542575764
 30
0.0
 40
0.0393700787401592
100
AcDbArc
 50
180.0
 51
270.0
  0
ARC
  5
132
330
1F
100
AcDbEntity
  8
0
  6
CONTINUOUS
 62
     7
100
AcDbCircle
 10
75.6719795303
 20
16.3367418412
 30
0.0
 40
0.0393700787401569
100
AcDbArc
 50
0.0
 51
72.3995332141
  0
ARC
  5
133
330
1F
100
AcDbEntity
  8
0
  6
CONTINUOUS
 62
     7
100
AcDbCircle
 10
68.3491448846
 20
16.7295048979
 30
0.0
 40
0.4724409448818889
100
AcDbArc
 50
270.0
 51
0.0
  0
LINE
  5
134
330
1F
100
AcDbEntity
  8
0
  6
CONTINUOUS
 62
     7
100
AcDbLine
 10
63.5066237969
 20
16.2570636636
 30
0.0
 11
68.3491444957
 21
16.2570636636
 31
0.0
  0
ARC
  5
135
330
1F
100
AcDbEntity
  8
0
  6
CONTINUOUS
 62
     7
100
AcDbCircle
 10
63.5459952783
 20
16.3367418412
 30
0.0
 40
0.0393700787401569
100
AcDbArc
 50
107.6004667859
 51
180.0
  0
LINE
  5
136
330
1F
100
AcDbEntity
  8
0
  6
CONTINUOUS
 62
     7
100
AcDbLine
 10
75.7113506468
 20
16.2570636636
 30
0.0
 11
75.7113506468
 21
16.3367414632
 31
0.0
  0
ARC
  5
137
330
1F
100
AcDbEntity
  8
0
  6
CONTINUOUS
 62
     7
100
AcDbCircle
 10
75.7454311106
 20
16.5682840153
 30
0.0
 40
0.2035433070866172
100
AcDbArc
 50
65.1121079736
 51
252.3995332141
  0
ARC
  5
138
330
1F
100
AcDbEntity
  8
0
  6
CONTINUOUS
 62
     7
100
AcDbCircle
 10
62.7585937035
 20
1.9320181997
 30
0.0
 40
0.236220472440948
100
AcDbArc
 50
90.0
 51
180.0
  0
LINE
  5
139
330
1F
100
AcDbEntity
  8
0
  6
CONTINUOUS
 62
     7
100
AcDbLine
 10
67.849146005
 20
2.1682386856
 30
0.0
 11
62.7585948915
 21
2.1682386856
 31
0.0
  0
ARC
  5
13A
330
1F
100
AcDbEntity
  8
0
  6
CONTINUOUS
 62
     7
100
AcDbCircle
 10
67.8491448846
 20
2.640679617
 30
0.0
 40
0.4724409448818818
100
AcDbArc
 50
270.0
 51
0.0
  0
LINE
  5
13B
330
1F
100
AcDbEntity
  8
0
  6
CONTINUOUS
 62
     7
100
AcDbLine
 10
68.3215855607
 20
5.9527030205
 30
0.0
 11
68.3215855607
 21
2.6406797079
 31
0.0
  0
ARC
  5
13C
330
1F
100
AcDbEntity
  8
0
  6
CONTINUOUS
 62
     7
100
AcDbCircle
 10
68.8215858295
 20
5.9527027422
 30
0.0
 40
0.5000000000000002
100
AcDbArc
 50
120.0
 51
180.0
  0
ARC
  5
13D
330
1F
100
AcDbEntity
  8
0
  6
CONTINUOUS
 62
     7
100
AcDbCircle
 10
68.3215858295
 20
6.8187281459
 30
0.0
 40
0.5
100
AcDbArc
 50
300.0
 51
0.0
  0
LINE
  5
13E
330
1F
100
AcDbEntity
  8
0
  6
CONTINUOUS
 62
     7
100
AcDbLine
 10
68.8215840513
 20
9.3830312864
 30
0.0
 11
68.8215840513
 21
6.8187280027
 31
0.0
  0
ARC
  5
13F
330
1F
100
AcDbEntity
  8
0
  6
CONTINUOUS
 62
     7
100
AcDbCircle
 10
68.3215858295
 20
9.3830311721
 30
0.0
 40
0.5
100
AcDbArc
 50
0.0
 51
60.0
  0
ARC
  5
140
330
1F
100
AcDbEntity
  8
0
  6
CONTINUOUS
 62
     7
100
AcDbCircle
 10
68.8215858295
 20
10.2490565759
 30
0.0
 40
0.5
100
AcDbArc
 50
180.0
 51
240.0
  0
LINE
  5
141
330
1F
100
AcDbEntity
  8
0
  6
CONTINUOUS
 62
     7
100
AcDbLine
 10
68.3215855607
 20
13.5610798745
 30
0.0
 11
68.3215855607
 21
10.2490562686
 31
0.0
  0
ARC
  5
142
330
1F
100
AcDbEntity
  8
0
  6
CONTINUOUS
 62
     7
100
AcDbCircle
 10
67.8491448846
 20
13.561079701
 30
0.0
 40
0.4724409448818818
100
AcDbArc
 50
0.0
 51
90.0
  0
LINE
  5
143
330
1F
100
AcDbEntity
  8
0
  6
CONTINUOUS
 62
     7
100
AcDbLine
 10
62.7585948915
 20
14.0335206035
 30
0.0
 11
67.849146005
 21
14.0335206035
 31
0.0
  0
ARC
  5
144
330
1F
100
AcDbEntity
  8
0
  6
CONTINUOUS
 62
     7
100
AcDbCircle
 10
62.7585937035
 20
14.2697411184
 30
0.0
 40
0.236220472440948
100
AcDbArc
 50
180.0
 51
270.0
  0
LINE
  5
145
330
1F
100
AcDbEntity
  8
0
  6
CONTINUOUS
 62
     7
100
AcDbLine
 10
62.522372767
 20
14.732339304
 30
0.0
 11
62.522372767
 21
14.2697415547
 31
0.0
  0
ARC
  5
146
330
1F
100
AcDbEntity
  8
0
  6
CONTINUOUS
 62
     7
100
AcDbCircle
 10
62.5617433098
 20
14.7323395436
 30
0.0
 40
0.0393700787401574
100
AcDbArc
 50
90.0
 51
180.0
  0
LINE
  5
147
330
1F
100
AcDbEntity
  8
0
  6
CONTINUOUS
 62
     7
100
AcDbLine
 10
62.5617446855
 20
14.7717100492
 30
0.0
 11
62.7274925308
 21
14.7717100492
 31
0.0
  0
LINE
  5
148
330
1F
100
AcDbEntity
  8
0
  6
CONTINUOUS
 62
     7
100
AcDbLine
 10
62.7274925308
 20
14.7717100492
 30
0.0
 11
62.7408824561
 21
14.5625024393
 31
0.0
  0
ARC
  5
149
330
1F
100
AcDbEntity
  8
0
  6
CONTINUOUS
 62
     7
100
AcDbCircle
 10
62.780170314
 20
14.5650167089
 30
0.0
 40
0.0393700787401592
100
AcDbArc
 50
183.6619355755
 51
270.0
  0
LINE
  5
14A
330
1F
100
AcDbEntity
  8
0
  6
CONTINUOUS
 62
     7
100
AcDbLine
 10
62.7801698956
 20
14.5256461184
 30
0.0
 11
63.3703168915
 21
14.5256461184
 31
0.0
  0
ARC
  5
14B
330
1F
100
AcDbEntity
  8
0
  6
CONTINUOUS
 62
     7
100
AcDbCircle
 10
63.370315027
 20
14.4862765514
 30
0.0
 40
0.0393700787401625
100
AcDbArc
 50
65.1121079736
 51
90.0
  0
ARC
  5
14C
330
1F
100
AcDbEntity
  8
0
  6
CONTINUOUS
 62
     7
100
AcDbCircle
 10
63.472543698
 20
14.7066312923
 30
0.0
 40
0.2035433070866147
100
AcDbArc
 50
245.1121079736
 51
72.3995332141
  0
ARC
  5
14D
330
1F
100
AcDbEntity
  8
0
  6
CONTINUOUS
 62
     7
100
AcDbCircle
 10
63.5459952783
 20
14.9381734664
 30
0.0
 40
0.0393700787401552
100
AcDbArc
 50
180.0
 51
252.3995332141
  0
LINE
  5
14E
330
1F
100
AcDbEntity
  8
0
  6
CONTINUOUS
 62
     7
100
AcDbLine
 10
63.5066237969
 20
15.0178514191
 30
0.0
 11
63.5066237969
 21
14.9381736195
 31
0.0
  0
LINE
  5
14F
330
1F
100
AcDbEntity
  8
0
  6
CONTINUOUS
 62
     7
100
AcDbLine
 10
68.3491444957
 20
15.0178514191
 30
0.0
 11
63.5066237969
 21
15.0178514191
 31
0.0
  0
ARC
  5
150
330
1F
100
AcDbEntity
  8
0
  6
CONTINUOUS
 62
     7
100
AcDbCircle
 10
68.3491448846
 20
14.5454104097
 30
0.0
 40
0.472440944881896
100
AcDbArc
 50
0.0
 51
90.0
  0
LINE
  5
151
330
1F
100
AcDbEntity
  8
0
  6
CONTINUOUS
 62
     7
100
AcDbLine
 10
68.8215840513
 20
10.7214969976
 30
0.0
 11
68.8215840513
 21
14.5454106901
 31
0.0
  0
ARC
  5
152
330
1F
100
AcDbEntity
  8
0
  6
CONTINUOUS
 62
     7
100
AcDbCircle
 10
69.2940267744
 20
10.7214975208
 30
0.0
 40
0.472440944881896
100
AcDbArc
 50
180.0
 51
270.0
  0
LINE
  5
153
330
1F
100
AcDbEntity
  8
0
  6
CONTINUOUS
 62
     7
100
AcDbLine
 10
69.9239461434
 20
10.2490562686
 30
0.0
 11
69.2940283003
 21
10.2490562686
 31
0.0
  0
ARC
  5
154
330
1F
100
AcDbEntity
  8
0
  6
CONTINUOUS
 62
     7
100
AcDbCircle
 10
69.9239480342
 20
10.7214975208
 30
0.0
 40
0.4724409448818907
100
AcDbArc
 50
270.0
 51
0.0
  0
LINE
  5
155
330
1F
100
AcDbEntity
  8
0
  6
CONTINUOUS
 62
     7
100
AcDbLine
 10
70.3963903924
 20
14.5454106901
 30
0.0
 11
70.3963903924
 21
10.7214969976
 31
0.0
  0
ARC
  5
156
330
1F
100
AcDbEntity
  8
0
  6
CONTINUOUS
 62
     7
100
AcDbCircle
 10
70.868829924
 20
14.5454104097
 30
0.0
 40
0.472440944881896
100
AcDbArc
 50
90.0
 51
180.0
  0
LINE
  5
157
330
1F
100
AcDbEntity
  8
0
  6
CONTINUOUS
 62
     7
100
AcDbLine
 10
75.7113506468
 20
15.0178514191
 30
0.0
 11
70.868829948
 21
15.0178514191
 31
0.0
  0
LINE
  5
158
330
1F
100
AcDbEntity
  8
0
  6
CONTINUOUS
 62
     7
100
AcDbLine
 10
75.7113506468
 20
14.9381736195
 30
0.0
 11
75.7113506468
 21
15.0178514191
 31
0.0
  0
ARC
  5
159
330
1F
100
AcDbEntity
  8
0
  6
CONTINUOUS
 62
     7
100
AcDbCircle
 10
75.6719795303
 20
14.9381734664
 30
0.0
 40
0.0393700787401627
100
AcDbArc
 50
287.6004667859
 51
0.0
  0
ARC
  5
15A
330
1F
100
AcDbEntity
  8
0
  6
CONTINUOUS
 62
     7
100
AcDbCircle
 10
75.7454311106
 20
14.7066312923
 30
0.0
 40
0.2035433070866188
100
AcDbArc
 50
107.6004667859
 51
294.8878920264
  0
ARC
  5
15B
330
1F
100
AcDbEntity
  8
0
  6
CONTINUOUS
 62
     7
100
AcDbCircle
 10
75.8476597816
 20
14.4862765514
 30
0.0
 40
0.0393700787401576
100
AcDbArc
 50
90.0
 51
114.8878920264
  0
LINE
  5
15C
330
1F
100
AcDbEntity
  8
0
  6
CONTINUOUS
 62
     7
100
AcDbLine
 10
75.8476575522
 20
14.5256461184
 30
0.0
 11
76.4378045481
 21
14.5256461184
 31
0.0
  0
ARC
  5
15D
330
1F
100
AcDbEntity
  8
0
  6
CONTINUOUS
 62
     7
100
AcDbCircle
 10
76.4378044946
 20
14.5650167089
 30
0.0
 40
0.039370078740159
100
AcDbArc
 50
270.0
 51
356.3380644245
  0
LINE
  5
15E
330
1F
100
AcDbEntity
  8
0
  6
CONTINUOUS
 62
     7
100
AcDbLine
 10
76.4770919876
 20
14.5625024393
 30
0.0
 11
76.4904819129
 21
14.7717100492
 31
0.0
  0
LINE
  5
15F
330
1F
100
AcDbEntity
  8
0
  6
CONTINUOUS
 62
     7
100
AcDbLine
 10
76.4904819129
 20
14.7717100492
 30
0.0
 11
76.6562297582
 21
14.7717100492
 31
0.0
  0
ARC
  5
160
330
1F
100
AcDbEntity
  8
0
  6
CONTINUOUS
 62
     7
100
AcDbCircle
 10
76.6562314988
 20
14.7323395436
 30
0.0
 40
0.0393700787401574
100
AcDbArc
 50
0.0
 51
90.0
  0
LINE
  5
161
330
1F
100
AcDbEntity
  8
0
  6
CONTINUOUS
 62
     7
100
AcDbLine
 10
76.6956016767
 20
14.2697415547
 30
0.0
 11
76.6956016767
 21
14.732339304
 31
0.0
  0
ARC
  5
162
330
1F
100
AcDbEntity
  8
0
  6
CONTINUOUS
 62
     7
100
AcDbCircle
 10
76.4593811051
 20
14.2697411184
 30
0.0
 40
0.236220472440948
100
AcDbArc
 50
270.0
 51
0.0
  0
LINE
  5
163
330
1F
100
AcDbEntity
  8
0
  6
CONTINUOUS
 62
     7
100
AcDbLine
 10
71.3688284387
 20
14.0335206035
 30
0.0
 11
76.4593795522
 21
14.0335206035
 31
0.0
  0
ARC
  5
164
330
1F
100
AcDbEntity
  8
0
  6
CONTINUOUS
 62
     7
100
AcDbCircle
 10
71.368829924
 20
13.561079701
 30
0.0
 40
0.4724409448818978
100
AcDbArc
 50
90.0
 51
180.0
  0
LINE
  5
165
330
1F
100
AcDbEntity
  8
0
  6
CONTINUOUS
 62
     7
100
AcDbLine
 10
70.896388883
 20
10.2490562686
 30
0.0
 11
70.896388883
 21
13.5610798745
 31
0.0
  0
ARC
  5
166
330
1F
100
AcDbEntity
  8
0
  6
CONTINUOUS
 62
     7
100
AcDbCircle
 10
70.3963889791
 20
10.2490565759
 30
0.0
 40
0.5
100
AcDbArc
 50
300.0
 51
0.0
  0
ARC
  5
167
330
1F
100
AcDbEntity
  8
0
  6
CONTINUOUS
 62
     7
100
AcDbCircle
 10
70.8963889791
 20
9.3830311721
 30
0.0
 40
0.5
100
AcDbArc
 50
120.0
 51
180.0
  0
LINE
  5
168
330
1F
100
AcDbEntity
  8
0
  6
CONTINUOUS
 62
     7
100
AcDbLine
 10
70.3963903924
 20
6.8187280027
 30
0.0
 11
70.3963903924
 21
9.3830312864
 31
0.0
  0
ARC
  5
169
330
1F
100
AcDbEntity
  8
0
  6
CONTINUOUS
 62
     7
100
AcDbCircle
 10
70.8963889791
 20
6.8187281459
 30
0.0
 40
0.5
100
AcDbArc
 50
180.0
 51
240.0
  0
ARC
  5
16A
330
1F
100
AcDbEntity
  8
0
  6
CONTINUOUS
 62
     7
100
AcDbCircle
 10
70.3963889791
 20
5.9527027422
 30
0.0
 40
0.5
100
AcDbArc
 50
0.0
 51
60.0
  0
LINE
  5
16B
330
1F
100
AcDbEntity
  8
0
  6
CONTINUOUS
 62
     7
100
AcDbLine
 10
70.896388883
 20
2.6406797079
 30
0.0
 11
70.896388883
 21
5.9527030205
 31
0.0
  0
ARC
  5
16C
330
1F
100
AcDbEntity
  8
0
  6
CONTINUOUS
 62
     7
100
AcDbCircle
 10
71.368829924
 20
2.640679617
 30
0.0
 40
0.4724409448818987
100
AcDbArc
 50
180.0
 51
270.0
  0
LINE
  5
16D
330
1F
100
AcDbEntity
  8
0
  6
CONTINUOUS
 62
     7
100
AcDbLine
 10
76.4593795522
 20
2.1682386856
 30
0.0
 11
71.3688284387
 21
2.1682386856
 31
0.0
  0
ARC
  5
16E
330
1F
100
AcDbEntity
  8
0
  6
CONTINUOUS
 62
     7
100
AcDbCircle
 10
76.4593811051
 20
1.9320181997
 30
0.0
 40
0.236220472440948
100
AcDbArc
 50
0.0
 51
90.0
  0
LINE
  5
16F
330
1F
100
AcDbEntity
  8
0
  6
CONTINUOUS
 62
     7
100
AcDbLine
 10
76.6956016767
 20
1.4694198384
 30
0.0
 11
76.6956016767
 21
1.9320181744
 31
0.0
  0
ARC
  5
170
330
1F
100
AcDbEntity
  8
0
  6
CONTINUOUS
 62
     7
100
AcDbCircle
 10
76.6562314988
 20
1.4694197745
 30
0.0
 40
0.0393700787401576
100
AcDbArc
 50
270.0
 51
0.0
  0
LINE
  5
171
330
1F
100
AcDbEntity
  8
0
  6
CONTINUOUS
 62
     7
100
AcDbLine
 10
76.6562297582
 20
1.4300496799
 30
0.0
 11
76.4904819129
 21
1.4300496799
 31
0.0
  0
LINE
  5
172
330
1F
100
AcDbEntity
  8
0
  6
CONTINUOUS
 62
     7
100
AcDbLine
 10
76.4904819129
 20
1.4300496799
 30
0.0
 11
76.4770919876
 21
1.6392571431
 31
0.0
  0
ARC
  5
173
330
1F
100
AcDbEntity
  8
0
  6
CONTINUOUS
 62
     7
100
AcDbCircle
 10
76.4378044946
 20
1.6367426092
 30
0.0
 40
0.039370078740159
100
AcDbArc
 50
3.6619355755
 51
90.0
  0
LINE
  5
174
330
1F
100
AcDbEntity
  8
0
  6
CONTINUOUS
 62
     7
100
AcDbLine
 10
76.4378045481
 20
1.6761127307
 30
0.0
 11
75.8476575522
 21
1.6761127307
 31
0.0
  0
ARC
  5
175
330
1F
100
AcDbEntity
  8
0
  6
CONTINUOUS
 62
     7
100
AcDbCircle
 10
75.8476597816
 20
1.7154827666
 30
0.0
 40
0.0393700787401613
100
AcDbArc
 50
245.1121079736
 51
270.0
  0
ARC
  5
176
330
1F
100
AcDbEntity
  8
0
  6
CONTINUOUS
 62
     7
100
AcDbCircle
 10
75.7454311106
 20
1.4951280257
 30
0.0
 40
0.2035433070866159
100
AcDbArc
 50
65.1121079736
 51
252.3995332141
  0
ARC
  5
177
330
1F
100
AcDbEntity
  8
0
  6
CONTINUOUS
 62
     7
100
AcDbCircle
 10
75.6719795303
 20
1.2635858517
 30
0.0
 40
0.0393700787401627
100
AcDbArc
 50
0.0
 51
72.3995332141
  0
LINE
  5
178
330
1F
100
AcDbEntity
  8
0
  6
CONTINUOUS
 62
     7
100
AcDbLine
 10
75.7113506468
 20
1.1839079433
 30
0.0
 11
75.7113506468
 21
1.2635858162
 31
0.0
  0
LINE
  5
179
330
1F
100
AcDbEntity
  8
0
  6
CONTINUOUS
 62
     7
100
AcDbLine
 10
70.868829948
 20
1.1839079433
 30
0.0
 11
75.7113506468
 21
1.1839079433
 31
0.0
  0
ARC
  5
17A
330
1F
100
AcDbEntity
  8
0
  6
CONTINUOUS
 62
     7
100
AcDbCircle
 10
70.868829924
 20
1.6563489084
 30
0.0
 40
0.472440944881896
100
AcDbArc
 50
180.0
 51
270.0
  0
LINE
  5
17B
330
1F
100
AcDbEntity
  8
0
  6
CONTINUOUS
 62
     7
100
AcDbLine
 10
70.3963903924
 20
5.4802617048
 30
0.0
 11
70.3963903924
 21
1.6563488923
 31
0.0
  0
ARC
  5
17C
330
1F
100
AcDbEntity
  8
0
  6
CONTINUOUS
 62
     7
100
AcDbCircle
 10
69.9239480342
 20
5.4802617973
 30
0.0
 40
0.472440944881888
100
AcDbArc
 50
0.0
 51
90.0
  0
LINE
  5
17D
330
1F
100
AcDbEntity
  8
0
  6
CONTINUOUS
 62
     7
100
AcDbLine
 10
69.2940283003
 20
5.9527030205
 30
0.0
 11
69.9239461434
 21
5.9527030205
 31
0.0
  0
ARC
  5
17E
330
1F
100
AcDbEntity
  8
0
  6
CONTINUOUS
 62
     7
100
AcDbCircle
 10
69.2940267744
 20
5.4802617973
 30
0.0
 40
0.472440944881896
100
AcDbArc
 50
90.0
 51
180.0
  0
LINE
  5
17F
330
1F
100
AcDbEntity
  8
0
  6
CONTINUOUS
 62
     7
100
AcDbLine
 10
68.8215840513
 20
1.6563488923
 30
0.0
 11
68.8215840513
 21
5.4802617048
 31
0.0
  0
ARC
  5
180
330
1F
100
AcDbEntity
  8
0
  6
CONTINUOUS
 62
     7
100
AcDbCircle
 10
68.3491448846
 20
1.6563489084
 30
0.0
 40
0.472440944881896
100
AcDbArc
 50
270.0
 51
0.0
  0
LINE
  5
181
330
1F
100
AcDbEntity
  8
0
  6
CONTINUOUS
 62
     7
100
AcDbLine
 10
63.5066237969
 20
1.1839079433
 30
0.0
 11
68.3491444957
 21
1.1839079433
 31
0.0
  0
LINE
  5
182
330
1F
100
AcDbEntity
  8
0
  6
CONTINUOUS
 62
     7
100
AcDbLine
 10
63.5066237969
 20
1.2635858162
 30
0.0
 11
63.5066237969
 21
1.1839079433
 31
0.0
  0
ARC
  5
183
330
1F
100
AcDbEntity
  8
0
  6
CONTINUOUS
 62
     7
100
AcDbCircle
 10
63.5459952783
 20
1.2635858517
 30
0.0
 40
0.0393700787401562
100
AcDbArc
 50
107.6004667859
 51
180.0
  0
ARC
  5
184
330
1F
100
AcDbEntity
  8
0
  6
CONTINUOUS
 62
     7
100
AcDbCircle
 10
63.472543698
 20
1.4951280257
 30
0.0
 40
0.203543307086617
100
AcDbArc
 50
287.6004667859
 51
114.8878920264
  0
ARC
  5
185
330
1F
100
AcDbEntity
  8
0
  6
CONTINUOUS
 62
     7
100
AcDbCircle
 10
63.370315027
 20
1.7154827666
 30
0.0
 40
0.0393700787401621
100
AcDbArc
 50
270.0
 51
294.8878920264
  0
LINE
  5
186
330
1F
100
AcDbEntity
  8
0
  6
CONTINUOUS
 62
     7
100
AcDbLine
 10
63.3703168915
 20
1.6761127307
 30
0.0
 11
62.7801698956
 21
1.6761127307
 31
0.0
  0
ARC
  5
187
330
1F
100
AcDbEntity
  8
0
  6
CONTINUOUS
 62
     7
100
AcDbCircle
 10
62.780170314
 20
1.6367426092
 30
0.0
 40
0.0393700787401574
100
AcDbArc
 50
90.0
 51
176.3380644245
  0
LINE
  5
188
330
1F
100
AcDbEntity
  8
0
  6
CONTINUOUS
 62
     7
100
AcDbLine
 10
62.7408824561
 20
1.6392571431
 30
0.0
 11
62.7274925308
 21
1.4300496799
 31
0.0
  0
LINE
  5
189
330
1F
100
AcDbEntity
  8
0
  6
CONTINUOUS
 62
     7
100
AcDbLine
 10
62.7274925308
 20
1.4300496799
 30
0.0
 11
62.5617446855
 21
1.4300496799
 31
0.0
  0
ARC
  5
18A
330
1F
100
AcDbEntity
  8
0
  6
CONTINUOUS
 62
     7
100
AcDbCircle
 10
62.5617433098
 20
1.4694197745
 30
0.0
 40
0.0393700787401627
100
AcDbArc
 50
180.0
 51
270.0
  0
LINE
  5
18B
330
1F
100
AcDbEntity
  8
0
  6
CONTINUOUS
 62
     7
100
AcDbLine
 10
62.522372767
 20
1.9320181744
 30
0.0
 11
62.522372767
 21
1.4694198384
 31
0.0
  0
ARC
  5
18C
330
1F
100
AcDbEntity
  8
0
  6
CONTINUOUS
 62
     7
100
AcDbCircle
 10
31.6483986704
 20
14.1896465018
 30
0.0
 40
0.2035433070866141
100
AcDbArc
 50
346.0551977852
 51
14.8879007739
  0
ARC
  5
18D
330
1F
100
AcDbEntity
  8
0
  6
CONTINUOUS
 62
     7
100
AcDbCircle
 10
31.8831575405
 20
14.2520579262
 30
0.0
 40
0.0393700787401565
100
AcDbArc
 50
170.0
 51
194.8879007739
  0
LINE
  5
18E
330
1F
100
AcDbEntity
  8
0
  6
CONTINUOUS
 62
     7
100
AcDbLine
 10
31.9296059639
 20
14.7422034034
 30
0.0
 11
31.8443854017
 21
14.2588942133
 31
0.0
  0
ARC
  5
18F
330
1F
100
AcDbEntity
  8
0
  6
CONTINUOUS
 62
     7
100
AcDbCircle
 10
31.9683790717
 20
14.7353671645
 30
0.0
 40
0.0393711348432819
100
AcDbArc
 50
145.11217169
 51
170.0
  0
ARC
  5
190
330
1F
100
AcDbEntity
  8
0
  6
CONTINUOUS
 62
     7
100
AcDbCircle
 10
31.769122816
 20
14.874307334
 30
0.0
 40
0.2035433070866154
100
AcDbArc
 50
325.11217169
 51
152.399540952
  0
ARC
  5
191
330
1F
100
AcDbEntity
  8
0
  6
CONTINUOUS
 62
     7
100
AcDbCircle
 10
31.5538530057
 20
14.9868498672
 30
0.0
 40
0.0393700787401585
100
AcDbArc
 50
260.0000371503
 51
332.399540952
  0
LINE
  5
192
330
1F
100
AcDbEntity
  8
0
  6
CONTINUOUS
 62
     7
100
AcDbLine
 10
31.3902379014
 20
14.9757221991
 30
0.0
 11
31.5470168903
 21
14.9480776118
 31
0.0
  0
ARC
  5
193
330
1F
100
AcDbEntity
  8
0
  6
CONTINUOUS
 62
     7
100
AcDbCircle
 10
31.3970732716
 20
15.0144942596
 30
0.0
 40
0.0393701072333396
100
AcDbArc
 50
187.6004745238
 51
260.0000371503
  0
ARC
  5
194
330
1F
100
AcDbEntity
  8
0
  6
CONTINUOUS
 62
     7
100
AcDbCircle
 10
31.1562940147
 20
14.9823654179
 30
0.0
 40
0.2035432785934332
100
AcDbArc
 50
7.6004745238
 51
194.8878509098
  0
ARC
  5
195
330
1F
100
AcDbEntity
  8
0
  6
CONTINUOUS
 62
     7
100
AcDbCircle
 10
30.921535185
 20
14.919954223
 30
0.0
 40
0.0393700376495656
100
AcDbArc
 50
350.0
 51
14.8878509098
  0
LINE
  5
196
330
1F
100
AcDbEntity
  8
0
  6
CONTINUOUS
 62
     7
100
AcDbLine
 10
30.8750871592
 20
14.4298081856
 30
0.0
 11
30.9603077214
 21
14.9131173757
 31
0.0
  0
ARC
  5
197
330
1F
100
AcDbEntity
  8
0
  6
CONTINUOUS
 62
     7
100
AcDbCircle
 10
30.836314613
 20
14.4366443422
 30
0.0
 40
0.0393700787401572
100
AcDbArc
 50
325.1121167212
 51
350.0
  0
ARC
  5
198
330
1F
100
AcDbEntity
  8
0
  6
CONTINUOUS
 62
     7
100
AcDbCircle
 10
31.035569869
 20
14.2977045857
 30
0.0
 40
0.2035433070866169
100
AcDbArc
 50
145.1121167212
 51
173.9447554429
  0
LINE
  5
199
330
1F
100
AcDbEntity
  8
0
  6
CONTINUOUS
 62
     7
100
AcDbLine
 10
30.8331620968
 20
14.3191758636
 30
0.0
 11
20.166528412
 21
16.1999910429
 31
0.0
  0
ARC
  5
19A
330
1F
100
AcDbEntity
  8
0
  6
CONTINUOUS
 62
     7
100
AcDbCircle
 10
19.9689834162
 20
16.24904253
 30
0.0
 40
0.2035433070866164
100
AcDbArc
 50
346.0551977852
 51
14.8879007739
  0
ARC
  5
19B
330
1F
100
AcDbEntity
  8
0
  6
CONTINUOUS
 62
     7
100
AcDbCircle
 10
20.2037422863
 20
16.3114539544
 30
0.0
 40
0.0393700787401625
100
AcDbArc
 50
170.0
 51
194.8879007739
  0
LINE
  5
19C
330
1F
100
AcDbEntity
  8
0
  6
CONTINUOUS
 62
     7
100
AcDbLine
 10
20.2501908055
 20
16.8016001998
 30
0.0
 11
20.1649702433
 21
16.3182910096
 31
0.0
  0
ARC
  5
19D
330
1F
100
AcDbEntity
  8
0
  6
CONTINUOUS
 62
     7
100
AcDbCircle
 10
20.2889638174
 20
16.7947631927
 30
0.0
 40
0.0393711348432817
100
AcDbArc
 50
145.11217169
 51
170.0
  0
ARC
  5
19E
330
1F
100
AcDbEntity
  8
0
  6
CONTINUOUS
 62
     7
100
AcDbCircle
 10
20.0897075618
 20
16.9337033622
 30
0.0
 40
0.2035433070866181
100
AcDbArc
 50
325.11217169
 51
152.399540952
  0
ARC
  5
19F
330
1F
100
AcDbEntity
  8
0
  6
CONTINUOUS
 62
     7
100
AcDbCircle
 10
19.8744377515
 20
17.0462458954
 30
0.0
 40
0.0393700787401572
100
AcDbArc
 50
260.0000371503
 51
332.399540952
  0
LINE
  5
1A0
330
1F
100
AcDbEntity
  8
0
  6
CONTINUOUS
 62
     7
100
AcDbLine
 10
19.7108203964
 20
17.0351178221
 30
0.0
 11
19.8676017319
 21
17.0074744081
 31
0.0
  0
ARC
  5
1A1
330
1F
100
AcDbEntity
  8
0
  6
CONTINUOUS
 62
     7
100
AcDbCircle
 10
19.7176580174
 20
17.0738902878
 30
0.0
 40
0.0393701072333363
100
AcDbArc
 50
187.6004745238
 51
260.0000371503
  0
ARC
  5
1A2
330
1F
100
AcDbEntity
  8
0
  6
CONTINUOUS
 62
     7
100
AcDbCircle
 10
19.4768787605
 20
17.0417614461
 30
0.0
 40
0.2035432785934365
100
AcDbArc
 50
7.6004745237
 51
194.8878509098
  0
ARC
  5
1A3
330
1F
100
AcDbEntity
  8
0
  6
CONTINUOUS
 62
     7
100
AcDbCircle
 10
19.2421199308
 20
16.9793502512
 30
0.0
 40
0.0393700376495624
100
AcDbArc
 50
350.0
 51
14.8878509098
  0
LINE
  5
1A4
330
1F
100
AcDbEntity
  8
0
  6
CONTINUOUS
 62
     7
100
AcDbLine
 10
19.1956708274
 20
16.4892038086
 30
0.0
 11
19.2808913896
 21
16.972514172
 31
0.0
  0
ARC
  5
1A5
330
1F
100
AcDbEntity
  8
0
  6
CONTINUOUS
 62
     7
100
AcDbCircle
 10
19.1568993588
 20
16.4960403705
 30
0.0
 40
0.0393700787401567
100
AcDbArc
 50
325.1121167212
 51
350.0
  0
ARC
  5
1A6
330
1F
100
AcDbEntity
  8
0
  6
CONTINUOUS
 62
     7
100
AcDbCircle
 10
19.3561546148
 20
16.3571006139
 30
0.0
 40
0.2035433070866198
100
AcDbArc
 50
145.1121167212
 51
173.9447554429
  0
LINE
  5
1A7
330
1F
100
AcDbEntity
  8
0
  6
CONTINUOUS
 62
     7
100
AcDbLine
 10
19.1537469384
 20
16.3785714866
 30
0.0
 11
17.5778846096
 21
16.65643825
 31
0.0
  0
LINE
  5
1A8
330
1F
100
AcDbEntity
  8
0
  6
CONTINUOUS
 62
     7
100
AcDbLine
 10
17.5778846096
 20
17.7225611874
 30
0.0
 11
17.5778846096
 21
16.65643825
 31
0.0
  0
ARC
  5
1A9
330
1F
100
AcDbEntity
  8
0
  6
CONTINUOUS
 62
     7
100
AcDbCircle
 10
17.8141055146
 20
17.7225612486
 30
0.0
 40
0.236220472440948
100
AcDbArc
 50
80.0
 51
180.0
  0
LINE
  5
1AA
330
1F
100
AcDbEntity
  8
0
  6
CONTINUOUS
 62
     7
100
AcDbLine
 10
32.6996134954
 20
15.3377089507
 30
0.0
 11
17.8551248202
 21
17.9551929533
 31
0.0
  0
ARC
  5
1AB
330
1F
100
AcDbEntity
  8
0
  6
CONTINUOUS
 62
     7
100
AcDbCircle
 10
32.6585937035
 20
15.1050774661
 30
0.0
 40
0.236220472440948
100
AcDbArc
 50
0.0
 51
80.0
  0
LINE
  5
1AC
330
1F
100
AcDbEntity
  8
0
  6
CONTINUOUS
 62
     7
100
AcDbLine
 10
32.8948140138
 20
13.9556508897
 30
0.0
 11
32.8948140138
 21
15.1050771848
 31
0.0
  0
LINE
  5
1AD
330
1F
100
AcDbEntity
  8
0
  6
CONTINUOUS
 62
     7
100
AcDbLine
 10
32.8948140138
 20
13.9556508897
 30
0.0
 11
31.8459435704
 21
14.1405954199
 31
0.0
  0
ARC
  5
1AE
330
1F
100
AcDbEntity
  8
0
  6
CONTINUOUS
 62
     7
100
AcDbCircle
 10
19.3561546129
 20
2.9497118588
 30
0.0
 40
0.2035432785934324
100
AcDbArc
 50
186.0551972321
 51
214.8878509098
  0
ARC
  5
1AF
330
1F
100
AcDbEntity
  8
0
  6
CONTINUOUS
 62
     7
100
AcDbCircle
 10
19.1568993588
 20
2.8107722709
 30
0.0
 40
0.0393700376495609
100
AcDbArc
 50
10.0
 51
34.8878509098
  0
LINE
  5
1B0
330
1F
100
AcDbEntity
  8
0
  6
CONTINUOUS
 62
     7
100
AcDbLine
 10
19.2808913896
 20
2.3342989273
 30
0.0
 11
19.1956708274
 21
2.817608704
 31
0.0
  0
ARC
  5
1B1
330
1F
100
AcDbEntity
  8
0
  6
CONTINUOUS
 62
     7
100
AcDbCircle
 10
19.2421199308
 20
2.3274623902
 30
0.0
 40
0.0393700787401597
100
AcDbArc
 50
345.1121167212
 51
10.0
  0
ARC
  5
1B2
330
1F
100
AcDbEntity
  8
0
  6
CONTINUOUS
 62
     7
100
AcDbCircle
 10
19.47687882
 20
2.2650510374
 30
0.0
 40
0.2035433070866177
100
AcDbArc
 50
165.1121167212
 51
352.399540952
  0
ARC
  5
1B3
330
1F
100
AcDbEntity
  8
0
  6
CONTINUOUS
 62
     7
100
AcDbCircle
 10
19.7176580856
 20
2.2329222608
 30
0.0
 40
0.0393700787401573
100
AcDbArc
 50
100.0000371503
 51
172.399540952
  0
LINE
  5
1B4
330
1F
100
AcDbEntity
  8
0
  6
CONTINUOUS
 62
     7
100
AcDbLine
 10
19.8676017319
 20
2.2993388378
 30
0.0
 11
19.7108203964
 21
2.2716942505
 31
0.0
  0
ARC
  5
1B5
330
1F
100
AcDbEntity
  8
0
  6
CONTINUOUS
 62
     7
100
AcDbCircle
 10
19.8744377839
 20
2.2605668564
 30
0.0
 40
0.0393700787401608
100
AcDbArc
 50
27.6004745238
 51
100.0000371503
  0
ARC
  5
1B6
330
1F
100
AcDbEntity
  8
0
  6
CONTINUOUS
 62
     7
100
AcDbCircle
 10
20.0897075638
 20
2.3731094478
 30
0.0
 40
0.203543307086617
100
AcDbArc
 50
207.6004745238
 51
34.8879007739
  0
ARC
  5
1B7
330
1F
100
AcDbEntity
  8
0
  6
CONTINUOUS
 62
     7
100
AcDbCircle
 10
20.2889627774
 20
2.5120492652
 30
0.0
 40
0.0393700787401558
100
AcDbArc
 50
190.0
 51
214.8879007739
  0
LINE
  5
1B8
330
1F
100
AcDbEntity
  8
0
  6
CONTINUOUS
 62
     7
100
AcDbLine
 10
20.1649702433
 20
2.9885220896
 30
0.0
 11
20.2501908055
 21
2.5052127528
 31
0.0
  0
ARC
  5
1B9
330
1F
100
AcDbEntity
  8
0
  6
CONTINUOUS
 62
     7
100
AcDbCircle
 10
20.2037433264
 20
2.9953588703
 30
0.0
 40
0.0393711348432816
100
AcDbArc
 50
165.11217169
 51
190.0
  0
ARC
  5
1BA
330
1F
100
AcDbEntity
  8
0
  6
CONTINUOUS
 62
     7
100
AcDbCircle
 10
19.9689833566
 20
3.0577702692
 30
0.0
 40
0.203543307086616
100
AcDbArc
 50
345.11217169
 51
13.9447554429
  0
LINE
  5
1BB
330
1F
100
AcDbEntity
  8
0
  6
CONTINUOUS
 62
     7
100
AcDbLine
 10
20.166528412
 20
3.1068214697
 30
0.0
 11
30.8331620968
 21
4.9876369423
 31
0.0
  0
ARC
  5
1BC
330
1F
100
AcDbEntity
  8
0
  6
CONTINUOUS
 62
     7
100
AcDbCircle
 10
31.0355698671
 20
5.009107887
 30
0.0
 40
0.2035432785934316
100
AcDbArc
 50
186.0551972321
 51
214.8878509098
  0
ARC
  5
1BD
330
1F
100
AcDbEntity
  8
0
  6
CONTINUOUS
 62
     7
100
AcDbCircle
 10
30.836314613
 20
4.8701682991
 30
0.0
 40
0.0393700376495597
100
AcDbArc
 50
10.0
 51
34.8878509098
  0
LINE
  5
1BE
330
1F
100
AcDbEntity
  8
0
  6
CONTINUOUS
 62
     7
100
AcDbLine
 10
30.9603077214
 20
4.3936948436
 30
0.0
 11
30.8750871592
 21
4.8770049137
 31
0.0
  0
ARC
  5
1BF
330
1F
100
AcDbEntity
  8
0
  6
CONTINUOUS
 62
     7
100
AcDbCircle
 10
30.921535185
 20
4.3868584184
 30
0.0
 40
0.0393700787401601
100
AcDbArc
 50
345.1121167212
 51
10.0
  0
ARC
  5
1C0
330
1F
100
AcDbEntity
  8
0
  6
CONTINUOUS
 62
     7
100
AcDbCircle
 10
31.1562940742
 20
4.3244470656
 30
0.0
 40
0.2035433070866177
100
AcDbArc
 50
165.1121167212
 51
352.399540952
  0
ARC
  5
1C1
330
1F
100
AcDbEntity
  8
0
  6
CONTINUOUS
 62
     7
100
AcDbCircle
 10
31.3970733398
 20
4.292318289
 30
0.0
 40
0.0393700787401587
100
AcDbArc
 50
100.0000371503
 51
172.399540952
  0
LINE
  5
1C2
330
1F
100
AcDbEntity
  8
0
  6
CONTINUOUS
 62
     7
100
AcDbLine
 10
31.5470168903
 20
4.3587349008
 30
0.0
 11
31.3902379014
 21
4.3310903135
 31
0.0
  0
ARC
  5
1C3
330
1F
100
AcDbEntity
  8
0
  6
CONTINUOUS
 62
     7
100
AcDbCircle
 10
31.5538530381
 20
4.3199628846
 30
0.0
 40
0.0393700787401581
100
AcDbArc
 50
27.6004745238
 51
100.0000371503
  0
ARC
  5
1C4
330
1F
100
AcDbEntity
  8
0
  6
CONTINUOUS
 62
     7
100
AcDbCircle
 10
31.769122818
 20
4.432505476
 30
0.0
 40
0.2035433070866176
100
AcDbArc
 50
207.6004745238
 51
34.8879007739
  0
ARC
  5
1C5
330
1F
100
AcDbEntity
  8
0
  6
CONTINUOUS
 62
     7
100
AcDbCircle
 10
31.9683780316
 20
4.5714452934
 30
0.0
 40
0.0393700787401601
100
AcDbArc
 50
190.0
 51
214.8879007739
  0
LINE
  5
1C6
330
1F
100
AcDbEntity
  8
0
  6
CONTINUOUS
 62
     7
100
AcDbLine
 10
31.8443854017
 20
5.0479182993
 30
0.0
 11
31.9296059639
 21
4.5646088159
 31
0.0
  0
ARC
  5
1C7
330
1F
100
AcDbEntity
  8
0
  6
CONTINUOUS
 62
     7
100
AcDbCircle
 10
31.8831585806
 20
5.0547548985
 30
0.0
 40
0.039371134843282
100
AcDbArc
 50
165.11217169
 51
190.0
  0
ARC
  5
1C8
330
1F
100
AcDbEntity
  8
0
  6
CONTINUOUS
 62
     7
100
AcDbCircle
 10
31.6483986108
 20
5.1171662974
 30
0.0
 40
0.2035433070866185
100
AcDbArc
 50
345.11217169
 51
13.9447554429
  0
LINE
  5
1C9
330
1F
100
AcDbEntity
  8
0
  6
CONTINUOUS
 62
     7
100
AcDbLine
 10
31.8459435704
 20
5.166217386
 30
0.0
 11
32.8948140138
 21
5.3511619162
 31
0.0
  0
LINE
  5
1CA
330
1F
100
AcDbEntity
  8
0
  6
CONTINUOUS
 62
     7
100
AcDbLine
 10
32.8948140138
 20
4.2017350345
 30
0.0
 11
32.8948140138
 21
5.3511619162
 31
0.0
  0
ARC
  5
1CB
330
1F
100
AcDbEntity
  8
0
  6
CONTINUOUS
 62
     7
100
AcDbCircle
 10
32.6585937035
 20
4.2017351753
 30
0.0
 40
0.236220472440948
100
AcDbArc
 50
280.0
 51
0.0
  0
LINE
  5
1CC
330
1F
100
AcDbEntity
  8
0
  6
CONTINUOUS
 62
     7
100
AcDbLine
 10
17.8551248202
 20
1.3516196326
 30
0.0
 11
32.6996134954
 21
3.9691035618
 31
0.0
  0
ARC
  5
1CD
330
1F
100
AcDbEntity
  8
0
  6
CONTINUOUS
 62
     7
100
AcDbCircle
 10
17.8141055146
 20
1.5842513927
 30
0.0
 40
0.2362204724409445
100
AcDbArc
 50
180.0
 51
280.0
  0
LINE
  5
1CE
330
1F
100
AcDbEntity
  8
0
  6
CONTINUOUS
 62
     7
100
AcDbLine
 10
17.5778846096
 20
2.6503736759
 30
0.0
 11
17.5778846096
 21
1.5842513252
 31
0.0
  0
LINE
  5
1CF
330
1F
100
AcDbEntity
  8
0
  6
CONTINUOUS
 62
     7
100
AcDbLine
 10
17.5778846096
 20
2.6503736759
 30
0.0
 11
19.1537469384
 21
2.9282407327
 31
0.0
  0
LINE
  5
1D0
330
1F
100
AcDbEntity
  8
0
  6
CONTINUOUS
 62
     7
100
AcDbLine
 10
32.6996134954
 20
12.1192646372
 30
0.0
 11
32.3026137083
 21
12.0492632058
 31
0.0
  0
ARC
  5
1D1
330
1F
100
AcDbEntity
  8
0
  6
CONTINUOUS
 62
     7
100
AcDbCircle
 10
32.3436330736
 20
11.8166310246
 30
0.0
 40
0.236220472440948
100
AcDbArc
 50
100.0
 51
180.0
  0
LINE
  5
1D2
330
1F
100
AcDbEntity
  8
0
  6
CONTINUOUS
 62
     7
100
AcDbLine
 10
32.1074131899
 20
11.8166314399
 30
0.0
 11
32.1074131899
 21
7.4901813661
 31
0.0
  0
ARC
  5
1D3
330
1F
100
AcDbEntity
  8
0
  6
CONTINUOUS
 62
     7
100
AcDbCircle
 10
32.3436330736
 20
7.4901816168
 30
0.0
 40
0.236220472440948
100
AcDbArc
 50
180.0
 51
260.0
  0
LINE
  5
1D4
330
1F
100
AcDbEntity
  8
0
  6
CONTINUOUS
 62
     7
100
AcDbLine
 10
32.3026137083
 20
7.2575496001
 30
0.0
 11
32.6996134954
 21
7.1875481688
 31
0.0
  0
ARC
  5
1D5
330
1F
100
AcDbEntity
  8
0
  6
CONTINUOUS
 62
     7
100
AcDbCircle
 10
32.6585937035
 20
6.9549164519
 30
0.0
 40
0.236220472440948
100
AcDbArc
 50
0.0
 51
80.0
  0
LINE
  5
1D6
330
1F
100
AcDbEntity
  8
0
  6
CONTINUOUS
 62
     7
100
AcDbLine
 10
32.8948140138
 20
6.1399161644
 30
0.0
 11
31.3200100194
 21
5.8622359589
 31
0.0
  0
LINE
  5
1D7
330
1F
100
AcDbEntity
  8
0
  6
CONTINUOUS
 62
     7
100
AcDbLine
 10
31.3200100194
 20
5.8622359589
 30
0.0
 11
31.3200100194
 21
13.4445762604
 31
0.0
  0
LINE
  5
1D8
330
1F
100
AcDbEntity
  8
0
  6
CONTINUOUS
 62
     7
100
AcDbLine
 10
32.8948140138
 20
12.3518964031
 30
0.0
 11
32.8948140138
 21
13.1668960548
 31
0.0
  0
LINE
  5
1D9
330
1F
100
AcDbEntity
  8
0
  6
CONTINUOUS
 62
     7
100
AcDbLine
 10
32.8948140138
 20
6.1399161644
 30
0.0
 11
32.8948140138
 21
6.9549164028
 31
0.0
  0
ARC
  5
1DA
330
1F
100
AcDbEntity
  8
0
  6
CONTINUOUS
 62
     7
100
AcDbCircle
 10
32.6585937035
 20
12.3518961895
 30
0.0
 40
0.236220472440948
100
AcDbArc
 50
280.0
 51
0.0
  0
LINE
  5
1DB
330
1F
100
AcDbEntity
  8
0
  6
CONTINUOUS
 62
     7
100
AcDbLine
 10
31.3200100194
 20
13.4445762604
 30
0.0
 11
32.8948140138
 21
13.1668960548
 31
0.0
  0
LINE
  5
1DC
330
1F
100
AcDbEntity
  8
0
  6
CONTINUOUS
 62
     7
100
AcDbLine
 10
17.5778846096
 20
15.8676845884
 30
0.0
 11
17.5778846096
 21
3.4391285108
 31
0.0
  0
LINE
  5
1DD
330
1F
100
AcDbEntity
  8
0
  6
CONTINUOUS
 62
     7
100
AcDbLine
 10
30.5566247047
 20
13.5791818521
 30
0.0
 11
30.5566247047
 21
5.7276303672
 31
0.0
  0
LINE
  5
1DE
330
1F
100
AcDbEntity
  8
0
  6
CONTINUOUS
 62
     7
100
AcDbLine
 10
30.5566247047
 20
5.7276303672
 30
0.0
 11
17.5778846096
 21
3.4391285108
 31
0.0
  0
LINE
  5
1DF
330
1F
100
AcDbEntity
  8
0
  6
CONTINUOUS
 62
     7
100
AcDbLine
 10
17.5778846096
 20
15.8676845884
 30
0.0
 11
30.5566247047
 21
13.5791818521
 31
0.0
  0
ARC
  5
1E0
330
1F
100
AcDbEntity
  8
0
  6
CONTINUOUS
 62
     7
100
AcDbCircle
 10
31.4076193453
 20
5.1492950741
 30
0.0
 40
0.0393700787401566
100
AcDbArc
 50
280.0000371503
 51
352.399540952
  0
LINE
  5
1E1
330
1F
100
AcDbEntity
  8
0
  6
CONTINUOUS
 62
     7
100
AcDbLine
 10
31.4144552217
 20
5.1105228294
 30
0.0
 11
31.2576762328
 21
5.0828785354
 31
0.0
  0
ARC
  5
1E2
330
1F
100
AcDbEntity
  8
0
  6
CONTINUOUS
 62
     7
100
AcDbCircle
 10
31.250839647
 20
5.1216504784
 30
0.0
 40
0.0393700787401591
100
AcDbArc
 50
207.6004745238
 51
280.0000371503
  0
ARC
  5
1E3
330
1F
100
AcDbEntity
  8
0
  6
CONTINUOUS
 62
     7
100
AcDbCircle
 10
19.7282040911
 20
3.0898990459
 30
0.0
 40
0.0393700787401579
100
AcDbArc
 50
280.0000371503
 51
352.399540952
  0
LINE
  5
1E4
330
1F
100
AcDbEntity
  8
0
  6
CONTINUOUS
 62
     7
100
AcDbLine
 10
19.7350400633
 20
3.0511272064
 30
0.0
 11
19.5782610744
 21
3.0234826191
 31
0.0
  0
ARC
  5
1E5
330
1F
100
AcDbEntity
  8
0
  6
CONTINUOUS
 62
     7
100
AcDbCircle
 10
19.5714243927
 20
3.0622544502
 30
0.0
 40
0.0393700787401583
100
AcDbArc
 50
207.6004745238
 51
280.0000371503
  0
ARC
  5
1E6
330
1F
100
AcDbEntity
  8
0
  6
CONTINUOUS
 62
     7
100
AcDbCircle
 10
19.5714244251
 20
16.2445580806
 30
0.0
 40
0.0393700787401591
100
AcDbArc
 50
80.0000371503
 51
152.399540952
  0
LINE
  5
1E7
330
1F
100
AcDbEntity
  8
0
  6
CONTINUOUS
 62
     7
100
AcDbLine
 10
19.5782610744
 20
16.2833296002
 30
0.0
 11
19.7350400633
 21
16.2556861862
 31
0.0
  0
ARC
  5
1E8
330
1F
100
AcDbEntity
  8
0
  6
CONTINUOUS
 62
     7
100
AcDbCircle
 10
19.7282041593
 20
16.2169136883
 30
0.0
 40
0.0393700787401596
100
AcDbArc
 50
7.6004745238
 51
80.0000371503
  0
ARC
  5
1E9
330
1F
100
AcDbEntity
  8
0
  6
CONTINUOUS
 62
     7
100
AcDbCircle
 10
31.2508396793
 20
14.1851620524
 30
0.0
 40
0.0393700787401605
100
AcDbArc
 50
80.0000371503
 51
152.399540952
  0
LINE
  5
1EA
330
1F
100
AcDbEntity
  8
0
  6
CONTINUOUS
 62
     7
100
AcDbLine
 10
31.2576762328
 20
14.2239339772
 30
0.0
 11
31.4144552217
 21
14.1962893899
 31
0.0
  0
ARC
  5
1EB
330
1F
100
AcDbEntity
  8
0
  6
CONTINUOUS
 62
     7
100
AcDbCircle
 10
31.4076194135
 20
14.1575176601
 30
0.0
 40
0.0393700787401598
100
AcDbArc
 50
7.6004745238
 51
80.0000371503
  0
LINE
  5
1EC
330
1F
100
AcDbEntity
  8
0
  6
CONTINUOUS
 62
     7
100
AcDbLine
 10
17.5778846096
 20
15.8676845884
 30
0.0
 11
17.5778846096
 21
16.65643825
 31
0.0
  0
LINE
  5
1ED
330
1F
100
AcDbEntity
  8
0
  6
CONTINUOUS
 62
     7
100
AcDbLine
 10
17.5778846096
 20
2.6503736759
 30
0.0
 11
17.5778846096
 21
3.4391285108
 31
0.0
  0
ARC
  5
1EE
330
1F
100
AcDbEntity
  8
0
  6
CONTINUOUS
 62
     7
100
AcDbCircle
 10
31.0355698671
 20
5.009107887
 30
0.0
 40
0.203543307086614
100
AcDbArc
 50
27.6004745238
 51
186.0551972321
  0
ARC
  5
1EF
330
1F
100
AcDbEntity
  8
0
  6
CONTINUOUS
 62
     7
100
AcDbCircle
 10
31.035569869
 20
14.2977045857
 30
0.0
 40
0.2035433070866149
100
AcDbArc
 50
173.9447554429
 51
332.399540952
  0
ARC
  5
1F0
330
1F
100
AcDbEntity
  8
0
  6
CONTINUOUS
 62
     7
100
AcDbCircle
 10
31.6483986704
 20
14.1896465018
 30
0.0
 40
0.2035433070866141
100
AcDbArc
 50
187.6004745238
 51
346.0551977852
  0
ARC
  5
1F1
330
1F
100
AcDbEntity
  8
0
  6
CONTINUOUS
 62
     7
100
AcDbCircle
 10
31.6483986108
 20
5.1171662974
 30
0.0
 40
0.203543307086615
100
AcDbArc
 50
13.9447554429
 51
172.399540952
  0
LINE
  5
1F2
330
1F
100
AcDbEntity
  8
0
  6
CONTINUOUS
 62
     7
100
AcDbLine
 10
32.8948140138
 20
13.9556508897
 30
0.0
 11
32.8948140138
 21
13.1668960548
 31
0.0
  0
LINE
  5
1F3
330
1F
100
AcDbEntity
  8
0
  6
CONTINUOUS
 62
     7
100
AcDbLine
 10
32.8948140138
 20
6.1399161644
 30
0.0
 11
32.8948140138
 21
5.3511619162
 31
0.0
  0
ARC
  5
1F4
330
1F
100
AcDbEntity
  8
0
  6
CONTINUOUS
 62
     7
100
AcDbCircle
 10
19.9689833566
 20
3.0577702692
 30
0.0
 40
0.203543307086616
100
AcDbArc
 50
13.9447554429
 51
172.399540952
  0
ARC
  5
1F5
330
1F
100
AcDbEntity
  8
0
  6
CONTINUOUS
 62
     7
100
AcDbCircle
 10
19.9689834162
 20
16.24904253
 30
0.0
 40
0.2035433070866139
100
AcDbArc
 50
187.6004745238
 51
346.0551977852
  0
ARC
  5
1F6
330
1F
100
AcDbEntity
  8
0
  6
CONTINUOUS
 62
     7
100
AcDbCircle
 10
19.3561546129
 20
2.9497118588
 30
0.0
 40
0.2035433070866176
100
AcDbArc
 50
27.6004745237
 51
186.0551972321
  0
ARC
  5
1F7
330
1F
100
AcDbEntity
  8
0
  6
CONTINUOUS
 62
     7
100
AcDbCircle
 10
19.3561546148
 20
16.3571006139
 30
0.0
 40
0.2035433070866193
100
AcDbArc
 50
173.9447554429
 51
332.399540952
  0
LINE
  5
1F8
330
1F
100
AcDbEntity
  8
0
  6
CONTINUOUS
 62
     7
100
AcDbLine
 10
61.283004471
 20
17.8442497016
 30
0.0
 11
61.283004471
 21
19.3111024098
 31
0.0
  0
LINE
  5
1F9
330
1F
100
AcDbEntity
  8
0
  6
CONTINUOUS
 62
     7
100
AcDbLine
 10
48.3282775384
 20
19.3111024098
 30
0.0
 11
48.3282775384
 21
17.8442497016
 31
0.0
  0
LINE
  5
1FA
330
1F
100
AcDbEntity
  8
0
  6
CONTINUOUS
 62
     7
100
AcDbLine
 10
48.3282775384
 20
19.3111024098
 30
0.0
 11
61.283004471
 21
19.3111024098
 31
0.0
  0
LINE
  5
1FB
330
1F
100
AcDbEntity
  8
0
  6
CONTINUOUS
 62
     7
100
AcDbLine
 10
48.3282775384
 20
17.8442497016
 30
0.0
 11
61.283004471
 21
17.8442497016
 31
0.0
  0
LINE
  5
1FC
330
1F
100
AcDbEntity
  8
0
  6
CONTINUOUS
 62
     7
100
AcDbLine
 10
61.283004471
 20
33.2652220639
 30
0.0
 11
48.3282775384
 21
33.2652220639
 31
0.0
  0
LINE
  5
1FD
330
1F
100
AcDbEntity
  8
0
  6
CONTINUOUS
 62
     7
100
AcDbLine
 10
61.283004471
 20
20.0793652147
 30
0.0
 11
48.3282775384
 21
20.0793652147
 31
0.0
  0
LINE
  5
1FE
330
1F
100
AcDbEntity
  8
0
  6
CONTINUOUS
 62
     7
100
AcDbLine
 10
48.3282775384
 20
33.2652220639
 30
0.0
 11
48.3282775384
 21
20.0793652147
 31
0.0
  0
LINE
  5
1FF
330
1F
100
AcDbEntity
  8
0
  6
CONTINUOUS
 62
     7
100
AcDbLine
 10
61.283004471
 20
20.0793652147
 30
0.0
 11
61.283004471
 21
33.2652220639
 31
0.0
  0
LINE
  5
200
330
1F
100
AcDbEntity
  8
0
  6
CONTINUOUS
 62
     7
100
AcDbLine
 10
48.3282775384
 20
19.3111024098
 30
0.0
 11
48.3282775384
 21
20.0793652147
 31
0.0
  0
LINE
  5
201
330
1F
100
AcDbEntity
  8
0
  6
CONTINUOUS
 62
     7
100
AcDbLine
 10
61.283004471
 20
20.0793652147
 30
0.0
 11
61.283004471
 21
19.3111024098
 31
0.0
  0
LINE
  5
202
330
1F
100
AcDbEntity
  8
0
  6
CONTINUOUS
 62
     7
100
AcDbLine
 10
48.3282775384
 20
1.1839079433
 30
0.0
 11
61.283004471
 21
1.1839079433
 31
0.0
  0
LINE
  5
203
330
1F
100
AcDbEntity
  8
0
  6
CONTINUOUS
 62
     7
100
AcDbLine
 10
48.3282775384
 20
2.6507596981
 30
0.0
 11
48.3282775384
 21
1.1839079433
 31
0.0
  0
LINE
  5
204
330
1F
100
AcDbEntity
  8
0
  6
CONTINUOUS
 62
     7
100
AcDbLine
 10
61.283004471
 20
2.6507596981
 30
0.0
 11
48.3282775384
 21
2.6507596981
 31
0.0
  0
LINE
  5
205
330
1F
100
AcDbEntity
  8
0
  6
CONTINUOUS
 62
     7
100
AcDbLine
 10
61.283004471
 20
1.1839079433
 30
0.0
 11
61.283004471
 21
2.6507596981
 31
0.0
  0
LINE
  5
206
330
1F
100
AcDbEntity
  8
0
  6
CONTINUOUS
 62
     7
100
AcDbLine
 10
61.283004471
 20
16.6048802323
 30
0.0
 11
48.3282775384
 21
16.6048802323
 31
0.0
  0
LINE
  5
207
330
1F
100
AcDbEntity
  8
0
  6
CONTINUOUS
 62
     7
100
AcDbLine
 10
48.3282775384
 20
3.4190225031
 30
0.0
 11
61.283004471
 21
3.4190225031
 31
0.0
  0
LINE
  5
208
330
1F
100
AcDbEntity
  8
0
  6
CONTINUOUS
 62
     7
100
AcDbLine
 10
48.3282775384
 20
16.6048802323
 30
0.0
 11
48.3282775384
 21
3.4190225031
 31
0.0
  0
LINE
  5
209
330
1F
100
AcDbEntity
  8
0
  6
CONTINUOUS
 62
     7
100
AcDbLine
 10
61.283004471
 20
3.4190225031
 30
0.0
 11
61.283004471
 21
16.6048802323
 31
0.0
  0
LINE
  5
20A
330
1F
100
AcDbEntity
  8
0
  6
CONTINUOUS
 62
     7
100
AcDbLine
 10
48.3282775384
 20
2.6507596981
 30
0.0
 11
48.3282775384
 21
3.4190225031
 31
0.0
  0
LINE
  5
20B
330
1F
100
AcDbEntity
  8
0
  6
CONTINUOUS
 62
     7
100
AcDbLine
 10
61.283004471
 20
3.4190225031
 30
0.0
 11
61.283004471
 21
2.6507596981
 31
0.0
  0
LINE
  5
20C
330
1F
100
AcDbEntity
  8
0
  6
CONTINUOUS
 62
     7
100
AcDbLine
 10
34.1341846565
 20
1.1839079433
 30
0.0
 11
47.0889092424
 21
1.1839079433
 31
0.0
  0
LINE
  5
20D
330
1F
100
AcDbEntity
  8
0
  6
CONTINUOUS
 62
     7
100
AcDbLine
 10
47.0889092424
 20
9.807923818
 30
0.0
 11
34.1341846565
 21
9.807923818
 31
0.0
  0
LINE
  5
20E
330
1F
100
AcDbEntity
  8
0
  6
CONTINUOUS
 62
     7
100
AcDbLine
 10
47.0889092424
 20
1.1839079433
 30
0.0
 11
47.0889092424
 21
9.807923818
 31
0.0
  0
LINE
  5
20F
330
1F
100
AcDbEntity
  8
0
  6
CONTINUOUS
 62
     7
100
AcDbLine
 10
34.1341846565
 20
9.807923818
 30
0.0
 11
34.1341846565
 21
1.1839079433
 31
0.0
  0
LINE
  5
210
330
1F
100
AcDbEntity
  8
POCKETS
100
AcDbLine
 10
61.6767039398
 20
3.4190226268
 30
0.0
 11
47.9345779555
 21
3.4190226268
 31
0.0
  0
LINE
  5
211
330
1F
100
AcDbEntity
  8
POCKETS
100
AcDbLine
 10
47.9345779555
 20
3.4190226268
 30
0.0
 11
47.9345779555
 21
2.6507597545
 31
0.0
  0
LINE
  5
212
330
1F
100
AcDbEntity
  8
POCKETS
100
AcDbLine
 10
47.9345779555
 20
2.6507597545
 30
0.0
 11
61.6767039398
 21
2.6507597545
 31
0.0
  0
LINE
  5
213
330
1F
100
AcDbEntity
  8
PROFILES_OUTSIDE
100
AcDbLine
 10
16.3385149634
 20
12.3518961895
 30
0.0
 11
16.3385149634
 21
15.3032899774
 31
0.0
  0
LINE
  5
214
330
1F
100
AcDbEntity
  8
PROFILES_OUTSIDE
100
AcDbLine
 10
16.3385149634
 20
15.3032899774
 30
0.0
 11
1.0215858295
 21
18.0040778453
 31
0.0
  0
LINE
  5
215
330
1F
100
AcDbEntity
  8
PROFILES_OUTSIDE
100
AcDbLine
 10
1.0215858295
 20
18.0040778453
 30
0.0
 11
1.0215858295
 21
1.3027347961
 31
0.0
  0
LINE
  5
216
330
1F
100
AcDbEntity
  8
PROFILES_OUTSIDE
100
AcDbLine
 10
1.0215858295
 20
1.3027347961
 30
0.0
 11
16.3385149634
 21
4.003522664
 31
0.0
  0
LINE
  5
217
330
1F
100
AcDbEntity
  8
POCKETS
100
AcDbLine
 10
61.6767039398
 20
2.6507597545
 30
0.0
 11
61.6767039398
 21
3.4190226268
 31
0.0
  0
LINE
  5
218
330
1F
100
AcDbEntity
  8
PROFILES_OUTSIDE
100
AcDbLine
 10
16.3385149634
 20
4.003522664
 30
0.0
 11
16.3385149634
 21
6.9549164519
 31
0.0
  0
LINE
  5
219
330
1F
100
AcDbEntity
  8
PROFILES_OUTSIDE
100
AcDbLine
 10
16.1433137455
 20
7.1875482046
 30
0.0
 11
15.7463146064
 21
7.2575498641
 31
0.0
  0
LINE
  5
21A
330
1F
100
AcDbEntity
  8
PROFILES_OUTSIDE
100
AcDbLine
 10
15.5511133886
 20
7.4901816168
 30
0.0
 11
15.5511133886
 21
11.8166310246
 31
0.0
  0
LINE
  5
21B
330
1F
100
AcDbEntity
  8
PROFILES_OUTSIDE
100
AcDbLine
 10
15.7463146064
 20
12.0492627772
 30
0.0
 11
16.1433137455
 21
12.1192644368
 31
0.0
  0
LINE
  5
21C
330
1F
100
AcDbEntity
  8
PROFILES_INSIDE
100
AcDbLine
 10
15.2880863691
 20
14.2588944686
 30
0.0
 11
15.3733068602
 21
14.7422038903
 31
0.0
  0
LINE
  5
21D
330
1F
100
AcDbEntity
  8
PROFILES_INSIDE
100
AcDbLine
 10
14.701376984
 20
14.2239340156
 30
0.0
 11
14.8581567182
 21
14.1962896233
 31
0.0
  0
LINE
  5
21E
330
1F
100
AcDbEntity
  8
PROFILES_INSIDE
100
AcDbLine
 10
14.4040078907
 20
14.9131176877
 30
0.0
 11
14.3187873592
 21
14.4298077998
 31
0.0
  0
LINE
  5
21F
330
1F
100
AcDbEntity
  8
PROFILES_INSIDE
100
AcDbLine
 10
14.9907172759
 20
14.948077904
 30
0.0
 11
14.8339375349
 21
14.9757222578
 31
0.0
  0
LINE
  5
220
330
1F
100
AcDbEntity
  8
PROFILES_OUTSIDE
100
AcDbLine
 10
47.0889086642
 20
1.1839079635
 30
0.0
 11
47.0889086642
 21
9.8079237115
 31
0.0
  0
LINE
  5
221
330
1F
100
AcDbEntity
  8
PROFILES_OUTSIDE
100
AcDbLine
 10
47.0889086642
 20
9.8079237115
 30
0.0
 11
34.1341842547
 21
9.8079237115
 31
0.0
  0
LINE
  5
222
330
1F
100
AcDbEntity
  8
PROFILES_OUTSIDE
100
AcDbLine
 10
34.1341842547
 20
9.8079237115
 30
0.0
 11
34.1341842547
 21
1.1839079635
 31
0.0
  0
LINE
  5
223
330
1F
100
AcDbEntity
  8
PROFILES_OUTSIDE
100
AcDbLine
 10
34.1341842547
 20
1.1839079635
 30
0.0
 11
47.0889086642
 21
1.1839079635
 31
0.0
  0
LINE
  5
224
330
1F
100
AcDbEntity
  8
PROFILES_OUTSIDE
100
AcDbLine
 10
61.2830031524
 20
16.6048801828
 30
0.0
 11
48.3282787429
 21
16.6048801828
 31
0.0
  0
LINE
  5
225
330
1F
100
AcDbEntity
  8
PROFILES_OUTSIDE
100
AcDbLine
 10
48.3282787429
 20
16.6048801828
 30
0.0
 11
48.3282787429
 21
1.1839079635
 31
0.0
  0
LINE
  5
226
330
1F
100
AcDbEntity
  8
PROFILES_OUTSIDE
100
AcDbLine
 10
48.3282787429
 20
1.1839079635
 30
0.0
 11
61.2830031524
 21
1.1839079635
 31
0.0
  0
LINE
  5
227
330
1F
100
AcDbEntity
  8
PROFILES_OUTSIDE
100
AcDbLine
 10
61.2830031524
 20
1.1839079635
 30
0.0
 11
61.2830031524
 21
16.6048801828
 31
0.0
  0
LINE
  5
228
330
1F
100
AcDbEntity
  8
PROFILES_OUTSIDE
100
AcDbLine
 10
48.3282787429
 20
33.2652224809
 30
0.0
 11
48.3282787429
 21
17.8442502616
 31
0.0
  0
LINE
  5
229
330
1F
100
AcDbEntity
  8
PROFILES_OUTSIDE
100
AcDbLine
 10
48.3282787429
 20
17.8442502616
 30
0.0
 11
61.2830031524
 21
17.8442502616
 31
0.0
  0
LINE
  5
22A
330
1F
100
AcDbEntity
  8
BOX_STOCK
100
AcDbLine
 10
0.0082000027
 20
0.1705221367
 30
0.0
 11
96.0711921287
 21
0.1705221367
 31
0.0
  0
LINE
  5
22B
330
1F
100
AcDbEntity
  8
BOX_STOCK
100
AcDbLine
 10
96.0711921287
 20
0.1705221367
 30
0.0
 11
96.0711921287
 21
48.2020181997
 31
0.0
  0
LINE
  5
22C
330
1F
100
AcDbEntity
  8
BOX_STOCK
100
AcDbLine
 10
96.0711921287
 20
48.2020181997
 30
0.0
 11
0.0082000027
 21
48.2020181997
 31
0.0
  0
LINE
  5
22D
330
1F
100
AcDbEntity
  8
BOX_STOCK
100
AcDbLine
 10
0.0082000027
 20
48.2020181997
 30
0.0
 11
0.0082000027
 21
0.1705221367
 31
0.0
  0
LINE
  5
22E
330
1F
100
AcDbEntity
  8
POCKETS
100
AcDbLine
 10
61.6767039398
 20
20.0793649249
 30
0.0
 11
47.9345779555
 21
20.0793649249
 31
0.0
  0
LINE
  5
22F
330
1F
100
AcDbEntity
  8
PROFILES_OUTSIDE
100
AcDbLine
 10
61.2830031524
 20
17.8442502616
 30
0.0
 11
61.2830031524
 21
33.2652224809
 31
0.0
  0
LINE
  5
230
330
1F
100
AcDbEntity
  8
POCKETS
100
AcDbLine
 10
47.9345779555
 20
20.0793649249
 30
0.0
 11
47.9345779555
 21
19.3111020526
 31
0.0
  0
LINE
  5
231
330
1F
100
AcDbEntity
  8
POCKETS
100
AcDbLine
 10
47.9345779555
 20
19.3111020526
 30
0.0
 11
61.6767039398
 21
19.3111020526
 31
0.0
  0
LINE
  5
232
330
1F
100
AcDbEntity
  8
POCKETS
100
AcDbLine
 10
61.6767039398
 20
19.3111020526
 30
0.0
 11
61.6767039398
 21
20.0793649249
 31
0.0
  0
LINE
  5
233
330
1F
100
AcDbEntity
  8
PROFILES_OUTSIDE
100
AcDbLine
 10
61.2830031524
 20
33.2652224809
 30
0.0
 11
48.3282787429
 21
33.2652224809
 31
0.0
  0
LINE
  5
234
330
1F
100
AcDbEntity
  8
PROFILES_INSIDE
100
AcDbLine
 10
3.6030646897
 20
16.3192790609
 30
0.0
 11
3.6882851808
 21
16.8025884826
 31
0.0
  0
LINE
  5
235
330
1F
100
AcDbEntity
  8
PROFILES_INSIDE
100
AcDbLine
 10
3.3056955964
 20
17.0084624963
 30
0.0
 11
3.1489158598
 21
17.0361068746
 31
0.0
  0
LINE
  5
236
330
1F
100
AcDbEntity
  8
PROFILES_INSIDE
100
AcDbLine
 10
2.7189862078
 20
16.9735022805
 30
0.0
 11
2.6337656797
 21
16.4901923921
 31
0.0
  0
LINE
  5
237
330
1F
100
AcDbEntity
  8
PROFILES_INSIDE
100
AcDbLine
 10
3.0163553046
 20
16.2843186079
 30
0.0
 11
3.1731350387
 21
16.2566742155
 31
0.0
  0
LINE
  5
238
330
1F
100
AcDbEntity
  8
PROFILES_INSIDE
100
AcDbLine
 10
15.3733068602
 20
4.564608751
 30
0.0
 11
15.2880863691
 21
5.0479181727
 31
0.0
  0
LINE
  5
239
330
1F
100
AcDbEntity
  8
PROFILES_INSIDE
100
AcDbLine
 10
14.8581567003
 20
5.1105231197
 30
0.0
 11
14.7013770025
 21
5.0828785206
 31
0.0
  0
LINE
  5
23A
330
1F
100
AcDbEntity
  8
PROFILES_INSIDE
100
AcDbLine
 10
14.3187873117
 20
4.8770048332
 30
0.0
 11
14.4040079312
 21
4.3936949608
 31
0.0
  0
LINE
  5
23B
330
1F
100
AcDbEntity
  8
PROFILES_INSIDE
100
AcDbLine
 10
14.8339375596
 20
4.3310902433
 30
0.0
 11
14.9907172579
 21
4.358734839
 31
0.0
  0
LINE
  5
23C
330
1F
100
AcDbEntity
  8
PROFILES_INSIDE
100
AcDbLine
 10
2.6337656393
 20
2.8166202421
 30
0.0
 11
2.7189862517
 21
2.3333103686
 31
0.0
  0
LINE
  5
23D
330
1F
100
AcDbEntity
  8
PROFILES_INSIDE
100
AcDbLine
 10
3.1489158802
 20
2.2707056511
 30
0.0
 11
3.3056955785
 21
2.2983502467
 31
0.0
  0
LINE
  5
23E
330
1F
100
AcDbEntity
  8
PROFILES_INSIDE
100
AcDbLine
 10
3.6882851808
 20
2.5042241588
 30
0.0
 11
3.6030646897
 21
2.9875335805
 31
0.0
  0
LINE
  5
23F
330
1F
100
AcDbEntity
  8
PROFILES_INSIDE
100
AcDbLine
 10
3.1731350208
 20
3.0501385275
 30
0.0
 11
3.0163553225
 21
3.0224939318
 31
0.0
  0
LINE
  5
240
330
1F
100
AcDbEntity
  8
PROFILES_OUTSIDE
100
AcDbLine
 10
62.7274913413
 20
14.7717096223
 30
0.0
 11
62.5617433098
 21
14.7717096223
 31
0.0
  0
LINE
  5
241
330
1F
100
AcDbEntity
  8
PROFILES_OUTSIDE
100
AcDbLine
 10
62.7408806184
 20
14.5625021684
 30
0.0
 11
62.7274913413
 21
14.7717096223
 31
0.0
  0
LINE
  5
242
330
1F
100
AcDbEntity
  8
PROFILES_OUTSIDE
100
AcDbLine
 10
63.370315027
 20
14.5256466302
 30
0.0
 11
62.780170314
 21
14.5256466302
 31
0.0
  0
LINE
  5
243
330
1F
100
AcDbEntity
  8
PROFILES_OUTSIDE
100
AcDbLine
 10
63.5066251996
 20
15.0178513546
 30
0.0
 11
63.5066251996
 21
14.9381734664
 31
0.0
  0
LINE
  5
244
330
1F
100
AcDbEntity
  8
PROFILES_OUTSIDE
100
AcDbLine
 10
68.3491448846
 20
15.0178513546
 30
0.0
 11
63.5066251996
 21
15.0178513546
 31
0.0
  0
LINE
  5
245
330
1F
100
AcDbEntity
  8
PROFILES_OUTSIDE
100
AcDbLine
 10
68.8215858295
 20
10.7214975208
 30
0.0
 11
68.8215858295
 21
14.5454104097
 31
0.0
  0
LINE
  5
246
330
1F
100
AcDbEntity
  8
PROFILES_OUTSIDE
100
AcDbLine
 10
69.9239480342
 20
10.2490565759
 30
0.0
 11
69.2940267744
 21
10.2490565759
 31
0.0
  0
LINE
  5
247
330
1F
100
AcDbEntity
  8
PROFILES_OUTSIDE
100
AcDbLine
 10
70.3963889791
 20
14.5454104097
 30
0.0
 11
70.3963889791
 21
10.7214975208
 31
0.0
  0
LINE
  5
248
330
1F
100
AcDbEntity
  8
PROFILES_INSIDE
100
AcDbLine
 10
31.8443855817
 20
14.2588944686
 30
0.0
 11
31.9296060728
 21
14.7422038903
 31
0.0
  0
LINE
  5
249
330
1F
100
AcDbEntity
  8
PROFILES_INSIDE
100
AcDbLine
 10
31.2576761966
 20
14.2239340156
 30
0.0
 11
31.4144559308
 21
14.1962896233
 31
0.0
  0
LINE
  5
24A
330
1F
100
AcDbEntity
  8
PROFILES_INSIDE
100
AcDbLine
 10
30.9603071033
 20
14.9131176877
 30
0.0
 11
30.8750865718
 21
14.4298077998
 31
0.0
  0
LINE
  5
24B
330
1F
100
AcDbEntity
  8
PROFILES_INSIDE
100
AcDbLine
 10
31.5470164885
 20
14.948077904
 30
0.0
 11
31.3902367475
 21
14.9757222578
 31
0.0
  0
LINE
  5
24C
330
1F
100
AcDbEntity
  8
PROFILES_INSIDE
100
AcDbLine
 10
20.1649703275
 20
16.3182904968
 30
0.0
 11
20.2501908186
 21
16.8015999185
 31
0.0
  0
LINE
  5
24D
330
1F
100
AcDbEntity
  8
PROFILES_INSIDE
100
AcDbLine
 10
19.8676012342
 20
17.0074739322
 30
0.0
 11
19.7108214976
 21
17.0351183106
 31
0.0
  0
LINE
  5
24E
330
1F
100
AcDbEntity
  8
PROFILES_INSIDE
100
AcDbLine
 10
19.2808918456
 20
16.9725137165
 30
0.0
 11
19.1956713176
 21
16.489203828
 31
0.0
  0
LINE
  5
24F
330
1F
100
AcDbEntity
  8
PROFILES_INSIDE
100
AcDbLine
 10
19.5782609424
 20
16.2833300438
 30
0.0
 11
19.7350406766
 21
16.2556856515
 31
0.0
  0
LINE
  5
250
330
1F
100
AcDbEntity
  8
PROFILES_INSIDE
100
AcDbLine
 10
31.9296060728
 20
4.564608751
 30
0.0
 11
31.8443855817
 21
5.0479181727
 31
0.0
  0
LINE
  5
251
330
1F
100
AcDbEntity
  8
PROFILES_INSIDE
100
AcDbLine
 10
31.4144559129
 20
5.1105231197
 30
0.0
 11
31.2576762151
 21
5.0828785206
 31
0.0
  0
LINE
  5
252
330
1F
100
AcDbEntity
  8
PROFILES_INSIDE
100
AcDbLine
 10
30.8750865243
 20
4.8770048332
 30
0.0
 11
30.9603071438
 21
4.3936949608
 31
0.0
  0
LINE
  5
253
330
1F
100
AcDbEntity
  8
PROFILES_INSIDE
100
AcDbLine
 10
31.3902367722
 20
4.3310902433
 30
0.0
 11
31.5470164705
 21
4.358734839
 31
0.0
  0
LINE
  5
254
330
1F
100
AcDbEntity
  8
PROFILES_OUTSIDE
100
AcDbLine
 10
75.711349609
 20
15.0178513546
 30
0.0
 11
70.868829924
 21
15.0178513546
 31
0.0
  0
LINE
  5
255
330
1F
100
AcDbEntity
  8
PROFILES_OUTSIDE
100
AcDbLine
 10
75.711349609
 20
14.9381734664
 30
0.0
 11
75.711349609
 21
15.0178513546
 31
0.0
  0
LINE
  5
256
330
1F
100
AcDbEntity
  8
PROFILES_OUTSIDE
100
AcDbLine
 10
76.4378044946
 20
14.5256466302
 30
0.0
 11
75.8476597816
 21
14.5256466302
 31
0.0
  0
LINE
  5
257
330
1F
100
AcDbEntity
  8
PROFILES_OUTSIDE
100
AcDbLine
 10
76.4904834673
 20
14.7717096223
 30
0.0
 11
76.4770941903
 21
14.5625021684
 31
0.0
  0
LINE
  5
258
330
1F
100
AcDbEntity
  8
PROFILES_OUTSIDE
100
AcDbLine
 10
76.6562314988
 20
14.7717096223
 30
0.0
 11
76.4904834673
 21
14.7717096223
 31
0.0
  0
LINE
  5
259
330
1F
100
AcDbEntity
  8
PROFILES_INSIDE
100
AcDbLine
 10
19.1956712771
 20
2.8176088062
 30
0.0
 11
19.2808918896
 21
2.3342989326
 31
0.0
  0
LINE
  5
25A
330
1F
100
AcDbEntity
  8
PROFILES_INSIDE
100
AcDbLine
 10
19.710821518
 20
2.2716942151
 30
0.0
 11
19.8676012163
 21
2.2993388108
 31
0.0
  0
LINE
  5
25B
330
1F
100
AcDbEntity
  8
PROFILES_INSIDE
100
AcDbLine
 10
20.2501908186
 20
2.5052127228
 30
0.0
 11
20.1649703275
 21
2.9885221445
 31
0.0
  0
LINE
  5
25C
330
1F
100
AcDbEntity
  8
PROFILES_INSIDE
100
AcDbLine
 10
19.7350406586
 20
3.0511270915
 30
0.0
 11
19.5782609603
 21
3.0234824958
 31
0.0
  0
LINE
  5
25D
330
1F
100
AcDbEntity
  8
PROFILES_OUTSIDE
100
AcDbLine
 10
17.5778850421
 20
17.7225612486
 30
0.0
 11
17.5778850421
 21
1.5842513927
 31
0.0
  0
LINE
  5
25E
330
1F
100
AcDbEntity
  8
PROFILES_OUTSIDE
100
AcDbLine
 10
32.6996129581
 20
15.3377092188
 30
0.0
 11
17.8551247691
 21
17.9551930013
 31
0.0
  0
LINE
  5
25F
330
1F
100
AcDbEntity
  8
PROFILES_OUTSIDE
100
AcDbLine
 10
32.894814176
 20
12.3518961895
 30
0.0
 11
32.894814176
 21
15.1050774661
 31
0.0
  0
LINE
  5
260
330
1F
100
AcDbEntity
  8
PROFILES_OUTSIDE
100
AcDbLine
 10
32.302613819
 20
12.0492627772
 30
0.0
 11
32.6996129581
 21
12.1192644368
 31
0.0
  0
LINE
  5
261
330
1F
100
AcDbEntity
  8
POCKETS
100
AcDbLine
 10
16.7370925927
 20
6.2101962815
 30
0.0
 11
16.3493730049
 21
6.1418308572
 31
0.0
  0
LINE
  5
262
330
1F
100
AcDbEntity
  8
PROFILES_OUTSIDE
100
AcDbLine
 10
76.6956015775
 20
14.2697411184
 30
0.0
 11
76.6956015775
 21
14.7323395436
 31
0.0
  0
LINE
  5
263
330
1F
100
AcDbEntity
  8
PROFILES_OUTSIDE
100
AcDbLine
 10
71.368829924
 20
14.0335206459
 30
0.0
 11
76.4593811051
 21
14.0335206459
 31
0.0
  0
LINE
  5
264
330
1F
100
AcDbEntity
  8
PROFILES_OUTSIDE
100
AcDbLine
 10
70.8963889791
 20
10.2490565759
 30
0.0
 11
70.8963889791
 21
13.561079701
 31
0.0
  0
LINE
  5
265
330
1F
100
AcDbEntity
  8
PROFILES_OUTSIDE
100
AcDbLine
 10
70.3963889791
 20
6.8187281459
 30
0.0
 11
70.3963889791
 21
9.3830311721
 31
0.0
  0
LINE
  5
266
330
1F
100
AcDbEntity
  8
PROFILES_OUTSIDE
100
AcDbLine
 10
70.8963889791
 20
2.640679617
 30
0.0
 11
70.8963889791
 21
5.9527027422
 31
0.0
  0
LINE
  5
267
330
1F
100
AcDbEntity
  8
PROFILES_OUTSIDE
100
AcDbLine
 10
76.4593811051
 20
2.1682386722
 30
0.0
 11
71.368829924
 21
2.1682386722
 31
0.0
  0
LINE
  5
268
330
1F
100
AcDbEntity
  8
PROFILES_OUTSIDE
100
AcDbLine
 10
76.6956015775
 20
1.4694197745
 30
0.0
 11
76.6956015775
 21
1.9320181997
 31
0.0
  0
LINE
  5
269
330
1F
100
AcDbEntity
  8
PROFILES_OUTSIDE
100
AcDbLine
 10
76.4904834673
 20
1.4300496958
 30
0.0
 11
76.6562314988
 21
1.4300496958
 31
0.0
  0
LINE
  5
26A
330
1F
100
AcDbEntity
  8
PROFILES_OUTSIDE
100
AcDbLine
 10
76.4770941903
 20
1.6392571497
 30
0.0
 11
76.4904834673
 21
1.4300496958
 31
0.0
  0
LINE
  5
26B
330
1F
100
AcDbEntity
  8
PROFILES_OUTSIDE
100
AcDbLine
 10
75.8476597816
 20
1.6761126879
 30
0.0
 11
76.4378044946
 21
1.6761126879
 31
0.0
  0
LINE
  5
26C
330
1F
100
AcDbEntity
  8
PROFILES_OUTSIDE
100
AcDbLine
 10
75.711349609
 20
1.1839079635
 30
0.0
 11
75.711349609
 21
1.2635858517
 31
0.0
  0
LINE
  5
26D
330
1F
100
AcDbEntity
  8
PROFILES_OUTSIDE
100
AcDbLine
 10
70.868829924
 20
1.1839079635
 30
0.0
 11
75.711349609
 21
1.1839079635
 31
0.0
  0
LINE
  5
26E
330
1F
100
AcDbEntity
  8
PROFILES_OUTSIDE
100
AcDbLine
 10
70.3963889791
 20
5.4802617973
 30
0.0
 11
70.3963889791
 21
1.6563489084
 31
0.0
  0
LINE
  5
26F
330
1F
100
AcDbEntity
  8
PROFILES_OUTSIDE
100
AcDbLine
 10
69.2940267744
 20
5.9527027422
 30
0.0
 11
69.9239480342
 21
5.9527027422
 31
0.0
  0
LINE
  5
270
330
1F
100
AcDbEntity
  8
PROFILES_OUTSIDE
100
AcDbLine
 10
68.8215858295
 20
1.6563489084
 30
0.0
 11
68.8215858295
 21
5.4802617973
 31
0.0
  0
LINE
  5
271
330
1F
100
AcDbEntity
  8
PROFILES_OUTSIDE
100
AcDbLine
 10
63.5066251996
 20
1.1839079635
 30
0.0
 11
68.3491448846
 21
1.1839079635
 31
0.0
  0
LINE
  5
272
330
1F
100
AcDbEntity
  8
PROFILES_OUTSIDE
100
AcDbLine
 10
32.1074126012
 20
7.4901816168
 30
0.0
 11
32.1074126012
 21
11.8166310246
 31
0.0
  0
LINE
  5
273
330
1F
100
AcDbEntity
  8
POCKETS
100
AcDbLine
 10
16.8719775748
 20
5.4452255347
 30
0.0
 11
16.7370925927
 21
6.2101962815
 31
0.0
  0
LINE
  5
274
330
1F
100
AcDbEntity
  8
PROFILES_OUTSIDE
100
AcDbLine
 10
32.6996129581
 20
7.1875482046
 30
0.0
 11
32.302613819
 21
7.2575498641
 31
0.0
  0
LINE
  5
275
330
1F
100
AcDbEntity
  8
POCKETS
100
AcDbLine
 10
16.484257987
 20
5.3768601104
 30
0.0
 11
16.8719775748
 21
5.4452255347
 31
0.0
  0
LINE
  5
276
330
1F
100
AcDbEntity
  8
POCKETS
100
AcDbLine
 10
1.010727788
 20
2.6484592495
 30
0.0
 11
16.484257987
 21
5.3768601104
 31
0.0
  0
LINE
  5
277
330
1F
100
AcDbEntity
  8
POCKETS
100
AcDbLine
 10
0.6230082002
 20
2.5800938253
 30
0.0
 11
1.010727788
 21
2.6484592495
 31
0.0
  0
LINE
  5
278
330
1F
100
AcDbEntity
  8
POCKETS
100
AcDbLine
 10
0.4881232181
 20
3.345064572
 30
0.0
 11
0.6230082002
 21
2.5800938253
 31
0.0
  0
LINE
  5
279
330
1F
100
AcDbEntity
  8
POCKETS
100
AcDbLine
 10
0.8758428059
 20
3.4134299963
 30
0.0
 11
0.4881232181
 21
3.345064572
 31
0.0
  0
LINE
  5
27A
330
1F
100
AcDbEntity
  8
POCKETS
100
AcDbLine
 10
14.000325987
 20
5.727630489
 30
0.0
 11
0.8758428059
 21
3.4134299963
 31
0.0
  0
LINE
  5
27B
330
1F
100
AcDbEntity
  8
POCKETS
100
AcDbLine
 10
14.000325987
 20
13.5791821524
 30
0.0
 11
14.000325987
 21
5.727630489
 31
0.0
  0
LINE
  5
27C
330
1F
100
AcDbEntity
  8
POCKETS
100
AcDbLine
 10
0.8758428059
 20
15.8933826451
 30
0.0
 11
14.000325987
 21
13.5791821524
 31
0.0
  0
LINE
  5
27D
330
1F
100
AcDbEntity
  8
POCKETS
100
AcDbLine
 10
0.4881232181
 20
15.9617480693
 30
0.0
 11
0.8758428059
 21
15.8933826451
 31
0.0
  0
LINE
  5
27E
330
1F
100
AcDbEntity
  8
POCKETS
100
AcDbLine
 10
0.6230082002
 20
16.7267188161
 30
0.0
 11
0.4881232181
 21
15.9617480693
 31
0.0
  0
LINE
  5
27F
330
1F
100
AcDbEntity
  8
POCKETS
100
AcDbLine
 10
1.010727788
 20
16.6583533918
 30
0.0
 11
0.6230082002
 21
16.7267188161
 31
0.0
  0
LINE
  5
280
330
1F
100
AcDbEntity
  8
POCKETS
100
AcDbLine
 10
16.484257987
 20
13.9299525309
 30
0.0
 11
1.010727788
 21
16.6583533918
 31
0.0
  0
LINE
  5
281
330
1F
100
AcDbEntity
  8
POCKETS
100
AcDbLine
 10
16.8719775748
 20
13.8615871066
 30
0.0
 11
16.484257987
 21
13.9299525309
 31
0.0
  0
LINE
  5
282
330
1F
100
AcDbEntity
  8
POCKETS
100
AcDbLine
 10
16.7370925927
 20
13.0966163599
 30
0.0
 11
16.8719775748
 21
13.8615871066
 31
0.0
  0
LINE
  5
283
330
1F
100
AcDbEntity
  8
POCKETS
100
AcDbLine
 10
16.3493730049
 20
13.1649817842
 30
0.0
 11
16.7370925927
 21
13.0966163599
 31
0.0
  0
LINE
  5
284
330
1F
100
AcDbEntity
  8
POCKETS
100
AcDbLine
 10
14.7637118138
 20
13.4445766344
 30
0.0
 11
16.3493730049
 21
13.1649817842
 31
0.0
  0
LINE
  5
285
330
1F
100
AcDbEntity
  8
PROFILES_OUTSIDE
100
AcDbLine
 10
63.5066251996
 20
1.2635858517
 30
0.0
 11
63.5066251996
 21
1.1839079635
 31
0.0
  0
LINE
  5
286
330
1F
100
AcDbEntity
  8
PROFILES_OUTSIDE
100
AcDbLine
 10
62.780170314
 20
1.6761126879
 30
0.0
 11
63.370315027
 21
1.6761126879
 31
0.0
  0
LINE
  5
287
330
1F
100
AcDbEntity
  8
PROFILES_OUTSIDE
100
AcDbLine
 10
62.7274913413
 20
1.4300496958
 30
0.0
 11
62.7408806184
 21
1.6392571497
 31
0.0
  0
LINE
  5
288
330
1F
100
AcDbEntity
  8
PROFILES_OUTSIDE
100
AcDbLine
 10
62.5617433098
 20
1.4300496958
 30
0.0
 11
62.7274913413
 21
1.4300496958
 31
0.0
  0
LINE
  5
289
330
1F
100
AcDbEntity
  8
PROFILES_OUTSIDE
100
AcDbLine
 10
62.5223732311
 20
1.9320181997
 30
0.0
 11
62.5223732311
 21
1.4694197745
 31
0.0
  0
LINE
  5
28A
330
1F
100
AcDbEntity
  8
PROFILES_OUTSIDE
100
AcDbLine
 10
67.8491448846
 20
2.1682386722
 30
0.0
 11
62.7585937035
 21
2.1682386722
 31
0.0
  0
LINE
  5
28B
330
1F
100
AcDbEntity
  8
PROFILES_OUTSIDE
100
AcDbLine
 10
68.3215858295
 20
5.9527027422
 30
0.0
 11
68.3215858295
 21
2.640679617
 31
0.0
  0
LINE
  5
28C
330
1F
100
AcDbEntity
  8
PROFILES_OUTSIDE
100
AcDbLine
 10
68.8215858295
 20
9.3830311721
 30
0.0
 11
68.8215858295
 21
6.8187281459
 31
0.0
  0
LINE
  5
28D
330
1F
100
AcDbEntity
  8
PROFILES_OUTSIDE
100
AcDbLine
 10
68.3215858295
 20
13.561079701
 30
0.0
 11
68.3215858295
 21
10.2490565759
 31
0.0
  0
LINE
  5
28E
330
1F
100
AcDbEntity
  8
PROFILES_OUTSIDE
100
AcDbLine
 10
62.7585937035
 20
14.0335206459
 30
0.0
 11
67.8491448846
 21
14.0335206459
 31
0.0
  0
LINE
  5
28F
330
1F
100
AcDbEntity
  8
PROFILES_OUTSIDE
100
AcDbLine
 10
62.5223732311
 20
14.7323395436
 30
0.0
 11
62.5223732311
 21
14.2697411184
 31
0.0
  0
LINE
  5
290
330
1F
100
AcDbEntity
  8
POCKETS
100
AcDbLine
 10
14.7637118138
 20
5.8622360069
 30
0.0
 11
14.7637118138
 21
13.4445766344
 31
0.0
  0
LINE
  5
291
330
1F
100
AcDbEntity
  8
PROFILES_OUTSIDE
100
AcDbLine
 10
76.4904834673
 20
16.5032056853
 30
0.0
 11
76.6562314988
 21
16.5032056853
 31
0.0
  0
LINE
  5
292
330
1F
100
AcDbEntity
  8
PROFILES_OUTSIDE
100
AcDbLine
 10
76.4770941903
 20
16.7124131392
 30
0.0
 11
76.4904834673
 21
16.5032056853
 31
0.0
  0
LINE
  5
293
330
1F
100
AcDbEntity
  8
PROFILES_OUTSIDE
100
AcDbLine
 10
75.8476597816
 20
16.7492686774
 30
0.0
 11
76.4378044946
 21
16.7492686774
 31
0.0
  0
LINE
  5
294
330
1F
100
AcDbEntity
  8
PROFILES_OUTSIDE
100
AcDbLine
 10
75.711349609
 20
16.257063953
 30
0.0
 11
75.711349609
 21
16.3367418412
 31
0.0
  0
LINE
  5
295
330
1F
100
AcDbEntity
  8
PROFILES_OUTSIDE
100
AcDbLine
 10
70.868829924
 20
16.257063953
 30
0.0
 11
75.711349609
 21
16.257063953
 31
0.0
  0
LINE
  5
296
330
1F
100
AcDbEntity
  8
PROFILES_OUTSIDE
100
AcDbLine
 10
70.3963889791
 20
20.5534177868
 30
0.0
 11
70.3963889791
 21
16.7295048979
 31
0.0
  0
LINE
  5
297
330
1F
100
AcDbEntity
  8
PROFILES_OUTSIDE
100
AcDbLine
 10
69.2940267744
 20
21.0258587317
 30
0.0
 11
69.9239480342
 21
21.0258587317
 31
0.0
  0
LINE
  5
298
330
1F
100
AcDbEntity
  8
PROFILES_OUTSIDE
100
AcDbLine
 10
68.8215858295
 20
16.7295048979
 30
0.0
 11
68.8215858295
 21
20.5534177868
 31
0.0
  0
LINE
  5
299
330
1F
100
AcDbEntity
  8
PROFILES_OUTSIDE
100
AcDbLine
 10
63.5066251996
 20
16.257063953
 30
0.0
 11
68.3491448846
 21
16.257063953
 31
0.0
  0
LINE
  5
29A
330
1F
100
AcDbEntity
  8
PROFILES_OUTSIDE
100
AcDbLine
 10
63.5066251996
 20
16.3367418412
 30
0.0
 11
63.5066251996
 21
16.257063953
 31
0.0
  0
LINE
  5
29B
330
1F
100
AcDbEntity
  8
PROFILES_OUTSIDE
100
AcDbLine
 10
62.780170314
 20
16.7492686774
 30
0.0
 11
63.370315027
 21
16.7492686774
 31
0.0
  0
LINE
  5
29C
330
1F
100
AcDbEntity
  8
PROFILES_OUTSIDE
100
AcDbLine
 10
62.7274913413
 20
16.5032056853
 30
0.0
 11
62.7408806184
 21
16.7124131392
 31
0.0
  0
LINE
  5
29D
330
1F
100
AcDbEntity
  8
PROFILES_OUTSIDE
100
AcDbLine
 10
62.5617433098
 20
16.5032056853
 30
0.0
 11
62.7274913413
 21
16.5032056853
 31
0.0
  0
LINE
  5
29E
330
1F
100
AcDbEntity
  8
PROFILES_OUTSIDE
100
AcDbLine
 10
62.5223732311
 20
17.0051741892
 30
0.0
 11
62.5223732311
 21
16.542575764
 31
0.0
  0
LINE
  5
29F
330
1F
100
AcDbEntity
  8
PROFILES_OUTSIDE
100
AcDbLine
 10
67.8491448846
 20
17.2413946617
 30
0.0
 11
62.7585937035
 21
17.2413946617
 31
0.0
  0
LINE
  5
2A0
330
1F
100
AcDbEntity
  8
PROFILES_OUTSIDE
100
AcDbLine
 10
68.3215858295
 20
21.0258587317
 30
0.0
 11
68.3215858295
 21
17.7138356066
 31
0.0
  0
LINE
  5
2A1
330
1F
100
AcDbEntity
  8
PROFILES_OUTSIDE
100
AcDbLine
 10
68.8215858295
 20
24.4561871617
 30
0.0
 11
68.8215858295
 21
21.8918841355
 31
0.0
  0
LINE
  5
2A2
330
1F
100
AcDbEntity
  8
PROFILES_OUTSIDE
100
AcDbLine
 10
68.3215858295
 20
28.6342356906
 30
0.0
 11
68.3215858295
 21
25.3222125655
 31
0.0
  0
LINE
  5
2A3
330
1F
100
AcDbEntity
  8
PROFILES_OUTSIDE
100
AcDbLine
 10
62.7585937035
 20
29.1066766355
 30
0.0
 11
67.8491448846
 21
29.1066766355
 31
0.0
  0
LINE
  5
2A4
330
1F
100
AcDbEntity
  8
PROFILES_OUTSIDE
100
AcDbLine
 10
62.5223732311
 20
29.8054955331
 30
0.0
 11
62.5223732311
 21
29.3428971079
 31
0.0
  0
LINE
  5
2A5
330
1F
100
AcDbEntity
  8
PROFILES_OUTSIDE
100
AcDbLine
 10
62.7274913413
 20
29.8448656118
 30
0.0
 11
62.5617433098
 21
29.8448656118
 31
0.0
  0
LINE
  5
2A6
330
1F
100
AcDbEntity
  8
PROFILES_OUTSIDE
100
AcDbLine
 10
62.7408806184
 20
29.6356581579
 30
0.0
 11
62.7274913413
 21
29.8448656118
 31
0.0
  0
LINE
  5
2A7
330
1F
100
AcDbEntity
  8
PROFILES_OUTSIDE
100
AcDbLine
 10
63.370315027
 20
29.5988026197
 30
0.0
 11
62.780170314
 21
29.5988026197
 31
0.0
  0
LINE
  5
2A8
330
1F
100
AcDbEntity
  8
PROFILES_OUTSIDE
100
AcDbLine
 10
63.5066251996
 20
30.0910073441
 30
0.0
 11
63.5066251996
 21
30.0113294559
 31
0.0
  0
LINE
  5
2A9
330
1F
100
AcDbEntity
  8
PROFILES_OUTSIDE
100
AcDbLine
 10
68.3491448846
 20
30.0910073441
 30
0.0
 11
63.5066251996
 21
30.0910073441
 31
0.0
  0
LINE
  5
2AA
330
1F
100
AcDbEntity
  8
PROFILES_OUTSIDE
100
AcDbLine
 10
68.8215858295
 20
25.7946535103
 30
0.0
 11
68.8215858295
 21
29.6185663992
 31
0.0
  0
LINE
  5
2AB
330
1F
100
AcDbEntity
  8
PROFILES_OUTSIDE
100
AcDbLine
 10
69.9239480342
 20
25.3222125655
 30
0.0
 11
69.2940267744
 21
25.3222125655
 31
0.0
  0
LINE
  5
2AC
330
1F
100
AcDbEntity
  8
PROFILES_OUTSIDE
100
AcDbLine
 10
70.3963889791
 20
29.6185663992
 30
0.0
 11
70.3963889791
 21
25.7946535103
 31
0.0
  0
LINE
  5
2AD
330
1F
100
AcDbEntity
  8
PROFILES_OUTSIDE
100
AcDbLine
 10
75.711349609
 20
30.0910073441
 30
0.0
 11
70.868829924
 21
30.0910073441
 31
0.0
  0
LINE
  5
2AE
330
1F
100
AcDbEntity
  8
PROFILES_OUTSIDE
100
AcDbLine
 10
75.711349609
 20
30.0113294559
 30
0.0
 11
75.711349609
 21
30.0910073441
 31
0.0
  0
LINE
  5
2AF
330
1F
100
AcDbEntity
  8
PROFILES_OUTSIDE
100
AcDbLine
 10
76.4378044946
 20
29.5988026197
 30
0.0
 11
75.8476597816
 21
29.5988026197
 31
0.0
  0
LINE
  5
2B0
330
1F
100
AcDbEntity
  8
PROFILES_OUTSIDE
100
AcDbLine
 10
76.4904834673
 20
29.8448656118
 30
0.0
 11
76.4770941903
 21
29.6356581579
 31
0.0
  0
LINE
  5
2B1
330
1F
100
AcDbEntity
  8
PROFILES_OUTSIDE
100
AcDbLine
 10
76.6562314988
 20
29.8448656118
 30
0.0
 11
76.4904834673
 21
29.8448656118
 31
0.0
  0
LINE
  5
2B2
330
1F
100
AcDbEntity
  8
PROFILES_OUTSIDE
100
AcDbLine
 10
76.6956015775
 20
29.3428971079
 30
0.0
 11
76.6956015775
 21
29.8054955331
 31
0.0
  0
LINE
  5
2B3
330
1F
100
AcDbEntity
  8
PROFILES_OUTSIDE
100
AcDbLine
 10
71.368829924
 20
29.1066766355
 30
0.0
 11
76.4593811051
 21
29.1066766355
 31
0.0
  0
LINE
  5
2B4
330
1F
100
AcDbEntity
  8
PROFILES_OUTSIDE
100
AcDbLine
 10
70.8963889791
 20
25.3222125655
 30
0.0
 11
70.8963889791
 21
28.6342356906
 31
0.0
  0
LINE
  5
2B5
330
1F
100
AcDbEntity
  8
PROFILES_OUTSIDE
100
AcDbLine
 10
70.3963889791
 20
21.8918841355
 30
0.0
 11
70.3963889791
 21
24.4561871617
 31
0.0
  0
LINE
  5
2B6
330
1F
100
AcDbEntity
  8
PROFILES_OUTSIDE
100
AcDbLine
 10
70.8963889791
 20
17.7138356066
 30
0.0
 11
70.8963889791
 21
21.0258587317
 31
0.0
  0
LINE
  5
2B7
330
1F
100
AcDbEntity
  8
PROFILES_OUTSIDE
100
AcDbLine
 10
76.4593811051
 20
17.2413946617
 30
0.0
 11
71.368829924
 21
17.2413946617
 31
0.0
  0
LINE
  5
2B8
330
1F
100
AcDbEntity
  8
PROFILES_OUTSIDE
100
AcDbLine
 10
76.6956015775
 20
16.542575764
 30
0.0
 11
76.6956015775
 21
17.0051741892
 31
0.0
  0
LINE
  5
2B9
330
1F
100
AcDbEntity
  8
POCKETS
100
AcDbLine
 10
16.3493730049
 20
6.1418308572
 30
0.0
 11
14.7637118138
 21
5.8622360069
 31
0.0
  0
LINE
  5
2BA
330
1F
100
AcDbEntity
  8
POCKETS
100
AcDbLine
 10
31.3200110264
 20
13.4445766344
 30
0.0
 11
32.9056722175
 21
13.1649817842
 31
0.0
  0
LINE
  5
2BB
330
1F
100
AcDbEntity
  8
POCKETS
100
AcDbLine
 10
32.9056722175
 20
13.1649817842
 30
0.0
 11
33.2933918053
 21
13.0966163599
 31
0.0
  0
LINE
  5
2BC
330
1F
100
AcDbEntity
  8
POCKETS
100
AcDbLine
 10
33.2933918053
 20
13.0966163599
 30
0.0
 11
33.4282767874
 21
13.8615871066
 31
0.0
  0
LINE
  5
2BD
330
1F
100
AcDbEntity
  8
POCKETS
100
AcDbLine
 10
33.4282767874
 20
13.8615871066
 30
0.0
 11
33.0405571996
 21
13.9299525309
 31
0.0
  0
LINE
  5
2BE
330
1F
100
AcDbEntity
  8
POCKETS
100
AcDbLine
 10
33.0405571996
 20
13.9299525309
 30
0.0
 11
17.6972631338
 21
16.6353892476
 31
0.0
  0
LINE
  5
2BF
330
1F
100
AcDbEntity
  8
POCKETS
100
AcDbLine
 10
17.6972631338
 20
16.6353892476
 30
0.0
 11
17.309543546
 21
16.7037546719
 31
0.0
  0
LINE
  5
2C0
330
1F
100
AcDbEntity
  8
POCKETS
100
AcDbLine
 10
17.309543546
 20
16.7037546719
 30
0.0
 11
17.1746585639
 21
15.9387839252
 31
0.0
  0
LINE
  5
2C1
330
1F
100
AcDbEntity
  8
POCKETS
100
AcDbLine
 10
17.1746585639
 20
15.9387839252
 30
0.0
 11
17.5623781517
 21
15.8704185009
 31
0.0
  0
LINE
  5
2C2
330
1F
100
AcDbEntity
  8
POCKETS
100
AcDbLine
 10
17.5623781517
 20
15.8704185009
 30
0.0
 11
30.5566251996
 21
13.5791821524
 31
0.0
  0
LINE
  5
2C3
330
1F
100
AcDbEntity
  8
POCKETS
100
AcDbLine
 10
30.5566251996
 20
13.5791821524
 30
0.0
 11
30.5566251996
 21
5.727630489
 31
0.0
  0
LINE
  5
2C4
330
1F
100
AcDbEntity
  8
POCKETS
100
AcDbLine
 10
30.5566251996
 20
5.727630489
 30
0.0
 11
17.5623781517
 21
3.4363941404
 31
0.0
  0
LINE
  5
2C5
330
1F
100
AcDbEntity
  8
POCKETS
100
AcDbLine
 10
17.5623781517
 20
3.4363941404
 30
0.0
 11
17.1746585639
 21
3.3680287161
 31
0.0
  0
LINE
  5
2C6
330
1F
100
AcDbEntity
  8
POCKETS
100
AcDbLine
 10
17.1746585639
 20
3.3680287161
 30
0.0
 11
17.309543546
 21
2.6030579694
 31
0.0
  0
LINE
  5
2C7
330
1F
100
AcDbEntity
  8
POCKETS
100
AcDbLine
 10
17.309543546
 20
2.6030579694
 30
0.0
 11
17.6972631338
 21
2.6714233937
 31
0.0
  0
LINE
  5
2C8
330
1F
100
AcDbEntity
  8
POCKETS
100
AcDbLine
 10
17.6972631338
 20
2.6714233937
 30
0.0
 11
33.0405571996
 21
5.3768601104
 31
0.0
  0
LINE
  5
2C9
330
1F
100
AcDbEntity
  8
POCKETS
100
AcDbLine
 10
33.0405571996
 20
5.3768601104
 30
0.0
 11
33.4282767874
 21
5.4452255347
 31
0.0
  0
LINE
  5
2CA
330
1F
100
AcDbEntity
  8
POCKETS
100
AcDbLine
 10
33.4282767874
 20
5.4452255347
 30
0.0
 11
33.2933918053
 21
6.2101962815
 31
0.0
  0
LINE
  5
2CB
330
1F
100
AcDbEntity
  8
POCKETS
100
AcDbLine
 10
33.2933918053
 20
6.2101962815
 30
0.0
 11
32.9056722175
 21
6.1418308572
 31
0.0
  0
LINE
  5
2CC
330
1F
100
AcDbEntity
  8
POCKETS
100
AcDbLine
 10
32.9056722175
 20
6.1418308572
 30
0.0
 11
31.3200110264
 21
5.8622360069
 31
0.0
  0
LINE
  5
2CD
330
1F
100
AcDbEntity
  8
POCKETS
100
AcDbLine
 10
31.3200110264
 20
5.8622360069
 30
0.0
 11
31.3200110264
 21
13.4445766344
 31
0.0
  0
LINE
  5
2CE
330
1F
100
AcDbEntity
  8
PROFILES_OUTSIDE
100
AcDbLine
 10
32.894814176
 20
4.2017351753
 30
0.0
 11
32.894814176
 21
6.9549164519
 31
0.0
  0
LINE
  5
2CF
330
1F
100
AcDbEntity
  8
PROFILES_OUTSIDE
100
AcDbLine
 10
17.8551247691
 20
1.3516196401
 30
0.0
 11
32.6996129581
 21
3.9691034226
 31
0.0
  0
ARC
  5
2D0
330
1F
100
AcDbEntity
  8
PROFILES_OUTSIDE
100
AcDbCircle
 10
16.1022944909
 20
6.9549164519
 30
0.0
 40
0.2362204724409449
100
AcDbArc
 50
0.0
 51
80.0
  0
ARC
  5
2D1
330
1F
100
AcDbEntity
  8
PROFILES_OUTSIDE
100
AcDbCircle
 10
15.787333861
 20
7.4901816168
 30
0.0
 40
0.2362204724409462
100
AcDbArc
 50
180.0
 51
260.0
  0
ARC
  5
2D2
330
1F
100
AcDbEntity
  8
PROFILES_OUTSIDE
100
AcDbCircle
 10
15.787333861
 20
11.8166310246
 30
0.0
 40
0.2362204724409462
100
AcDbArc
 50
100.0
 51
180.0
  0
ARC
  5
2D3
330
1F
100
AcDbEntity
  8
PROFILES_OUTSIDE
100
AcDbCircle
 10
16.1022944909
 20
12.3518961895
 30
0.0
 40
0.2362204724409467
100
AcDbArc
 50
280.0
 51
0.0
  0
ARC
  5
2D4
330
1F
100
AcDbEntity
  8
PROFILES_INSIDE
100
AcDbCircle
 10
15.8247354358
 20
4.716475727
 30
0.0
 40
0.2362204724409462
100
AcDbArc
 50
280.0
 51
0.0
  0
ARC
  5
2D5
330
1F
100
AcDbEntity
  8
PROFILES_OUTSIDE
100
AcDbCircle
 10
76.6562314988
 20
14.7323395436
 30
0.0
 40
0.0393700787401574
100
AcDbArc
 50
0.0
 51
90.0
  0
ARC
  5
2D6
330
1F
100
AcDbEntity
  8
PROFILES_INSIDE
100
AcDbCircle
 10
14.9975537931
 20
14.9868498672
 30
0.0
 40
0.0393700787401553
100
AcDbArc
 50
260.0000371503
 51
332.399540952
  0
ARC
  5
2D7
330
1F
100
AcDbEntity
  8
PROFILES_INSIDE
100
AcDbCircle
 10
15.2128236034
 20
14.874307334
 30
0.0
 40
0.2035433070866179
100
AcDbArc
 50
325.11217169
 51
152.399540952
  0
ARC
  5
2D8
330
1F
100
AcDbEntity
  8
PROFILES_INSIDE
100
AcDbCircle
 10
15.4120798591
 20
14.7353671645
 30
0.0
 40
0.0393711348432805
100
AcDbArc
 50
145.11217169
 51
170.0
  0
ARC
  5
2D9
330
1F
100
AcDbEntity
  8
PROFILES_INSIDE
100
AcDbCircle
 10
15.3268583279
 20
14.2520579262
 30
0.0
 40
0.0393700787401579
100
AcDbArc
 50
170.0
 51
194.8879007739
  0
ARC
  5
2DA
330
1F
100
AcDbEntity
  8
PROFILES_INSIDE
100
AcDbCircle
 10
15.0920994578
 20
14.1896465018
 30
0.0
 40
0.2035433070866152
100
AcDbArc
 50
187.6004745238
 51
14.8879007739
  0
ARC
  5
2DB
330
1F
100
AcDbEntity
  8
PROFILES_INSIDE
100
AcDbCircle
 10
14.8513202009
 20
14.1575176601
 30
0.0
 40
0.0393700787401591
100
AcDbArc
 50
7.6004745237
 51
80.0000371503
  0
ARC
  5
2DC
330
1F
100
AcDbEntity
  8
PROFILES_INSIDE
100
AcDbCircle
 10
14.6945404667
 20
14.1851620524
 30
0.0
 40
0.0393700787401591
100
AcDbArc
 50
80.0000371503
 51
152.399540952
  0
ARC
  5
2DD
330
1F
100
AcDbEntity
  8
PROFILES_INSIDE
100
AcDbCircle
 10
14.4792706564
 20
14.2977045857
 30
0.0
 40
0.2035433070866169
100
AcDbArc
 50
145.1121167212
 51
332.399540952
  0
ARC
  5
2DE
330
1F
100
AcDbEntity
  8
PROFILES_INSIDE
100
AcDbCircle
 10
14.2800154004
 20
14.4366443422
 30
0.0
 40
0.0393700787401577
100
AcDbArc
 50
325.1121167212
 51
350.0
  0
ARC
  5
2DF
330
1F
100
AcDbEntity
  8
PROFILES_INSIDE
100
AcDbCircle
 10
14.3652359724
 20
14.919954223
 30
0.0
 40
0.0393700376495597
100
AcDbArc
 50
350.0
 51
14.8878509098
  0
ARC
  5
2E0
330
1F
100
AcDbEntity
  8
PROFILES_INSIDE
100
AcDbCircle
 10
14.5999948021
 20
14.9823654179
 30
0.0
 40
0.2035432679084908
100
AcDbArc
 50
7.6004745238
 51
194.8878509098
  0
ARC
  5
2E1
330
1F
100
AcDbEntity
  8
PROFILES_INSIDE
100
AcDbCircle
 10
14.840774059
 20
15.0144942596
 30
0.0
 40
0.0393701179182791
100
AcDbArc
 50
187.6004745238
 51
260.0000371503
  0
ARC
  5
2E2
330
1F
100
AcDbEntity
  8
PROFILES_INSIDE
100
AcDbCircle
 10
3.7270581796
 20
16.7957517568
 30
0.0
 40
0.0393711348432818
100
AcDbArc
 50
145.11217169
 51
170.0
  0
ARC
  5
2E3
330
1F
100
AcDbEntity
  8
PROFILES_INSIDE
100
AcDbCircle
 10
3.527801924
 20
16.9346919262
 30
0.0
 40
0.2035433070866137
100
AcDbArc
 50
325.11217169
 51
152.399540952
  0
ARC
  5
2E4
330
1F
100
AcDbEntity
  8
PROFILES_INSIDE
100
AcDbCircle
 10
3.3125321137
 20
17.0472344595
 30
0.0
 40
0.0393700787401625
100
AcDbArc
 50
260.0000371503
 51
332.399540952
  0
ARC
  5
2E5
330
1F
100
AcDbEntity
  8
PROFILES_INSIDE
100
AcDbCircle
 10
3.1557523795
 20
17.0748788518
 30
0.0
 40
0.0393701001100437
100
AcDbArc
 50
187.6004745238
 51
260.0000371503
  0
ARC
  5
2E6
330
1F
100
AcDbEntity
  8
PROFILES_INSIDE
100
AcDbCircle
 10
2.9149731226
 20
17.0427500101
 30
0.0
 40
0.2035432857167305
100
AcDbArc
 50
7.6004745238
 51
194.8878509098
  0
ARC
  5
2E7
330
1F
100
AcDbEntity
  8
PROFILES_INSIDE
100
AcDbCircle
 10
2.680214293
 20
16.9803388152
 30
0.0
 40
0.0393700340879147
100
AcDbArc
 50
350.0
 51
14.8878509098
  0
ARC
  5
2E8
330
1F
100
AcDbEntity
  8
PROFILES_INSIDE
100
AcDbCircle
 10
2.5949937209
 20
16.4970289345
 30
0.0
 40
0.0393700787401546
100
AcDbArc
 50
325.1121167212
 51
350.0
  0
ARC
  5
2E9
330
1F
100
AcDbEntity
  8
PROFILES_INSIDE
100
AcDbCircle
 10
2.794248977
 20
16.3580891779
 30
0.0
 40
0.2035433070866134
100
AcDbArc
 50
145.1121167212
 51
332.399540952
  0
ARC
  5
2EA
330
1F
100
AcDbEntity
  8
PROFILES_INSIDE
100
AcDbCircle
 10
3.0095187873
 20
16.2455466447
 30
0.0
 40
0.0393700787401597
100
AcDbArc
 50
80.0000371503
 51
152.399540952
  0
ARC
  5
2EB
330
1F
100
AcDbEntity
  8
PROFILES_INSIDE
100
AcDbCircle
 10
3.1662985214
 20
16.2179022523
 30
0.0
 40
0.0393700787401596
100
AcDbArc
 50
7.6004745238
 51
80.0000371503
  0
ARC
  5
2EC
330
1F
100
AcDbEntity
  8
PROFILES_INSIDE
100
AcDbCircle
 10
3.4070777783
 20
16.250031094
 30
0.0
 40
0.2035433070866177
100
AcDbArc
 50
187.6004745238
 51
14.8879007739
  0
ARC
  5
2ED
330
1F
100
AcDbEntity
  8
PROFILES_INSIDE
100
AcDbCircle
 10
3.6418366485
 20
16.3124425184
 30
0.0
 40
0.0393700787401627
100
AcDbArc
 50
170.0
 51
194.8879007739
  0
ARC
  5
2EE
330
1F
100
AcDbEntity
  8
PROFILES_INSIDE
100
AcDbCircle
 10
15.2128236054
 20
4.432505476
 30
0.0
 40
0.203543307086616
100
AcDbArc
 50
207.6004745238
 51
34.8879007739
  0
ARC
  5
2EF
330
1F
100
AcDbEntity
  8
PROFILES_INSIDE
100
AcDbCircle
 10
15.412078819
 20
4.5714452934
 30
0.0
 40
0.039370078740158
100
AcDbArc
 50
190.0
 51
214.8879007739
  0
ARC
  5
2F0
330
1F
100
AcDbEntity
  8
PROFILES_INSIDE
100
AcDbCircle
 10
15.326859368
 20
5.0547548985
 30
0.0
 40
0.0393711348432811
100
AcDbArc
 50
165.11217169
 51
190.0
  0
ARC
  5
2F1
330
1F
100
AcDbEntity
  8
PROFILES_INSIDE
100
AcDbCircle
 10
15.0920993982
 20
5.1171662974
 30
0.0
 40
0.2035433070866163
100
AcDbArc
 50
345.11217169
 51
172.399540952
  0
ARC
  5
2F2
330
1F
100
AcDbEntity
  8
PROFILES_INSIDE
100
AcDbCircle
 10
14.8513201327
 20
5.1492950741
 30
0.0
 40
0.039370078740156
100
AcDbArc
 50
280.0000371503
 51
352.399540952
  0
ARC
  5
2F3
330
1F
100
AcDbEntity
  8
PROFILES_INSIDE
100
AcDbCircle
 10
14.6945404344
 20
5.1216504784
 30
0.0
 40
0.0393700965483957
100
AcDbArc
 50
207.6004745237
 51
280.0000371503
  0
ARC
  5
2F4
330
1F
100
AcDbEntity
  8
PROFILES_INSIDE
100
AcDbCircle
 10
14.4792706545
 20
5.009107887
 30
0.0
 40
0.2035432892783767
100
AcDbArc
 50
27.6004745238
 51
214.8878509098
  0
ARC
  5
2F5
330
1F
100
AcDbEntity
  8
PROFILES_INSIDE
100
AcDbCircle
 10
14.2800154004
 20
4.8701682991
 30
0.0
 40
0.0393700305262664
100
AcDbArc
 50
10.0
 51
34.8878509098
  0
ARC
  5
2F6
330
1F
100
AcDbEntity
  8
PROFILES_INSIDE
100
AcDbCircle
 10
14.3652359724
 20
4.3868584184
 30
0.0
 40
0.039370078740158
100
AcDbArc
 50
345.1121167212
 51
10.0
  0
ARC
  5
2F7
330
1F
100
AcDbEntity
  8
PROFILES_INSIDE
100
AcDbCircle
 10
14.5999948616
 20
4.3244470656
 30
0.0
 40
0.2035433070866163
100
AcDbArc
 50
165.1121167212
 51
352.399540952
  0
ARC
  5
2F8
330
1F
100
AcDbEntity
  8
PROFILES_INSIDE
100
AcDbCircle
 10
14.8407741272
 20
4.292318289
 30
0.0
 40
0.0393700787401557
100
AcDbArc
 50
100.0000371503
 51
172.399540952
  0
ARC
  5
2F9
330
1F
100
AcDbEntity
  8
PROFILES_INSIDE
100
AcDbCircle
 10
14.9975538255
 20
4.3199628846
 30
0.0
 40
0.0393700787401586
100
AcDbArc
 50
27.6004745238
 51
100.0000371503
  0
ARC
  5
2FA
330
1F
100
AcDbEntity
  8
PROFILES_INSIDE
100
AcDbCircle
 10
2.680214293
 20
2.3264738261
 30
0.0
 40
0.0393700787401568
100
AcDbArc
 50
345.1121167212
 51
10.0
  0
ARC
  5
2FB
330
1F
100
AcDbEntity
  8
PROFILES_INSIDE
100
AcDbCircle
 10
2.9149731822
 20
2.2640624734
 30
0.0
 40
0.2035433070866176
100
AcDbArc
 50
165.1121167212
 51
352.399540952
  0
ARC
  5
2FC
330
1F
100
AcDbEntity
  8
PROFILES_INSIDE
100
AcDbCircle
 10
3.1557524477
 20
2.2319336967
 30
0.0
 40
0.0393700787401577
100
AcDbArc
 50
100.0000371503
 51
172.399540952
  0
ARC
  5
2FD
330
1F
100
AcDbEntity
  8
PROFILES_INSIDE
100
AcDbCircle
 10
3.312532146
 20
2.2595782924
 30
0.0
 40
0.0393700787401578
100
AcDbArc
 50
27.6004745237
 51
100.0000371503
  0
ARC
  5
2FE
330
1F
100
AcDbEntity
  8
PROFILES_INSIDE
100
AcDbCircle
 10
3.5278019259
 20
2.3721208838
 30
0.0
 40
0.2035433070866183
100
AcDbArc
 50
207.6004745238
 51
34.8879007739
  0
ARC
  5
2FF
330
1F
100
AcDbEntity
  8
PROFILES_INSIDE
100
AcDbCircle
 10
3.7270571395
 20
2.5110607012
 30
0.0
 40
0.0393700787401584
100
AcDbArc
 50
190.0
 51
214.8879007739
  0
ARC
  5
300
330
1F
100
AcDbEntity
  8
PROFILES_INSIDE
100
AcDbCircle
 10
3.6418376885
 20
2.9943703063
 30
0.0
 40
0.039371134843281
100
AcDbArc
 50
165.11217169
 51
190.0
  0
ARC
  5
301
330
1F
100
AcDbEntity
  8
PROFILES_INSIDE
100
AcDbCircle
 10
3.4070777188
 20
3.0567817052
 30
0.0
 40
0.2035433070866121
100
AcDbArc
 50
345.11217169
 51
172.399540952
  0
ARC
  5
302
330
1F
100
AcDbEntity
  8
PROFILES_INSIDE
100
AcDbCircle
 10
3.1662984532
 20
3.0889104818
 30
0.0
 40
0.0393700787401609
100
AcDbArc
 50
280.0000371503
 51
352.399540952
  0
ARC
  5
303
330
1F
100
AcDbEntity
  8
PROFILES_INSIDE
100
AcDbCircle
 10
3.0095187549
 20
3.0612658862
 30
0.0
 40
0.0393700823018057
100
AcDbArc
 50
207.6004745238
 51
280.0000371503
  0
ARC
  5
304
330
1F
100
AcDbEntity
  8
PROFILES_INSIDE
100
AcDbCircle
 10
2.794248975
 20
2.9487232948
 30
0.0
 40
0.2035433035249676
100
AcDbArc
 50
27.6004745238
 51
214.8878509098
  0
ARC
  5
305
330
1F
100
AcDbEntity
  8
PROFILES_INSIDE
100
AcDbCircle
 10
2.5949937209
 20
2.8097837069
 30
0.0
 40
0.0393700376495643
100
AcDbArc
 50
10.0
 51
34.8878509098
  0
ARC
  5
306
330
1F
100
AcDbEntity
  8
PROFILES_INSIDE
100
AcDbCircle
 10
31.5538530057
 20
14.9868498672
 30
0.0
 40
0.0393700787401591
100
AcDbArc
 50
260.0000371503
 51
332.399540952
  0
ARC
  5
307
330
1F
100
AcDbEntity
  8
PROFILES_INSIDE
100
AcDbCircle
 10
31.769122816
 20
14.874307334
 30
0.0
 40
0.2035433070866154
100
AcDbArc
 50
325.11217169
 51
152.399540952
  0
ARC
  5
308
330
1F
100
AcDbEntity
  8
PROFILES_INSIDE
100
AcDbCircle
 10
31.9683790717
 20
14.7353671645
 30
0.0
 40
0.039371134843283
100
AcDbArc
 50
145.11217169
 51
170.0
  0
ARC
  5
309
330
1F
100
AcDbEntity
  8
PROFILES_INSIDE
100
AcDbCircle
 10
31.8831575405
 20
14.2520579262
 30
0.0
 40
0.0393700787401561
100
AcDbArc
 50
170.0
 51
194.8879007739
  0
ARC
  5
30A
330
1F
100
AcDbEntity
  8
PROFILES_INSIDE
100
AcDbCircle
 10
31.6483986704
 20
14.1896465018
 30
0.0
 40
0.2035433070866164
100
AcDbArc
 50
187.6004745238
 51
14.8879007739
  0
ARC
  5
30B
330
1F
100
AcDbEntity
  8
PROFILES_INSIDE
100
AcDbCircle
 10
31.4076194135
 20
14.1575176601
 30
0.0
 40
0.0393700787401598
100
AcDbArc
 50
7.6004745238
 51
80.0000371503
  0
ARC
  5
30C
330
1F
100
AcDbEntity
  8
PROFILES_INSIDE
100
AcDbCircle
 10
31.2508396793
 20
14.1851620524
 30
0.0
 40
0.0393700787401605
100
AcDbArc
 50
80.0000371503
 51
152.399540952
  0
ARC
  5
30D
330
1F
100
AcDbEntity
  8
PROFILES_INSIDE
100
AcDbCircle
 10
31.035569869
 20
14.2977045857
 30
0.0
 40
0.2035433070866154
100
AcDbArc
 50
145.1121167212
 51
332.399540952
  0
ARC
  5
30E
330
1F
100
AcDbEntity
  8
PROFILES_INSIDE
100
AcDbCircle
 10
30.836314613
 20
14.4366443422
 30
0.0
 40
0.0393700787401553
100
AcDbArc
 50
325.1121167212
 51
350.0
  0
ARC
  5
30F
330
1F
100
AcDbEntity
  8
PROFILES_INSIDE
100
AcDbCircle
 10
30.921535185
 20
14.919954223
 30
0.0
 40
0.0393700376495656
100
AcDbArc
 50
350.0
 51
14.8878509098
  0
ARC
  5
310
330
1F
100
AcDbEntity
  8
PROFILES_INSIDE
100
AcDbCircle
 10
31.1562940147
 20
14.9823654179
 30
0.0
 40
0.2035432679084945
100
AcDbArc
 50
7.6004745238
 51
194.8878509098
  0
ARC
  5
311
330
1F
100
AcDbEntity
  8
PROFILES_INSIDE
100
AcDbCircle
 10
31.3970732716
 20
15.0144942596
 30
0.0
 40
0.0393701179182783
100
AcDbArc
 50
187.6004745237
 51
260.0000371503
  0
ARC
  5
312
330
1F
100
AcDbEntity
  8
PROFILES_INSIDE
100
AcDbCircle
 10
20.2889638174
 20
16.7947631927
 30
0.0
 40
0.0393711348432817
100
AcDbArc
 50
145.11217169
 51
170.0
  0
ARC
  5
313
330
1F
100
AcDbEntity
  8
PROFILES_INSIDE
100
AcDbCircle
 10
20.0897075618
 20
16.9337033622
 30
0.0
 40
0.203543307086616
100
AcDbArc
 50
325.11217169
 51
152.399540952
  0
ARC
  5
314
330
1F
100
AcDbEntity
  8
PROFILES_INSIDE
100
AcDbCircle
 10
19.8744377515
 20
17.0462458954
 30
0.0
 40
0.0393700787401589
100
AcDbArc
 50
260.0000371503
 51
332.399540952
  0
ARC
  5
315
330
1F
100
AcDbEntity
  8
PROFILES_INSIDE
100
AcDbCircle
 10
19.7176580174
 20
17.0738902878
 30
0.0
 40
0.0393701001100445
100
AcDbArc
 50
187.6004745238
 51
260.0000371503
  0
ARC
  5
316
330
1F
100
AcDbEntity
  8
PROFILES_INSIDE
100
AcDbCircle
 10
19.4768787605
 20
17.0417614461
 30
0.0
 40
0.2035432857167283
100
AcDbArc
 50
7.6004745238
 51
194.8878509098
  0
ARC
  5
317
330
1F
100
AcDbEntity
  8
PROFILES_INSIDE
100
AcDbCircle
 10
19.2421199308
 20
16.9793502512
 30
0.0
 40
0.039370034087912
100
AcDbArc
 50
350.0
 51
14.8878509098
  0
ARC
  5
318
330
1F
100
AcDbEntity
  8
PROFILES_INSIDE
100
AcDbCircle
 10
19.1568993588
 20
16.4960403705
 30
0.0
 40
0.0393700787401567
100
AcDbArc
 50
325.1121167212
 51
350.0
  0
ARC
  5
319
330
1F
100
AcDbEntity
  8
PROFILES_INSIDE
100
AcDbCircle
 10
19.3561546148
 20
16.3571006139
 30
0.0
 40
0.2035433070866177
100
AcDbArc
 50
145.1121167212
 51
332.399540952
  0
ARC
  5
31A
330
1F
100
AcDbEntity
  8
PROFILES_INSIDE
100
AcDbCircle
 10
19.5714244251
 20
16.2445580806
 30
0.0
 40
0.0393700787401591
100
AcDbArc
 50
80.0000371503
 51
152.399540952
  0
ARC
  5
31B
330
1F
100
AcDbEntity
  8
PROFILES_INSIDE
100
AcDbCircle
 10
19.7282041593
 20
16.2169136883
 30
0.0
 40
0.0393700787401596
100
AcDbArc
 50
7.6004745238
 51
80.0000371503
  0
ARC
  5
31C
330
1F
100
AcDbEntity
  8
PROFILES_INSIDE
100
AcDbCircle
 10
19.9689834162
 20
16.24904253
 30
0.0
 40
0.2035433070866173
100
AcDbArc
 50
187.6004745238
 51
14.8879007739
  0
ARC
  5
31D
330
1F
100
AcDbEntity
  8
PROFILES_INSIDE
100
AcDbCircle
 10
20.2037422863
 20
16.3114539544
 30
0.0
 40
0.0393700787401631
100
AcDbArc
 50
170.0
 51
194.8879007739
  0
ARC
  5
31E
330
1F
100
AcDbEntity
  8
PROFILES_INSIDE
100
AcDbCircle
 10
31.769122818
 20
4.432505476
 30
0.0
 40
0.2035433070866153
100
AcDbArc
 50
207.6004745238
 51
34.8879007739
  0
ARC
  5
31F
330
1F
100
AcDbEntity
  8
PROFILES_INSIDE
100
AcDbCircle
 10
31.9683780316
 20
4.5714452934
 30
0.0
 40
0.0393700787401596
100
AcDbArc
 50
190.0
 51
214.8879007739
  0
ARC
  5
320
330
1F
100
AcDbEntity
  8
PROFILES_INSIDE
100
AcDbCircle
 10
31.8831585806
 20
5.0547548985
 30
0.0
 40
0.0393711348432817
100
AcDbArc
 50
165.11217169
 51
190.0
  0
ARC
  5
321
330
1F
100
AcDbEntity
  8
PROFILES_INSIDE
100
AcDbCircle
 10
31.6483986108
 20
5.1171662974
 30
0.0
 40
0.2035433070866179
100
AcDbArc
 50
345.11217169
 51
172.399540952
  0
ARC
  5
322
330
1F
100
AcDbEntity
  8
PROFILES_INSIDE
100
AcDbCircle
 10
31.4076193453
 20
5.1492950741
 30
0.0
 40
0.0393700787401566
100
AcDbArc
 50
280.0000371503
 51
352.399540952
  0
ARC
  5
323
330
1F
100
AcDbEntity
  8
PROFILES_INSIDE
100
AcDbCircle
 10
31.250839647
 20
5.1216504784
 30
0.0
 40
0.0393700965483957
100
AcDbArc
 50
207.6004745237
 51
280.0000371503
  0
ARC
  5
324
330
1F
100
AcDbEntity
  8
PROFILES_INSIDE
100
AcDbCircle
 10
31.0355698671
 20
5.009107887
 30
0.0
 40
0.2035432892783774
100
AcDbArc
 50
27.6004745238
 51
214.8878509098
  0
ARC
  5
325
330
1F
100
AcDbEntity
  8
PROFILES_INSIDE
100
AcDbCircle
 10
30.836314613
 20
4.8701682991
 30
0.0
 40
0.0393700305262648
100
AcDbArc
 50
10.0
 51
34.8878509098
  0
ARC
  5
326
330
1F
100
AcDbEntity
  8
PROFILES_INSIDE
100
AcDbCircle
 10
30.921535185
 20
4.3868584184
 30
0.0
 40
0.0393700787401528
100
AcDbArc
 50
345.1121167212
 51
10.0
  0
ARC
  5
327
330
1F
100
AcDbEntity
  8
PROFILES_INSIDE
100
AcDbCircle
 10
31.1562940742
 20
4.3244470656
 30
0.0
 40
0.2035433070866183
100
AcDbArc
 50
165.1121167212
 51
352.399540952
  0
ARC
  5
328
330
1F
100
AcDbEntity
  8
PROFILES_INSIDE
100
AcDbCircle
 10
31.3970733398
 20
4.292318289
 30
0.0
 40
0.0393700787401591
100
AcDbArc
 50
100.0000371503
 51
172.399540952
  0
ARC
  5
329
330
1F
100
AcDbEntity
  8
PROFILES_INSIDE
100
AcDbCircle
 10
31.5538530381
 20
4.3199628846
 30
0.0
 40
0.0393700787401587
100
AcDbArc
 50
27.6004745237
 51
100.0000371503
  0
ARC
  5
32A
330
1F
100
AcDbEntity
  8
PROFILES_INSIDE
100
AcDbCircle
 10
19.2421199308
 20
2.3274623902
 30
0.0
 40
0.0393700787401597
100
AcDbArc
 50
345.1121167212
 51
10.0
  0
ARC
  5
32B
330
1F
100
AcDbEntity
  8
PROFILES_INSIDE
100
AcDbCircle
 10
19.47687882
 20
2.2650510374
 30
0.0
 40
0.2035433070866177
100
AcDbArc
 50
165.1121167212
 51
352.399540952
  0
ARC
  5
32C
330
1F
100
AcDbEntity
  8
PROFILES_INSIDE
100
AcDbCircle
 10
19.7176580856
 20
2.2329222608
 30
0.0
 40
0.0393700787401529
100
AcDbArc
 50
100.0000371503
 51
172.399540952
  0
ARC
  5
32D
330
1F
100
AcDbEntity
  8
PROFILES_INSIDE
100
AcDbCircle
 10
19.8744377839
 20
2.2605668564
 30
0.0
 40
0.0393700787401587
100
AcDbArc
 50
27.6004745237
 51
100.0000371503
  0
ARC
  5
32E
330
1F
100
AcDbEntity
  8
PROFILES_INSIDE
100
AcDbCircle
 10
20.0897075638
 20
2.3731094478
 30
0.0
 40
0.203543307086617
100
AcDbArc
 50
207.6004745238
 51
34.8879007739
  0
ARC
  5
32F
330
1F
100
AcDbEntity
  8
PROFILES_INSIDE
100
AcDbCircle
 10
20.2889627774
 20
2.5120492652
 30
0.0
 40
0.0393700787401566
100
AcDbArc
 50
190.0
 51
214.8879007739
  0
ARC
  5
330
330
1F
100
AcDbEntity
  8
PROFILES_INSIDE
100
AcDbCircle
 10
20.2037433264
 20
2.9953588703
 30
0.0
 40
0.0393711348432816
100
AcDbArc
 50
165.11217169
 51
190.0
  0
ARC
  5
331
330
1F
100
AcDbEntity
  8
PROFILES_INSIDE
100
AcDbCircle
 10
19.9689833566
 20
3.0577702692
 30
0.0
 40
0.2035433070866148
100
AcDbArc
 50
345.11217169
 51
172.399540952
  0
ARC
  5
332
330
1F
100
AcDbEntity
  8
PROFILES_INSIDE
100
AcDbCircle
 10
19.7282040911
 20
3.0898990459
 30
0.0
 40
0.0393700787401579
100
AcDbArc
 50
280.0000371503
 51
352.399540952
  0
ARC
  5
333
330
1F
100
AcDbEntity
  8
PROFILES_INSIDE
100
AcDbCircle
 10
19.5714243927
 20
3.0622544502
 30
0.0
 40
0.0393700823018059
100
AcDbArc
 50
207.6004745238
 51
280.0000371503
  0
ARC
  5
334
330
1F
100
AcDbEntity
  8
PROFILES_INSIDE
100
AcDbCircle
 10
19.3561546129
 20
2.9497118588
 30
0.0
 40
0.2035433035249683
100
AcDbArc
 50
27.6004745238
 51
214.8878509098
  0
ARC
  5
335
330
1F
100
AcDbEntity
  8
PROFILES_INSIDE
100
AcDbCircle
 10
19.1568993588
 20
2.8107722709
 30
0.0
 40
0.0393700376495581
100
AcDbArc
 50
10.0
 51
34.8878509098
  0
ARC
  5
336
330
1F
100
AcDbEntity
  8
PROFILES_OUTSIDE
100
AcDbCircle
 10
17.8141055146
 20
17.7225612486
 30
0.0
 40
0.236220472440948
100
AcDbArc
 50
80.0
 51
180.0
  0
ARC
  5
337
330
1F
100
AcDbEntity
  8
PROFILES_OUTSIDE
100
AcDbCircle
 10
32.6585937035
 20
15.1050774661
 30
0.0
 40
0.236220472440948
100
AcDbArc
 50
0.0
 51
80.0
  0
ARC
  5
338
330
1F
100
AcDbEntity
  8
PROFILES_OUTSIDE
100
AcDbCircle
 10
32.6585937035
 20
12.3518961895
 30
0.0
 40
0.236220472440948
100
AcDbArc
 50
280.0
 51
0.0
  0
ARC
  5
339
330
1F
100
AcDbEntity
  8
PROFILES_OUTSIDE
100
AcDbCircle
 10
32.3436330736
 20
11.8166310246
 30
0.0
 40
0.236220472440948
100
AcDbArc
 50
100.0
 51
180.0
  0
ARC
  5
33A
330
1F
100
AcDbEntity
  8
PROFILES_OUTSIDE
100
AcDbCircle
 10
32.3436330736
 20
7.4901816168
 30
0.0
 40
0.236220472440948
100
AcDbArc
 50
180.0
 51
260.0
  0
ARC
  5
33B
330
1F
100
AcDbEntity
  8
PROFILES_OUTSIDE
100
AcDbCircle
 10
32.6585937035
 20
6.9549164519
 30
0.0
 40
0.236220472440948
100
AcDbArc
 50
0.0
 51
80.0
  0
ARC
  5
33C
330
1F
100
AcDbEntity
  8
PROFILES_OUTSIDE
100
AcDbCircle
 10
32.6585937035
 20
4.2017351753
 30
0.0
 40
0.236220472440948
100
AcDbArc
 50
280.0
 51
0.0
  0
ARC
  5
33D
330
1F
100
AcDbEntity
  8
PROFILES_OUTSIDE
100
AcDbCircle
 10
17.8141055146
 20
1.5842513927
 30
0.0
 40
0.2362204724409434
100
AcDbArc
 50
180.0
 51
280.0
  0
ARC
  5
33E
330
1F
100
AcDbEntity
  8
PROFILES_OUTSIDE
100
AcDbCircle
 10
71.368829924
 20
13.561079701
 30
0.0
 40
0.472440944881896
100
AcDbArc
 50
90.0
 51
180.0
  0
ARC
  5
33F
330
1F
100
AcDbEntity
  8
PROFILES_OUTSIDE
100
AcDbCircle
 10
71.368829924
 20
2.640679617
 30
0.0
 40
0.4724409448818965
100
AcDbArc
 50
180.0
 51
270.0
  0
ARC
  5
340
330
1F
100
AcDbEntity
  8
PROFILES_OUTSIDE
100
AcDbCircle
 10
76.6562314988
 20
1.4694197745
 30
0.0
 40
0.0393700787401627
100
AcDbArc
 50
270.0
 51
0.0
  0
ARC
  5
341
330
1F
100
AcDbEntity
  8
PROFILES_OUTSIDE
100
AcDbCircle
 10
62.780170314
 20
14.5650167089
 30
0.0
 40
0.0393700787401592
100
AcDbArc
 50
183.6619355755
 51
270.0
  0
ARC
  5
342
330
1F
100
AcDbEntity
  8
PROFILES_OUTSIDE
100
AcDbCircle
 10
63.370315027
 20
14.4862765514
 30
0.0
 40
0.0393700787401576
100
AcDbArc
 50
65.1121079736
 51
90.0
  0
ARC
  5
343
330
1F
100
AcDbEntity
  8
PROFILES_OUTSIDE
100
AcDbCircle
 10
63.472543698
 20
14.7066312923
 30
0.0
 40
0.2035433070866207
100
AcDbArc
 50
245.1121079736
 51
72.3995332141
  0
ARC
  5
344
330
1F
100
AcDbEntity
  8
PROFILES_OUTSIDE
100
AcDbCircle
 10
63.5459952783
 20
14.9381734664
 30
0.0
 40
0.0393700787401518
100
AcDbArc
 50
180.0
 51
252.3995332141
  0
ARC
  5
345
330
1F
100
AcDbEntity
  8
PROFILES_OUTSIDE
100
AcDbCircle
 10
68.3491448846
 20
14.5454104097
 30
0.0
 40
0.472440944881896
100
AcDbArc
 50
0.0
 51
90.0
  0
ARC
  5
346
330
1F
100
AcDbEntity
  8
PROFILES_OUTSIDE
100
AcDbCircle
 10
69.2940267744
 20
10.7214975208
 30
0.0
 40
0.472440944881896
100
AcDbArc
 50
180.0
 51
270.0
  0
ARC
  5
347
330
1F
100
AcDbEntity
  8
PROFILES_OUTSIDE
100
AcDbCircle
 10
69.9239480342
 20
10.7214975208
 30
0.0
 40
0.4724409448818907
100
AcDbArc
 50
270.0
 51
0.0
  0
ARC
  5
348
330
1F
100
AcDbEntity
  8
PROFILES_OUTSIDE
100
AcDbCircle
 10
70.868829924
 20
14.5454104097
 30
0.0
 40
0.472440944881896
100
AcDbArc
 50
90.0
 51
180.0
  0
ARC
  5
349
330
1F
100
AcDbEntity
  8
PROFILES_OUTSIDE
100
AcDbCircle
 10
75.6719795303
 20
14.9381734664
 30
0.0
 40
0.0393700787401627
100
AcDbArc
 50
287.6004667859
 51
0.0
  0
ARC
  5
34A
330
1F
100
AcDbEntity
  8
PROFILES_OUTSIDE
100
AcDbCircle
 10
75.7454311106
 20
14.7066312923
 30
0.0
 40
0.2035433070866172
100
AcDbArc
 50
107.6004667859
 51
294.8878920264
  0
ARC
  5
34B
330
1F
100
AcDbEntity
  8
PROFILES_OUTSIDE
100
AcDbCircle
 10
75.8476597816
 20
14.4862765514
 30
0.0
 40
0.0393700787401625
100
AcDbArc
 50
90.0
 51
114.8878920264
  0
ARC
  5
34C
330
1F
100
AcDbEntity
  8
PROFILES_OUTSIDE
100
AcDbCircle
 10
76.4378044946
 20
14.5650167089
 30
0.0
 40
0.039370078740159
100
AcDbArc
 50
270.0
 51
356.3380644245
  0
ARC
  5
34D
330
1F
100
AcDbEntity
  8
PROFILES_OUTSIDE
100
AcDbCircle
 10
76.4593811051
 20
14.2697411184
 30
0.0
 40
0.236220472440948
100
AcDbArc
 50
270.0
 51
0.0
  0
ARC
  5
34E
330
1F
100
AcDbEntity
  8
PROFILES_OUTSIDE
100
AcDbCircle
 10
62.5617433098
 20
1.4694197745
 30
0.0
 40
0.0393700787401627
100
AcDbArc
 50
180.0
 51
270.0
  0
ARC
  5
34F
330
1F
100
AcDbEntity
  8
PROFILES_OUTSIDE
100
AcDbCircle
 10
70.3963889791
 20
10.2490565759
 30
0.0
 40
0.500000000000001
100
AcDbArc
 50
300.0
 51
0.0
  0
ARC
  5
350
330
1F
100
AcDbEntity
  8
PROFILES_OUTSIDE
100
AcDbCircle
 10
70.8963889791
 20
9.3830311721
 30
0.0
 40
0.5
100
AcDbArc
 50
120.0
 51
180.0
  0
ARC
  5
351
330
1F
100
AcDbEntity
  8
PROFILES_OUTSIDE
100
AcDbCircle
 10
70.8963889791
 20
6.8187281459
 30
0.0
 40
0.5
100
AcDbArc
 50
180.0
 51
240.0
  0
ARC
  5
352
330
1F
100
AcDbEntity
  8
PROFILES_OUTSIDE
100
AcDbCircle
 10
70.3963889791
 20
5.9527027422
 30
0.0
 40
0.5
100
AcDbArc
 50
0.0
 51
60.0
  0
ARC
  5
353
330
1F
100
AcDbEntity
  8
PROFILES_OUTSIDE
100
AcDbCircle
 10
76.4593811051
 20
1.9320181997
 30
0.0
 40
0.2362204724409449
100
AcDbArc
 50
0.0
 51
90.0
  0
ARC
  5
354
330
1F
100
AcDbEntity
  8
PROFILES_OUTSIDE
100
AcDbCircle
 10
67.8491448846
 20
2.640679617
 30
0.0
 40
0.4724409448818898
100
AcDbArc
 50
270.0
 51
0.0
  0
ARC
  5
355
330
1F
100
AcDbEntity
  8
PROFILES_OUTSIDE
100
AcDbCircle
 10
76.4378044946
 20
1.6367426092
 30
0.0
 40
0.039370078740159
100
AcDbArc
 50
3.6619355755
 51
90.0
  0
ARC
  5
356
330
1F
100
AcDbEntity
  8
PROFILES_OUTSIDE
100
AcDbCircle
 10
75.8476597816
 20
1.7154827666
 30
0.0
 40
0.039370078740161
100
AcDbArc
 50
245.1121079736
 51
270.0
  0
ARC
  5
357
330
1F
100
AcDbEntity
  8
PROFILES_OUTSIDE
100
AcDbCircle
 10
75.7454311106
 20
1.4951280257
 30
0.0
 40
0.2035433070866162
100
AcDbArc
 50
65.1121079736
 51
252.3995332141
  0
ARC
  5
358
330
1F
100
AcDbEntity
  8
PROFILES_OUTSIDE
100
AcDbCircle
 10
75.6719795303
 20
1.2635858517
 30
0.0
 40
0.0393700787401627
100
AcDbArc
 50
0.0
 51
72.3995332141
  0
ARC
  5
359
330
1F
100
AcDbEntity
  8
PROFILES_OUTSIDE
100
AcDbCircle
 10
70.868829924
 20
1.6563489084
 30
0.0
 40
0.472440944881896
100
AcDbArc
 50
180.0
 51
270.0
  0
ARC
  5
35A
330
1F
100
AcDbEntity
  8
PROFILES_OUTSIDE
100
AcDbCircle
 10
69.9239480342
 20
5.4802617973
 30
0.0
 40
0.472440944881888
100
AcDbArc
 50
0.0
 51
90.0
  0
ARC
  5
35B
330
1F
100
AcDbEntity
  8
PROFILES_OUTSIDE
100
AcDbCircle
 10
69.2940267744
 20
5.4802617973
 30
0.0
 40
0.472440944881896
100
AcDbArc
 50
90.0
 51
180.0
  0
ARC
  5
35C
330
1F
100
AcDbEntity
  8
PROFILES_OUTSIDE
100
AcDbCircle
 10
68.3491448846
 20
1.6563489084
 30
0.0
 40
0.472440944881896
100
AcDbArc
 50
270.0
 51
0.0
  0
ARC
  5
35D
330
1F
100
AcDbEntity
  8
PROFILES_OUTSIDE
100
AcDbCircle
 10
63.5459952783
 20
1.2635858517
 30
0.0
 40
0.0393700787401562
100
AcDbArc
 50
107.6004667859
 51
180.0
  0
ARC
  5
35E
330
1F
100
AcDbEntity
  8
PROFILES_OUTSIDE
100
AcDbCircle
 10
63.472543698
 20
1.4951280257
 30
0.0
 40
0.2035433070866144
100
AcDbArc
 50
287.6004667859
 51
114.8878920264
  0
ARC
  5
35F
330
1F
100
AcDbEntity
  8
PROFILES_OUTSIDE
100
AcDbCircle
 10
63.370315027
 20
1.7154827666
 30
0.0
 40
0.0393700787401621
100
AcDbArc
 50
270.0
 51
294.8878920264
  0
ARC
  5
360
330
1F
100
AcDbEntity
  8
PROFILES_OUTSIDE
100
AcDbCircle
 10
62.780170314
 20
1.6367426092
 30
0.0
 40
0.039370078740159
100
AcDbArc
 50
90.0
 51
176.3380644245
  0
ARC
  5
361
330
1F
100
AcDbEntity
  8
PROFILES_OUTSIDE
100
AcDbCircle
 10
62.7585937035
 20
1.9320181997
 30
0.0
 40
0.236220472440948
100
AcDbArc
 50
90.0
 51
180.0
  0
ARC
  5
362
330
1F
100
AcDbEntity
  8
PROFILES_OUTSIDE
100
AcDbCircle
 10
67.8491448846
 20
13.561079701
 30
0.0
 40
0.472440944881896
100
AcDbArc
 50
0.0
 51
90.0
  0
ARC
  5
363
330
1F
100
AcDbEntity
  8
PROFILES_OUTSIDE
100
AcDbCircle
 10
68.8215858295
 20
5.9527027422
 30
0.0
 40
0.5
100
AcDbArc
 50
120.0
 51
180.0
  0
ARC
  5
364
330
1F
100
AcDbEntity
  8
PROFILES_OUTSIDE
100
AcDbCircle
 10
68.3215858295
 20
6.8187281459
 30
0.0
 40
0.5
100
AcDbArc
 50
300.0
 51
0.0
  0
ARC
  5
365
330
1F
100
AcDbEntity
  8
PROFILES_OUTSIDE
100
AcDbCircle
 10
68.3215858295
 20
9.3830311721
 30
0.0
 40
0.5
100
AcDbArc
 50
0.0
 51
60.0
  0
ARC
  5
366
330
1F
100
AcDbEntity
  8
PROFILES_OUTSIDE
100
AcDbCircle
 10
68.8215858295
 20
10.2490565759
 30
0.0
 40
0.5
100
AcDbArc
 50
180.0
 51
240.0
  0
ARC
  5
367
330
1F
100
AcDbEntity
  8
PROFILES_OUTSIDE
100
AcDbCircle
 10
62.7585937035
 20
14.2697411184
 30
0.0
 40
0.236220472440948
100
AcDbArc
 50
180.0
 51
270.0
  0
ARC
  5
368
330
1F
100
AcDbEntity
  8
PROFILES_OUTSIDE
100
AcDbCircle
 10
62.5617433098
 20
14.7323395436
 30
0.0
 40
0.0393700787401627
100
AcDbArc
 50
90.0
 51
180.0
  0
ARC
  5
369
330
1F
100
AcDbEntity
  8
PROFILES_OUTSIDE
100
AcDbCircle
 10
62.5617433098
 20
16.542575764
 30
0.0
 40
0.0393700787401627
100
AcDbArc
 50
180.0
 51
270.0
  0
ARC
  5
36A
330
1F
100
AcDbEntity
  8
PROFILES_OUTSIDE
100
AcDbCircle
 10
67.8491448846
 20
17.7138356066
 30
0.0
 40
0.472440944881896
100
AcDbArc
 50
270.0
 51
0.0
  0
ARC
  5
36B
330
1F
100
AcDbEntity
  8
PROFILES_OUTSIDE
100
AcDbCircle
 10
67.8491448846
 20
28.6342356906
 30
0.0
 40
0.472440944881896
100
AcDbArc
 50
0.0
 51
90.0
  0
ARC
  5
36C
330
1F
100
AcDbEntity
  8
PROFILES_OUTSIDE
100
AcDbCircle
 10
62.5617433098
 20
29.8054955331
 30
0.0
 40
0.0393700787401627
100
AcDbArc
 50
90.0
 51
180.0
  0
ARC
  5
36D
330
1F
100
AcDbEntity
  8
PROFILES_OUTSIDE
100
AcDbCircle
 10
76.4378044946
 20
16.7098985987
 30
0.0
 40
0.039370078740159
100
AcDbArc
 50
3.6619355755
 51
90.0
  0
ARC
  5
36E
330
1F
100
AcDbEntity
  8
PROFILES_OUTSIDE
100
AcDbCircle
 10
75.8476597816
 20
16.7886387562
 30
0.0
 40
0.0393700787401544
100
AcDbArc
 50
245.1121079736
 51
270.0
  0
ARC
  5
36F
330
1F
100
AcDbEntity
  8
PROFILES_OUTSIDE
100
AcDbCircle
 10
75.7454311106
 20
16.5682840153
 30
0.0
 40
0.2035433070866204
100
AcDbArc
 50
65.1121079736
 51
252.3995332141
  0
ARC
  5
370
330
1F
100
AcDbEntity
  8
PROFILES_OUTSIDE
100
AcDbCircle
 10
75.6719795303
 20
16.3367418412
 30
0.0
 40
0.0393700787401501
100
AcDbArc
 50
0.0
 51
72.3995332141
  0
ARC
  5
371
330
1F
100
AcDbEntity
  8
PROFILES_OUTSIDE
100
AcDbCircle
 10
70.868829924
 20
16.7295048979
 30
0.0
 40
0.4724409448818889
100
AcDbArc
 50
180.0
 51
270.0
  0
ARC
  5
372
330
1F
100
AcDbEntity
  8
PROFILES_OUTSIDE
100
AcDbCircle
 10
69.9239480342
 20
20.5534177868
 30
0.0
 40
0.472440944881896
100
AcDbArc
 50
0.0
 51
90.0
  0
ARC
  5
373
330
1F
100
AcDbEntity
  8
PROFILES_OUTSIDE
100
AcDbCircle
 10
69.2940267744
 20
20.5534177868
 30
0.0
 40
0.472440944881896
100
AcDbArc
 50
90.0
 51
180.0
  0
ARC
  5
374
330
1F
100
AcDbEntity
  8
PROFILES_OUTSIDE
100
AcDbCircle
 10
68.3491448846
 20
16.7295048979
 30
0.0
 40
0.4724409448818889
100
AcDbArc
 50
270.0
 51
0.0
  0
ARC
  5
375
330
1F
100
AcDbEntity
  8
PROFILES_OUTSIDE
100
AcDbCircle
 10
63.5459952783
 20
16.3367418412
 30
0.0
 40
0.0393700787401627
100
AcDbArc
 50
107.6004667859
 51
180.0
  0
ARC
  5
376
330
1F
100
AcDbEntity
  8
PROFILES_OUTSIDE
100
AcDbCircle
 10
63.472543698
 20
16.5682840153
 30
0.0
 40
0.2035433070866144
100
AcDbArc
 50
287.6004667859
 51
114.8878920264
  0
ARC
  5
377
330
1F
100
AcDbEntity
  8
PROFILES_OUTSIDE
100
AcDbCircle
 10
63.370315027
 20
16.7886387562
 30
0.0
 40
0.0393700787401592
100
AcDbArc
 50
270.0
 51
294.8878920264
  0
ARC
  5
378
330
1F
100
AcDbEntity
  8
PROFILES_OUTSIDE
100
AcDbCircle
 10
62.780170314
 20
16.7098985987
 30
0.0
 40
0.0393700787401556
100
AcDbArc
 50
90.0
 51
176.3380644245
  0
ARC
  5
379
330
1F
100
AcDbEntity
  8
PROFILES_OUTSIDE
100
AcDbCircle
 10
62.7585937035
 20
17.0051741892
 30
0.0
 40
0.2362204724409551
100
AcDbArc
 50
90.0
 51
180.0
  0
ARC
  5
37A
330
1F
100
AcDbEntity
  8
PROFILES_OUTSIDE
100
AcDbCircle
 10
76.6562314988
 20
29.8054955331
 30
0.0
 40
0.0393700787401627
100
AcDbArc
 50
0.0
 51
90.0
  0
ARC
  5
37B
330
1F
100
AcDbEntity
  8
PROFILES_OUTSIDE
100
AcDbCircle
 10
68.8215858295
 20
21.0258587317
 30
0.0
 40
0.5
100
AcDbArc
 50
120.0
 51
180.0
  0
ARC
  5
37C
330
1F
100
AcDbEntity
  8
PROFILES_OUTSIDE
100
AcDbCircle
 10
68.3215858295
 20
21.8918841355
 30
0.0
 40
0.4999999999999979
100
AcDbArc
 50
300.0
 51
0.0
  0
ARC
  5
37D
330
1F
100
AcDbEntity
  8
PROFILES_OUTSIDE
100
AcDbCircle
 10
68.3215858295
 20
24.4561871617
 30
0.0
 40
0.4999999999999939
100
AcDbArc
 50
0.0
 51
60.0
  0
ARC
  5
37E
330
1F
100
AcDbEntity
  8
PROFILES_OUTSIDE
100
AcDbCircle
 10
68.8215858295
 20
25.3222125655
 30
0.0
 40
0.4999999999999979
100
AcDbArc
 50
180.0
 51
240.0
  0
ARC
  5
37F
330
1F
100
AcDbEntity
  8
PROFILES_OUTSIDE
100
AcDbCircle
 10
62.7585937035
 20
29.3428971079
 30
0.0
 40
0.2362204724409551
100
AcDbArc
 50
180.0
 51
270.0
  0
ARC
  5
380
330
1F
100
AcDbEntity
  8
PROFILES_OUTSIDE
100
AcDbCircle
 10
71.368829924
 20
28.6342356906
 30
0.0
 40
0.472440944881896
100
AcDbArc
 50
90.0
 51
180.0
  0
ARC
  5
381
330
1F
100
AcDbEntity
  8
PROFILES_OUTSIDE
100
AcDbCircle
 10
62.780170314
 20
29.6381726984
 30
0.0
 40
0.0393700787401592
100
AcDbArc
 50
183.6619355755
 51
270.0
  0
ARC
  5
382
330
1F
100
AcDbEntity
  8
PROFILES_OUTSIDE
100
AcDbCircle
 10
63.370315027
 20
29.559432541
 30
0.0
 40
0.0393700787401609
100
AcDbArc
 50
65.1121079736
 51
90.0
  0
ARC
  5
383
330
1F
100
AcDbEntity
  8
PROFILES_OUTSIDE
100
AcDbCircle
 10
63.472543698
 20
29.7797872819
 30
0.0
 40
0.2035433070866207
100
AcDbArc
 50
245.1121079736
 51
72.3995332141
  0
ARC
  5
384
330
1F
100
AcDbEntity
  8
PROFILES_OUTSIDE
100
AcDbCircle
 10
63.5459952783
 20
30.0113294559
 30
0.0
 40
0.0393700787401627
100
AcDbArc
 50
180.0
 51
252.3995332141
  0
ARC
  5
385
330
1F
100
AcDbEntity
  8
PROFILES_OUTSIDE
100
AcDbCircle
 10
68.3491448846
 20
29.6185663992
 30
0.0
 40
0.4724409448818854
100
AcDbArc
 50
0.0
 51
90.0
  0
ARC
  5
386
330
1F
100
AcDbEntity
  8
PROFILES_OUTSIDE
100
AcDbCircle
 10
69.2940267744
 20
25.7946535103
 30
0.0
 40
0.472440944881896
100
AcDbArc
 50
180.0
 51
270.0
  0
ARC
  5
387
330
1F
100
AcDbEntity
  8
PROFILES_OUTSIDE
100
AcDbCircle
 10
69.9239480342
 20
25.7946535103
 30
0.0
 40
0.472440944881896
100
AcDbArc
 50
270.0
 51
0.0
  0
ARC
  5
388
330
1F
100
AcDbEntity
  8
PROFILES_OUTSIDE
100
AcDbCircle
 10
70.868829924
 20
29.6185663992
 30
0.0
 40
0.4724409448818889
100
AcDbArc
 50
90.0
 51
180.0
  0
ARC
  5
389
330
1F
100
AcDbEntity
  8
PROFILES_OUTSIDE
100
AcDbCircle
 10
75.6719795303
 20
30.0113294559
 30
0.0
 40
0.0393700787401627
100
AcDbArc
 50
287.6004667859
 51
0.0
  0
ARC
  5
38A
330
1F
100
AcDbEntity
  8
PROFILES_OUTSIDE
100
AcDbCircle
 10
75.7454311106
 20
29.7797872819
 30
0.0
 40
0.203543307086613
100
AcDbArc
 50
107.6004667859
 51
294.8878920264
  0
ARC
  5
38B
330
1F
100
AcDbEntity
  8
PROFILES_OUTSIDE
100
AcDbCircle
 10
75.8476597816
 20
29.559432541
 30
0.0
 40
0.0393700787401576
100
AcDbArc
 50
90.0
 51
114.8878920264
  0
ARC
  5
38C
330
1F
100
AcDbEntity
  8
PROFILES_OUTSIDE
100
AcDbCircle
 10
76.4378044946
 20
29.6381726984
 30
0.0
 40
0.0393700787401592
100
AcDbArc
 50
270.0
 51
356.3380644245
  0
ARC
  5
38D
330
1F
100
AcDbEntity
  8
PROFILES_OUTSIDE
100
AcDbCircle
 10
76.4593811051
 20
29.3428971079
 30
0.0
 40
0.236220472440948
100
AcDbArc
 50
270.0
 51
0.0
  0
ARC
  5
38E
330
1F
100
AcDbEntity
  8
PROFILES_OUTSIDE
100
AcDbCircle
 10
71.368829924
 20
17.7138356066
 30
0.0
 40
0.4724409448818818
100
AcDbArc
 50
180.0
 51
270.0
  0
ARC
  5
38F
330
1F
100
AcDbEntity
  8
PROFILES_OUTSIDE
100
AcDbCircle
 10
70.3963889791
 20
25.3222125655
 30
0.0
 40
0.4999999999999979
100
AcDbArc
 50
300.0
 51
0.0
  0
ARC
  5
390
330
1F
100
AcDbEntity
  8
PROFILES_OUTSIDE
100
AcDbCircle
 10
70.8963889791
 20
24.4561871617
 30
0.0
 40
0.4999999999999939
100
AcDbArc
 50
120.0
 51
180.0
  0
ARC
  5
391
330
1F
100
AcDbEntity
  8
PROFILES_OUTSIDE
100
AcDbCircle
 10
70.8963889791
 20
21.8918841355
 30
0.0
 40
0.4999999999999908
100
AcDbArc
 50
180.0
 51
240.0
  0
ARC
  5
392
330
1F
100
AcDbEntity
  8
PROFILES_OUTSIDE
100
AcDbCircle
 10
70.3963889791
 20
21.0258587317
 30
0.0
 40
0.4999999999999979
100
AcDbArc
 50
0.0
 51
60.0
  0
ARC
  5
393
330
1F
100
AcDbEntity
  8
PROFILES_OUTSIDE
100
AcDbCircle
 10
76.4593811051
 20
17.0051741892
 30
0.0
 40
0.236220472440948
100
AcDbArc
 50
0.0
 51
90.0
  0
ARC
  5
394
330
1F
100
AcDbEntity
  8
PROFILES_OUTSIDE
100
AcDbCircle
 10
76.6562314988
 20
16.542575764
 30
0.0
 40
0.0393700787401592
100
AcDbArc
 50
270.0
 51
0.0
  0
ENDSEC
  0
SECTION
  2
OBJECTS
  0
DICTIONARY
  5
C
330
0
100
AcDbDictionary
  3
ACAD_GROUP
350
D
  3
ACAD_MLINESTYLE
350
17
  3
ACAD_SCALELIST
350
47
  0
DICTIONARY
  5
D
102
{ACAD_REACTORS
330
C
102
}
330
C
100
AcDbDictionary
  0
DICTIONARY
  5
17
102
{ACAD_REACTORS
330
C
102
}
330
C
100
AcDbDictionary
  3
STANDARD
350
18
  0
DICTIONARY
  5
47
102
{ACAD_REACTORS
330
C
102
}
330
C
100
AcDbDictionary
  0
MLINESTYLE
  5
18
102
{ACAD_REACTORS
330
17
102
}
330
17
100
AcDbMlineStyle
  2
Standard
 70
     0
  3

 62
   256
 51
90.0
 52
90.0
 71
     2
 49
0.5
 62
   256
  6
BYLAYER
 49
-0.5
 62
   256
  6
BYLAYER
  0
ENDSEC
  0
EOF
