  0
SECTION
  2
HEADER
  9
$ACADVER
  1
AC1014
  9
$ACADMAINTVER
 70
     9
  9
$DWGCODEPAGE
  3
ANSI_1252
  9
$INSBASE
 10
0.0
 20
0.0
 30
0.0
  9
$EXTMIN
 10
0.0
 20
0.0
 30
0.0
  9
$EXTMAX
 10
2440.0
 20
1220.0
 30
0.0
  9
$LIMMIN
 10
0.0
 20
0.0
  9
$LIMMAX
 10
2440.0
 20
1220.0
  9
$ORTHOMODE
 70
     0
  9
$REGENMODE
 70
     1
  9
$FILLMODE
 70
     1
  9
$QTEXTMODE
 70
     0
  9
$MIRRTEXT
 70
     1
  9
$DRAGMODE
 70
     2
  9
$LTSCALE
 40
1.0
  9
$OSMODE
 70
    37
  9
$ATTMODE
 70
     1
  9
$TEXTSIZE
 40
3.5
  9
$TRACEWID
 40
1.0
  9
$TEXTSTYLE
  7
STANDARD
  9
$CLAYER
  8
0
  9
$CELTYPE
  6
BYLAYER
  9
$CECOLOR
 62
   256
  9
$CELTSCALE
 40
1.0
  9
$DELOBJ
 70
     1
  9
$DISPSILH
 70
     0
  9
$DIMSCALE
 40
1.0
  9
$DIMASZ
 40
3.302
  9
$DIMEXO
 40
1.0
  9
$DIMDLI
 40
3.75
  9
$DIMRND
 40
0.0
  9
$DIMDLE
 40
0.0
  9
$DIMEXE
 40
1.0
  9
$DIMTP
 40
0.0
  9
$DIMTM
 40
0.0
  9
$DIMTXT
 40
4.5861111111
  9
$DIMCEN
 40
2.5
  9
$DIMTSZ
 40
0.0
  9
$DIMTOL
 70
     0
  9
$DIMLIM
 70
     0
  9
$DIMTIH
 70
     1
  9
$DIMTOH
 70
     1
  9
$DIMSE1
 70
     0
  9
$DIMSE2
 70
     0
  9
$DIMTAD
 70
     1
  9
$DIMZIN
 70
     0
  9
$DIMBLK
  1

  9
$DIMASO
 70
     1
  9
$DIMSHO
 70
     1
  9
$DIMPOST
  1

  9
$DIMAPOST
  1

  9
$DIMALT
 70
     0
  9
$DIMALTD
 70
     3
  9
$DIMALTF
 40
0.0393700787
  9
$DIMLFAC
 40
1.0
  9
$DIMTOFL
 70
     1
  9
$DIMTVP
 40
0.0
  9
$DIMTIX
 70
     0
  9
$DIMSOXD
 70
     0
  9
$DIMSAH
 70
     0
  9
$DIMBLK1
  1

  9
$DIMBLK2
  1

  9
$DIMSTYLE
  2
ISO-25
  9
$DIMCLRD
 70
     0
  9
$DIMCLRE
 70
     0
  9
$DIMCLRT
 70
     0
  9
$DIMTFAC
 40
1.0
  9
$DIMGAP
 40
1.524
  9
$DIMJUST
 70
     0
  9
$DIMSD1
 70
     0
  9
$DIMSD2
 70
     0
  9
$DIMTOLJ
 70
     0
  9
$DIMTZIN
 70
     0
  9
$DIMALTZ
 70
     0
  9
$DIMALTTZ
 70
     0
  9
$DIMFIT
 70
     3
  9
$DIMUPT
 70
     0
  9
$DIMUNIT
 70
     2
  9
$DIMDEC
 70
     2
  9
$DIMTDEC
 70
     2
  9
$DIMALTU
 70
     2
  9
$DIMALTTD
 70
     3
  9
$DIMTXSTY
  7
STANDARD
  9
$DIMAUNIT
 70
     0
  9
$LUNITS
 70
     2
  9
$LUPREC
 70
     2
  9
$SKETCHINC
 40
1.0
  9
$FILLETRAD
 40
10.0
  9
$AUNITS
 70
     0
  9
$AUPREC
 70
     2
  9
$MENU
  1
.
  9
$ELEVATION
 40
0.0
  9
$PELEVATION
 40
0.0
  9
$THICKNESS
 40
0.0
  9
$LIMCHECK
 70
     0
  9
$CHAMFERA
 40
0.0
  9
$CHAMFERB
 40
0.0
  9
$CHAMFERC
 40
0.0
  9
$CHAMFERD
 40
0.0
  9
$SKPOLY
 70
     0
  9
$TDCREATE
 40
2457718.749147465
  9
$TDUPDATE
 40
2457718.749147824
  9
$TDINDWG
 40
0.0000000116
  9
$TDUSRTIMER
 40
0.0000000116
  9
$USRTIMER
 70
     1
  9
$ANGBASE
 50
0.0
  9
$ANGDIR
 70
     0
  9
$PDMODE
 70
     0
  9
$PDSIZE
 40
-1.0
  9
$PLINEWID
 40
0.0
  9
$COORDS
 70
     1
  9
$SPLFRAME
 70
     0
  9
$SPLINETYPE
 70
     6
  9
$SPLINESEGS
 70
     8
  9
$ATTDIA
 70
     0
  9
$ATTREQ
 70
     1
  9
$HANDLING
 70
     1
  9
$HANDSEED
  5
395
  9
$SURFTAB1
 70
     6
  9
$SURFTAB2
 70
     6
  9
$SURFTYPE
 70
     6
  9
$SURFU
 70
     6
  9
$SURFV
 70
     6
  9
$UCSNAME
  2

  9
$UCSORG
 10
0.0
 20
0.0
 30
0.0
  9
$UCSXDIR
 10
1.0
 20
0.0
 30
0.0
  9
$UCSYDIR
 10
0.0
 20
1.0
 30
0.0
  9
$PUCSNAME
  2

  9
$PUCSORG
 10
0.0
 20
0.0
 30
0.0
  9
$PUCSXDIR
 10
1.0
 20
0.0
 30
0.0
  9
$PUCSYDIR
 10
0.0
 20
1.0
 30
0.0
  9
$USERI1
 70
     0
  9
$USERI2
 70
     0
  9
$USERI3
 70
     0
  9
$USERI4
 70
     0
  9
$USERI5
 70
     0
  9
$USERR1
 40
0.0
  9
$USERR2
 40
0.0
  9
$USERR3
 40
0.0
  9
$USERR4
 40
0.0
  9
$USERR5
 40
0.0
  9
$WORLDVIEW
 70
     1
  9
$SHADEDGE
 70
     3
  9
$SHADEDIF
 70
    70
  9
$TILEMODE
 70
     1
  9
$MAXACTVP
 70
    64
  9
$PINSBASE
 10
0.0
 20
0.0
 30
0.0
  9
$PLIMCHECK
 70
     0
  9
$PEXTMIN
 10
1.0000000000E+20
 20
1.0000000000E+20
 30
1.0000000000E+20
  9
$PEXTMAX
 10
-1.0000000000E+20
 20
-1.0000000000E+20
 30
-1.0000000000E+20
  9
$PLIMMIN
 10
0.0
 20
0.0
  9
$PLIMMAX
 10
420.0
 20
297.0
  9
$UNITMODE
 70
     0
  9
$VISRETAIN
 70
     1
  9
$PLINEGEN
 70
     0
  9
$PSLTSCALE
 70
     1
  9
$TREEDEPTH
 70
  3020
  9
$PICKSTYLE
 70
     1
  9
$CMLSTYLE
  2
STANDARD
  9
$CMLJUST
 70
     0
  9
$CMLSCALE
 40
20.0
  9
$PROXYGRAPHICS
 70
     1
  9
$MEASUREMENT
 70
     1
  0
ENDSEC
  0
SECTION
  2
CLASSES
  0
CLASS
  1
ACDBDICTIONARYWDFLT
  2
AcDbDictionaryWithDefault
  3
ObjectDBX Classes
 90
        0
280
     0
281
     0
  0
CLASS
  1
VISUALSTYLE
  2
AcDbVisualStyle
  3
ObjectDBX Classes
 90
     4095
280
     0
281
     0
  0
CLASS
  1
MATERIAL
  2
AcDbMaterial
  3
ObjectDBX Classes
 90
     1153
280
     0
281
     0
  0
CLASS
  1
SCALE
  2
AcDbScale
  3
ObjectDBX Classes
 90
     1153
280
     0
281
     0
  0
CLASS
  1
TABLESTYLE
  2
AcDbTableStyle
  3
ObjectDBX Classes
 90
     4095
280
     0
281
     0
  0
CLASS
  1
MLEADERSTYLE
  2
AcDbMLeaderStyle
  3
ACDB_MLEADERSTYLE_CLASS
 90
     4095
280
     0
281
     0
  0
CLASS
  1
SUN
  2
AcDbSun
  3
SCENEOE
 90
     1153
280
     0
281
     0
  0
CLASS
  1
XRECORD
  2
AcDbXrecord
  3
ObjectDBX Classes
 90
        0
280
     0
281
     0
  0
CLASS
  1
LWPOLYLINE
  2
AcDbPolyline
  3
ObjectDBX Classes
 90
        0
280
     0
281
     1
  0
CLASS
  1
HATCH
  2
AcDbHatch
  3
ObjectDBX Classes
 90
        0
280
     0
281
     1
  0
ENDSEC
  0
SECTION
  2
TABLES
  0
TABLE
  2
VPORT
  5
8
330
0
100
AcDbSymbolTable
 70
     1
  0
VPORT
  5
29
330
8
100
AcDbSymbolTableRecord
100
AcDbViewportTableRecord
  2
*ACTIVE
 70
     0
 10
0.0
 20
0.0
 11
1.0
 21
1.0
 12
1220.0
 22
610.0
 13
0.0
 23
0.0
 14
10.0
 24
10.0
 15
10.0
 25
10.0
 16
0.0
 26
0.0
 36
1.0
 17
0.0
 27
0.0
 37
0.0
 40
1220.0
 41
2.0
 42
50.0
 43
0.0
 44
0.0
 50
0.0
 51
0.0
 71
     0
 72
  2000
 73
     1
 74
     3
 75
     0
 76
     0
 77
     0
 78
     0
  0
ENDTAB
  0
TABLE
  2
LTYPE
  5
5
330
0
100
AcDbSymbolTable
 70
     6
  0
LTYPE
  5
14
330
5
100
AcDbSymbolTableRecord
100
AcDbLinetypeTableRecord
  2
BYBLOCK
 70
     0
  3

 72
    65
 73
     0
 40
0.0
  0
LTYPE
  5
15
330
5
100
AcDbSymbolTableRecord
100
AcDbLinetypeTableRecord
  2
BYLAYER
 70
     0
  3

 72
    65
 73
     0
 40
0.0
  0
LTYPE
  5
16
330
5
100
AcDbSymbolTableRecord
100
AcDbLinetypeTableRecord
  2
CONTINUOUS
 70
     0
  3
Solid line
 72
    65
 73
     0
 40
0.0
  0
LTYPE
  5
6E
330
5
100
AcDbSymbolTableRecord
100
AcDbLinetypeTableRecord
  2
HIDDEN
 70
     0
  3
Hidden __ __ __ __ __ __ __ __ __ __ __ __ __ __
 72
    65
 73
     2
 40
1.905
 49
1.27
 74
     0
 49
-0.635
 74
     0
  0
LTYPE
  5
6F
330
5
100
AcDbSymbolTableRecord
100
AcDbLinetypeTableRecord
  2
PHANTOM
 70
     0
  3
Phantom ______  __  __  ______  __  __  ______
 72
    65
 73
     6
 40
12.7
 49
6.35
 74
     0
 49
-1.27
 74
     0
 49
1.27
 74
     0
 49
-1.27
 74
     0
 49
1.27
 74
     0
 49
-1.27
 74
     0
  0
LTYPE
  5
70
330
5
100
AcDbSymbolTableRecord
100
AcDbLinetypeTableRecord
  2
CENTER
 70
     0
  3
Center ____ _ ____ _ ____ _ ____ _ ____ _ ____
 72
    65
 73
     4
 40
10.16
 49
6.35
 74
     0
 49
-1.27
 74
     0
 49
1.27
 74
     0
 49
-1.27
 74
     0
  0
LTYPE
  5
71
330
5
100
AcDbSymbolTableRecord
100
AcDbLinetypeTableRecord
  2
CENTERX2
 70
     0
  3
Center (2x) ________  __  ________  __  _____
 72
    65
 73
     4
 40
20.32
 49
12.7
 74
     0
 49
-2.54
 74
     0
 49
2.54
 74
     0
 49
-2.54
 74
     0
  0
LTYPE
  5
72
330
5
100
AcDbSymbolTableRecord
100
AcDbLinetypeTableRecord
  2
DOT2
 70
     0
  3
Dot (.5x) ........................................
 72
    65
 73
     2
 40
0.635
 49
0.0
 74
     0
 49
-0.635
 74
     0
  0
ENDTAB
  0
TABLE
  2
LAYER
  5
2
330
0
100
AcDbSymbolTable
 70
     6
  0
LAYER
  5
10
330
2
100
AcDbSymbolTableRecord
100
AcDbLayerTableRecord
  2
0
 70
     0
 62
     7
  6
CONTINUOUS
  0
LAYER
  5
73
330
2
100
AcDbSymbolTableRecord
100
AcDbLayerTableRecord
  2
BOX_STOCK
 70
     0
 62
     1
  6
CONTINUOUS
  0
LAYER
  5
74
330
2
100
AcDbSymbolTableRecord
100
AcDbLayerTableRecord
  2
HOLES
 70
     0
 62
    30
  6
CONTINUOUS
  0
LAYER
  5
75
330
2
100
AcDbSymbolTableRecord
100
AcDbLayerTableRecord
  2
POCKETS
 70
     0
 62
   171
  6
CONTINUOUS
  0
LAYER
  5
76
330
2
100
AcDbSymbolTableRecord
100
AcDbLayerTableRecord
  2
PROFILES_OUTSIDE
 70
     0
 62
     6
  6
CONTINUOUS
  0
LAYER
  5
77
330
2
100
AcDbSymbolTableRecord
100
AcDbLayerTableRecord
  2
PROFILES_INSIDE
 70
     0
 62
     4
  6
CONTINUOUS
  0
ENDTAB
  0
TABLE
  2
STYLE
  5
3
330
0
100
AcDbSymbolTable
 70
     1
  0
STYLE
  5
11
330
3
100
AcDbSymbolTableRecord
100
AcDbTextStyleTableRecord
  2
STANDARD
 70
     0
 40
0.0
 41
1.0
 50
0.0
 71
     0
 42
3.5
  3
txt
  4

  0
ENDTAB
  0
TABLE
  2
VIEW
  5
6
330
0
100
AcDbSymbolTable
 70
     0
  0
ENDTAB
  0
TABLE
  2
UCS
  5
7
330
0
100
AcDbSymbolTable
 70
     0
  0
ENDTAB
  0
TABLE
  2
APPID
  5
9
330
0
100
AcDbSymbolTable
 70
     1
  0
APPID
  5
12
330
9
100
AcDbSymbolTableRecord
100
AcDbRegAppTableRecord
  2
ACAD
 70
     0
  0
ENDTAB
  0
TABLE
  2
DIMSTYLE
  5
A
330
0
100
AcDbSymbolTable
 70
     1
  0
DIMSTYLE
105
27
330
A
100
AcDbSymbolTableRecord
100
AcDbDimStyleTableRecord
  2
ISO-25
 70
     0
  3

  4

  5

  6

  7

 40
1.0
 41
2.5
 42
0.625
 43
3.75
 44
1.25
 45
0.0
 46
0.0
 47
0.0
 48
0.0
140
2.5
141
2.5
142
0.0
143
0.0393700787
144
1.0
145
0.0
146
1.0
147
0.625
 71
     0
 72
     0
 73
     0
 74
     0
 75
     0
 76
     0
 77
     1
 78
     8
170
     0
171
     3
172
     1
173
     0
174
     0
175
     0
176
     0
177
     0
178
     0
270
     2
271
     2
272
     2
273
     2
274
     3
340
11
275
     0
280
     0
281
     0
282
     0
283
     0
284
     8
285
     0
286
     0
287
     3
288
     0
  0
ENDTAB
  0
TABLE
  2
BLOCK_RECORD
  5
1
330
0
100
AcDbSymbolTable
 70
     1
  0
BLOCK_RECORD
  5
1F
330
1
100
AcDbSymbolTableRecord
100
AcDbBlockTableRecord
  2
*MODEL_SPACE
  0
BLOCK_RECORD
  5
1B
330
1
100
AcDbSymbolTableRecord
100
AcDbBlockTableRecord
  2
*PAPER_SPACE
  0
BLOCK_RECORD
  5
23
330
1
100
AcDbSymbolTableRecord
100
AcDbBlockTableRecord
  2
*PAPER_SPACE0
  0
ENDTAB
  0
ENDSEC
  0
SECTION
  2
BLOCKS
  0
BLOCK
  5
20
330
1F
100
AcDbEntity
  8
0
100
AcDbBlockBegin
  2
*MODEL_SPACE
 70
     0
 10
0.0
 20
0.0
 30
0.0
  3
*MODEL_SPACE
  1

  0
ENDBLK
  5
21
330
1F
100
AcDbEntity
  8
0
100
AcDbBlockEnd
  0
BLOCK
  5
1C
330
1B
100
AcDbEntity
 67
     1
  8
0
100
AcDbBlockBegin
  2
*PAPER_SPACE
 70
     0
 10
0.0
 20
0.0
 30
0.0
  3
*PAPER_SPACE
  1

  0
ENDBLK
  5
1D
330
1B
100
AcDbEntity
 67
     1
  8
0
100
AcDbBlockEnd
  0
BLOCK
  5
24
330
23
100
AcDbEntity
  8
0
100
AcDbBlockBegin
  2
*PAPER_SPACE0
 70
     0
 10
0.0
 20
0.0
 30
0.0
  3
*PAPER_SPACE0
  1

  0
ENDBLK
  5
25
330
23
100
AcDbEntity
  8
0
100
AcDbBlockEnd
  0
ENDSEC
  0
SECTION
  2
ENTITIES
  0
LINE
  5
78
330
1F
100
AcDbEntity
  8
0
  6
CONTINUOUS
 62
     7
100
AcDbLine
 10
398.906401379
 20
301.9716157139
 30
0.0
 11
408.9901661705
 21
303.7496818722
 31
0.0
  0
LINE
  5
79
330
1F
100
AcDbEntity
  8
0
  6
CONTINUOUS
 62
     7
100
AcDbLine
 10
393.9482784103
 20
190.0654746712
 30
0.0
 11
393.9482784103
 21
296.0627688587
 31
0.0
  0
LINE
  5
7A
330
1F
100
AcDbEntity
  8
0
  6
CONTINUOUS
 62
     7
100
AcDbLine
 10
408.9901661705
 20
182.3785765589
 30
0.0
 11
398.906401379
 21
184.156627816
 31
0.0
  0
LINE
  5
7B
330
1F
100
AcDbEntity
  8
0
  6
CONTINUOUS
 62
     7
100
AcDbLine
 10
413.9482891391
 20
176.4697297037
 30
0.0
 11
413.9482891391
 21
153.6363376797
 31
0.0
  0
LINE
  5
7C
330
1F
100
AcDbEntity
  8
0
  6
CONTINUOUS
 62
     7
100
AcDbLine
 10
373.9482676815
 20
339.5449830711
 30
0.0
 11
373.9482676815
 21
146.5832604587
 31
0.0
  0
LINE
  5
7D
330
1F
100
AcDbEntity
  8
0
  6
CONTINUOUS
 62
     7
100
AcDbLine
 10
413.9482891391
 20
332.4919058502
 30
0.0
 11
373.9482676815
 21
339.5449830711
 31
0.0
  0
LINE
  5
7E
330
1F
100
AcDbEntity
  8
0
  6
CONTINUOUS
 62
     7
100
AcDbLine
 10
413.9482891391
 20
332.4919058502
 30
0.0
 11
413.9482891391
 21
309.6585287273
 31
0.0
  0
LINE
  5
7F
330
1F
100
AcDbEntity
  8
0
  6
CONTINUOUS
 62
     7
100
AcDbLine
 10
373.9482676815
 20
146.5832604587
 30
0.0
 11
413.9482891391
 21
153.6363376797
 31
0.0
  0
ARC
  5
80
330
1F
100
AcDbEntity
  8
0
  6
CONTINUOUS
 62
     7
100
AcDbCircle
 10
399.9482800697
 20
296.0627795839
 30
0.0
 40
6.000000000000034
100
AcDbArc
 50
100.0
 51
180.0
  0
ARC
  5
81
330
1F
100
AcDbEntity
  8
0
  6
CONTINUOUS
 62
     7
100
AcDbCircle
 10
399.9482800697
 20
190.0654697362
 30
0.0
 40
6.000000000000006
100
AcDbArc
 50
180.0
 51
260.0
  0
ARC
  5
82
330
1F
100
AcDbEntity
  8
0
  6
CONTINUOUS
 62
     7
100
AcDbCircle
 10
407.9482800697
 20
309.6585147722
 30
0.0
 40
6.000000000000057
100
AcDbArc
 50
280.0
 51
0.0
  0
ARC
  5
83
330
1F
100
AcDbEntity
  8
0
  6
CONTINUOUS
 62
     7
100
AcDbCircle
 10
407.9482800697
 20
176.4697345479
 30
0.0
 40
6.0000000000001
100
AcDbArc
 50
0.0
 51
80.0
  0
ARC
  5
84
330
1F
100
AcDbEntity
  8
0
  6
CONTINUOUS
 62
     7
100
AcDbCircle
 10
31.9482800697
 20
445.8882639444
 30
0.0
 40
6.000000000000075
100
AcDbArc
 50
80.0
 51
180.0
  0
LINE
  5
85
330
1F
100
AcDbEntity
  8
0
  6
CONTINUOUS
 62
     7
100
AcDbLine
 10
32.9901678692
 20
451.7970992744
 30
0.0
 11
408.9901661705
 21
385.4981674374
 31
0.0
  0
LINE
  5
86
330
1F
100
AcDbEntity
  8
0
  6
CONTINUOUS
 62
     7
100
AcDbLine
 10
413.9482891391
 20
379.5893205822
 30
0.0
 11
413.9482891391
 21
351.460070771
 31
0.0
  0
LINE
  5
87
330
1F
100
AcDbEntity
  8
0
  6
CONTINUOUS
 62
     7
100
AcDbLine
 10
387.3069500755
 20
356.1576618374
 30
0.0
 11
413.9482891391
 21
351.460070771
 31
0.0
  0
ARC
  5
88
330
1F
100
AcDbEntity
  8
0
  6
CONTINUOUS
 62
     7
100
AcDbCircle
 10
382.2893262558
 20
357.4035707219
 30
0.0
 40
5.169999999999973
100
AcDbArc
 50
346.0551969084
 51
14.8879011019
  0
ARC
  5
89
330
1F
100
AcDbEntity
  8
0
  6
CONTINUOUS
 62
     7
100
AcDbCircle
 10
388.2522015485
 20
358.9888209369
 30
0.0
 40
0.9999999999999931
100
AcDbArc
 50
170.0
 51
194.8879011019
  0
ARC
  5
8A
330
1F
100
AcDbEntity
  8
0
  6
CONTINUOUS
 62
     7
100
AcDbCircle
 10
390.2344988047
 20
370.2308270562
 30
0.0
 40
1.000027830745205
100
AcDbArc
 50
145.1121740788
 51
170.0
  0
ARC
  5
8B
330
1F
100
AcDbEntity
  8
0
  6
CONTINUOUS
 62
     7
100
AcDbCircle
 10
385.1733889397
 20
373.759907725
 30
0.0
 40
5.170000000000017
100
AcDbArc
 50
325.1121740788
 51
152.3995412421
  0
ARC
  5
8C
330
1F
100
AcDbEntity
  8
0
  6
CONTINUOUS
 62
     7
100
AcDbCircle
 10
379.7055357439
 20
376.618488042
 30
0.0
 40
1.000000000000034
100
AcDbArc
 50
260.0000385431
 51
332.3995412421
  0
LINE
  5
8D
330
1F
100
AcDbEntity
  8
0
  6
CONTINUOUS
 62
     7
100
AcDbLine
 10
375.549695475
 20
376.3358606518
 30
0.0
 11
379.5318817924
 21
375.633688134
 31
0.0
  0
ARC
  5
8E
330
1F
100
AcDbEntity
  8
0
  6
CONTINUOUS
 62
     7
100
AcDbCircle
 10
375.7233304788
 20
377.3206555108
 30
0.0
 40
1.000000750860803
100
AcDbArc
 50
187.6004748139
 51
260.0000385431
  0
ARC
  5
8F
330
1F
100
AcDbEntity
  8
0
  6
CONTINUOUS
 62
     7
100
AcDbCircle
 10
369.6075373581
 20
376.5045829009
 30
0.0
 40
5.169999249139281
100
AcDbArc
 50
7.6004748139
 51
194.8878493682
  0
ARC
  5
90
330
1F
100
AcDbEntity
  8
0
  6
CONTINUOUS
 62
     7
100
AcDbCircle
 10
363.6446631319
 20
374.919338734
 30
0.0
 40
0.999998917168526
100
AcDbArc
 50
350.0
 51
14.8878493682
  0
LINE
  5
91
330
1F
100
AcDbEntity
  8
0
  6
CONTINUOUS
 62
     7
100
AcDbLine
 10
362.6471972297
 20
363.503666085
 30
0.0
 11
364.629468901
 21
374.7456981361
 31
0.0
  0
ARC
  5
92
330
1F
100
AcDbEntity
  8
0
  6
CONTINUOUS
 62
     7
100
AcDbCircle
 10
361.6623911507
 20
363.6773156858
 30
0.0
 40
1.000000000000049
100
AcDbArc
 50
325.1121170491
 51
350.0
  0
ARC
  5
93
330
1F
100
AcDbEntity
  8
0
  6
CONTINUOUS
 62
     7
100
AcDbCircle
 10
366.7234746742
 20
360.1482458978
 30
0.0
 40
5.170000000000059
100
AcDbArc
 50
145.1121170491
 51
173.9447545661
  0
LINE
  5
94
330
1F
100
AcDbEntity
  8
0
  6
CONTINUOUS
 62
     7
100
AcDbLine
 10
91.3750743698
 20
408.3384288967
 30
0.0
 11
361.5823304485
 21
360.6936051071
 31
0.0
  0
ARC
  5
95
330
1F
100
AcDbEntity
  8
0
  6
CONTINUOUS
 62
     7
100
AcDbCircle
 10
86.3574450112
 20
409.5843458372
 30
0.0
 40
5.169999999999987
100
AcDbArc
 50
346.0551969084
 51
14.8879011019
  0
ARC
  5
96
330
1F
100
AcDbEntity
  8
0
  6
CONTINUOUS
 62
     7
100
AcDbCircle
 10
92.3203203039
 20
411.1695960521
 30
0.0
 40
0.9999999999999231
100
AcDbArc
 50
170.0
 51
194.8879011019
  0
LINE
  5
97
330
1F
100
AcDbEntity
  8
0
  6
CONTINUOUS
 62
     7
100
AcDbLine
 10
93.3177834581
 20
422.5852503002
 30
0.0
 11
91.3355117868
 21
411.3432480514
 31
0.0
  0
ARC
  5
98
330
1F
100
AcDbEntity
  8
0
  6
CONTINUOUS
 62
     7
100
AcDbCircle
 10
94.3026175601
 20
422.4116021714
 30
0.0
 40
1.000027830745217
100
AcDbArc
 50
145.1121740788
 51
170.0
  0
ARC
  5
99
330
1F
100
AcDbEntity
  8
0
  6
CONTINUOUS
 62
     7
100
AcDbCircle
 10
89.2415076951
 20
425.9406828402
 30
0.0
 40
5.170000000000057
100
AcDbArc
 50
325.1121740788
 51
152.3995412421
  0
ARC
  5
9A
330
1F
100
AcDbEntity
  8
0
  6
CONTINUOUS
 62
     7
100
AcDbCircle
 10
83.7736544992
 20
428.7992631572
 30
0.0
 40
1.000000000000061
100
AcDbArc
 50
260.0000385431
 51
332.3995412421
  0
LINE
  5
9B
330
1F
100
AcDbEntity
  8
0
  6
CONTINUOUS
 62
     7
100
AcDbLine
 10
79.6178048681
 20
428.5166277111
 30
0.0
 11
83.6000060867
 21
427.8144551933
 31
0.0
  0
ARC
  5
9C
330
1F
100
AcDbEntity
  8
0
  6
CONTINUOUS
 62
     7
100
AcDbCircle
 10
79.7914492342
 20
429.501430626
 30
0.0
 40
1.000000750860788
100
AcDbArc
 50
187.6004748139
 51
260.0000385431
  0
ARC
  5
9D
330
1F
100
AcDbEntity
  8
0
  6
CONTINUOUS
 62
     7
100
AcDbCircle
 10
73.6756561135
 20
428.6853580161
 30
0.0
 40
5.169999249139309
100
AcDbArc
 50
7.6004748139
 51
194.8878493682
  0
ARC
  5
9E
330
1F
100
AcDbEntity
  8
0
  6
CONTINUOUS
 62
     7
100
AcDbCircle
 10
67.7127818872
 20
427.1001138492
 30
0.0
 40
0.9999989171685161
100
AcDbArc
 50
350.0
 51
14.8878493682
  0
LINE
  5
9F
330
1F
100
AcDbEntity
  8
0
  6
CONTINUOUS
 62
     7
100
AcDbLine
 10
66.7153140734
 20
415.6844331444
 30
0.0
 11
68.6975857447
 21
426.9264651955
 31
0.0
  0
ARC
  5
A0
330
1F
100
AcDbEntity
  8
0
  6
CONTINUOUS
 62
     7
100
AcDbCircle
 10
65.7305099061
 20
415.8580908011
 30
0.0
 40
1.000000000000035
100
AcDbArc
 50
325.1121170491
 51
350.0
  0
ARC
  5
A1
330
1F
100
AcDbEntity
  8
0
  6
CONTINUOUS
 62
     7
100
AcDbCircle
 10
70.7915934296
 20
412.3290210131
 30
0.0
 40
5.169999999999954
100
AcDbArc
 50
145.1121170491
 51
173.9447545661
  0
LINE
  5
A2
330
1F
100
AcDbEntity
  8
0
  6
CONTINUOUS
 62
     7
100
AcDbLine
 10
25.9482795577
 20
419.8749376953
 30
0.0
 11
65.6504398416
 21
412.8744019688
 31
0.0
  0
LINE
  5
A3
330
1F
100
AcDbEntity
  8
0
  6
CONTINUOUS
 62
     7
100
AcDbLine
 10
25.9482795577
 20
419.8749376953
 30
0.0
 11
25.9482795577
 21
445.8882524193
 31
0.0
  0
ARC
  5
A4
330
1F
100
AcDbEntity
  8
0
  6
CONTINUOUS
 62
     7
100
AcDbCircle
 10
407.9482800697
 20
379.589319198
 30
0.0
 40
6.000000000000057
100
AcDbArc
 50
0.0
 51
80.0
  0
LINE
  5
A5
330
1F
100
AcDbEntity
  8
0
  6
CONTINUOUS
 62
     7
100
AcDbLine
 10
389.249674065
 20
370.4044832409
 30
0.0
 11
387.2674023937
 21
359.1624809921
 31
0.0
  0
LINE
  5
A6
330
1F
100
AcDbEntity
  8
0
  6
CONTINUOUS
 62
     7
100
AcDbLine
 10
408.9901661705
 20
100.6300835431
 30
0.0
 11
32.9901678692
 21
34.3311386675
 31
0.0
  0
ARC
  5
A7
330
1F
100
AcDbEntity
  8
0
  6
CONTINUOUS
 62
     7
100
AcDbCircle
 10
31.9482800697
 20
40.2399853756
 30
0.0
 40
6.000000000000227
100
AcDbArc
 50
180.0
 51
280.0
  0
LINE
  5
A8
330
1F
100
AcDbEntity
  8
0
  6
CONTINUOUS
 62
     7
100
AcDbLine
 10
25.9482795577
 20
40.23998366
 30
0.0
 11
25.9482795577
 21
66.253298384
 31
0.0
  0
LINE
  5
A9
330
1F
100
AcDbEntity
  8
0
  6
CONTINUOUS
 62
     7
100
AcDbLine
 10
65.6504398416
 20
73.2538564623
 30
0.0
 11
25.9482795577
 21
66.253298384
 31
0.0
  0
ARC
  5
AA
330
1F
100
AcDbEntity
  8
0
  6
CONTINUOUS
 62
     7
100
AcDbCircle
 10
70.791593378
 20
73.7992238622
 30
0.0
 40
5.169999249139195
100
AcDbArc
 50
186.0551963346
 51
214.8878493682
  0
ARC
  5
AB
330
1F
100
AcDbEntity
  8
0
  6
CONTINUOUS
 62
     7
100
AcDbCircle
 10
65.7305099061
 20
70.270158519
 30
0.0
 40
0.9999989171685185
100
AcDbArc
 50
10.0
 51
34.8878493682
  0
LINE
  5
AC
330
1F
100
AcDbEntity
  8
0
  6
CONTINUOUS
 62
     7
100
AcDbLine
 10
68.6975931953
 20
59.2017820597
 30
0.0
 11
66.7153140734
 21
70.4438029349
 31
0.0
  0
ARC
  5
AD
330
1F
100
AcDbEntity
  8
0
  6
CONTINUOUS
 62
     7
100
AcDbCircle
 10
67.7127818872
 20
59.0281354708
 30
0.0
 40
1.000000000000045
100
AcDbArc
 50
345.1121170491
 51
10.0
  0
ARC
  5
AE
330
1F
100
AcDbEntity
  8
0
  6
CONTINUOUS
 62
     7
100
AcDbCircle
 10
73.6756576821
 20
57.4428871449
 30
0.0
 40
5.170000000000091
100
AcDbArc
 50
165.1121170491
 51
352.3995412421
  0
ARC
  5
AF
330
1F
100
AcDbEntity
  8
0
  6
CONTINUOUS
 62
     7
100
AcDbCircle
 10
79.7914510315
 20
56.6268162488
 30
0.0
 40
1.000000000000179
100
AcDbArc
 50
100.0000385431
 51
172.3995412421
  0
LINE
  5
B0
330
1F
100
AcDbEntity
  8
0
  6
CONTINUOUS
 62
     7
100
AcDbLine
 10
83.6000060867
 20
58.3137957871
 30
0.0
 11
79.6178048681
 21
57.6116232694
 31
0.0
  0
ARC
  5
B1
330
1F
100
AcDbEntity
  8
0
  6
CONTINUOUS
 62
     7
100
AcDbCircle
 10
83.7736553519
 20
57.3289890753
 30
0.0
 40
1.000000000000001
100
AcDbArc
 50
27.6004748139
 51
100.0000385431
  0
ARC
  5
B2
330
1F
100
AcDbEntity
  8
0
  6
CONTINUOUS
 62
     7
100
AcDbCircle
 10
89.2415077466
 20
60.1875709246
 30
0.0
 40
5.170000000000081
100
AcDbArc
 50
207.6004748139
 51
34.8879011019
  0
ARC
  5
B3
330
1F
100
AcDbEntity
  8
0
  6
CONTINUOUS
 62
     7
100
AcDbCircle
 10
94.3025901521
 20
63.7166423159
 30
0.0
 40
0.9999999999999606
100
AcDbArc
 50
190.0
 51
214.8879011019
  0
LINE
  5
B4
330
1F
100
AcDbEntity
  8
0
  6
CONTINUOUS
 62
     7
100
AcDbLine
 10
91.3355117868
 20
74.785002929
 30
0.0
 11
93.3177834581
 21
63.5429932297
 31
0.0
  0
ARC
  5
B5
330
1F
100
AcDbEntity
  8
0
  6
CONTINUOUS
 62
     7
100
AcDbCircle
 10
92.3203477118
 20
74.9586581007
 30
0.0
 40
1.000027830745257
100
AcDbArc
 50
165.1121740788
 51
190.0
  0
ARC
  5
B6
330
1F
100
AcDbEntity
  8
0
  6
CONTINUOUS
 62
     7
100
AcDbCircle
 10
86.3574434425
 20
76.5439076419
 30
0.0
 40
5.170000000000048
100
AcDbArc
 50
345.1121740788
 51
13.9447545661
  0
LINE
  5
B7
330
1F
100
AcDbEntity
  8
0
  6
CONTINUOUS
 62
     7
100
AcDbLine
 10
361.5823304485
 20
125.4346309722
 30
0.0
 11
91.3750743698
 21
77.7898071826
 31
0.0
  0
ARC
  5
B8
330
1F
100
AcDbEntity
  8
0
  6
CONTINUOUS
 62
     7
100
AcDbCircle
 10
366.7234746226
 20
125.9799989775
 30
0.0
 40
5.169999249139147
100
AcDbArc
 50
186.0551963345
 51
214.8878493682
  0
ARC
  5
B9
330
1F
100
AcDbEntity
  8
0
  6
CONTINUOUS
 62
     7
100
AcDbCircle
 10
361.6623911507
 20
122.4509336342
 30
0.0
 40
0.999998917168466
100
AcDbArc
 50
10.0
 51
34.8878493682
  0
LINE
  5
BA
330
1F
100
AcDbEntity
  8
0
  6
CONTINUOUS
 62
     7
100
AcDbLine
 10
364.629468901
 20
111.3825602949
 30
0.0
 11
362.6471972297
 21
122.6245848954
 31
0.0
  0
ARC
  5
BB
330
1F
100
AcDbEntity
  8
0
  6
CONTINUOUS
 62
     7
100
AcDbCircle
 10
363.6446631319
 20
111.2089105861
 30
0.0
 40
0.9999999999999566
100
AcDbArc
 50
345.1121170491
 51
10.0
  0
ARC
  5
BC
330
1F
100
AcDbEntity
  8
0
  6
CONTINUOUS
 62
     7
100
AcDbCircle
 10
369.6075389267
 20
109.6236622601
 30
0.0
 40
5.170000000000011
100
AcDbArc
 50
165.1121170491
 51
352.3995412421
  0
ARC
  5
BD
330
1F
100
AcDbEntity
  8
0
  6
CONTINUOUS
 62
     7
100
AcDbCircle
 10
375.7233322761
 20
108.8075913641
 30
0.0
 40
1.000000000000062
100
AcDbArc
 50
100.0000385431
 51
172.3995412421
  0
LINE
  5
BE
330
1F
100
AcDbEntity
  8
0
  6
CONTINUOUS
 62
     7
100
AcDbLine
 10
379.5318817924
 20
110.494570297
 30
0.0
 11
375.549695475
 21
109.7923977793
 31
0.0
  0
ARC
  5
BF
330
1F
100
AcDbEntity
  8
0
  6
CONTINUOUS
 62
     7
100
AcDbCircle
 10
379.7055365965
 20
109.5097641906
 30
0.0
 40
1.000000000000037
100
AcDbArc
 50
27.6004748139
 51
100.0000385431
  0
ARC
  5
C0
330
1F
100
AcDbEntity
  8
0
  6
CONTINUOUS
 62
     7
100
AcDbCircle
 10
385.1733889913
 20
112.3683460398
 30
0.0
 40
5.17000000000005
100
AcDbArc
 50
207.6004748139
 51
34.8879011019
  0
ARC
  5
C1
330
1F
100
AcDbEntity
  8
0
  6
CONTINUOUS
 62
     7
100
AcDbCircle
 10
390.2344713967
 20
115.8974174311
 30
0.0
 40
0.9999999999999969
100
AcDbArc
 50
190.0
 51
214.8879011019
  0
ARC
  5
C2
330
1F
100
AcDbEntity
  8
0
  6
CONTINUOUS
 62
     7
100
AcDbCircle
 10
407.9482800697
 20
106.538930122
 30
0.0
 40
6.000000000000057
100
AcDbArc
 50
280.0
 51
0.0
  0
LINE
  5
C3
330
1F
100
AcDbEntity
  8
0
  6
CONTINUOUS
 62
     7
100
AcDbLine
 10
413.9482891391
 20
134.6681727589
 30
0.0
 11
413.9482891391
 21
106.5389303983
 31
0.0
  0
ARC
  5
C4
330
1F
100
AcDbEntity
  8
0
  6
CONTINUOUS
 62
     7
100
AcDbCircle
 10
382.2893246872
 20
128.7246827572
 30
0.0
 40
5.170000000000114
100
AcDbArc
 50
345.1121740788
 51
13.9447545661
  0
LINE
  5
C5
330
1F
100
AcDbEntity
  8
0
  6
CONTINUOUS
 62
     7
100
AcDbLine
 10
413.9482891391
 20
134.6681727589
 30
0.0
 11
387.3069500755
 21
129.9705816925
 31
0.0
  0
LINE
  5
C6
330
1F
100
AcDbEntity
  8
0
  6
CONTINUOUS
 62
     7
100
AcDbLine
 10
387.2674023937
 20
126.9657774389
 30
0.0
 11
389.249674065
 21
115.7237677396
 31
0.0
  0
ARC
  5
C7
330
1F
100
AcDbEntity
  8
0
  6
CONTINUOUS
 62
     7
100
AcDbCircle
 10
388.2522289564
 20
127.1394332159
 30
0.0
 40
1.000027830745198
100
AcDbArc
 50
165.1121740788
 51
190.0
  0
LINE
  5
C8
330
1F
100
AcDbEntity
  8
0
  6
CONTINUOUS
 62
     7
100
AcDbLine
 10
25.9482795577
 20
85.2214633048
 30
0.0
 11
355.608276112
 21
143.3494253576
 31
0.0
  0
LINE
  5
C9
330
1F
100
AcDbEntity
  8
0
  6
CONTINUOUS
 62
     7
100
AcDbLine
 10
25.9482795577
 20
85.2214633048
 30
0.0
 11
25.9482795577
 21
400.9067727745
 31
0.0
  0
LINE
  5
CA
330
1F
100
AcDbEntity
  8
0
  6
CONTINUOUS
 62
     7
100
AcDbLine
 10
355.608276112
 20
143.3494253576
 30
0.0
 11
355.608276112
 21
342.7788330734
 31
0.0
  0
LINE
  5
CB
330
1F
100
AcDbEntity
  8
0
  6
CONTINUOUS
 62
     7
100
AcDbLine
 10
355.608276112
 20
342.7788330734
 30
0.0
 11
25.9482795577
 21
400.9067727745
 31
0.0
  0
ARC
  5
CC
330
1F
100
AcDbEntity
  8
0
  6
CONTINUOUS
 62
     7
100
AcDbCircle
 10
376.1735313378
 20
129.5407536532
 30
0.0
 40
1.000000000000013
100
AcDbArc
 50
280.0000385431
 51
352.3995412421
  0
LINE
  5
CD
330
1F
100
AcDbEntity
  8
0
  6
CONTINUOUS
 62
     7
100
AcDbLine
 10
376.3471758197
 20
128.5559474051
 30
0.0
 11
372.3649895023
 21
127.8537748874
 31
0.0
  0
ARC
  5
CE
330
1F
100
AcDbEntity
  8
0
  6
CONTINUOUS
 62
     7
100
AcDbCircle
 10
372.1913270174
 20
128.8385808267
 30
0.0
 40
1.000000000000013
100
AcDbArc
 50
207.6004748139
 51
280.0000385431
  0
ARC
  5
CF
330
1F
100
AcDbEntity
  8
0
  6
CONTINUOUS
 62
     7
100
AcDbCircle
 10
80.2416500931
 20
77.359978538
 30
0.0
 40
1.000000000000011
100
AcDbArc
 50
280.0000385431
 51
352.3995412421
  0
LINE
  5
D0
330
1F
100
AcDbEntity
  8
0
  6
CONTINUOUS
 62
     7
100
AcDbLine
 10
80.415300114
 20
76.3751728952
 30
0.0
 11
76.4330914448
 21
75.6730003775
 31
0.0
  0
ARC
  5
D1
330
1F
100
AcDbEntity
  8
0
  6
CONTINUOUS
 62
     7
100
AcDbCircle
 10
76.2594457728
 20
76.6578057115
 30
0.0
 40
0.9999999999999547
100
AcDbArc
 50
207.6004748139
 51
280.0000385431
  0
ARC
  5
D2
330
1F
100
AcDbEntity
  8
0
  6
CONTINUOUS
 62
     7
100
AcDbCircle
 10
76.2594466254
 20
409.4704406961
 30
0.0
 40
1.000000000000016
100
AcDbArc
 50
80.0000385431
 51
152.3995412421
  0
LINE
  5
D3
330
1F
100
AcDbEntity
  8
0
  6
CONTINUOUS
 62
     7
100
AcDbLine
 10
76.4330914448
 20
410.4552580536
 30
0.0
 11
80.415300114
 21
409.7530855358
 31
0.0
  0
ARC
  5
D4
330
1F
100
AcDbEntity
  8
0
  6
CONTINUOUS
 62
     7
100
AcDbCircle
 10
80.2416518905
 20
408.7682732273
 30
0.0
 40
1.000000000000019
100
AcDbArc
 50
7.6004748139
 51
80.0000385431
  0
ARC
  5
D5
330
1F
100
AcDbEntity
  8
0
  6
CONTINUOUS
 62
     7
100
AcDbCircle
 10
372.19132787
 20
357.2896655809
 30
0.0
 40
0.9999999999999776
100
AcDbArc
 50
80.0000385431
 51
152.3995412421
  0
LINE
  5
D6
330
1F
100
AcDbEntity
  8
0
  6
CONTINUOUS
 62
     7
100
AcDbLine
 10
372.3649895023
 20
358.2744611919
 30
0.0
 11
376.3471758197
 21
357.5723184765
 31
0.0
  0
ARC
  5
D7
330
1F
100
AcDbEntity
  8
0
  6
CONTINUOUS
 62
     7
100
AcDbCircle
 10
376.1735331351
 20
356.5874981121
 30
0.0
 40
1.000000000000014
100
AcDbArc
 50
7.6004748139
 51
80.0000385431
  0
ARC
  5
D8
330
1F
100
AcDbEntity
  8
0
  6
CONTINUOUS
 62
     7
100
AcDbCircle
 10
70.791593378
 20
73.7992238622
 30
0.0
 40
5.170000000000116
100
AcDbArc
 50
27.6004748139
 51
186.0551963346
  0
ARC
  5
D9
330
1F
100
AcDbEntity
  8
0
  6
CONTINUOUS
 62
     7
100
AcDbCircle
 10
70.7915934296
 20
412.3290210131
 30
0.0
 40
5.170000000000105
100
AcDbArc
 50
173.9447545662
 51
332.3995412421
  0
LINE
  5
DA
330
1F
100
AcDbEntity
  8
0
  6
CONTINUOUS
 62
     7
100
AcDbLine
 10
25.9482795577
 20
85.2214633048
 30
0.0
 11
25.9482795577
 21
66.253298384
 31
0.0
  0
LINE
  5
DB
330
1F
100
AcDbEntity
  8
0
  6
CONTINUOUS
 62
     7
100
AcDbLine
 10
25.9482795577
 20
419.8749376953
 30
0.0
 11
25.9482795577
 21
400.9067727745
 31
0.0
  0
ARC
  5
DC
330
1F
100
AcDbEntity
  8
0
  6
CONTINUOUS
 62
     7
100
AcDbCircle
 10
86.3574434425
 20
76.5439076419
 30
0.0
 40
5.170000000000063
100
AcDbArc
 50
13.9447545661
 51
172.3995412421
  0
ARC
  5
DD
330
1F
100
AcDbEntity
  8
0
  6
CONTINUOUS
 62
     7
100
AcDbCircle
 10
86.3574450112
 20
409.5843458372
 30
0.0
 40
5.170000000000132
100
AcDbArc
 50
187.6004748139
 51
346.0551969083
  0
ARC
  5
DE
330
1F
100
AcDbEntity
  8
0
  6
CONTINUOUS
 62
     7
100
AcDbCircle
 10
366.7234746226
 20
125.9799989775
 30
0.0
 40
5.170000000000072
100
AcDbArc
 50
27.6004748139
 51
186.0551963346
  0
ARC
  5
DF
330
1F
100
AcDbEntity
  8
0
  6
CONTINUOUS
 62
     7
100
AcDbCircle
 10
366.7234746742
 20
360.1482458978
 30
0.0
 40
5.170000000000074
100
AcDbArc
 50
173.9447545667
 51
332.3995412421
  0
LINE
  5
E0
330
1F
100
AcDbEntity
  8
0
  6
CONTINUOUS
 62
     7
100
AcDbLine
 10
413.9482891391
 20
332.4919058502
 30
0.0
 11
413.9482891391
 21
351.460070771
 31
0.0
  0
ARC
  5
E1
330
1F
100
AcDbEntity
  8
0
  6
CONTINUOUS
 62
     7
100
AcDbCircle
 10
382.2893262558
 20
357.4035707219
 30
0.0
 40
5.17000000000014
100
AcDbArc
 50
187.6004748139
 51
346.0551969078
  0
LINE
  5
E2
330
1F
100
AcDbEntity
  8
0
  6
CONTINUOUS
 62
     7
100
AcDbLine
 10
413.9482891391
 20
134.6681727589
 30
0.0
 11
413.9482891391
 21
153.6363376797
 31
0.0
  0
ARC
  5
E3
330
1F
100
AcDbEntity
  8
0
  6
CONTINUOUS
 62
     7
100
AcDbCircle
 10
382.2893246872
 20
128.7246827572
 30
0.0
 40
5.170000000000035
100
AcDbArc
 50
13.9447545661
 51
172.3995412421
  0
ARC
  5
E4
330
1F
100
AcDbEntity
  8
0
  6
CONTINUOUS
 62
     7
100
AcDbCircle
 10
1937.8682800697
 20
743.547477315
 30
0.0
 40
6.000000000000227
100
AcDbArc
 50
270.0
 51
0.0
  0
LINE
  5
E5
330
1F
100
AcDbEntity
  8
0
  6
CONTINUOUS
 62
     7
100
AcDbLine
 10
1808.5682606529
 20
737.5474883736
 30
0.0
 11
1937.8682589363
 21
737.5474883736
 31
0.0
  0
ARC
  5
E6
330
1F
100
AcDbEntity
  8
0
  6
CONTINUOUS
 62
     7
100
AcDbCircle
 10
1808.5682800697
 20
725.547477315
 30
0.0
 40
12.0
100
AcDbArc
 50
90.0
 51
180.0
  0
LINE
  5
E7
330
1F
100
AcDbEntity
  8
0
  6
CONTINUOUS
 62
     7
100
AcDbLine
 10
1796.5682959388
 20
641.7157961548
 30
0.0
 11
1796.5682959388
 21
725.5474640549
 31
0.0
  0
ARC
  5
E8
330
1F
100
AcDbEntity
  8
0
  6
CONTINUOUS
 62
     7
100
AcDbCircle
 10
1783.8682800697
 20
641.715774808
 30
0.0
 40
12.70000000000005
100
AcDbArc
 50
300.0
 51
0.0
  0
ARC
  5
E9
330
1F
100
AcDbEntity
  8
0
  6
CONTINUOUS
 62
     7
100
AcDbCircle
 10
1796.5682800697
 20
619.7187295518
 30
0.0
 40
12.69999999999982
100
AcDbArc
 50
120.0
 51
180.0
  0
LINE
  5
EA
330
1F
100
AcDbEntity
  8
0
  6
CONTINUOUS
 62
     7
100
AcDbLine
 10
1783.8683342766
 20
554.8791004837
 30
0.0
 11
1783.8683342766
 21
619.7187020004
 31
0.0
  0
ARC
  5
EB
330
1F
100
AcDbEntity
  8
0
  6
CONTINUOUS
 62
     7
100
AcDbCircle
 10
1796.5682800697
 20
554.879117557
 30
0.0
 40
12.69999999999982
100
AcDbArc
 50
180.0
 51
240.0
  0
ARC
  5
EC
330
1F
100
AcDbEntity
  8
0
  6
CONTINUOUS
 62
     7
100
AcDbCircle
 10
1783.8682800697
 20
532.8820723009
 30
0.0
 40
12.69999999999995
100
AcDbArc
 50
0.0
 51
60.0
  0
LINE
  5
ED
330
1F
100
AcDbEntity
  8
0
  6
CONTINUOUS
 62
     7
100
AcDbLine
 10
1796.5682959388
 20
449.0503682316
 30
0.0
 11
1796.5682959388
 21
532.882065934
 31
0.0
  0
ARC
  5
EE
330
1F
100
AcDbEntity
  8
0
  6
CONTINUOUS
 62
     7
100
AcDbCircle
 10
1808.5682800697
 20
449.0503697938
 30
0.0
 40
12.0
100
AcDbArc
 50
180.0
 51
270.0
  0
LINE
  5
EF
330
1F
100
AcDbEntity
  8
0
  6
CONTINUOUS
 62
     7
100
AcDbLine
 10
1937.8682589363
 20
437.0503737152
 30
0.0
 11
1808.5682606529
 21
437.0503737152
 31
0.0
  0
ARC
  5
F0
330
1F
100
AcDbEntity
  8
0
  6
CONTINUOUS
 62
     7
100
AcDbCircle
 10
1937.8682800697
 20
431.0503697938
 30
0.0
 40
6.0
100
AcDbArc
 50
0.0
 51
90.0
  0
LINE
  5
F1
330
1F
100
AcDbEntity
  8
0
  6
CONTINUOUS
 62
     7
100
AcDbLine
 10
1943.8683008979
 20
419.300378722
 30
0.0
 11
1943.8683008979
 21
431.0503615558
 31
0.0
  0
ARC
  5
F2
330
1F
100
AcDbEntity
  8
0
  6
CONTINUOUS
 62
     7
100
AcDbCircle
 10
1942.8682800697
 20
419.3003697938
 30
0.0
 40
1.000000000000227
100
AcDbArc
 50
270.0
 51
0.0
  0
LINE
  5
F3
330
1F
100
AcDbEntity
  8
0
  6
CONTINUOUS
 62
     7
100
AcDbLine
 10
1942.8682541679
 20
418.3003617943
 30
0.0
 11
1937.6082634758
 21
418.3003617943
 31
0.0
  0
LINE
  5
F4
330
1F
100
AcDbEntity
  8
0
  6
CONTINUOUS
 62
     7
100
AcDbLine
 10
1937.6082634758
 20
418.3003617943
 30
0.0
 11
1937.2681593727
 21
423.6142350853
 31
0.0
  0
ARC
  5
F5
330
1F
100
AcDbEntity
  8
0
  6
CONTINUOUS
 62
     7
100
AcDbCircle
 10
1936.2702341626
 20
423.5503697938
 30
0.0
 40
1.0
100
AcDbArc
 50
3.6619355755
 51
90.0
  0
LINE
  5
F6
330
1F
100
AcDbEntity
  8
0
  6
CONTINUOUS
 62
     7
100
AcDbLine
 10
1936.2702584099
 20
424.5503558338
 30
0.0
 11
1922.3305201362
 21
424.5503558338
 31
0.0
  0
ARC
  5
F7
330
1F
100
AcDbEntity
  8
0
  6
CONTINUOUS
 62
     7
100
AcDbCircle
 10
1922.3305584531
 20
425.5503697938
 30
0.0
 40
0.9999999999999432
100
AcDbArc
 50
245.1121079736
 51
270.0
  0
LINE
  5
F8
330
1F
100
AcDbEntity
  8
0
  6
CONTINUOUS
 62
     7
100
AcDbLine
 10
1795.8682989906
 20
412.0483709991
 30
0.0
 11
1918.8683247398
 21
412.0483709991
 31
0.0
  0
ARC
  5
F9
330
1F
100
AcDbEntity
  8
0
  6
CONTINUOUS
 62
     7
100
AcDbCircle
 10
1795.8682800697
 20
424.0483697938
 30
0.0
 40
12.0
100
AcDbArc
 50
180.0
 51
270.0
  0
LINE
  5
FA
330
1F
100
AcDbEntity
  8
0
  6
CONTINUOUS
 62
     7
100
AcDbLine
 10
1783.8683342766
 20
520.8821012199
 30
0.0
 11
1783.8683342766
 21
424.0483655155
 31
0.0
  0
ARC
  5
FB
330
1F
100
AcDbEntity
  8
0
  6
CONTINUOUS
 62
     7
100
AcDbCircle
 10
1771.8682800697
 20
520.8820723009
 30
0.0
 40
12.00000000000011
100
AcDbArc
 50
0.0
 51
90.0
  0
LINE
  5
FC
330
1F
100
AcDbEntity
  8
0
  6
CONTINUOUS
 62
     7
100
AcDbLine
 10
1755.8683371376
 20
532.882065934
 30
0.0
 11
1771.8682503532
 21
532.882065934
 31
0.0
  0
ARC
  5
FD
330
1F
100
AcDbEntity
  8
0
  6
CONTINUOUS
 62
     7
100
AcDbCircle
 10
1755.8682800697
 20
520.8820723009
 30
0.0
 40
12.00000000000011
100
AcDbArc
 50
90.0
 51
180.0
  0
LINE
  5
FE
330
1F
100
AcDbEntity
  8
0
  6
CONTINUOUS
 62
     7
100
AcDbLine
 10
1743.8682532142
 20
424.0483655155
 30
0.0
 11
1743.8682532142
 21
520.8821012199
 31
0.0
  0
LINE
  5
FF
330
1F
100
AcDbEntity
  8
0
  6
CONTINUOUS
 62
     7
100
AcDbLine
 10
1608.868262751
 20
414.0721871078
 30
0.0
 11
1608.868262751
 21
412.0483709991
 31
0.0
  0
ARC
  5
100
330
1F
100
AcDbEntity
  8
0
  6
CONTINUOUS
 62
     7
100
AcDbCircle
 10
1608.0026099301
 20
419.953359375
 30
0.0
 40
5.169999999999853
100
AcDbArc
 50
287.6004667859
 51
114.8878920264
  0
ARC
  5
101
330
1F
100
AcDbEntity
  8
0
  6
CONTINUOUS
 62
     7
100
AcDbCircle
 10
1605.4060016863
 20
425.5503697938
 30
0.0
 40
1.000000000000243
100
AcDbArc
 50
270.0
 51
294.8878920264
  0
LINE
  5
102
330
1F
100
AcDbEntity
  8
0
  6
CONTINUOUS
 62
     7
100
AcDbLine
 10
1605.4059481453
 20
424.5503558338
 30
0.0
 11
1591.4663290809
 21
424.5503558338
 31
0.0
  0
ARC
  5
103
330
1F
100
AcDbEntity
  8
0
  6
CONTINUOUS
 62
     7
100
AcDbCircle
 10
1591.4663259768
 20
423.5503697938
 30
0.0
 40
1.0
100
AcDbArc
 50
90.0
 51
176.3380644245
  0
LINE
  5
104
330
1F
100
AcDbEntity
  8
0
  6
CONTINUOUS
 62
     7
100
AcDbLine
 10
1590.4683089088
 20
423.6142350853
 30
0.0
 11
1590.128324015
 21
418.3003617943
 31
0.0
  0
LINE
  5
105
330
1F
100
AcDbEntity
  8
0
  6
CONTINUOUS
 62
     7
100
AcDbLine
 10
1590.128324015
 20
418.3003617943
 30
0.0
 11
1584.8683333229
 21
418.3003617943
 31
0.0
  0
ARC
  5
106
330
1F
100
AcDbEntity
  8
0
  6
CONTINUOUS
 62
     7
100
AcDbCircle
 10
1584.8682800697
 20
419.3003697938
 30
0.0
 40
1.0
100
AcDbArc
 50
180.0
 51
270.0
  0
LINE
  5
107
330
1F
100
AcDbEntity
  8
0
  6
CONTINUOUS
 62
     7
100
AcDbLine
 10
1583.8682865928
 20
431.0503615558
 30
0.0
 11
1583.8682865928
 21
419.300378722
 31
0.0
  0
ARC
  5
108
330
1F
100
AcDbEntity
  8
0
  6
CONTINUOUS
 62
     7
100
AcDbCircle
 10
1589.8682800697
 20
431.0503697938
 30
0.0
 40
6.000000000000057
100
AcDbArc
 50
90.0
 51
180.0
  0
LINE
  5
109
330
1F
100
AcDbEntity
  8
0
  6
CONTINUOUS
 62
     7
100
AcDbLine
 10
1719.1683268379
 20
437.0503737152
 30
0.0
 11
1589.8683285545
 21
437.0503737152
 31
0.0
  0
ARC
  5
10A
330
1F
100
AcDbEntity
  8
0
  6
CONTINUOUS
 62
     7
100
AcDbCircle
 10
1719.1682800697
 20
449.0503697938
 30
0.0
 40
12.00000000000023
100
AcDbArc
 50
270.0
 51
0.0
  0
LINE
  5
10B
330
1F
100
AcDbEntity
  8
0
  6
CONTINUOUS
 62
     7
100
AcDbLine
 10
1731.1682915519
 20
532.882065934
 30
0.0
 11
1731.1682915519
 21
449.0503682316
 31
0.0
  0
ARC
  5
10C
330
1F
100
AcDbEntity
  8
0
  6
CONTINUOUS
 62
     7
100
AcDbCircle
 10
1743.8682800697
 20
532.8820723009
 30
0.0
 40
12.70000000000005
100
AcDbArc
 50
120.0
 51
180.0
  0
ARC
  5
10D
330
1F
100
AcDbEntity
  8
0
  6
CONTINUOUS
 62
     7
100
AcDbCircle
 10
1731.1682800697
 20
554.879117557
 30
0.0
 40
12.70000000000005
100
AcDbArc
 50
300.0
 51
0.0
  0
LINE
  5
10E
330
1F
100
AcDbEntity
  8
0
  6
CONTINUOUS
 62
     7
100
AcDbLine
 10
1743.8682532142
 20
619.7187020004
 30
0.0
 11
1743.8682532142
 21
554.8791004837
 31
0.0
  0
ARC
  5
10F
330
1F
100
AcDbEntity
  8
0
  6
CONTINUOUS
 62
     7
100
AcDbCircle
 10
1731.1682800697
 20
619.7187295518
 30
0.0
 40
12.70000000000014
100
AcDbArc
 50
0.0
 51
60.0
  0
ARC
  5
110
330
1F
100
AcDbEntity
  8
0
  6
CONTINUOUS
 62
     7
100
AcDbCircle
 10
1743.8682800697
 20
641.715774808
 30
0.0
 40
12.70000000000005
100
AcDbArc
 50
180.0
 51
240.0
  0
LINE
  5
111
330
1F
100
AcDbEntity
  8
0
  6
CONTINUOUS
 62
     7
100
AcDbLine
 10
1731.1682915519
 20
725.5474640549
 30
0.0
 11
1731.1682915519
 21
641.7157961548
 31
0.0
  0
ARC
  5
112
330
1F
100
AcDbEntity
  8
0
  6
CONTINUOUS
 62
     7
100
AcDbCircle
 10
1719.1682800697
 20
725.547477315
 30
0.0
 40
12.00000000000023
100
AcDbArc
 50
0.0
 51
90.0
  0
LINE
  5
113
330
1F
100
AcDbEntity
  8
0
  6
CONTINUOUS
 62
     7
100
AcDbLine
 10
1589.8683285545
 20
737.5474883736
 30
0.0
 11
1719.1683268379
 21
737.5474883736
 31
0.0
  0
ARC
  5
114
330
1F
100
AcDbEntity
  8
0
  6
CONTINUOUS
 62
     7
100
AcDbCircle
 10
1589.8682800697
 20
743.547477315
 30
0.0
 40
6.000000000000114
100
AcDbArc
 50
180.0
 51
270.0
  0
LINE
  5
115
330
1F
100
AcDbEntity
  8
0
  6
CONTINUOUS
 62
     7
100
AcDbLine
 10
1583.8682865928
 20
755.2974535644
 30
0.0
 11
1583.8682865928
 21
743.5474707306
 31
0.0
  0
ARC
  5
116
330
1F
100
AcDbEntity
  8
0
  6
CONTINUOUS
 62
     7
100
AcDbCircle
 10
1584.8682800697
 20
755.297477315
 30
0.0
 40
1.0
100
AcDbArc
 50
90.0
 51
180.0
  0
LINE
  5
117
330
1F
100
AcDbEntity
  8
0
  6
CONTINUOUS
 62
     7
100
AcDbLine
 10
1584.8683333229
 20
756.2975002945
 30
0.0
 11
1590.128324015
 21
756.2975002945
 31
0.0
  0
LINE
  5
118
330
1F
100
AcDbEntity
  8
0
  6
CONTINUOUS
 62
     7
100
AcDbLine
 10
1590.128324015
 20
756.2975002945
 30
0.0
 11
1590.4683089088
 21
750.9836270035
 31
0.0
  0
ARC
  5
119
330
1F
100
AcDbEntity
  8
0
  6
CONTINUOUS
 62
     7
100
AcDbCircle
 10
1591.4663259768
 20
751.047477315
 30
0.0
 40
1.0
100
AcDbArc
 50
183.6619355755
 51
270.0
  0
LINE
  5
11A
330
1F
100
AcDbEntity
  8
0
  6
CONTINUOUS
 62
     7
100
AcDbLine
 10
1591.4663290809
 20
750.0474764526
 30
0.0
 11
1605.4059481453
 21
750.0474764526
 31
0.0
  0
ARC
  5
11B
330
1F
100
AcDbEntity
  8
0
  6
CONTINUOUS
 62
     7
100
AcDbCircle
 10
1605.4060016863
 20
749.047477315
 30
0.0
 40
0.9999999999999415
100
AcDbArc
 50
65.1121079736
 51
90.0
  0
ARC
  5
11C
330
1F
100
AcDbEntity
  8
0
  6
CONTINUOUS
 62
     7
100
AcDbCircle
 10
1608.0026099301
 20
754.6444877338
 30
0.0
 40
5.170000000000124
100
AcDbArc
 50
245.1121079736
 51
72.3995332141
  0
ARC
  5
11D
330
1F
100
AcDbEntity
  8
0
  6
CONTINUOUS
 62
     7
100
AcDbCircle
 10
1609.8682800697
 20
760.5256589548
 30
0.0
 40
0.9999999999999909
100
AcDbArc
 50
180.0
 51
252.3995332141
  0
LINE
  5
11E
330
1F
100
AcDbEntity
  8
0
  6
CONTINUOUS
 62
     7
100
AcDbLine
 10
1608.868262751
 20
762.5494910896
 30
0.0
 11
1608.868262751
 21
760.5256749809
 31
0.0
  0
LINE
  5
11F
330
1F
100
AcDbEntity
  8
0
  6
CONTINUOUS
 62
     7
100
AcDbLine
 10
1731.8682885002
 20
762.5494910896
 30
0.0
 11
1608.868262751
 21
762.5494910896
 31
0.0
  0
ARC
  5
120
330
1F
100
AcDbEntity
  8
0
  6
CONTINUOUS
 62
     7
100
AcDbCircle
 10
1731.8682800697
 20
750.549477315
 30
0.0
 40
12.0
100
AcDbArc
 50
0.0
 51
90.0
  0
LINE
  5
121
330
1F
100
AcDbEntity
  8
0
  6
CONTINUOUS
 62
     7
100
AcDbLine
 10
1743.8682532142
 20
653.7157608688
 30
0.0
 11
1743.8682532142
 21
750.5494667709
 31
0.0
  0
ARC
  5
122
330
1F
100
AcDbEntity
  8
0
  6
CONTINUOUS
 62
     7
100
AcDbCircle
 10
1755.8682800697
 20
653.715774808
 30
0.0
 40
12.0
100
AcDbArc
 50
180.0
 51
270.0
  0
LINE
  5
123
330
1F
100
AcDbEntity
  8
0
  6
CONTINUOUS
 62
     7
100
AcDbLine
 10
1771.8682503532
 20
641.7157961548
 30
0.0
 11
1755.8683371376
 21
641.7157961548
 31
0.0
  0
ARC
  5
124
330
1F
100
AcDbEntity
  8
0
  6
CONTINUOUS
 62
     7
100
AcDbCircle
 10
1771.8682800697
 20
653.715774808
 30
0.0
 40
12.0
100
AcDbArc
 50
270.0
 51
0.0
  0
LINE
  5
125
330
1F
100
AcDbEntity
  8
0
  6
CONTINUOUS
 62
     7
100
AcDbLine
 10
1783.8683342766
 20
750.5494667709
 30
0.0
 11
1783.8683342766
 21
653.7157608688
 31
0.0
  0
ARC
  5
126
330
1F
100
AcDbEntity
  8
0
  6
CONTINUOUS
 62
     7
100
AcDbCircle
 10
1795.8682800697
 20
750.549477315
 30
0.0
 40
12.0
100
AcDbArc
 50
90.0
 51
180.0
  0
LINE
  5
127
330
1F
100
AcDbEntity
  8
0
  6
CONTINUOUS
 62
     7
100
AcDbLine
 10
1918.8683247398
 20
762.5494910896
 30
0.0
 11
1795.8682989906
 21
762.5494910896
 31
0.0
  0
LINE
  5
128
330
1F
100
AcDbEntity
  8
0
  6
CONTINUOUS
 62
     7
100
AcDbLine
 10
1918.8683247398
 20
760.5256749809
 30
0.0
 11
1918.8683247398
 21
762.5494910896
 31
0.0
  0
ARC
  5
129
330
1F
100
AcDbEntity
  8
0
  6
CONTINUOUS
 62
     7
100
AcDbCircle
 10
1917.8682800697
 20
760.5256589548
 30
0.0
 40
1.0
100
AcDbArc
 50
287.6004667859
 51
0.0
  0
ARC
  5
12A
330
1F
100
AcDbEntity
  8
0
  6
CONTINUOUS
 62
     7
100
AcDbCircle
 10
1919.7339502093
 20
754.6444877338
 30
0.0
 40
5.170000000000124
100
AcDbArc
 50
107.6004667859
 51
294.8878920264
  0
ARC
  5
12B
330
1F
100
AcDbEntity
  8
0
  6
CONTINUOUS
 62
     7
100
AcDbCircle
 10
1922.3305584531
 20
749.047477315
 30
0.0
 40
0.9999999999999415
100
AcDbArc
 50
90.0
 51
114.8878920264
  0
LINE
  5
12C
330
1F
100
AcDbEntity
  8
0
  6
CONTINUOUS
 62
     7
100
AcDbLine
 10
1922.3305201362
 20
750.0474764526
 30
0.0
 11
1936.2702584099
 21
750.0474764526
 31
0.0
  0
ARC
  5
12D
330
1F
100
AcDbEntity
  8
0
  6
CONTINUOUS
 62
     7
100
AcDbCircle
 10
1936.2702341626
 20
751.047477315
 30
0.0
 40
1.000000000000156
100
AcDbArc
 50
270.0
 51
356.3380644245
  0
LINE
  5
12E
330
1F
100
AcDbEntity
  8
0
  6
CONTINUOUS
 62
     7
100
AcDbLine
 10
1937.2681593727
 20
750.9836270035
 30
0.0
 11
1937.6082634758
 21
756.2975002945
 31
0.0
  0
LINE
  5
12F
330
1F
100
AcDbEntity
  8
0
  6
CONTINUOUS
 62
     7
100
AcDbLine
 10
1937.6082634758
 20
756.2975002945
 30
0.0
 11
1942.8682541679
 21
756.2975002945
 31
0.0
  0
ARC
  5
130
330
1F
100
AcDbEntity
  8
0
  6
CONTINUOUS
 62
     7
100
AcDbCircle
 10
1942.8682800697
 20
755.297477315
 30
0.0
 40
1.000000000000227
100
AcDbArc
 50
0.0
 51
90.0
  0
LINE
  5
131
330
1F
100
AcDbEntity
  8
0
  6
CONTINUOUS
 62
     7
100
AcDbLine
 10
1943.8683008979
 20
743.5474707306
 30
0.0
 11
1943.8683008979
 21
755.2974535644
 31
0.0
  0
ARC
  5
132
330
1F
100
AcDbEntity
  8
0
  6
CONTINUOUS
 62
     7
100
AcDbCircle
 10
1919.7339502093
 20
419.953359375
 30
0.0
 40
5.169999999999985
100
AcDbArc
 50
65.1121079736
 51
252.3995332141
  0
ARC
  5
133
330
1F
100
AcDbEntity
  8
0
  6
CONTINUOUS
 62
     7
100
AcDbCircle
 10
1609.8682800697
 20
414.0721881541
 30
0.0
 40
1.000000000000099
100
AcDbArc
 50
107.6004667859
 51
180.0
  0
LINE
  5
134
330
1F
100
AcDbEntity
  8
0
  6
CONTINUOUS
 62
     7
100
AcDbLine
 10
1608.868262751
 20
412.0483709991
 30
0.0
 11
1731.8682885002
 21
412.0483709991
 31
0.0
  0
LINE
  5
135
330
1F
100
AcDbEntity
  8
0
  6
CONTINUOUS
 62
     7
100
AcDbLine
 10
1918.8683247398
 20
412.0483709991
 30
0.0
 11
1918.8683247398
 21
414.0721871078
 31
0.0
  0
ARC
  5
136
330
1F
100
AcDbEntity
  8
0
  6
CONTINUOUS
 62
     7
100
AcDbCircle
 10
1917.8682800697
 20
414.0721881541
 30
0.0
 40
1.00000000000006
100
AcDbArc
 50
0.0
 51
72.3995332141
  0
ARC
  5
137
330
1F
100
AcDbEntity
  8
0
  6
CONTINUOUS
 62
     7
100
AcDbCircle
 10
1731.8682800697
 20
424.0483697938
 30
0.0
 40
12.0
100
AcDbArc
 50
270.0
 51
0.0
  0
ARC
  5
138
330
1F
100
AcDbEntity
  8
0
  6
CONTINUOUS
 62
     7
100
AcDbCircle
 10
1589.8682800697
 20
49.0732622726
 30
0.0
 40
6.000000000000007
100
AcDbArc
 50
90.0
 51
180.0
  0
LINE
  5
139
330
1F
100
AcDbEntity
  8
0
  6
CONTINUOUS
 62
     7
100
AcDbLine
 10
1719.1683268379
 20
55.073262614
 30
0.0
 11
1589.8683285545
 21
55.073262614
 31
0.0
  0
ARC
  5
13A
330
1F
100
AcDbEntity
  8
0
  6
CONTINUOUS
 62
     7
100
AcDbCircle
 10
1719.1682800697
 20
67.0732622726
 30
0.0
 40
12.0
100
AcDbArc
 50
270.0
 51
0.0
  0
LINE
  5
13B
330
1F
100
AcDbEntity
  8
0
  6
CONTINUOUS
 62
     7
100
AcDbLine
 10
1731.1682915519
 20
150.904969734
 30
0.0
 11
1731.1682915519
 21
67.073264581
 31
0.0
  0
ARC
  5
13C
330
1F
100
AcDbEntity
  8
0
  6
CONTINUOUS
 62
     7
100
AcDbCircle
 10
1743.8682800697
 20
150.9049647797
 30
0.0
 40
12.70000000000007
100
AcDbArc
 50
120.0
 51
180.0
  0
ARC
  5
13D
330
1F
100
AcDbEntity
  8
0
  6
CONTINUOUS
 62
     7
100
AcDbCircle
 10
1731.1682800697
 20
172.9020100358
 30
0.0
 40
12.70000000000005
100
AcDbArc
 50
300.0
 51
0.0
  0
LINE
  5
13E
330
1F
100
AcDbEntity
  8
0
  6
CONTINUOUS
 62
     7
100
AcDbLine
 10
1743.8682532142
 20
237.7416207016
 30
0.0
 11
1743.8682532142
 21
172.9020042837
 31
0.0
  0
ARC
  5
13F
330
1F
100
AcDbEntity
  8
0
  6
CONTINUOUS
 62
     7
100
AcDbCircle
 10
1731.1682800697
 20
237.7416220306
 30
0.0
 40
12.70000000000005
100
AcDbArc
 50
0.0
 51
60.0
  0
ARC
  5
140
330
1F
100
AcDbEntity
  8
0
  6
CONTINUOUS
 62
     7
100
AcDbCircle
 10
1743.8682800697
 20
259.7386672868
 30
0.0
 40
12.70000000000007
100
AcDbArc
 50
180.0
 51
240.0
  0
LINE
  5
141
330
1F
100
AcDbEntity
  8
0
  6
CONTINUOUS
 62
     7
100
AcDbLine
 10
1731.1682915519
 20
343.570382756
 30
0.0
 11
1731.1682915519
 21
259.7386552513
 31
0.0
  0
ARC
  5
142
330
1F
100
AcDbEntity
  8
0
  6
CONTINUOUS
 62
     7
100
AcDbCircle
 10
1719.1682800697
 20
343.5703697938
 30
0.0
 40
12.0
100
AcDbArc
 50
0.0
 51
90.0
  0
LINE
  5
143
330
1F
100
AcDbEntity
  8
0
  6
CONTINUOUS
 62
     7
100
AcDbLine
 10
1589.8683285545
 20
355.5703772724
 30
0.0
 11
1719.1683268379
 21
355.5703772724
 31
0.0
  0
ARC
  5
144
330
1F
100
AcDbEntity
  8
0
  6
CONTINUOUS
 62
     7
100
AcDbCircle
 10
1589.8682800697
 20
361.5703697938
 30
0.0
 40
6.0
100
AcDbArc
 50
180.0
 51
270.0
  0
LINE
  5
145
330
1F
100
AcDbEntity
  8
0
  6
CONTINUOUS
 62
     7
100
AcDbLine
 10
1583.8682865928
 20
373.3203722656
 30
0.0
 11
1583.8682865928
 21
361.5703596294
 31
0.0
  0
ARC
  5
146
330
1F
100
AcDbEntity
  8
0
  6
CONTINUOUS
 62
     7
100
AcDbCircle
 10
1584.8682800697
 20
373.3203697938
 30
0.0
 40
1.0
100
AcDbArc
 50
90.0
 51
180.0
  0
LINE
  5
147
330
1F
100
AcDbEntity
  8
0
  6
CONTINUOUS
 62
     7
100
AcDbLine
 10
1584.8683333229
 20
374.320359391
 30
0.0
 11
1590.128324015
 21
374.320359391
 31
0.0
  0
LINE
  5
148
330
1F
100
AcDbEntity
  8
0
  6
CONTINUOUS
 62
     7
100
AcDbLine
 10
1590.128324015
 20
374.320359391
 30
0.0
 11
1590.4683089088
 21
369.0064861
 31
0.0
  0
ARC
  5
149
330
1F
100
AcDbEntity
  8
0
  6
CONTINUOUS
 62
     7
100
AcDbCircle
 10
1591.4663259768
 20
369.0703697938
 30
0.0
 40
1.000000000000057
100
AcDbArc
 50
183.6619355755
 51
270.0
  0
LINE
  5
14A
330
1F
100
AcDbEntity
  8
0
  6
CONTINUOUS
 62
     7
100
AcDbLine
 10
1591.4663290809
 20
368.0703653515
 30
0.0
 11
1605.4059481453
 21
368.0703653515
 31
0.0
  0
ARC
  5
14B
330
1F
100
AcDbEntity
  8
0
  6
CONTINUOUS
 62
     7
100
AcDbCircle
 10
1605.4060016863
 20
367.0703697938
 30
0.0
 40
0.9999999999999432
100
AcDbArc
 50
65.1121079736
 51
90.0
  0
ARC
  5
14C
330
1F
100
AcDbEntity
  8
0
  6
CONTINUOUS
 62
     7
100
AcDbCircle
 10
1608.0026099301
 20
372.6673802126
 30
0.0
 40
5.17000000000008
100
AcDbArc
 50
245.1121079736
 51
72.3995332141
  0
ARC
  5
14D
330
1F
100
AcDbEntity
  8
0
  6
CONTINUOUS
 62
     7
100
AcDbCircle
 10
1609.8682800697
 20
378.5485514336
 30
0.0
 40
0.9999999999999909
100
AcDbArc
 50
180.0
 51
252.3995332141
  0
LINE
  5
14E
330
1F
100
AcDbEntity
  8
0
  6
CONTINUOUS
 62
     7
100
AcDbLine
 10
1608.868262751
 20
380.5723799885
 30
0.0
 11
1608.868262751
 21
378.5485638798
 31
0.0
  0
LINE
  5
14F
330
1F
100
AcDbEntity
  8
0
  6
CONTINUOUS
 62
     7
100
AcDbLine
 10
1731.8682885002
 20
380.5723799885
 30
0.0
 11
1608.868262751
 21
380.5723799885
 31
0.0
  0
ARC
  5
150
330
1F
100
AcDbEntity
  8
0
  6
CONTINUOUS
 62
     7
100
AcDbCircle
 10
1731.8682800697
 20
368.5723697938
 30
0.0
 40
12.00000000000006
100
AcDbArc
 50
0.0
 51
90.0
  0
LINE
  5
151
330
1F
100
AcDbEntity
  8
0
  6
CONTINUOUS
 62
     7
100
AcDbLine
 10
1743.8682532142
 20
271.73867957
 30
0.0
 11
1743.8682532142
 21
368.5723556698
 31
0.0
  0
ARC
  5
152
330
1F
100
AcDbEntity
  8
0
  6
CONTINUOUS
 62
     7
100
AcDbCircle
 10
1755.8682800697
 20
271.7386672868
 30
0.0
 40
12.0
100
AcDbArc
 50
180.0
 51
270.0
  0
LINE
  5
153
330
1F
100
AcDbEntity
  8
0
  6
CONTINUOUS
 62
     7
100
AcDbLine
 10
1771.8682503532
 20
259.7386552513
 30
0.0
 11
1755.8683371376
 21
259.7386552513
 31
0.0
  0
ARC
  5
154
330
1F
100
AcDbEntity
  8
0
  6
CONTINUOUS
 62
     7
100
AcDbCircle
 10
1771.8682800697
 20
271.7386672868
 30
0.0
 40
12.0
100
AcDbArc
 50
270.0
 51
0.0
  0
LINE
  5
155
330
1F
100
AcDbEntity
  8
0
  6
CONTINUOUS
 62
     7
100
AcDbLine
 10
1783.8683342766
 20
368.5723556698
 30
0.0
 11
1783.8683342766
 21
271.73867957
 31
0.0
  0
ARC
  5
156
330
1F
100
AcDbEntity
  8
0
  6
CONTINUOUS
 62
     7
100
AcDbCircle
 10
1795.8682800697
 20
368.5723697938
 30
0.0
 40
12.00000000000006
100
AcDbArc
 50
90.0
 51
180.0
  0
LINE
  5
157
330
1F
100
AcDbEntity
  8
0
  6
CONTINUOUS
 62
     7
100
AcDbLine
 10
1918.8683247398
 20
380.5723799885
 30
0.0
 11
1795.8682989906
 21
380.5723799885
 31
0.0
  0
LINE
  5
158
330
1F
100
AcDbEntity
  8
0
  6
CONTINUOUS
 62
     7
100
AcDbLine
 10
1918.8683247398
 20
378.5485638798
 30
0.0
 11
1918.8683247398
 21
380.5723799885
 31
0.0
  0
ARC
  5
159
330
1F
100
AcDbEntity
  8
0
  6
CONTINUOUS
 62
     7
100
AcDbCircle
 10
1917.8682800697
 20
378.5485514336
 30
0.0
 40
1.000000000000114
100
AcDbArc
 50
287.6004667859
 51
0.0
  0
ARC
  5
15A
330
1F
100
AcDbEntity
  8
0
  6
CONTINUOUS
 62
     7
100
AcDbCircle
 10
1919.7339502093
 20
372.6673802126
 30
0.0
 40
5.169999999999839
100
AcDbArc
 50
107.6004667859
 51
294.8878920264
  0
ARC
  5
15B
330
1F
100
AcDbEntity
  8
0
  6
CONTINUOUS
 62
     7
100
AcDbCircle
 10
1922.3305584531
 20
367.0703697938
 30
0.0
 40
1.000000000000243
100
AcDbArc
 50
90.0
 51
114.8878920264
  0
LINE
  5
15C
330
1F
100
AcDbEntity
  8
0
  6
CONTINUOUS
 62
     7
100
AcDbLine
 10
1922.3305201362
 20
368.0703653515
 30
0.0
 11
1936.2702584099
 21
368.0703653515
 31
0.0
  0
ARC
  5
15D
330
1F
100
AcDbEntity
  8
0
  6
CONTINUOUS
 62
     7
100
AcDbCircle
 10
1936.2702341626
 20
369.0703697938
 30
0.0
 40
1.00000000000016
100
AcDbArc
 50
270.0
 51
356.3380644245
  0
LINE
  5
15E
330
1F
100
AcDbEntity
  8
0
  6
CONTINUOUS
 62
     7
100
AcDbLine
 10
1937.2681593727
 20
369.0064861
 30
0.0
 11
1937.6082634758
 21
374.320359391
 31
0.0
  0
LINE
  5
15F
330
1F
100
AcDbEntity
  8
0
  6
CONTINUOUS
 62
     7
100
AcDbLine
 10
1937.6082634758
 20
374.320359391
 30
0.0
 11
1942.8682541679
 21
374.320359391
 31
0.0
  0
ARC
  5
160
330
1F
100
AcDbEntity
  8
0
  6
CONTINUOUS
 62
     7
100
AcDbCircle
 10
1942.8682800697
 20
373.3203697938
 30
0.0
 40
1.0
100
AcDbArc
 50
0.0
 51
90.0
  0
LINE
  5
161
330
1F
100
AcDbEntity
  8
0
  6
CONTINUOUS
 62
     7
100
AcDbLine
 10
1943.8683008979
 20
361.5703596294
 30
0.0
 11
1943.8683008979
 21
373.3203722656
 31
0.0
  0
ARC
  5
162
330
1F
100
AcDbEntity
  8
0
  6
CONTINUOUS
 62
     7
100
AcDbCircle
 10
1937.8682800697
 20
361.5703697938
 30
0.0
 40
6.000000000000057
100
AcDbArc
 50
270.0
 51
0.0
  0
LINE
  5
163
330
1F
100
AcDbEntity
  8
0
  6
CONTINUOUS
 62
     7
100
AcDbLine
 10
1808.5682606529
 20
355.5703772724
 30
0.0
 11
1937.8682589363
 21
355.5703772724
 31
0.0
  0
ARC
  5
164
330
1F
100
AcDbEntity
  8
0
  6
CONTINUOUS
 62
     7
100
AcDbCircle
 10
1808.5682800697
 20
343.5703697938
 30
0.0
 40
12.00000000000023
100
AcDbArc
 50
90.0
 51
180.0
  0
LINE
  5
165
330
1F
100
AcDbEntity
  8
0
  6
CONTINUOUS
 62
     7
100
AcDbLine
 10
1796.5682959388
 20
259.7386552513
 30
0.0
 11
1796.5682959388
 21
343.570382756
 31
0.0
  0
ARC
  5
166
330
1F
100
AcDbEntity
  8
0
  6
CONTINUOUS
 62
     7
100
AcDbCircle
 10
1783.8682800697
 20
259.7386672868
 30
0.0
 40
12.69999999999991
100
AcDbArc
 50
300.0
 51
0.0
  0
ARC
  5
167
330
1F
100
AcDbEntity
  8
0
  6
CONTINUOUS
 62
     7
100
AcDbCircle
 10
1796.5682800697
 20
237.7416220306
 30
0.0
 40
12.69999999999993
100
AcDbArc
 50
120.0
 51
180.0
  0
LINE
  5
168
330
1F
100
AcDbEntity
  8
0
  6
CONTINUOUS
 62
     7
100
AcDbLine
 10
1783.8683342766
 20
172.9020042837
 30
0.0
 11
1783.8683342766
 21
237.7416207016
 31
0.0
  0
ARC
  5
169
330
1F
100
AcDbEntity
  8
0
  6
CONTINUOUS
 62
     7
100
AcDbCircle
 10
1796.5682800697
 20
172.9020100358
 30
0.0
 40
12.69999999999991
100
AcDbArc
 50
180.0
 51
240.0
  0
ARC
  5
16A
330
1F
100
AcDbEntity
  8
0
  6
CONTINUOUS
 62
     7
100
AcDbCircle
 10
1783.8682800697
 20
150.9049647797
 30
0.0
 40
12.69999999999993
100
AcDbArc
 50
0.0
 51
60.0
  0
LINE
  5
16B
330
1F
100
AcDbEntity
  8
0
  6
CONTINUOUS
 62
     7
100
AcDbLine
 10
1796.5682959388
 20
67.073264581
 30
0.0
 11
1796.5682959388
 21
150.904969734
 31
0.0
  0
ARC
  5
16C
330
1F
100
AcDbEntity
  8
0
  6
CONTINUOUS
 62
     7
100
AcDbCircle
 10
1808.5682800697
 20
67.0732622726
 30
0.0
 40
12.00000000000023
100
AcDbArc
 50
180.0
 51
270.0
  0
LINE
  5
16D
330
1F
100
AcDbEntity
  8
0
  6
CONTINUOUS
 62
     7
100
AcDbLine
 10
1937.8682589363
 20
55.073262614
 30
0.0
 11
1808.5682606529
 21
55.073262614
 31
0.0
  0
ARC
  5
16E
330
1F
100
AcDbEntity
  8
0
  6
CONTINUOUS
 62
     7
100
AcDbCircle
 10
1937.8682800697
 20
49.0732622726
 30
0.0
 40
6.000000000000007
100
AcDbArc
 50
0.0
 51
90.0
  0
LINE
  5
16F
330
1F
100
AcDbEntity
  8
0
  6
CONTINUOUS
 62
     7
100
AcDbLine
 10
1943.8683008979
 20
37.3232638955
 30
0.0
 11
1943.8683008979
 21
49.0732616306
 31
0.0
  0
ARC
  5
170
330
1F
100
AcDbEntity
  8
0
  6
CONTINUOUS
 62
     7
100
AcDbCircle
 10
1942.8682800697
 20
37.3232622726
 30
0.0
 40
1.0
100
AcDbArc
 50
270.0
 51
0.0
  0
LINE
  5
171
330
1F
100
AcDbEntity
  8
0
  6
CONTINUOUS
 62
     7
100
AcDbLine
 10
1942.8682541679
 20
36.323261869
 30
0.0
 11
1937.6082634758
 21
36.323261869
 31
0.0
  0
LINE
  5
172
330
1F
100
AcDbEntity
  8
0
  6
CONTINUOUS
 62
     7
100
AcDbLine
 10
1937.6082634758
 20
36.323261869
 30
0.0
 11
1937.2681593727
 21
41.6371314347
 31
0.0
  0
ARC
  5
173
330
1F
100
AcDbEntity
  8
0
  6
CONTINUOUS
 62
     7
100
AcDbCircle
 10
1936.2702341626
 20
41.5732622726
 30
0.0
 40
1.000000000000153
100
AcDbArc
 50
3.6619355755
 51
90.0
  0
LINE
  5
174
330
1F
100
AcDbEntity
  8
0
  6
CONTINUOUS
 62
     7
100
AcDbLine
 10
1936.2702584099
 20
42.5732633591
 30
0.0
 11
1922.3305201362
 21
42.5732633591
 31
0.0
  0
ARC
  5
175
330
1F
100
AcDbEntity
  8
0
  6
CONTINUOUS
 62
     7
100
AcDbCircle
 10
1922.3305584531
 20
43.5732622726
 30
0.0
 40
0.9999999999998934
100
AcDbArc
 50
245.1121079736
 51
270.0
  0
ARC
  5
176
330
1F
100
AcDbEntity
  8
0
  6
CONTINUOUS
 62
     7
100
AcDbCircle
 10
1919.7339502093
 20
37.9762518538
 30
0.0
 40
5.170000000000112
100
AcDbArc
 50
65.1121079736
 51
252.3995332141
  0
ARC
  5
177
330
1F
100
AcDbEntity
  8
0
  6
CONTINUOUS
 62
     7
100
AcDbCircle
 10
1917.8682800697
 20
32.0950806329
 30
0.0
 40
1.000000000000148
100
AcDbArc
 50
0.0
 51
72.3995332141
  0
ARC
  5
178
330
1F
100
AcDbEntity
  8
0
  6
CONTINUOUS
 62
     7
100
AcDbCircle
 10
1795.8682800697
 20
42.0712622726
 30
0.0
 40
12.00000000000001
100
AcDbArc
 50
180.0
 51
270.0
  0
LINE
  5
179
330
1F
100
AcDbEntity
  8
0
  6
CONTINUOUS
 62
     7
100
AcDbLine
 10
1783.8683342766
 20
138.9049603165
 30
0.0
 11
1783.8683342766
 21
42.0712618649
 31
0.0
  0
ARC
  5
17A
330
1F
100
AcDbEntity
  8
0
  6
CONTINUOUS
 62
     7
100
AcDbCircle
 10
1771.8682800697
 20
138.9049647797
 30
0.0
 40
12.0
100
AcDbArc
 50
0.0
 51
90.0
  0
LINE
  5
17B
330
1F
100
AcDbEntity
  8
0
  6
CONTINUOUS
 62
     7
100
AcDbLine
 10
1755.8683371376
 20
150.904969734
 30
0.0
 11
1771.8682503532
 21
150.904969734
 31
0.0
  0
ARC
  5
17C
330
1F
100
AcDbEntity
  8
0
  6
CONTINUOUS
 62
     7
100
AcDbCircle
 10
1755.8682800697
 20
138.9049647797
 30
0.0
 40
12.0
100
AcDbArc
 50
90.0
 51
180.0
  0
LINE
  5
17D
330
1F
100
AcDbEntity
  8
0
  6
CONTINUOUS
 62
     7
100
AcDbLine
 10
1743.8682532142
 20
42.0712618649
 30
0.0
 11
1743.8682532142
 21
138.9049603165
 31
0.0
  0
ARC
  5
17E
330
1F
100
AcDbEntity
  8
0
  6
CONTINUOUS
 62
     7
100
AcDbCircle
 10
1731.8682800697
 20
42.0712622726
 30
0.0
 40
12.00000000000001
100
AcDbArc
 50
270.0
 51
0.0
  0
LINE
  5
17F
330
1F
100
AcDbEntity
  8
0
  6
CONTINUOUS
 62
     7
100
AcDbLine
 10
1608.868262751
 20
30.0712617606
 30
0.0
 11
1731.8682885002
 21
30.0712617606
 31
0.0
  0
ARC
  5
180
330
1F
100
AcDbEntity
  8
0
  6
CONTINUOUS
 62
     7
100
AcDbCircle
 10
1609.8682800697
 20
32.0950806329
 30
0.0
 40
1.0
100
AcDbArc
 50
107.6004667859
 51
180.0
  0
ARC
  5
181
330
1F
100
AcDbEntity
  8
0
  6
CONTINUOUS
 62
     7
100
AcDbCircle
 10
1608.0026099301
 20
37.9762518538
 30
0.0
 40
5.170000000000215
100
AcDbArc
 50
287.6004667859
 51
114.8878920264
  0
ARC
  5
182
330
1F
100
AcDbEntity
  8
0
  6
CONTINUOUS
 62
     7
100
AcDbCircle
 10
1605.4060016863
 20
43.5732622726
 30
0.0
 40
0.9999999999997804
100
AcDbArc
 50
270.0
 51
294.8878920264
  0
LINE
  5
183
330
1F
100
AcDbEntity
  8
0
  6
CONTINUOUS
 62
     7
100
AcDbLine
 10
1605.4059481453
 20
42.5732633591
 30
0.0
 11
1591.4663290809
 21
42.5732633591
 31
0.0
  0
ARC
  5
184
330
1F
100
AcDbEntity
  8
0
  6
CONTINUOUS
 62
     7
100
AcDbCircle
 10
1591.4663259768
 20
41.5732622726
 30
0.0
 40
1.0
100
AcDbArc
 50
90.0
 51
176.3380644245
  0
LINE
  5
185
330
1F
100
AcDbEntity
  8
0
  6
CONTINUOUS
 62
     7
100
AcDbLine
 10
1590.4683089088
 20
41.6371314347
 30
0.0
 11
1590.128324015
 21
36.323261869
 31
0.0
  0
LINE
  5
186
330
1F
100
AcDbEntity
  8
0
  6
CONTINUOUS
 62
     7
100
AcDbLine
 10
1590.128324015
 20
36.323261869
 30
0.0
 11
1584.8683333229
 21
36.323261869
 31
0.0
  0
ARC
  5
187
330
1F
100
AcDbEntity
  8
0
  6
CONTINUOUS
 62
     7
100
AcDbCircle
 10
1584.8682800697
 20
37.3232622726
 30
0.0
 40
1.0
100
AcDbArc
 50
180.0
 51
270.0
  0
LINE
  5
188
330
1F
100
AcDbEntity
  8
0
  6
CONTINUOUS
 62
     7
100
AcDbLine
 10
1583.8682865928
 20
49.0732616306
 30
0.0
 11
1583.8682865928
 21
37.3232638955
 31
0.0
  0
LINE
  5
189
330
1F
100
AcDbEntity
  8
0
  6
CONTINUOUS
 62
     7
100
AcDbLine
 10
1608.868262751
 20
32.095079732
 30
0.0
 11
1608.868262751
 21
30.0712617606
 31
0.0
  0
LINE
  5
18A
330
1F
100
AcDbEntity
  8
0
  6
CONTINUOUS
 62
     7
100
AcDbLine
 10
1918.8683247398
 20
30.0712617606
 30
0.0
 11
1918.8683247398
 21
32.095079732
 31
0.0
  0
LINE
  5
18B
330
1F
100
AcDbEntity
  8
0
  6
CONTINUOUS
 62
     7
100
AcDbLine
 10
1795.8682989906
 20
30.0712617606
 30
0.0
 11
1918.8683247398
 21
30.0712617606
 31
0.0
  0
ARC
  5
18C
330
1F
100
AcDbEntity
  8
0
  6
CONTINUOUS
 62
     7
100
AcDbCircle
 10
490.4139965791
 20
73.8243333887
 30
0.0
 40
5.169999249139335
100
AcDbArc
 50
186.0551963346
 51
214.8878493682
  0
ARC
  5
18D
330
1F
100
AcDbEntity
  8
0
  6
CONTINUOUS
 62
     7
100
AcDbCircle
 10
485.3529131072
 20
70.2952680455
 30
0.0
 40
0.9999989171684194
100
AcDbArc
 50
10.0
 51
34.8878493683
  0
LINE
  5
18E
330
1F
100
AcDbEntity
  8
0
  6
CONTINUOUS
 62
     7
100
AcDbLine
 10
488.3199846576
 20
59.2268942416
 30
0.0
 11
486.3377129863
 21
70.4689188421
 31
0.0
  0
ARC
  5
18F
330
1F
100
AcDbEntity
  8
0
  6
CONTINUOUS
 62
     7
100
AcDbCircle
 10
487.3351850883
 20
59.0532449973
 30
0.0
 40
1.000000000000056
100
AcDbArc
 50
345.1121170491
 51
10.0
  0
ARC
  5
190
330
1F
100
AcDbEntity
  8
0
  6
CONTINUOUS
 62
     7
100
AcDbCircle
 10
493.2980608832
 20
57.4679966714
 30
0.0
 40
5.169999999999981
100
AcDbArc
 50
165.1121170491
 51
352.3995412421
  0
ARC
  5
191
330
1F
100
AcDbEntity
  8
0
  6
CONTINUOUS
 62
     7
100
AcDbCircle
 10
499.4138542326
 20
56.6519257753
 30
0.0
 40
1.000000000000006
100
AcDbArc
 50
100.0000385431
 51
172.3995412421
  0
LINE
  5
192
330
1F
100
AcDbEntity
  8
0
  6
CONTINUOUS
 62
     7
100
AcDbLine
 10
503.2224273513
 20
58.338907969
 30
0.0
 11
499.2402112316
 21
57.636731726
 31
0.0
  0
ARC
  5
193
330
1F
100
AcDbEntity
  8
0
  6
CONTINUOUS
 62
     7
100
AcDbCircle
 10
503.3960585529
 20
57.3540986018
 30
0.0
 40
1.000000000000089
100
AcDbArc
 50
27.6004748139
 51
100.0000385431
  0
ARC
  5
194
330
1F
100
AcDbEntity
  8
0
  6
CONTINUOUS
 62
     7
100
AcDbCircle
 10
508.8639109477
 20
60.2126804511
 30
0.0
 40
5.170000000000027
100
AcDbArc
 50
207.6004748139
 51
34.8879011019
  0
ARC
  5
195
330
1F
100
AcDbEntity
  8
0
  6
CONTINUOUS
 62
     7
100
AcDbCircle
 10
513.9249933532
 20
63.7417518424
 30
0.0
 40
1.000000000000086
100
AcDbArc
 50
190.0
 51
214.8879011019
  0
LINE
  5
196
330
1F
100
AcDbEntity
  8
0
  6
CONTINUOUS
 62
     7
100
AcDbLine
 10
510.9579181503
 20
74.8101113856
 30
0.0
 11
512.9401898216
 21
63.5681054116
 31
0.0
  0
ARC
  5
197
330
1F
100
AcDbEntity
  8
0
  6
CONTINUOUS
 62
     7
100
AcDbCircle
 10
511.9427509129
 20
74.9837676272
 30
0.0
 40
1.000027830745321
100
AcDbArc
 50
165.1121740788
 51
190.0
  0
ARC
  5
198
330
1F
100
AcDbEntity
  8
0
  6
CONTINUOUS
 62
     7
100
AcDbCircle
 10
505.9798466436
 20
76.5690171684
 30
0.0
 40
5.170000000000128
100
AcDbArc
 50
345.1121740788
 51
13.9447545661
  0
LINE
  5
199
330
1F
100
AcDbEntity
  8
0
  6
CONTINUOUS
 62
     7
100
AcDbLine
 10
510.9974956344
 20
77.8149156392
 30
0.0
 11
781.0623264145
 21
125.4346309722
 31
0.0
  0
ARC
  5
19A
330
1F
100
AcDbEntity
  8
0
  6
CONTINUOUS
 62
     7
100
AcDbCircle
 10
786.2034746226
 20
125.9799989775
 30
0.0
 40
5.169999249139295
100
AcDbArc
 50
186.0551963346
 51
214.8878493682
  0
ARC
  5
19B
330
1F
100
AcDbEntity
  8
0
  6
CONTINUOUS
 62
     7
100
AcDbCircle
 10
781.1423911507
 20
122.4509336342
 30
0.0
 40
0.9999989171684065
100
AcDbArc
 50
10.0
 51
34.8878493682
  0
LINE
  5
19C
330
1F
100
AcDbEntity
  8
0
  6
CONTINUOUS
 62
     7
100
AcDbLine
 10
784.1094946693
 20
111.3825602949
 30
0.0
 11
782.127222998
 21
122.6245848954
 31
0.0
  0
ARC
  5
19D
330
1F
100
AcDbEntity
  8
0
  6
CONTINUOUS
 62
     7
100
AcDbCircle
 10
783.1246631319
 20
111.2089105861
 30
0.0
 40
0.9999999999999931
100
AcDbArc
 50
345.1121170491
 51
10.0
  0
ARC
  5
19E
330
1F
100
AcDbEntity
  8
0
  6
CONTINUOUS
 62
     7
100
AcDbCircle
 10
789.0875389267
 20
109.6236622601
 30
0.0
 40
5.169999999999996
100
AcDbArc
 50
165.1121170491
 51
352.3995412421
  0
ARC
  5
19F
330
1F
100
AcDbEntity
  8
0
  6
CONTINUOUS
 62
     7
100
AcDbCircle
 10
795.2033322761
 20
108.8075913641
 30
0.0
 40
1.000000000000062
100
AcDbArc
 50
100.0000385431
 51
172.3995412421
  0
LINE
  5
1A0
330
1F
100
AcDbEntity
  8
0
  6
CONTINUOUS
 62
     7
100
AcDbLine
 10
799.0119075607
 20
110.494570297
 30
0.0
 11
795.0296616386
 21
109.7923977793
 31
0.0
  0
ARC
  5
1A1
330
1F
100
AcDbEntity
  8
0
  6
CONTINUOUS
 62
     7
100
AcDbCircle
 10
799.1855365965
 20
109.5097641906
 30
0.0
 40
0.9999999999999573
100
AcDbArc
 50
27.6004748139
 51
100.0000385431
  0
ARC
  5
1A2
330
1F
100
AcDbEntity
  8
0
  6
CONTINUOUS
 62
     7
100
AcDbCircle
 10
804.6533889913
 20
112.3683460398
 30
0.0
 40
5.170000000000035
100
AcDbArc
 50
207.6004748139
 51
34.8879011019
  0
ARC
  5
1A3
330
1F
100
AcDbEntity
  8
0
  6
CONTINUOUS
 62
     7
100
AcDbCircle
 10
809.7144713967
 20
115.8974174311
 30
0.0
 40
1.000000000000021
100
AcDbArc
 50
190.0
 51
214.8879011019
  0
LINE
  5
1A4
330
1F
100
AcDbEntity
  8
0
  6
CONTINUOUS
 62
     7
100
AcDbLine
 10
806.7473983596
 20
126.9657774389
 30
0.0
 11
808.7296700309
 21
115.7237677396
 31
0.0
  0
ARC
  5
1A5
330
1F
100
AcDbEntity
  8
0
  6
CONTINUOUS
 62
     7
100
AcDbCircle
 10
807.7322289564
 20
127.1394332159
 30
0.0
 40
1.000027830745253
100
AcDbArc
 50
165.1121740788
 51
190.0
  0
ARC
  5
1A6
330
1F
100
AcDbEntity
  8
0
  6
CONTINUOUS
 62
     7
100
AcDbCircle
 10
801.7693246872
 20
128.7246827572
 30
0.0
 40
5.170000000000013
100
AcDbArc
 50
345.1121740788
 51
13.9447545661
  0
LINE
  5
1A7
330
1F
100
AcDbEntity
  8
0
  6
CONTINUOUS
 62
     7
100
AcDbLine
 10
806.7869758438
 20
129.9705816925
 30
0.0
 11
833.4282851051
 21
134.6681727589
 31
0.0
  0
LINE
  5
1A8
330
1F
100
AcDbEntity
  8
0
  6
CONTINUOUS
 62
     7
100
AcDbLine
 10
833.4282851051
 20
106.5389303983
 30
0.0
 11
833.4282851051
 21
134.6681727589
 31
0.0
  0
ARC
  5
1A9
330
1F
100
AcDbEntity
  8
0
  6
CONTINUOUS
 62
     7
100
AcDbCircle
 10
827.4282800697
 20
106.538930122
 30
0.0
 40
6.00000000000002
100
AcDbArc
 50
280.0
 51
0.0
  0
LINE
  5
1AA
330
1F
100
AcDbEntity
  8
0
  6
CONTINUOUS
 62
     7
100
AcDbLine
 10
452.470175011
 20
34.3311386675
 30
0.0
 11
828.4701919388
 21
100.6300835431
 31
0.0
  0
ARC
  5
1AB
330
1F
100
AcDbEntity
  8
0
  6
CONTINUOUS
 62
     7
100
AcDbCircle
 10
451.4282800697
 20
40.2399853756
 30
0.0
 40
6.000000000000057
100
AcDbArc
 50
180.0
 51
280.0
  0
LINE
  5
1AC
330
1F
100
AcDbEntity
  8
0
  6
CONTINUOUS
 62
     7
100
AcDbLine
 10
445.428273661
 20
66.253298384
 30
0.0
 11
445.428273661
 21
40.23998366
 31
0.0
  0
LINE
  5
1AD
330
1F
100
AcDbEntity
  8
0
  6
CONTINUOUS
 62
     7
100
AcDbLine
 10
445.428273661
 20
66.253298384
 30
0.0
 11
485.2728462051
 21
73.2789649189
 31
0.0
  0
ARC
  5
1AE
330
1F
100
AcDbEntity
  8
0
  6
CONTINUOUS
 62
     7
100
AcDbCircle
 10
801.7693262558
 20
357.4035707219
 30
0.0
 40
5.169999999999918
100
AcDbArc
 50
346.0551969084
 51
14.8879011019
  0
ARC
  5
1AF
330
1F
100
AcDbEntity
  8
0
  6
CONTINUOUS
 62
     7
100
AcDbCircle
 10
807.7322015485
 20
358.9888209369
 30
0.0
 40
1.000000000000105
100
AcDbArc
 50
170.0
 51
194.8879011019
  0
LINE
  5
1B0
330
1F
100
AcDbEntity
  8
0
  6
CONTINUOUS
 62
     7
100
AcDbLine
 10
808.7296700309
 20
370.4044832409
 30
0.0
 11
806.7473983596
 21
359.1624809921
 31
0.0
  0
ARC
  5
1B1
330
1F
100
AcDbEntity
  8
0
  6
CONTINUOUS
 62
     7
100
AcDbCircle
 10
809.7144988047
 20
370.2308270562
 30
0.0
 40
1.000027830745326
100
AcDbArc
 50
145.1121740788
 51
170.0
  0
ARC
  5
1B2
330
1F
100
AcDbEntity
  8
0
  6
CONTINUOUS
 62
     7
100
AcDbCircle
 10
804.6533889397
 20
373.759907725
 30
0.0
 40
5.170000000000019
100
AcDbArc
 50
325.1121740788
 51
152.3995412421
  0
ARC
  5
1B3
330
1F
100
AcDbEntity
  8
0
  6
CONTINUOUS
 62
     7
100
AcDbCircle
 10
799.1855357439
 20
376.618488042
 30
0.0
 40
1.000000000000036
100
AcDbArc
 50
260.0000385431
 51
332.3995412421
  0
LINE
  5
1B4
330
1F
100
AcDbEntity
  8
0
  6
CONTINUOUS
 62
     7
100
AcDbLine
 10
795.0296616386
 20
376.3358606518
 30
0.0
 11
799.0119075607
 21
375.633688134
 31
0.0
  0
ARC
  5
1B5
330
1F
100
AcDbEntity
  8
0
  6
CONTINUOUS
 62
     7
100
AcDbCircle
 10
795.2033304788
 20
377.3206555108
 30
0.0
 40
1.00000075086069
100
AcDbArc
 50
187.6004748139
 51
260.0000385431
  0
ARC
  5
1B6
330
1F
100
AcDbEntity
  8
0
  6
CONTINUOUS
 62
     7
100
AcDbCircle
 10
789.0875373581
 20
376.5045829009
 30
0.0
 40
5.169999249139337
100
AcDbArc
 50
7.6004748139
 51
194.8878493682
  0
ARC
  5
1B7
330
1F
100
AcDbEntity
  8
0
  6
CONTINUOUS
 62
     7
100
AcDbCircle
 10
783.1246631319
 20
374.919338734
 30
0.0
 40
0.9999989171684399
100
AcDbArc
 50
350.0
 51
14.8878493682
  0
LINE
  5
1B8
330
1F
100
AcDbEntity
  8
0
  6
CONTINUOUS
 62
     7
100
AcDbLine
 10
782.127222998
 20
363.503666085
 30
0.0
 11
784.1094946693
 21
374.7456981361
 31
0.0
  0
ARC
  5
1B9
330
1F
100
AcDbEntity
  8
0
  6
CONTINUOUS
 62
     7
100
AcDbCircle
 10
781.1423911507
 20
363.6773156858
 30
0.0
 40
0.999999999999972
100
AcDbArc
 50
325.1121170491
 51
350.0
  0
ARC
  5
1BA
330
1F
100
AcDbEntity
  8
0
  6
CONTINUOUS
 62
     7
100
AcDbCircle
 10
786.2034746742
 20
360.1482458978
 30
0.0
 40
5.169999999999916
100
AcDbArc
 50
145.1121170491
 51
173.9447545661
  0
LINE
  5
1BB
330
1F
100
AcDbEntity
  8
0
  6
CONTINUOUS
 62
     7
100
AcDbLine
 10
781.0623264145
 20
360.6936051071
 30
0.0
 11
510.9974956344
 21
408.3133353413
 31
0.0
  0
ARC
  5
1BC
330
1F
100
AcDbEntity
  8
0
  6
CONTINUOUS
 62
     7
100
AcDbCircle
 10
505.9798482123
 20
409.5592363107
 30
0.0
 40
5.170000000000098
100
AcDbArc
 50
346.0551969084
 51
14.8879011019
  0
ARC
  5
1BD
330
1F
100
AcDbEntity
  8
0
  6
CONTINUOUS
 62
     7
100
AcDbCircle
 10
511.9427235049
 20
411.1444865256
 30
0.0
 40
0.9999999999999527
100
AcDbArc
 50
170.0
 51
194.8879011019
  0
LINE
  5
1BE
330
1F
100
AcDbEntity
  8
0
  6
CONTINUOUS
 62
     7
100
AcDbLine
 10
512.9401898216
 20
422.5601567448
 30
0.0
 11
510.9579181503
 21
411.3181246937
 31
0.0
  0
ARC
  5
1BF
330
1F
100
AcDbEntity
  8
0
  6
CONTINUOUS
 62
     7
100
AcDbCircle
 10
513.9250207611
 20
422.3864926449
 30
0.0
 40
1.000027830745326
100
AcDbArc
 50
145.1121740788
 51
170.0
  0
ARC
  5
1C0
330
1F
100
AcDbEntity
  8
0
  6
CONTINUOUS
 62
     7
100
AcDbCircle
 10
508.8639108962
 20
425.9155733137
 30
0.0
 40
5.170000000000024
100
AcDbArc
 50
325.1121740788
 51
152.3995412421
  0
ARC
  5
1C1
330
1F
100
AcDbEntity
  8
0
  6
CONTINUOUS
 62
     7
100
AcDbCircle
 10
503.3960577003
 20
428.7741536307
 30
0.0
 40
1.000000000000086
100
AcDbArc
 50
260.0000385431
 51
332.3995412421
  0
LINE
  5
1C2
330
1F
100
AcDbEntity
  8
0
  6
CONTINUOUS
 62
     7
100
AcDbLine
 10
499.2402112316
 20
428.4915043533
 30
0.0
 11
503.2224273513
 21
427.7893318355
 31
0.0
  0
ARC
  5
1C3
330
1F
100
AcDbEntity
  8
0
  6
CONTINUOUS
 62
     7
100
AcDbCircle
 10
499.4138524353
 20
429.4763210995
 30
0.0
 40
1.000000750860795
100
AcDbArc
 50
187.6004748139
 51
260.0000385431
  0
ARC
  5
1C4
330
1F
100
AcDbEntity
  8
0
  6
CONTINUOUS
 62
     7
100
AcDbCircle
 10
493.2980593146
 20
428.6602484896
 30
0.0
 40
5.169999249139232
100
AcDbArc
 50
7.6004748139
 51
194.8878493682
  0
ARC
  5
1C5
330
1F
100
AcDbEntity
  8
0
  6
CONTINUOUS
 62
     7
100
AcDbCircle
 10
487.3351850883
 20
427.0750043227
 30
0.0
 40
0.9999989171683995
100
AcDbArc
 50
350.0
 51
14.8878493682
  0
LINE
  5
1C6
330
1F
100
AcDbEntity
  8
0
  6
CONTINUOUS
 62
     7
100
AcDbLine
 10
486.3377129863
 20
415.6593395889
 30
0.0
 11
488.3199846576
 21
426.9013418377
 31
0.0
  0
ARC
  5
1C7
330
1F
100
AcDbEntity
  8
0
  6
CONTINUOUS
 62
     7
100
AcDbCircle
 10
485.3529131072
 20
415.8329812746
 30
0.0
 40
1.000000000000037
100
AcDbArc
 50
325.1121170491
 51
350.0
  0
ARC
  5
1C8
330
1F
100
AcDbEntity
  8
0
  6
CONTINUOUS
 62
     7
100
AcDbCircle
 10
490.4139966306
 20
412.3039114866
 30
0.0
 40
5.170000000000045
100
AcDbArc
 50
145.1121170491
 51
173.9447545661
  0
LINE
  5
1C9
330
1F
100
AcDbEntity
  8
0
  6
CONTINUOUS
 62
     7
100
AcDbLine
 10
485.2728462051
 20
412.849278611
 30
0.0
 11
445.428273661
 21
419.8749376953
 31
0.0
  0
LINE
  5
1CA
330
1F
100
AcDbEntity
  8
0
  6
CONTINUOUS
 62
     7
100
AcDbLine
 10
445.428273661
 20
445.8882524193
 30
0.0
 11
445.428273661
 21
419.8749376953
 31
0.0
  0
ARC
  5
1CB
330
1F
100
AcDbEntity
  8
0
  6
CONTINUOUS
 62
     7
100
AcDbCircle
 10
451.4282800697
 20
445.8882639444
 30
0.0
 40
6.000000000000057
100
AcDbArc
 50
80.0
 51
180.0
  0
LINE
  5
1CC
330
1F
100
AcDbEntity
  8
0
  6
CONTINUOUS
 62
     7
100
AcDbLine
 10
828.4701919388
 20
385.4981674374
 30
0.0
 11
452.470175011
 21
451.7970992744
 31
0.0
  0
ARC
  5
1CD
330
1F
100
AcDbEntity
  8
0
  6
CONTINUOUS
 62
     7
100
AcDbCircle
 10
827.4282800697
 20
379.589319198
 30
0.0
 40
6.0
100
AcDbArc
 50
0.0
 51
80.0
  0
LINE
  5
1CE
330
1F
100
AcDbEntity
  8
0
  6
CONTINUOUS
 62
     7
100
AcDbLine
 10
833.4282851051
 20
351.460070771
 30
0.0
 11
833.4282851051
 21
379.5893205822
 31
0.0
  0
LINE
  5
1CF
330
1F
100
AcDbEntity
  8
0
  6
CONTINUOUS
 62
     7
100
AcDbLine
 10
833.4282851051
 20
351.460070771
 30
0.0
 11
806.7869758438
 21
356.1576618374
 31
0.0
  0
LINE
  5
1D0
330
1F
100
AcDbEntity
  8
0
  6
CONTINUOUS
 62
     7
100
AcDbLine
 10
828.4701919388
 20
303.7496818722
 30
0.0
 11
818.3863973449
 21
301.9716157139
 31
0.0
  0
ARC
  5
1D1
330
1F
100
AcDbEntity
  8
0
  6
CONTINUOUS
 62
     7
100
AcDbCircle
 10
819.4282800697
 20
296.0627795839
 30
0.0
 40
6.000000000000034
100
AcDbArc
 50
100.0
 51
180.0
  0
LINE
  5
1D2
330
1F
100
AcDbEntity
  8
0
  6
CONTINUOUS
 62
     7
100
AcDbLine
 10
813.4283041786
 20
296.0627688587
 30
0.0
 11
813.4283041786
 21
190.0654746712
 31
0.0
  0
ARC
  5
1D3
330
1F
100
AcDbEntity
  8
0
  6
CONTINUOUS
 62
     7
100
AcDbCircle
 10
819.4282800697
 20
190.0654697362
 30
0.0
 40
6.000000000000006
100
AcDbArc
 50
180.0
 51
260.0
  0
LINE
  5
1D4
330
1F
100
AcDbEntity
  8
0
  6
CONTINUOUS
 62
     7
100
AcDbLine
 10
818.3863973449
 20
184.156627816
 30
0.0
 11
828.4701919388
 21
182.3785765589
 31
0.0
  0
ARC
  5
1D5
330
1F
100
AcDbEntity
  8
0
  6
CONTINUOUS
 62
     7
100
AcDbCircle
 10
827.4282800697
 20
176.4697345479
 30
0.0
 40
6.000000000000034
100
AcDbArc
 50
0.0
 51
80.0
  0
LINE
  5
1D6
330
1F
100
AcDbEntity
  8
0
  6
CONTINUOUS
 62
     7
100
AcDbLine
 10
833.4282851051
 20
153.6363376797
 30
0.0
 11
793.4282636474
 21
146.5832604587
 31
0.0
  0
LINE
  5
1D7
330
1F
100
AcDbEntity
  8
0
  6
CONTINUOUS
 62
     7
100
AcDbLine
 10
793.4282636474
 20
146.5832604587
 30
0.0
 11
793.4282636474
 21
339.5449830711
 31
0.0
  0
LINE
  5
1D8
330
1F
100
AcDbEntity
  8
0
  6
CONTINUOUS
 62
     7
100
AcDbLine
 10
833.4282851051
 20
309.6585287273
 30
0.0
 11
833.4282851051
 21
332.4919058502
 31
0.0
  0
LINE
  5
1D9
330
1F
100
AcDbEntity
  8
0
  6
CONTINUOUS
 62
     7
100
AcDbLine
 10
833.4282851051
 20
153.6363376797
 30
0.0
 11
833.4282851051
 21
176.4697297037
 31
0.0
  0
ARC
  5
1DA
330
1F
100
AcDbEntity
  8
0
  6
CONTINUOUS
 62
     7
100
AcDbCircle
 10
827.4282800697
 20
309.6585147722
 30
0.0
 40
6.0
100
AcDbArc
 50
280.0
 51
0.0
  0
LINE
  5
1DB
330
1F
100
AcDbEntity
  8
0
  6
CONTINUOUS
 62
     7
100
AcDbLine
 10
793.4282636474
 20
339.5449830711
 30
0.0
 11
833.4282851051
 21
332.4919058502
 31
0.0
  0
LINE
  5
1DC
330
1F
100
AcDbEntity
  8
0
  6
CONTINUOUS
 62
     7
100
AcDbLine
 10
445.428273661
 20
400.9067727745
 30
0.0
 11
445.428273661
 21
85.2214633048
 31
0.0
  0
LINE
  5
1DD
330
1F
100
AcDbEntity
  8
0
  6
CONTINUOUS
 62
     7
100
AcDbLine
 10
775.0882720779
 20
342.7788330734
 30
0.0
 11
775.0882720779
 21
143.3494253576
 31
0.0
  0
LINE
  5
1DE
330
1F
100
AcDbEntity
  8
0
  6
CONTINUOUS
 62
     7
100
AcDbLine
 10
775.0882720779
 20
143.3494253576
 30
0.0
 11
445.428273661
 21
85.2214633048
 31
0.0
  0
LINE
  5
1DF
330
1F
100
AcDbEntity
  8
0
  6
CONTINUOUS
 62
     7
100
AcDbLine
 10
445.428273661
 20
400.9067727745
 30
0.0
 11
775.0882720779
 21
342.7788330734
 31
0.0
  0
ARC
  5
1E0
330
1F
100
AcDbEntity
  8
0
  6
CONTINUOUS
 62
     7
100
AcDbCircle
 10
795.6535313378
 20
129.5407536532
 30
0.0
 40
1.000000000000062
100
AcDbArc
 50
280.0000385431
 51
352.3995412421
  0
LINE
  5
1E1
330
1F
100
AcDbEntity
  8
0
  6
CONTINUOUS
 62
     7
100
AcDbLine
 10
795.8271717857
 20
128.5559474051
 30
0.0
 11
791.8449854683
 21
127.8537748874
 31
0.0
  0
ARC
  5
1E2
330
1F
100
AcDbEntity
  8
0
  6
CONTINUOUS
 62
     7
100
AcDbCircle
 10
791.6713270174
 20
128.8385808267
 30
0.0
 40
1.00000000000012
100
AcDbArc
 50
207.6004748139
 51
280.0000385431
  0
ARC
  5
1E3
330
1F
100
AcDbEntity
  8
0
  6
CONTINUOUS
 62
     7
100
AcDbCircle
 10
499.8640532942
 20
77.3850880645
 30
0.0
 40
0.9999999999999976
100
AcDbArc
 50
280.0000385431
 51
352.3995412421
  0
LINE
  5
1E4
330
1F
100
AcDbEntity
  8
0
  6
CONTINUOUS
 62
     7
100
AcDbLine
 10
500.0376915764
 20
76.4002813518
 30
0.0
 11
496.0555052589
 21
75.6981088341
 31
0.0
  0
ARC
  5
1E5
330
1F
100
AcDbEntity
  8
0
  6
CONTINUOUS
 62
     7
100
AcDbCircle
 10
495.8818489739
 20
76.682915238
 30
0.0
 40
1.000000000000013
100
AcDbArc
 50
207.6004748139
 51
280.0000385431
  0
ARC
  5
1E6
330
1F
100
AcDbEntity
  8
0
  6
CONTINUOUS
 62
     7
100
AcDbCircle
 10
495.8818498265
 20
409.4453311696
 30
0.0
 40
1.000000000000086
100
AcDbArc
 50
80.0000385431
 51
152.3995412421
  0
LINE
  5
1E7
330
1F
100
AcDbEntity
  8
0
  6
CONTINUOUS
 62
     7
100
AcDbLine
 10
496.0555052589
 20
410.4301346958
 30
0.0
 11
500.0376915764
 21
409.727962178
 31
0.0
  0
ARC
  5
1E8
330
1F
100
AcDbEntity
  8
0
  6
CONTINUOUS
 62
     7
100
AcDbCircle
 10
499.8640550915
 20
408.7431637008
 30
0.0
 40
0.9999999999999991
100
AcDbArc
 50
7.6004748139
 51
80.0000385431
  0
ARC
  5
1E9
330
1F
100
AcDbEntity
  8
0
  6
CONTINUOUS
 62
     7
100
AcDbCircle
 10
791.67132787
 20
357.2896655809
 30
0.0
 40
0.9999999999999578
100
AcDbArc
 50
80.0000385431
 51
152.3995412421
  0
LINE
  5
1EA
330
1F
100
AcDbEntity
  8
0
  6
CONTINUOUS
 62
     7
100
AcDbLine
 10
791.8449854683
 20
358.2744611919
 30
0.0
 11
795.8271717857
 21
357.5723184765
 31
0.0
  0
ARC
  5
1EB
330
1F
100
AcDbEntity
  8
0
  6
CONTINUOUS
 62
     7
100
AcDbCircle
 10
795.6535331351
 20
356.5874981121
 30
0.0
 40
1.000000000000112
100
AcDbArc
 50
7.6004748139
 51
80.0000385431
  0
LINE
  5
1EC
330
1F
100
AcDbEntity
  8
0
  6
CONTINUOUS
 62
     7
100
AcDbLine
 10
445.428273661
 20
400.9067727745
 30
0.0
 11
445.428273661
 21
419.8749376953
 31
0.0
  0
LINE
  5
1ED
330
1F
100
AcDbEntity
  8
0
  6
CONTINUOUS
 62
     7
100
AcDbLine
 10
445.428273661
 20
66.253298384
 30
0.0
 11
445.428273661
 21
85.2214633048
 31
0.0
  0
ARC
  5
1EE
330
1F
100
AcDbEntity
  8
0
  6
CONTINUOUS
 62
     7
100
AcDbCircle
 10
786.2034746226
 20
125.9799989775
 30
0.0
 40
5.170000000000027
100
AcDbArc
 50
27.6004748139
 51
186.0551963346
  0
ARC
  5
1EF
330
1F
100
AcDbEntity
  8
0
  6
CONTINUOUS
 62
     7
100
AcDbCircle
 10
786.2034746742
 20
360.1482458978
 30
0.0
 40
5.170000000000094
100
AcDbArc
 50
173.9447545661
 51
332.3995412421
  0
ARC
  5
1F0
330
1F
100
AcDbEntity
  8
0
  6
CONTINUOUS
 62
     7
100
AcDbCircle
 10
801.7693262558
 20
357.4035707219
 30
0.0
 40
5.170000000000029
100
AcDbArc
 50
187.6004748139
 51
346.0551969084
  0
ARC
  5
1F1
330
1F
100
AcDbEntity
  8
0
  6
CONTINUOUS
 62
     7
100
AcDbCircle
 10
801.7693246872
 20
128.7246827572
 30
0.0
 40
5.170000000000013
100
AcDbArc
 50
13.9447545661
 51
172.3995412421
  0
LINE
  5
1F2
330
1F
100
AcDbEntity
  8
0
  6
CONTINUOUS
 62
     7
100
AcDbLine
 10
833.4282851051
 20
351.460070771
 30
0.0
 11
833.4282851051
 21
332.4919058502
 31
0.0
  0
LINE
  5
1F3
330
1F
100
AcDbEntity
  8
0
  6
CONTINUOUS
 62
     7
100
AcDbLine
 10
833.4282851051
 20
153.6363376797
 30
0.0
 11
833.4282851051
 21
134.6681727589
 31
0.0
  0
ARC
  5
1F4
330
1F
100
AcDbEntity
  8
0
  6
CONTINUOUS
 62
     7
100
AcDbCircle
 10
505.9798466436
 20
76.5690171684
 30
0.0
 40
5.170000000000128
100
AcDbArc
 50
13.9447545661
 51
172.3995412421
  0
ARC
  5
1F5
330
1F
100
AcDbEntity
  8
0
  6
CONTINUOUS
 62
     7
100
AcDbCircle
 10
505.9798482123
 20
409.5592363107
 30
0.0
 40
5.170000000000083
100
AcDbArc
 50
187.6004748139
 51
346.0551969084
  0
ARC
  5
1F6
330
1F
100
AcDbEntity
  8
0
  6
CONTINUOUS
 62
     7
100
AcDbCircle
 10
490.4139966306
 20
412.3039114866
 30
0.0
 40
5.170000000000045
100
AcDbArc
 50
173.9447545661
 51
332.3995412421
  0
ARC
  5
1F7
330
1F
100
AcDbEntity
  8
0
  6
CONTINUOUS
 62
     7
100
AcDbCircle
 10
490.4139965791
 20
73.8243333887
 30
0.0
 40
5.170000000000027
100
AcDbArc
 50
27.6004748139
 51
186.0551963346
  0
LINE
  5
1F8
330
1F
100
AcDbEntity
  8
0
  6
CONTINUOUS
 62
     7
100
AcDbLine
 10
1552.3883318733
 20
452.362896365
 30
0.0
 11
1552.3883318733
 21
489.806087178
 31
0.0
  0
LINE
  5
1F9
330
1F
100
AcDbEntity
  8
0
  6
CONTINUOUS
 62
     7
100
AcDbLine
 10
1224.3882632087
 20
452.362896365
 30
0.0
 11
1552.3883318733
 21
452.362896365
 31
0.0
  0
LINE
  5
1FA
330
1F
100
AcDbEntity
  8
0
  6
CONTINUOUS
 62
     7
100
AcDbLine
 10
1224.3882632087
 20
489.806087178
 30
0.0
 11
1224.3882632087
 21
452.362896365
 31
0.0
  0
LINE
  5
1FB
330
1F
100
AcDbEntity
  8
0
  6
CONTINUOUS
 62
     7
100
AcDbLine
 10
1224.3882632087
 20
489.806087178
 30
0.0
 11
1552.3883318733
 21
489.806087178
 31
0.0
  0
LINE
  5
1FC
330
1F
100
AcDbEntity
  8
0
  6
CONTINUOUS
 62
     7
100
AcDbLine
 10
1552.3883318733
 20
843.1745483101
 30
0.0
 11
1224.3882632087
 21
843.1745483101
 31
0.0
  0
LINE
  5
1FD
330
1F
100
AcDbEntity
  8
0
  6
CONTINUOUS
 62
     7
100
AcDbLine
 10
1552.3883318733
 20
508.2537843407
 30
0.0
 11
1224.3882632087
 21
508.2537843407
 31
0.0
  0
LINE
  5
1FE
330
1F
100
AcDbEntity
  8
0
  6
CONTINUOUS
 62
     7
100
AcDbLine
 10
1224.3882632087
 20
843.1745483101
 30
0.0
 11
1224.3882632087
 21
508.2537843407
 31
0.0
  0
LINE
  5
1FF
330
1F
100
AcDbEntity
  8
0
  6
CONTINUOUS
 62
     7
100
AcDbLine
 10
1552.3883318733
 20
508.2537843407
 30
0.0
 11
1552.3883318733
 21
843.1745483101
 31
0.0
  0
LINE
  5
200
330
1F
100
AcDbEntity
  8
0
  6
CONTINUOUS
 62
     7
100
AcDbLine
 10
1224.3882632087
 20
489.806087178
 30
0.0
 11
1224.3882632087
 21
508.2537843407
 31
0.0
  0
LINE
  5
201
330
1F
100
AcDbEntity
  8
0
  6
CONTINUOUS
 62
     7
100
AcDbLine
 10
1552.3883318733
 20
508.2537843407
 30
0.0
 11
1552.3883318733
 21
489.806087178
 31
0.0
  0
LINE
  5
202
330
1F
100
AcDbEntity
  8
0
  6
CONTINUOUS
 62
     7
100
AcDbLine
 10
1224.3882632087
 20
30.0712617606
 30
0.0
 11
1552.3883318733
 21
30.0712617606
 31
0.0
  0
LINE
  5
203
330
1F
100
AcDbEntity
  8
0
  6
CONTINUOUS
 62
     7
100
AcDbLine
 10
1224.3882632087
 20
67.5144432605
 30
0.0
 11
1224.3882632087
 21
30.0712617606
 31
0.0
  0
LINE
  5
204
330
1F
100
AcDbEntity
  8
0
  6
CONTINUOUS
 62
     7
100
AcDbLine
 10
1552.3883318733
 20
67.5144432605
 30
0.0
 11
1224.3882632087
 21
67.5144432605
 31
0.0
  0
LINE
  5
205
330
1F
100
AcDbEntity
  8
0
  6
CONTINUOUS
 62
     7
100
AcDbLine
 10
1552.3883318733
 20
30.0712617606
 30
0.0
 11
1552.3883318733
 21
67.5144432605
 31
0.0
  0
LINE
  5
206
330
1F
100
AcDbEntity
  8
0
  6
CONTINUOUS
 62
     7
100
AcDbLine
 10
1552.3883318733
 20
420.8829118431
 30
0.0
 11
1224.3882632087
 21
420.8829118431
 31
0.0
  0
LINE
  5
207
330
1F
100
AcDbEntity
  8
0
  6
CONTINUOUS
 62
     7
100
AcDbLine
 10
1224.3882632087
 20
85.9621180714
 30
0.0
 11
1552.3883318733
 21
85.9621180714
 31
0.0
  0
LINE
  5
208
330
1F
100
AcDbEntity
  8
0
  6
CONTINUOUS
 62
     7
100
AcDbLine
 10
1224.3882632087
 20
420.8829118431
 30
0.0
 11
1224.3882632087
 21
85.9621180714
 31
0.0
  0
LINE
  5
209
330
1F
100
AcDbEntity
  8
0
  6
CONTINUOUS
 62
     7
100
AcDbLine
 10
1552.3883318733
 20
85.9621180714
 30
0.0
 11
1552.3883318733
 21
420.8829118431
 31
0.0
  0
LINE
  5
20A
330
1F
100
AcDbEntity
  8
0
  6
CONTINUOUS
 62
     7
100
AcDbLine
 10
1224.3882632087
 20
67.5144432605
 30
0.0
 11
1224.3882632087
 21
85.9621180714
 31
0.0
  0
LINE
  5
20B
330
1F
100
AcDbEntity
  8
0
  6
CONTINUOUS
 62
     7
100
AcDbLine
 10
1552.3883318733
 20
85.9621180714
 30
0.0
 11
1552.3883318733
 21
67.5144432605
 31
0.0
  0
LINE
  5
20C
330
1F
100
AcDbEntity
  8
0
  6
CONTINUOUS
 62
     7
100
AcDbLine
 10
1192.9083084892
 20
248.0712695539
 30
0.0
 11
864.9082994293
 21
248.0712695539
 31
0.0
  0
LINE
  5
20D
330
1F
100
AcDbEntity
  8
0
  6
CONTINUOUS
 62
     7
100
AcDbLine
 10
1192.9083084892
 20
30.0712617606
 30
0.0
 11
1192.9083084892
 21
248.0712695539
 31
0.0
  0
LINE
  5
20E
330
1F
100
AcDbEntity
  8
0
  6
CONTINUOUS
 62
     7
100
AcDbLine
 10
864.9082994293
 20
30.0712617606
 30
0.0
 11
1192.9083084892
 21
30.0712617606
 31
0.0
  0
LINE
  5
20F
330
1F
100
AcDbEntity
  8
0
  6
CONTINUOUS
 62
     7
100
AcDbLine
 10
864.9082994293
 20
248.0712695539
 30
0.0
 11
864.9082994293
 21
30.0712617606
 31
0.0
  0
LINE
  5
210
330
1F
100
AcDbEntity
  8
POCKETS
100
AcDbLine
 10
1562.3882800697
 20
85.9621201093
 30
0.0
 11
1214.3882800697
 21
85.9621201093
 31
0.0
  0
LINE
  5
211
330
1F
100
AcDbEntity
  8
POCKETS
100
AcDbLine
 10
1214.3882800697
 20
85.9621201093
 30
0.0
 11
1214.3882800697
 21
67.5144410953
 31
0.0
  0
LINE
  5
212
330
1F
100
AcDbEntity
  8
POCKETS
100
AcDbLine
 10
1214.3882800697
 20
67.5144410953
 30
0.0
 11
1562.3882800697
 21
67.5144410953
 31
0.0
  0
LINE
  5
213
330
1F
100
AcDbEntity
  8
PROFILES_OUTSIDE
100
AcDbLine
 10
413.9482800697
 20
309.6585147722
 30
0.0
 11
413.9482800697
 21
384.6239169851
 31
0.0
  0
LINE
  5
214
330
1F
100
AcDbEntity
  8
PROFILES_OUTSIDE
100
AcDbLine
 10
413.9482800697
 20
384.6239169851
 30
0.0
 11
25.9482800697
 21
453.0387855
 31
0.0
  0
LINE
  5
215
330
1F
100
AcDbEntity
  8
PROFILES_OUTSIDE
100
AcDbLine
 10
25.9482800697
 20
453.0387855
 30
0.0
 11
25.9482800697
 21
33.0894638201
 31
0.0
  0
LINE
  5
216
330
1F
100
AcDbEntity
  8
PROFILES_OUTSIDE
100
AcDbLine
 10
25.9482800697
 20
33.0894638201
 30
0.0
 11
413.9482800697
 21
101.5043323349
 31
0.0
  0
LINE
  5
217
330
1F
100
AcDbEntity
  8
POCKETS
100
AcDbLine
 10
1562.3882800697
 20
67.5144410953
 30
0.0
 11
1562.3882800697
 21
85.9621201093
 31
0.0
  0
LINE
  5
218
330
1F
100
AcDbEntity
  8
PROFILES_OUTSIDE
100
AcDbLine
 10
413.9482800697
 20
101.5043323349
 30
0.0
 11
413.9482800697
 21
176.4697345479
 31
0.0
  0
LINE
  5
219
330
1F
100
AcDbEntity
  8
PROFILES_OUTSIDE
100
AcDbLine
 10
408.9901691357
 20
182.378581066
 30
0.0
 11
398.9063910037
 21
184.1566232181
 31
0.0
  0
LINE
  5
21A
330
1F
100
AcDbEntity
  8
PROFILES_OUTSIDE
100
AcDbLine
 10
393.9482800697
 20
190.0654697362
 30
0.0
 11
393.9482800697
 21
296.0627795839
 31
0.0
  0
LINE
  5
21B
330
1F
100
AcDbEntity
  8
PROFILES_OUTSIDE
100
AcDbLine
 10
398.9063910037
 20
301.971626102
 30
0.0
 11
408.9901691357
 21
303.7496682541
 31
0.0
  0
LINE
  5
21C
330
1F
100
AcDbEntity
  8
PROFILES_INSIDE
100
AcDbLine
 10
387.2673937955
 20
359.1624691145
 30
0.0
 11
389.2496636437
 21
370.4044800666
 31
0.0
  0
LINE
  5
21D
330
1F
100
AcDbEntity
  8
PROFILES_INSIDE
100
AcDbLine
 10
372.3649753852
 20
358.2744734507
 30
0.0
 11
376.3471806503
 21
357.5723059819
 31
0.0
  0
LINE
  5
21E
330
1F
100
AcDbEntity
  8
PROFILES_INSIDE
100
AcDbLine
 10
364.6294698185
 20
374.7456907444
 30
0.0
 11
362.6471989037
 21
363.5036675082
 31
0.0
  0
LINE
  5
21F
330
1F
100
AcDbEntity
  8
PROFILES_INSIDE
100
AcDbLine
 10
379.5318882287
 20
375.6336801721
 30
0.0
 11
375.5496827843
 21
376.3358466242
 31
0.0
  0
LINE
  5
220
330
1F
100
AcDbEntity
  8
PROFILES_OUTSIDE
100
AcDbLine
 10
1192.9082800697
 20
30.0712622726
 30
0.0
 11
1192.9082800697
 21
248.0712622726
 31
0.0
  0
LINE
  5
221
330
1F
100
AcDbEntity
  8
PROFILES_OUTSIDE
100
AcDbLine
 10
1192.9082800697
 20
248.0712622726
 30
0.0
 11
864.9082800697
 21
248.0712622726
 31
0.0
  0
LINE
  5
222
330
1F
100
AcDbEntity
  8
PROFILES_OUTSIDE
100
AcDbLine
 10
864.9082800697
 20
248.0712622726
 30
0.0
 11
864.9082800697
 21
30.0712622726
 31
0.0
  0
LINE
  5
223
330
1F
100
AcDbEntity
  8
PROFILES_OUTSIDE
100
AcDbLine
 10
864.9082800697
 20
30.0712622726
 30
0.0
 11
1192.9082800697
 21
30.0712622726
 31
0.0
  0
LINE
  5
224
330
1F
100
AcDbEntity
  8
PROFILES_OUTSIDE
100
AcDbLine
 10
1552.3882800697
 20
420.8829020315
 30
0.0
 11
1224.3882800697
 21
420.8829020315
 31
0.0
  0
LINE
  5
225
330
1F
100
AcDbEntity
  8
PROFILES_OUTSIDE
100
AcDbLine
 10
1224.3882800697
 20
420.8829020315
 30
0.0
 11
1224.3882800697
 21
30.0712622726
 31
0.0
  0
LINE
  5
226
330
1F
100
AcDbEntity
  8
PROFILES_OUTSIDE
100
AcDbLine
 10
1224.3882800697
 20
30.0712622726
 30
0.0
 11
1552.3882800697
 21
30.0712622726
 31
0.0
  0
LINE
  5
227
330
1F
100
AcDbEntity
  8
PROFILES_OUTSIDE
100
AcDbLine
 10
1552.3882800697
 20
30.0712622726
 30
0.0
 11
1552.3882800697
 21
420.8829020315
 31
0.0
  0
LINE
  5
228
330
1F
100
AcDbEntity
  8
PROFILES_OUTSIDE
100
AcDbLine
 10
1224.3882800697
 20
843.1745417905
 30
0.0
 11
1224.3882800697
 21
452.3629020315
 31
0.0
  0
LINE
  5
229
330
1F
100
AcDbEntity
  8
PROFILES_OUTSIDE
100
AcDbLine
 10
1224.3882800697
 20
452.3629020315
 30
0.0
 11
1552.3882800697
 21
452.3629020315
 31
0.0
  0
LINE
  5
22A
330
1F
100
AcDbEntity
  8
BOX_STOCK
100
AcDbLine
 10
0.2082800697
 20
4.3312622726
 30
0.0
 11
2440.2082800697
 21
4.3312622726
 31
0.0
  0
LINE
  5
22B
330
1F
100
AcDbEntity
  8
BOX_STOCK
100
AcDbLine
 10
2440.2082800697
 20
4.3312622726
 30
0.0
 11
2440.2082800697
 21
1224.3312622726
 31
0.0
  0
LINE
  5
22C
330
1F
100
AcDbEntity
  8
BOX_STOCK
100
AcDbLine
 10
2440.2082800697
 20
1224.3312622726
 30
0.0
 11
0.2082800697
 21
1224.3312622726
 31
0.0
  0
LINE
  5
22D
330
1F
100
AcDbEntity
  8
BOX_STOCK
100
AcDbLine
 10
0.2082800697
 20
1224.3312622726
 30
0.0
 11
0.2082800697
 21
4.3312622726
 31
0.0
  0
LINE
  5
22E
330
1F
100
AcDbEntity
  8
POCKETS
100
AcDbLine
 10
1562.3882800697
 20
508.2537598682
 30
0.0
 11
1214.3882800697
 21
508.2537598682
 31
0.0
  0
LINE
  5
22F
330
1F
100
AcDbEntity
  8
PROFILES_OUTSIDE
100
AcDbLine
 10
1552.3882800697
 20
452.3629020315
 30
0.0
 11
1552.3882800697
 21
843.1745417905
 31
0.0
  0
LINE
  5
230
330
1F
100
AcDbEntity
  8
POCKETS
100
AcDbLine
 10
1214.3882800697
 20
508.2537598682
 30
0.0
 11
1214.3882800697
 21
489.8060808542
 31
0.0
  0
LINE
  5
231
330
1F
100
AcDbEntity
  8
POCKETS
100
AcDbLine
 10
1214.3882800697
 20
489.8060808542
 30
0.0
 11
1562.3882800697
 21
489.8060808542
 31
0.0
  0
LINE
  5
232
330
1F
100
AcDbEntity
  8
POCKETS
100
AcDbLine
 10
1562.3882800697
 20
489.8060808542
 30
0.0
 11
1562.3882800697
 21
508.2537598682
 31
0.0
  0
LINE
  5
233
330
1F
100
AcDbEntity
  8
PROFILES_OUTSIDE
100
AcDbLine
 10
1552.3882800697
 20
843.1745417905
 30
0.0
 11
1224.3882800697
 21
843.1745417905
 31
0.0
  0
LINE
  5
234
330
1F
100
AcDbEntity
  8
PROFILES_INSIDE
100
AcDbLine
 10
91.3355125508
 20
411.3432442298
 30
0.0
 11
93.3177823991
 21
422.5852551818
 31
0.0
  0
LINE
  5
235
330
1F
100
AcDbEntity
  8
PROFILES_INSIDE
100
AcDbLine
 10
83.6000069841
 20
427.8144552874
 30
0.0
 11
79.6178016538
 21
428.5166223864
 31
0.0
  0
LINE
  5
236
330
1F
100
AcDbEntity
  8
PROFILES_INSIDE
100
AcDbLine
 10
68.6975884814
 20
426.9264658759
 30
0.0
 11
66.7153176591
 21
415.6844426234
 31
0.0
  0
LINE
  5
237
330
1F
100
AcDbEntity
  8
PROFILES_INSIDE
100
AcDbLine
 10
76.4330941406
 20
410.4552485659
 30
0.0
 11
80.4152994056
 21
409.7530810971
 31
0.0
  0
LINE
  5
238
330
1F
100
AcDbEntity
  8
PROFILES_INSIDE
100
AcDbLine
 10
389.2496636437
 20
115.7237692535
 30
0.0
 11
387.2673937955
 21
126.9657802055
 31
0.0
  0
LINE
  5
239
330
1F
100
AcDbEntity
  8
PROFILES_INSIDE
100
AcDbLine
 10
376.3471801779
 20
128.555946017
 30
0.0
 11
372.3649758739
 21
127.8537730981
 31
0.0
  0
LINE
  5
23A
330
1F
100
AcDbEntity
  8
PROFILES_INSIDE
100
AcDbLine
 10
362.6471976525
 20
122.6245815913
 30
0.0
 11
364.6294708849
 21
111.3825587637
 31
0.0
  0
LINE
  5
23B
330
1F
100
AcDbEntity
  8
PROFILES_INSIDE
100
AcDbLine
 10
375.549683436
 20
109.7923990003
 30
0.0
 11
379.5318877563
 21
110.4945718268
 31
0.0
  0
LINE
  5
23C
330
1F
100
AcDbEntity
  8
PROFILES_INSIDE
100
AcDbLine
 10
66.7153165927
 20
70.4438065086
 30
0.0
 11
68.6975896402
 21
59.2017836485
 31
0.0
  0
LINE
  5
23D
330
1F
100
AcDbEntity
  8
PROFILES_INSIDE
100
AcDbLine
 10
79.6178021914
 20
57.611623885
 30
0.0
 11
83.6000065117
 21
58.3137967115
 31
0.0
  0
LINE
  5
23E
330
1F
100
AcDbEntity
  8
PROFILES_INSIDE
100
AcDbLine
 10
93.3177823991
 20
63.5429941382
 30
0.0
 11
91.3355125508
 21
74.7850050903
 31
0.0
  0
LINE
  5
23F
330
1F
100
AcDbEntity
  8
PROFILES_INSIDE
100
AcDbLine
 10
80.4152989333
 20
76.3751709018
 30
0.0
 11
76.4330946129
 21
75.6729980753
 31
0.0
  0
LINE
  5
240
330
1F
100
AcDbEntity
  8
PROFILES_OUTSIDE
100
AcDbLine
 10
1590.1282800697
 20
374.3203697938
 30
0.0
 11
1584.8682800697
 21
374.3203697938
 31
0.0
  0
LINE
  5
241
330
1F
100
AcDbEntity
  8
PROFILES_OUTSIDE
100
AcDbLine
 10
1590.4683677068
 20
369.0065004645
 30
0.0
 11
1590.1282800697
 21
374.3203697938
 31
0.0
  0
LINE
  5
242
330
1F
100
AcDbEntity
  8
PROFILES_OUTSIDE
100
AcDbLine
 10
1605.4060016863
 20
368.0703697938
 30
0.0
 11
1591.4663259768
 21
368.0703697938
 31
0.0
  0
LINE
  5
243
330
1F
100
AcDbEntity
  8
PROFILES_OUTSIDE
100
AcDbLine
 10
1608.8682800697
 20
380.5723697938
 30
0.0
 11
1608.8682800697
 21
378.5485514336
 31
0.0
  0
LINE
  5
244
330
1F
100
AcDbEntity
  8
PROFILES_OUTSIDE
100
AcDbLine
 10
1731.8682800697
 20
380.5723697938
 30
0.0
 11
1608.8682800697
 21
380.5723697938
 31
0.0
  0
LINE
  5
245
330
1F
100
AcDbEntity
  8
PROFILES_OUTSIDE
100
AcDbLine
 10
1743.8682800697
 20
271.7386672868
 30
0.0
 11
1743.8682800697
 21
368.5723697938
 31
0.0
  0
LINE
  5
246
330
1F
100
AcDbEntity
  8
PROFILES_OUTSIDE
100
AcDbLine
 10
1771.8682800697
 20
259.7386672868
 30
0.0
 11
1755.8682800697
 21
259.7386672868
 31
0.0
  0
LINE
  5
247
330
1F
100
AcDbEntity
  8
PROFILES_OUTSIDE
100
AcDbLine
 10
1783.8682800697
 20
368.5723697938
 30
0.0
 11
1783.8682800697
 21
271.7386672868
 31
0.0
  0
LINE
  5
248
330
1F
100
AcDbEntity
  8
PROFILES_INSIDE
100
AcDbLine
 10
806.7473937955
 20
359.1624691145
 30
0.0
 11
808.7296636437
 21
370.4044800666
 31
0.0
  0
LINE
  5
249
330
1F
100
AcDbEntity
  8
PROFILES_INSIDE
100
AcDbLine
 10
791.8449753852
 20
358.2744734507
 30
0.0
 11
795.8271806503
 21
357.5723059819
 31
0.0
  0
LINE
  5
24A
330
1F
100
AcDbEntity
  8
PROFILES_INSIDE
100
AcDbLine
 10
784.1094698185
 20
374.7456907444
 30
0.0
 11
782.1271989037
 21
363.5036675082
 31
0.0
  0
LINE
  5
24B
330
1F
100
AcDbEntity
  8
PROFILES_INSIDE
100
AcDbLine
 10
799.0118882287
 20
375.6336801721
 30
0.0
 11
795.0296827843
 21
376.3358466242
 31
0.0
  0
LINE
  5
24C
330
1F
100
AcDbEntity
  8
PROFILES_INSIDE
100
AcDbLine
 10
510.9579157519
 20
411.3181347033
 30
0.0
 11
512.9401856002
 21
422.5601456553
 31
0.0
  0
LINE
  5
24D
330
1F
100
AcDbEntity
  8
PROFILES_INSIDE
100
AcDbLine
 10
503.2224101851
 20
427.7893457609
 30
0.0
 11
499.2402048549
 21
428.49151286
 31
0.0
  0
LINE
  5
24E
330
1F
100
AcDbEntity
  8
PROFILES_INSIDE
100
AcDbLine
 10
488.3199916825
 20
426.9013563494
 30
0.0
 11
486.3377208602
 21
415.6593330969
 31
0.0
  0
LINE
  5
24F
330
1F
100
AcDbEntity
  8
PROFILES_INSIDE
100
AcDbLine
 10
496.0554973417
 20
410.4301390394
 30
0.0
 11
500.0377026067
 21
409.7279715706
 31
0.0
  0
LINE
  5
250
330
1F
100
AcDbEntity
  8
PROFILES_INSIDE
100
AcDbLine
 10
808.7296636437
 20
115.7237692535
 30
0.0
 11
806.7473937955
 21
126.9657802055
 31
0.0
  0
LINE
  5
251
330
1F
100
AcDbEntity
  8
PROFILES_INSIDE
100
AcDbLine
 10
795.8271801779
 20
128.555946017
 30
0.0
 11
791.8449758739
 21
127.8537730981
 31
0.0
  0
LINE
  5
252
330
1F
100
AcDbEntity
  8
PROFILES_INSIDE
100
AcDbLine
 10
782.1271976525
 20
122.6245815913
 30
0.0
 11
784.1094708849
 21
111.3825587637
 31
0.0
  0
LINE
  5
253
330
1F
100
AcDbEntity
  8
PROFILES_INSIDE
100
AcDbLine
 10
795.029683436
 20
109.7923990003
 30
0.0
 11
799.0118877563
 21
110.4945718268
 31
0.0
  0
LINE
  5
254
330
1F
100
AcDbEntity
  8
PROFILES_OUTSIDE
100
AcDbLine
 10
1918.8682800697
 20
380.5723697938
 30
0.0
 11
1795.8682800697
 21
380.5723697938
 31
0.0
  0
LINE
  5
255
330
1F
100
AcDbEntity
  8
PROFILES_OUTSIDE
100
AcDbLine
 10
1918.8682800697
 20
378.5485514336
 30
0.0
 11
1918.8682800697
 21
380.5723697938
 31
0.0
  0
LINE
  5
256
330
1F
100
AcDbEntity
  8
PROFILES_OUTSIDE
100
AcDbLine
 10
1936.2702341626
 20
368.0703697938
 30
0.0
 11
1922.3305584531
 21
368.0703697938
 31
0.0
  0
LINE
  5
257
330
1F
100
AcDbEntity
  8
PROFILES_OUTSIDE
100
AcDbLine
 10
1937.6082800697
 20
374.3203697938
 30
0.0
 11
1937.2681924326
 21
369.0065004645
 31
0.0
  0
LINE
  5
258
330
1F
100
AcDbEntity
  8
PROFILES_OUTSIDE
100
AcDbLine
 10
1942.8682800697
 20
374.3203697938
 30
0.0
 11
1937.6082800697
 21
374.3203697938
 31
0.0
  0
LINE
  5
259
330
1F
100
AcDbEntity
  8
PROFILES_INSIDE
100
AcDbLine
 10
486.3377197938
 20
70.4689160351
 30
0.0
 11
488.3199928413
 21
59.226893175
 31
0.0
  0
LINE
  5
25A
330
1F
100
AcDbEntity
  8
PROFILES_INSIDE
100
AcDbLine
 10
499.2402053924
 20
57.6367334115
 30
0.0
 11
503.2224097128
 21
58.338906238
 31
0.0
  0
LINE
  5
25B
330
1F
100
AcDbEntity
  8
PROFILES_INSIDE
100
AcDbLine
 10
512.9401856002
 20
63.5681036647
 30
0.0
 11
510.9579157519
 21
74.8101146168
 31
0.0
  0
LINE
  5
25C
330
1F
100
AcDbEntity
  8
PROFILES_INSIDE
100
AcDbLine
 10
500.0377021344
 20
76.4002804283
 30
0.0
 11
496.055497814
 21
75.6981076018
 31
0.0
  0
LINE
  5
25D
330
1F
100
AcDbEntity
  8
PROFILES_OUTSIDE
100
AcDbLine
 10
445.4282800697
 20
445.8882639444
 30
0.0
 11
445.4282800697
 21
40.2399853756
 31
0.0
  0
LINE
  5
25E
330
1F
100
AcDbEntity
  8
PROFILES_OUTSIDE
100
AcDbLine
 10
828.4701691357
 20
385.4981657161
 30
0.0
 11
452.4701691357
 21
451.7971104625
 31
0.0
  0
LINE
  5
25F
330
1F
100
AcDbEntity
  8
PROFILES_OUTSIDE
100
AcDbLine
 10
833.4282800697
 20
309.6585147722
 30
0.0
 11
833.4282800697
 21
379.589319198
 31
0.0
  0
LINE
  5
260
330
1F
100
AcDbEntity
  8
PROFILES_OUTSIDE
100
AcDbLine
 10
818.3863910037
 20
301.971626102
 30
0.0
 11
828.4701691357
 21
303.7496682541
 31
0.0
  0
LINE
  5
261
330
1F
100
AcDbEntity
  8
POCKETS
100
AcDbLine
 10
424.0721518554
 20
155.4214463342
 30
0.0
 11
414.2240743253
 21
153.6849645576
 31
0.0
  0
LINE
  5
262
330
1F
100
AcDbEntity
  8
PROFILES_OUTSIDE
100
AcDbLine
 10
1943.8682800697
 20
361.5703697938
 30
0.0
 11
1943.8682800697
 21
373.3203697938
 31
0.0
  0
LINE
  5
263
330
1F
100
AcDbEntity
  8
PROFILES_OUTSIDE
100
AcDbLine
 10
1808.5682800697
 20
355.5703697938
 30
0.0
 11
1937.8682800697
 21
355.5703697938
 31
0.0
  0
LINE
  5
264
330
1F
100
AcDbEntity
  8
PROFILES_OUTSIDE
100
AcDbLine
 10
1796.5682800697
 20
259.7386672868
 30
0.0
 11
1796.5682800697
 21
343.5703697938
 31
0.0
  0
LINE
  5
265
330
1F
100
AcDbEntity
  8
PROFILES_OUTSIDE
100
AcDbLine
 10
1783.8682800697
 20
172.9020100358
 30
0.0
 11
1783.8682800697
 21
237.7416220306
 31
0.0
  0
LINE
  5
266
330
1F
100
AcDbEntity
  8
PROFILES_OUTSIDE
100
AcDbLine
 10
1796.5682800697
 20
67.0732622726
 30
0.0
 11
1796.5682800697
 21
150.9049647797
 31
0.0
  0
LINE
  5
267
330
1F
100
AcDbEntity
  8
PROFILES_OUTSIDE
100
AcDbLine
 10
1937.8682800697
 20
55.0732622726
 30
0.0
 11
1808.5682800697
 21
55.0732622726
 31
0.0
  0
LINE
  5
268
330
1F
100
AcDbEntity
  8
PROFILES_OUTSIDE
100
AcDbLine
 10
1943.8682800697
 20
37.3232622726
 30
0.0
 11
1943.8682800697
 21
49.0732622726
 31
0.0
  0
LINE
  5
269
330
1F
100
AcDbEntity
  8
PROFILES_OUTSIDE
100
AcDbLine
 10
1937.6082800697
 20
36.3232622726
 30
0.0
 11
1942.8682800697
 21
36.3232622726
 31
0.0
  0
LINE
  5
26A
330
1F
100
AcDbEntity
  8
PROFILES_OUTSIDE
100
AcDbLine
 10
1937.2681924326
 20
41.6371316019
 30
0.0
 11
1937.6082800697
 21
36.3232622726
 31
0.0
  0
LINE
  5
26B
330
1F
100
AcDbEntity
  8
PROFILES_OUTSIDE
100
AcDbLine
 10
1922.3305584531
 20
42.5732622726
 30
0.0
 11
1936.2702341626
 21
42.5732622726
 31
0.0
  0
LINE
  5
26C
330
1F
100
AcDbEntity
  8
PROFILES_OUTSIDE
100
AcDbLine
 10
1918.8682800697
 20
30.0712622726
 30
0.0
 11
1918.8682800697
 21
32.0950806329
 31
0.0
  0
LINE
  5
26D
330
1F
100
AcDbEntity
  8
PROFILES_OUTSIDE
100
AcDbLine
 10
1795.8682800697
 20
30.0712622726
 30
0.0
 11
1918.8682800697
 21
30.0712622726
 31
0.0
  0
LINE
  5
26E
330
1F
100
AcDbEntity
  8
PROFILES_OUTSIDE
100
AcDbLine
 10
1783.8682800697
 20
138.9049647797
 30
0.0
 11
1783.8682800697
 21
42.0712622726
 31
0.0
  0
LINE
  5
26F
330
1F
100
AcDbEntity
  8
PROFILES_OUTSIDE
100
AcDbLine
 10
1755.8682800697
 20
150.9049647797
 30
0.0
 11
1771.8682800697
 21
150.9049647797
 31
0.0
  0
LINE
  5
270
330
1F
100
AcDbEntity
  8
PROFILES_OUTSIDE
100
AcDbLine
 10
1743.8682800697
 20
42.0712622726
 30
0.0
 11
1743.8682800697
 21
138.9049647797
 31
0.0
  0
LINE
  5
271
330
1F
100
AcDbEntity
  8
PROFILES_OUTSIDE
100
AcDbLine
 10
1608.8682800697
 20
30.0712622726
 30
0.0
 11
1731.8682800697
 21
30.0712622726
 31
0.0
  0
LINE
  5
272
330
1F
100
AcDbEntity
  8
PROFILES_OUTSIDE
100
AcDbLine
 10
813.4282800697
 20
190.0654697362
 30
0.0
 11
813.4282800697
 21
296.0627795839
 31
0.0
  0
LINE
  5
273
330
1F
100
AcDbEntity
  8
POCKETS
100
AcDbLine
 10
427.3158998143
 20
137.025237508
 30
0.0
 11
424.0721518554
 21
155.4214463342
 31
0.0
  0
LINE
  5
274
330
1F
100
AcDbEntity
  8
PROFILES_OUTSIDE
100
AcDbLine
 10
828.4701691357
 20
182.378581066
 30
0.0
 11
818.3863910037
 21
184.1566232181
 31
0.0
  0
LINE
  5
275
330
1F
100
AcDbEntity
  8
POCKETS
100
AcDbLine
 10
417.4678222841
 20
135.2887557313
 30
0.0
 11
427.3158998143
 21
137.025237508
 31
0.0
  0
LINE
  5
276
330
1F
100
AcDbEntity
  8
POCKETS
100
AcDbLine
 10
25.6724858141
 20
66.2046669959
 30
0.0
 11
417.4678222841
 21
135.2887557313
 31
0.0
  0
LINE
  5
277
330
1F
100
AcDbEntity
  8
POCKETS
100
AcDbLine
 10
15.824408284
 20
64.4681852192
 30
0.0
 11
25.6724858141
 21
66.2046669959
 31
0.0
  0
LINE
  5
278
330
1F
100
AcDbEntity
  8
POCKETS
100
AcDbLine
 10
12.5806603251
 20
82.8643940455
 30
0.0
 11
15.824408284
 21
64.4681852192
 31
0.0
  0
LINE
  5
279
330
1F
100
AcDbEntity
  8
POCKETS
100
AcDbLine
 10
22.4287378553
 20
84.6008758221
 30
0.0
 11
12.5806603251
 21
82.8643940455
 31
0.0
  0
LINE
  5
27A
330
1F
100
AcDbEntity
  8
POCKETS
100
AcDbLine
 10
355.6082800697
 20
143.3494185346
 30
0.0
 11
22.4287378553
 21
84.6008758221
 31
0.0
  0
LINE
  5
27B
330
1F
100
AcDbEntity
  8
POCKETS
100
AcDbLine
 10
355.6082800697
 20
342.7788307854
 30
0.0
 11
355.6082800697
 21
143.3494185346
 31
0.0
  0
LINE
  5
27C
330
1F
100
AcDbEntity
  8
POCKETS
100
AcDbLine
 10
22.4287378553
 20
401.5273734979
 30
0.0
 11
355.6082800697
 21
342.7788307854
 31
0.0
  0
LINE
  5
27D
330
1F
100
AcDbEntity
  8
POCKETS
100
AcDbLine
 10
12.5806603251
 20
403.2638552746
 30
0.0
 11
22.4287378553
 21
401.5273734979
 31
0.0
  0
LINE
  5
27E
330
1F
100
AcDbEntity
  8
POCKETS
100
AcDbLine
 10
15.824408284
 20
421.6600641009
 30
0.0
 11
12.5806603251
 21
403.2638552746
 31
0.0
  0
LINE
  5
27F
330
1F
100
AcDbEntity
  8
POCKETS
100
AcDbLine
 10
25.6724858141
 20
419.9235823242
 30
0.0
 11
15.824408284
 21
421.6600641009
 31
0.0
  0
LINE
  5
280
330
1F
100
AcDbEntity
  8
POCKETS
100
AcDbLine
 10
417.4678222841
 20
350.8394935888
 30
0.0
 11
25.6724858141
 21
419.9235823242
 31
0.0
  0
LINE
  5
281
330
1F
100
AcDbEntity
  8
POCKETS
100
AcDbLine
 10
427.3158998143
 20
349.1030118121
 30
0.0
 11
417.4678222841
 21
350.8394935888
 31
0.0
  0
LINE
  5
282
330
1F
100
AcDbEntity
  8
POCKETS
100
AcDbLine
 10
424.0721518554
 20
330.7068029858
 30
0.0
 11
427.3158998143
 21
349.1030118121
 31
0.0
  0
LINE
  5
283
330
1F
100
AcDbEntity
  8
POCKETS
100
AcDbLine
 10
414.2240743253
 20
332.4432847625
 30
0.0
 11
424.0721518554
 21
330.7068029858
 31
0.0
  0
LINE
  5
284
330
1F
100
AcDbEntity
  8
POCKETS
100
AcDbLine
 10
373.9482800697
 20
339.5449939592
 30
0.0
 11
414.2240743253
 21
332.4432847625
 31
0.0
  0
LINE
  5
285
330
1F
100
AcDbEntity
  8
PROFILES_OUTSIDE
100
AcDbLine
 10
1608.8682800697
 20
32.0950806329
 30
0.0
 11
1608.8682800697
 21
30.0712622726
 31
0.0
  0
LINE
  5
286
330
1F
100
AcDbEntity
  8
PROFILES_OUTSIDE
100
AcDbLine
 10
1591.4663259768
 20
42.5732622726
 30
0.0
 11
1605.4060016863
 21
42.5732622726
 31
0.0
  0
LINE
  5
287
330
1F
100
AcDbEntity
  8
PROFILES_OUTSIDE
100
AcDbLine
 10
1590.1282800697
 20
36.3232622726
 30
0.0
 11
1590.4683677068
 21
41.6371316019
 31
0.0
  0
LINE
  5
288
330
1F
100
AcDbEntity
  8
PROFILES_OUTSIDE
100
AcDbLine
 10
1584.8682800697
 20
36.3232622726
 30
0.0
 11
1590.1282800697
 21
36.3232622726
 31
0.0
  0
LINE
  5
289
330
1F
100
AcDbEntity
  8
PROFILES_OUTSIDE
100
AcDbLine
 10
1583.8682800697
 20
49.0732622726
 30
0.0
 11
1583.8682800697
 21
37.3232622726
 31
0.0
  0
LINE
  5
28A
330
1F
100
AcDbEntity
  8
PROFILES_OUTSIDE
100
AcDbLine
 10
1719.1682800697
 20
55.0732622726
 30
0.0
 11
1589.8682800697
 21
55.0732622726
 31
0.0
  0
LINE
  5
28B
330
1F
100
AcDbEntity
  8
PROFILES_OUTSIDE
100
AcDbLine
 10
1731.1682800697
 20
150.9049647797
 30
0.0
 11
1731.1682800697
 21
67.0732622726
 31
0.0
  0
LINE
  5
28C
330
1F
100
AcDbEntity
  8
PROFILES_OUTSIDE
100
AcDbLine
 10
1743.8682800697
 20
237.7416220306
 30
0.0
 11
1743.8682800697
 21
172.9020100358
 31
0.0
  0
LINE
  5
28D
330
1F
100
AcDbEntity
  8
PROFILES_OUTSIDE
100
AcDbLine
 10
1731.1682800697
 20
343.5703697938
 30
0.0
 11
1731.1682800697
 21
259.7386672868
 31
0.0
  0
LINE
  5
28E
330
1F
100
AcDbEntity
  8
PROFILES_OUTSIDE
100
AcDbLine
 10
1589.8682800697
 20
355.5703697938
 30
0.0
 11
1719.1682800697
 21
355.5703697938
 31
0.0
  0
LINE
  5
28F
330
1F
100
AcDbEntity
  8
PROFILES_OUTSIDE
100
AcDbLine
 10
1583.8682800697
 20
373.3203697938
 30
0.0
 11
1583.8682800697
 21
361.5703697938
 31
0.0
  0
LINE
  5
290
330
1F
100
AcDbEntity
  8
POCKETS
100
AcDbLine
 10
373.9482800697
 20
146.5832553608
 30
0.0
 11
373.9482800697
 21
339.5449939592
 31
0.0
  0
LINE
  5
291
330
1F
100
AcDbEntity
  8
PROFILES_OUTSIDE
100
AcDbLine
 10
1937.6082800697
 20
418.3003697938
 30
0.0
 11
1942.8682800697
 21
418.3003697938
 31
0.0
  0
LINE
  5
292
330
1F
100
AcDbEntity
  8
PROFILES_OUTSIDE
100
AcDbLine
 10
1937.2681924326
 20
423.6142391231
 30
0.0
 11
1937.6082800697
 21
418.3003697938
 31
0.0
  0
LINE
  5
293
330
1F
100
AcDbEntity
  8
PROFILES_OUTSIDE
100
AcDbLine
 10
1922.3305584531
 20
424.5503697938
 30
0.0
 11
1936.2702341626
 21
424.5503697938
 31
0.0
  0
LINE
  5
294
330
1F
100
AcDbEntity
  8
PROFILES_OUTSIDE
100
AcDbLine
 10
1918.8682800697
 20
412.0483697938
 30
0.0
 11
1918.8682800697
 21
414.0721881541
 31
0.0
  0
LINE
  5
295
330
1F
100
AcDbEntity
  8
PROFILES_OUTSIDE
100
AcDbLine
 10
1795.8682800697
 20
412.0483697938
 30
0.0
 11
1918.8682800697
 21
412.0483697938
 31
0.0
  0
LINE
  5
296
330
1F
100
AcDbEntity
  8
PROFILES_OUTSIDE
100
AcDbLine
 10
1783.8682800697
 20
520.8820723009
 30
0.0
 11
1783.8682800697
 21
424.0483697938
 31
0.0
  0
LINE
  5
297
330
1F
100
AcDbEntity
  8
PROFILES_OUTSIDE
100
AcDbLine
 10
1755.8682800697
 20
532.8820723009
 30
0.0
 11
1771.8682800697
 21
532.8820723009
 31
0.0
  0
LINE
  5
298
330
1F
100
AcDbEntity
  8
PROFILES_OUTSIDE
100
AcDbLine
 10
1743.8682800697
 20
424.0483697938
 30
0.0
 11
1743.8682800697
 21
520.8820723009
 31
0.0
  0
LINE
  5
299
330
1F
100
AcDbEntity
  8
PROFILES_OUTSIDE
100
AcDbLine
 10
1608.8682800697
 20
412.0483697938
 30
0.0
 11
1731.8682800697
 21
412.0483697938
 31
0.0
  0
LINE
  5
29A
330
1F
100
AcDbEntity
  8
PROFILES_OUTSIDE
100
AcDbLine
 10
1608.8682800697
 20
414.0721881541
 30
0.0
 11
1608.8682800697
 21
412.0483697938
 31
0.0
  0
LINE
  5
29B
330
1F
100
AcDbEntity
  8
PROFILES_OUTSIDE
100
AcDbLine
 10
1591.4663259768
 20
424.5503697938
 30
0.0
 11
1605.4060016863
 21
424.5503697938
 31
0.0
  0
LINE
  5
29C
330
1F
100
AcDbEntity
  8
PROFILES_OUTSIDE
100
AcDbLine
 10
1590.1282800697
 20
418.3003697938
 30
0.0
 11
1590.4683677068
 21
423.6142391231
 31
0.0
  0
LINE
  5
29D
330
1F
100
AcDbEntity
  8
PROFILES_OUTSIDE
100
AcDbLine
 10
1584.8682800697
 20
418.3003697938
 30
0.0
 11
1590.1282800697
 21
418.3003697938
 31
0.0
  0
LINE
  5
29E
330
1F
100
AcDbEntity
  8
PROFILES_OUTSIDE
100
AcDbLine
 10
1583.8682800697
 20
431.0503697938
 30
0.0
 11
1583.8682800697
 21
419.3003697938
 31
0.0
  0
LINE
  5
29F
330
1F
100
AcDbEntity
  8
PROFILES_OUTSIDE
100
AcDbLine
 10
1719.1682800697
 20
437.0503697938
 30
0.0
 11
1589.8682800697
 21
437.0503697938
 31
0.0
  0
LINE
  5
2A0
330
1F
100
AcDbEntity
  8
PROFILES_OUTSIDE
100
AcDbLine
 10
1731.1682800697
 20
532.8820723009
 30
0.0
 11
1731.1682800697
 21
449.0503697938
 31
0.0
  0
LINE
  5
2A1
330
1F
100
AcDbEntity
  8
PROFILES_OUTSIDE
100
AcDbLine
 10
1743.8682800697
 20
619.7187295518
 30
0.0
 11
1743.8682800697
 21
554.879117557
 31
0.0
  0
LINE
  5
2A2
330
1F
100
AcDbEntity
  8
PROFILES_OUTSIDE
100
AcDbLine
 10
1731.1682800697
 20
725.547477315
 30
0.0
 11
1731.1682800697
 21
641.715774808
 31
0.0
  0
LINE
  5
2A3
330
1F
100
AcDbEntity
  8
PROFILES_OUTSIDE
100
AcDbLine
 10
1589.8682800697
 20
737.547477315
 30
0.0
 11
1719.1682800697
 21
737.547477315
 31
0.0
  0
LINE
  5
2A4
330
1F
100
AcDbEntity
  8
PROFILES_OUTSIDE
100
AcDbLine
 10
1583.8682800697
 20
755.297477315
 30
0.0
 11
1583.8682800697
 21
743.547477315
 31
0.0
  0
LINE
  5
2A5
330
1F
100
AcDbEntity
  8
PROFILES_OUTSIDE
100
AcDbLine
 10
1590.1282800697
 20
756.297477315
 30
0.0
 11
1584.8682800697
 21
756.297477315
 31
0.0
  0
LINE
  5
2A6
330
1F
100
AcDbEntity
  8
PROFILES_OUTSIDE
100
AcDbLine
 10
1590.4683677068
 20
750.9836079858
 30
0.0
 11
1590.1282800697
 21
756.297477315
 31
0.0
  0
LINE
  5
2A7
330
1F
100
AcDbEntity
  8
PROFILES_OUTSIDE
100
AcDbLine
 10
1605.4060016863
 20
750.047477315
 30
0.0
 11
1591.4663259768
 21
750.047477315
 31
0.0
  0
LINE
  5
2A8
330
1F
100
AcDbEntity
  8
PROFILES_OUTSIDE
100
AcDbLine
 10
1608.8682800697
 20
762.549477315
 30
0.0
 11
1608.8682800697
 21
760.5256589548
 31
0.0
  0
LINE
  5
2A9
330
1F
100
AcDbEntity
  8
PROFILES_OUTSIDE
100
AcDbLine
 10
1731.8682800697
 20
762.549477315
 30
0.0
 11
1608.8682800697
 21
762.549477315
 31
0.0
  0
LINE
  5
2AA
330
1F
100
AcDbEntity
  8
PROFILES_OUTSIDE
100
AcDbLine
 10
1743.8682800697
 20
653.715774808
 30
0.0
 11
1743.8682800697
 21
750.549477315
 31
0.0
  0
LINE
  5
2AB
330
1F
100
AcDbEntity
  8
PROFILES_OUTSIDE
100
AcDbLine
 10
1771.8682800697
 20
641.715774808
 30
0.0
 11
1755.8682800697
 21
641.715774808
 31
0.0
  0
LINE
  5
2AC
330
1F
100
AcDbEntity
  8
PROFILES_OUTSIDE
100
AcDbLine
 10
1783.8682800697
 20
750.549477315
 30
0.0
 11
1783.8682800697
 21
653.715774808
 31
0.0
  0
LINE
  5
2AD
330
1F
100
AcDbEntity
  8
PROFILES_OUTSIDE
100
AcDbLine
 10
1918.8682800697
 20
762.549477315
 30
0.0
 11
1795.8682800697
 21
762.549477315
 31
0.0
  0
LINE
  5
2AE
330
1F
100
AcDbEntity
  8
PROFILES_OUTSIDE
100
AcDbLine
 10
1918.8682800697
 20
760.5256589548
 30
0.0
 11
1918.8682800697
 21
762.549477315
 31
0.0
  0
LINE
  5
2AF
330
1F
100
AcDbEntity
  8
PROFILES_OUTSIDE
100
AcDbLine
 10
1936.2702341626
 20
750.047477315
 30
0.0
 11
1922.3305584531
 21
750.047477315
 31
0.0
  0
LINE
  5
2B0
330
1F
100
AcDbEntity
  8
PROFILES_OUTSIDE
100
AcDbLine
 10
1937.6082800697
 20
756.297477315
 30
0.0
 11
1937.2681924326
 21
750.9836079858
 31
0.0
  0
LINE
  5
2B1
330
1F
100
AcDbEntity
  8
PROFILES_OUTSIDE
100
AcDbLine
 10
1942.8682800697
 20
756.297477315
 30
0.0
 11
1937.6082800697
 21
756.297477315
 31
0.0
  0
LINE
  5
2B2
330
1F
100
AcDbEntity
  8
PROFILES_OUTSIDE
100
AcDbLine
 10
1943.8682800697
 20
743.547477315
 30
0.0
 11
1943.8682800697
 21
755.297477315
 31
0.0
  0
LINE
  5
2B3
330
1F
100
AcDbEntity
  8
PROFILES_OUTSIDE
100
AcDbLine
 10
1808.5682800697
 20
737.547477315
 30
0.0
 11
1937.8682800697
 21
737.547477315
 31
0.0
  0
LINE
  5
2B4
330
1F
100
AcDbEntity
  8
PROFILES_OUTSIDE
100
AcDbLine
 10
1796.5682800697
 20
641.715774808
 30
0.0
 11
1796.5682800697
 21
725.547477315
 31
0.0
  0
LINE
  5
2B5
330
1F
100
AcDbEntity
  8
PROFILES_OUTSIDE
100
AcDbLine
 10
1783.8682800697
 20
554.879117557
 30
0.0
 11
1783.8682800697
 21
619.7187295518
 31
0.0
  0
LINE
  5
2B6
330
1F
100
AcDbEntity
  8
PROFILES_OUTSIDE
100
AcDbLine
 10
1796.5682800697
 20
449.0503697938
 30
0.0
 11
1796.5682800697
 21
532.8820723009
 31
0.0
  0
LINE
  5
2B7
330
1F
100
AcDbEntity
  8
PROFILES_OUTSIDE
100
AcDbLine
 10
1937.8682800697
 20
437.0503697938
 30
0.0
 11
1808.5682800697
 21
437.0503697938
 31
0.0
  0
LINE
  5
2B8
330
1F
100
AcDbEntity
  8
PROFILES_OUTSIDE
100
AcDbLine
 10
1943.8682800697
 20
419.3003697938
 30
0.0
 11
1943.8682800697
 21
431.0503697938
 31
0.0
  0
LINE
  5
2B9
330
1F
100
AcDbEntity
  8
POCKETS
100
AcDbLine
 10
414.2240743253
 20
153.6849645576
 30
0.0
 11
373.9482800697
 21
146.5832553608
 31
0.0
  0
LINE
  5
2BA
330
1F
100
AcDbEntity
  8
POCKETS
100
AcDbLine
 10
793.4282800697
 20
339.5449939592
 30
0.0
 11
833.7040743253
 21
332.4432847625
 31
0.0
  0
LINE
  5
2BB
330
1F
100
AcDbEntity
  8
POCKETS
100
AcDbLine
 10
833.7040743253
 20
332.4432847625
 30
0.0
 11
843.5521518554
 21
330.7068029858
 31
0.0
  0
LINE
  5
2BC
330
1F
100
AcDbEntity
  8
POCKETS
100
AcDbLine
 10
843.5521518554
 20
330.7068029858
 30
0.0
 11
846.7958998143
 21
349.1030118121
 31
0.0
  0
LINE
  5
2BD
330
1F
100
AcDbEntity
  8
POCKETS
100
AcDbLine
 10
846.7958998143
 20
349.1030118121
 30
0.0
 11
836.9478222841
 21
350.8394935888
 31
0.0
  0
LINE
  5
2BE
330
1F
100
AcDbEntity
  8
POCKETS
100
AcDbLine
 10
836.9478222841
 20
350.8394935888
 30
0.0
 11
448.2781530121
 21
419.3724428645
 31
0.0
  0
LINE
  5
2BF
330
1F
100
AcDbEntity
  8
POCKETS
100
AcDbLine
 10
448.2781530121
 20
419.3724428645
 30
0.0
 11
438.430075482
 21
421.1089246411
 31
0.0
  0
LINE
  5
2C0
330
1F
100
AcDbEntity
  8
POCKETS
100
AcDbLine
 10
438.430075482
 20
421.1089246411
 30
0.0
 11
435.1863275231
 21
402.7127158149
 31
0.0
  0
LINE
  5
2C1
330
1F
100
AcDbEntity
  8
POCKETS
100
AcDbLine
 10
435.1863275231
 20
402.7127158149
 30
0.0
 11
445.0344050533
 21
400.9762340382
 31
0.0
  0
LINE
  5
2C2
330
1F
100
AcDbEntity
  8
POCKETS
100
AcDbLine
 10
445.0344050533
 20
400.9762340382
 30
0.0
 11
775.0882800697
 21
342.7788307854
 31
0.0
  0
LINE
  5
2C3
330
1F
100
AcDbEntity
  8
POCKETS
100
AcDbLine
 10
775.0882800697
 20
342.7788307854
 30
0.0
 11
775.0882800697
 21
143.3494185346
 31
0.0
  0
LINE
  5
2C4
330
1F
100
AcDbEntity
  8
POCKETS
100
AcDbLine
 10
775.0882800697
 20
143.3494185346
 30
0.0
 11
445.0344050533
 21
85.1520152819
 31
0.0
  0
LINE
  5
2C5
330
1F
100
AcDbEntity
  8
POCKETS
100
AcDbLine
 10
445.0344050533
 20
85.1520152819
 30
0.0
 11
435.1863275231
 21
83.4155335052
 31
0.0
  0
LINE
  5
2C6
330
1F
100
AcDbEntity
  8
POCKETS
100
AcDbLine
 10
435.1863275231
 20
83.4155335052
 30
0.0
 11
438.430075482
 21
65.0193246789
 31
0.0
  0
LINE
  5
2C7
330
1F
100
AcDbEntity
  8
POCKETS
100
AcDbLine
 10
438.430075482
 20
65.0193246789
 30
0.0
 11
448.2781530121
 21
66.7558064556
 31
0.0
  0
LINE
  5
2C8
330
1F
100
AcDbEntity
  8
POCKETS
100
AcDbLine
 10
448.2781530121
 20
66.7558064556
 30
0.0
 11
836.9478222841
 21
135.2887557313
 31
0.0
  0
LINE
  5
2C9
330
1F
100
AcDbEntity
  8
POCKETS
100
AcDbLine
 10
836.9478222841
 20
135.2887557313
 30
0.0
 11
846.7958998143
 21
137.025237508
 31
0.0
  0
LINE
  5
2CA
330
1F
100
AcDbEntity
  8
POCKETS
100
AcDbLine
 10
846.7958998143
 20
137.025237508
 30
0.0
 11
843.5521518554
 21
155.4214463342
 31
0.0
  0
LINE
  5
2CB
330
1F
100
AcDbEntity
  8
POCKETS
100
AcDbLine
 10
843.5521518554
 20
155.4214463342
 30
0.0
 11
833.7040743253
 21
153.6849645576
 31
0.0
  0
LINE
  5
2CC
330
1F
100
AcDbEntity
  8
POCKETS
100
AcDbLine
 10
833.7040743253
 20
153.6849645576
 30
0.0
 11
793.4282800697
 21
146.5832553608
 31
0.0
  0
LINE
  5
2CD
330
1F
100
AcDbEntity
  8
POCKETS
100
AcDbLine
 10
793.4282800697
 20
146.5832553608
 30
0.0
 11
793.4282800697
 21
339.5449939592
 31
0.0
  0
LINE
  5
2CE
330
1F
100
AcDbEntity
  8
PROFILES_OUTSIDE
100
AcDbLine
 10
833.4282800697
 20
106.538930122
 30
0.0
 11
833.4282800697
 21
176.4697345479
 31
0.0
  0
LINE
  5
2CF
330
1F
100
AcDbEntity
  8
PROFILES_OUTSIDE
100
AcDbLine
 10
452.4701691357
 20
34.3311388576
 30
0.0
 11
828.4701691357
 21
100.6300836039
 31
0.0
  0
ARC
  5
2D0
330
1F
100
AcDbEntity
  8
PROFILES_OUTSIDE
100
AcDbCircle
 10
407.9482800697
 20
176.4697345479
 30
0.0
 40
6.0000000000001
100
AcDbArc
 50
0.0
 51
80.0
  0
ARC
  5
2D1
330
1F
100
AcDbEntity
  8
PROFILES_OUTSIDE
100
AcDbCircle
 10
399.9482800697
 20
190.0654697362
 30
0.0
 40
6.0
100
AcDbArc
 50
180.0
 51
260.0
  0
ARC
  5
2D2
330
1F
100
AcDbEntity
  8
PROFILES_OUTSIDE
100
AcDbCircle
 10
399.9482800697
 20
296.0627795839
 30
0.0
 40
6.000000000000034
100
AcDbArc
 50
100.0
 51
180.0
  0
ARC
  5
2D3
330
1F
100
AcDbEntity
  8
PROFILES_OUTSIDE
100
AcDbCircle
 10
407.9482800697
 20
309.6585147722
 30
0.0
 40
6.000000000000057
100
AcDbArc
 50
280.0
 51
0.0
  0
ARC
  5
2D4
330
1F
100
AcDbEntity
  8
PROFILES_INSIDE
100
AcDbCircle
 10
401.9482800697
 20
117.6660875804
 30
0.0
 40
6.00000000000003
100
AcDbArc
 50
280.0
 51
0.0
  0
ARC
  5
2D5
330
1F
100
AcDbEntity
  8
PROFILES_OUTSIDE
100
AcDbCircle
 10
1942.8682800697
 20
373.3203697938
 30
0.0
 40
1.0
100
AcDbArc
 50
0.0
 51
90.0
  0
ARC
  5
2D6
330
1F
100
AcDbEntity
  8
PROFILES_INSIDE
100
AcDbCircle
 10
379.7055357439
 20
376.618488042
 30
0.0
 40
0.9999999999999776
100
AcDbArc
 50
260.0000385431
 51
332.3995412421
  0
ARC
  5
2D7
330
1F
100
AcDbEntity
  8
PROFILES_INSIDE
100
AcDbCircle
 10
385.1733889397
 20
373.759907725
 30
0.0
 40
5.170000000000017
100
AcDbArc
 50
325.1121740788
 51
152.3995412421
  0
ARC
  5
2D8
330
1F
100
AcDbEntity
  8
PROFILES_INSIDE
100
AcDbCircle
 10
390.2344988047
 20
370.2308270562
 30
0.0
 40
1.00002783074526
100
AcDbArc
 50
145.1121740788
 51
170.0
  0
ARC
  5
2D9
330
1F
100
AcDbEntity
  8
PROFILES_INSIDE
100
AcDbCircle
 10
388.2522015485
 20
358.9888209369
 30
0.0
 40
0.9999999999999527
100
AcDbArc
 50
170.0
 51
194.8879011019
  0
ARC
  5
2DA
330
1F
100
AcDbEntity
  8
PROFILES_INSIDE
100
AcDbCircle
 10
382.2893262558
 20
357.4035707219
 30
0.0
 40
5.170000000000012
100
AcDbArc
 50
187.6004748139
 51
14.8879011019
  0
ARC
  5
2DB
330
1F
100
AcDbEntity
  8
PROFILES_INSIDE
100
AcDbCircle
 10
376.1735331351
 20
356.5874981121
 30
0.0
 40
1.000000000000014
100
AcDbArc
 50
7.6004748139
 51
80.0000385431
  0
ARC
  5
2DC
330
1F
100
AcDbEntity
  8
PROFILES_INSIDE
100
AcDbCircle
 10
372.19132787
 20
357.2896655809
 30
0.0
 40
1.000000000000036
100
AcDbArc
 50
80.0000385431
 51
152.3995412421
  0
ARC
  5
2DD
330
1F
100
AcDbEntity
  8
PROFILES_INSIDE
100
AcDbCircle
 10
366.7234746742
 20
360.1482458978
 30
0.0
 40
5.170000000000043
100
AcDbArc
 50
145.1121170491
 51
332.3995412421
  0
ARC
  5
2DE
330
1F
100
AcDbEntity
  8
PROFILES_INSIDE
100
AcDbCircle
 10
361.6623911507
 20
363.6773156858
 30
0.0
 40
1.000000000000049
100
AcDbArc
 50
325.1121170491
 51
350.0
  0
ARC
  5
2DF
330
1F
100
AcDbEntity
  8
PROFILES_INSIDE
100
AcDbCircle
 10
363.6446631319
 20
374.919338734
 30
0.0
 40
0.9999989171684139
100
AcDbArc
 50
350.0
 51
14.8878493682
  0
ARC
  5
2E0
330
1F
100
AcDbEntity
  8
PROFILES_INSIDE
100
AcDbCircle
 10
369.6075373581
 20
376.5045829009
 30
0.0
 40
5.169998967566419
100
AcDbArc
 50
7.6004748139
 51
194.8878493682
  0
ARC
  5
2E1
330
1F
100
AcDbEntity
  8
PROFILES_INSIDE
100
AcDbCircle
 10
375.7233304788
 20
377.3206555108
 30
0.0
 40
1.000001032433552
100
AcDbArc
 50
187.6004748139
 51
260.0000385431
  0
ARC
  5
2E2
330
1F
100
AcDbEntity
  8
PROFILES_INSIDE
100
AcDbCircle
 10
94.3026175601
 20
422.4116021714
 30
0.0
 40
1.000027830745217
100
AcDbArc
 50
145.1121740788
 51
170.0
  0
ARC
  5
2E3
330
1F
100
AcDbEntity
  8
PROFILES_INSIDE
100
AcDbCircle
 10
89.2415076951
 20
425.9406828402
 30
0.0
 40
5.169999999999992
100
AcDbArc
 50
325.1121740788
 51
152.3995412421
  0
ARC
  5
2E4
330
1F
100
AcDbEntity
  8
PROFILES_INSIDE
100
AcDbCircle
 10
83.7736544992
 20
428.7992631572
 30
0.0
 40
1.000000000000113
100
AcDbArc
 50
260.0000385431
 51
332.3995412421
  0
ARC
  5
2E5
330
1F
100
AcDbEntity
  8
PROFILES_INSIDE
100
AcDbCircle
 10
79.7914492342
 20
429.501430626
 30
0.0
 40
1.000000563145569
100
AcDbArc
 50
187.6004748139
 51
260.0000385431
  0
ARC
  5
2E6
330
1F
100
AcDbEntity
  8
PROFILES_INSIDE
100
AcDbCircle
 10
73.6756561135
 20
428.6853580161
 30
0.0
 40
5.16999943685443
100
AcDbArc
 50
7.6004748139
 51
194.8878493682
  0
ARC
  5
2E7
330
1F
100
AcDbEntity
  8
PROFILES_INSIDE
100
AcDbCircle
 10
67.7127818872
 20
427.1001138492
 30
0.0
 40
0.9999988233109971
100
AcDbArc
 50
350.0
 51
14.8878493682
  0
ARC
  5
2E8
330
1F
100
AcDbEntity
  8
PROFILES_INSIDE
100
AcDbCircle
 10
65.7305099061
 20
415.8580908011
 30
0.0
 40
1.000000000000133
100
AcDbArc
 50
325.1121170491
 51
350.0
  0
ARC
  5
2E9
330
1F
100
AcDbEntity
  8
PROFILES_INSIDE
100
AcDbCircle
 10
70.7915934296
 20
412.3290210131
 30
0.0
 40
5.170000000000015
100
AcDbArc
 50
145.1121170491
 51
332.3995412421
  0
ARC
  5
2EA
330
1F
100
AcDbEntity
  8
PROFILES_INSIDE
100
AcDbCircle
 10
76.2594466254
 20
409.4704406961
 30
0.0
 40
1.000000000000075
100
AcDbArc
 50
80.0000385431
 51
152.3995412421
  0
ARC
  5
2EB
330
1F
100
AcDbEntity
  8
PROFILES_INSIDE
100
AcDbCircle
 10
80.2416518905
 20
408.7682732273
 30
0.0
 40
1.000000000000077
100
AcDbArc
 50
7.6004748139
 51
80.0000385431
  0
ARC
  5
2EC
330
1F
100
AcDbEntity
  8
PROFILES_INSIDE
100
AcDbCircle
 10
86.3574450112
 20
409.5843458372
 30
0.0
 40
5.170000000000019
100
AcDbArc
 50
187.6004748139
 51
14.8879011019
  0
ARC
  5
2ED
330
1F
100
AcDbEntity
  8
PROFILES_INSIDE
100
AcDbCircle
 10
92.3203203039
 20
411.1695960521
 30
0.0
 40
1.000000000000021
100
AcDbArc
 50
170.0
 51
194.8879011019
  0
ARC
  5
2EE
330
1F
100
AcDbEntity
  8
PROFILES_INSIDE
100
AcDbCircle
 10
385.1733889913
 20
112.3683460398
 30
0.0
 40
5.17000000000005
100
AcDbArc
 50
207.6004748139
 51
34.8879011019
  0
ARC
  5
2EF
330
1F
100
AcDbEntity
  8
PROFILES_INSIDE
100
AcDbCircle
 10
390.2344713967
 20
115.8974174311
 30
0.0
 40
0.9999999999999969
100
AcDbArc
 50
190.0
 51
214.8879011019
  0
ARC
  5
2F0
330
1F
100
AcDbEntity
  8
PROFILES_INSIDE
100
AcDbCircle
 10
388.2522289564
 20
127.1394332159
 30
0.0
 40
1.000027830745161
100
AcDbArc
 50
165.1121740788
 51
190.0
  0
ARC
  5
2F1
330
1F
100
AcDbEntity
  8
PROFILES_INSIDE
100
AcDbCircle
 10
382.2893246872
 20
128.7246827572
 30
0.0
 40
5.170000000000049
100
AcDbArc
 50
345.1121740788
 51
172.3995412421
  0
ARC
  5
2F2
330
1F
100
AcDbEntity
  8
PROFILES_INSIDE
100
AcDbCircle
 10
376.1735313378
 20
129.5407536532
 30
0.0
 40
1.000000000000013
100
AcDbArc
 50
280.0000385431
 51
352.3995412421
  0
ARC
  5
2F3
330
1F
100
AcDbEntity
  8
PROFILES_INSIDE
100
AcDbCircle
 10
372.1913270174
 20
128.8385808267
 30
0.0
 40
1.000000469288
100
AcDbArc
 50
207.6004748139
 51
280.0000385431
  0
ARC
  5
2F4
330
1F
100
AcDbEntity
  8
PROFILES_INSIDE
100
AcDbCircle
 10
366.7234746226
 20
125.9799989775
 30
0.0
 40
5.169999530712041
100
AcDbArc
 50
27.6004748139
 51
214.8878493682
  0
ARC
  5
2F5
330
1F
100
AcDbEntity
  8
PROFILES_INSIDE
100
AcDbCircle
 10
361.6623911507
 20
122.4509336342
 30
0.0
 40
0.9999987294533745
100
AcDbArc
 50
10.0
 51
34.8878493682
  0
ARC
  5
2F6
330
1F
100
AcDbEntity
  8
PROFILES_INSIDE
100
AcDbCircle
 10
363.6446631319
 20
111.2089105861
 30
0.0
 40
1.000000000000066
100
AcDbArc
 50
345.1121170491
 51
10.0
  0
ARC
  5
2F7
330
1F
100
AcDbEntity
  8
PROFILES_INSIDE
100
AcDbCircle
 10
369.6075389267
 20
109.6236622601
 30
0.0
 40
5.170000000000011
100
AcDbArc
 50
165.1121170491
 51
352.3995412421
  0
ARC
  5
2F8
330
1F
100
AcDbEntity
  8
PROFILES_INSIDE
100
AcDbCircle
 10
375.7233322761
 20
108.8075913641
 30
0.0
 40
1.000000000000013
100
AcDbArc
 50
100.0000385431
 51
172.3995412421
  0
ARC
  5
2F9
330
1F
100
AcDbEntity
  8
PROFILES_INSIDE
100
AcDbCircle
 10
379.7055365965
 20
109.5097641906
 30
0.0
 40
0.9999999999999769
100
AcDbArc
 50
27.6004748139
 51
100.0000385431
  0
ARC
  5
2FA
330
1F
100
AcDbEntity
  8
PROFILES_INSIDE
100
AcDbCircle
 10
67.7127818872
 20
59.0281354708
 30
0.0
 40
1.000000000000157
100
AcDbArc
 50
345.1121170491
 51
10.0
  0
ARC
  5
2FB
330
1F
100
AcDbEntity
  8
PROFILES_INSIDE
100
AcDbCircle
 10
73.6756576821
 20
57.4428871449
 30
0.0
 40
5.170000000000091
100
AcDbArc
 50
165.1121170491
 51
352.3995412421
  0
ARC
  5
2FC
330
1F
100
AcDbEntity
  8
PROFILES_INSIDE
100
AcDbCircle
 10
79.7914510315
 20
56.6268162488
 30
0.0
 40
0.9999999999999617
100
AcDbArc
 50
100.0000385431
 51
172.3995412421
  0
ARC
  5
2FD
330
1F
100
AcDbEntity
  8
PROFILES_INSIDE
100
AcDbCircle
 10
83.7736553519
 20
57.3289890753
 30
0.0
 40
0.9999999999999815
100
AcDbArc
 50
27.6004748139
 51
100.0000385431
  0
ARC
  5
2FE
330
1F
100
AcDbEntity
  8
PROFILES_INSIDE
100
AcDbCircle
 10
89.2415077466
 20
60.1875709246
 30
0.0
 40
5.170000000000182
100
AcDbArc
 50
207.6004748139
 51
34.8879011019
  0
ARC
  5
2FF
330
1F
100
AcDbEntity
  8
PROFILES_INSIDE
100
AcDbCircle
 10
94.3025901521
 20
63.7166423159
 30
0.0
 40
1.000000000000051
100
AcDbArc
 50
190.0
 51
214.8879011019
  0
ARC
  5
300
330
1F
100
AcDbEntity
  8
PROFILES_INSIDE
100
AcDbCircle
 10
92.3203477118
 20
74.9586581007
 30
0.0
 40
1.000027830745257
100
AcDbArc
 50
165.1121740788
 51
190.0
  0
ARC
  5
301
330
1F
100
AcDbEntity
  8
PROFILES_INSIDE
100
AcDbCircle
 10
86.3574434425
 20
76.5439076419
 30
0.0
 40
5.169999999999996
100
AcDbArc
 50
345.1121740788
 51
172.3995412421
  0
ARC
  5
302
330
1F
100
AcDbEntity
  8
PROFILES_INSIDE
100
AcDbCircle
 10
80.2416500931
 20
77.359978538
 30
0.0
 40
1.000000000000011
100
AcDbArc
 50
280.0000385431
 51
352.3995412421
  0
ARC
  5
303
330
1F
100
AcDbEntity
  8
PROFILES_INSIDE
100
AcDbCircle
 10
76.2594457728
 20
76.6578057115
 30
0.0
 40
1.000000093857612
100
AcDbArc
 50
207.6004748139
 51
280.0000385431
  0
ARC
  5
304
330
1F
100
AcDbEntity
  8
PROFILES_INSIDE
100
AcDbCircle
 10
70.791593378
 20
73.7992238622
 30
0.0
 40
5.16999990614244
100
AcDbArc
 50
27.6004748139
 51
214.8878493682
  0
ARC
  5
305
330
1F
100
AcDbEntity
  8
PROFILES_INSIDE
100
AcDbCircle
 10
65.7305099061
 20
70.270158519
 30
0.0
 40
0.9999989171684065
100
AcDbArc
 50
10.0
 51
34.8878493682
  0
ARC
  5
306
330
1F
100
AcDbEntity
  8
PROFILES_INSIDE
100
AcDbCircle
 10
799.1855357439
 20
376.618488042
 30
0.0
 40
1.000000000000136
100
AcDbArc
 50
260.0000385431
 51
332.3995412421
  0
ARC
  5
307
330
1F
100
AcDbEntity
  8
PROFILES_INSIDE
100
AcDbCircle
 10
804.6533889397
 20
373.759907725
 30
0.0
 40
5.170000000000019
100
AcDbArc
 50
325.1121740788
 51
152.3995412421
  0
ARC
  5
308
330
1F
100
AcDbEntity
  8
PROFILES_INSIDE
100
AcDbCircle
 10
809.7144988047
 20
370.2308270562
 30
0.0
 40
1.000027830745326
100
AcDbArc
 50
145.1121740788
 51
170.0
  0
ARC
  5
309
330
1F
100
AcDbEntity
  8
PROFILES_INSIDE
100
AcDbCircle
 10
807.7322015485
 20
358.9888209369
 30
0.0
 40
1.000000000000022
100
AcDbArc
 50
170.0
 51
194.8879011019
  0
ARC
  5
30A
330
1F
100
AcDbEntity
  8
PROFILES_INSIDE
100
AcDbCircle
 10
801.7693262558
 20
357.4035707219
 30
0.0
 40
5.170000000000019
100
AcDbArc
 50
187.6004748139
 51
14.8879011019
  0
ARC
  5
30B
330
1F
100
AcDbEntity
  8
PROFILES_INSIDE
100
AcDbCircle
 10
795.6535331351
 20
356.5874981121
 30
0.0
 40
0.9999999999999991
100
AcDbArc
 50
7.6004748139
 51
80.0000385431
  0
ARC
  5
30C
330
1F
100
AcDbEntity
  8
PROFILES_INSIDE
100
AcDbCircle
 10
791.67132787
 20
357.2896655809
 30
0.0
 40
0.9999999999999348
100
AcDbArc
 50
80.0000385431
 51
152.3995412421
  0
ARC
  5
30D
330
1F
100
AcDbEntity
  8
PROFILES_INSIDE
100
AcDbCircle
 10
786.2034746742
 20
360.1482458978
 30
0.0
 40
5.170000000000094
100
AcDbArc
 50
145.1121170491
 51
332.3995412421
  0
ARC
  5
30E
330
1F
100
AcDbEntity
  8
PROFILES_INSIDE
100
AcDbCircle
 10
781.1423911507
 20
363.6773156858
 30
0.0
 40
0.999999999999972
100
AcDbArc
 50
325.1121170491
 51
350.0
  0
ARC
  5
30F
330
1F
100
AcDbEntity
  8
PROFILES_INSIDE
100
AcDbCircle
 10
783.1246631319
 20
374.919338734
 30
0.0
 40
0.9999989171684041
100
AcDbArc
 50
350.0
 51
14.8878493682
  0
ARC
  5
310
330
1F
100
AcDbEntity
  8
PROFILES_INSIDE
100
AcDbCircle
 10
789.0875373581
 20
376.5045829009
 30
0.0
 40
5.169998967566419
100
AcDbArc
 50
7.6004748139
 51
194.8878493682
  0
ARC
  5
311
330
1F
100
AcDbEntity
  8
PROFILES_INSIDE
100
AcDbCircle
 10
795.2033304788
 20
377.3206555108
 30
0.0
 40
1.000001032433609
100
AcDbArc
 50
187.6004748139
 51
260.0000385431
  0
ARC
  5
312
330
1F
100
AcDbEntity
  8
PROFILES_INSIDE
100
AcDbCircle
 10
513.9250207611
 20
422.3864926449
 30
0.0
 40
1.000027830745326
100
AcDbArc
 50
145.1121740788
 51
170.0
  0
ARC
  5
313
330
1F
100
AcDbEntity
  8
PROFILES_INSIDE
100
AcDbCircle
 10
508.8639108962
 20
425.9155733137
 30
0.0
 40
5.170000000000024
100
AcDbArc
 50
325.1121740788
 51
152.3995412421
  0
ARC
  5
314
330
1F
100
AcDbEntity
  8
PROFILES_INSIDE
100
AcDbCircle
 10
503.3960577003
 20
428.7741536307
 30
0.0
 40
1.00000000000006
100
AcDbArc
 50
260.0000385431
 51
332.3995412421
  0
ARC
  5
315
330
1F
100
AcDbEntity
  8
PROFILES_INSIDE
100
AcDbCircle
 10
499.4138524353
 20
429.4763210995
 30
0.0
 40
1.00000056314554
100
AcDbArc
 50
187.6004748139
 51
260.0000385431
  0
ARC
  5
316
330
1F
100
AcDbEntity
  8
PROFILES_INSIDE
100
AcDbCircle
 10
493.2980593146
 20
428.6602484896
 30
0.0
 40
5.169999436854487
100
AcDbArc
 50
7.6004748139
 51
194.8878493682
  0
ARC
  5
317
330
1F
100
AcDbEntity
  8
PROFILES_INSIDE
100
AcDbCircle
 10
487.3351850883
 20
427.0750043227
 30
0.0
 40
0.9999988233107213
100
AcDbArc
 50
350.0
 51
14.8878493683
  0
ARC
  5
318
330
1F
100
AcDbEntity
  8
PROFILES_INSIDE
100
AcDbCircle
 10
485.3529131072
 20
415.8329812746
 30
0.0
 40
1.000000000000004
100
AcDbArc
 50
325.1121170491
 51
350.0
  0
ARC
  5
319
330
1F
100
AcDbEntity
  8
PROFILES_INSIDE
100
AcDbCircle
 10
490.4139966306
 20
412.3039114866
 30
0.0
 40
5.169999999999993
100
AcDbArc
 50
145.1121170491
 51
332.3995412421
  0
ARC
  5
31A
330
1F
100
AcDbEntity
  8
PROFILES_INSIDE
100
AcDbCircle
 10
495.8818498265
 20
409.4453311696
 30
0.0
 40
0.9999999999999852
100
AcDbArc
 50
80.0000385431
 51
152.3995412421
  0
ARC
  5
31B
330
1F
100
AcDbEntity
  8
PROFILES_INSIDE
100
AcDbCircle
 10
499.8640550915
 20
408.7431637008
 30
0.0
 40
0.9999999999999991
100
AcDbArc
 50
7.6004748139
 51
80.0000385431
  0
ARC
  5
31C
330
1F
100
AcDbEntity
  8
PROFILES_INSIDE
100
AcDbCircle
 10
505.9798482123
 20
409.5592363107
 30
0.0
 40
5.169999999999973
100
AcDbArc
 50
187.6004748139
 51
14.8879011019
  0
ARC
  5
31D
330
1F
100
AcDbEntity
  8
PROFILES_INSIDE
100
AcDbCircle
 10
511.9427235049
 20
411.1444865256
 30
0.0
 40
1.000000000000077
100
AcDbArc
 50
170.0
 51
194.8879011019
  0
ARC
  5
31E
330
1F
100
AcDbEntity
  8
PROFILES_INSIDE
100
AcDbCircle
 10
804.6533889913
 20
112.3683460398
 30
0.0
 40
5.170000000000017
100
AcDbArc
 50
207.6004748139
 51
34.8879011019
  0
ARC
  5
31F
330
1F
100
AcDbEntity
  8
PROFILES_INSIDE
100
AcDbCircle
 10
809.7144713967
 20
115.8974174311
 30
0.0
 40
0.9999999999999931
100
AcDbArc
 50
190.0
 51
214.8879011019
  0
ARC
  5
320
330
1F
100
AcDbEntity
  8
PROFILES_INSIDE
100
AcDbCircle
 10
807.7322289564
 20
127.1394332159
 30
0.0
 40
1.000027830745267
100
AcDbArc
 50
165.1121740788
 51
190.0
  0
ARC
  5
321
330
1F
100
AcDbEntity
  8
PROFILES_INSIDE
100
AcDbCircle
 10
801.7693246872
 20
128.7246827572
 30
0.0
 40
5.16999999999999
100
AcDbArc
 50
345.1121740788
 51
172.3995412421
  0
ARC
  5
322
330
1F
100
AcDbEntity
  8
PROFILES_INSIDE
100
AcDbCircle
 10
795.6535313378
 20
129.5407536532
 30
0.0
 40
1.000000000000013
100
AcDbArc
 50
280.0000385431
 51
352.3995412421
  0
ARC
  5
323
330
1F
100
AcDbEntity
  8
PROFILES_INSIDE
100
AcDbCircle
 10
791.6713270174
 20
128.8385808267
 30
0.0
 40
1.000000469287912
100
AcDbArc
 50
207.6004748139
 51
280.0000385431
  0
ARC
  5
324
330
1F
100
AcDbEntity
  8
PROFILES_INSIDE
100
AcDbCircle
 10
786.2034746226
 20
125.9799989775
 30
0.0
 40
5.16999953071221
100
AcDbArc
 50
27.6004748139
 51
214.8878493682
  0
ARC
  5
325
330
1F
100
AcDbEntity
  8
PROFILES_INSIDE
100
AcDbCircle
 10
781.1423911507
 20
122.4509336342
 30
0.0
 40
0.999998729453158
100
AcDbArc
 50
10.0
 51
34.8878493682
  0
ARC
  5
326
330
1F
100
AcDbEntity
  8
PROFILES_INSIDE
100
AcDbCircle
 10
783.1246631319
 20
111.2089105861
 30
0.0
 40
0.9999999999999931
100
AcDbArc
 50
345.1121170491
 51
10.0
  0
ARC
  5
327
330
1F
100
AcDbEntity
  8
PROFILES_INSIDE
100
AcDbCircle
 10
789.0875389267
 20
109.6236622601
 30
0.0
 40
5.169999999999996
100
AcDbArc
 50
165.1121170491
 51
352.3995412421
  0
ARC
  5
328
330
1F
100
AcDbEntity
  8
PROFILES_INSIDE
100
AcDbCircle
 10
795.2033322761
 20
108.8075913641
 30
0.0
 40
1.000000000000174
100
AcDbArc
 50
100.0000385431
 51
172.3995412421
  0
ARC
  5
329
330
1F
100
AcDbEntity
  8
PROFILES_INSIDE
100
AcDbCircle
 10
799.1855365965
 20
109.5097641906
 30
0.0
 40
0.9999999999999865
100
AcDbArc
 50
27.6004748139
 51
100.0000385431
  0
ARC
  5
32A
330
1F
100
AcDbEntity
  8
PROFILES_INSIDE
100
AcDbCircle
 10
487.3351850883
 20
59.0532449973
 30
0.0
 40
1.000000000000056
100
AcDbArc
 50
345.1121170491
 51
10.0
  0
ARC
  5
32B
330
1F
100
AcDbEntity
  8
PROFILES_INSIDE
100
AcDbCircle
 10
493.2980608832
 20
57.4679966714
 30
0.0
 40
5.169999999999981
100
AcDbArc
 50
165.1121170491
 51
352.3995412421
  0
ARC
  5
32C
330
1F
100
AcDbEntity
  8
PROFILES_INSIDE
100
AcDbCircle
 10
499.4138542326
 20
56.6519257753
 30
0.0
 40
1.000000000000006
100
AcDbArc
 50
100.0000385431
 51
172.3995412421
  0
ARC
  5
32D
330
1F
100
AcDbEntity
  8
PROFILES_INSIDE
100
AcDbCircle
 10
503.3960585529
 20
57.3540986018
 30
0.0
 40
1.000000000000089
100
AcDbArc
 50
27.6004748139
 51
100.0000385431
  0
ARC
  5
32E
330
1F
100
AcDbEntity
  8
PROFILES_INSIDE
100
AcDbCircle
 10
508.8639109477
 20
60.2126804511
 30
0.0
 40
5.169999999999927
100
AcDbArc
 50
207.6004748139
 51
34.8879011019
  0
ARC
  5
32F
330
1F
100
AcDbEntity
  8
PROFILES_INSIDE
100
AcDbCircle
 10
513.9249933532
 20
63.7417518424
 30
0.0
 40
1.000000000000086
100
AcDbArc
 50
190.0
 51
214.8879011019
  0
ARC
  5
330
330
1F
100
AcDbEntity
  8
PROFILES_INSIDE
100
AcDbCircle
 10
511.9427509129
 20
74.9837676272
 30
0.0
 40
1.000027830745321
100
AcDbArc
 50
165.1121740788
 51
190.0
  0
ARC
  5
331
330
1F
100
AcDbEntity
  8
PROFILES_INSIDE
100
AcDbCircle
 10
505.9798466436
 20
76.5690171684
 30
0.0
 40
5.170000000000035
100
AcDbArc
 50
345.1121740788
 51
172.3995412421
  0
ARC
  5
332
330
1F
100
AcDbEntity
  8
PROFILES_INSIDE
100
AcDbCircle
 10
499.8640532942
 20
77.3850880645
 30
0.0
 40
0.9999999999999976
100
AcDbArc
 50
280.0000385431
 51
352.3995412421
  0
ARC
  5
333
330
1F
100
AcDbEntity
  8
PROFILES_INSIDE
100
AcDbCircle
 10
495.8818489739
 20
76.682915238
 30
0.0
 40
1.00000009385757
100
AcDbArc
 50
207.6004748139
 51
280.0000385431
  0
ARC
  5
334
330
1F
100
AcDbEntity
  8
PROFILES_INSIDE
100
AcDbCircle
 10
490.4139965791
 20
73.8243333887
 30
0.0
 40
5.169999906142394
100
AcDbArc
 50
27.6004748139
 51
214.8878493682
  0
ARC
  5
335
330
1F
100
AcDbEntity
  8
PROFILES_INSIDE
100
AcDbCircle
 10
485.3529131072
 20
70.2952680455
 30
0.0
 40
0.999998917168409
100
AcDbArc
 50
10.0
 51
34.8878493683
  0
ARC
  5
336
330
1F
100
AcDbEntity
  8
PROFILES_OUTSIDE
100
AcDbCircle
 10
451.4282800697
 20
445.8882639444
 30
0.0
 40
6.000000000000057
100
AcDbArc
 50
80.0
 51
180.0
  0
ARC
  5
337
330
1F
100
AcDbEntity
  8
PROFILES_OUTSIDE
100
AcDbCircle
 10
827.4282800697
 20
379.589319198
 30
0.0
 40
6.0
100
AcDbArc
 50
0.0
 51
80.0
  0
ARC
  5
338
330
1F
100
AcDbEntity
  8
PROFILES_OUTSIDE
100
AcDbCircle
 10
827.4282800697
 20
309.6585147722
 30
0.0
 40
6.0
100
AcDbArc
 50
280.0
 51
0.0
  0
ARC
  5
339
330
1F
100
AcDbEntity
  8
PROFILES_OUTSIDE
100
AcDbCircle
 10
819.4282800697
 20
296.0627795839
 30
0.0
 40
6.000000000000034
100
AcDbArc
 50
100.0
 51
180.0
  0
ARC
  5
33A
330
1F
100
AcDbEntity
  8
PROFILES_OUTSIDE
100
AcDbCircle
 10
819.4282800697
 20
190.0654697362
 30
0.0
 40
6.000000000000006
100
AcDbArc
 50
180.0
 51
260.0
  0
ARC
  5
33B
330
1F
100
AcDbEntity
  8
PROFILES_OUTSIDE
100
AcDbCircle
 10
827.4282800697
 20
176.4697345479
 30
0.0
 40
6.0
100
AcDbArc
 50
0.0
 51
80.0
  0
ARC
  5
33C
330
1F
100
AcDbEntity
  8
PROFILES_OUTSIDE
100
AcDbCircle
 10
827.4282800697
 20
106.538930122
 30
0.0
 40
6.00000000000002
100
AcDbArc
 50
280.0
 51
0.0
  0
ARC
  5
33D
330
1F
100
AcDbEntity
  8
PROFILES_OUTSIDE
100
AcDbCircle
 10
451.4282800697
 20
40.2399853756
 30
0.0
 40
6.000000000000057
100
AcDbArc
 50
180.0
 51
280.0
  0
ARC
  5
33E
330
1F
100
AcDbEntity
  8
PROFILES_OUTSIDE
100
AcDbCircle
 10
1808.5682800697
 20
343.5703697938
 30
0.0
 40
12.00000000000006
100
AcDbArc
 50
90.0
 51
180.0
  0
ARC
  5
33F
330
1F
100
AcDbEntity
  8
PROFILES_OUTSIDE
100
AcDbCircle
 10
1808.5682800697
 20
67.0732622726
 30
0.0
 40
12.00000000000023
100
AcDbArc
 50
180.0
 51
270.0
  0
ARC
  5
340
330
1F
100
AcDbEntity
  8
PROFILES_OUTSIDE
100
AcDbCircle
 10
1942.8682800697
 20
37.3232622726
 30
0.0
 40
1.0
100
AcDbArc
 50
270.0
 51
0.0
  0
ARC
  5
341
330
1F
100
AcDbEntity
  8
PROFILES_OUTSIDE
100
AcDbCircle
 10
1591.4663259768
 20
369.0703697938
 30
0.0
 40
1.000000000000057
100
AcDbArc
 50
183.6619355755
 51
270.0
  0
ARC
  5
342
330
1F
100
AcDbEntity
  8
PROFILES_OUTSIDE
100
AcDbCircle
 10
1605.4060016863
 20
367.0703697938
 30
0.0
 40
0.99999999999989
100
AcDbArc
 50
65.1121079736
 51
90.0
  0
ARC
  5
343
330
1F
100
AcDbEntity
  8
PROFILES_OUTSIDE
100
AcDbCircle
 10
1608.0026099301
 20
372.6673802126
 30
0.0
 40
5.170000000000085
100
AcDbArc
 50
245.1121079736
 51
72.3995332141
  0
ARC
  5
344
330
1F
100
AcDbEntity
  8
PROFILES_OUTSIDE
100
AcDbCircle
 10
1609.8682800697
 20
378.5485514336
 30
0.0
 40
0.9999999999999367
100
AcDbArc
 50
180.0
 51
252.3995332141
  0
ARC
  5
345
330
1F
100
AcDbEntity
  8
PROFILES_OUTSIDE
100
AcDbCircle
 10
1731.8682800697
 20
368.5723697938
 30
0.0
 40
12.00000000000006
100
AcDbArc
 50
0.0
 51
90.0
  0
ARC
  5
346
330
1F
100
AcDbEntity
  8
PROFILES_OUTSIDE
100
AcDbCircle
 10
1755.8682800697
 20
271.7386672868
 30
0.0
 40
12.0
100
AcDbArc
 50
180.0
 51
270.0
  0
ARC
  5
347
330
1F
100
AcDbEntity
  8
PROFILES_OUTSIDE
100
AcDbCircle
 10
1771.8682800697
 20
271.7386672868
 30
0.0
 40
12.0
100
AcDbArc
 50
270.0
 51
0.0
  0
ARC
  5
348
330
1F
100
AcDbEntity
  8
PROFILES_OUTSIDE
100
AcDbCircle
 10
1795.8682800697
 20
368.5723697938
 30
0.0
 40
12.00000000000006
100
AcDbArc
 50
90.0
 51
180.0
  0
ARC
  5
349
330
1F
100
AcDbEntity
  8
PROFILES_OUTSIDE
100
AcDbCircle
 10
1917.8682800697
 20
378.5485514336
 30
0.0
 40
1.000000000000006
100
AcDbArc
 50
287.6004667859
 51
0.0
  0
ARC
  5
34A
330
1F
100
AcDbEntity
  8
PROFILES_OUTSIDE
100
AcDbCircle
 10
1919.7339502093
 20
372.6673802126
 30
0.0
 40
5.17000000000008
100
AcDbArc
 50
107.6004667859
 51
294.8878920264
  0
ARC
  5
34B
330
1F
100
AcDbEntity
  8
PROFILES_OUTSIDE
100
AcDbCircle
 10
1922.3305584531
 20
367.0703697938
 30
0.0
 40
1.0
100
AcDbArc
 50
90.0
 51
114.8878920264
  0
ARC
  5
34C
330
1F
100
AcDbEntity
  8
PROFILES_OUTSIDE
100
AcDbCircle
 10
1936.2702341626
 20
369.0703697938
 30
0.0
 40
1.0
100
AcDbArc
 50
270.0
 51
356.3380644245
  0
ARC
  5
34D
330
1F
100
AcDbEntity
  8
PROFILES_OUTSIDE
100
AcDbCircle
 10
1937.8682800697
 20
361.5703697938
 30
0.0
 40
6.000000000000057
100
AcDbArc
 50
270.0
 51
0.0
  0
ARC
  5
34E
330
1F
100
AcDbEntity
  8
PROFILES_OUTSIDE
100
AcDbCircle
 10
1584.8682800697
 20
37.3232622726
 30
0.0
 40
1.0
100
AcDbArc
 50
180.0
 51
270.0
  0
ARC
  5
34F
330
1F
100
AcDbEntity
  8
PROFILES_OUTSIDE
100
AcDbCircle
 10
1783.8682800697
 20
259.7386672868
 30
0.0
 40
12.69999999999991
100
AcDbArc
 50
300.0
 51
0.0
  0
ARC
  5
350
330
1F
100
AcDbEntity
  8
PROFILES_OUTSIDE
100
AcDbCircle
 10
1796.5682800697
 20
237.7416220306
 30
0.0
 40
12.69999999999988
100
AcDbArc
 50
120.0
 51
180.0
  0
ARC
  5
351
330
1F
100
AcDbEntity
  8
PROFILES_OUTSIDE
100
AcDbCircle
 10
1796.5682800697
 20
172.9020100358
 30
0.0
 40
12.69999999999991
100
AcDbArc
 50
180.0
 51
240.0
  0
ARC
  5
352
330
1F
100
AcDbEntity
  8
PROFILES_OUTSIDE
100
AcDbCircle
 10
1783.8682800697
 20
150.9049647797
 30
0.0
 40
12.69999999999993
100
AcDbArc
 50
0.0
 51
60.0
  0
ARC
  5
353
330
1F
100
AcDbEntity
  8
PROFILES_OUTSIDE
100
AcDbCircle
 10
1937.8682800697
 20
49.0732622726
 30
0.0
 40
6.000000000000007
100
AcDbArc
 50
0.0
 51
90.0
  0
ARC
  5
354
330
1F
100
AcDbEntity
  8
PROFILES_OUTSIDE
100
AcDbCircle
 10
1719.1682800697
 20
67.0732622726
 30
0.0
 40
12.0
100
AcDbArc
 50
270.0
 51
0.0
  0
ARC
  5
355
330
1F
100
AcDbEntity
  8
PROFILES_OUTSIDE
100
AcDbCircle
 10
1936.2702341626
 20
41.5732622726
 30
0.0
 40
1.0
100
AcDbArc
 50
3.6619355755
 51
90.0
  0
ARC
  5
356
330
1F
100
AcDbEntity
  8
PROFILES_OUTSIDE
100
AcDbCircle
 10
1922.3305584531
 20
43.5732622726
 30
0.0
 40
0.9999999999999791
100
AcDbArc
 50
245.1121079736
 51
270.0
  0
ARC
  5
357
330
1F
100
AcDbEntity
  8
PROFILES_OUTSIDE
100
AcDbCircle
 10
1919.7339502093
 20
37.9762518538
 30
0.0
 40
5.169999999999974
100
AcDbArc
 50
65.1121079736
 51
252.3995332141
  0
ARC
  5
358
330
1F
100
AcDbEntity
  8
PROFILES_OUTSIDE
100
AcDbCircle
 10
1917.8682800697
 20
32.0950806329
 30
0.0
 40
1.000000000000039
100
AcDbArc
 50
0.0
 51
72.3995332141
  0
ARC
  5
359
330
1F
100
AcDbEntity
  8
PROFILES_OUTSIDE
100
AcDbCircle
 10
1795.8682800697
 20
42.0712622726
 30
0.0
 40
12.0
100
AcDbArc
 50
180.0
 51
270.0
  0
ARC
  5
35A
330
1F
100
AcDbEntity
  8
PROFILES_OUTSIDE
100
AcDbCircle
 10
1771.8682800697
 20
138.9049647797
 30
0.0
 40
12.0
100
AcDbArc
 50
0.0
 51
90.0
  0
ARC
  5
35B
330
1F
100
AcDbEntity
  8
PROFILES_OUTSIDE
100
AcDbCircle
 10
1755.8682800697
 20
138.9049647797
 30
0.0
 40
12.0
100
AcDbArc
 50
90.0
 51
180.0
  0
ARC
  5
35C
330
1F
100
AcDbEntity
  8
PROFILES_OUTSIDE
100
AcDbCircle
 10
1731.8682800697
 20
42.0712622726
 30
0.0
 40
12.00000000000001
100
AcDbArc
 50
270.0
 51
0.0
  0
ARC
  5
35D
330
1F
100
AcDbEntity
  8
PROFILES_OUTSIDE
100
AcDbCircle
 10
1609.8682800697
 20
32.0950806329
 30
0.0
 40
1.0
100
AcDbArc
 50
107.6004667859
 51
180.0
  0
ARC
  5
35E
330
1F
100
AcDbEntity
  8
PROFILES_OUTSIDE
100
AcDbCircle
 10
1608.0026099301
 20
37.9762518538
 30
0.0
 40
5.170000000000152
100
AcDbArc
 50
287.6004667859
 51
114.8878920264
  0
ARC
  5
35F
330
1F
100
AcDbEntity
  8
PROFILES_OUTSIDE
100
AcDbCircle
 10
1605.4060016863
 20
43.5732622726
 30
0.0
 40
0.9999999999997804
100
AcDbArc
 50
270.0
 51
294.8878920264
  0
ARC
  5
360
330
1F
100
AcDbEntity
  8
PROFILES_OUTSIDE
100
AcDbCircle
 10
1591.4663259768
 20
41.5732622726
 30
0.0
 40
1.0
100
AcDbArc
 50
90.0
 51
176.3380644245
  0
ARC
  5
361
330
1F
100
AcDbEntity
  8
PROFILES_OUTSIDE
100
AcDbCircle
 10
1589.8682800697
 20
49.0732622726
 30
0.0
 40
6.000000000000227
100
AcDbArc
 50
90.0
 51
180.0
  0
ARC
  5
362
330
1F
100
AcDbEntity
  8
PROFILES_OUTSIDE
100
AcDbCircle
 10
1719.1682800697
 20
343.5703697938
 30
0.0
 40
12.0
100
AcDbArc
 50
0.0
 51
90.0
  0
ARC
  5
363
330
1F
100
AcDbEntity
  8
PROFILES_OUTSIDE
100
AcDbCircle
 10
1743.8682800697
 20
150.9049647797
 30
0.0
 40
12.70000000000027
100
AcDbArc
 50
120.0
 51
180.0
  0
ARC
  5
364
330
1F
100
AcDbEntity
  8
PROFILES_OUTSIDE
100
AcDbCircle
 10
1731.1682800697
 20
172.9020100358
 30
0.0
 40
12.70000000000005
100
AcDbArc
 50
300.0
 51
0.0
  0
ARC
  5
365
330
1F
100
AcDbEntity
  8
PROFILES_OUTSIDE
100
AcDbCircle
 10
1731.1682800697
 20
237.7416220306
 30
0.0
 40
12.70000000000027
100
AcDbArc
 50
0.0
 51
60.0
  0
ARC
  5
366
330
1F
100
AcDbEntity
  8
PROFILES_OUTSIDE
100
AcDbCircle
 10
1743.8682800697
 20
259.7386672868
 30
0.0
 40
12.70000000000027
100
AcDbArc
 50
180.0
 51
240.0
  0
ARC
  5
367
330
1F
100
AcDbEntity
  8
PROFILES_OUTSIDE
100
AcDbCircle
 10
1589.8682800697
 20
361.5703697938
 30
0.0
 40
6.0
100
AcDbArc
 50
180.0
 51
270.0
  0
ARC
  5
368
330
1F
100
AcDbEntity
  8
PROFILES_OUTSIDE
100
AcDbCircle
 10
1584.8682800697
 20
373.3203697938
 30
0.0
 40
1.0
100
AcDbArc
 50
90.0
 51
180.0
  0
ARC
  5
369
330
1F
100
AcDbEntity
  8
PROFILES_OUTSIDE
100
AcDbCircle
 10
1584.8682800697
 20
419.3003697938
 30
0.0
 40
1.0
100
AcDbArc
 50
180.0
 51
270.0
  0
ARC
  5
36A
330
1F
100
AcDbEntity
  8
PROFILES_OUTSIDE
100
AcDbCircle
 10
1719.1682800697
 20
449.0503697938
 30
0.0
 40
12.00000000000006
100
AcDbArc
 50
270.0
 51
0.0
  0
ARC
  5
36B
330
1F
100
AcDbEntity
  8
PROFILES_OUTSIDE
100
AcDbCircle
 10
1719.1682800697
 20
725.547477315
 30
0.0
 40
12.00000000000023
100
AcDbArc
 50
0.0
 51
90.0
  0
ARC
  5
36C
330
1F
100
AcDbEntity
  8
PROFILES_OUTSIDE
100
AcDbCircle
 10
1584.8682800697
 20
755.297477315
 30
0.0
 40
1.0
100
AcDbArc
 50
90.0
 51
180.0
  0
ARC
  5
36D
330
1F
100
AcDbEntity
  8
PROFILES_OUTSIDE
100
AcDbCircle
 10
1936.2702341626
 20
423.5503697938
 30
0.0
 40
1.00000000000016
100
AcDbArc
 50
3.6619355755
 51
90.0
  0
ARC
  5
36E
330
1F
100
AcDbEntity
  8
PROFILES_OUTSIDE
100
AcDbCircle
 10
1922.3305584531
 20
425.5503697938
 30
0.0
 40
0.99999999999989
100
AcDbArc
 50
245.1121079736
 51
270.0
  0
ARC
  5
36F
330
1F
100
AcDbEntity
  8
PROFILES_OUTSIDE
100
AcDbCircle
 10
1919.7339502093
 20
419.953359375
 30
0.0
 40
5.17000000000008
100
AcDbArc
 50
65.1121079736
 51
252.3995332141
  0
ARC
  5
370
330
1F
100
AcDbEntity
  8
PROFILES_OUTSIDE
100
AcDbCircle
 10
1917.8682800697
 20
414.0721881541
 30
0.0
 40
1.0
100
AcDbArc
 50
0.0
 51
72.3995332141
  0
ARC
  5
371
330
1F
100
AcDbEntity
  8
PROFILES_OUTSIDE
100
AcDbCircle
 10
1795.8682800697
 20
424.0483697938
 30
0.0
 40
12.0
100
AcDbArc
 50
180.0
 51
270.0
  0
ARC
  5
372
330
1F
100
AcDbEntity
  8
PROFILES_OUTSIDE
100
AcDbCircle
 10
1771.8682800697
 20
520.8820723009
 30
0.0
 40
12.00000000000011
100
AcDbArc
 50
0.0
 51
90.0
  0
ARC
  5
373
330
1F
100
AcDbEntity
  8
PROFILES_OUTSIDE
100
AcDbCircle
 10
1755.8682800697
 20
520.8820723009
 30
0.0
 40
12.00000000000011
100
AcDbArc
 50
90.0
 51
180.0
  0
ARC
  5
374
330
1F
100
AcDbEntity
  8
PROFILES_OUTSIDE
100
AcDbCircle
 10
1731.8682800697
 20
424.0483697938
 30
0.0
 40
12.0
100
AcDbArc
 50
270.0
 51
0.0
  0
ARC
  5
375
330
1F
100
AcDbEntity
  8
PROFILES_OUTSIDE
100
AcDbCircle
 10
1609.8682800697
 20
414.0721881541
 30
0.0
 40
1.0
100
AcDbArc
 50
107.6004667859
 51
180.0
  0
ARC
  5
376
330
1F
100
AcDbEntity
  8
PROFILES_OUTSIDE
100
AcDbCircle
 10
1608.0026099301
 20
419.953359375
 30
0.0
 40
5.17000000000003
100
AcDbArc
 50
287.6004667859
 51
114.8878920264
  0
ARC
  5
377
330
1F
100
AcDbEntity
  8
PROFILES_OUTSIDE
100
AcDbCircle
 10
1605.4060016863
 20
425.5503697938
 30
0.0
 40
1.000000000000037
100
AcDbArc
 50
270.0
 51
294.8878920264
  0
ARC
  5
378
330
1F
100
AcDbEntity
  8
PROFILES_OUTSIDE
100
AcDbCircle
 10
1591.4663259768
 20
423.5503697938
 30
0.0
 40
0.9999999999999432
100
AcDbArc
 50
90.0
 51
176.3380644245
  0
ARC
  5
379
330
1F
100
AcDbEntity
  8
PROFILES_OUTSIDE
100
AcDbCircle
 10
1589.8682800697
 20
431.0503697938
 30
0.0
 40
6.000000000000227
100
AcDbArc
 50
90.0
 51
180.0
  0
ARC
  5
37A
330
1F
100
AcDbEntity
  8
PROFILES_OUTSIDE
100
AcDbCircle
 10
1942.8682800697
 20
755.297477315
 30
0.0
 40
1.0
100
AcDbArc
 50
0.0
 51
90.0
  0
ARC
  5
37B
330
1F
100
AcDbEntity
  8
PROFILES_OUTSIDE
100
AcDbCircle
 10
1743.8682800697
 20
532.8820723009
 30
0.0
 40
12.70000000000027
100
AcDbArc
 50
120.0
 51
180.0
  0
ARC
  5
37C
330
1F
100
AcDbEntity
  8
PROFILES_OUTSIDE
100
AcDbCircle
 10
1731.1682800697
 20
554.879117557
 30
0.0
 40
12.70000000000005
100
AcDbArc
 50
300.0
 51
0.0
  0
ARC
  5
37D
330
1F
100
AcDbEntity
  8
PROFILES_OUTSIDE
100
AcDbCircle
 10
1731.1682800697
 20
619.7187295518
 30
0.0
 40
12.70000000000005
100
AcDbArc
 50
0.0
 51
60.0
  0
ARC
  5
37E
330
1F
100
AcDbEntity
  8
PROFILES_OUTSIDE
100
AcDbCircle
 10
1743.8682800697
 20
641.715774808
 30
0.0
 40
12.70000000000005
100
AcDbArc
 50
180.0
 51
240.0
  0
ARC
  5
37F
330
1F
100
AcDbEntity
  8
PROFILES_OUTSIDE
100
AcDbCircle
 10
1589.8682800697
 20
743.547477315
 30
0.0
 40
6.000000000000227
100
AcDbArc
 50
180.0
 51
270.0
  0
ARC
  5
380
330
1F
100
AcDbEntity
  8
PROFILES_OUTSIDE
100
AcDbCircle
 10
1808.5682800697
 20
725.547477315
 30
0.0
 40
12.0
100
AcDbArc
 50
90.0
 51
180.0
  0
ARC
  5
381
330
1F
100
AcDbEntity
  8
PROFILES_OUTSIDE
100
AcDbCircle
 10
1591.4663259768
 20
751.047477315
 30
0.0
 40
1.0
100
AcDbArc
 50
183.6619355755
 51
270.0
  0
ARC
  5
382
330
1F
100
AcDbEntity
  8
PROFILES_OUTSIDE
100
AcDbCircle
 10
1605.4060016863
 20
749.047477315
 30
0.0
 40
1.0
100
AcDbArc
 50
65.1121079736
 51
90.0
  0
ARC
  5
383
330
1F
100
AcDbEntity
  8
PROFILES_OUTSIDE
100
AcDbCircle
 10
1608.0026099301
 20
754.6444877338
 30
0.0
 40
5.170000000000124
100
AcDbArc
 50
245.1121079736
 51
72.3995332141
  0
ARC
  5
384
330
1F
100
AcDbEntity
  8
PROFILES_OUTSIDE
100
AcDbCircle
 10
1609.8682800697
 20
760.5256589548
 30
0.0
 40
1.0
100
AcDbArc
 50
180.0
 51
252.3995332141
  0
ARC
  5
385
330
1F
100
AcDbEntity
  8
PROFILES_OUTSIDE
100
AcDbCircle
 10
1731.8682800697
 20
750.549477315
 30
0.0
 40
12.0
100
AcDbArc
 50
0.0
 51
90.0
  0
ARC
  5
386
330
1F
100
AcDbEntity
  8
PROFILES_OUTSIDE
100
AcDbCircle
 10
1755.8682800697
 20
653.715774808
 30
0.0
 40
12.0
100
AcDbArc
 50
180.0
 51
270.0
  0
ARC
  5
387
330
1F
100
AcDbEntity
  8
PROFILES_OUTSIDE
100
AcDbCircle
 10
1771.8682800697
 20
653.715774808
 30
0.0
 40
12.0
100
AcDbArc
 50
270.0
 51
0.0
  0
ARC
  5
388
330
1F
100
AcDbEntity
  8
PROFILES_OUTSIDE
100
AcDbCircle
 10
1795.8682800697
 20
750.549477315
 30
0.0
 40
12.0
100
AcDbArc
 50
90.0
 51
180.0
  0
ARC
  5
389
330
1F
100
AcDbEntity
  8
PROFILES_OUTSIDE
100
AcDbCircle
 10
1917.8682800697
 20
760.5256589548
 30
0.0
 40
1.0
100
AcDbArc
 50
287.6004667859
 51
0.0
  0
ARC
  5
38A
330
1F
100
AcDbEntity
  8
PROFILES_OUTSIDE
100
AcDbCircle
 10
1919.7339502093
 20
754.6444877338
 30
0.0
 40
5.170000000000124
100
AcDbArc
 50
107.6004667859
 51
294.8878920264
  0
ARC
  5
38B
330
1F
100
AcDbEntity
  8
PROFILES_OUTSIDE
100
AcDbCircle
 10
1922.3305584531
 20
749.047477315
 30
0.0
 40
0.9999999999999415
100
AcDbArc
 50
90.0
 51
114.8878920264
  0
ARC
  5
38C
330
1F
100
AcDbEntity
  8
PROFILES_OUTSIDE
100
AcDbCircle
 10
1936.2702341626
 20
751.047477315
 30
0.0
 40
1.000000000000156
100
AcDbArc
 50
270.0
 51
356.3380644245
  0
ARC
  5
38D
330
1F
100
AcDbEntity
  8
PROFILES_OUTSIDE
100
AcDbCircle
 10
1937.8682800697
 20
743.547477315
 30
0.0
 40
6.0
100
AcDbArc
 50
270.0
 51
0.0
  0
ARC
  5
38E
330
1F
100
AcDbEntity
  8
PROFILES_OUTSIDE
100
AcDbCircle
 10
1808.5682800697
 20
449.0503697938
 30
0.0
 40
11.99999999999977
100
AcDbArc
 50
180.0
 51
270.0
  0
ARC
  5
38F
330
1F
100
AcDbEntity
  8
PROFILES_OUTSIDE
100
AcDbCircle
 10
1783.8682800697
 20
641.715774808
 30
0.0
 40
12.70000000000005
100
AcDbArc
 50
300.0
 51
0.0
  0
ARC
  5
390
330
1F
100
AcDbEntity
  8
PROFILES_OUTSIDE
100
AcDbCircle
 10
1796.5682800697
 20
619.7187295518
 30
0.0
 40
12.69999999999982
100
AcDbArc
 50
120.0
 51
180.0
  0
ARC
  5
391
330
1F
100
AcDbEntity
  8
PROFILES_OUTSIDE
100
AcDbCircle
 10
1796.5682800697
 20
554.879117557
 30
0.0
 40
12.69999999999982
100
AcDbArc
 50
180.0
 51
240.0
  0
ARC
  5
392
330
1F
100
AcDbEntity
  8
PROFILES_OUTSIDE
100
AcDbCircle
 10
1783.8682800697
 20
532.8820723009
 30
0.0
 40
12.69999999999995
100
AcDbArc
 50
0.0
 51
60.0
  0
ARC
  5
393
330
1F
100
AcDbEntity
  8
PROFILES_OUTSIDE
100
AcDbCircle
 10
1937.8682800697
 20
431.0503697938
 30
0.0
 40
6.0
100
AcDbArc
 50
0.0
 51
90.0
  0
ARC
  5
394
330
1F
100
AcDbEntity
  8
PROFILES_OUTSIDE
100
AcDbCircle
 10
1942.8682800697
 20
419.3003697938
 30
0.0
 40
1.0
100
AcDbArc
 50
270.0
 51
0.0
  0
ENDSEC
  0
SECTION
  2
OBJECTS
  0
DICTIONARY
  5
C
330
0
100
AcDbDictionary
  3
ACAD_GROUP
350
D
  3
ACAD_MLINESTYLE
350
17
  3
ACAD_SCALELIST
350
47
  0
DICTIONARY
  5
D
102
{ACAD_REACTORS
330
C
102
}
330
C
100
AcDbDictionary
  0
DICTIONARY
  5
17
102
{ACAD_REACTORS
330
C
102
}
330
C
100
AcDbDictionary
  3
STANDARD
350
18
  0
DICTIONARY
  5
47
102
{ACAD_REACTORS
330
C
102
}
330
C
100
AcDbDictionary
  0
MLINESTYLE
  5
18
102
{ACAD_REACTORS
330
17
102
}
330
17
100
AcDbMlineStyle
  2
Standard
 70
     0
  3

 62
   256
 51
90.0
 52
90.0
 71
     2
 49
0.5
 62
   256
  6
BYLAYER
 49
-0.5
 62
   256
  6
BYLAYER
  0
ENDSEC
  0
EOF
